<svg width="16" height="16" viewBox="0 0 16 16" fill="none" xmlns="http://www.w3.org/2000/svg">
<g clip-path="url(#clip0_2053_1061)">
<path d="M1.33337 7.82873C1.33337 5.25011 1.33337 3.9608 2.11442 3.15972C2.89547 2.35865 4.15255 2.35865 6.66671 2.35865H9.33337C11.8475 2.35865 13.1046 2.35865 13.8857 3.15972C14.6667 3.9608 14.6667 5.25011 14.6667 7.82873V9.19626C14.6667 11.7749 14.6667 13.0642 13.8857 13.8653C13.1046 14.6663 11.8475 14.6663 9.33337 14.6663H6.66671C4.15255 14.6663 2.89547 14.6663 2.11442 13.8653C1.33337 13.0642 1.33337 11.7749 1.33337 9.19626V7.82873Z" fill="#96BFFF"/>
<path d="M4.16671 2.35865C4.16671 2.63479 4.39056 2.85865 4.66671 2.85865C4.94285 2.85865 5.16671 2.63479 5.16671 2.35865H4.66671H4.16671ZM5.16671 1.33301C5.16671 1.05687 4.94285 0.833008 4.66671 0.833008C4.39056 0.833008 4.16671 1.05687 4.16671 1.33301H4.66671H5.16671ZM10.8334 2.35865C10.8334 2.63479 11.0572 2.85865 11.3334 2.85865C11.6095 2.85865 11.8334 2.63479 11.8334 2.35865H11.3334H10.8334ZM11.8334 1.33301C11.8334 1.05687 11.6095 0.833008 11.3334 0.833008C11.0572 0.833008 10.8334 1.05687 10.8334 1.33301H11.3334H11.8334ZM1.66671 5.27745C1.39056 5.27745 1.16671 5.50131 1.16671 5.77745C1.16671 6.05359 1.39056 6.27745 1.66671 6.27745V5.77745V5.27745ZM14.3334 6.27745C14.6095 6.27745 14.8334 6.05359 14.8334 5.77745C14.8334 5.50131 14.6095 5.27745 14.3334 5.27745V5.77745V6.27745ZM6.35804 9.18909C6.16527 8.99137 5.84871 8.98736 5.65099 9.18014C5.45327 9.37291 5.44927 9.68947 5.64204 9.88719L6.00004 9.53814L6.35804 9.18909ZM7.33337 10.9057L6.97537 11.2547C7.06948 11.3512 7.19857 11.4057 7.33337 11.4057C7.46818 11.4057 7.59727 11.3512 7.69137 11.2547L7.33337 10.9057ZM10.358 8.51966C10.5508 8.32195 10.5468 8.00539 10.3491 7.81261C10.1514 7.61984 9.83482 7.62385 9.64204 7.82156L10 8.17061L10.358 8.51966ZM6.66671 2.35865V2.85865H9.33337V2.35865V1.85865H6.66671V2.35865ZM14.6667 7.82873H14.1667V9.19626H14.6667H15.1667V7.82873H14.6667ZM9.33337 14.6663V14.1663H6.66671V14.6663V15.1663H9.33337V14.6663ZM1.33337 9.19626H1.83337V7.82873H1.33337H0.833374V9.19626H1.33337ZM6.66671 14.6663V14.1663C5.39514 14.1663 4.49304 14.1652 3.80895 14.0709C3.14057 13.9787 2.75511 13.8062 2.47242 13.5162L2.11442 13.8653L1.75642 14.2143C2.25478 14.7255 2.88839 14.9534 3.67235 15.0615C4.4406 15.1675 5.42412 15.1663 6.66671 15.1663V14.6663ZM1.33337 9.19626H0.833374C0.833374 10.4718 0.832364 11.4775 0.935246 12.2623C1.03985 13.0603 1.25979 13.7049 1.75642 14.2143L2.11442 13.8653L2.47242 13.5162C2.18801 13.2245 2.01742 12.824 1.92676 12.1324C1.83438 11.4276 1.83337 10.4994 1.83337 9.19626H1.33337ZM14.6667 9.19626H14.1667C14.1667 10.4994 14.1657 11.4276 14.0733 12.1324C13.9827 12.824 13.8121 13.2245 13.5277 13.5162L13.8857 13.8653L14.2437 14.2143C14.7403 13.7049 14.9602 13.0603 15.0648 12.2623C15.1677 11.4775 15.1667 10.4718 15.1667 9.19626H14.6667ZM9.33337 14.6663V15.1663C10.576 15.1663 11.5595 15.1675 12.3277 15.0615C13.1117 14.9534 13.7453 14.7255 14.2437 14.2143L13.8857 13.8653L13.5277 13.5162C13.245 13.8062 12.8595 13.9787 12.1911 14.0709C11.507 14.1652 10.6049 14.1663 9.33337 14.1663V14.6663ZM9.33337 2.35865V2.85865C10.6049 2.85865 11.507 2.85976 12.1911 2.9541C12.8595 3.04626 13.245 3.21884 13.5277 3.50877L13.8857 3.15972L14.2437 2.81067C13.7453 2.29954 13.1117 2.07157 12.3277 1.96347C11.5595 1.85753 10.576 1.85865 9.33337 1.85865V2.35865ZM14.6667 7.82873H15.1667C15.1667 6.55321 15.1677 5.54751 15.0648 4.76266C14.9602 3.9647 14.7403 3.32005 14.2437 2.81067L13.8857 3.15972L13.5277 3.50877C13.8121 3.80048 13.9827 4.20102 14.0733 4.89264C14.1657 5.59736 14.1667 6.52563 14.1667 7.82873H14.6667ZM6.66671 2.35865V1.85865C5.42412 1.85865 4.4406 1.85753 3.67235 1.96347C2.88839 2.07157 2.25478 2.29954 1.75642 2.81067L2.11442 3.15972L2.47242 3.50877C2.75511 3.21884 3.14057 3.04626 3.80895 2.9541C4.49304 2.85976 5.39514 2.85865 6.66671 2.85865V2.35865ZM1.33337 7.82873H1.83337C1.83337 6.52563 1.83438 5.59736 1.92676 4.89264C2.01742 4.20102 2.18801 3.80048 2.47242 3.50877L2.11442 3.15972L1.75642 2.81067C1.25979 3.32005 1.03985 3.9647 0.935246 4.76266C0.832364 5.54751 0.833374 6.55321 0.833374 7.82873H1.33337ZM4.66671 2.35865H5.16671V1.33301H4.66671H4.16671V2.35865H4.66671ZM11.3334 2.35865H11.8334V1.33301H11.3334H10.8334V2.35865H11.3334ZM1.66671 5.77745V6.27745H14.3334V5.77745V5.27745H1.66671V5.77745ZM6.00004 9.53814L5.64204 9.88719L6.97537 11.2547L7.33337 10.9057L7.69137 10.5566L6.35804 9.18909L6.00004 9.53814ZM7.33337 10.9057L7.69137 11.2547L10.358 8.51966L10 8.17061L9.64204 7.82156L6.97537 10.5566L7.33337 10.9057Z" fill="#626060"/>
</g>
<defs>
<clipPath id="clip0_2053_1061">
<rect width="16" height="16" fill="white"/>
</clipPath>
</defs>
</svg>
