<svg width="16" height="16" viewBox="0 0 16 16" fill="none" xmlns="http://www.w3.org/2000/svg">
<g clip-path="url(#clip0_2053_1037)">
<path d="M8.00004 14.6663H11.3334V3.99967C11.3334 2.7426 11.3334 2.11406 10.9428 1.72353C10.5523 1.33301 9.92379 1.33301 8.66671 1.33301H7.33337C6.07629 1.33301 5.44776 1.33301 5.05723 1.72353C4.66671 2.11406 4.66671 2.7426 4.66671 3.99967V14.6663H8.00004Z" fill="#96BFFF"/>
<path d="M14.6667 15.1663C14.9428 15.1663 15.1667 14.9425 15.1667 14.6663C15.1667 14.3902 14.9428 14.1663 14.6667 14.1663V14.6663V15.1663ZM1.33337 14.1663C1.05723 14.1663 0.833374 14.3902 0.833374 14.6663C0.833374 14.9425 1.05723 15.1663 1.33337 15.1663V14.6663V14.1663ZM13.4075 3.55771L13.6853 3.14198L13.6853 3.14198L13.4075 3.55771ZM13.7753 3.92558L13.3596 4.20336L13.3596 4.20337L13.7753 3.92558ZM2.59261 3.55771L2.31483 3.14198L2.31483 3.14198L2.59261 3.55771ZM2.22475 3.92558L2.64048 4.20337L2.64048 4.20337L2.22475 3.92558ZM8.50004 12.6663C8.50004 12.3902 8.27618 12.1663 8.00004 12.1663C7.7239 12.1663 7.50004 12.3902 7.50004 12.6663H8.00004H8.50004ZM7.50004 7.99967C7.50004 8.27582 7.7239 8.49967 8.00004 8.49967C8.27618 8.49967 8.50004 8.27582 8.50004 7.99967H8.00004H7.50004ZM8.50004 5.33301C8.50004 5.05687 8.27618 4.83301 8.00004 4.83301C7.7239 4.83301 7.50004 5.05687 7.50004 5.33301H8.00004H8.50004ZM9.33337 7.16634C9.60952 7.16634 9.83337 6.94248 9.83337 6.66634C9.83337 6.3902 9.60952 6.16634 9.33337 6.16634V6.66634V7.16634ZM6.66671 6.16634C6.39056 6.16634 6.16671 6.3902 6.16671 6.66634C6.16671 6.94248 6.39056 7.16634 6.66671 7.16634V6.66634V6.16634ZM14.6667 14.6663V14.1663H14V14.6663V15.1663H14.6667V14.6663ZM14 14.6663V14.1663H11.3334V14.6663V15.1663H14V14.6663ZM11.3334 14.6663V14.1663H8.00004V14.6663V15.1663H11.3334V14.6663ZM8.00004 14.6663V14.1663H4.66671V14.6663V15.1663H8.00004V14.6663ZM4.66671 14.6663V14.1663H2.00004V14.6663V15.1663H4.66671V14.6663ZM2.00004 14.6663V14.1663H1.33337V14.6663V15.1663H2.00004V14.6663ZM7.33337 1.33301V1.83301H8.66671V1.33301V0.833008H7.33337V1.33301ZM11.3334 3.99967H10.8334V14.6663H11.3334H11.8334V3.99967H11.3334ZM4.66671 14.6663H5.16671V3.99967H4.66671H4.16671V14.6663H4.66671ZM8.66671 1.33301V1.83301C9.30938 1.83301 9.74109 1.83407 10.0631 1.87736C10.3708 1.91873 10.5024 1.99021 10.5893 2.07709L10.9428 1.72353L11.2964 1.36998C10.9928 1.06633 10.6149 0.942552 10.1964 0.886282C9.79221 0.831946 9.28111 0.833008 8.66671 0.833008V1.33301ZM11.3334 3.99967H11.8334C11.8334 3.38527 11.8344 2.87417 11.7801 2.47002C11.7238 2.05149 11.6 1.67363 11.2964 1.36998L10.9428 1.72353L10.5893 2.07709C10.6762 2.16396 10.7477 2.29563 10.789 2.60327C10.8323 2.92529 10.8334 3.357 10.8334 3.99967H11.3334ZM7.33337 1.33301V0.833008C6.71897 0.833008 6.20787 0.831946 5.80372 0.886282C5.38519 0.942552 5.00732 1.06633 4.70368 1.36998L5.05723 1.72353L5.41078 2.07709C5.49766 1.99021 5.62933 1.91873 5.93697 1.87736C6.25899 1.83407 6.6907 1.83301 7.33337 1.83301V1.33301ZM4.66671 3.99967H5.16671C5.16671 3.357 5.16777 2.92529 5.21106 2.60327C5.25243 2.29563 5.32391 2.16396 5.41078 2.07709L5.05723 1.72353L4.70368 1.36998C4.40003 1.67363 4.27625 2.05149 4.21998 2.47002C4.16565 2.87417 4.16671 3.38527 4.16671 3.99967H4.66671ZM14 5.66634H13.5V14.6663H14H14.5V5.66634H14ZM11.6667 3.33301V3.83301C12.1453 3.83301 12.4666 3.83361 12.7115 3.85853C12.9481 3.8826 13.0574 3.92514 13.1297 3.97345L13.4075 3.55771L13.6853 3.14198C13.4213 2.96558 13.1283 2.89577 12.8127 2.86366C12.5054 2.8324 12.1245 2.83301 11.6667 2.83301V3.33301ZM14 5.66634H14.5C14.5 5.20859 14.5006 4.82765 14.4694 4.52035C14.4373 4.20471 14.3675 3.91179 14.1911 3.6478L13.7753 3.92558L13.3596 4.20337C13.4079 4.27567 13.4505 4.38498 13.4745 4.62156C13.4994 4.8665 13.5 5.18778 13.5 5.66634H14ZM13.4075 3.55771L13.1297 3.97345C13.2207 4.03425 13.2988 4.11237 13.3596 4.20336L13.7753 3.92558L14.1911 3.6478C14.0573 3.44761 13.8854 3.27574 13.6853 3.14198L13.4075 3.55771ZM2.00004 5.66634H1.50004V14.6663H2.00004H2.50004V5.66634H2.00004ZM4.33337 3.33301V2.83301C3.87563 2.83301 3.49468 2.8324 3.18739 2.86366C2.87174 2.89577 2.57883 2.96558 2.31483 3.14198L2.59261 3.55771L2.8704 3.97345C2.9427 3.92514 3.05201 3.8826 3.28859 3.85853C3.53353 3.83361 3.85481 3.83301 4.33337 3.83301V3.33301ZM2.00004 5.66634H2.50004C2.50004 5.18778 2.50065 4.8665 2.52556 4.62156C2.54963 4.38498 2.59217 4.27567 2.64048 4.20337L2.22475 3.92558L1.80901 3.6478C1.63262 3.91179 1.56281 4.20471 1.5307 4.52035C1.49944 4.82765 1.50004 5.20859 1.50004 5.66634H2.00004ZM2.59261 3.55771L2.31483 3.14198C2.11465 3.27574 1.94277 3.44761 1.80901 3.6478L2.22475 3.92558L2.64048 4.20337C2.70128 4.11237 2.77941 4.03425 2.8704 3.97345L2.59261 3.55771ZM8.00004 14.6663H8.50004V12.6663H8.00004H7.50004V14.6663H8.00004ZM8.00004 7.99967H8.50004V6.66634H8.00004H7.50004V7.99967H8.00004ZM8.00004 6.66634H8.50004V5.33301H8.00004H7.50004V6.66634H8.00004ZM9.33337 6.66634V6.16634H8.00004V6.66634V7.16634H9.33337V6.66634ZM8.00004 6.66634V6.16634H6.66671V6.66634V7.16634H8.00004V6.66634Z" fill="#626060"/>
</g>
<defs>
<clipPath id="clip0_2053_1037">
<rect width="16" height="16" fill="white"/>
</clipPath>
</defs>
</svg>
