<svg width="16" height="16" viewBox="0 0 16 16" fill="none" xmlns="http://www.w3.org/2000/svg">
<path d="M10.6666 3.99967C10.6666 5.47243 9.47272 6.66634 7.99996 6.66634C6.5272 6.66634 5.33329 5.47243 5.33329 3.99967C5.33329 2.52692 6.5272 1.33301 7.99996 1.33301C9.47272 1.33301 10.6666 2.52692 10.6666 3.99967Z" fill="#96BFFF"/>
<path d="M14.6666 10.6663C14.6666 12.1391 13.4727 13.333 12 13.333C10.5272 13.333 9.33329 12.1391 9.33329 10.6663C9.33329 9.19358 10.5272 7.99967 12 7.99967C13.4727 7.99967 14.6666 9.19358 14.6666 10.6663Z" fill="#96BFFF"/>
<path d="M12.5 9.77744C12.5 9.5013 12.2761 9.27744 12 9.27744C11.7238 9.27744 11.5 9.5013 11.5 9.77744H12H12.5ZM11.5 11.5552C11.5 11.8314 11.7238 12.0552 12 12.0552C12.2761 12.0552 12.5 11.8314 12.5 11.5552H12H11.5ZM11.111 10.1663C10.8348 10.1663 10.611 10.3902 10.611 10.6663C10.611 10.9425 10.8348 11.1663 11.111 11.1663V10.6663V10.1663ZM12.8887 11.1663C13.1649 11.1663 13.3887 10.9425 13.3887 10.6663C13.3887 10.3902 13.1649 10.1663 12.8887 10.1663V10.6663V11.1663ZM10.6666 3.99967H10.1666C10.1666 5.19629 9.19658 6.16634 7.99996 6.16634V6.66634V7.16634C9.74886 7.16634 11.1666 5.74858 11.1666 3.99967H10.6666ZM7.99996 6.66634V6.16634C6.80334 6.16634 5.83329 5.19629 5.83329 3.99967H5.33329H4.83329C4.83329 5.74858 6.25106 7.16634 7.99996 7.16634V6.66634ZM5.33329 3.99967H5.83329C5.83329 2.80306 6.80334 1.83301 7.99996 1.83301V1.33301V0.833008C6.25106 0.833008 4.83329 2.25077 4.83329 3.99967H5.33329ZM7.99996 1.33301V1.83301C9.19658 1.83301 10.1666 2.80306 10.1666 3.99967H10.6666H11.1666C11.1666 2.25077 9.74886 0.833008 7.99996 0.833008V1.33301ZM7.99996 14.6663V14.1663C6.68381 14.1663 5.72045 14.0831 5.01582 13.9405C4.30897 13.7975 3.89604 13.6011 3.64902 13.4C3.1935 13.029 3.16663 12.5382 3.16663 11.6663H2.66663H2.16663C2.16663 12.4513 2.13975 13.4605 3.01757 14.1754C3.43721 14.5171 4.02428 14.7601 4.81743 14.9206C5.6128 15.0816 6.64944 15.1663 7.99996 15.1663V14.6663ZM2.66663 11.6663H3.16663C3.16663 11.0988 3.58088 10.4831 4.47385 9.98081C5.35116 9.48732 6.59681 9.16634 7.99996 9.16634V8.66634V8.16634C6.45759 8.16634 5.03658 8.51693 3.98359 9.10923C2.94628 9.69272 2.16663 10.577 2.16663 11.6663H2.66663ZM7.99996 8.66634V9.16634C8.67117 9.16634 9.309 9.23988 9.88895 9.37193L9.99996 8.88441L10.111 8.39689C9.45568 8.24768 8.74328 8.16634 7.99996 8.16634V8.66634ZM13.2045 12.9997L12.7284 12.847C12.6239 13.1726 12.3983 13.4864 11.7308 13.7349C11.0288 13.9962 9.87952 14.1663 7.99996 14.1663V14.6663V15.1663C9.91203 15.1663 11.2066 14.9971 12.0797 14.672C12.9874 14.3341 13.4682 13.8146 13.6806 13.1524L13.2045 12.9997ZM14.6666 10.6663H14.1666C14.1666 11.863 13.1966 12.833 12 12.833V13.333V13.833C13.7489 13.833 15.1666 12.4152 15.1666 10.6663H14.6666ZM12 13.333V12.833C10.8033 12.833 9.83329 11.863 9.83329 10.6663H9.33329H8.83329C8.83329 12.4152 10.2511 13.833 12 13.833V13.333ZM9.33329 10.6663H9.83329C9.83329 9.46972 10.8033 8.49967 12 8.49967V7.99967V7.49967C10.2511 7.49967 8.83329 8.91744 8.83329 10.6663H9.33329ZM12 7.99967V8.49967C13.1966 8.49967 14.1666 9.46972 14.1666 10.6663H14.6666H15.1666C15.1666 8.91744 13.7489 7.49967 12 7.49967V7.99967ZM12 9.77744H11.5V11.5552H12H12.5V9.77744H12ZM11.111 10.6663V11.1663H12.8887V10.6663V10.1663H11.111V10.6663Z" fill="#626060"/>
</svg>
