<svg width="16" height="16" viewBox="0 0 16 16" fill="none" xmlns="http://www.w3.org/2000/svg">
<g clip-path="url(#clip0_2053_1025)">
<path d="M14.6667 10.6663C14.6667 11.7709 13.7713 12.6663 12.6667 12.6663C11.5621 12.6663 10.6667 11.7709 10.6667 10.6663C10.6667 9.56177 11.5621 8.66634 12.6667 8.66634C13.7713 8.66634 14.6667 9.56177 14.6667 10.6663Z" fill="#96BFFF"/>
<path d="M13.0457 12.8018C13.1205 12.536 12.9656 12.2599 12.6998 12.1851C12.434 12.1103 12.1579 12.2651 12.0831 12.531L12.5644 12.6664L13.0457 12.8018ZM3.61909 2.49967C3.89523 2.49967 4.11909 2.27582 4.11909 1.99967C4.11909 1.72353 3.89523 1.49967 3.61909 1.49967V1.99967V2.49967ZM8.19052 1.49967C7.91437 1.49967 7.69052 1.72353 7.69052 1.99967C7.69052 2.27582 7.91437 2.49967 8.19052 2.49967V1.99967V1.49967ZM10.4685 3.8235L9.9704 3.86755L9.9704 3.86755L10.4685 3.8235ZM8.6524 2.00745L8.60836 2.50551L8.60836 2.50551L8.6524 2.00745ZM3.1572 2.00745L3.11316 1.50939L3.11316 1.50939L3.1572 2.00745ZM1.34115 3.8235L1.8392 3.86755L1.8392 3.86755L1.34115 3.8235ZM8.50004 1.33301C8.50004 1.05687 8.27618 0.833008 8.00004 0.833008C7.7239 0.833008 7.50004 1.05687 7.50004 1.33301H8.00004H8.50004ZM7.50004 2.66634C7.50004 2.94248 7.7239 3.16634 8.00004 3.16634C8.27618 3.16634 8.50004 2.94248 8.50004 2.66634H8.00004H7.50004ZM4.50004 1.33301C4.50004 1.05687 4.27618 0.833008 4.00004 0.833008C3.7239 0.833008 3.50004 1.05687 3.50004 1.33301H4.00004H4.50004ZM3.50004 2.66634C3.50004 2.94248 3.7239 3.16634 4.00004 3.16634C4.27618 3.16634 4.50004 2.94248 4.50004 2.66634H4.00004H3.50004ZM6.00004 9.48991H5.50004V11.333H6.00004H6.50004V9.48991H6.00004ZM9.33337 14.6664V15.1664H9.92161V14.6664V14.1664H9.33337V14.6664ZM6.00004 11.333H5.50004C5.50004 13.4501 7.21628 15.1664 9.33337 15.1664V14.6664V14.1664C7.76857 14.1664 6.50004 12.8979 6.50004 11.333H6.00004ZM9.92161 14.6664V15.1664C11.4093 15.1664 12.6619 14.1658 13.0457 12.8018L12.5644 12.6664L12.0831 12.531C11.8174 13.475 10.9496 14.1664 9.92161 14.1664V14.6664ZM3.61909 1.99967V1.49967H3.55797V1.99967V2.49967H3.61909V1.99967ZM1.33337 4.22427H0.833374V4.8232H1.33337H1.83337V4.22427H1.33337ZM10.4762 5.01368H10.9762V4.22427H10.4762H9.97623V5.01368H10.4762ZM8.25163 1.99967V1.49967H8.19052V1.99967V2.49967H8.25163V1.99967ZM10.4762 4.22427H10.9762C10.9762 4.02639 10.9767 3.89489 10.9665 3.77946L10.4685 3.8235L9.9704 3.86755C9.97574 3.92794 9.97623 4.00502 9.97623 4.22427H10.4762ZM8.25163 1.99967V2.49967C8.47089 2.49967 8.54796 2.50016 8.60836 2.50551L8.6524 2.00745L8.69644 1.50939C8.58101 1.49918 8.44952 1.49967 8.25163 1.49967V1.99967ZM10.4685 3.8235L10.9665 3.77946C10.8598 2.5727 9.90321 1.61611 8.69644 1.50939L8.6524 2.00745L8.60836 2.50551C9.33242 2.56953 9.90637 3.14349 9.9704 3.86755L10.4685 3.8235ZM10.4762 5.01368H9.97623C9.97623 7.20967 8.19602 8.98991 6.00004 8.98991V9.48991V9.98991C8.74832 9.98991 10.9762 7.76195 10.9762 5.01368H10.4762ZM1.33337 4.8232H0.833374C0.833374 7.67667 3.14656 9.98991 6.00004 9.98991V9.48991V8.98991C3.69886 8.98991 1.83337 7.12439 1.83337 4.8232H1.33337ZM3.55797 1.99967V1.49967C3.36009 1.49967 3.22859 1.49918 3.11316 1.50939L3.1572 2.00745L3.20125 2.50551C3.26164 2.50016 3.33872 2.49967 3.55797 2.49967V1.99967ZM1.33337 4.22427H1.83337C1.83337 4.00502 1.83386 3.92794 1.8392 3.86755L1.34115 3.8235L0.843092 3.77946C0.832884 3.89489 0.833374 4.02639 0.833374 4.22427H1.33337ZM3.1572 2.00745L3.11316 1.50939C1.9064 1.61611 0.949805 2.5727 0.843092 3.77946L1.34115 3.8235L1.8392 3.86755C1.90323 3.14349 2.47719 2.56953 3.20125 2.50551L3.1572 2.00745ZM14.6667 10.6663H14.1667C14.1667 11.4948 13.4951 12.1663 12.6667 12.1663V12.6663V13.1663C14.0474 13.1663 15.1667 12.0471 15.1667 10.6663H14.6667ZM12.6667 12.6663V12.1663C11.8383 12.1663 11.1667 11.4948 11.1667 10.6663H10.6667H10.1667C10.1667 12.0471 11.286 13.1663 12.6667 13.1663V12.6663ZM10.6667 10.6663H11.1667C11.1667 9.83791 11.8383 9.16634 12.6667 9.16634V8.66634V8.16634C11.286 8.16634 10.1667 9.28563 10.1667 10.6663H10.6667ZM12.6667 8.66634V9.16634C13.4951 9.16634 14.1667 9.83791 14.1667 10.6663H14.6667H15.1667C15.1667 9.28563 14.0474 8.16634 12.6667 8.16634V8.66634ZM8.00004 1.33301H7.50004V2.66634H8.00004H8.50004V1.33301H8.00004ZM4.00004 1.33301H3.50004V2.66634H4.00004H4.50004V1.33301H4.00004Z" fill="#626060"/>
</g>
<defs>
<clipPath id="clip0_2053_1025">
<rect width="16" height="16" fill="white"/>
</clipPath>
</defs>
</svg>
