<svg width="28" height="28" viewBox="0 0 28 28" fill="none" xmlns="http://www.w3.org/2000/svg">
<path d="M21.2709 11.2535L20.8747 11.5585L21.2709 11.2535ZM21.2709 16.7463L20.8747 16.4413L21.2709 16.7463ZM22.3333 13.9999H21.8333H22.3333ZM6.72904 11.2535L7.12525 11.5585L6.72904 11.2535ZM6.72904 16.7463L7.12525 16.4413L6.72904 16.7463ZM6.72904 11.2535L7.12525 11.5585C8.49438 9.77979 10.7366 7.83325 14 7.83325V7.33325V6.83325C10.2936 6.83325 7.79215 9.05264 6.33282 10.9485L6.72904 11.2535ZM14 7.33325V7.83325C17.2634 7.83325 19.5055 9.77979 20.8747 11.5585L21.2709 11.2535L21.6671 10.9485C20.2078 9.05264 17.7064 6.83325 14 6.83325V7.33325ZM21.2709 16.7463L20.8747 16.4413C19.5055 18.22 17.2634 20.1666 14 20.1666V20.6666V21.1666C17.7064 21.1666 20.2078 18.9472 21.6671 17.0513L21.2709 16.7463ZM14 20.6666V20.1666C10.7366 20.1666 8.49438 18.22 7.12525 16.4413L6.72904 16.7463L6.33282 17.0513C7.79215 18.9472 10.2936 21.1666 14 21.1666V20.6666ZM21.2709 11.2535L20.8747 11.5585C21.2379 12.0304 21.4623 12.3264 21.6103 12.6615C21.751 12.98 21.8333 13.3626 21.8333 13.9999H22.3333H22.8333C22.8333 13.2711 22.7385 12.7406 22.525 12.2574C22.319 11.791 22.0122 11.3968 21.6671 10.9485L21.2709 11.2535ZM21.2709 16.7463L21.6671 17.0513C22.0122 16.603 22.319 16.2089 22.525 15.7424C22.7385 15.2593 22.8333 14.7287 22.8333 13.9999H22.3333H21.8333C21.8333 14.6372 21.751 15.0198 21.6103 15.3383C21.4623 15.6735 21.2379 15.9695 20.8747 16.4413L21.2709 16.7463ZM6.72904 11.2535L6.33282 10.9485C5.98776 11.3968 5.68094 11.791 5.47487 12.2574C5.26143 12.7406 5.16663 13.2711 5.16663 13.9999H5.66663H6.16663C6.16663 13.3626 6.24889 12.98 6.38959 12.6615C6.53765 12.3264 6.76204 12.0304 7.12525 11.5585L6.72904 11.2535ZM6.72904 16.7463L7.12525 16.4413C6.76204 15.9695 6.53765 15.6735 6.38959 15.3383C6.24889 15.0198 6.16663 14.6372 6.16663 13.9999H5.66663H5.16663C5.16663 14.7287 5.26143 15.2593 5.47487 15.7424C5.68094 16.2089 5.98776 16.603 6.33282 17.0513L6.72904 16.7463ZM16.5 13.9999H16C16 15.1045 15.1045 15.9999 14 15.9999V16.4999V16.9999C15.6568 16.9999 17 15.6568 17 13.9999H16.5ZM14 16.4999V15.9999C12.8954 15.9999 12 15.1045 12 13.9999H11.5H11C11 15.6568 12.3431 16.9999 14 16.9999V16.4999ZM11.5 13.9999H12C12 12.8953 12.8954 11.9999 14 11.9999V11.4999V10.9999C12.3431 10.9999 11 12.3431 11 13.9999H11.5ZM14 11.4999V11.9999C15.1045 11.9999 16 12.8953 16 13.9999H16.5H17C17 12.3431 15.6568 10.9999 14 10.9999V11.4999Z" fill="#424242"/>
</svg>
