<svg width="28" height="28" viewBox="0 0 28 28" fill="none" xmlns="http://www.w3.org/2000/svg">
<path d="M15.616 6.5H12.8C8.88283 6.5 6.92426 6.5 6.55368 7.68648C6.18309 8.87296 7.74334 10.1799 10.8638 12.7938C11.7916 13.571 12.2555 13.9595 12.5034 14.5079C12.7514 15.0563 12.7514 15.6909 12.7514 16.96V20.0639C12.7514 20.5476 12.7514 20.7895 12.8063 20.9428C12.9494 21.3427 13.3379 21.5704 13.7233 21.4805C13.871 21.446 14.0564 21.3128 14.4273 21.0466C14.7914 20.7852 14.9734 20.6544 15.1237 20.5009C15.5061 20.1103 15.7611 19.5946 15.8501 19.0319C15.8851 18.8108 15.8851 18.5734 15.8851 18.0985V16.7746C15.8851 15.5937 15.8851 15.0033 16.1032 14.4835C16.3214 13.9638 16.7314 13.5774 17.5513 12.8047L17.7192 12.6465C20.456 10.0675 21.8244 8.77791 21.4347 7.63895C21.0449 6.5 19.2353 6.5 15.616 6.5Z" stroke="#424242" stroke-linecap="round"/>
</svg>
