<svg width="20" height="20" viewBox="0 0 20 20" fill="none" xmlns="http://www.w3.org/2000/svg">
<path d="M18.3337 18.8334C18.6098 18.8334 18.8337 18.6095 18.8337 18.3334C18.8337 18.0572 18.6098 17.8334 18.3337 17.8334V18.3334V18.8334ZM1.66699 17.8334C1.39085 17.8334 1.16699 18.0572 1.16699 18.3334C1.16699 18.6095 1.39085 18.8334 1.66699 18.8334V18.3334V17.8334ZM13.6788 2.15484L13.3253 2.5084V2.5084L13.6788 2.15484ZM16.7596 4.44757L16.4818 4.86331L16.4818 4.86331L16.7596 4.44757ZM17.2194 4.9074L16.8037 5.18519V5.18519L17.2194 4.9074ZM3.24104 4.44757L3.51883 4.86331L3.51883 4.86331L3.24104 4.44757ZM2.78121 4.9074L3.19694 5.18519H3.19694L2.78121 4.9074ZM9.50033 18.3334C9.50033 18.6095 9.72418 18.8334 10.0003 18.8334C10.2765 18.8334 10.5003 18.6095 10.5003 18.3334H10.0003H9.50033ZM10.5003 15.8334C10.5003 15.5572 10.2765 15.3334 10.0003 15.3334C9.72418 15.3334 9.50033 15.5572 9.50033 15.8334H10.0003H10.5003ZM9.50033 10C9.50033 10.2762 9.72418 10.5 10.0003 10.5C10.2765 10.5 10.5003 10.2762 10.5003 10H10.0003H9.50033ZM10.5003 6.66669C10.5003 6.39054 10.2765 6.16669 10.0003 6.16669C9.72418 6.16669 9.50033 6.39054 9.50033 6.66669H10.0003H10.5003ZM11.667 8.83335C11.9431 8.83335 12.167 8.6095 12.167 8.33335C12.167 8.05721 11.9431 7.83335 11.667 7.83335V8.33335V8.83335ZM8.33366 7.83335C8.05752 7.83335 7.83366 8.05721 7.83366 8.33335C7.83366 8.6095 8.05752 8.83335 8.33366 8.83335V8.33335V7.83335ZM18.3337 18.3334V17.8334H1.66699V18.3334V18.8334H18.3337V18.3334ZM9.16699 1.66669V2.16669H10.8337V1.66669V1.16669H9.16699V1.66669ZM14.167 5.00002H13.667V18.3334H14.167H14.667V5.00002H14.167ZM5.83366 18.3334H6.33366V5.00002H5.83366H5.33366V18.3334H5.83366ZM10.8337 1.66669V2.16669C11.6335 2.16669 12.183 2.16775 12.5958 2.22325C12.9942 2.27681 13.1896 2.3727 13.3253 2.5084L13.6788 2.15484L14.0324 1.80129C13.6799 1.44883 13.2384 1.30064 12.7291 1.23217C12.2342 1.16563 11.6052 1.16669 10.8337 1.16669V1.66669ZM14.167 5.00002H14.667C14.667 4.22848 14.6681 3.59953 14.6015 3.10461C14.533 2.59531 14.3849 2.15375 14.0324 1.80129L13.6788 2.15484L13.3253 2.5084C13.461 2.64409 13.5569 2.83945 13.6104 3.23786C13.6659 3.65065 13.667 4.20021 13.667 5.00002H14.167ZM9.16699 1.66669V1.16669C8.39545 1.16669 7.7665 1.16563 7.27158 1.23217C6.76228 1.30064 6.32072 1.44883 5.96826 1.80129L6.32181 2.15484L6.67537 2.5084C6.81106 2.3727 7.00642 2.27681 7.40483 2.22325C7.81763 2.16775 8.36718 2.16669 9.16699 2.16669V1.66669ZM5.83366 5.00002H6.33366C6.33366 4.20021 6.33472 3.65065 6.39022 3.23786C6.44378 2.83945 6.53967 2.64409 6.67537 2.5084L6.32181 2.15484L5.96826 1.80129C5.6158 2.15375 5.46761 2.59531 5.39914 3.10461C5.3326 3.59953 5.33366 4.22848 5.33366 5.00002H5.83366ZM17.5003 7.08335H17.0003V18.3334H17.5003H18.0003V7.08335H17.5003ZM14.5837 4.16669V4.66669C15.1793 4.66669 15.5883 4.66729 15.9023 4.69923C16.2079 4.73032 16.3675 4.78691 16.4818 4.86331L16.7596 4.44757L17.0374 4.03184C16.7314 3.82735 16.3882 3.7435 16.0035 3.70436C15.6272 3.66608 15.1584 3.66669 14.5837 3.66669V4.16669ZM17.5003 7.08335H18.0003C18.0003 6.50857 18.0009 6.03984 17.9626 5.66352C17.9235 5.27884 17.8397 4.93565 17.6352 4.62962L17.2194 4.9074L16.8037 5.18519C16.8801 5.29953 16.9367 5.45912 16.9678 5.76473C16.9997 6.07869 17.0003 6.48775 17.0003 7.08335H17.5003ZM16.7596 4.44757L16.4818 4.86331C16.6092 4.94842 16.7186 5.0578 16.8037 5.18519L17.2194 4.9074L17.6352 4.62962C17.4771 4.39304 17.274 4.18991 17.0374 4.03184L16.7596 4.44757ZM2.50033 7.08335H2.00033V18.3334H2.50033H3.00033V7.08335H2.50033ZM5.41699 4.16669V3.66669C4.84221 3.66669 4.37348 3.66608 3.99716 3.70436C3.61248 3.7435 3.26929 3.82735 2.96326 4.03184L3.24104 4.44757L3.51883 4.86331C3.63317 4.78691 3.79276 4.73032 4.09836 4.69923C4.41233 4.66729 4.82139 4.66669 5.41699 4.66669V4.16669ZM2.50033 7.08335H3.00033C3.00033 6.48775 3.00093 6.07869 3.03287 5.76473C3.06396 5.45912 3.12055 5.29953 3.19694 5.18519L2.78121 4.9074L2.36547 4.62962C2.16099 4.93565 2.07714 5.27884 2.038 5.66352C1.99972 6.03984 2.00033 6.50857 2.00033 7.08335H2.50033ZM3.24104 4.44757L2.96326 4.03184C2.72668 4.18991 2.52355 4.39304 2.36547 4.62962L2.78121 4.9074L3.19694 5.18519C3.28206 5.0578 3.39144 4.94842 3.51883 4.86331L3.24104 4.44757ZM10.0003 18.3334H10.5003V15.8334H10.0003H9.50033V18.3334H10.0003ZM10.0003 10H10.5003V6.66669H10.0003H9.50033V10H10.0003ZM11.667 8.33335V7.83335H8.33366V8.33335V8.83335H11.667V8.33335Z" fill="#EC7600"/>
</svg>
