<svg width="20" height="20" viewBox="0 0 20 20" fill="none" xmlns="http://www.w3.org/2000/svg">
<path d="M12.8337 5.00002C12.8337 5.27616 13.0575 5.50002 13.3337 5.50002C13.6098 5.50002 13.8337 5.27616 13.8337 5.00002H13.3337H12.8337ZM6.16699 5.00002C6.16699 5.27616 6.39085 5.50002 6.66699 5.50002C6.94313 5.50002 7.16699 5.27616 7.16699 5.00002H6.66699H6.16699ZM11.2503 12.1667C11.5265 12.1667 11.7503 11.9428 11.7503 11.6667C11.7503 11.3905 11.5265 11.1667 11.2503 11.1667V11.6667V12.1667ZM8.75033 11.1667C8.47418 11.1667 8.25033 11.3905 8.25033 11.6667C8.25033 11.9428 8.47418 12.1667 8.75033 12.1667V11.6667V11.1667ZM10.5003 10.4167C10.5003 10.1405 10.2765 9.91669 10.0003 9.91669C9.72418 9.91669 9.50033 10.1405 9.50033 10.4167H10.0003H10.5003ZM9.50033 12.9167C9.50033 13.1928 9.72418 13.4167 10.0003 13.4167C10.2765 13.4167 10.5003 13.1928 10.5003 12.9167H10.0003H9.50033ZM8.33366 5.00002V5.50002H11.667V5.00002V4.50002H8.33366V5.00002ZM11.667 18.3334V17.8334H8.33366V18.3334V18.8334H11.667V18.3334ZM8.33366 18.3334V17.8334C6.74818 17.8334 5.60936 17.8323 4.74271 17.7158C3.89044 17.6012 3.37663 17.3833 2.99686 17.0035L2.6433 17.357L2.28975 17.7106C2.88629 18.3071 3.64631 18.5774 4.60946 18.7069C5.55824 18.8344 6.77644 18.8334 8.33366 18.8334V18.3334ZM1.66699 11.6667H1.16699C1.16699 13.2239 1.16593 14.4421 1.29349 15.3909C1.42298 16.354 1.69321 17.1141 2.28975 17.7106L2.6433 17.357L2.99686 17.0035C2.61709 16.6237 2.39916 16.1099 2.28457 15.2576C2.16805 14.391 2.16699 13.2522 2.16699 11.6667H1.66699ZM18.3337 11.6667H17.8337C17.8337 13.2522 17.8326 14.391 17.7161 15.2576C17.6015 16.1099 17.3836 16.6237 17.0038 17.0035L17.3573 17.357L17.7109 17.7106C18.3074 17.1141 18.5777 16.354 18.7072 15.3909C18.8347 14.4421 18.8337 13.2239 18.8337 11.6667H18.3337ZM11.667 18.3334V18.8334C13.2242 18.8334 14.4424 18.8344 15.3912 18.7069C16.3543 18.5774 17.1144 18.3071 17.7109 17.7106L17.3573 17.357L17.0038 17.0035C16.624 17.3833 16.1102 17.6012 15.2579 17.7158C14.3913 17.8323 13.2525 17.8334 11.667 17.8334V18.3334ZM11.667 5.00002V5.50002C13.2525 5.50002 14.3913 5.50108 15.2579 5.6176C16.1102 5.73218 16.624 5.95011 17.0038 6.32988L17.3573 5.97633L17.7109 5.62278C17.1144 5.02624 16.3543 4.75601 15.3912 4.62652C14.4424 4.49896 13.2242 4.50002 11.667 4.50002V5.00002ZM18.3337 11.6667H18.8337C18.8337 10.1095 18.8347 8.89126 18.7072 7.94249C18.5777 6.97933 18.3074 6.21932 17.7109 5.62278L17.3573 5.97633L17.0038 6.32988C17.3836 6.70966 17.6015 7.22347 17.7161 8.07574C17.8326 8.94239 17.8337 10.0812 17.8337 11.6667H18.3337ZM8.33366 5.00002V4.50002C6.77645 4.50002 5.55824 4.49896 4.60946 4.62652C3.64631 4.75601 2.88629 5.02624 2.28975 5.62278L2.6433 5.97633L2.99686 6.32988C3.37663 5.95011 3.89044 5.73218 4.74271 5.6176C5.60936 5.50108 6.74818 5.50002 8.33366 5.50002V5.00002ZM1.66699 11.6667H2.16699C2.16699 10.0812 2.16805 8.94239 2.28457 8.07574C2.39916 7.22347 2.61709 6.70966 2.99686 6.32988L2.6433 5.97633L2.28975 5.62278C1.69321 6.21932 1.42298 6.97933 1.29349 7.94249C1.16593 8.89126 1.16699 10.1095 1.16699 11.6667H1.66699ZM10.0003 1.66669V2.16669C10.8001 2.16669 11.3497 2.16775 11.7625 2.22325C12.1609 2.27681 12.3563 2.3727 12.4919 2.5084L12.8455 2.15484L13.1991 1.80129C12.8466 1.44883 12.405 1.30064 11.8957 1.23217C11.4008 1.16563 10.7719 1.16669 10.0003 1.16669V1.66669ZM13.3337 5.00002H13.8337C13.8337 4.22848 13.8347 3.59953 13.7682 3.10461C13.6997 2.59531 13.5515 2.15375 13.1991 1.80129L12.8455 2.15484L12.4919 2.5084C12.6276 2.64409 12.7235 2.83945 12.7771 3.23786C12.8326 3.65065 12.8337 4.20021 12.8337 5.00002H13.3337ZM10.0003 1.66669V1.16669C9.22879 1.16669 8.59983 1.16563 8.10492 1.23217C7.59561 1.30064 7.15406 1.44883 6.80159 1.80129L7.15515 2.15484L7.5087 2.5084C7.64439 2.3727 7.83975 2.27681 8.23816 2.22325C8.65096 2.16775 9.20052 2.16669 10.0003 2.16669V1.66669ZM6.66699 5.00002H7.16699C7.16699 4.20021 7.16805 3.65065 7.22355 3.23786C7.27712 2.83945 7.37301 2.64409 7.5087 2.5084L7.15515 2.15484L6.80159 1.80129C6.44913 2.15375 6.30094 2.59531 6.23247 3.10461C6.16593 3.59953 6.16699 4.22848 6.16699 5.00002H6.66699ZM11.2503 11.6667V11.1667H10.0003V11.6667V12.1667H11.2503V11.6667ZM10.0003 11.6667V11.1667H8.75033V11.6667V12.1667H10.0003V11.6667ZM10.0003 10.4167H9.50033V11.6667H10.0003H10.5003V10.4167H10.0003ZM10.0003 11.6667H9.50033V12.9167H10.0003H10.5003V11.6667H10.0003ZM13.3337 11.6667H12.8337C12.8337 13.2315 11.5651 14.5 10.0003 14.5V15V15.5C12.1174 15.5 13.8337 13.7838 13.8337 11.6667H13.3337ZM10.0003 15V14.5C8.43552 14.5 7.16699 13.2315 7.16699 11.6667H6.66699H6.16699C6.16699 13.7838 7.88323 15.5 10.0003 15.5V15ZM6.66699 11.6667H7.16699C7.16699 10.1019 8.43552 8.83335 10.0003 8.83335V8.33335V7.83335C7.88323 7.83335 6.16699 9.5496 6.16699 11.6667H6.66699ZM10.0003 8.33335V8.83335C11.5651 8.83335 12.8337 10.1019 12.8337 11.6667H13.3337H13.8337C13.8337 9.5496 12.1174 7.83335 10.0003 7.83335V8.33335Z" fill="#EC7600"/>
</svg>
