<svg width="32" height="32" viewBox="0 0 32 32" fill="none" xmlns="http://www.w3.org/2000/svg">
<path d="M16.0003 7.99984C11.582 7.99984 8.00033 11.5816 8.00033 15.9998C8.00033 18.0287 8.7556 19.8812 10.0003 21.2915H22.0003C23.2451 19.8812 24.0003 18.0287 24.0003 15.9998C24.0003 11.5816 20.4186 7.99984 16.0003 7.99984Z" fill="#96BFFF"/>
<path d="M10.667 28.8332C10.3908 28.8332 10.167 29.057 10.167 29.3332C10.167 29.6093 10.3908 29.8332 10.667 29.8332V29.3332V28.8332ZM21.3337 29.8332C21.6098 29.8332 21.8337 29.6093 21.8337 29.3332C21.8337 29.057 21.6098 28.8332 21.3337 28.8332V29.3332V29.8332ZM6.66699 24.8332C6.39085 24.8332 6.16699 25.057 6.16699 25.3332C6.16699 25.6093 6.39085 25.8332 6.66699 25.8332V25.3332V24.8332ZM25.3337 25.8332C25.6098 25.8332 25.8337 25.6093 25.8337 25.3332C25.8337 25.057 25.6098 24.8332 25.3337 24.8332V25.3332V25.8332ZM2.66699 20.8332C2.39085 20.8332 2.16699 21.057 2.16699 21.3332C2.16699 21.6093 2.39085 21.8332 2.66699 21.8332V21.3332V20.8332ZM29.3337 21.8332C29.6098 21.8332 29.8337 21.6093 29.8337 21.3332C29.8337 21.057 29.6098 20.8332 29.3337 20.8332V21.3332V21.8332ZM22.0003 21.2915V21.7915H22.2259L22.3752 21.6224L22.0003 21.2915ZM10.0003 21.2915L9.62546 21.6224L9.77474 21.7915H10.0003V21.2915ZM16.0003 17.3332L15.6468 17.6867C15.842 17.882 16.1586 17.882 16.3539 17.6867L16.0003 17.3332ZM19.0205 15.0201C19.2158 14.8248 19.2158 14.5082 19.0205 14.3129C18.8253 14.1177 18.5087 14.1177 18.3134 14.3129L18.667 14.6665L19.0205 15.0201ZM13.6872 14.3129C13.4919 14.1177 13.1754 14.1177 12.9801 14.3129C12.7848 14.5082 12.7848 14.8248 12.9801 15.0201L13.3337 14.6665L13.6872 14.3129ZM16.5003 2.6665C16.5003 2.39036 16.2765 2.1665 16.0003 2.1665C15.7242 2.1665 15.5003 2.39036 15.5003 2.6665H16.0003H16.5003ZM15.5003 3.99984C15.5003 4.27598 15.7242 4.49984 16.0003 4.49984C16.2765 4.49984 16.5003 4.27598 16.5003 3.99984H16.0003H15.5003ZM29.3337 16.4998C29.6098 16.4998 29.8337 16.276 29.8337 15.9998C29.8337 15.7237 29.6098 15.4998 29.3337 15.4998V15.9998V16.4998ZM28.0003 15.4998C27.7242 15.4998 27.5003 15.7237 27.5003 15.9998C27.5003 16.276 27.7242 16.4998 28.0003 16.4998V15.9998V15.4998ZM4.00033 16.4998C4.27647 16.4998 4.50033 16.276 4.50033 15.9998C4.50033 15.7237 4.27647 15.4998 4.00033 15.4998V15.9998V16.4998ZM2.66699 15.4998C2.39085 15.4998 2.16699 15.7237 2.16699 15.9998C2.16699 16.276 2.39085 16.4998 2.66699 16.4998V15.9998V15.4998ZM25.7816 6.92566C25.9769 6.73039 25.9769 6.41381 25.7816 6.21855C25.5864 6.02329 25.2698 6.02329 25.0745 6.21855L25.4281 6.5721L25.7816 6.92566ZM24.5507 6.74233C24.3555 6.93759 24.3555 7.25418 24.5507 7.44944C24.746 7.6447 25.0626 7.6447 25.2578 7.44944L24.9043 7.09589L24.5507 6.74233ZM6.74247 7.44909C6.93774 7.64436 7.25432 7.64436 7.44958 7.44909C7.64484 7.25383 7.64484 6.93725 7.44958 6.74199L7.09603 7.09554L6.74247 7.44909ZM6.9258 6.2182C6.73054 6.02294 6.41395 6.02294 6.21869 6.2182C6.02343 6.41347 6.02343 6.73005 6.21869 6.92531L6.57225 6.57176L6.9258 6.2182ZM10.667 29.3332V29.8332H21.3337V29.3332V28.8332H10.667V29.3332ZM6.66699 25.3332V25.8332H25.3337V25.3332V24.8332H6.66699V25.3332ZM2.66699 21.3332V21.8332H29.3337V21.3332V20.8332H2.66699V21.3332ZM8.00033 15.9998H8.50033C8.50033 11.8577 11.8582 8.49984 16.0003 8.49984V7.99984V7.49984C11.3059 7.49984 7.50033 11.3054 7.50033 15.9998H8.00033ZM16.0003 7.99984V8.49984C20.1425 8.49984 23.5003 11.8577 23.5003 15.9998H24.0003H24.5003C24.5003 11.3054 20.6947 7.49984 16.0003 7.49984V7.99984ZM24.0003 15.9998H23.5003C23.5003 17.9023 22.7927 19.6382 21.6255 20.9606L22.0003 21.2915L22.3752 21.6224C23.6974 20.1242 24.5003 18.1552 24.5003 15.9998H24.0003ZM10.0003 21.2915L10.3752 20.9606C9.208 19.6382 8.50033 17.9023 8.50033 15.9998H8.00033H7.50033C7.50033 18.1552 8.3032 20.1242 9.62546 21.6224L10.0003 21.2915ZM22.0003 21.2915V20.7915H10.0003V21.2915V21.7915H22.0003V21.2915ZM16.0003 7.99984H15.5003V17.3332H16.0003H16.5003V7.99984H16.0003ZM16.0003 17.3332L16.3539 17.6867L19.0205 15.0201L18.667 14.6665L18.3134 14.3129L15.6468 16.9796L16.0003 17.3332ZM16.0003 17.3332L16.3539 16.9796L13.6872 14.3129L13.3337 14.6665L12.9801 15.0201L15.6468 17.6867L16.0003 17.3332ZM16.0003 2.6665H15.5003V3.99984H16.0003H16.5003V2.6665H16.0003ZM29.3337 15.9998V15.4998H28.0003V15.9998V16.4998H29.3337V15.9998ZM4.00033 15.9998V15.4998H2.66699V15.9998V16.4998H4.00033V15.9998ZM25.4281 6.5721L25.0745 6.21855L24.5507 6.74233L24.9043 7.09589L25.2578 7.44944L25.7816 6.92566L25.4281 6.5721ZM7.09603 7.09554L7.44958 6.74199L6.9258 6.2182L6.57225 6.57176L6.21869 6.92531L6.74247 7.44909L7.09603 7.09554Z" fill="#424242"/>
</svg>
