<svg width="12" height="12" viewBox="0 0 12 12" fill="none" xmlns="http://www.w3.org/2000/svg">
<path d="M6.94403 2.83146L7.31478 2.46071C7.92906 1.84643 8.92501 1.84643 9.53929 2.46071C10.1536 3.07499 10.1536 4.07094 9.53929 4.68522L9.16854 5.05597M6.94403 2.83146C6.94403 2.83146 6.99037 3.61931 7.68553 4.31447C8.38069 5.00963 9.16854 5.05597 9.16854 5.05597M6.94403 2.83146L3.53553 6.23996C3.30466 6.47082 3.18923 6.58626 3.08996 6.71353C2.97285 6.86367 2.87245 7.02612 2.79054 7.19801C2.72109 7.34372 2.66947 7.49859 2.56622 7.80833L2.12872 9.12083M9.16854 5.05597L5.76004 8.46447C5.52918 8.69533 5.41374 8.81077 5.28647 8.91004C5.13633 9.02715 4.97388 9.12755 4.80199 9.20946C4.65628 9.27891 4.50141 9.33053 4.19167 9.43377L2.87917 9.87128M2.87917 9.87128L2.55834 9.97822C2.40591 10.029 2.23786 9.98936 2.12425 9.87575C2.01064 9.76214 1.97097 9.59409 2.02178 9.44166L2.12872 9.12083M2.87917 9.87128L2.12872 9.12083" stroke="#2372EC"/>
</svg>
