<svg width="16" height="16" viewBox="0 0 16 16" fill="none" xmlns="http://www.w3.org/2000/svg">
<path d="M9.33325 8.3335H6.66658C6.48249 8.3335 6.33325 8.48273 6.33325 8.66683V10.1078C6.33325 10.2441 6.41624 10.3667 6.54279 10.4173L7.00954 10.604C7.64531 10.8583 8.35453 10.8583 8.99029 10.604L9.45705 10.4173C9.5836 10.3667 9.66658 10.2441 9.66658 10.1078V8.66683C9.66658 8.48273 9.51735 8.3335 9.33325 8.3335Z" fill="#96BFFF"/>
<path d="M2.49992 8.00016C2.49992 7.72402 2.27606 7.50016 1.99992 7.50016C1.72378 7.50016 1.49992 7.72402 1.49992 8.00016H1.99992H2.49992ZM14.4999 8.00016C14.4999 7.72402 14.2761 7.50016 13.9999 7.50016C13.7238 7.50016 13.4999 7.72402 13.4999 8.00016H13.9999H14.4999ZM13.7783 8.26664L13.6346 7.78773V7.78773L13.7783 8.26664ZM9.62979 8.98919C9.36529 9.06853 9.2152 9.34728 9.29455 9.61177C9.3739 9.87627 9.65264 10.0264 9.91714 9.94701L9.77347 9.4681L9.62979 8.98919ZM6.0827 9.94701C6.34719 10.0264 6.62594 9.87627 6.70529 9.61177C6.78463 9.34728 6.63454 9.06853 6.37005 8.98919L6.22637 9.4681L6.0827 9.94701ZM2.22152 8.26664L2.3652 7.78773H2.3652L2.22152 8.26664ZM1.43377 7.85617L1.00916 8.12018L1.00916 8.12018L1.43377 7.85617ZM1.50006 7.94526L1.87495 7.61442L1.87495 7.61442L1.50006 7.94526ZM14.5661 7.85617L14.1415 7.59215L14.1414 7.59216L14.5661 7.85617ZM14.4998 7.94526L14.8747 8.2761V8.2761L14.4998 7.94526ZM13.9289 3.78215L13.6133 4.16999V4.16999L13.9289 3.78215ZM14.2179 4.07123L13.8301 4.38679L13.8301 4.38679L14.2179 4.07123ZM2.07098 3.78215L1.75541 3.39431L1.75541 3.39431L2.07098 3.78215ZM1.78191 4.07123L1.39407 3.75566H1.39407L1.78191 4.07123ZM10.3334 2.3335L9.85906 2.49161L9.85906 2.49161L10.3334 2.3335ZM10.3505 2.38481L10.8248 2.2267V2.2267L10.3505 2.38481ZM5.64963 2.38481L5.17529 2.2267L5.17529 2.2267L5.64963 2.38481ZM5.66674 2.3335L6.14108 2.49161L6.14108 2.49161L5.66674 2.3335ZM5.62621 2.45371L6.0964 2.62379L6.0964 2.62379L5.62621 2.45371ZM4.32058 2.83366C4.04453 2.84065 3.82642 3.07011 3.83341 3.34616C3.84041 3.62222 4.06986 3.84033 4.34592 3.83334L4.33325 3.3335L4.32058 2.83366ZM10.3739 2.45371L10.8441 2.28363L10.8441 2.28361L10.3739 2.45371ZM11.6539 3.83334C11.93 3.84033 12.1594 3.62222 12.1664 3.34616C12.1734 3.07011 11.9553 2.84065 11.6793 2.83366L11.6666 3.3335L11.6539 3.83334ZM9.11966 1.33593L9.08943 1.83502V1.83502L9.11966 1.33593ZM10.2762 2.1695L9.81225 2.356L9.81225 2.356L10.2762 2.1695ZM6.88048 1.33593L6.85025 0.836849V0.836849L6.88048 1.33593ZM5.72397 2.1695L6.18789 2.356L6.18789 2.356L5.72397 2.1695ZM9.45705 10.4173L9.27135 9.95307V9.95307L9.45705 10.4173ZM8.99029 10.604L9.17599 11.0683V11.0683L8.99029 10.604ZM7.00954 10.604L6.82385 11.0683V11.0683L7.00954 10.604ZM6.54279 10.4173L6.72848 9.95307V9.95307L6.54279 10.4173ZM7.99992 14.6668V14.1668C6.5731 14.1668 5.54777 14.166 4.76743 14.0727C3.99603 13.9805 3.5405 13.8052 3.21078 13.5121L2.8786 13.8858L2.54642 14.2595C3.09537 14.7474 3.78629 14.9626 4.64877 15.0657C5.50232 15.1677 6.5983 15.1668 7.99992 15.1668V14.6668ZM1.99992 8.00016H1.49992C1.49992 9.24958 1.49937 10.5539 1.61242 11.6444C1.66904 12.1906 1.75592 12.7033 1.89374 13.1405C2.02932 13.5706 2.22952 13.9778 2.54642 14.2595L2.8786 13.8858L3.21078 13.5121C3.08833 13.4032 2.95903 13.1937 2.84748 12.8399C2.73817 12.4931 2.66031 12.0547 2.60709 11.5413C2.50047 10.5128 2.49992 9.2649 2.49992 8.00016H1.99992ZM13.9999 8.00016H13.4999C13.4999 9.2649 13.4994 10.5128 13.3927 11.5413C13.3395 12.0547 13.2617 12.4931 13.1524 12.8399C13.0408 13.1937 12.9115 13.4032 12.7891 13.5121L13.1212 13.8858L13.4534 14.2595C13.7703 13.9778 13.9705 13.5706 14.1061 13.1405C14.2439 12.7033 14.3308 12.1906 14.3874 11.6444C14.5005 10.5539 14.4999 9.24958 14.4999 8.00016H13.9999ZM7.99992 14.6668V15.1668C9.40153 15.1668 10.4975 15.1677 11.3511 15.0657C12.2135 14.9626 12.9045 14.7474 13.4534 14.2595L13.1212 13.8858L12.7891 13.5121C12.4593 13.8052 12.0038 13.9805 11.2324 14.0727C10.4521 14.166 9.42673 14.1668 7.99992 14.1668V14.6668ZM5.07254 3.3335V3.8335H10.9273V3.3335V2.8335H5.07254V3.3335ZM13.7783 8.26664L13.6346 7.78773L9.62979 8.98919L9.77347 9.4681L9.91714 9.94701L13.922 8.74556L13.7783 8.26664ZM6.22637 9.4681L6.37005 8.98919L2.3652 7.78773L2.22152 8.26664L2.07785 8.74556L6.0827 9.94701L6.22637 9.4681ZM1.33325 7.07278H0.833252C0.833252 7.26986 0.832656 7.45488 0.848371 7.60976C0.865145 7.77507 0.90374 7.95064 1.00916 8.12018L1.43377 7.85617L1.85838 7.59215C1.86328 7.60003 1.85162 7.59115 1.84326 7.50881C1.83385 7.41603 1.83325 7.29018 1.83325 7.07278H1.33325ZM2.22152 8.26664L2.3652 7.78773C2.15696 7.72526 2.0366 7.68853 1.95044 7.65285C1.87397 7.62119 1.86881 7.60746 1.87495 7.61442L1.50006 7.94526L1.12517 8.2761C1.25727 8.42579 1.41434 8.51321 1.56786 8.57678C1.71169 8.63633 1.88908 8.68893 2.07785 8.74556L2.22152 8.26664ZM1.43377 7.85617L1.00916 8.12018C1.04342 8.17529 1.08223 8.22745 1.12517 8.2761L1.50006 7.94526L1.87495 7.61442C1.86882 7.60747 1.86328 7.60002 1.85838 7.59215L1.43377 7.85617ZM14.6666 7.07278H14.1666C14.1666 7.29018 14.166 7.41603 14.1566 7.50881C14.1482 7.59115 14.1366 7.60003 14.1415 7.59215L14.5661 7.85617L14.9907 8.12018C15.0961 7.95064 15.1347 7.77507 15.1515 7.60976C15.1672 7.45488 15.1666 7.26986 15.1666 7.07278H14.6666ZM13.7783 8.26664L13.922 8.74556C14.1108 8.68893 14.2881 8.63633 14.432 8.57678C14.5855 8.51321 14.7426 8.42579 14.8747 8.2761L14.4998 7.94526L14.1249 7.61442C14.131 7.60746 14.1259 7.62119 14.0494 7.65285C13.9632 7.68853 13.8429 7.72526 13.6346 7.78773L13.7783 8.26664ZM14.5661 7.85617L14.1414 7.59216C14.1366 7.60002 14.131 7.60747 14.1249 7.61442L14.4998 7.94526L14.8747 8.2761C14.9176 8.22744 14.9564 8.17529 14.9907 8.12017L14.5661 7.85617ZM10.9273 3.3335V3.8335C11.7562 3.8335 12.3342 3.8343 12.7755 3.88616C13.2059 3.93674 13.4412 4.02993 13.6133 4.16999L13.9289 3.78215L14.2444 3.39431C13.8651 3.08571 13.4163 2.95458 12.8922 2.89299C12.379 2.83269 11.7318 2.8335 10.9273 2.8335V3.3335ZM14.6666 7.07278H15.1666C15.1666 6.26823 15.1674 5.62113 15.1071 5.10789C15.0455 4.58374 14.9144 4.13493 14.6058 3.75566L14.2179 4.07123L13.8301 4.38679C13.9701 4.55892 14.0633 4.79417 14.1139 5.22459C14.1658 5.66592 14.1666 6.2439 14.1666 7.07278H14.6666ZM13.9289 3.78215L13.6133 4.16999C13.6928 4.23466 13.7654 4.30731 13.8301 4.38679L14.2179 4.07123L14.6058 3.75566C14.498 3.62318 14.3769 3.5021 14.2444 3.39431L13.9289 3.78215ZM5.07254 3.3335V2.8335C4.26799 2.8335 3.62089 2.83269 3.10765 2.89299C2.5835 2.95458 2.13469 3.08571 1.75541 3.39431L2.07098 3.78215L2.38655 4.16999C2.55868 4.02993 2.79393 3.93674 3.22435 3.88616C3.66567 3.8343 4.24365 3.8335 5.07254 3.8335V3.3335ZM1.33325 7.07278H1.83325C1.83325 6.2439 1.83406 5.66592 1.88592 5.22459C1.93649 4.79417 2.02969 4.55892 2.16974 4.38679L1.78191 4.07123L1.39407 3.75566C1.08547 4.13493 0.954339 4.58374 0.89275 5.10789C0.832443 5.62113 0.833252 6.26823 0.833252 7.07278H1.33325ZM2.07098 3.78215L1.75541 3.39431C1.62294 3.5021 1.50186 3.62318 1.39407 3.75566L1.78191 4.07123L2.16974 4.38679C2.23442 4.30731 2.30706 4.23466 2.38655 4.16999L2.07098 3.78215ZM7.05416 1.3335V1.8335H8.94598V1.3335V0.833496H7.05416V1.3335ZM10.3334 2.3335L9.85906 2.49161L9.87617 2.54293L10.3505 2.38481L10.8248 2.2267L10.8077 2.17538L10.3334 2.3335ZM5.64963 2.38481L6.12397 2.54293L6.14108 2.49161L5.66674 2.3335L5.19239 2.17538L5.17529 2.2267L5.64963 2.38481ZM5.64963 2.38481L5.17529 2.2267C5.16263 2.26468 5.1591 2.27515 5.15603 2.28363L5.62621 2.45371L6.0964 2.62379C6.10482 2.6005 6.11307 2.57563 6.12397 2.54293L5.64963 2.38481ZM5.62621 2.45371L5.15603 2.28363C5.04945 2.57828 4.69527 2.82416 4.32058 2.83366L4.33325 3.3335L4.34592 3.83334C5.06916 3.81501 5.82939 3.36193 6.0964 2.62379L5.62621 2.45371ZM10.3505 2.38481L9.87617 2.54293C9.88699 2.5754 9.89533 2.60055 9.90375 2.6238L10.3739 2.45371L10.8441 2.28361C10.8411 2.27519 10.8374 2.26449 10.8248 2.2267L10.3505 2.38481ZM10.3739 2.45371L9.90374 2.62379C10.1707 3.36182 10.9306 3.815 11.6539 3.83334L11.6666 3.3335L11.6793 2.83366C11.3047 2.82416 10.9507 2.57838 10.8441 2.28363L10.3739 2.45371ZM8.94598 1.3335V1.8335C9.04156 1.8335 9.06793 1.83372 9.08943 1.83502L9.11966 1.33593L9.14989 0.836849C9.09086 0.833275 9.02828 0.833496 8.94598 0.833496V1.3335ZM10.3334 2.3335L10.8077 2.17538C10.7817 2.0973 10.7621 2.03786 10.7401 1.98299L10.2762 2.1695L9.81225 2.356C9.82029 2.37599 9.82883 2.40093 9.85906 2.49161L10.3334 2.3335ZM9.11966 1.33593L9.08943 1.83502C9.41078 1.85448 9.69217 2.0573 9.81225 2.356L10.2762 2.1695L10.7401 1.983C10.4759 1.32586 9.85684 0.879664 9.14989 0.836849L9.11966 1.33593ZM7.05416 1.3335V0.833496C6.97186 0.833496 6.90927 0.833275 6.85025 0.836849L6.88048 1.33593L6.9107 1.83502C6.93221 1.83372 6.95857 1.8335 7.05416 1.8335V1.3335ZM5.66674 2.3335L6.14108 2.49161C6.1713 2.40094 6.17985 2.37599 6.18789 2.356L5.72397 2.1695L5.26006 1.983C5.238 2.03786 5.21842 2.09731 5.19239 2.17538L5.66674 2.3335ZM6.88048 1.33593L6.85025 0.836849C6.1433 0.879664 5.52423 1.32586 5.26006 1.983L5.72397 2.1695L6.18789 2.356C6.30797 2.0573 6.58936 1.85448 6.9107 1.83502L6.88048 1.33593ZM6.66658 8.3335V8.8335H9.33325V8.3335V7.8335H6.66658V8.3335ZM9.66658 8.66683H9.16658V10.1078H9.66658H10.1666V8.66683H9.66658ZM9.45705 10.4173L9.27135 9.95307L8.8046 10.1398L8.99029 10.604L9.17599 11.0683L9.64274 10.8815L9.45705 10.4173ZM7.00954 10.604L7.19524 10.1398L6.72848 9.95307L6.54279 10.4173L6.35709 10.8815L6.82385 11.0683L7.00954 10.604ZM6.33325 10.1078H6.83325V8.66683H6.33325H5.83325V10.1078H6.33325ZM6.54279 10.4173L6.72848 9.95307C6.79176 9.97838 6.83325 10.0397 6.83325 10.1078H6.33325H5.83325C5.83325 10.4486 6.04071 10.755 6.35709 10.8815L6.54279 10.4173ZM8.99029 10.604L8.8046 10.1398C8.28804 10.3464 7.7118 10.3464 7.19524 10.1398L7.00954 10.604L6.82385 11.0683C7.57882 11.3702 8.42102 11.3702 9.17599 11.0683L8.99029 10.604ZM9.66658 10.1078H9.16658C9.16658 10.0397 9.20808 9.97838 9.27135 9.95307L9.45705 10.4173L9.64274 10.8815C9.95913 10.755 10.1666 10.4486 10.1666 10.1078H9.66658ZM9.33325 8.3335V8.8335C9.2412 8.8335 9.16658 8.75888 9.16658 8.66683H9.66658H10.1666C10.1666 8.20659 9.79349 7.8335 9.33325 7.8335V8.3335ZM6.66658 8.3335V7.8335C6.20635 7.8335 5.83325 8.20659 5.83325 8.66683H6.33325H6.83325C6.83325 8.75888 6.75863 8.8335 6.66658 8.8335V8.3335Z" fill="#424242"/>
</svg>
