<svg width="16" height="16" viewBox="0 0 16 16" fill="none" xmlns="http://www.w3.org/2000/svg">
<path d="M2.66675 6.76236C2.66675 3.76408 5.05456 1.3335 8.00008 1.3335C10.9456 1.3335 13.3334 3.76408 13.3334 6.76236C13.3334 9.73714 11.6312 13.2084 8.97537 14.4498C8.35625 14.7392 7.64391 14.7392 7.02479 14.4498C4.36896 13.2084 2.66675 9.73714 2.66675 6.76236Z" fill="#96BFFF"/>
<path d="M10.0001 6.66683C10.0001 7.7714 9.10465 8.66683 8.00008 8.66683C6.89551 8.66683 6.00008 7.7714 6.00008 6.66683C6.00008 5.56226 6.89551 4.66683 8.00008 4.66683C9.10465 4.66683 10.0001 5.56226 10.0001 6.66683Z" fill="#96BFFF"/>
<path d="M8.97537 14.4498L8.76365 13.9968V13.9968L8.97537 14.4498ZM7.02479 14.4498L7.23651 13.9968V13.9968L7.02479 14.4498ZM8.97537 14.4498L8.76365 13.9968C8.27871 14.2235 7.72145 14.2235 7.23651 13.9968L7.02479 14.4498L6.81307 14.9028C7.56637 15.2549 8.43379 15.2549 9.18709 14.9028L8.97537 14.4498ZM2.66675 6.76236H2.16675C2.16675 8.33909 2.6161 10.0321 3.41045 11.4947C4.20383 12.9556 5.363 14.225 6.81307 14.9028L7.02479 14.4498L7.23651 13.9968C6.03076 13.4333 5.01091 12.3463 4.28922 11.0175C3.5685 9.69044 3.16675 8.16041 3.16675 6.76236H2.66675ZM13.3334 6.76236H12.8334C12.8334 8.16041 12.4317 9.69044 11.7109 11.0175C10.9893 12.3463 9.9694 13.4333 8.76365 13.9968L8.97537 14.4498L9.18709 14.9028C10.6372 14.225 11.7963 12.9556 12.5897 11.4947C13.3841 10.0321 13.8334 8.33909 13.8334 6.76236H13.3334ZM8.00008 1.3335V1.8335C10.6611 1.8335 12.8334 4.03182 12.8334 6.76236H13.3334H13.8334C13.8334 3.49634 11.2301 0.833496 8.00008 0.833496V1.3335ZM8.00008 1.3335V0.833496C4.77009 0.833496 2.16675 3.49634 2.16675 6.76236H2.66675H3.16675C3.16675 4.03182 5.33904 1.8335 8.00008 1.8335V1.3335ZM10.0001 6.66683H9.50008C9.50008 7.49526 8.82851 8.16683 8.00008 8.16683V8.66683V9.16683C9.38079 9.16683 10.5001 8.04754 10.5001 6.66683H10.0001ZM8.00008 8.66683V8.16683C7.17165 8.16683 6.50008 7.49526 6.50008 6.66683H6.00008H5.50008C5.50008 8.04754 6.61937 9.16683 8.00008 9.16683V8.66683ZM6.00008 6.66683H6.50008C6.50008 5.8384 7.17165 5.16683 8.00008 5.16683V4.66683V4.16683C6.61937 4.16683 5.50008 5.28612 5.50008 6.66683H6.00008ZM8.00008 4.66683V5.16683C8.82851 5.16683 9.50008 5.8384 9.50008 6.66683H10.0001H10.5001C10.5001 5.28612 9.38079 4.16683 8.00008 4.16683V4.66683Z" fill="#424242"/>
</svg>
