<svg width="16" height="16" viewBox="0 0 16 16" fill="none" xmlns="http://www.w3.org/2000/svg">
<path d="M1.33325 9.3335C1.33325 6.81934 1.33325 5.56226 2.1143 4.78121C2.89535 4.00016 4.15243 4.00016 6.66658 4.00016H9.33325C11.8474 4.00016 13.1045 4.00016 13.8855 4.78121C14.6666 5.56226 14.6666 6.81934 14.6666 9.3335C14.6666 11.8477 14.6666 13.1047 13.8855 13.8858C13.1045 14.6668 11.8474 14.6668 9.33325 14.6668H6.66658C4.15243 14.6668 2.89535 14.6668 2.1143 13.8858C1.33325 13.1047 1.33325 11.8477 1.33325 9.3335Z" fill="#96BFFF"/>
<path d="M10.6666 9.3335C10.6666 10.8063 9.47268 12.0002 7.99992 12.0002C6.52716 12.0002 5.33325 10.8063 5.33325 9.3335C5.33325 7.86074 6.52716 6.66683 7.99992 6.66683C9.47268 6.66683 10.6666 7.86074 10.6666 9.3335Z" fill="#96BFFF"/>
<path d="M10.1666 4.00016C10.1666 4.2763 10.3904 4.50016 10.6666 4.50016C10.9427 4.50016 11.1666 4.2763 11.1666 4.00016H10.6666H10.1666ZM4.83325 4.00016C4.83325 4.2763 5.05711 4.50016 5.33325 4.50016C5.60939 4.50016 5.83325 4.2763 5.83325 4.00016H5.33325H4.83325ZM8.99992 9.8335C9.27606 9.8335 9.49992 9.60964 9.49992 9.3335C9.49992 9.05735 9.27606 8.8335 8.99992 8.8335V9.3335V9.8335ZM6.99992 8.8335C6.72378 8.8335 6.49992 9.05735 6.49992 9.3335C6.49992 9.60964 6.72378 9.8335 6.99992 9.8335V9.3335V8.8335ZM8.49992 8.3335C8.49992 8.05735 8.27606 7.8335 7.99992 7.8335C7.72378 7.8335 7.49992 8.05735 7.49992 8.3335H7.99992H8.49992ZM7.49992 10.3335C7.49992 10.6096 7.72378 10.8335 7.99992 10.8335C8.27606 10.8335 8.49992 10.6096 8.49992 10.3335H7.99992H7.49992ZM6.66658 4.00016V4.50016H9.33325V4.00016V3.50016H6.66658V4.00016ZM9.33325 14.6668V14.1668H6.66658V14.6668V15.1668H9.33325V14.6668ZM6.66658 14.6668V14.1668C5.39537 14.1668 4.49226 14.1658 3.80715 14.0737C3.13642 13.9835 2.74999 13.8144 2.46785 13.5322L2.1143 13.8858L1.76075 14.2393C2.25966 14.7382 2.89229 14.9597 3.6739 15.0647C4.44113 15.1679 5.42364 15.1668 6.66658 15.1668V14.6668ZM1.33325 9.3335H0.833252C0.833252 10.5764 0.83219 11.5589 0.935342 12.3262C1.04043 13.1078 1.26184 13.7404 1.76075 14.2393L2.1143 13.8858L2.46785 13.5322C2.18571 13.2501 2.0166 12.8637 1.92642 12.1929C1.83431 11.5078 1.83325 10.6047 1.83325 9.3335H1.33325ZM14.6666 9.3335H14.1666C14.1666 10.6047 14.1655 11.5078 14.0734 12.1929C13.9832 12.8637 13.8141 13.2501 13.532 13.5322L13.8855 13.8858L14.2391 14.2393C14.738 13.7404 14.9594 13.1078 15.0645 12.3262C15.1676 11.5589 15.1666 10.5764 15.1666 9.3335H14.6666ZM9.33325 14.6668V15.1668C10.5762 15.1668 11.5587 15.1679 12.3259 15.0647C13.1075 14.9597 13.7402 14.7382 14.2391 14.2393L13.8855 13.8858L13.532 13.5322C13.2498 13.8144 12.8634 13.9835 12.1927 14.0737C11.5076 14.1658 10.6045 14.1668 9.33325 14.1668V14.6668ZM9.33325 4.00016V4.50016C10.6045 4.50016 11.5076 4.50122 12.1927 4.59333C12.8634 4.68351 13.2498 4.85262 13.532 5.13476L13.8855 4.78121L14.2391 4.42766C13.7402 3.92875 13.1075 3.70734 12.3259 3.60225C11.5587 3.4991 10.5762 3.50016 9.33325 3.50016V4.00016ZM14.6666 9.3335H15.1666C15.1666 8.09055 15.1676 7.10804 15.0645 6.34081C14.9594 5.5592 14.738 4.92657 14.2391 4.42766L13.8855 4.78121L13.532 5.13476C13.8141 5.4169 13.9832 5.80334 14.0734 6.47406C14.1655 7.15917 14.1666 8.06228 14.1666 9.3335H14.6666ZM6.66658 4.00016V3.50016C5.42364 3.50016 4.44113 3.4991 3.6739 3.60225C2.89229 3.70734 2.25966 3.92875 1.76075 4.42766L2.1143 4.78121L2.46785 5.13476C2.74999 4.85262 3.13642 4.68351 3.80715 4.59333C4.49226 4.50122 5.39537 4.50016 6.66658 4.50016V4.00016ZM1.33325 9.3335H1.83325C1.83325 8.06228 1.83431 7.15917 1.92642 6.47406C2.0166 5.80334 2.18571 5.4169 2.46785 5.13476L2.1143 4.78121L1.76075 4.42766C1.26184 4.92657 1.04043 5.5592 0.935342 6.34081C0.83219 7.10804 0.833252 8.09055 0.833252 9.3335H1.33325ZM7.99992 1.3335V1.8335C8.64259 1.8335 9.0743 1.83456 9.39632 1.87785C9.70396 1.91921 9.83563 1.9907 9.92251 2.07757L10.2761 1.72402L10.6296 1.37047C10.326 1.06682 9.9481 0.94304 9.52957 0.88677C9.12542 0.832434 8.61432 0.833496 7.99992 0.833496V1.3335ZM10.6666 4.00016H11.1666C11.1666 3.38576 11.1676 2.87466 11.1133 2.47051C11.057 2.05198 10.9333 1.67411 10.6296 1.37047L10.2761 1.72402L9.92251 2.07757C10.0094 2.16445 10.0809 2.29612 10.1222 2.60376C10.1655 2.92578 10.1666 3.35749 10.1666 4.00016H10.6666ZM7.99992 1.3335V0.833496C7.38551 0.833496 6.87441 0.832434 6.47027 0.88677C6.05174 0.94304 5.67387 1.06682 5.37022 1.37047L5.72378 1.72402L6.07733 2.07757C6.16421 1.9907 6.29587 1.91921 6.60351 1.87785C6.92554 1.83456 7.35724 1.8335 7.99992 1.8335V1.3335ZM5.33325 4.00016H5.83325C5.83325 3.35749 5.83431 2.92578 5.87761 2.60376C5.91897 2.29612 5.99045 2.16445 6.07733 2.07757L5.72378 1.72402L5.37022 1.37047C5.06658 1.67411 4.9428 2.05198 4.88653 2.47051C4.83219 2.87466 4.83325 3.38576 4.83325 4.00016H5.33325ZM8.99992 9.3335V8.8335H7.99992V9.3335V9.8335H8.99992V9.3335ZM7.99992 9.3335V8.8335H6.99992V9.3335V9.8335H7.99992V9.3335ZM7.99992 8.3335H7.49992V9.3335H7.99992H8.49992V8.3335H7.99992ZM7.99992 9.3335H7.49992V10.3335H7.99992H8.49992V9.3335H7.99992ZM10.6666 9.3335H10.1666C10.1666 10.5301 9.19654 11.5002 7.99992 11.5002V12.0002V12.5002C9.74882 12.5002 11.1666 11.0824 11.1666 9.3335H10.6666ZM7.99992 12.0002V11.5002C6.8033 11.5002 5.83325 10.5301 5.83325 9.3335H5.33325H4.83325C4.83325 11.0824 6.25102 12.5002 7.99992 12.5002V12.0002ZM5.33325 9.3335H5.83325C5.83325 8.13688 6.8033 7.16683 7.99992 7.16683V6.66683V6.16683C6.25102 6.16683 4.83325 7.58459 4.83325 9.3335H5.33325ZM7.99992 6.66683V7.16683C9.19654 7.16683 10.1666 8.13688 10.1666 9.3335H10.6666H11.1666C11.1666 7.58459 9.74882 6.16683 7.99992 6.16683V6.66683Z" fill="#626060"/>
</svg>
