<svg width="16" height="16" viewBox="0 0 16 16" fill="none" xmlns="http://www.w3.org/2000/svg">
<path d="M14.6666 8.00016C14.6666 8.87564 14.4941 9.74255 14.1591 10.5514C13.8241 11.3602 13.333 12.0951 12.714 12.7142C12.0949 13.3333 11.36 13.8243 10.5511 14.1594C9.7423 14.4944 8.8754 14.6668 7.99992 14.6668C7.12444 14.6668 6.25753 14.4944 5.4487 14.1594C4.63986 13.8243 3.90493 13.3333 3.28587 12.7142C2.66682 12.0951 2.17575 11.3602 1.84072 10.5514C1.50569 9.74255 1.33325 8.87564 1.33325 8.00016C1.33325 7.12468 1.50569 6.25778 1.84072 5.44894C2.17575 4.6401 2.66682 3.90517 3.28587 3.28612C3.90493 2.66706 4.63986 2.176 5.4487 1.84097C6.25753 1.50593 7.12444 1.3335 7.99992 1.3335C8.8754 1.3335 9.7423 1.50593 10.5511 1.84097C11.36 2.176 12.0949 2.66706 12.714 3.28612C13.333 3.90518 13.8241 4.6401 14.1591 5.44894C14.4941 6.25778 14.6666 7.12468 14.6666 8.00016Z" fill="#96BFFF"/>
<path d="M14.6666 8.00016C14.6666 8.87564 14.4941 9.74255 14.1591 10.5514C13.8241 11.3602 13.333 12.0952 12.714 12.7142C12.0949 13.3333 11.36 13.8243 10.5511 14.1594C9.7423 14.4944 8.8754 14.6668 7.99992 14.6668M14.6666 8.00016C14.6666 7.12468 14.4941 6.25778 14.1591 5.44894C13.8241 4.6401 13.333 3.90518 12.714 3.28612C12.0949 2.66706 11.36 2.176 10.5511 1.84097C9.7423 1.50593 8.8754 1.3335 7.99992 1.3335M14.6666 8.00016L1.33325 8.00016M7.99992 14.6668C7.12444 14.6668 6.25753 14.4944 5.4487 14.1594C4.63986 13.8243 3.90493 13.3333 3.28587 12.7142C2.66682 12.0952 2.17575 11.3602 1.84072 10.5514C1.50569 9.74255 1.33325 8.87564 1.33325 8.00016M7.99992 14.6668C8.35011 14.6668 8.69687 14.4944 9.02041 14.1594C9.34394 13.8243 9.63791 13.3333 9.88554 12.7142C10.1332 12.0952 10.3296 11.3602 10.4636 10.5514C10.5976 9.74255 10.6666 8.87564 10.6666 8.00016C10.6666 7.12468 10.5976 6.25778 10.4636 5.44894C10.3296 4.6401 10.1332 3.90518 9.88554 3.28612C9.63791 2.66706 9.34394 2.176 9.02041 1.84097C8.69687 1.50593 8.35011 1.3335 7.99992 1.3335M7.99992 14.6668C7.64973 14.6668 7.30296 14.4944 6.97943 14.1594C6.65589 13.8243 6.36192 13.3333 6.1143 12.7142C5.86668 12.0952 5.67025 11.3602 5.53624 10.5514C5.40223 9.74255 5.33325 8.87564 5.33325 8.00016C5.33325 7.12468 5.40223 6.25778 5.53624 5.44894C5.67025 4.6401 5.86668 3.90517 6.1143 3.28612C6.36192 2.66706 6.65589 2.176 6.97943 1.84097C7.30296 1.50593 7.64973 1.3335 7.99992 1.3335M1.33325 8.00016C1.33325 7.12468 1.50569 6.25778 1.84072 5.44894C2.17575 4.6401 2.66682 3.90517 3.28587 3.28612C3.90493 2.66706 4.63986 2.176 5.4487 1.84097C6.25753 1.50593 7.12444 1.3335 7.99992 1.3335" stroke="#626060" stroke-linecap="round"/>
</svg>
