<svg width="13" height="4" viewBox="0 0 13 4" fill="none" xmlns="http://www.w3.org/2000/svg">
<path d="M3.16667 1.83333C3.16667 2.56971 2.56971 3.16667 1.83333 3.16667C1.09695 3.16667 0.5 2.56971 0.5 1.83333C0.5 1.09695 1.09695 0.5 1.83333 0.5C2.56971 0.5 3.16667 1.09695 3.16667 1.83333Z" stroke="#424242" stroke-linecap="round"/>
<path d="M7.83333 1.83333C7.83333 2.56971 7.23638 3.16667 6.5 3.16667C5.76362 3.16667 5.16667 2.56971 5.16667 1.83333C5.16667 1.09695 5.76362 0.5 6.5 0.5C7.23638 0.5 7.83333 1.09695 7.83333 1.83333Z" stroke="#424242" stroke-linecap="round"/>
<path d="M12.5 1.83333C12.5 2.56971 11.903 3.16667 11.1667 3.16667C10.4303 3.16667 9.83333 2.56971 9.83333 1.83333C9.83333 1.09695 10.4303 0.5 11.1667 0.5C11.903 0.5 12.5 1.09695 12.5 1.83333Z" stroke="#424242" stroke-linecap="round"/>
</svg>
