<svg width="16" height="16" viewBox="0 0 16 16" fill="none" xmlns="http://www.w3.org/2000/svg">
<g clip-path="url(#clip0_4219_32765)">
<path d="M4.16683 2.35865C4.16683 2.63479 4.39069 2.85865 4.66683 2.85865C4.94297 2.85865 5.16683 2.63479 5.16683 2.35865H4.66683H4.16683ZM5.16683 1.33301C5.16683 1.05687 4.94297 0.833008 4.66683 0.833008C4.39069 0.833008 4.16683 1.05687 4.16683 1.33301H4.66683H5.16683ZM10.8335 2.35865C10.8335 2.63479 11.0574 2.85865 11.3335 2.85865C11.6096 2.85865 11.8335 2.63479 11.8335 2.35865H11.3335H10.8335ZM11.8335 1.33301C11.8335 1.05687 11.6096 0.833008 11.3335 0.833008C11.0574 0.833008 10.8335 1.05687 10.8335 1.33301H11.3335H11.8335ZM1.66683 5.27745C1.39069 5.27745 1.16683 5.50131 1.16683 5.77745C1.16683 6.05359 1.39069 6.27745 1.66683 6.27745V5.77745V5.27745ZM14.3335 6.27745C14.6096 6.27745 14.8335 6.05359 14.8335 5.77745C14.8335 5.50131 14.6096 5.27745 14.3335 5.27745V5.77745V6.27745ZM6.66683 2.35865V2.85865H9.3335V2.35865V1.85865H6.66683V2.35865ZM14.6668 7.82873H14.1668V9.19626H14.6668H15.1668V7.82873H14.6668ZM9.3335 14.6663V14.1663H6.66683V14.6663V15.1663H9.3335V14.6663ZM1.3335 9.19626H1.8335V7.82873H1.3335H0.833496V9.19626H1.3335ZM6.66683 14.6663V14.1663C5.39526 14.1663 4.49316 14.1652 3.80907 14.0709C3.14069 13.9787 2.75524 13.8062 2.47254 13.5162L2.11454 13.8653L1.75654 14.2143C2.2549 14.7255 2.88851 14.9534 3.67247 15.0615C4.44072 15.1675 5.42424 15.1663 6.66683 15.1663V14.6663ZM1.3335 9.19626H0.833496C0.833496 10.4718 0.832486 11.4775 0.935368 12.2623C1.03997 13.0603 1.25991 13.7049 1.75654 14.2143L2.11454 13.8653L2.47254 13.5162C2.18813 13.2245 2.01755 12.824 1.92689 12.1324C1.83451 11.4276 1.8335 10.4994 1.8335 9.19626H1.3335ZM14.6668 9.19626H14.1668C14.1668 10.4994 14.1658 11.4276 14.0734 12.1324C13.9828 12.824 13.8122 13.2245 13.5278 13.5162L13.8858 13.8653L14.2438 14.2143C14.7404 13.7049 14.9604 13.0603 15.065 12.2623C15.1678 11.4775 15.1668 10.4718 15.1668 9.19626H14.6668ZM9.3335 14.6663V15.1663C10.5761 15.1663 11.5596 15.1675 12.3279 15.0615C13.1118 14.9534 13.7454 14.7255 14.2438 14.2143L13.8858 13.8653L13.5278 13.5162C13.2451 13.8062 12.8596 13.9787 12.1913 14.0709C11.5072 14.1652 10.6051 14.1663 9.3335 14.1663V14.6663ZM9.3335 2.35865V2.85865C10.6051 2.85865 11.5072 2.85976 12.1913 2.9541C12.8596 3.04626 13.2451 3.21884 13.5278 3.50877L13.8858 3.15972L14.2438 2.81067C13.7454 2.29954 13.1118 2.07157 12.3279 1.96347C11.5596 1.85753 10.5761 1.85865 9.3335 1.85865V2.35865ZM14.6668 7.82873H15.1668C15.1668 6.55321 15.1678 5.54751 15.065 4.76266C14.9604 3.9647 14.7404 3.32005 14.2438 2.81067L13.8858 3.15972L13.5278 3.50877C13.8122 3.80048 13.9828 4.20102 14.0734 4.89264C14.1658 5.59736 14.1668 6.52563 14.1668 7.82873H14.6668ZM6.66683 2.35865V1.85865C5.42424 1.85865 4.44072 1.85753 3.67247 1.96347C2.88851 2.07157 2.2549 2.29954 1.75654 2.81067L2.11454 3.15972L2.47254 3.50877C2.75524 3.21884 3.14069 3.04626 3.80907 2.9541C4.49316 2.85976 5.39526 2.85865 6.66683 2.85865V2.35865ZM1.3335 7.82873H1.8335C1.8335 6.52563 1.83451 5.59736 1.92689 4.89264C2.01755 4.20102 2.18813 3.80048 2.47254 3.50877L2.11454 3.15972L1.75654 2.81067C1.25991 3.32005 1.03997 3.9647 0.935368 4.76266C0.832486 5.54751 0.833496 6.55321 0.833496 7.82873H1.3335ZM4.66683 2.35865H5.16683V1.33301H4.66683H4.16683V2.35865H4.66683ZM11.3335 2.35865H11.8335V1.33301H11.3335H10.8335V2.35865H11.3335ZM1.66683 5.77745V6.27745H14.3335V5.77745V5.27745H1.66683V5.77745Z" fill="#424242"/>
</g>
<defs>
<clipPath id="clip0_4219_32765">
<rect width="16" height="16" fill="white"/>
</clipPath>
</defs>
</svg>
