<svg
                                xmlns="http://www.w3.org/2000/svg"
                                width="14"
                                height="14"
                                viewBox="0 0 14 14"
                                fill="none"
                              >
                                <path
                                  d="M4.5699 2.74007L4.53013 2.24166L4.5699 2.74007ZM4.90965 2.70325L5.0065 3.19378L4.90965 2.70325ZM5.70541 2.26973L6.02972 2.65029L5.70541 2.26973ZM5.43913 2.48393L5.16075 2.0686L5.43913 2.48393ZM2.73958 4.57039L2.24117 4.53062L2.73958 4.57039ZM2.85463 3.7445L2.38317 3.57797L2.85463 3.7445ZM3.74401 2.85511L3.57749 2.38366L3.74401 2.85511ZM2.26924 5.7059L2.6498 6.03021L2.26924 5.7059ZM2.48344 5.43962L2.06811 5.16124L2.48344 5.43962ZM2.70276 4.91014L3.19329 5.00699L2.70276 4.91014ZM2.26924 8.29436L2.6498 7.97005L2.26924 8.29436ZM1.76659 7.62902L2.21771 7.4134L1.76659 7.62902ZM1.76659 6.37124L2.21771 6.58686L1.76659 6.37124ZM2.73958 9.42986L2.24117 9.46964L2.73958 9.42986ZM2.70276 9.09012L3.19329 8.99327L2.70276 9.09012ZM2.48344 8.56064L2.06811 8.83902L2.48344 8.56064ZM4.5699 11.2602L4.60968 10.7618L4.5699 11.2602ZM3.74401 11.1451L3.57749 11.6166L3.74401 11.1451ZM2.85463 10.2558L2.38317 10.4223L2.85463 10.2558ZM5.70541 11.7305L6.02972 11.35L5.70541 11.7305ZM5.43913 11.5163L5.16075 11.9317L5.43913 11.5163ZM4.90965 11.297L4.81281 11.7875L4.90965 11.297ZM8.29387 11.7305L7.96956 11.35L8.29387 11.7305ZM7.62853 12.2332L7.41291 11.7821L7.62853 12.2332ZM6.37075 12.2332L6.58637 11.7821L6.37075 12.2332ZM9.42938 11.2602L9.3896 10.7618L9.42938 11.2602ZM9.08963 11.297L9.18647 11.7875L9.08963 11.297ZM8.56015 11.5163L8.83853 11.9317L8.56015 11.5163ZM11.2597 9.42986L10.7613 9.39009L11.2597 9.42986ZM11.1447 10.2558L11.6161 10.4223L11.1447 10.2558ZM10.2553 11.1451L10.4218 11.6166L10.2553 11.1451ZM11.73 8.29436L11.3495 7.97005L11.73 8.29436ZM11.5158 8.56064L11.9312 8.83902L11.5158 8.56064ZM11.2965 9.09012L11.7871 9.18696L11.2965 9.09012ZM11.73 5.7059L11.3495 6.03021L11.73 5.7059ZM12.2327 6.37124L11.7816 6.58686L12.2327 6.37124ZM12.2327 7.62902L11.7816 7.4134L12.2327 7.62902ZM11.2597 4.57039L11.7581 4.53062L11.2597 4.57039ZM11.2965 4.91014L11.7871 4.8133L11.2965 4.91014ZM11.5158 5.43962L11.9312 5.16124L11.5158 5.43962ZM9.42938 2.74007L9.3896 3.23849L9.42938 2.74007ZM10.2553 2.85511L10.4218 2.38366L10.2553 2.85511ZM11.1447 3.7445L11.6161 3.57797L11.1447 3.7445ZM8.29387 2.26973L7.96956 2.65029L8.29387 2.26973ZM8.56015 2.48393L8.83853 2.0686L8.56015 2.48393ZM9.08963 2.70325L8.99278 3.19378L9.08963 2.70325ZM7.62853 1.76708L7.41291 2.2182L7.62853 1.76708ZM6.37075 1.76708L6.58637 2.2182L6.37075 1.76708ZM5.31152 6.93824C5.11626 6.74297 4.79968 6.74297 4.60441 6.93824C4.40915 7.1335 4.40915 7.45008 4.60441 7.64534L4.95797 7.29179L5.31152 6.93824ZM6.12463 8.45846L5.77108 8.81201C5.96634 9.00727 6.28292 9.00727 6.47819 8.81201L6.12463 8.45846ZM9.39485 5.89534C9.59012 5.70008 9.59012 5.3835 9.39485 5.18824C9.19959 4.99297 8.88301 4.99297 8.68775 5.18824L9.0413 5.54179L9.39485 5.89534ZM4.5699 2.74007L4.60968 3.23849C4.76993 3.2257 4.8891 3.21696 5.0065 3.19378L4.90965 2.70325L4.81281 2.21272C4.76508 2.22214 4.7128 2.22708 4.53013 2.24166L4.5699 2.74007ZM5.70541 2.26973L5.3811 1.88917C5.24163 2.00803 5.20117 2.04151 5.16075 2.0686L5.43913 2.48393L5.71751 2.89927C5.81691 2.83265 5.90736 2.75456 6.02972 2.65029L5.70541 2.26973ZM4.90965 2.70325L5.0065 3.19378C5.26065 3.1436 5.50232 3.0435 5.71751 2.89927L5.43913 2.48393L5.16075 2.0686C5.05545 2.13918 4.93718 2.18816 4.81281 2.21272L4.90965 2.70325ZM2.73958 4.57039L3.238 4.61017C3.27479 4.1491 3.28974 4.0139 3.32608 3.91102L2.85463 3.7445L2.38317 3.57797C2.29256 3.8345 2.27313 4.1301 2.24117 4.53062L2.73958 4.57039ZM4.5699 2.74007L4.53013 2.24166C4.12961 2.27362 3.83401 2.29305 3.57749 2.38366L3.74401 2.85511L3.91053 3.32657C4.01342 3.29023 4.14861 3.27528 4.60968 3.23849L4.5699 2.74007ZM2.85463 3.7445L3.32608 3.91102C3.42255 3.63789 3.6374 3.42304 3.91053 3.32657L3.74401 2.85511L3.57749 2.38366C3.01934 2.5808 2.58031 3.01983 2.38317 3.57797L2.85463 3.7445ZM2.26924 5.7059L2.6498 6.03021C2.75407 5.90785 2.83216 5.8174 2.89878 5.718L2.48344 5.43962L2.06811 5.16124C2.04102 5.20166 2.00754 5.24212 1.88869 5.38159L2.26924 5.7059ZM2.73958 4.57039L2.24117 4.53062C2.22659 4.71328 2.22165 4.76556 2.21223 4.8133L2.70276 4.91014L3.19329 5.00699C3.21647 4.88959 3.22521 4.77042 3.238 4.61017L2.73958 4.57039ZM2.48344 5.43962L2.89878 5.718C3.04301 5.50281 3.14312 5.26114 3.19329 5.00699L2.70276 4.91014L2.21223 4.8133C2.18768 4.93767 2.13869 5.05593 2.06811 5.16124L2.48344 5.43962ZM2.26924 8.29436L2.6498 7.97005C2.34979 7.61801 2.26477 7.51184 2.21771 7.4134L1.76659 7.62902L1.31547 7.84464C1.4328 8.0901 1.62808 8.31286 1.88869 8.61867L2.26924 8.29436ZM2.26924 5.7059L1.88869 5.38159C1.62808 5.6874 1.4328 5.91016 1.31547 6.15562L1.76659 6.37124L2.21771 6.58686C2.26477 6.48841 2.34979 6.38225 2.6498 6.03021L2.26924 5.7059ZM1.76659 7.62902L2.21771 7.4134C2.09279 7.15205 2.09279 6.84821 2.21771 6.58686L1.76659 6.37124L1.31547 6.15562C1.06021 6.68969 1.06021 7.31057 1.31547 7.84464L1.76659 7.62902ZM2.73958 9.42986L3.238 9.39009C3.22521 9.22984 3.21647 9.11067 3.19329 8.99327L2.70276 9.09012L2.21223 9.18696C2.22165 9.23469 2.22659 9.28697 2.24117 9.46964L2.73958 9.42986ZM2.26924 8.29436L1.88869 8.61867C2.00754 8.75814 2.04102 8.7986 2.06811 8.83902L2.48344 8.56064L2.89878 8.28226C2.83216 8.18286 2.75407 8.09241 2.6498 7.97005L2.26924 8.29436ZM2.70276 9.09012L3.19329 8.99327C3.14312 8.73912 3.04301 8.49745 2.89878 8.28226L2.48344 8.56064L2.06811 8.83902C2.13869 8.94432 2.18768 9.06259 2.21223 9.18696L2.70276 9.09012ZM4.5699 11.2602L4.60968 10.7618C4.14861 10.725 4.01342 10.71 3.91053 10.6737L3.74401 11.1451L3.57749 11.6166C3.83401 11.7072 4.12961 11.7266 4.53013 11.7586L4.5699 11.2602ZM2.73958 9.42986L2.24117 9.46964C2.27313 9.87016 2.29256 10.1658 2.38317 10.4223L2.85463 10.2558L3.32608 10.0892C3.28974 9.98635 3.27479 9.85116 3.238 9.39009L2.73958 9.42986ZM3.74401 11.1451L3.91053 10.6737C3.6374 10.5772 3.42255 10.3624 3.32608 10.0892L2.85463 10.2558L2.38317 10.4223C2.58031 10.9804 3.01934 11.4195 3.57749 11.6166L3.74401 11.1451ZM5.70541 11.7305L6.02972 11.35C5.90736 11.2457 5.81691 11.1676 5.71751 11.101L5.43913 11.5163L5.16075 11.9317C5.20117 11.9588 5.24163 11.9922 5.3811 12.1111L5.70541 11.7305ZM4.5699 11.2602L4.53013 11.7586C4.71279 11.7732 4.76508 11.7781 4.81281 11.7875L4.90965 11.297L5.0065 10.8065C4.88911 10.7833 4.76993 10.7746 4.60968 10.7618L4.5699 11.2602ZM5.43913 11.5163L5.71751 11.101C5.50232 10.9568 5.26065 10.8567 5.0065 10.8065L4.90965 11.297L4.81281 11.7875C4.93718 11.8121 5.05545 11.8611 5.16075 11.9317L5.43913 11.5163ZM8.29387 11.7305L7.96956 11.35C7.61752 11.65 7.51136 11.735 7.41291 11.7821L7.62853 12.2332L7.84415 12.6843C8.08961 12.567 8.31237 12.3717 8.61818 12.1111L8.29387 11.7305ZM5.70541 11.7305L5.3811 12.1111C5.68691 12.3717 5.90967 12.567 6.15513 12.6843L6.37075 12.2332L6.58637 11.7821C6.48793 11.735 6.38176 11.65 6.02972 11.35L5.70541 11.7305ZM7.62853 12.2332L7.41291 11.7821C7.15156 11.907 6.84772 11.907 6.58637 11.7821L6.37075 12.2332L6.15513 12.6843C6.6892 12.9396 7.31008 12.9396 7.84415 12.6843L7.62853 12.2332ZM9.42938 11.2602L9.3896 10.7618C9.22935 10.7746 9.11018 10.7833 8.99278 10.8065L9.08963 11.297L9.18647 11.7875C9.23421 11.7781 9.28649 11.7732 9.46915 11.7586L9.42938 11.2602ZM8.29387 11.7305L8.61818 12.1111C8.75765 11.9922 8.79811 11.9588 8.83853 11.9317L8.56015 11.5163L8.28177 11.101C8.18237 11.1676 8.09192 11.2457 7.96956 11.35L8.29387 11.7305ZM9.08963 11.297L8.99278 10.8065C8.73863 10.8567 8.49696 10.9568 8.28177 11.101L8.56015 11.5163L8.83853 11.9317C8.94384 11.8611 9.0621 11.8121 9.18647 11.7875L9.08963 11.297ZM11.2597 9.42986L10.7613 9.39009C10.7245 9.85116 10.7095 9.98635 10.6732 10.0892L11.1447 10.2558L11.6161 10.4223C11.7067 10.1658 11.7262 9.87016 11.7581 9.46964L11.2597 9.42986ZM9.42938 11.2602L9.46915 11.7586C9.86967 11.7266 10.1653 11.7072 10.4218 11.6166L10.2553 11.1451L10.0887 10.6737C9.98587 10.71 9.85067 10.725 9.3896 10.7618L9.42938 11.2602ZM11.1447 10.2558L10.6732 10.0892C10.5767 10.3624 10.3619 10.5772 10.0887 10.6737L10.2553 11.1451L10.4218 11.6166C10.9799 11.4195 11.419 10.9804 11.6161 10.4223L11.1447 10.2558ZM11.73 8.29436L11.3495 7.97005C11.2452 8.09241 11.1671 8.18286 11.1005 8.28226L11.5158 8.56064L11.9312 8.83902C11.9583 8.7986 11.9917 8.75814 12.1106 8.61867L11.73 8.29436ZM11.2597 9.42986L11.7581 9.46964C11.7727 9.28698 11.7776 9.23469 11.7871 9.18696L11.2965 9.09012L10.806 8.99327C10.7828 9.11066 10.7741 9.22984 10.7613 9.39009L11.2597 9.42986ZM11.5158 8.56064L11.1005 8.28226C10.9563 8.49745 10.8562 8.73912 10.806 8.99327L11.2965 9.09012L11.7871 9.18696C11.8116 9.06259 11.8606 8.94432 11.9312 8.83902L11.5158 8.56064ZM11.73 5.7059L11.3495 6.03021C11.6495 6.38225 11.7345 6.48841 11.7816 6.58686L12.2327 6.37124L12.6838 6.15562C12.5665 5.91016 12.3712 5.6874 12.1106 5.38159L11.73 5.7059ZM11.73 8.29436L12.1106 8.61867C12.3712 8.31286 12.5665 8.0901 12.6838 7.84464L12.2327 7.62902L11.7816 7.4134C11.7345 7.51184 11.6495 7.61801 11.3495 7.97005L11.73 8.29436ZM12.2327 6.37124L11.7816 6.58686C11.9065 6.84821 11.9065 7.15205 11.7816 7.4134L12.2327 7.62902L12.6838 7.84464C12.9391 7.31057 12.9391 6.68969 12.6838 6.15562L12.2327 6.37124ZM11.2597 4.57039L10.7613 4.61017C10.7741 4.77042 10.7828 4.88959 10.806 5.00699L11.2965 4.91014L11.7871 4.8133C11.7776 4.76556 11.7727 4.71328 11.7581 4.53062L11.2597 4.57039ZM11.73 5.7059L12.1106 5.38159C11.9917 5.24212 11.9583 5.20166 11.9312 5.16124L11.5158 5.43962L11.1005 5.718C11.1671 5.8174 11.2452 5.90785 11.3495 6.03021L11.73 5.7059ZM11.2965 4.91014L10.806 5.00699C10.8562 5.26114 10.9563 5.50281 11.1005 5.718L11.5158 5.43962L11.9312 5.16124C11.8606 5.05593 11.8116 4.93767 11.7871 4.8133L11.2965 4.91014ZM9.42938 2.74007L9.3896 3.23849C9.85067 3.27528 9.98587 3.29023 10.0887 3.32657L10.2553 2.85511L10.4218 2.38366C10.1653 2.29305 9.86967 2.27362 9.46915 2.24166L9.42938 2.74007ZM11.2597 4.57039L11.7581 4.53062C11.7262 4.1301 11.7067 3.8345 11.6161 3.57797L11.1447 3.7445L10.6732 3.91102C10.7095 4.0139 10.7245 4.1491 10.7613 4.61017L11.2597 4.57039ZM10.2553 2.85511L10.0887 3.32657C10.3619 3.42304 10.5767 3.63789 10.6732 3.91102L11.1447 3.7445L11.6161 3.57797C11.419 3.01983 10.9799 2.5808 10.4218 2.38366L10.2553 2.85511ZM8.29387 2.26973L7.96956 2.65029C8.09192 2.75456 8.18237 2.83265 8.28177 2.89927L8.56015 2.48393L8.83853 2.0686C8.79811 2.04151 8.75765 2.00803 8.61818 1.88917L8.29387 2.26973ZM9.42938 2.74007L9.46915 2.24166C9.28649 2.22708 9.2342 2.22214 9.18647 2.21272L9.08963 2.70325L8.99278 3.19378C9.11018 3.21696 9.22935 3.2257 9.3896 3.23849L9.42938 2.74007ZM8.56015 2.48393L8.28177 2.89927C8.49696 3.0435 8.73863 3.1436 8.99278 3.19378L9.08963 2.70325L9.18647 2.21272C9.0621 2.18816 8.94384 2.13918 8.83853 2.0686L8.56015 2.48393ZM8.29387 2.26973L8.61818 1.88917C8.31237 1.62857 8.08961 1.43328 7.84415 1.31596L7.62853 1.76708L7.41291 2.2182C7.51136 2.26525 7.61752 2.35028 7.96956 2.65029L8.29387 2.26973ZM5.70541 2.26973L6.02972 2.65029C6.38176 2.35028 6.48793 2.26525 6.58637 2.2182L6.37075 1.76708L6.15513 1.31596C5.90967 1.43328 5.68691 1.62857 5.3811 1.88917L5.70541 2.26973ZM7.62853 1.76708L7.84415 1.31596C7.31008 1.06069 6.6892 1.06069 6.15513 1.31596L6.37075 1.76708L6.58637 2.2182C6.84772 2.09328 7.15156 2.09328 7.41291 2.2182L7.62853 1.76708ZM4.95797 7.29179L4.60441 7.64534L5.77108 8.81201L6.12463 8.45846L6.47819 8.1049L5.31152 6.93824L4.95797 7.29179ZM6.12463 8.45846L6.47819 8.81201L9.39485 5.89534L9.0413 5.54179L8.68775 5.18824L5.77108 8.1049L6.12463 8.45846Z"
                                  fill="#3EAF3F"
                                />
                              </svg>