<svg width="16" height="16" viewBox="0 0 16 16" fill="none" xmlns="http://www.w3.org/2000/svg">
<path d="M8.57424 8.9837L8.13613 9.22465L8.13613 9.22465L8.57424 8.9837ZM7.44938 6.93849L7.01127 7.17945L7.01127 7.17945L7.44938 6.93849ZM11.9999 8.50008C12.2761 8.50008 12.4999 8.27622 12.4999 8.00008C12.4999 7.72393 12.2761 7.50008 11.9999 7.50008V8.00008V8.50008ZM9.75063 8.97111L10.1794 9.22836L10.1794 9.22835L9.75063 8.97111ZM9.73005 9.00541L9.30131 8.74816L9.30131 8.74816L9.73005 9.00541ZM6.31908 6.87746L5.90947 6.59073L5.90947 6.59073L6.31908 6.87746ZM6.13041 7.147L6.54002 7.43373L6.54002 7.43373L6.13041 7.147ZM3.99992 7.50008C3.72378 7.50008 3.49992 7.72393 3.49992 8.00008C3.49992 8.27622 3.72378 8.50008 3.99992 8.50008V8.00008V7.50008ZM5.47441 7.88705L5.70531 8.33054L5.70531 8.33054L5.47441 7.88705ZM10.4067 8.12988L10.1604 7.69478L10.1604 7.69478L10.4067 8.12988ZM9.13956 9.66452L9.13016 10.1644L9.13016 10.1644L9.13956 9.66452ZM5.97441 12.9138L6.29039 12.5263L6.29039 12.5263L5.97441 12.9138ZM7.99992 3.66585L7.63387 4.00644C7.72846 4.1081 7.86106 4.16585 7.99992 4.16585C8.13878 4.16585 8.27138 4.1081 8.36597 4.00644L7.99992 3.66585ZM10.0254 12.9138L10.3414 13.3013L10.3414 13.3013L10.0254 12.9138ZM8.57424 8.9837L9.01235 8.74274L7.88749 6.69753L7.44938 6.93849L7.01127 7.17945L8.13613 9.22465L8.57424 8.9837ZM11.9999 8.00008V7.50008H11.4656V8.00008V8.50008H11.9999V8.00008ZM9.75063 8.97111L9.32189 8.71386L9.30131 8.74816L9.73005 9.00541L10.1588 9.26266L10.1794 9.22836L9.75063 8.97111ZM6.31908 6.87746L5.90947 6.59073L5.72079 6.86027L6.13041 7.147L6.54002 7.43373L6.7287 7.16419L6.31908 6.87746ZM4.49194 8.00008V7.50008H3.99992V8.00008V8.50008H4.49194V8.00008ZM6.13041 7.147L5.72079 6.86027C5.56936 7.0766 5.47442 7.21139 5.39224 7.30861C5.31659 7.39809 5.27454 7.4274 5.2435 7.44356L5.47441 7.88705L5.70531 8.33054C5.89135 8.23368 6.03099 8.10198 6.15592 7.9542C6.27432 7.81414 6.39884 7.63542 6.54002 7.43373L6.13041 7.147ZM4.49194 8.00008V8.50008C4.73814 8.50008 4.95596 8.50055 5.13859 8.48388C5.3313 8.46628 5.51928 8.4274 5.70531 8.33054L5.47441 7.88705L5.2435 7.44356C5.21246 7.45973 5.16434 7.47736 5.04765 7.48802C4.92088 7.4996 4.756 7.50008 4.49194 7.50008V8.00008ZM11.4656 8.00008V7.50008C11.1987 7.50008 10.963 7.49953 10.7664 7.51865C10.5589 7.53881 10.3571 7.58342 10.1604 7.69478L10.4067 8.12988L10.6531 8.56498C10.6857 8.54653 10.7367 8.52624 10.8631 8.51396C11.0003 8.50062 11.1795 8.50008 11.4656 8.50008V8.00008ZM9.75063 8.97111L10.1794 9.22835C10.3266 8.983 10.4193 8.82963 10.5013 8.71883C10.5769 8.61673 10.6205 8.58342 10.6531 8.56498L10.4067 8.12988L10.1604 7.69478C9.96372 7.80613 9.82159 7.95629 9.69758 8.12379C9.58001 8.28259 9.45925 8.48493 9.32189 8.71386L9.75063 8.97111ZM7.44938 6.93849L7.88749 6.69753C7.77978 6.5017 7.67259 6.30405 7.56378 6.16098C7.45034 6.01184 7.25585 5.81463 6.94417 5.7978L6.91722 6.29707L6.89026 6.79635C6.83646 6.79344 6.79111 6.7739 6.76329 6.75485C6.74298 6.74094 6.74466 6.73588 6.76783 6.76635C6.7903 6.7959 6.82045 6.84191 6.86306 6.9147C6.90527 6.9868 6.95242 7.07244 7.01127 7.17945L7.44938 6.93849ZM6.31908 6.87746L6.7287 7.16419C6.79873 7.06415 6.85483 6.98407 6.90456 6.91694C6.95476 6.84916 6.98968 6.80666 7.0152 6.77971C7.04152 6.75191 7.04264 6.75712 7.02096 6.76876C6.99125 6.7847 6.94405 6.79925 6.89026 6.79635L6.91722 6.29707L6.94417 5.7978C6.6325 5.78097 6.4179 5.95609 6.28907 6.09215C6.16548 6.22267 6.03764 6.40763 5.90947 6.59073L6.31908 6.87746ZM8.57424 8.9837L8.13613 9.22465C8.25215 9.43558 8.36569 9.6448 8.47972 9.79473C8.59635 9.94809 8.80147 10.1583 9.13016 10.1644L9.13956 9.66452L9.14895 9.16461C9.20665 9.16569 9.25523 9.18594 9.28415 9.20543C9.30461 9.21921 9.30163 9.22351 9.27567 9.18937C9.25068 9.15651 9.2177 9.10602 9.17174 9.02749C9.12623 8.94972 9.0754 8.85736 9.01235 8.74274L8.57424 8.9837ZM9.73005 9.00541L9.30131 8.74816C9.234 8.86034 9.17972 8.95072 9.13133 9.02673C9.08245 9.10347 9.0476 9.15269 9.02139 9.18459C8.99416 9.21773 8.99135 9.21332 9.01231 9.20032C9.04194 9.18194 9.09125 9.16352 9.14895 9.16461L9.13956 9.66452L9.13016 10.1644C9.45886 10.1706 9.67173 9.96829 9.79404 9.81942C9.91362 9.67388 10.0349 9.46908 10.1588 9.26265L9.73005 9.00541ZM5.97441 12.9138L6.29039 12.5263C5.32382 11.7381 4.19521 10.7045 3.31246 9.57318C2.42022 8.42966 1.83325 7.25474 1.83325 6.17362H1.33325H0.833252C0.833252 7.59082 1.58609 8.98622 2.52405 10.1883C3.47149 11.4026 4.66346 12.49 5.65842 13.3013L5.97441 12.9138ZM1.33325 6.17362H1.83325C1.83325 4.35371 2.67186 3.13636 3.73368 2.69461C4.7819 2.25852 6.23515 2.5032 7.63387 4.00644L7.99992 3.66585L8.36597 3.32525C6.76479 1.60441 4.88471 1.13266 3.34957 1.77132C1.82804 2.40433 0.833252 4.05291 0.833252 6.17362H1.33325ZM10.0254 12.9138L10.3414 13.3013C11.3364 12.49 12.5283 11.4026 13.4758 10.1884C14.4137 8.98624 15.1666 7.59083 15.1666 6.1736H14.6666H14.1666C14.1666 7.25475 13.5796 8.42969 12.6874 9.5732C11.8046 10.7046 10.676 11.7381 9.70945 12.5263L10.0254 12.9138ZM14.6666 6.1736H15.1666C15.1666 4.05284 14.1718 2.40426 12.6503 1.77127C11.1151 1.13263 9.23504 1.60441 7.63387 3.32525L7.99992 3.66585L8.36597 4.00644C9.76469 2.50319 11.2179 2.25849 12.2662 2.69456C13.328 3.1363 14.1666 4.35363 14.1666 6.1736H14.6666ZM5.97441 12.9138L5.65842 13.3013C6.50572 13.9922 7.09391 14.5 7.99992 14.5L7.99992 14L7.99992 13.5C7.51889 13.5 7.21908 13.2836 6.29039 12.5263L5.97441 12.9138ZM10.0254 12.9138L9.70945 12.5263C8.78076 13.2836 8.48096 13.5 7.99992 13.5L7.99992 14L7.99992 14.5C8.90594 14.5 9.49412 13.9923 10.3414 13.3013L10.0254 12.9138Z" fill="#8E8E8E"/>
</svg>
