<svg width="22" height="20" viewBox="0 0 22 20" fill="none" xmlns="http://www.w3.org/2000/svg">
<path d="M3.69805 9.15627L3.04479 8.78783L3.04479 8.78783L3.69805 9.15627ZM17.8019 9.15626L17.1487 9.52471L17.8019 9.15626ZM17.4383 8.51149L18.0915 8.14304V8.14304L17.4383 8.51149ZM4.06171 8.51149L4.71497 8.87994L4.71497 8.87994L4.06171 8.51149ZM10.75 0.75V1.5V0.75ZM10 14.75C10 15.1642 10.3358 15.5 10.75 15.5C11.1642 15.5 11.5 15.1642 11.5 14.75H10.75H10ZM11.5 14.25C11.5 13.8358 11.1642 13.5 10.75 13.5C10.3358 13.5 10 13.8358 10 14.25H10.75H11.5ZM10 11.75C10 12.1642 10.3358 12.5 10.75 12.5C11.1642 12.5 11.5 12.1642 11.5 11.75H10.75H10ZM11.5 5.75C11.5 5.33579 11.1642 5 10.75 5C10.3358 5 10 5.33579 10 5.75H10.75H11.5ZM17.4383 8.51149L16.785 8.87993L17.1487 9.52471L17.8019 9.15626L18.4552 8.78782L18.0915 8.14304L17.4383 8.51149ZM11.1137 18.75V18H10.3863V18.75V19.5H11.1137V18.75ZM3.69805 9.15627L4.35131 9.52472L4.71497 8.87994L4.06171 8.51149L3.40845 8.14305L3.04479 8.78783L3.69805 9.15627ZM10.3863 18.75V18C7.65263 18 5.6786 17.9984 4.24661 17.8099C2.80875 17.6206 2.13204 17.2663 1.7715 16.7491L1.15626 17.178L0.541011 17.6069C1.27639 18.6618 2.50333 19.0934 4.05084 19.2971C5.60421 19.5016 7.69727 19.5 10.3863 19.5V18.75ZM3.69805 9.15627L3.04479 8.78783C1.84588 10.9135 0.898408 12.5886 0.403157 13.9304C-0.0977951 15.2876 -0.216799 16.5199 0.541011 17.6069L1.15626 17.178L1.7715 16.7491C1.4334 16.2641 1.37272 15.6355 1.81036 14.4498C2.2537 13.2486 3.12509 11.6988 4.35131 9.52471L3.69805 9.15627ZM17.8019 9.15626L17.1487 9.52471C18.3749 11.6988 19.2463 13.2486 19.6896 14.4498C20.1273 15.6355 20.0666 16.2641 19.7285 16.7491L20.3437 17.178L20.959 17.6069C21.7168 16.5199 21.5978 15.2876 21.0968 13.9304C20.6016 12.5886 19.6541 10.9135 18.4552 8.78782L17.8019 9.15626ZM11.1137 18.75V19.5C13.8027 19.5 15.8958 19.5016 17.4492 19.2971C18.9967 19.0934 20.2236 18.6618 20.959 17.6069L20.3437 17.178L19.7285 16.7491C19.368 17.2663 18.6912 17.6206 17.2534 17.8099C15.8214 17.9984 13.8474 18 11.1137 18V18.75ZM17.4383 8.51149L18.0915 8.14304C16.6453 5.57878 15.5184 3.57643 14.4556 2.22643C13.3837 0.864927 12.2482 -5.96046e-08 10.75 0V0.75V1.5C11.5626 1.5 12.312 1.92865 13.277 3.15431C14.251 4.39148 15.3129 6.26987 16.785 8.87993L17.4383 8.51149ZM4.06171 8.51149L4.71497 8.87994C6.18707 6.26988 7.24898 4.39148 8.223 3.15432C9.18796 1.92865 9.93741 1.5 10.75 1.5V0.75V0C9.25184 5.96046e-08 8.11633 0.864928 7.04443 2.22643C5.98157 3.57643 4.85472 5.57878 3.40845 8.14305L4.06171 8.51149ZM10.75 14.75H11.5V14.25H10.75H10V14.75H10.75ZM10.75 11.75H11.5V5.75H10.75H10V11.75H10.75Z" fill="#F04248"/>
</svg>
