<svg width="16" height="16" viewBox="0 0 16 16" fill="none" xmlns="http://www.w3.org/2000/svg">
<path d="M8.5 0.5C8.5 0.223858 8.27614 0 8 0C7.72386 0 7.5 0.223858 7.5 0.5H8H8.5ZM8 11.3333L7.63099 11.6707C7.72571 11.7743 7.85962 11.8333 8 11.8333C8.14038 11.8333 8.27429 11.7743 8.36901 11.6707L8 11.3333ZM11.7023 8.02488C11.8887 7.82108 11.8745 7.50482 11.6707 7.31849C11.4669 7.13215 11.1507 7.14631 10.9643 7.35012L11.3333 7.6875L11.7023 8.02488ZM5.03568 7.35012C4.84935 7.14631 4.53308 7.13215 4.32928 7.31849C4.12548 7.50482 4.11132 7.82108 4.29765 8.02488L4.66667 7.6875L5.03568 7.35012ZM10.5 15.5V15H5.5V15.5V16H10.5V15.5ZM5.5 15.5V15C4.30735 15 3.46317 14.9989 2.82344 14.9129C2.1981 14.8289 1.84352 14.6719 1.58579 14.4142L1.23223 14.7678L0.87868 15.1213C1.35318 15.5958 1.95397 15.805 2.6902 15.904C3.41204 16.0011 4.33562 16 5.5 16V15.5ZM0.5 10.5H0C0 11.6644 -0.00106187 12.588 0.0959877 13.3098C0.194971 14.046 0.404179 14.6468 0.87868 15.1213L1.23223 14.7678L1.58579 14.4142C1.32805 14.1565 1.17115 13.8019 1.08707 13.1766C1.00106 12.5368 1 11.6926 1 10.5H0.5ZM15.5 10.5H15C15 11.6926 14.9989 12.5368 14.9129 13.1766C14.8289 13.8019 14.6719 14.1565 14.4142 14.4142L14.7678 14.7678L15.1213 15.1213C15.5958 14.6468 15.805 14.046 15.904 13.3098C16.0011 12.588 16 11.6644 16 10.5H15.5ZM10.5 15.5V16C11.6644 16 12.588 16.0011 13.3098 15.904C14.046 15.805 14.6468 15.5958 15.1213 15.1213L14.7678 14.7678L14.4142 14.4142C14.1565 14.6719 13.8019 14.8289 13.1766 14.9129C12.5368 14.9989 11.6926 15 10.5 15V15.5ZM8 0.5H7.5V11.3333H8H8.5V0.5H8ZM8 11.3333L8.36901 11.6707L11.7023 8.02488L11.3333 7.6875L10.9643 7.35012L7.63099 10.9959L8 11.3333ZM8 11.3333L8.36901 10.9959L5.03568 7.35012L4.66667 7.6875L4.29765 8.02488L7.63099 11.6707L8 11.3333Z" fill="#424242"/>
</svg>
