<svg width="11" height="11" viewBox="0 0 11 11" fill="none" xmlns="http://www.w3.org/2000/svg">
<path d="M10.8536 0.853593C11.0488 0.658331 11.0488 0.341749 10.8536 0.146487C10.6583 -0.0487755 10.3417 -0.0487755 10.1464 0.146487L10.5 0.50004L10.8536 0.853593ZM0.146489 10.1464C-0.0487736 10.3417 -0.0487735 10.6583 0.146489 10.8536C0.341751 11.0488 0.658333 11.0488 0.853595 10.8536L0.500042 10.5L0.146489 10.1464ZM0.853553 0.146447C0.658291 -0.0488155 0.341709 -0.0488156 0.146447 0.146447C-0.0488155 0.341709 -0.0488156 0.658291 0.146447 0.853553L0.5 0.5L0.853553 0.146447ZM10.1464 10.8535C10.3417 11.0488 10.6582 11.0488 10.8535 10.8535C11.0488 10.6583 11.0488 10.3417 10.8535 10.1464L10.5 10.5L10.1464 10.8535ZM10.5 0.50004L10.1464 0.146487L5.14647 5.14647L5.50002 5.50002L5.85357 5.85357L10.8536 0.853593L10.5 0.50004ZM5.50002 5.50002L5.14647 5.14647L0.146489 10.1464L0.500042 10.5L0.853595 10.8536L5.85357 5.85357L5.50002 5.50002ZM0.5 0.5L0.146447 0.853553L5.14647 5.85357L5.50002 5.50002L5.85357 5.14647L0.853553 0.146447L0.5 0.5ZM5.50002 5.50002L5.14647 5.85357L10.1464 10.8535L10.5 10.5L10.8535 10.1464L5.85357 5.14647L5.50002 5.50002Z" fill="#424242"/>
</svg>
