<svg width="20" height="20" viewBox="0 0 20 20" fill="none" xmlns="http://www.w3.org/2000/svg">
<path d="M17.2712 7.25353L16.875 7.55851L17.2712 7.25353ZM17.2712 12.7463L16.875 12.4413L17.2712 12.7463ZM18.3337 9.99992H17.8337H18.3337ZM2.7294 7.25353L3.12562 7.55851L2.7294 7.25353ZM2.7294 12.7463L3.12562 12.4413L2.7294 12.7463ZM2.7294 7.25353L3.12562 7.55851C4.49474 5.77979 6.73692 3.83325 10.0003 3.83325V3.33325V2.83325C6.29392 2.83325 3.79251 5.05264 2.33319 6.94855L2.7294 7.25353ZM10.0003 3.33325V3.83325C13.2637 3.83325 15.5059 5.77979 16.875 7.55851L17.2712 7.25353L17.6675 6.94855C16.2081 5.05264 13.7067 2.83325 10.0003 2.83325V3.33325ZM17.2712 12.7463L16.875 12.4413C15.5059 14.22 13.2637 16.1666 10.0003 16.1666V16.6666V17.1666C13.7067 17.1666 16.2081 14.9472 17.6675 13.0513L17.2712 12.7463ZM10.0003 16.6666V16.1666C6.73692 16.1666 4.49474 14.22 3.12562 12.4413L2.7294 12.7463L2.33319 13.0513C3.79251 14.9472 6.29392 17.1666 10.0003 17.1666V16.6666ZM17.2712 7.25353L16.875 7.55851C17.2382 8.03038 17.4626 8.32637 17.6107 8.66153C17.7514 8.98 17.8337 9.36259 17.8337 9.99992H18.3337H18.8337C18.8337 9.2711 18.7389 8.74057 18.5254 8.25743C18.3193 7.79097 18.0125 7.39683 17.6675 6.94855L17.2712 7.25353ZM17.2712 12.7463L17.6675 13.0513C18.0125 12.603 18.3193 12.2089 18.5254 11.7424C18.7389 11.2593 18.8337 10.7287 18.8337 9.99992H18.3337H17.8337C17.8337 10.6372 17.7514 11.0198 17.6107 11.3383C17.4626 11.6735 17.2382 11.9695 16.875 12.4413L17.2712 12.7463ZM2.7294 7.25353L2.33319 6.94855C1.98813 7.39684 1.68131 7.79097 1.47524 8.25743C1.2618 8.74057 1.16699 9.2711 1.16699 9.99992H1.66699H2.16699C2.16699 9.36259 2.24926 8.98 2.38995 8.66153C2.53802 8.32637 2.7624 8.03038 3.12562 7.55851L2.7294 7.25353ZM2.7294 12.7463L3.12562 12.4413C2.7624 11.9695 2.53802 11.6735 2.38995 11.3383C2.24926 11.0198 2.16699 10.6372 2.16699 9.99992H1.66699H1.16699C1.16699 10.7287 1.2618 11.2593 1.47524 11.7424C1.68131 12.2089 1.98813 12.603 2.33319 13.0513L2.7294 12.7463ZM12.5003 9.99992H12.0003C12.0003 11.1045 11.1049 11.9999 10.0003 11.9999V12.4999V12.9999C11.6572 12.9999 13.0003 11.6568 13.0003 9.99992H12.5003ZM10.0003 12.4999V11.9999C8.89576 11.9999 8.00033 11.1045 8.00033 9.99992H7.50033H7.00033C7.00033 11.6568 8.34347 12.9999 10.0003 12.9999V12.4999ZM7.50033 9.99992H8.00033C8.00033 8.89535 8.89576 7.99992 10.0003 7.99992V7.49992V6.99992C8.34347 6.99992 7.00033 8.34306 7.00033 9.99992H7.50033ZM10.0003 7.49992V7.99992C11.1049 7.99992 12.0003 8.89535 12.0003 9.99992H12.5003H13.0003C13.0003 8.34306 11.6572 6.99992 10.0003 6.99992V7.49992Z" fill="#424242"/>
</svg>
