<svg width="16" height="16" viewBox="0 0 16 16" fill="none" xmlns="http://www.w3.org/2000/svg">
<g clip-path="url(#clip0_4559_24172)">
<path d="M10.6918 1.99992C11.7841 1.99992 12.6824 2.91992 12.6824 4.05325C12.6824 5.18659 11.7905 6.09992 10.6918 6.09992M13.7553 11.8266C14.6666 11.4133 14.6666 10.7199 14.6666 9.93992C14.6666 8.79325 13.2124 7.83325 11.3122 7.65992M9.08895 3.99992C9.08895 5.47325 7.93206 6.66658 6.50372 6.66658C5.07538 6.66658 3.91848 5.47325 3.91848 3.99992C3.91848 2.52659 5.07538 1.33325 6.50372 1.33325C7.93206 1.33325 9.08895 2.52659 9.08895 3.99992ZM11.6742 11.6666C11.6742 13.3266 11.6742 14.6666 6.50372 14.6666C1.33325 14.6666 1.33325 13.3266 1.33325 11.6666C1.33325 10.0066 3.64703 8.66659 6.50372 8.66659C9.3604 8.66659 11.6742 10.0066 11.6742 11.6666Z" stroke="#8E8E8E" stroke-linecap="round" stroke-linejoin="round"/>
</g>
<defs>
<clipPath id="clip0_4559_24172">
<rect width="16" height="16" fill="white"/>
</clipPath>
</defs>
</svg>
