<svg width="16" height="16" viewBox="0 0 16 16" fill="none" xmlns="http://www.w3.org/2000/svg">
<path d="M9.61694 0.5H6.80094C2.8838 0.5 0.925234 0.5 0.554653 1.68648C0.184071 2.87296 1.74432 4.17992 4.86481 6.79384C5.79256 7.57097 6.25643 7.95954 6.50438 8.5079C6.75234 9.05626 6.75234 9.69085 6.75234 10.96V14.0639C6.75234 14.5476 6.75234 14.7895 6.80723 14.9428C6.95042 15.3427 7.33884 15.5704 7.72424 15.4805C7.87199 15.446 8.05742 15.3128 8.42827 15.0466C8.79237 14.7852 8.97442 14.6544 9.12469 14.5009C9.50708 14.1103 9.76209 13.5946 9.85107 13.0319C9.88604 12.8108 9.88604 12.5734 9.88604 12.0985V10.7746C9.88604 9.5937 9.88604 9.00328 10.1042 8.48353C10.3224 7.96378 10.7323 7.57742 11.5523 6.8047L11.7201 6.64655C14.457 4.06746 15.8254 2.77791 15.4356 1.63895C15.0459 0.5 13.2363 0.5 9.61694 0.5Z" stroke="#424242" stroke-linecap="round"/>
</svg>
