<svg width="20" height="20" viewBox="0 0 20 20" fill="none" xmlns="http://www.w3.org/2000/svg">
<path d="M18.3337 9.99984C18.3337 14.6022 14.6027 18.3332 10.0003 18.3332C5.39795 18.3332 1.66699 14.6022 1.66699 9.99984C1.66699 5.39746 5.39795 1.6665 10.0003 1.6665C14.6027 1.6665 18.3337 5.39746 18.3337 9.99984Z" fill="#F2F7FF"/>
<path d="M13.3337 9.99984C13.3337 11.8408 11.8413 13.3332 10.0003 13.3332C8.15938 13.3332 6.66699 11.8408 6.66699 9.99984C6.66699 8.15889 8.15938 6.6665 10.0003 6.6665C11.8413 6.6665 13.3337 8.15889 13.3337 9.99984Z" fill="#F2F7FF"/>
<path d="M12.5003 7.49984L15.8337 4.1665M4.16699 15.8332L7.50033 12.4998M7.50033 7.49984L4.16699 4.1665M15.8337 15.8332L12.5003 12.4998M18.3337 9.99984C18.3337 14.6022 14.6027 18.3332 10.0003 18.3332C5.39795 18.3332 1.66699 14.6022 1.66699 9.99984C1.66699 5.39746 5.39795 1.6665 10.0003 1.6665C14.6027 1.6665 18.3337 5.39746 18.3337 9.99984ZM13.3337 9.99984C13.3337 11.8408 11.8413 13.3332 10.0003 13.3332C8.15938 13.3332 6.66699 11.8408 6.66699 9.99984C6.66699 8.15889 8.15938 6.6665 10.0003 6.6665C11.8413 6.6665 13.3337 8.15889 13.3337 9.99984Z" stroke="#626060" stroke-linecap="round"/>
</svg>
