<svg width="16" height="16" viewBox="0 0 16 16" fill="none" xmlns="http://www.w3.org/2000/svg">
<path d="M4.12129 7.03038L4.47485 7.38394L4.47485 7.38394L4.12129 7.03038ZM8.96978 11.8789L9.32333 12.2324L9.32333 12.2324L8.96978 11.8789ZM11.825 6.00682L11.4714 6.36037L11.4714 6.36037L11.825 6.00682ZM12.6827 7.0462L13.1525 6.87519L13.1525 6.87519L12.6827 7.0462ZM11.825 9.02365L11.4714 8.6701L11.4714 8.6701L11.825 9.02365ZM12.6827 7.98427L13.1525 8.15528L13.1525 8.15528L12.6827 7.98427ZM9.99335 4.17517L10.3469 3.82161L9.99335 4.17517ZM8.95396 3.31749L8.78295 3.78733L8.95396 3.31749ZM6.97651 4.17517L7.33007 4.52872L7.33007 4.52872L6.97651 4.17517ZM8.0159 3.31749L8.18691 3.78733L8.0159 3.31749ZM10.5556 4.73744C10.3604 4.9327 10.3604 5.24928 10.5556 5.44454C10.7509 5.63981 11.0675 5.63981 11.2627 5.44454L10.9092 5.09099L10.5556 4.73744ZM12.9799 4.9597C13.1751 5.15496 13.4917 5.15496 13.687 4.9597C13.8822 4.76443 13.8822 4.44785 13.687 4.25259L13.3334 4.60614L12.9799 4.9597ZM11.7476 2.31319C11.5523 2.11793 11.2357 2.11793 11.0405 2.31319C10.8452 2.50846 10.8452 2.82504 11.0405 3.0203L11.394 2.66675L11.7476 2.31319ZM2.31319 12.9799C2.11793 13.1751 2.11793 13.4917 2.31319 13.687C2.50846 13.8822 2.82504 13.8822 3.0203 13.687L2.66675 13.3334L2.31319 12.9799ZM11.0405 9.80818C11.2357 10.0034 11.5523 10.0034 11.7476 9.80818C11.9428 9.61292 11.9428 9.29634 11.7476 9.10107L11.394 9.45463L11.0405 9.80818ZM6.89909 4.25259C6.70383 4.05733 6.38725 4.05733 6.19198 4.25259C5.99672 4.44785 5.99672 4.76443 6.19198 4.9597L6.54554 4.60614L6.89909 4.25259ZM9.58592 11.2627C9.78118 11.458 10.0978 11.458 10.293 11.2627C10.4883 11.0675 10.4883 10.7509 10.293 10.5556L9.93948 10.9092L9.58592 11.2627ZM8.36945 8.63204C8.17419 8.43678 7.85761 8.43678 7.66234 8.63204C7.46708 8.8273 7.46708 9.14389 7.66234 9.33915L8.0159 8.98559L8.36945 8.63204ZM8.49501 12.3536C8.69027 12.5489 9.00686 12.5489 9.20212 12.3536C9.39738 12.1584 9.39738 11.8418 9.20212 11.6465L8.84857 12.0001L8.49501 12.3536ZM8.10483 10.5492C7.90957 10.354 7.59299 10.354 7.39772 10.5492C7.20246 10.7445 7.20246 11.0611 7.39772 11.2563L7.75128 10.9028L8.10483 10.5492ZM9.99335 4.17517L9.63979 4.52872L11.4714 6.36037L11.825 6.00682L12.1786 5.65326L10.3469 3.82161L9.99335 4.17517ZM11.825 9.02365L11.4714 8.6701L8.61622 11.5253L8.96978 11.8789L9.32333 12.2324L12.1786 9.3772L11.825 9.02365ZM4.12129 7.03038L4.47485 7.38394L7.33007 4.52872L6.97651 4.17517L6.62296 3.82161L3.76774 6.67683L4.12129 7.03038ZM4.12129 11.8789L4.47485 11.5253C3.33124 10.3817 3.33124 8.52755 4.47485 7.38394L4.12129 7.03038L3.76774 6.67683C2.23361 8.21097 2.23361 10.6983 3.76774 12.2324L4.12129 11.8789ZM8.96978 11.8789L8.61622 11.5253C7.47262 12.6689 5.61846 12.6689 4.47485 11.5253L4.12129 11.8789L3.76774 12.2324C5.30187 13.7666 7.7892 13.7666 9.32333 12.2324L8.96978 11.8789ZM11.825 6.00682L11.4714 6.36037C11.7281 6.61699 11.9006 6.79001 12.024 6.93365C12.144 7.07332 12.1901 7.15468 12.2128 7.21721L12.6827 7.0462L13.1525 6.87519C13.0713 6.65203 12.9397 6.46493 12.7825 6.28195C12.6287 6.10293 12.4244 5.89911 12.1785 5.65326L11.825 6.00682ZM11.825 9.02365L12.1786 9.3772C12.4244 9.13136 12.6287 8.92753 12.7825 8.74851C12.9397 8.56553 13.0713 8.37844 13.1525 8.15528L12.6827 7.98427L12.2128 7.81326C12.1901 7.87578 12.144 7.95715 12.024 8.09682C11.9006 8.24045 11.7281 8.41347 11.4714 8.6701L11.825 9.02365ZM12.6827 7.0462L12.2128 7.21721C12.2829 7.40972 12.2829 7.62075 12.2128 7.81326L12.6827 7.98427L13.1525 8.15528C13.303 7.74185 13.303 7.28862 13.1525 6.87519L12.6827 7.0462ZM9.99335 4.17517L10.3469 3.82161C10.1011 3.57577 9.89723 3.37147 9.71821 3.21765C9.53523 3.06043 9.34813 2.92886 9.12497 2.84764L8.95396 3.31749L8.78295 3.78733C8.84548 3.81009 8.92684 3.85613 9.06652 3.97614C9.21015 4.09955 9.38317 4.2721 9.63979 4.52872L9.99335 4.17517ZM6.97651 4.17517L7.33007 4.52872C7.58669 4.2721 7.75971 4.09955 7.90334 3.97614C8.04302 3.85613 8.12438 3.81009 8.18691 3.78733L8.0159 3.31749L7.84489 2.84764C7.62173 2.92886 7.43463 3.06043 7.25165 3.21765C7.07263 3.37147 6.8688 3.57577 6.62296 3.82161L6.97651 4.17517ZM8.95396 3.31749L9.12497 2.84764C8.71154 2.69716 8.25832 2.69716 7.84489 2.84764L8.0159 3.31749L8.18691 3.78733C8.37941 3.71727 8.59045 3.71727 8.78295 3.78733L8.95396 3.31749ZM10.9092 5.09099L11.2627 5.44454L12.7173 3.99L12.3637 3.63645L12.0102 3.28289L10.5556 4.73744L10.9092 5.09099ZM12.3637 3.63645L12.0102 3.99L12.9799 4.9597L13.3334 4.60614L13.687 4.25259L12.7173 3.28289L12.3637 3.63645ZM12.3637 3.63645L12.7173 3.28289L11.7476 2.31319L11.394 2.66675L11.0405 3.0203L12.0102 3.99L12.3637 3.63645ZM4.12129 11.8789L3.76774 11.5253L2.31319 12.9799L2.66675 13.3334L3.0203 13.687L4.47485 12.2324L4.12129 11.8789ZM11.394 9.45463L11.7476 9.10107L6.89909 4.25259L6.54554 4.60614L6.19198 4.9597L11.0405 9.80818L11.394 9.45463ZM9.93948 10.9092L10.293 10.5556L8.36945 8.63204L8.0159 8.98559L7.66234 9.33915L9.58592 11.2627L9.93948 10.9092ZM8.84857 12.0001L9.20212 11.6465L8.10483 10.5492L7.75128 10.9028L7.39772 11.2563L8.49501 12.3536L8.84857 12.0001Z" fill="#8E8E8E"/>
</svg>
