<svg width="129" height="27" viewBox="0 0 129 27" fill="none" xmlns="http://www.w3.org/2000/svg">
<path d="M7.42209 21.12C5.88736 21.12 4.56279 20.8175 3.44836 20.2125C2.3403 19.6012 1.48696 18.7319 0.888358 17.6048C0.296119 16.4712 0 15.1244 0 13.5642C0 12.0486 0.299303 10.724 0.89791 9.59045C1.49652 8.45055 2.3403 7.56537 3.42925 6.93492C4.51821 6.29811 5.80139 5.9797 7.2788 5.9797C8.32318 5.9797 9.27841 6.14209 10.1445 6.46686C11.0105 6.79164 11.7588 7.27244 12.3893 7.90925C13.0197 8.54607 13.51 9.33254 13.8603 10.2687C14.2105 11.1984 14.3857 12.2651 14.3857 13.4687V14.634H1.63343V11.9212H10.0394C10.033 11.4245 9.91522 10.9819 9.68597 10.5934C9.45671 10.205 9.14149 9.90249 8.7403 9.68597C8.34547 9.46308 7.89015 9.35164 7.37433 9.35164C6.85214 9.35164 6.38408 9.46945 5.97015 9.70507C5.55622 9.93433 5.22826 10.2496 4.98627 10.6507C4.74428 11.0456 4.61691 11.4945 4.60418 11.9976V14.7582C4.60418 15.3568 4.72199 15.8822 4.95761 16.3343C5.19323 16.7801 5.52756 17.1272 5.9606 17.3755C6.39363 17.6239 6.90945 17.7481 7.50806 17.7481C7.92199 17.7481 8.29771 17.6907 8.63522 17.5761C8.97273 17.4615 9.26249 17.2927 9.50448 17.0698C9.74647 16.847 9.92796 16.5731 10.049 16.2484L14.3379 16.3725C14.1596 17.3341 13.768 18.1715 13.163 18.8848C12.5644 19.5916 11.7779 20.1425 10.8036 20.5373C9.82925 20.9258 8.70209 21.12 7.42209 21.12Z" fill="#0D47A1"/>
<path d="M34.5289 8.36776H29.7528C29.6891 7.87741 29.5586 7.43482 29.3612 7.04C29.1638 6.64517 28.9027 6.30766 28.5779 6.02746C28.2531 5.74726 27.8679 5.53393 27.4221 5.38746C26.9827 5.23463 26.4955 5.15821 25.9606 5.15821C25.0117 5.15821 24.1934 5.39065 23.5057 5.85552C22.8243 6.3204 22.2989 6.99224 21.9295 7.87104C21.5666 8.74985 21.3851 9.81333 21.3851 11.0615C21.3851 12.3606 21.5697 13.4495 21.9391 14.3284C22.3148 15.2008 22.8402 15.8599 23.5152 16.3057C24.1966 16.7451 25.0022 16.9648 25.9319 16.9648C26.4541 16.9648 26.9286 16.8979 27.3552 16.7642C27.7883 16.6304 28.1672 16.4362 28.4919 16.1815C28.8231 15.9204 29.0937 15.6052 29.3039 15.2358C29.5204 14.8601 29.67 14.4366 29.7528 13.9654L34.5289 13.994C34.4462 14.8601 34.1946 15.7134 33.7743 16.554C33.3604 17.3946 32.7904 18.162 32.0645 18.8561C31.3385 19.5439 30.4533 20.0915 29.4089 20.4991C28.3709 20.9067 27.1801 21.1104 25.8364 21.1104C24.0661 21.1104 22.4804 20.722 21.0794 19.9451C19.6848 19.1618 18.5831 18.0219 17.7743 16.5254C16.9656 15.0289 16.5612 13.2076 16.5612 11.0615C16.5612 8.90905 16.9719 7.08458 17.7934 5.58806C18.6149 4.09154 19.7262 2.95483 21.1272 2.17791C22.5282 1.401 24.0979 1.01254 25.8364 1.01254C27.0209 1.01254 28.1162 1.17811 29.1224 1.50925C30.1285 1.83403 31.0137 2.31164 31.7779 2.94209C32.5421 3.56617 33.163 4.33353 33.6406 5.24418C34.1182 6.15483 34.4143 7.19602 34.5289 8.36776Z" fill="#0D47A1"/>
<path d="M41.9057 1.28V20.843H37.2346V1.28H41.9057Z" fill="#0D47A1"/>
<path d="M44.8788 20.843V6.17075H49.5498V20.843H44.8788ZM47.2191 4.4609C46.5632 4.4609 45.9996 4.24438 45.5283 3.81134C45.0571 3.37194 44.8215 2.84338 44.8215 2.22567C44.8215 1.61433 45.0571 1.09214 45.5283 0.659105C45.9996 0.219702 46.5632 0 47.2191 0C47.8814 0 48.445 0.219702 48.9098 0.659105C49.3811 1.09214 49.6167 1.61433 49.6167 2.22567C49.6167 2.84338 49.3811 3.37194 48.9098 3.81134C48.445 4.24438 47.8814 4.4609 47.2191 4.4609Z" fill="#0D47A1"/>
<path d="M57.194 12.4752V20.843H52.523V6.17075H56.9648V8.86448H57.1271C57.4519 7.96657 58.006 7.26288 58.7892 6.75343C59.5725 6.23761 60.5055 5.9797 61.588 5.9797C62.6197 5.9797 63.5144 6.21214 64.2722 6.67701C65.0364 7.13552 65.6286 7.7787 66.0489 8.60657C66.4756 9.42806 66.6858 10.3897 66.6794 11.4913V20.843H62.0083V12.4084C62.0147 11.5932 61.8077 10.9564 61.3874 10.4979C60.9735 10.0394 60.3972 9.81015 59.6585 9.81015C59.1681 9.81015 58.7351 9.91841 58.3594 10.1349C57.99 10.3451 57.7035 10.6476 57.4997 11.0424C57.3023 11.4372 57.2004 11.9148 57.194 12.4752Z" fill="#0D47A1"/>
<path d="M69.5713 20.843V6.17075H74.2424V20.843H69.5713ZM71.9116 4.4609C71.2557 4.4609 70.6921 4.24438 70.2209 3.81134C69.7496 3.37194 69.514 2.84338 69.514 2.22567C69.514 1.61433 69.7496 1.09214 70.2209 0.659105C70.6921 0.219702 71.2557 0 71.9116 0C72.5739 0 73.1375 0.219702 73.6024 0.659105C74.0736 1.09214 74.3092 1.61433 74.3092 2.22567C74.3092 2.84338 74.0736 3.37194 73.6024 3.81134C73.1375 4.24438 72.5739 4.4609 71.9116 4.4609Z" fill="#0D47A1"/>
<path d="M84.0645 21.12C82.517 21.12 81.1892 20.8016 80.0812 20.1648C78.9795 19.528 78.1325 18.6428 77.5403 17.5092C76.948 16.3694 76.6519 15.0511 76.6519 13.5546C76.6519 12.0517 76.948 10.7335 77.5403 9.6C78.1389 8.4601 78.989 7.57174 80.0907 6.93492C81.1988 6.29811 82.5202 5.9797 84.0549 5.9797C85.4113 5.9797 86.5926 6.22488 87.5988 6.71522C88.6113 7.20557 89.401 7.8997 89.9677 8.79761C90.5409 9.68915 90.8434 10.7367 90.8752 11.9403H86.5098C86.4207 11.1889 86.1659 10.5998 85.7456 10.1731C85.3317 9.74647 84.7904 9.53313 84.1218 9.53313C83.5805 9.53313 83.106 9.68597 82.6985 9.99164C82.2909 10.2909 81.9725 10.7367 81.7433 11.329C81.5204 11.9148 81.4089 12.6408 81.4089 13.5069C81.4089 14.3729 81.5204 15.1053 81.7433 15.7039C81.9725 16.2961 82.2909 16.7451 82.6985 17.0507C83.106 17.35 83.5805 17.4997 84.1218 17.4997C84.5548 17.4997 84.9369 17.4074 85.268 17.2227C85.6056 17.038 85.8826 16.7674 86.0991 16.4107C86.3156 16.0478 86.4525 15.6084 86.5098 15.0925H90.8752C90.8306 16.3025 90.5281 17.3596 89.9677 18.2639C89.4137 19.1682 88.6336 19.8718 87.6274 20.3749C86.6276 20.8716 85.44 21.12 84.0645 21.12Z" fill="#0D47A1"/>
<path d="M102.656 11.1284V14.7295H93.6V11.1284H102.656Z" fill="#0D47A1"/>
<path d="M114.109 1.90039C115.86 1.90046 117.44 2.28867 118.847 3.06543C120.26 3.84229 121.381 4.97924 122.209 6.47559C123.037 7.97207 123.451 9.79684 123.451 11.9492C123.451 13.1965 123.31 14.3333 123.032 15.3604C122.252 14.0828 120.846 13.2295 119.239 13.2295C119.002 13.2295 118.769 13.2484 118.542 13.2842C118.592 12.8663 118.617 12.4213 118.617 11.9492C118.617 10.6757 118.436 9.59947 118.073 8.7207C117.717 7.8419 117.2 7.17675 116.525 6.72461C115.857 6.27255 115.052 6.04597 114.109 6.0459C113.173 6.0459 112.367 6.27247 111.692 6.72461C111.017 7.17675 110.498 7.84191 110.135 8.7207C109.778 9.59945 109.601 10.6757 109.601 11.9492C109.601 13.2227 109.778 14.299 110.135 15.1777C110.498 16.0565 111.017 16.7227 111.692 17.1748C112.367 17.6268 113.173 17.8525 114.109 17.8525C114.349 17.8525 114.58 17.8369 114.802 17.8076C114.851 19.4302 115.769 20.8336 117.108 21.5674C116.172 21.8538 115.173 21.998 114.109 21.998C112.352 21.998 110.769 21.6065 109.361 20.8232C107.954 20.04 106.837 18.9032 106.009 17.4131C105.187 15.9166 104.776 14.0953 104.776 11.9492C104.776 9.79684 105.187 7.97207 106.009 6.47559C106.837 4.97923 107.954 3.84229 109.361 3.06543C110.769 2.28853 112.352 1.90039 114.109 1.90039Z" fill="#0D47A1"/>
<circle opacity="0.4" cx="116.174" cy="14.4775" r="2.42128" transform="rotate(-45 116.174 14.4775)" fill="#0D47A1"/>
<circle cx="120.821" cy="19.124" r="3.45897" transform="rotate(-45 120.821 19.124)" fill="#0D47A1"/>
<circle opacity="0.4" cx="124.98" cy="23.2822" r="1.72948" transform="rotate(-45 124.98 23.2822)" fill="#0D47A1"/>
</svg>
