<svg width="15" height="15" viewBox="0 0 15 15" fill="none" xmlns="http://www.w3.org/2000/svg">
<path d="M0.5 3.16667C0.5 1.90959 0.5 1.28105 0.890524 0.890524C1.28105 0.5 1.90959 0.5 3.16667 0.5C4.42375 0.5 5.05228 0.5 5.44281 0.890524C5.83333 1.28105 5.83333 1.90959 5.83333 3.16667V11.1667C5.83333 12.4237 5.83333 13.0523 5.44281 13.4428C5.05228 13.8333 4.42375 13.8333 3.16667 13.8333C1.90959 13.8333 1.28105 13.8333 0.890524 13.4428C0.5 13.0523 0.5 12.4237 0.5 11.1667V3.16667Z" stroke="#D92D20"/>
<path d="M8.5 3.16667C8.5 1.90959 8.5 1.28105 8.89052 0.890524C9.28105 0.5 9.90959 0.5 11.1667 0.5C12.4237 0.5 13.0523 0.5 13.4428 0.890524C13.8333 1.28105 13.8333 1.90959 13.8333 3.16667V11.1667C13.8333 12.4237 13.8333 13.0523 13.4428 13.4428C13.0523 13.8333 12.4237 13.8333 11.1667 13.8333C9.90959 13.8333 9.28105 13.8333 8.89052 13.4428C8.5 13.0523 8.5 12.4237 8.5 11.1667V3.16667Z" stroke="#D92D20"/>
</svg>
