<svg width="19" height="19" viewBox="0 0 19 19" fill="none" xmlns="http://www.w3.org/2000/svg">
<path d="M9.49995 5.95V9.95M10.746 0.958793L11.967 1.99929C12.2746 2.26143 12.6566 2.41991 13.0594 2.45206L14.6585 2.5795C15.5986 2.65452 16.3453 3.4008 16.4204 4.34093L16.5475 5.94024C16.5797 6.3431 16.7387 6.72559 17.0008 7.03319L18.0409 8.25382C18.6526 8.97164 18.6527 10.0275 18.041 10.7454L17.0009 11.9662C16.7388 12.2738 16.58 12.6564 16.5478 13.0593L16.4199 14.6583C16.3449 15.5984 15.5993 16.3452 14.6591 16.4202L13.0595 16.5478C12.6567 16.58 12.2744 16.7381 11.9667 17.0002L10.746 18.0407C10.0282 18.6525 8.97168 18.6526 8.25386 18.0409L7.03316 17.0003C6.72555 16.7382 6.34325 16.5798 5.94038 16.5477L4.34077 16.4202C3.40064 16.3452 2.65505 15.5986 2.58003 14.6585L2.4521 13.0594C2.41995 12.6565 2.26111 12.2742 1.99898 11.9666L0.958937 10.7454C0.347212 10.0276 0.346926 8.97203 0.95865 8.2542L1.99963 7.03301C2.26176 6.72541 2.41908 6.34311 2.45122 5.94024L2.57915 4.34112C2.65417 3.40099 3.40192 2.65442 4.34205 2.5794L5.93989 2.45196C6.34276 2.41981 6.72525 2.26146 7.03285 1.99932L8.25396 0.958793C8.97178 0.347069 10.0282 0.347069 10.746 0.958793ZM9.54976 12.95V13.05L9.45015 13.0496V12.95H9.54976Z" stroke="#F04248" stroke-linecap="round" stroke-linejoin="round"/>
</svg>
