<svg width="16" height="16" viewBox="0 0 16 16" fill="none" xmlns="http://www.w3.org/2000/svg">
<path d="M3.29862 7.60418L2.86311 7.35855L2.86311 7.35855L3.29862 7.60418ZM12.7012 7.60418L12.2657 7.84981L12.2657 7.84981L12.7012 7.60418ZM12.4588 7.17432L12.8943 6.9287L12.8943 6.9287L12.4588 7.17432ZM3.54106 7.17433L3.97657 7.41996L3.97657 7.41996L3.54106 7.17433ZM7.99992 2L7.99992 2.5L7.99992 2ZM7.49992 11.3333C7.49992 11.6095 7.72378 11.8333 7.99992 11.8333C8.27606 11.8333 8.49992 11.6095 8.49992 11.3333H7.99992H7.49992ZM8.49992 11C8.49992 10.7239 8.27606 10.5 7.99992 10.5C7.72378 10.5 7.49992 10.7239 7.49992 11H7.99992H8.49992ZM7.49992 9.33333C7.49992 9.60948 7.72378 9.83333 7.99992 9.83333C8.27606 9.83333 8.49992 9.60948 8.49992 9.33333H7.99992H7.49992ZM8.49992 5.33333C8.49992 5.05719 8.27606 4.83333 7.99992 4.83333C7.72378 4.83333 7.49992 5.05719 7.49992 5.33333H7.99992H8.49992ZM12.4588 7.17432L12.0233 7.41995L12.2657 7.84981L12.7012 7.60418L13.1367 7.35855L12.8943 6.9287L12.4588 7.17432ZM8.24236 14V13.5H7.75748V14V14.5H8.24236V14ZM3.29862 7.60418L3.73413 7.84981L3.97657 7.41996L3.54106 7.17433L3.10555 6.9287L2.86311 7.35855L3.29862 7.60418ZM7.75748 14V13.5C5.935 13.5 4.61899 13.499 3.66433 13.3733C2.70575 13.2471 2.25461 13.0108 2.01425 12.6661L1.60409 12.952L1.19393 13.238C1.68418 13.9412 2.50214 14.2289 3.53381 14.3647C4.56939 14.501 5.96477 14.5 7.75748 14.5V14ZM3.29862 7.60418L2.86311 7.35855C2.06384 8.77569 1.43219 9.8924 1.10202 10.7869C0.768055 11.6917 0.688719 12.5133 1.19393 13.238L1.60409 12.952L2.01425 12.6661C1.78885 12.3427 1.7484 11.9236 2.04016 11.1332C2.33572 10.3324 2.91664 9.29923 3.73413 7.84981L3.29862 7.60418ZM12.7012 7.60418L12.2657 7.84981C13.0832 9.29922 13.6641 10.3324 13.9597 11.1332C14.2514 11.9236 14.211 12.3427 13.9856 12.6661L14.3957 12.952L14.8059 13.238C15.3111 12.5133 15.2318 11.6917 14.8978 10.7869C14.5676 9.8924 13.936 8.77569 13.1367 7.35855L12.7012 7.60418ZM8.24236 14V14.5C10.0351 14.5 11.4304 14.501 12.466 14.3647C13.4977 14.2289 14.3157 13.9412 14.8059 13.238L14.3957 12.952L13.9856 12.6661C13.7452 13.0108 13.2941 13.2471 12.3355 13.3733C11.3808 13.499 10.0648 13.5 8.24236 13.5V14ZM12.4588 7.17432L12.8943 6.9287C11.9301 5.21919 11.1789 3.88429 10.4703 2.98429C9.7557 2.07662 8.99869 1.5 7.99992 1.5L7.99992 2L7.99992 2.5C8.54164 2.5 9.04128 2.78577 9.68459 3.60288C10.3339 4.42765 11.0419 5.67991 12.0233 7.41995L12.4588 7.17432ZM3.54106 7.17433L3.97657 7.41996C4.95796 5.67992 5.66591 4.42765 6.31525 3.60288C6.95856 2.78577 7.45819 2.5 7.99992 2.5L7.99992 2L7.99992 1.5C7.00115 1.5 6.24414 2.07662 5.52954 2.98429C4.82097 3.88429 4.06973 5.21919 3.10555 6.9287L3.54106 7.17433ZM7.99992 11.3333H8.49992V11H7.99992H7.49992V11.3333H7.99992ZM7.99992 9.33333H8.49992V5.33333H7.99992H7.49992V9.33333H7.99992Z" fill="#2372EC"/>
</svg>
