<svg width="48" height="48" viewBox="0 0 48 48" fill="none" xmlns="http://www.w3.org/2000/svg">
<rect x="0.25" y="0.25" width="47.5" height="47.5" rx="23.75" fill="#F9F9F9"/>
<rect x="0.25" y="0.25" width="47.5" height="47.5" rx="23.75" stroke="#D6D6D6" stroke-width="0.5"/>
<path d="M32.3417 16.5237L32.6997 16.1747V16.1747L32.3417 16.5237ZM32.9208 22.9742C32.9208 23.2504 33.1447 23.4742 33.4208 23.4742C33.697 23.4742 33.9208 23.2504 33.9208 22.9742H33.4208H32.9208ZM16.0791 16.5237L15.7211 16.1747L16.0791 16.5237ZM19.1052 15.417C19.1052 15.6931 19.3291 15.917 19.6052 15.917C19.8813 15.917 20.1052 15.6931 20.1052 15.417H19.6052H19.1052ZM20.1052 14C20.1052 13.7239 19.8813 13.5 19.6052 13.5C19.3291 13.5 19.1052 13.7239 19.1052 14H19.6052H20.1052ZM28.3156 15.417C28.3156 15.6931 28.5395 15.917 28.8156 15.917C29.0917 15.917 29.3156 15.6931 29.3156 15.417H28.8156H28.3156ZM29.3156 14C29.3156 13.7239 29.0917 13.5 28.8156 13.5C28.5395 13.5 28.3156 13.7239 28.3156 14H28.8156H29.3156ZM15.4605 19.6403C15.1844 19.6403 14.9605 19.8641 14.9605 20.1403C14.9605 20.4164 15.1844 20.6403 15.4605 20.6403V20.1403V19.6403ZM32.9603 20.6403C33.2364 20.6403 33.4603 20.4164 33.4603 20.1403C33.4603 19.8641 33.2364 19.6403 32.9603 19.6403V20.1403V20.6403ZM23.5 32.9208C23.7761 32.9208 24 32.697 24 32.4208C24 32.1447 23.7761 31.9208 23.5 31.9208V32.4208V32.9208ZM29 29.4999H28.5C28.5 29.6325 28.5527 29.7597 28.6464 29.8534L29 29.4999ZM29.5 27.4999C29.5 27.2237 29.2761 26.9999 29 26.9999C28.7239 26.9999 28.5 27.2237 28.5 27.4999H29H29.5ZM29.8964 31.1034C30.0917 31.2987 30.4083 31.2987 30.6036 31.1034C30.7988 30.9082 30.7988 30.5916 30.6036 30.3963L30.25 30.7499L29.8964 31.1034ZM24.485 24.8259C24.2508 24.9722 24.1796 25.2807 24.326 25.5149C24.4724 25.7491 24.7808 25.8202 25.015 25.6739L24.75 25.2499L24.485 24.8259ZM27.015 24.4239C27.2492 24.2775 27.3204 23.9691 27.174 23.7349C27.0277 23.5007 26.7192 23.4295 26.485 23.5759L26.75 23.9999L27.015 24.4239ZM32.985 25.6739C33.2192 25.8202 33.5276 25.7491 33.674 25.5149C33.8204 25.2807 33.7492 24.9722 33.515 24.8259L33.25 25.2499L32.985 25.6739ZM31.515 23.5759C31.2808 23.4295 30.9724 23.5007 30.826 23.7349C30.6796 23.9691 30.7508 24.2775 30.985 24.4239L31.25 23.9999L31.515 23.5759ZM22.3683 15.417V15.917H26.0525V15.417V14.917H22.3683V15.417ZM15 24.8636H15.5V22.9742H15H14.5V24.8636H15ZM22.3683 32.4208V31.9208C20.6171 31.9208 19.3553 31.9197 18.3941 31.7872C17.4486 31.6568 16.8688 31.4078 16.4371 30.965L16.0791 31.3141L15.7211 31.6631C16.3684 32.3271 17.1965 32.6315 18.2575 32.7778C19.3028 32.9219 20.6461 32.9208 22.3683 32.9208V32.4208ZM15 24.8636H14.5C14.5 26.631 14.499 28.0057 14.6391 29.0747C14.781 30.1569 15.0754 31.0009 15.7211 31.6631L16.0791 31.3141L16.4371 30.965C16.0036 30.5205 15.7586 29.9205 15.6306 28.9447C15.501 27.9558 15.5 26.6586 15.5 24.8636H15ZM26.0525 15.417V15.917C27.8037 15.917 29.0655 15.9181 30.0267 16.0506C30.9722 16.181 31.552 16.43 31.9837 16.8728L32.3417 16.5237L32.6997 16.1747C32.0524 15.5107 31.2244 15.2063 30.1633 15.06C29.118 14.9159 27.7747 14.917 26.0525 14.917V15.417ZM33.4208 22.9742H33.9208C33.9208 21.2068 33.9218 19.8321 33.7817 18.7631C33.6398 17.6809 33.3454 16.8369 32.6997 16.1747L32.3417 16.5237L31.9837 16.8728C32.4172 17.3173 32.6623 17.9172 32.7902 18.893C32.9198 19.882 32.9208 21.1792 32.9208 22.9742H33.4208ZM22.3683 15.417V14.917C20.6461 14.917 19.3028 14.9159 18.2575 15.06C17.1965 15.2063 16.3684 15.5107 15.7211 16.1747L16.0791 16.5237L16.4371 16.8728C16.8688 16.43 17.4486 16.181 18.3941 16.0506C19.3553 15.9181 20.6171 15.917 22.3683 15.917V15.417ZM15 22.9742H15.5C15.5 21.1792 15.501 19.882 15.6306 18.893C15.7586 17.9172 16.0036 17.3173 16.4371 16.8728L16.0791 16.5237L15.7211 16.1747C15.0754 16.8369 14.781 17.6809 14.6391 18.7631C14.499 19.8321 14.5 21.2068 14.5 22.9742H15ZM19.6052 15.417H20.1052V14H19.6052H19.1052V15.417H19.6052ZM28.8156 15.417H29.3156V14H28.8156H28.3156V15.417H28.8156ZM15.4605 20.1403V20.6403H32.9603V20.1403V19.6403H15.4605V20.1403ZM22.3683 32.4208V32.9208H23.5V32.4208V31.9208H22.3683V32.4208ZM33.5 29.4999H33C33 31.709 31.2091 33.4999 29 33.4999V33.9999V34.4999C31.7614 34.4999 34 32.2613 34 29.4999H33.5ZM29 33.9999V33.4999C26.7909 33.4999 25 31.709 25 29.4999H24.5H24C24 32.2613 26.2386 34.4999 29 34.4999V33.9999ZM24.5 29.4999H25C25 27.2908 26.7909 25.4999 29 25.4999V24.9999V24.4999C26.2386 24.4999 24 26.7385 24 29.4999H24.5ZM29 24.9999V25.4999C31.2091 25.4999 33 27.2908 33 29.4999H33.5H34C34 26.7385 31.7614 24.4999 29 24.4999V24.9999ZM29 29.4999H29.5V27.4999H29H28.5V29.4999H29ZM29 29.4999L28.6464 29.8534L29.8964 31.1034L30.25 30.7499L30.6036 30.3963L29.3536 29.1463L29 29.4999ZM24.75 25.2499L25.015 25.6739L27.015 24.4239L26.75 23.9999L26.485 23.5759L24.485 24.8259L24.75 25.2499ZM33.25 25.2499L33.515 24.8259L31.515 23.5759L31.25 23.9999L30.985 24.4239L32.985 25.6739L33.25 25.2499Z" fill="#424242"/>
</svg>
