<svg width="600" height="405" viewBox="0 0 600 405" fill="none" xmlns="http://www.w3.org/2000/svg">
<path d="M451.641 347.532C498.928 342.6 543.197 328.202 577.017 285.129C602.673 252.453 604.712 205.983 590.642 167.907C563.118 93.4312 458.755 77.0829 386.581 42.1538C346.788 22.8951 303.345 -9.80629 255.651 2.82512C217.226 12.9945 195.146 46.3108 171.26 72.047C126.767 119.988 44.7461 173.601 23.7619 200.119C-9.63865 242.326 -7.61943 303.575 28.5055 344.019C64.6305 384.463 131.951 400.841 186.669 382.499C231.275 367.547 277.349 348.124 326.005 348.209C367.521 348.28 411.287 351.741 451.641 347.532Z" fill="white" fill-opacity="0.12"/>
<path d="M500.866 371.864H335.544C327.051 371.864 320.166 364.74 320.166 355.95V51.0009C320.166 42.2115 327.052 35.0869 335.544 35.0869H500.866C509.36 35.0869 516.244 42.2124 516.244 51.0009V355.95C516.245 364.74 509.36 371.864 500.866 371.864Z" fill="#D6D6D6"/>
<path d="M487.794 371.864H335.544C327.051 371.864 320.166 364.74 320.166 355.95V51.0009C320.166 42.2115 327.052 35.0869 335.544 35.0869H487.794C496.288 35.0869 503.173 42.2124 503.173 51.0009V355.95C503.173 364.74 496.287 371.864 487.794 371.864Z" fill="#0E4395"/>
<path d="M487.794 43.043H449.475V53.0421C449.475 55.6785 447.41 57.8168 444.861 57.8168H378.476C375.928 57.8168 373.861 55.6794 373.861 53.0421V43.043H335.543C331.296 43.043 327.854 46.6052 327.854 50.9999V355.949C327.854 360.344 331.296 363.906 335.543 363.906H487.793C492.04 363.906 495.482 360.344 495.482 355.949V50.9999C495.483 46.6052 492.04 43.043 487.794 43.043Z" fill="white"/>
<path d="M408.433 46.7027C408.433 44.9444 409.81 43.5195 411.509 43.5195C413.208 43.5195 414.585 44.9444 414.585 46.7027C414.585 48.4609 413.208 49.8858 411.509 49.8858C409.81 49.8858 408.433 48.4609 408.433 46.7027Z" fill="white"/>
<path d="M371.929 248.285H350.717C349.025 248.285 347.641 246.852 347.641 245.101V225.474C347.641 223.723 349.025 222.291 350.717 222.291H371.929C373.621 222.291 375.005 223.723 375.005 225.474V245.101C375.004 246.852 373.62 248.285 371.929 248.285Z" stroke="#96BFFF" stroke-width="2.02936" stroke-miterlimit="10"/>
<path d="M354.724 218.313V226.801" stroke="#96BFFF" stroke-width="2.02936" stroke-miterlimit="10" stroke-linecap="round" stroke-linejoin="round"/>
<path d="M367.922 218.313V226.801" stroke="#96BFFF" stroke-width="2.02936" stroke-miterlimit="10" stroke-linecap="round" stroke-linejoin="round"/>
<path d="M347.643 231.906H375.005" stroke="#96BFFF" stroke-width="2.02936" stroke-miterlimit="10"/>
<path d="M361.322 295.923C368.966 295.923 375.163 289.51 375.163 281.6C375.163 273.689 368.966 267.276 361.322 267.276C353.677 267.276 347.48 273.689 347.48 281.6C347.48 289.51 353.677 295.923 361.322 295.923Z" stroke="#96BFFF" stroke-width="2.02936" stroke-miterlimit="10"/>
<path d="M361.163 274.04V281.599L367.763 286.572" stroke="#96BFFF" stroke-width="2.02936" stroke-miterlimit="10" stroke-linecap="round"/>
<path d="M361.321 267.276V269.862" stroke="#96BFFF" stroke-width="2.02936" stroke-miterlimit="10" stroke-linecap="round"/>
<path d="M361.321 293.336V295.922" stroke="#96BFFF" stroke-width="2.02936" stroke-miterlimit="10" stroke-linecap="round"/>
<path d="M375.163 281.6H372.664" stroke="#96BFFF" stroke-width="2.02936" stroke-miterlimit="10" stroke-linecap="round"/>
<path d="M349.98 281.6H347.48" stroke="#96BFFF" stroke-width="2.02936" stroke-miterlimit="10" stroke-linecap="round"/>
<path d="M374.594 325.41C374.594 332.995 361.322 347.75 361.322 347.75C361.322 347.75 348.051 332.995 348.051 325.41C348.051 317.825 353.993 311.677 361.322 311.677C368.652 311.677 374.594 317.825 374.594 325.41Z" stroke="#96BFFF" stroke-width="2.02936" stroke-miterlimit="10" stroke-linecap="round"/>
<path d="M355.438 325.869C355.438 322.506 358.073 319.78 361.322 319.78C364.571 319.78 367.205 322.506 367.205 325.869C367.205 329.232 364.571 331.957 361.322 331.957C358.072 331.957 355.438 329.232 355.438 325.869Z" stroke="#96BFFF" stroke-width="2.02936" stroke-miterlimit="10" stroke-linecap="round"/>
<path d="M396.419 226.8H432.944" stroke="#96BFFF" stroke-width="10.1468" stroke-miterlimit="10"/>
<path d="M396.419 244.571H472.928" stroke="#96BFFF" stroke-width="10.1468" stroke-miterlimit="10"/>
<path d="M396.419 274.936H432.944" stroke="#96BFFF" stroke-width="10.1468" stroke-miterlimit="10"/>
<path d="M396.419 292.706H472.928" stroke="#96BFFF" stroke-width="10.1468" stroke-miterlimit="10"/>
<path d="M396.419 323.071H432.944" stroke="#96BFFF" stroke-width="10.1468" stroke-miterlimit="10"/>
<path d="M396.419 340.842H472.928" stroke="#96BFFF" stroke-width="10.1468" stroke-miterlimit="10"/>
<g filter="url(#filter0_d_3065_42104)">
<path d="M368.189 114.913C359.683 114.071 356.44 105.111 361.355 98.3098C364.312 94.2191 367.619 90.0277 365.85 84.6495C364.391 80.2118 363.13 75.8757 364.866 71.2191C368.252 62.1367 382.806 61.3647 390.277 64.4041C394.393 66.078 397.457 68.459 399.621 72.4755C401.356 75.6944 400.858 79.0534 402.231 82.2255C404.647 87.807 410.976 86.97 415.791 86.7741C421.653 86.536 428.41 87.59 432.398 92.4526C439.324 100.898 438.096 113.499 430.601 121.011C422.497 129.135 410.867 130.536 400.057 129.892C393.407 129.496 385.882 126.781 380.797 122.24C377.426 119.231 377.511 115.74 368.189 114.913Z" fill="#0D47A1"/>
<path d="M383.543 130.27C391.963 130.27 398.788 123.973 398.788 116.205C398.788 108.437 391.963 102.14 383.543 102.14C375.123 102.14 368.297 108.437 368.297 116.205C368.297 123.973 375.123 130.27 383.543 130.27Z" fill="white"/>
<path d="M437.439 196.654H340.363V135.249C340.363 125.132 347.06 116.333 356.563 113.962L377.999 108.802H389.089L420.093 114.716C430.141 116.62 437.439 125.683 437.439 136.254V196.654Z" fill="#2372EC"/>
<path d="M345.718 120.716L345.717 120.702C345.717 120.702 345.68 120.752 345.616 120.84C344.797 121.808 344.063 122.85 343.42 123.953C336.752 133.66 317.406 163.831 310.354 196.658H340.366H352.678H378.002V108.806L356.566 113.966C352.244 115.043 348.513 117.46 345.718 120.716Z" fill="white"/>
<path d="M449.337 150.47C442.961 136.469 437.46 128.16 433.292 123.242C431.758 121.096 429.851 119.242 427.654 117.793C425.8 116.441 424.784 116.207 424.784 116.207C423.307 115.536 421.738 115.03 420.093 114.718L389.089 108.804V196.656H424.784H437.44H462.124C462.124 196.656 463.899 182.445 449.337 150.47Z" fill="white"/>
<path d="M389.089 113.921L383.544 120.7L377.999 113.921V96.2656H389.089V113.921Z" fill="#FFA08B"/>
<path d="M377.999 101.853C379.564 102.761 381.295 103.269 383.118 103.269C385.277 103.269 387.309 102.559 389.089 101.309V96.2656H377.999V101.853Z" fill="#FA7C60"/>
<path d="M395.998 87.1644C395.998 87.1644 394.923 87.1744 393.847 87.1863C391.378 87.2147 388.924 86.5243 386.902 85.0581C382.514 81.8768 382.035 77.0215 382.035 77.0215L372.733 82.5838C372.724 82.5993 372.717 82.6122 372.708 82.6277V89.4482C372.708 95.1103 376.75 100.05 382.194 100.623C387.993 101.234 392.986 96.9135 393.752 91.2413C393.79 91.2431 393.826 91.2532 393.865 91.2532C395.275 91.2532 396.418 90.07 396.418 88.6113C396.418 88.0765 396.262 87.5801 395.998 87.1644Z" fill="#FFA08B"/>
<path d="M397.421 110.392L408.791 136.871L403.399 148.387L408.791 154.512L398.79 196.655" stroke="#F2F7FF" stroke-width="1.01468" stroke-miterlimit="10" stroke-linecap="round"/>
<path d="M369.393 110.875L358.229 136.871L363.621 148.388L358.229 154.512L368.231 196.655" stroke="#F2F7FF" stroke-width="1.01468" stroke-miterlimit="10" stroke-linecap="round"/>
<path d="M391.622 196.656L372.215 179.699L384.562 156.432C384.562 156.432 424.119 168.235 437.437 182.445L447.027 196.656H391.622Z" fill="white"/>
<path d="M411.509 166.447C411.509 166.447 431.046 173.264 437.439 178.655C437.439 178.655 434.124 170.071 426.074 167.253C418.025 164.434 411.509 166.447 411.509 166.447Z" fill="#F2F7FF"/>
<path d="M354.763 177.719C353.711 177.492 353.03 176.416 353.249 175.328L361.02 136.709C361.238 135.62 362.278 134.916 363.33 135.142C364.383 135.368 365.063 136.444 364.844 137.533L357.074 176.152C356.855 177.24 355.815 177.945 354.763 177.719Z" fill="#0E4395"/>
<path d="M369.392 150.47C369.392 150.47 359.394 145.968 357.441 147.898C356.408 148.918 358.139 151.069 359.999 152.869C353.282 154.42 345.406 157.184 345.277 158.923C345.099 161.313 353.268 160.21 353.268 160.21C353.268 160.21 343.1 161.889 343.915 165.172C344.447 167.315 357.352 165.752 357.352 165.752C357.352 165.752 356.194 170.072 359.897 173.563C363.645 177.097 372.709 178.77 372.709 178.77L384.563 156.431C384.563 156.431 375.02 152.729 369.392 150.47Z" fill="#FFA08B"/>
<path d="M372.71 178.769L379.782 154.568L384.565 156.431L372.71 178.769Z" fill="#FA7C60"/>
<path d="M364.216 196.655H319.585L310.351 150.47H354.982L364.216 196.655Z" fill="#96BFFF"/>
<path d="M309.966 196.654C309.966 196.654 304.617 179.065 308.984 171.517C311.983 166.331 327.365 163.633 327.63 166.371C327.786 167.979 320.793 171.677 320.793 171.677C320.793 171.677 330.82 168.93 330.893 172.481C330.926 174.089 322.113 177.144 322.113 177.144C322.113 177.144 329.442 177.127 329.572 179.556C329.65 181.003 323.357 182.37 323.357 182.37C323.357 182.37 326.697 191.723 323.589 196.654H309.966Z" fill="#FFA08B"/>
<path d="M401.474 154.064V140.415C401.474 134.703 405.989 130.03 411.509 130.03C417.028 130.03 421.544 134.703 421.544 140.415V154.064" stroke="#0E4395" stroke-width="3.04403" stroke-miterlimit="10" stroke-linecap="round" stroke-linejoin="round"/>
<path d="M411.509 130.031V113.079" stroke="#0E4395" stroke-width="3.04403" stroke-miterlimit="10" stroke-linecap="round" stroke-linejoin="round"/>
<path d="M356.396 135.755C356.396 138.254 354.439 140.278 352.025 140.278C349.611 140.278 347.654 138.254 347.654 135.755C347.654 133.257 349.611 131.232 352.025 131.232C354.439 131.232 356.396 133.257 356.396 135.755Z" stroke="#0E4395" stroke-width="3.04403" stroke-miterlimit="10" stroke-linecap="round" stroke-linejoin="round"/>
<path d="M352.024 131.233V115.471" stroke="#0E4395" stroke-width="3.04403" stroke-miterlimit="10" stroke-linecap="round" stroke-linejoin="round"/>
</g>
<path d="M76.4234 391.248H89.1108L93.7248 373.742H138.773L134.16 391.248V403.184H89.1116H76.4234C73.2385 403.184 70.6562 400.511 70.6562 397.216C70.6562 393.92 73.2385 391.248 76.4234 391.248Z" fill="#FFA08B"/>
<path d="M89.2161 390.85L89.1116 391.247H76.4234C73.2385 391.247 70.6562 393.919 70.6562 397.215C70.6562 400.511 73.2385 403.183 76.4234 403.183H89.1108H134.159V391.247L134.264 390.85H89.2161Z" fill="#0D47A1"/>
<path d="M121.891 195.99L89.3662 381.127H146.268L171.727 236.206V381.127H228.629V195.99H121.891Z" fill="#424242"/>
<path d="M236.082 391.248H223.394V373.742H178.346V391.248V403.184H223.394H236.082C239.267 403.184 241.849 400.511 241.849 397.216C241.849 393.92 239.267 391.248 236.082 391.248Z" fill="#0D47A1"/>
<path d="M223.394 373.742H178.346V389.656H223.394V373.742Z" fill="#FFA08B"/>
<path d="M230.57 362.602H171.729V381.126H230.57V362.602Z" fill="#2A2828"/>
<path d="M146.27 381.126H88.5996V362.602H149.524L146.27 381.126Z" fill="#2A2828"/>
<path d="M121.892 195.99L119.188 211.378L229.031 195.99H121.892Z" fill="#2A2828"/>
<path d="M262.91 59.3873L240.025 51.9971L228.76 89.3542L251.644 96.7444L262.91 59.3873Z" fill="#0D47A1"/>
<path d="M240.375 57.8702C240.681 56.8546 241.725 56.2887 242.706 56.6056C243.687 56.9224 244.234 58.0021 243.928 59.0177C243.622 60.0332 242.579 60.5992 241.597 60.2823C240.616 59.9664 240.069 58.8858 240.375 57.8702Z" stroke="white" stroke-width="1.01468" stroke-miterlimit="10"/>
<path d="M241.4 103.289C241.4 103.289 239.349 97.8621 242.425 92.2202C242.425 92.2202 237.604 92.4372 237.035 90.0498C236.466 87.6625 244.476 86.3136 244.476 86.3136C244.476 86.3136 236.494 83.6387 237.006 80.9198C237.518 78.2009 248.32 79.417 248.32 79.417C248.32 79.417 238.195 73.7082 238.964 71.6524C239.733 69.5965 255.112 72.6304 255.112 72.6304C255.112 72.6304 245.564 67.6276 248.384 65.8996C251.203 64.1716 264.12 67.3291 266.518 70.1496C270.106 74.3703 266.518 96.5599 266.518 96.5599L241.4 103.289Z" fill="#FFA08B"/>
<path d="M289.734 148.398C288.24 133.436 268.592 94.3205 268.592 94.3205L239.64 101.125C239.64 101.125 239.539 101.753 239.392 102.875L223.365 90.1309C222.513 89.424 221.581 88.8049 220.575 88.2949L198.211 76.9404H163.845L135.168 88.5961C129.592 90.8617 125.836 96.3214 125.59 102.515L121.893 197.359H229.031V162.574C245.878 171.631 270.787 183.208 282.324 172.161C290.08 164.734 290.766 153.766 289.734 148.398Z" fill="#96BFFF"/>
<path d="M161.259 71.6533H204.531V88.853C204.531 88.853 200.561 98.0636 182.896 98.0636C165.23 98.0636 161.26 87.7193 161.26 87.7193L161.259 71.6533Z" fill="#2372EC"/>
<path d="M191.698 63.3958C196.383 63.3958 200.18 59.466 200.18 54.6183C200.18 49.7706 196.383 45.8408 191.698 45.8408C187.013 45.8408 183.216 49.7706 183.216 54.6183C183.216 59.466 187.013 63.3958 191.698 63.3958Z" fill="#2372EC"/>
<path d="M192.38 65.8994H174.374V86.4883H192.38V65.8994Z" fill="#FFA08B"/>
<path d="M174.374 65.8994V68.9168C174.374 68.9168 178.154 79.2612 192.38 82.8418V65.8994H174.374Z" fill="#FA7C60"/>
<path d="M185.619 76.9406C178.694 76.9406 173.028 71.077 173.028 63.9103V53.7656C173.028 46.5989 178.695 40.7354 185.619 40.7354C192.545 40.7354 198.211 46.5989 198.211 53.7656V63.9112C198.21 71.077 192.544 76.9406 185.619 76.9406Z" fill="#FFA08B"/>
<path d="M172.594 65.8992C174.691 65.8992 176.391 64.1403 176.391 61.9706C176.391 59.8009 174.691 58.042 172.594 58.042C170.498 58.042 168.798 59.8009 168.798 61.9706C168.798 64.1403 170.498 65.8992 172.594 65.8992Z" fill="#FFA08B"/>
<path d="M198.21 60.6275L178.155 60.2383L178.186 74.3967C180.271 75.9911 182.84 76.9407 185.618 76.9407C192.543 76.9407 198.21 71.0771 198.21 63.9104V60.6275Z" fill="#F9E3CE"/>
<path d="M188.919 35.2319C175.846 33.7071 173.924 44.7145 173.924 44.7145C170.528 44.6476 168.349 48.2557 168.349 48.2557C165.081 54.8601 169.753 59.372 169.753 59.372L169.763 59.3766C170.459 58.5643 171.463 58.0414 172.594 58.0414C173.855 58.0414 174.965 58.6852 175.655 59.6641C178.036 56.2621 177.794 51.8574 177.794 51.8574L198.364 52.1229C199.683 47.6321 201.99 36.7575 188.919 35.2319Z" fill="#0D47A1"/>
<path d="M175.654 59.666L179.883 60.894" stroke="#F9E3CE" stroke-width="1.01468" stroke-miterlimit="10" stroke-linecap="round"/>
<path d="M173.026 65.8994L179.242 72.6302" stroke="#F9E3CE" stroke-width="1.01468" stroke-miterlimit="10" stroke-linecap="round"/>
<path d="M188.117 84.8574H163.844V184.153H188.117V84.8574Z" fill="#0D47A1"/>
<path d="M188.117 104.79L163.844 96.8327V84.8574H188.117V104.79Z" fill="#2372EC"/>
<path d="M182.895 81.9847C165.437 81.9847 161.356 71.8876 161.263 71.6514H161.259V87.7173C161.259 87.7173 165.229 98.0617 182.895 98.0617C200.56 98.0617 204.53 88.851 204.53 88.851V72.7741C204.53 72.7741 200.56 81.9847 182.895 81.9847Z" fill="#0D47A1"/>
<path d="M128.646 93.7217C128.646 93.7217 90.0385 136.361 86.1944 163.15C82.3493 189.94 107.795 204.52 134.963 188.075C162.133 171.63 178.708 160.209 178.708 160.209L175.98 130.254L129.837 136.355L128.646 93.7217Z" fill="#96BFFF"/>
<path d="M146.268 134.182C146.268 134.182 118.56 135.294 106.257 150.146C106.257 150.146 113.69 134.763 135.989 126.274L146.268 134.182Z" fill="#76ABFF"/>
<path d="M176.027 130.757C176.027 130.757 188.598 119.311 191.289 119.908C193.98 120.505 190.328 127.667 190.328 127.667C190.328 127.667 204.938 120.505 206.188 122.196C207.743 124.299 200.132 129.854 200.132 129.854C200.132 129.854 208.653 128.146 208.975 129.257C209.552 131.246 201.862 136.352 201.862 136.352C201.862 136.352 210.142 134.206 210.526 135.921C210.91 137.636 202.823 142.188 202.823 142.188C202.823 142.188 207.39 142.389 208.398 144.774C209.071 146.365 178.301 155.716 178.301 155.716L176.027 130.757Z" fill="#FFA08B"/>
<path d="M176.027 130.759L185.384 153.512L178.301 155.718L176.027 130.759Z" fill="#FA7C60"/>
<path d="M239.39 102.876L240.82 144.368C240.82 144.368 232.261 118.92 233.337 98.0625L239.39 102.876Z" fill="#76ABFF"/>
<path d="M182.255 198.184H171.729V226.746H182.255V198.184Z" stroke="#424242" stroke-width="2.02936" stroke-miterlimit="10" stroke-linecap="round" stroke-linejoin="round"/>
<path d="M165.645 131.619L169.053 166.649" stroke="#F9E3CE" stroke-width="1.01468" stroke-miterlimit="10" stroke-linecap="round"/>
<path d="M239.661 110.761L273.553 104.618" stroke="#F9E3CE" stroke-width="1.01468" stroke-miterlimit="10" stroke-linecap="round"/>
<path d="M259.661 175.41C259.661 175.41 262.351 155.982 272.348 153.86C282.344 151.738 289.199 160.011 289.199 160.011" stroke="#F9E3CE" stroke-width="1.01468" stroke-miterlimit="10" stroke-linecap="round"/>
<path d="M85.8076 171.1C85.8076 171.1 108.421 175.677 108.236 194.741" stroke="#F9E3CE" stroke-width="1.01468" stroke-miterlimit="10" stroke-linecap="round"/>
<path d="M132.259 187.81H228.63" stroke="#F9E3CE" stroke-width="1.01468" stroke-miterlimit="10" stroke-linecap="round"/>
<path d="M219.896 403.184H575.497" stroke="white" stroke-width="2" stroke-miterlimit="10" stroke-linecap="round" stroke-linejoin="round"/>
<path d="M6.75293 403.184H191.078" stroke="white" stroke-width="2" stroke-miterlimit="10" stroke-linecap="round" stroke-linejoin="round"/>
<path d="M509.692 62.2627H480.742C477.473 70.0017 470.015 75.412 461.331 75.412V98.6172H461.382C462.758 129.202 495.217 138.84 495.217 138.84C495.217 138.84 527.708 129.934 529.054 98.6172H529.102V75.412C520.419 75.412 512.96 70.0017 509.692 62.2627Z" fill="#2372EC"/>
<path d="M512.424 102.065C514.388 92.2311 508.277 82.612 498.774 80.5797C489.272 78.5473 479.976 84.8713 478.012 94.7048C476.048 104.538 482.159 114.157 491.662 116.19C501.164 118.222 510.46 111.898 512.424 102.065Z" fill="white"/>
<path d="M505.753 95.2369H498.257V87.4805H492.177V95.2369H484.681V101.529H492.177V109.285H498.257V101.529H505.753V95.2369Z" fill="#2372EC"/>
<path d="M144.471 57.2783C152.543 47.9446 151.774 33.6068 142.755 25.2538C133.735 16.9009 119.88 17.6959 111.808 27.0296C103.736 36.3632 104.504 50.7011 113.524 59.0541C122.543 67.407 136.399 66.612 144.471 57.2783Z" fill="#3EAF3F"/>
<path d="M118.18 42.9606L125.734 48.5898L136.624 33.5732" stroke="white" stroke-width="7.10274" stroke-miterlimit="10" stroke-linecap="round" stroke-linejoin="round"/>
<defs>
<filter id="filter0_d_3065_42104" x="307.269" y="62.8018" width="159.924" height="134.361" filterUnits="userSpaceOnUse" color-interpolation-filters="sRGB">
<feFlood flood-opacity="0" result="BackgroundImageFix"/>
<feColorMatrix in="SourceAlpha" type="matrix" values="0 0 0 0 0 0 0 0 0 0 0 0 0 0 0 0 0 0 127 0" result="hardAlpha"/>
<feOffset dx="5"/>
<feComposite in2="hardAlpha" operator="out"/>
<feColorMatrix type="matrix" values="0 0 0 0 0 0 0 0 0 0 0 0 0 0 0 0 0 0 0.05 0"/>
<feBlend mode="normal" in2="BackgroundImageFix" result="effect1_dropShadow_3065_42104"/>
<feBlend mode="normal" in="SourceGraphic" in2="effect1_dropShadow_3065_42104" result="shape"/>
</filter>
</defs>
</svg>
