<svg width="15" height="15" viewBox="0 0 15 15" fill="none" xmlns="http://www.w3.org/2000/svg">
<path d="M5.18689 7.14645C4.99162 6.95118 4.67504 6.95118 4.47978 7.14645C4.28452 7.34171 4.28452 7.65829 4.47978 7.85355L4.83333 7.5L5.18689 7.14645ZM6.16667 8.83333L5.81311 9.18689C6.00838 9.38215 6.32496 9.38215 6.52022 9.18689L6.16667 8.83333ZM9.85355 5.85355C10.0488 5.65829 10.0488 5.34171 9.85355 5.14645C9.65829 4.95118 9.34171 4.95118 9.14645 5.14645L9.5 5.5L9.85355 5.85355ZM13.8333 7.16667H13.3333C13.3333 10.5724 10.5724 13.3333 7.16667 13.3333V13.8333V14.3333C11.1247 14.3333 14.3333 11.1247 14.3333 7.16667H13.8333ZM7.16667 13.8333V13.3333C3.76091 13.3333 1 10.5724 1 7.16667H0.5H0C0 11.1247 3.20863 14.3333 7.16667 14.3333V13.8333ZM0.5 7.16667H1C1 3.76091 3.76091 1 7.16667 1V0.5V0C3.20863 0 0 3.20863 0 7.16667H0.5ZM7.16667 0.5V1C10.5724 1 13.3333 3.76091 13.3333 7.16667H13.8333H14.3333C14.3333 3.20863 11.1247 0 7.16667 0V0.5ZM4.83333 7.5L4.47978 7.85355L5.81311 9.18689L6.16667 8.83333L6.52022 8.47978L5.18689 7.14645L4.83333 7.5ZM6.16667 8.83333L6.52022 9.18689L9.85355 5.85355L9.5 5.5L9.14645 5.14645L5.81311 8.47978L6.16667 8.83333Z" fill="white"/>
</svg>
