<svg width="14" height="14" viewBox="0 0 14 14" fill="none" xmlns="http://www.w3.org/2000/svg">
<path d="M3.86672 1.77493L3.82695 1.27651L3.86672 1.77493ZM4.25501 1.73284L4.35185 2.22337L4.25501 1.73284ZM5.16444 1.23739L5.48875 1.61795L5.48875 1.61795L5.16444 1.23739ZM4.86012 1.4822L4.58174 1.06686L4.86012 1.4822ZM1.77493 3.86672L1.27651 3.82695L1.77493 3.86672ZM1.9064 2.92284L1.43495 2.75632L1.9064 2.92284ZM2.92284 1.9064L2.75632 1.43495L2.92284 1.9064ZM1.23739 5.16444L1.61795 5.48875L1.23739 5.16444ZM1.4822 4.86012L1.06686 4.58174L1.4822 4.86012ZM1.73284 4.25501L2.22337 4.35185L1.73284 4.25501ZM1.23739 8.12268L1.61795 7.79838L1.61795 7.79838L1.23739 8.12268ZM0.662937 7.36229L1.11406 7.14667L0.662937 7.36229ZM0.662937 5.92483L1.11406 6.14045L0.662937 5.92483ZM1.77493 9.4204L1.27651 9.46018L1.77493 9.4204ZM1.73284 9.03212L2.22337 8.93527L1.73284 9.03212ZM1.4822 8.427L1.06686 8.70538L1.4822 8.427ZM3.86672 11.5122L3.9065 11.0138L3.86672 11.5122ZM2.92284 11.3807L2.75632 11.8522L2.92284 11.3807ZM1.9064 10.3643L1.43495 10.5308L1.9064 10.3643ZM5.16444 12.0497L5.48875 11.6692L5.48875 11.6692L5.16444 12.0497ZM4.86012 11.8049L4.58174 12.2203L4.58174 12.2203L4.86012 11.8049ZM4.25501 11.5543L4.15816 12.0448L4.25501 11.5543ZM8.12268 12.0497L7.79838 11.6692L8.12268 12.0497ZM7.36229 12.6242L7.14667 12.1731L7.14667 12.1731L7.36229 12.6242ZM5.92483 12.6242L6.14045 12.1731L6.14045 12.1731L5.92483 12.6242ZM9.4204 11.5122L9.38063 11.0138L9.4204 11.5122ZM9.03212 11.5543L9.12896 12.0448L9.03212 11.5543ZM8.427 11.8049L8.70538 12.2203L8.70538 12.2203L8.427 11.8049ZM11.5122 9.4204L11.0138 9.38063L11.5122 9.4204ZM11.3807 10.3643L11.8522 10.5308L11.3807 10.3643ZM10.3643 11.3807L10.5308 11.8522L10.3643 11.3807ZM12.0497 8.12268L11.6692 7.79838L11.6692 7.79838L12.0497 8.12268ZM11.8049 8.427L12.2203 8.70538L12.2203 8.70538L11.8049 8.427ZM11.5543 9.03212L12.0448 9.12896L11.5543 9.03212ZM12.0497 5.16444L11.6692 5.48875L12.0497 5.16444ZM12.6242 5.92483L12.1731 6.14045L12.1731 6.14045L12.6242 5.92483ZM12.6242 7.36229L12.1731 7.14667L12.1731 7.14667L12.6242 7.36229ZM11.5122 3.86672L12.0106 3.82695L11.5122 3.86672ZM11.5543 4.25501L12.0448 4.15816L11.5543 4.25501ZM11.8049 4.86012L12.2203 4.58174L12.2203 4.58174L11.8049 4.86012ZM9.4204 1.77493L9.38063 2.27334L9.4204 1.77493ZM10.3643 1.9064L10.5308 1.43495L10.3643 1.9064ZM11.3807 2.92284L11.8522 2.75632L11.3807 2.92284ZM8.12268 1.23739L7.79838 1.61795L8.12268 1.23739ZM8.427 1.4822L8.70538 1.06686L8.427 1.4822ZM9.03212 1.73284L8.93527 2.22337L9.03212 1.73284ZM7.36229 0.662937L7.14667 1.11406L7.36229 0.662937ZM5.92483 0.662937L6.14045 1.11406L5.92483 0.662937ZM4.66377 6.62333C4.46851 6.42807 4.15193 6.42807 3.95667 6.62333C3.76141 6.8186 3.76141 7.13518 3.95667 7.33044L4.31022 6.97689L4.66377 6.62333ZM5.64355 8.31022L5.29 8.66377C5.48526 8.85904 5.80185 8.85904 5.99711 8.66377L5.64355 8.31022ZM9.33044 5.33044C9.5257 5.13518 9.5257 4.8186 9.33044 4.62333C9.13518 4.42807 8.8186 4.42807 8.62333 4.62333L8.97689 4.97689L9.33044 5.33044ZM3.86672 1.77493L3.9065 2.27334C4.09124 2.2586 4.22266 2.24888 4.35185 2.22337L4.25501 1.73284L4.15816 1.24231C4.09863 1.25406 4.03411 1.25998 3.82695 1.27651L3.86672 1.77493ZM5.16444 1.23739L4.84013 0.856837C4.68196 0.991631 4.63215 1.03308 4.58174 1.06686L4.86012 1.4822L5.1385 1.89753C5.24789 1.82422 5.34769 1.73816 5.48875 1.61795L5.16444 1.23739ZM4.25501 1.73284L4.35185 2.22337C4.63304 2.16786 4.90042 2.05711 5.1385 1.89753L4.86012 1.4822L4.58174 1.06686C4.45355 1.15278 4.30957 1.21242 4.15816 1.24231L4.25501 1.73284ZM1.77493 3.86672L2.27334 3.9065C2.31505 3.38388 2.33245 3.21792 2.37786 3.08936L1.9064 2.92284L1.43495 2.75632C1.33527 3.03852 1.31338 3.36489 1.27651 3.82695L1.77493 3.86672ZM3.86672 1.77493L3.82695 1.27651C3.36489 1.31338 3.03852 1.33527 2.75632 1.43495L2.92284 1.9064L3.08936 2.37786C3.21792 2.33245 3.38388 2.31505 3.9065 2.27334L3.86672 1.77493ZM1.9064 2.92284L2.37786 3.08936C2.4953 2.75685 2.75685 2.4953 3.08936 2.37786L2.92284 1.9064L2.75632 1.43495C2.13879 1.65306 1.65306 2.13879 1.43495 2.75632L1.9064 2.92284ZM1.23739 5.16444L1.61795 5.48875C1.73816 5.34769 1.82422 5.24789 1.89753 5.1385L1.4822 4.86012L1.06686 4.58174C1.03308 4.63215 0.99163 4.68196 0.856837 4.84013L1.23739 5.16444ZM1.77493 3.86672L1.27651 3.82695C1.25998 4.03411 1.25406 4.09863 1.24231 4.15816L1.73284 4.25501L2.22337 4.35185C2.24888 4.22266 2.2586 4.09124 2.27334 3.9065L1.77493 3.86672ZM1.4822 4.86012L1.89753 5.1385C2.05711 4.90042 2.16786 4.63304 2.22337 4.35185L1.73284 4.25501L1.24231 4.15816C1.21242 4.30957 1.15278 4.45355 1.06686 4.58174L1.4822 4.86012ZM1.23739 8.12268L1.61795 7.79838C1.2779 7.39934 1.17285 7.26968 1.11406 7.14667L0.662937 7.36229L0.211818 7.57791C0.340881 7.84794 0.556184 8.09419 0.856837 8.44699L1.23739 8.12268ZM1.23739 5.16444L0.856837 4.84013C0.556185 5.19293 0.340881 5.43919 0.211818 5.70921L0.662937 5.92483L1.11406 6.14045C1.17285 6.01744 1.2779 5.88778 1.61795 5.48875L1.23739 5.16444ZM0.662937 7.36229L1.11406 7.14667C0.961981 6.8285 0.961981 6.45862 1.11406 6.14045L0.662937 5.92483L0.211818 5.70921C-0.070606 6.3001 -0.070606 6.98703 0.211818 7.57791L0.662937 7.36229ZM1.77493 9.4204L2.27334 9.38063C2.2586 9.19589 2.24888 9.06446 2.22337 8.93527L1.73284 9.03212L1.24231 9.12896C1.25406 9.18849 1.25998 9.25302 1.27651 9.46018L1.77493 9.4204ZM1.23739 8.12268L0.856837 8.44699C0.991631 8.60517 1.03308 8.65498 1.06686 8.70538L1.4822 8.427L1.89753 8.14862C1.82422 8.03924 1.73816 7.93943 1.61795 7.79838L1.23739 8.12268ZM1.73284 9.03212L2.22337 8.93527C2.16786 8.65409 2.05711 8.38671 1.89753 8.14862L1.4822 8.427L1.06686 8.70538C1.15278 8.83358 1.21242 8.97755 1.24231 9.12896L1.73284 9.03212ZM3.86672 11.5122L3.9065 11.0138C3.38388 10.9721 3.21792 10.9547 3.08936 10.9093L2.92284 11.3807L2.75632 11.8522C3.03852 11.9519 3.36489 11.9737 3.82695 12.0106L3.86672 11.5122ZM1.77493 9.4204L1.27651 9.46018C1.31338 9.92224 1.33527 10.2486 1.43495 10.5308L1.9064 10.3643L2.37786 10.1978C2.33245 10.0692 2.31505 9.90324 2.27334 9.38063L1.77493 9.4204ZM2.92284 11.3807L3.08936 10.9093C2.75685 10.7918 2.4953 10.5303 2.37786 10.1978L1.9064 10.3643L1.43495 10.5308C1.65306 11.1483 2.13879 11.6341 2.75632 11.8522L2.92284 11.3807ZM5.16444 12.0497L5.48875 11.6692C5.34769 11.549 5.24789 11.4629 5.1385 11.3896L4.86012 11.8049L4.58174 12.2203C4.63215 12.254 4.68196 12.2955 4.84013 12.4303L5.16444 12.0497ZM3.86672 11.5122L3.82695 12.0106C4.0341 12.0271 4.09863 12.0331 4.15816 12.0448L4.25501 11.5543L4.35185 11.0638C4.22266 11.0382 4.09124 11.0285 3.9065 11.0138L3.86672 11.5122ZM4.86012 11.8049L5.1385 11.3896C4.90042 11.23 4.63304 11.1193 4.35185 11.0638L4.25501 11.5543L4.15816 12.0448C4.30957 12.0747 4.45355 12.1343 4.58174 12.2203L4.86012 11.8049ZM8.12268 12.0497L7.79838 11.6692C7.39934 12.0092 7.26968 12.1143 7.14667 12.1731L7.36229 12.6242L7.57791 13.0753C7.84794 12.9462 8.09419 12.7309 8.44699 12.4303L8.12268 12.0497ZM5.16444 12.0497L4.84013 12.4303C5.19293 12.7309 5.43919 12.9462 5.70921 13.0753L5.92483 12.6242L6.14045 12.1731C6.01744 12.1143 5.88778 12.0092 5.48875 11.6692L5.16444 12.0497ZM7.36229 12.6242L7.14667 12.1731C6.8285 12.3251 6.45862 12.3251 6.14045 12.1731L5.92483 12.6242L5.70921 13.0753C6.3001 13.3577 6.98703 13.3577 7.57791 13.0753L7.36229 12.6242ZM9.4204 11.5122L9.38063 11.0138C9.19588 11.0285 9.06446 11.0382 8.93527 11.0638L9.03212 11.5543L9.12896 12.0448C9.18849 12.0331 9.25302 12.0271 9.46018 12.0106L9.4204 11.5122ZM8.12268 12.0497L8.44699 12.4303C8.60516 12.2955 8.65498 12.254 8.70538 12.2203L8.427 11.8049L8.14862 11.3896C8.03924 11.4629 7.93943 11.549 7.79838 11.6692L8.12268 12.0497ZM9.03212 11.5543L8.93527 11.0638C8.65409 11.1193 8.38671 11.23 8.14862 11.3896L8.427 11.8049L8.70538 12.2203C8.83358 12.1343 8.97755 12.0747 9.12896 12.0448L9.03212 11.5543ZM11.5122 9.4204L11.0138 9.38063C10.9721 9.90324 10.9547 10.0692 10.9093 10.1978L11.3807 10.3643L11.8522 10.5308C11.9519 10.2486 11.9737 9.92224 12.0106 9.46018L11.5122 9.4204ZM9.4204 11.5122L9.46018 12.0106C9.92224 11.9737 10.2486 11.9519 10.5308 11.8522L10.3643 11.3807L10.1978 10.9093C10.0692 10.9547 9.90324 10.9721 9.38063 11.0138L9.4204 11.5122ZM11.3807 10.3643L10.9093 10.1978C10.7918 10.5303 10.5303 10.7918 10.1978 10.9093L10.3643 11.3807L10.5308 11.8522C11.1483 11.6341 11.6341 11.1483 11.8522 10.5308L11.3807 10.3643ZM12.0497 8.12268L11.6692 7.79838C11.549 7.93943 11.4629 8.03924 11.3896 8.14862L11.8049 8.427L12.2203 8.70538C12.254 8.65498 12.2955 8.60516 12.4303 8.44699L12.0497 8.12268ZM11.5122 9.4204L12.0106 9.46018C12.0271 9.25302 12.0331 9.18849 12.0448 9.12896L11.5543 9.03212L11.0638 8.93527C11.0382 9.06446 11.0285 9.19588 11.0138 9.38063L11.5122 9.4204ZM11.8049 8.427L11.3896 8.14862C11.23 8.38671 11.1193 8.65409 11.0638 8.93527L11.5543 9.03212L12.0448 9.12896C12.0747 8.97755 12.1343 8.83358 12.2203 8.70538L11.8049 8.427ZM12.0497 5.16444L11.6692 5.48875C12.0092 5.88778 12.1143 6.01744 12.1731 6.14045L12.6242 5.92483L13.0753 5.70921C12.9462 5.43919 12.7309 5.19293 12.4303 4.84013L12.0497 5.16444ZM12.0497 8.12268L12.4303 8.44699C12.7309 8.09419 12.9462 7.84794 13.0753 7.57791L12.6242 7.36229L12.1731 7.14667C12.1143 7.26968 12.0092 7.39934 11.6692 7.79838L12.0497 8.12268ZM12.6242 5.92483L12.1731 6.14045C12.3251 6.45862 12.3251 6.8285 12.1731 7.14667L12.6242 7.36229L13.0753 7.57791C13.3577 6.98703 13.3577 6.3001 13.0753 5.70921L12.6242 5.92483ZM11.5122 3.86672L11.0138 3.9065C11.0285 4.09124 11.0382 4.22266 11.0638 4.35185L11.5543 4.25501L12.0448 4.15816C12.0331 4.09863 12.0271 4.0341 12.0106 3.82695L11.5122 3.86672ZM12.0497 5.16444L12.4303 4.84013C12.2955 4.68196 12.254 4.63215 12.2203 4.58174L11.8049 4.86012L11.3896 5.1385C11.4629 5.24789 11.549 5.34769 11.6692 5.48875L12.0497 5.16444ZM11.5543 4.25501L11.0638 4.35185C11.1193 4.63304 11.23 4.90042 11.3896 5.1385L11.8049 4.86012L12.2203 4.58174C12.1343 4.45355 12.0747 4.30957 12.0448 4.15816L11.5543 4.25501ZM9.4204 1.77493L9.38063 2.27334C9.90324 2.31505 10.0692 2.33245 10.1978 2.37786L10.3643 1.9064L10.5308 1.43495C10.2486 1.33527 9.92224 1.31338 9.46018 1.27651L9.4204 1.77493ZM11.5122 3.86672L12.0106 3.82695C11.9737 3.36489 11.9519 3.03852 11.8522 2.75632L11.3807 2.92284L10.9093 3.08936C10.9547 3.21792 10.9721 3.38388 11.0138 3.9065L11.5122 3.86672ZM10.3643 1.9064L10.1978 2.37786C10.5303 2.4953 10.7918 2.75685 10.9093 3.08936L11.3807 2.92284L11.8522 2.75632C11.6341 2.13879 11.1483 1.65306 10.5308 1.43495L10.3643 1.9064ZM8.12268 1.23739L7.79838 1.61795C7.93943 1.73816 8.03924 1.82422 8.14862 1.89753L8.427 1.4822L8.70538 1.06686C8.65498 1.03308 8.60517 0.991631 8.44699 0.856837L8.12268 1.23739ZM9.4204 1.77493L9.46018 1.27651C9.25302 1.25998 9.18849 1.25406 9.12896 1.24231L9.03212 1.73284L8.93527 2.22337C9.06446 2.24888 9.19589 2.2586 9.38063 2.27334L9.4204 1.77493ZM8.427 1.4822L8.14862 1.89753C8.38671 2.05711 8.65409 2.16786 8.93527 2.22337L9.03212 1.73284L9.12896 1.24231C8.97755 1.21242 8.83358 1.15278 8.70538 1.06686L8.427 1.4822ZM8.12268 1.23739L8.44699 0.856837C8.09419 0.556184 7.84794 0.340881 7.57791 0.211818L7.36229 0.662937L7.14667 1.11406C7.26968 1.17285 7.39934 1.2779 7.79838 1.61795L8.12268 1.23739ZM5.16444 1.23739L5.48875 1.61795C5.88778 1.2779 6.01744 1.17285 6.14045 1.11406L5.92483 0.662937L5.70921 0.211818C5.43919 0.340881 5.19293 0.556184 4.84013 0.856837L5.16444 1.23739ZM7.36229 0.662937L7.57791 0.211818C6.98703 -0.070606 6.3001 -0.070606 5.70921 0.211818L5.92483 0.662937L6.14045 1.11406C6.45862 0.961981 6.8285 0.961981 7.14667 1.11406L7.36229 0.662937ZM4.31022 6.97689L3.95667 7.33044L5.29 8.66377L5.64355 8.31022L5.99711 7.95667L4.66377 6.62333L4.31022 6.97689ZM5.64355 8.31022L5.99711 8.66377L9.33044 5.33044L8.97689 4.97689L8.62333 4.62333L5.29 7.95667L5.64355 8.31022Z" fill="#3EAF3F"/>
</svg>
