<svg width="16" height="16" viewBox="0 0 16 16" fill="none" xmlns="http://www.w3.org/2000/svg">
<path d="M7.99967 14.6663H11.333V3.99967C11.333 2.7426 11.333 2.11406 10.9425 1.72353C10.552 1.33301 9.92342 1.33301 8.66634 1.33301H7.33301C6.07593 1.33301 5.44739 1.33301 5.05687 1.72353C4.66634 2.11406 4.66634 2.7426 4.66634 3.99967V14.6663H7.99967Z" fill="#96BFFF"/>
<path d="M14.6663 15.1663C14.9425 15.1663 15.1663 14.9425 15.1663 14.6663C15.1663 14.3902 14.9425 14.1663 14.6663 14.1663V14.6663V15.1663ZM1.33301 14.1663C1.05687 14.1663 0.833008 14.3902 0.833008 14.6663C0.833008 14.9425 1.05687 15.1663 1.33301 15.1663V14.6663V14.1663ZM13.4071 3.55771L13.6849 3.14198V3.14198L13.4071 3.55771ZM13.775 3.92558L13.3592 4.20336L13.3592 4.20337L13.775 3.92558ZM2.59225 3.55771L2.31446 3.14198V3.14198L2.59225 3.55771ZM2.22438 3.92558L2.64012 4.20337L2.64012 4.20337L2.22438 3.92558ZM8.49967 12.6663C8.49967 12.3902 8.27582 12.1663 7.99967 12.1663C7.72353 12.1663 7.49967 12.3902 7.49967 12.6663H7.99967H8.49967ZM7.49967 7.99967C7.49967 8.27582 7.72353 8.49967 7.99967 8.49967C8.27582 8.49967 8.49967 8.27582 8.49967 7.99967H7.99967H7.49967ZM8.49967 5.33301C8.49967 5.05687 8.27582 4.83301 7.99967 4.83301C7.72353 4.83301 7.49967 5.05687 7.49967 5.33301H7.99967H8.49967ZM9.33301 7.16634C9.60915 7.16634 9.83301 6.94248 9.83301 6.66634C9.83301 6.3902 9.60915 6.16634 9.33301 6.16634V6.66634V7.16634ZM6.66634 6.16634C6.3902 6.16634 6.16634 6.3902 6.16634 6.66634C6.16634 6.94248 6.3902 7.16634 6.66634 7.16634V6.66634V6.16634ZM14.6663 14.6663V14.1663H13.9997V14.6663V15.1663H14.6663V14.6663ZM13.9997 14.6663V14.1663H11.333V14.6663V15.1663H13.9997V14.6663ZM11.333 14.6663V14.1663H7.99967V14.6663V15.1663H11.333V14.6663ZM7.99967 14.6663V14.1663H4.66634V14.6663V15.1663H7.99967V14.6663ZM4.66634 14.6663V14.1663H1.99967V14.6663V15.1663H4.66634V14.6663ZM1.99967 14.6663V14.1663H1.33301V14.6663V15.1663H1.99967V14.6663ZM7.33301 1.33301V1.83301H8.66634V1.33301V0.833008H7.33301V1.33301ZM11.333 3.99967H10.833V14.6663H11.333H11.833V3.99967H11.333ZM4.66634 14.6663H5.16634V3.99967H4.66634H4.16634V14.6663H4.66634ZM8.66634 1.33301V1.83301C9.30901 1.83301 9.74072 1.83407 10.0627 1.87736C10.3704 1.91873 10.5021 1.99021 10.5889 2.07709L10.9425 1.72353L11.296 1.36998C10.9924 1.06633 10.6145 0.942552 10.196 0.886282C9.79185 0.831946 9.28075 0.833008 8.66634 0.833008V1.33301ZM11.333 3.99967H11.833C11.833 3.38527 11.8341 2.87417 11.7797 2.47002C11.7235 2.05149 11.5997 1.67363 11.296 1.36998L10.9425 1.72353L10.5889 2.07709C10.6758 2.16396 10.7473 2.29563 10.7886 2.60327C10.8319 2.92529 10.833 3.357 10.833 3.99967H11.333ZM7.33301 1.33301V0.833008C6.7186 0.833008 6.2075 0.831946 5.80335 0.886282C5.38483 0.942552 5.00696 1.06633 4.70331 1.36998L5.05687 1.72353L5.41042 2.07709C5.4973 1.99021 5.62896 1.91873 5.9366 1.87736C6.25863 1.83407 6.69033 1.83301 7.33301 1.83301V1.33301ZM4.66634 3.99967H5.16634C5.16634 3.357 5.1674 2.92529 5.2107 2.60327C5.25206 2.29563 5.32354 2.16396 5.41042 2.07709L5.05687 1.72353L4.70331 1.36998C4.39967 1.67363 4.27588 2.05149 4.21961 2.47002C4.16528 2.87417 4.16634 3.38527 4.16634 3.99967H4.66634ZM13.9997 5.66634H13.4997V14.6663H13.9997H14.4997V5.66634H13.9997ZM11.6663 3.33301V3.83301C12.1449 3.83301 12.4662 3.83361 12.7111 3.85853C12.9477 3.8826 13.057 3.92514 13.1293 3.97345L13.4071 3.55771L13.6849 3.14198C13.4209 2.96558 13.128 2.89577 12.8123 2.86366C12.505 2.8324 12.1241 2.83301 11.6663 2.83301V3.33301ZM13.9997 5.66634H14.4997C14.4997 5.20859 14.5003 4.82765 14.469 4.52035C14.4369 4.20471 14.3671 3.91179 14.1907 3.6478L13.775 3.92558L13.3592 4.20337C13.4075 4.27567 13.4501 4.38498 13.4742 4.62156C13.4991 4.8665 13.4997 5.18778 13.4997 5.66634H13.9997ZM13.4071 3.55771L13.1293 3.97345C13.2203 4.03425 13.2984 4.11237 13.3592 4.20336L13.775 3.92558L14.1907 3.6478C14.0569 3.44761 13.8851 3.27574 13.6849 3.14198L13.4071 3.55771ZM1.99967 5.66634H1.49967V14.6663H1.99967H2.49967V5.66634H1.99967ZM4.33301 3.33301V2.83301C3.87526 2.83301 3.49431 2.8324 3.18702 2.86366C2.87137 2.89577 2.57846 2.96558 2.31446 3.14198L2.59225 3.55771L2.87003 3.97345C2.94233 3.92514 3.05165 3.8826 3.28823 3.85853C3.53316 3.83361 3.85445 3.83301 4.33301 3.83301V3.33301ZM1.99967 5.66634H2.49967C2.49967 5.18778 2.50028 4.8665 2.5252 4.62156C2.54926 4.38498 2.59181 4.27567 2.64012 4.20337L2.22438 3.92558L1.80865 3.6478C1.63225 3.91179 1.56244 4.20471 1.53033 4.52035C1.49907 4.82765 1.49967 5.20859 1.49967 5.66634H1.99967ZM2.59225 3.55771L2.31446 3.14198C2.11428 3.27574 1.9424 3.44761 1.80865 3.6478L2.22438 3.92558L2.64012 4.20337C2.70092 4.11237 2.77904 4.03425 2.87003 3.97345L2.59225 3.55771ZM7.99967 14.6663H8.49967V12.6663H7.99967H7.49967V14.6663H7.99967ZM7.99967 7.99967H8.49967V6.66634H7.99967H7.49967V7.99967H7.99967ZM7.99967 6.66634H8.49967V5.33301H7.99967H7.49967V6.66634H7.99967ZM9.33301 6.66634V6.16634H7.99967V6.66634V7.16634H9.33301V6.66634ZM7.99967 6.66634V6.16634H6.66634V6.66634V7.16634H7.99967V6.66634Z" fill="white"/>
</svg>
