<svg width="16" height="16" viewBox="0 0 16 16" fill="none" xmlns="http://www.w3.org/2000/svg">
<path d="M14.6654 15.1673C14.9415 15.1673 15.1654 14.9435 15.1654 14.6673C15.1654 14.3912 14.9415 14.1673 14.6654 14.1673V14.6673V15.1673ZM1.33203 14.1673C1.05589 14.1673 0.832031 14.3912 0.832031 14.6673C0.832031 14.9435 1.05589 15.1673 1.33203 15.1673V14.6673V14.1673ZM10.9415 1.72451L10.588 2.07806V2.07806L10.9415 1.72451ZM13.4061 3.55869L13.1283 3.97443V3.97443L13.4061 3.55869ZM13.774 3.92656L13.3583 4.20434V4.20434L13.774 3.92656ZM2.59127 3.55869L2.86906 3.97443L2.86906 3.97443L2.59127 3.55869ZM2.22341 3.92656L2.63914 4.20434L2.63914 4.20434L2.22341 3.92656ZM7.4987 14.6673C7.4987 14.9435 7.72256 15.1673 7.9987 15.1673C8.27484 15.1673 8.4987 14.9435 8.4987 14.6673H7.9987H7.4987ZM8.4987 12.6673C8.4987 12.3912 8.27484 12.1673 7.9987 12.1673C7.72256 12.1673 7.4987 12.3912 7.4987 12.6673H7.9987H8.4987ZM7.4987 8.00065C7.4987 8.27679 7.72256 8.50065 7.9987 8.50065C8.27484 8.50065 8.4987 8.27679 8.4987 8.00065H7.9987H7.4987ZM8.4987 5.33398C8.4987 5.05784 8.27484 4.83398 7.9987 4.83398C7.72256 4.83398 7.4987 5.05784 7.4987 5.33398H7.9987H8.4987ZM9.33203 7.16732C9.60817 7.16732 9.83203 6.94346 9.83203 6.66732C9.83203 6.39117 9.60817 6.16732 9.33203 6.16732V6.66732V7.16732ZM6.66536 6.16732C6.38922 6.16732 6.16536 6.39117 6.16536 6.66732C6.16536 6.94346 6.38922 7.16732 6.66536 7.16732V6.66732V6.16732ZM14.6654 14.6673V14.1673H1.33203V14.6673V15.1673H14.6654V14.6673ZM7.33203 1.33398V1.83398H8.66536V1.33398V0.833984H7.33203V1.33398ZM11.332 4.00065H10.832V14.6673H11.332H11.832V4.00065H11.332ZM4.66536 14.6673H5.16536V4.00065H4.66536H4.16536V14.6673H4.66536ZM8.66536 1.33398V1.83398C9.30804 1.83398 9.73975 1.83505 10.0618 1.87834C10.3694 1.9197 10.5011 1.99118 10.588 2.07806L10.9415 1.72451L11.2951 1.37096C10.9914 1.06731 10.6135 0.943528 10.195 0.887259C9.79087 0.832923 9.27977 0.833984 8.66536 0.833984V1.33398ZM11.332 4.00065H11.832C11.832 3.38625 11.8331 2.87514 11.7788 2.471C11.7225 2.05247 11.5987 1.6746 11.2951 1.37096L10.9415 1.72451L10.588 2.07806C10.6748 2.16494 10.7463 2.2966 10.7877 2.60425C10.831 2.92627 10.832 3.35798 10.832 4.00065H11.332ZM7.33203 1.33398V0.833984C6.71763 0.833984 6.20652 0.832923 5.80238 0.887259C5.38385 0.943528 5.00598 1.06731 4.70234 1.37096L5.05589 1.72451L5.40944 2.07806C5.49632 1.99118 5.62798 1.9197 5.93563 1.87834C6.25765 1.83505 6.68936 1.83398 7.33203 1.83398V1.33398ZM4.66536 4.00065H5.16536C5.16536 3.35798 5.16643 2.92627 5.20972 2.60425C5.25108 2.2966 5.32256 2.16494 5.40944 2.07806L5.05589 1.72451L4.70234 1.37096C4.39869 1.6746 4.27491 2.05247 4.21864 2.471C4.1643 2.87514 4.16536 3.38625 4.16536 4.00065H4.66536ZM13.9987 5.66732H13.4987V14.6673H13.9987H14.4987V5.66732H13.9987ZM11.6654 3.33398V3.83398C12.1439 3.83398 12.4652 3.83459 12.7101 3.85951C12.9467 3.88357 13.056 3.92612 13.1283 3.97443L13.4061 3.55869L13.6839 3.14296C13.4199 2.96656 13.127 2.89675 12.8114 2.86464C12.5041 2.83338 12.1231 2.83398 11.6654 2.83398V3.33398ZM13.9987 5.66732H14.4987C14.4987 5.20957 14.4993 4.82862 14.468 4.52133C14.4359 4.20568 14.3661 3.91277 14.1897 3.64877L13.774 3.92656L13.3583 4.20434C13.4066 4.27664 13.4491 4.38596 13.4732 4.62254C13.4981 4.86747 13.4987 5.18876 13.4987 5.66732H13.9987ZM13.4061 3.55869L13.1283 3.97443C13.2193 4.03522 13.2975 4.11335 13.3583 4.20434L13.774 3.92656L14.1897 3.64877C14.056 3.44859 13.8841 3.27671 13.6839 3.14296L13.4061 3.55869ZM1.9987 5.66732H1.4987V14.6673H1.9987H2.4987V5.66732H1.9987ZM4.33203 3.33398V2.83398C3.87428 2.83398 3.49334 2.83338 3.18604 2.86464C2.8704 2.89675 2.57748 2.96656 2.31349 3.14296L2.59127 3.55869L2.86906 3.97443C2.94136 3.92612 3.05067 3.88357 3.28725 3.85951C3.53219 3.83459 3.85347 3.83398 4.33203 3.83398V3.33398ZM1.9987 5.66732H2.4987C2.4987 5.18876 2.4993 4.86747 2.52422 4.62254C2.54829 4.38596 2.59083 4.27664 2.63914 4.20434L2.22341 3.92656L1.80767 3.64877C1.63127 3.91277 1.56146 4.20568 1.52935 4.52133C1.49809 4.82862 1.4987 5.20957 1.4987 5.66732H1.9987ZM2.59127 3.55869L2.31349 3.14296C2.1133 3.27671 1.94143 3.44859 1.80767 3.64877L2.22341 3.92656L2.63914 4.20434C2.69994 4.11335 2.77806 4.03523 2.86906 3.97443L2.59127 3.55869ZM7.9987 14.6673H8.4987V12.6673H7.9987H7.4987V14.6673H7.9987ZM7.9987 8.00065H8.4987V5.33398H7.9987H7.4987V8.00065H7.9987ZM9.33203 6.66732V6.16732H6.66536V6.66732V7.16732H9.33203V6.66732Z" fill="#626060"/>
</svg>
