<svg width="16" height="16" viewBox="0 0 16 16" fill="none" xmlns="http://www.w3.org/2000/svg">
<path d="M10.668 4.00065C10.668 5.47341 9.47406 6.66732 8.0013 6.66732C6.52854 6.66732 5.33464 5.47341 5.33464 4.00065C5.33464 2.52789 6.52854 1.33398 8.0013 1.33398C9.47406 1.33398 10.668 2.52789 10.668 4.00065Z" fill="#96BFFF"/>
<path d="M13.3346 11.6673C13.3346 13.3242 13.3346 14.6673 8.0013 14.6673C2.66797 14.6673 2.66797 13.3242 2.66797 11.6673C2.66797 10.0105 5.05578 8.66732 8.0013 8.66732C10.9468 8.66732 13.3346 10.0105 13.3346 11.6673Z" fill="#96BFFF"/>
<path d="M10.668 4.00065C10.668 5.47341 9.47406 6.66732 8.0013 6.66732C6.52854 6.66732 5.33464 5.47341 5.33464 4.00065C5.33464 2.52789 6.52854 1.33398 8.0013 1.33398C9.47406 1.33398 10.668 2.52789 10.668 4.00065Z" stroke="white"/>
<path d="M13.3346 11.6673C13.3346 13.3242 13.3346 14.6673 8.0013 14.6673C2.66797 14.6673 2.66797 13.3242 2.66797 11.6673C2.66797 10.0105 5.05578 8.66732 8.0013 8.66732C10.9468 8.66732 13.3346 10.0105 13.3346 11.6673Z" stroke="white"/>
</svg>
