<svg width="28" height="28" viewBox="0 0 28 28" fill="none" xmlns="http://www.w3.org/2000/svg">
<path d="M21.8333 13.8333C21.8333 18.2516 18.2516 21.8333 13.8333 21.8333C9.41505 21.8333 5.83333 18.2516 5.83333 13.8333C5.83333 9.41505 9.41505 5.83333 13.8333 5.83333C18.2516 5.83333 21.8333 9.41505 21.8333 13.8333Z" fill="#96BFFF"/>
<path d="M13.8333 0.5V1.83333M13.8333 25.8333V27.1667M27.1667 13.8333H25.8333M1.83333 13.8333H0.5M23.2611 4.4056L22.7373 4.92938M4.92904 22.7376L4.40525 23.2614M23.2611 23.2611L22.7373 22.7373M4.92904 4.92904L4.40525 4.40525M21.8333 13.8333C21.8333 18.2516 18.2516 21.8333 13.8333 21.8333C9.41505 21.8333 5.83333 18.2516 5.83333 13.8333C5.83333 9.41505 9.41505 5.83333 13.8333 5.83333C18.2516 5.83333 21.8333 9.41505 21.8333 13.8333Z" stroke="#424242" stroke-linecap="round"/>
</svg>
