<svg width="28" height="28" viewBox="0 0 28 28" fill="none" xmlns="http://www.w3.org/2000/svg">
<path d="M13.8333 5.83333C9.41505 5.83333 5.83333 9.41505 5.83333 13.8333C5.83333 15.8622 6.58861 17.7147 7.83333 19.125H19.8333C21.0781 17.7147 21.8333 15.8622 21.8333 13.8333C21.8333 9.41505 18.2516 5.83333 13.8333 5.83333Z" fill="#96BFFF"/>
<path d="M8.5 26.6667C8.22386 26.6667 8 26.8905 8 27.1667C8 27.4428 8.22386 27.6667 8.5 27.6667V27.1667V26.6667ZM19.1667 27.6667C19.4428 27.6667 19.6667 27.4428 19.6667 27.1667C19.6667 26.8905 19.4428 26.6667 19.1667 26.6667V27.1667V27.6667ZM4.5 22.6667C4.22386 22.6667 4 22.8905 4 23.1667C4 23.4428 4.22386 23.6667 4.5 23.6667V23.1667V22.6667ZM23.1667 23.6667C23.4428 23.6667 23.6667 23.4428 23.6667 23.1667C23.6667 22.8905 23.4428 22.6667 23.1667 22.6667V23.1667V23.6667ZM0.5 18.6667C0.223858 18.6667 0 18.8905 0 19.1667C0 19.4428 0.223858 19.6667 0.5 19.6667V19.1667V18.6667ZM27.1667 19.6667C27.4428 19.6667 27.6667 19.4428 27.6667 19.1667C27.6667 18.8905 27.4428 18.6667 27.1667 18.6667V19.1667V19.6667ZM19.8333 19.125V19.625H20.0589L20.2082 19.4558L19.8333 19.125ZM7.83333 19.125L7.45846 19.4558L7.60774 19.625H7.83333V19.125ZM13.8333 15.1667L13.4798 15.5202C13.675 15.7155 13.9916 15.7155 14.1869 15.5202L13.8333 15.1667ZM16.8536 12.8536C17.0488 12.6583 17.0488 12.3417 16.8536 12.1464C16.6583 11.9512 16.3417 11.9512 16.1464 12.1464L16.5 12.5L16.8536 12.8536ZM11.5202 12.1464C11.325 11.9512 11.0084 11.9512 10.8131 12.1464C10.6179 12.3417 10.6179 12.6583 10.8131 12.8536L11.1667 12.5L11.5202 12.1464ZM14.3333 0.5C14.3333 0.223858 14.1095 0 13.8333 0C13.5572 0 13.3333 0.223858 13.3333 0.5H13.8333H14.3333ZM13.3333 1.83333C13.3333 2.10948 13.5572 2.33333 13.8333 2.33333C14.1095 2.33333 14.3333 2.10948 14.3333 1.83333H13.8333H13.3333ZM27.1667 14.3333C27.4428 14.3333 27.6667 14.1095 27.6667 13.8333C27.6667 13.5572 27.4428 13.3333 27.1667 13.3333V13.8333V14.3333ZM25.8333 13.3333C25.5572 13.3333 25.3333 13.5572 25.3333 13.8333C25.3333 14.1095 25.5572 14.3333 25.8333 14.3333V13.8333V13.3333ZM1.83333 14.3333C2.10948 14.3333 2.33333 14.1095 2.33333 13.8333C2.33333 13.5572 2.10948 13.3333 1.83333 13.3333V13.8333V14.3333ZM0.5 13.3333C0.223858 13.3333 0 13.5572 0 13.8333C0 14.1095 0.223858 14.3333 0.5 14.3333V13.8333V13.3333ZM23.6146 4.75915C23.8099 4.56389 23.8099 4.24731 23.6146 4.05205C23.4194 3.85678 23.1028 3.85678 22.9075 4.05205L23.2611 4.4056L23.6146 4.75915ZM22.3837 4.57583C22.1885 4.77109 22.1885 5.08767 22.3837 5.28293C22.579 5.4782 22.8956 5.4782 23.0908 5.28294L22.7373 4.92938L22.3837 4.57583ZM4.57548 5.28259C4.77074 5.47785 5.08733 5.47785 5.28259 5.28259C5.47785 5.08733 5.47785 4.77074 5.28259 4.57548L4.92904 4.92904L4.57548 5.28259ZM4.75881 4.0517C4.56354 3.85644 4.24696 3.85644 4.0517 4.0517C3.85644 4.24696 3.85644 4.56354 4.0517 4.75881L4.40525 4.40525L4.75881 4.0517ZM8.5 27.1667V27.6667H19.1667V27.1667V26.6667H8.5V27.1667ZM4.5 23.1667V23.6667H23.1667V23.1667V22.6667H4.5V23.1667ZM0.5 19.1667V19.6667H27.1667V19.1667V18.6667H0.5V19.1667ZM5.83333 13.8333H6.33333C6.33333 9.6912 9.6912 6.33333 13.8333 6.33333V5.83333V5.33333C9.13891 5.33333 5.33333 9.13891 5.33333 13.8333H5.83333ZM13.8333 5.83333V6.33333C17.9755 6.33333 21.3333 9.6912 21.3333 13.8333H21.8333H22.3333C22.3333 9.13891 18.5278 5.33333 13.8333 5.33333V5.83333ZM21.8333 13.8333H21.3333C21.3333 15.7358 20.6257 17.4717 19.4585 18.7941L19.8333 19.125L20.2082 19.4558C21.5305 17.9577 22.3333 15.9887 22.3333 13.8333H21.8333ZM7.83333 19.125L8.2082 18.7941C7.041 17.4717 6.33333 15.7358 6.33333 13.8333H5.83333H5.33333C5.33333 15.9887 6.13621 17.9577 7.45846 19.4558L7.83333 19.125ZM19.8333 19.125V18.625H7.83333V19.125V19.625H19.8333V19.125ZM13.8333 5.83333H13.3333V15.1667H13.8333H14.3333V5.83333H13.8333ZM13.8333 15.1667L14.1869 15.5202L16.8536 12.8536L16.5 12.5L16.1464 12.1464L13.4798 14.8131L13.8333 15.1667ZM13.8333 15.1667L14.1869 14.8131L11.5202 12.1464L11.1667 12.5L10.8131 12.8536L13.4798 15.5202L13.8333 15.1667ZM13.8333 0.5H13.3333V1.83333H13.8333H14.3333V0.5H13.8333ZM27.1667 13.8333V13.3333H25.8333V13.8333V14.3333H27.1667V13.8333ZM1.83333 13.8333V13.3333H0.5V13.8333V14.3333H1.83333V13.8333ZM23.2611 4.4056L22.9075 4.05205L22.3837 4.57583L22.7373 4.92938L23.0908 5.28294L23.6146 4.75915L23.2611 4.4056ZM4.92904 4.92904L5.28259 4.57548L4.75881 4.0517L4.40525 4.40525L4.0517 4.75881L4.57548 5.28259L4.92904 4.92904Z" fill="#424242"/>
</svg>
