<svg width="28" height="28" viewBox="0 0 28 28" fill="none" xmlns="http://www.w3.org/2000/svg">
<path d="M13.8333 27.1667C21.1971 27.1667 27.1667 21.1971 27.1667 13.8333C27.1667 13.2164 26.242 13.1144 25.923 13.6425C24.4053 16.1542 21.6487 17.8333 18.5 17.8333C13.7135 17.8333 9.83333 13.9531 9.83333 9.16667C9.83333 6.01794 11.5125 3.2614 14.0242 1.74368C14.5522 1.42462 14.4503 0.5 13.8333 0.5C6.46954 0.5 0.5 6.46954 0.5 13.8333C0.5 21.1971 6.46954 27.1667 13.8333 27.1667Z" fill="#96BFFF"/>
<path d="M15.8333 8C15.5572 8 15.3333 8.22386 15.3333 8.5C15.3333 8.77614 15.5572 9 15.8333 9V8.5V8ZM19.8333 8.5L20.1869 8.85355C20.3299 8.71055 20.3727 8.49549 20.2953 8.30866C20.2179 8.12182 20.0356 8 19.8333 8V8.5ZM15.8333 12.5L15.4798 12.1464C15.3368 12.2894 15.294 12.5045 15.3714 12.6913C15.4488 12.8782 15.6311 13 15.8333 13V12.5ZM19.8333 13C20.1095 13 20.3333 12.7761 20.3333 12.5C20.3333 12.2239 20.1095 12 19.8333 12V12.5V13ZM21.8333 0C21.5572 0 21.3333 0.223858 21.3333 0.5C21.3333 0.776142 21.5572 1 21.8333 1V0.5V0ZM27.1667 0.5L27.5202 0.853553C27.6632 0.710554 27.706 0.495495 27.6286 0.308658C27.5512 0.121821 27.3689 0 27.1667 0V0.5ZM21.8333 5.83333L21.4798 5.47978C21.3368 5.62278 21.294 5.83784 21.3714 6.02467C21.4488 6.21151 21.6311 6.33333 21.8333 6.33333V5.83333ZM27.1667 6.33333C27.4428 6.33333 27.6667 6.10948 27.6667 5.83333C27.6667 5.55719 27.4428 5.33333 27.1667 5.33333V5.83333V6.33333ZM25.923 13.6425L25.495 13.3839V13.3839L25.923 13.6425ZM14.0242 1.74368L13.7656 1.31574V1.31574L14.0242 1.74368ZM15.8333 8.5V9H19.8333V8.5V8H15.8333V8.5ZM19.8333 8.5L19.4798 8.14645L15.4798 12.1464L15.8333 12.5L16.1869 12.8536L20.1869 8.85355L19.8333 8.5ZM15.8333 12.5V13H19.8333V12.5V12H15.8333V12.5ZM21.8333 0.5V1H27.1667V0.5V0H21.8333V0.5ZM27.1667 0.5L26.8131 0.146447L21.4798 5.47978L21.8333 5.83333L22.1869 6.18689L27.5202 0.853553L27.1667 0.5ZM21.8333 5.83333V6.33333H27.1667V5.83333V5.33333H21.8333V5.83333ZM27.1667 13.8333H26.6667C26.6667 20.921 20.921 26.6667 13.8333 26.6667V27.1667V27.6667C21.4733 27.6667 27.6667 21.4733 27.6667 13.8333H27.1667ZM13.8333 27.1667V26.6667C6.74568 26.6667 1 20.921 1 13.8333H0.5H0C0 21.4733 6.19339 27.6667 13.8333 27.6667V27.1667ZM0.5 13.8333H1C1 6.74568 6.74568 1 13.8333 1V0.5V0C6.19339 0 0 6.19339 0 13.8333H0.5ZM18.5 17.8333V17.3333C13.9897 17.3333 10.3333 13.677 10.3333 9.16667H9.83333H9.33333C9.33333 14.2293 13.4374 18.3333 18.5 18.3333V17.8333ZM25.923 13.6425L25.495 13.3839C24.0641 15.752 21.4665 17.3333 18.5 17.3333V17.8333V18.3333C21.831 18.3333 24.7464 16.5564 26.3509 13.901L25.923 13.6425ZM9.83333 9.16667H10.3333C10.3333 6.20019 11.9147 3.60257 14.2828 2.17162L14.0242 1.74368L13.7656 1.31574C11.1103 2.92023 9.33333 5.83569 9.33333 9.16667H9.83333ZM13.8333 0.5V1C13.8468 1 13.8488 1.00227 13.8443 1.00034C13.8426 0.999593 13.8407 0.998578 13.8391 0.997461C13.8376 0.996375 13.8369 0.995671 13.8371 0.99585C13.8386 0.997408 13.8558 1.0183 13.8626 1.06911C13.8781 1.18386 13.8262 1.27913 13.7656 1.31574L14.0242 1.74368L14.2828 2.17162C14.7502 1.88918 14.9113 1.3626 14.8536 0.935274C14.7944 0.496417 14.4653 0 13.8333 0V0.5ZM25.923 13.6425L26.3509 13.901C26.3875 13.8405 26.4828 13.7885 26.5976 13.804C26.6484 13.8109 26.6693 13.8281 26.6708 13.8296C26.671 13.8297 26.6703 13.8291 26.6692 13.8275C26.6681 13.8259 26.6671 13.8241 26.6663 13.8223C26.6644 13.8178 26.6667 13.8198 26.6667 13.8333H27.1667H27.6667C27.6667 13.2013 27.1702 12.8723 26.7314 12.813C26.3041 12.7553 25.7775 12.9165 25.495 13.3839L25.923 13.6425Z" fill="#424242"/>
</svg>
