<svg width="24" height="24" viewBox="0 0 24 24" fill="none" xmlns="http://www.w3.org/2000/svg">
<path d="M5 12H5.5V12H5ZM15.5 13C15.5 12.7239 15.2761 12.5 15 12.5C14.7239 12.5 14.5 12.7239 14.5 13H15.5ZM14.5 19C14.5 19.2761 14.7239 19.5 15 19.5C15.2761 19.5 15.5 19.2761 15.5 19H14.5ZM18 16.5C18.2761 16.5 18.5 16.2761 18.5 16C18.5 15.7239 18.2761 15.5 18 15.5V16.5ZM12 15.5C11.7239 15.5 11.5 15.7239 11.5 16C11.5 16.2761 11.7239 16.5 12 16.5V15.5ZM5 2.5H19V1.5H5V2.5ZM19 7.5H5V8.5H19V7.5ZM5 7.5C3.61929 7.5 2.5 6.38071 2.5 5H1.5C1.5 6.933 3.067 8.5 5 8.5V7.5ZM21.5 5C21.5 6.38071 20.3807 7.5 19 7.5V8.5C20.933 8.5 22.5 6.933 22.5 5H21.5ZM19 2.5C20.3807 2.5 21.5 3.61929 21.5 5H22.5C22.5 3.067 20.933 1.5 19 1.5V2.5ZM5 1.5C3.067 1.5 1.5 3.067 1.5 5H2.5C2.5 3.61929 3.61929 2.5 5 2.5V1.5ZM5.5 12L5.5 8H4.5L4.5 12H5.5ZM9 15.5C7.067 15.5 5.5 13.933 5.5 12H4.5C4.5 14.4853 6.51472 16.5 9 16.5V15.5ZM20.5 16C20.5 19.0376 18.0376 21.5 15 21.5V22.5C18.5899 22.5 21.5 19.5899 21.5 16H20.5ZM15 21.5C11.9624 21.5 9.5 19.0376 9.5 16H8.5C8.5 19.5899 11.4101 22.5 15 22.5V21.5ZM9.5 16C9.5 12.9624 11.9624 10.5 15 10.5V9.5C11.4101 9.5 8.5 12.4101 8.5 16H9.5ZM15 10.5C18.0376 10.5 20.5 12.9624 20.5 16H21.5C21.5 12.4101 18.5899 9.5 15 9.5V10.5ZM14.5 13V16H15.5V13H14.5ZM14.5 16V19H15.5V16H14.5ZM18 15.5H15V16.5H18V15.5ZM15 15.5H12V16.5H15V15.5Z" fill="#424242"/>
</svg>
