<svg width="24" height="24" viewBox="0 0 24 24" fill="none" xmlns="http://www.w3.org/2000/svg">
<path d="M3.46447 20.5355L3.11091 20.8891H3.11091L3.46447 20.5355ZM20.5355 3.46447L20.8891 3.11091V3.11091L20.5355 3.46447ZM6.36207 15.4552C6.17163 15.2552 5.85514 15.2475 5.65517 15.4379C5.45521 15.6284 5.44749 15.9449 5.63793 16.1448L6.36207 15.4552ZM7.14286 17L6.78079 17.3448C6.87516 17.4439 7.00602 17.5 7.14286 17.5C7.2797 17.5 7.41055 17.4439 7.50493 17.3448L7.14286 17ZM10.3621 14.3448C10.5525 14.1449 10.5448 13.8284 10.3448 13.6379C10.1449 13.4475 9.82837 13.4552 9.63793 13.6552L10.3621 14.3448ZM6.36207 8.45517C6.17163 8.25521 5.85514 8.24749 5.65517 8.43793C5.45521 8.62837 5.44749 8.94486 5.63793 9.14483L6.36207 8.45517ZM7.14286 10L6.78079 10.3448C6.87516 10.4439 7.00602 10.5 7.14286 10.5C7.2797 10.5 7.41055 10.4439 7.50493 10.3448L7.14286 10ZM10.3621 7.34483C10.5525 7.14486 10.5448 6.82837 10.3448 6.63793C10.1449 6.44749 9.82837 6.45521 9.63793 6.65517L10.3621 7.34483ZM21.48 9.01143C21.4864 9.2875 21.7153 9.50618 21.9913 9.49987C22.2674 9.49356 22.4861 9.26464 22.4798 8.98857L21.48 9.01143ZM8.98857 22.4798C9.26464 22.4861 9.49356 22.2674 9.49987 21.9913C9.50618 21.7153 9.2875 21.4864 9.01143 21.48L8.98857 22.4798ZM15.3392 15.9708C15.063 15.9708 14.8392 16.1946 14.8392 16.4708C14.8392 16.7469 15.063 16.9708 15.3392 16.9708V15.9708ZM20.6023 16.9708C20.8785 16.9708 21.1023 16.7469 21.1023 16.4708C21.1023 16.1946 20.8785 15.9708 20.6023 15.9708V16.9708ZM17.4708 19.1023C17.4708 19.3785 17.6946 19.6023 17.9708 19.6023C18.2469 19.6023 18.4708 19.3785 18.4708 19.1023H17.4708ZM18.4708 13.8392C18.4708 13.563 18.2469 13.3392 17.9708 13.3392C17.6946 13.3392 17.4708 13.563 17.4708 13.8392H18.4708ZM1.5 12C1.5 14.3429 1.49894 16.1504 1.68752 17.553C1.87803 18.97 2.2703 20.0485 3.11091 20.8891L3.81802 20.182C3.19417 19.5581 2.8542 18.7259 2.6786 17.4197C2.50106 16.0992 2.5 14.3712 2.5 12H1.5ZM12 2.5C14.3712 2.5 16.0992 2.50106 17.4197 2.6786C18.7259 2.8542 19.5581 3.19417 20.182 3.81802L20.8891 3.11091C20.0485 2.2703 18.97 1.87803 17.553 1.68752C16.1504 1.49894 14.3429 1.5 12 1.5V2.5ZM12 1.5C9.65711 1.5 7.84965 1.49894 6.44702 1.68752C5.03 1.87803 3.95153 2.2703 3.11091 3.11091L3.81802 3.81802C4.44187 3.19417 5.27414 2.8542 6.58026 2.6786C7.90077 2.50106 9.62884 2.5 12 2.5V1.5ZM2.5 12C2.5 9.62884 2.50106 7.90077 2.6786 6.58026C2.8542 5.27414 3.19417 4.44187 3.81802 3.81802L3.11091 3.11091C2.2703 3.95153 1.87803 5.03 1.68752 6.44702C1.49894 7.84965 1.5 9.65711 1.5 12H2.5ZM5.63793 16.1448L6.78079 17.3448L7.50493 16.6552L6.36207 15.4552L5.63793 16.1448ZM7.50493 17.3448L10.3621 14.3448L9.63793 13.6552L6.78079 16.6552L7.50493 17.3448ZM5.63793 9.14483L6.78079 10.3448L7.50493 9.65517L6.36207 8.45517L5.63793 9.14483ZM7.50493 10.3448L10.3621 7.34483L9.63793 6.65517L6.78079 9.65517L7.50493 10.3448ZM22.4798 8.98857C22.4164 6.21574 22.1616 4.38341 20.8891 3.11091L20.182 3.81802C21.1374 4.7734 21.4158 6.20175 21.48 9.01143L22.4798 8.98857ZM9.01143 21.48C6.20175 21.4158 4.7734 21.1374 3.81802 20.182L3.11091 20.8891C4.38341 22.1616 6.21574 22.4164 8.98857 22.4798L9.01143 21.48ZM22.5 16.5C22.5 18.9853 20.4853 21 18 21V22C21.0376 22 23.5 19.5376 23.5 16.5H22.5ZM18 21C15.5147 21 13.5 18.9853 13.5 16.5H12.5C12.5 19.5376 14.9624 22 18 22V21ZM13.5 16.5C13.5 14.0147 15.5147 12 18 12V11C14.9624 11 12.5 13.4624 12.5 16.5H13.5ZM18 12C20.4853 12 22.5 14.0147 22.5 16.5H23.5C23.5 13.4624 21.0376 11 18 11V12ZM15.3392 16.9708H17.9708V15.9708H15.3392V16.9708ZM17.9708 16.9708H20.6023V15.9708H17.9708V16.9708ZM18.4708 19.1023V16.4708H17.4708V19.1023H18.4708ZM18.4708 16.4708V13.8392H17.4708V16.4708H18.4708Z" fill="#424242"/>
</svg>
