<svg width="24" height="24" viewBox="0 0 24 24" fill="none" xmlns="http://www.w3.org/2000/svg">
<path d="M18 12.5C18.2761 12.5 18.5 12.2762 18.5 12C18.5 11.7239 18.2761 11.5 18 11.5V12.5ZM6 11.5C5.72386 11.5 5.5 11.7239 5.5 12C5.5 12.2762 5.72386 12.5 6 12.5V11.5ZM12.5 6C12.5 5.72386 12.2761 5.5 12 5.5C11.7239 5.5 11.5 5.72386 11.5 6L12.5 6ZM11.5 18C11.5 18.2761 11.7239 18.5 12 18.5C12.2761 18.5 12.5 18.2761 12.5 18H11.5ZM18 11.5H12V12.5H18V11.5ZM12 11.5H6V12.5H12V11.5ZM11.5 6L11.5 12H12.5L12.5 6L11.5 6ZM11.5 12V18H12.5V12H11.5Z" fill="#424242"/>
</svg>
