<svg width="24" height="24" viewBox="0 0 24 24" fill="none" xmlns="http://www.w3.org/2000/svg">
<path d="M15 13.5C15.2761 13.5 15.5 13.2762 15.5 13C15.5 12.7239 15.2761 12.5 15 12.5V13.5ZM9 12.5C8.72386 12.5 8.5 12.7239 8.5 13C8.5 13.2762 8.72386 13.5 9 13.5V12.5ZM12.5 10C12.5 9.72386 12.2761 9.5 12 9.5C11.7239 9.5 11.5 9.72386 11.5 10H12.5ZM11.5 16C11.5 16.2761 11.7239 16.5 12 16.5C12.2761 16.5 12.5 16.2761 12.5 16H11.5ZM3.235 4.076C3.00083 4.22235 2.92965 4.53083 3.076 4.765C3.22235 4.99917 3.53083 5.07035 3.765 4.924L3.235 4.076ZM7.76502 2.424C7.99919 2.27765 8.07038 1.96917 7.92402 1.735C7.77767 1.50083 7.46919 1.42965 7.23502 1.576L7.76502 2.424ZM20.235 4.924C20.4692 5.07035 20.7776 4.99917 20.924 4.765C21.0704 4.53083 20.9992 4.22236 20.765 4.076L20.235 4.924ZM16.765 1.576C16.5308 1.42965 16.2224 1.50083 16.076 1.735C15.9296 1.96917 16.0008 2.27764 16.235 2.424L16.765 1.576ZM20.5 13C20.5 17.6944 16.6944 21.5 12 21.5V22.5C17.2467 22.5 21.5 18.2467 21.5 13H20.5ZM12 21.5C7.30558 21.5 3.5 17.6944 3.5 13H2.5C2.5 18.2467 6.75329 22.5 12 22.5V21.5ZM3.5 13C3.5 8.30558 7.30558 4.5 12 4.5V3.5C6.75329 3.5 2.5 7.75329 2.5 13H3.5ZM12 4.5C16.6944 4.5 20.5 8.30558 20.5 13H21.5C21.5 7.75329 17.2467 3.5 12 3.5V4.5ZM15 12.5H12V13.5H15V12.5ZM12 12.5H9V13.5H12V12.5ZM11.5 10L11.5 13H12.5L12.5 10H11.5ZM11.5 13V16H12.5V13H11.5ZM3.765 4.924L7.76502 2.424L7.23502 1.576L3.235 4.076L3.765 4.924ZM20.765 4.076L16.765 1.576L16.235 2.424L20.235 4.924L20.765 4.076Z" fill="#424242"/>
</svg>
