<svg width="24" height="24" viewBox="0 0 24 24" fill="none" xmlns="http://www.w3.org/2000/svg">
<path d="M13.768 15.4749C13.9633 15.6701 14.2798 15.6701 14.4751 15.4749C14.6704 15.2796 14.6704 14.963 14.4751 14.7678L13.768 15.4749ZM10.2325 10.5251C10.0372 10.3299 9.72061 10.3299 9.52535 10.5251C9.33009 10.7204 9.33009 11.037 9.52535 11.2322L10.2325 10.5251ZM14.4751 11.2322C14.6704 11.037 14.6704 10.7204 14.4751 10.5251C14.2799 10.3298 13.9633 10.3298 13.768 10.5251L14.4751 11.2322ZM9.52537 14.7677C9.33011 14.963 9.33011 15.2796 9.52537 15.4749C9.72063 15.6701 10.0372 15.6701 10.2325 15.4749L9.52537 14.7677ZM3.235 4.076C3.00083 4.22235 2.92965 4.53083 3.076 4.765C3.22235 4.99917 3.53083 5.07035 3.765 4.924L3.235 4.076ZM7.76502 2.424C7.99919 2.27765 8.07038 1.96917 7.92402 1.735C7.77767 1.50083 7.46919 1.42965 7.23502 1.576L7.76502 2.424ZM20.235 4.924C20.4692 5.07035 20.7776 4.99917 20.924 4.765C21.0704 4.53083 20.9992 4.22236 20.765 4.076L20.235 4.924ZM16.765 1.576C16.5308 1.42965 16.2224 1.50083 16.076 1.735C15.9296 1.96917 16.0008 2.27764 16.235 2.424L16.765 1.576ZM20.5 13C20.5 17.6944 16.6944 21.5 12 21.5V22.5C17.2467 22.5 21.5 18.2467 21.5 13H20.5ZM12 21.5C7.30558 21.5 3.5 17.6944 3.5 13H2.5C2.5 18.2467 6.75329 22.5 12 22.5V21.5ZM3.5 13C3.5 8.30558 7.30558 4.5 12 4.5V3.5C6.75329 3.5 2.5 7.75329 2.5 13H3.5ZM12 4.5C16.6944 4.5 20.5 8.30558 20.5 13H21.5C21.5 7.75329 17.2467 3.5 12 3.5V4.5ZM14.4751 14.7678L12.3538 12.6464L11.6467 13.3536L13.768 15.4749L14.4751 14.7678ZM12.3538 12.6464L10.2325 10.5251L9.52535 11.2322L11.6467 13.3536L12.3538 12.6464ZM13.768 10.5251L11.6467 12.6464L12.3538 13.3536L14.4751 11.2322L13.768 10.5251ZM11.6467 12.6464L9.52537 14.7677L10.2325 15.4749L12.3538 13.3536L11.6467 12.6464ZM3.765 4.924L7.76502 2.424L7.23502 1.576L3.235 4.076L3.765 4.924ZM20.765 4.076L16.765 1.576L16.235 2.424L20.235 4.924L20.765 4.076Z" fill="#424242"/>
</svg>
