<svg width="24" height="24" viewBox="0 0 24 24" fill="none" xmlns="http://www.w3.org/2000/svg">
<path d="M13.0261 10.2749L13.3134 9.86573L13.0261 10.2749ZM13.0261 15.7251L13.3134 16.1343V16.1343L13.0261 15.7251ZM9.5 13H9H9.5ZM12.2419 9.76679L11.9821 10.194V10.194L12.2419 9.76679ZM9.54038 11.7778L9.04122 11.749L9.54038 11.7778ZM12.2419 16.2332L11.9821 15.806V15.806L12.2419 16.2332ZM9.54038 14.2222L9.04121 14.251L9.54038 14.2222ZM13.8876 10.9348L13.5716 11.3222V11.3222L13.8876 10.9348ZM13.8876 15.0652L14.2037 15.4526V15.4526L13.8876 15.0652ZM3.235 4.076C3.00083 4.22235 2.92965 4.53083 3.076 4.765C3.22235 4.99917 3.53083 5.07035 3.765 4.924L3.235 4.076ZM7.76502 2.424C7.99919 2.27765 8.07038 1.96917 7.92402 1.735C7.77767 1.50083 7.46919 1.42965 7.23502 1.576L7.76502 2.424ZM20.235 4.924C20.4692 5.07035 20.7776 4.99917 20.924 4.765C21.0704 4.53083 20.9992 4.22236 20.765 4.076L20.235 4.924ZM16.765 1.576C16.5308 1.42965 16.2224 1.50083 16.076 1.735C15.9296 1.96917 16.0008 2.27764 16.235 2.424L16.765 1.576ZM20.5 13C20.5 17.6944 16.6944 21.5 12 21.5V22.5C17.2467 22.5 21.5 18.2467 21.5 13H20.5ZM12 21.5C7.30558 21.5 3.5 17.6944 3.5 13H2.5C2.5 18.2467 6.75329 22.5 12 22.5V21.5ZM3.5 13C3.5 8.30558 7.30558 4.5 12 4.5V3.5C6.75329 3.5 2.5 7.75329 2.5 13H3.5ZM12 4.5C16.6944 4.5 20.5 8.30558 20.5 13H21.5C21.5 7.75329 17.2467 3.5 12 3.5V4.5ZM11.9821 10.194C12.2544 10.3595 12.5132 10.5257 12.7388 10.6841L13.3134 9.86573C13.0644 9.69087 12.7859 9.51239 12.5017 9.33958L11.9821 10.194ZM12.7388 10.6841C12.9961 10.8648 13.2803 11.0847 13.5716 11.3222L14.2037 10.5474C13.9014 10.3008 13.5971 10.0649 13.3134 9.86573L12.7388 10.6841ZM13.5716 14.6778C13.2803 14.9153 12.9961 15.1352 12.7388 15.3159L13.3134 16.1343C13.5971 15.9351 13.9014 15.6992 14.2037 15.4526L13.5716 14.6778ZM12.7388 15.3159C12.5133 15.4743 12.2544 15.6405 11.9821 15.806L12.5017 16.6604C12.7859 16.4876 13.0644 16.3091 13.3134 16.1343L12.7388 15.3159ZM10.0395 14.1933C10.0152 13.7716 10 13.3628 10 13H9C9 13.3885 9.01616 13.8178 9.04121 14.251L10.0395 14.1933ZM10 13C10 12.6372 10.0152 12.2284 10.0395 11.8067L9.04122 11.749C9.01616 12.1822 9 12.6115 9 13H10ZM12.5017 9.33958C11.9852 9.0255 11.5319 8.7469 11.1444 8.60771C10.9411 8.53469 10.7222 8.48644 10.4939 8.5034C10.2564 8.52106 10.0427 8.60678 9.85224 8.74973L10.4526 9.54947C10.5026 9.51191 10.5363 9.50302 10.568 9.50065C10.6091 9.4976 10.6814 9.50394 10.8063 9.54882C11.0753 9.64545 11.4262 9.85595 11.9821 10.194L12.5017 9.33958ZM10.0395 11.8067C10.0841 11.0363 10.1156 10.5096 10.1897 10.1274C10.2622 9.75323 10.3579 9.62057 10.4526 9.54947L9.85224 8.74973C9.46604 9.03964 9.29939 9.46536 9.20797 9.93717C9.11809 10.401 9.08408 11.0079 9.04122 11.749L10.0395 11.8067ZM11.9821 15.806C11.4262 16.144 11.0753 16.3546 10.8063 16.4512C10.6814 16.4961 10.6091 16.5024 10.568 16.4993C10.5363 16.497 10.5026 16.4881 10.4526 16.4505L9.85224 17.2503C10.0427 17.3932 10.2564 17.4789 10.4939 17.4966C10.7222 17.5136 10.9411 17.4653 11.1444 17.3923C11.5319 17.2531 11.9852 16.9745 12.5017 16.6604L11.9821 15.806ZM9.04121 14.251C9.08408 14.9921 9.11809 15.599 9.20797 16.0628C9.29939 16.5346 9.46604 16.9604 9.85224 17.2503L10.4526 16.4505C10.3579 16.3794 10.2622 16.2468 10.1897 15.8726C10.1156 15.4904 10.0841 14.9637 10.0395 14.1933L9.04121 14.251ZM13.5716 11.3222C14.1231 11.7722 14.4845 12.0694 14.7176 12.3408C14.9291 12.5871 15 12.7729 15 13H16C16 12.4773 15.8022 12.0689 15.4762 11.6893C15.1718 11.3348 14.727 10.9743 14.2037 10.5474L13.5716 11.3222ZM14.2037 15.4526C14.727 15.0257 15.1718 14.6652 15.4762 14.3107C15.8022 13.9311 16 13.5227 16 13H15C15 13.2271 14.9291 13.4129 14.7176 13.6592C14.4845 13.9306 14.1231 14.2278 13.5716 14.6778L14.2037 15.4526ZM3.765 4.924L7.76502 2.424L7.23502 1.576L3.235 4.076L3.765 4.924ZM20.765 4.076L16.765 1.576L16.235 2.424L20.235 4.924L20.765 4.076Z" fill="#424242"/>
</svg>
