<svg width="24" height="24" viewBox="0 0 24 24" fill="none" xmlns="http://www.w3.org/2000/svg">
<path d="M22 3.5C22.2761 3.5 22.5 3.27615 22.5 3C22.5 2.72386 22.2761 2.5 22 2.5V3.5ZM2 2.5C1.72386 2.5 1.5 2.72386 1.5 3C1.5 3.27614 1.72386 3.5 2 3.5L2 2.5ZM22 21.5C22.2761 21.5 22.5 21.2761 22.5 21C22.5 20.7239 22.2761 20.5 22 20.5V21.5ZM2 20.5C1.72386 20.5 1.5 20.7239 1.5 21C1.5 21.2761 1.72386 21.5 2 21.5L2 20.5ZM16 16V15.5V15.5V16ZM8 16V16.5V16.5V16ZM8 8V8.5V8.5V8ZM16 8V7.5V7.5V8ZM22 2.5L2 2.5L2 3.5L22 3.5V2.5ZM22 20.5L2 20.5L2 21.5L22 21.5V20.5ZM16 7.5H8V8.5H16V7.5ZM8 16.5H16V15.5H8V16.5ZM16 16.5C16.9287 16.5 17.6755 16.5011 18.2612 16.4223C18.8612 16.3416 19.3665 16.169 19.7678 15.7678L19.0607 15.0607C18.8762 15.2452 18.6171 15.3655 18.1279 15.4312C17.6244 15.4989 16.9569 15.5 16 15.5V16.5ZM19.5 12C19.5 12.9569 19.4989 13.6244 19.4312 14.1279C19.3655 14.6171 19.2452 14.8762 19.0607 15.0607L19.7678 15.7678C20.169 15.3665 20.3416 14.8612 20.4223 14.2612C20.5011 13.6755 20.5 12.9287 20.5 12H19.5ZM3.5 12C3.5 12.9287 3.49894 13.6755 3.57768 14.2612C3.65836 14.8612 3.83096 15.3665 4.23223 15.7678L4.93934 15.0607C4.75483 14.8762 4.63453 14.6171 4.56876 14.1279C4.50106 13.6244 4.5 12.9569 4.5 12H3.5ZM8 15.5C7.04306 15.5 6.37565 15.4989 5.87208 15.4312C5.3829 15.3655 5.12385 15.2452 4.93934 15.0607L4.23223 15.7678C4.63351 16.169 5.13876 16.3416 5.73883 16.4223C6.32452 16.5011 7.07133 16.5 8 16.5V15.5ZM8 7.5C7.07133 7.5 6.32452 7.49894 5.73883 7.57768C5.13876 7.65836 4.63351 7.83096 4.23223 8.23224L4.93934 8.93934C5.12385 8.75483 5.3829 8.63454 5.87208 8.56877C6.37565 8.50106 7.04306 8.5 8 8.5V7.5ZM4.5 12C4.5 11.0431 4.50106 10.3756 4.56876 9.87208C4.63453 9.3829 4.75483 9.12385 4.93934 8.93934L4.23223 8.23224C3.83096 8.63351 3.65836 9.13876 3.57768 9.73883C3.49894 10.3245 3.5 11.0713 3.5 12H4.5ZM16 8.5C16.9569 8.5 17.6244 8.50106 18.1279 8.56877C18.6171 8.63454 18.8762 8.75483 19.0607 8.93934L19.7678 8.23224C19.3665 7.83096 18.8612 7.65836 18.2612 7.57768C17.6755 7.49894 16.9287 7.5 16 7.5V8.5ZM20.5 12C20.5 11.0713 20.5011 10.3245 20.4223 9.73884C20.3416 9.13876 20.169 8.63351 19.7678 8.23224L19.0607 8.93934C19.2452 9.12385 19.3655 9.3829 19.4312 9.87208C19.4989 10.3756 19.5 11.0431 19.5 12H20.5Z" fill="#424242"/>
</svg>
