<svg width="24" height="24" viewBox="0 0 24 24" fill="none" xmlns="http://www.w3.org/2000/svg">
<path d="M2 20.5C1.72386 20.5 1.5 20.7239 1.5 21C1.5 21.2761 1.72386 21.5 2 21.5V20.5ZM22 21.5C22.2761 21.5 22.5 21.2761 22.5 21C22.5 20.7239 22.2761 20.5 22 20.5V21.5ZM10 14.5H10.5H10ZM9.79904 16.25L9.36602 16H9.36602L9.79904 16.25ZM9.25 16.799L9.5 17.2321V17.2321L9.25 16.799ZM9.25 3.20096L9 3.63397V3.63397L9.25 3.20096ZM10 5.5H9.5H10ZM9.79904 3.75L10.232 3.5V3.5L9.79904 3.75ZM5 5.5H4.5H5ZM5.20096 3.75L5.63397 4V4L5.20096 3.75ZM5.75 3.20096L5.5 2.76795V2.76795L5.75 3.20096ZM5 14.5H5.5H5ZM5.20096 16.25L4.76795 16.5V16.5L5.20096 16.25ZM5.75 16.799L6 16.366V16.366L5.75 16.799ZM19 14.5H18.5V14.5H19ZM18.799 16.25L18.366 16V16L18.799 16.25ZM18.25 16.799L18.5 17.2321V17.2321L18.25 16.799ZM18.25 6.20096L18 6.63397V6.63397L18.25 6.20096ZM19 8.5H19.5V8.5H19ZM18.799 6.75L19.232 6.5V6.5L18.799 6.75ZM14 8.5H14.5V8.5H14ZM14.201 6.75L14.634 7V7L14.201 6.75ZM14.75 6.20096L14.5 5.76795V5.76795L14.75 6.20096ZM14 14.5H13.5V14.5H14ZM14.201 16.25L13.7679 16.5V16.5L14.201 16.25ZM14.75 16.799L15 16.366V16.366L14.75 16.799ZM2 21.5H22V20.5H2V21.5ZM5.5 14.5L5.5 5.5H4.5L4.5 14.5H5.5ZM9.5 5.5L9.5 14.5H10.5L10.5 5.5H9.5ZM9.5 14.5C9.5 14.9765 9.49952 15.3005 9.47692 15.5498C9.45494 15.7923 9.41525 15.9147 9.36602 16L10.232 16.5C10.3838 16.2372 10.4446 15.9519 10.4728 15.6401C10.5005 15.3351 10.5 14.9581 10.5 14.5H9.5ZM7.5 17.5C7.95811 17.5 8.33511 17.5005 8.64008 17.4728C8.95193 17.4446 9.23718 17.3838 9.5 17.2321L9 16.366C8.91474 16.4152 8.7923 16.4549 8.54982 16.4769C8.30046 16.4995 7.97651 16.5 7.5 16.5V17.5ZM9.36602 16C9.27826 16.152 9.15202 16.2783 9 16.366L9.5 17.2321C9.80404 17.0565 10.0565 16.804 10.232 16.5L9.36602 16ZM7.5 3.5C7.97651 3.5 8.30046 3.50048 8.54982 3.52308C8.7923 3.54506 8.91474 3.58475 9 3.63397L9.5 2.76795C9.23718 2.61621 8.95193 2.55542 8.64008 2.52716C8.33511 2.49952 7.95811 2.5 7.5 2.5V3.5ZM10.5 5.5C10.5 5.04189 10.5005 4.66488 10.4728 4.35992C10.4446 4.04807 10.3838 3.76282 10.232 3.5L9.36602 4C9.41525 4.08525 9.45494 4.2077 9.47692 4.45018C9.49952 4.69954 9.5 5.02349 9.5 5.5H10.5ZM9 3.63397C9.15202 3.72174 9.27826 3.84798 9.36602 4L10.232 3.5C10.0565 3.19596 9.80404 2.94349 9.5 2.76795L9 3.63397ZM5.5 5.5C5.5 5.02349 5.50048 4.69954 5.52308 4.45018C5.54506 4.2077 5.58475 4.08525 5.63397 4L4.76795 3.5C4.61621 3.76282 4.55542 4.04807 4.52716 4.35992C4.49952 4.66488 4.5 5.04189 4.5 5.5H5.5ZM7.5 2.5C7.04189 2.5 6.66488 2.49952 6.35991 2.52716C6.04807 2.55542 5.76282 2.61621 5.5 2.76795L6 3.63397C6.08525 3.58475 6.20769 3.54506 6.45018 3.52308C6.69954 3.50048 7.02349 3.5 7.5 3.5V2.5ZM5.63397 4C5.72174 3.84798 5.84798 3.72174 6 3.63397L5.5 2.76795C5.19596 2.94349 4.94348 3.19596 4.76795 3.5L5.63397 4ZM4.5 14.5C4.5 14.9581 4.49952 15.3351 4.52716 15.6401C4.55542 15.9519 4.61621 16.2372 4.76795 16.5L5.63397 16C5.58475 15.9147 5.54506 15.7923 5.52308 15.5498C5.50048 15.3005 5.5 14.9765 5.5 14.5H4.5ZM7.5 16.5C7.02349 16.5 6.69954 16.4995 6.45018 16.4769C6.2077 16.4549 6.08525 16.4152 6 16.366L5.5 17.2321C5.76282 17.3838 6.04807 17.4446 6.35992 17.4728C6.66488 17.5005 7.04189 17.5 7.5 17.5V16.5ZM4.76795 16.5C4.94349 16.804 5.19596 17.0565 5.5 17.2321L6 16.366C5.84798 16.2783 5.72174 16.152 5.63397 16L4.76795 16.5ZM14.5 14.5V8.5H13.5V14.5H14.5ZM18.5 8.5V14.5H19.5V8.5H18.5ZM18.5 14.5C18.5 14.9765 18.4995 15.3005 18.4769 15.5498C18.4549 15.7923 18.4152 15.9147 18.366 16L19.232 16.5C19.3838 16.2372 19.4446 15.9519 19.4728 15.6401C19.5005 15.3351 19.5 14.9581 19.5 14.5H18.5ZM16.5 17.5C16.9581 17.5 17.3351 17.5005 17.6401 17.4728C17.9519 17.4446 18.2372 17.3838 18.5 17.2321L18 16.366C17.9147 16.4152 17.7923 16.4549 17.5498 16.4769C17.3005 16.4995 16.9765 16.5 16.5 16.5V17.5ZM18.366 16C18.2783 16.152 18.152 16.2783 18 16.366L18.5 17.2321C18.804 17.0565 19.0565 16.804 19.232 16.5L18.366 16ZM16.5 6.5C16.9765 6.5 17.3005 6.50048 17.5498 6.52308C17.7923 6.54506 17.9147 6.58475 18 6.63397L18.5 5.76795C18.2372 5.61621 17.9519 5.55542 17.6401 5.52716C17.3351 5.49952 16.9581 5.5 16.5 5.5V6.5ZM19.5 8.5C19.5 8.04189 19.5005 7.66488 19.4728 7.35992C19.4446 7.04807 19.3838 6.76282 19.232 6.5L18.366 7C18.4152 7.08525 18.4549 7.2077 18.4769 7.45018C18.4995 7.69954 18.5 8.02349 18.5 8.5H19.5ZM18 6.63397C18.152 6.72174 18.2783 6.84798 18.366 7L19.232 6.5C19.0565 6.19596 18.804 5.94349 18.5 5.76795L18 6.63397ZM14.5 8.5C14.5 8.02349 14.5005 7.69954 14.5231 7.45018C14.5451 7.2077 14.5848 7.08525 14.634 7L13.7679 6.5C13.6162 6.76282 13.5554 7.04807 13.5272 7.35992C13.4995 7.66488 13.5 8.04189 13.5 8.5H14.5ZM16.5 5.5C16.0419 5.5 15.6649 5.49952 15.3599 5.52716C15.0481 5.55542 14.7628 5.61621 14.5 5.76795L15 6.63397C15.0853 6.58475 15.2077 6.54506 15.4502 6.52308C15.6995 6.50048 16.0235 6.5 16.5 6.5V5.5ZM14.634 7C14.7217 6.84798 14.848 6.72174 15 6.63397L14.5 5.76795C14.196 5.94349 13.9435 6.19596 13.7679 6.5L14.634 7ZM13.5 14.5C13.5 14.9581 13.4995 15.3351 13.5272 15.6401C13.5554 15.9519 13.6162 16.2372 13.7679 16.5L14.634 16C14.5848 15.9147 14.5451 15.7923 14.5231 15.5498C14.5005 15.3005 14.5 14.9765 14.5 14.5H13.5ZM16.5 16.5C16.0235 16.5 15.6995 16.4995 15.4502 16.4769C15.2077 16.4549 15.0853 16.4152 15 16.366L14.5 17.2321C14.7628 17.3838 15.0481 17.4446 15.3599 17.4728C15.6649 17.5005 16.0419 17.5 16.5 17.5V16.5ZM13.7679 16.5C13.9435 16.804 14.196 17.0565 14.5 17.2321L15 16.366C14.848 16.2783 14.7217 16.152 14.634 16L13.7679 16.5Z" fill="#424242"/>
</svg>
