<svg width="24" height="24" viewBox="0 0 24 24" fill="none" xmlns="http://www.w3.org/2000/svg">
<path d="M12.5 19C12.5 18.7239 12.2761 18.5 12 18.5C11.7239 18.5 11.5 18.7239 11.5 19H12.5ZM11.5 22C11.5 22.2761 11.7239 22.5 12 22.5C12.2761 22.5 12.5 22.2761 12.5 22H11.5ZM12.5 10C12.5 9.72386 12.2761 9.5 12 9.5C11.7239 9.5 11.5 9.72386 11.5 10H12.5ZM11.5 14C11.5 14.2761 11.7239 14.5 12 14.5C12.2761 14.5 12.5 14.2761 12.5 14H11.5ZM12.5 2C12.5 1.72386 12.2761 1.5 12 1.5C11.7239 1.5 11.5 1.72386 11.5 2H12.5ZM11.5 5C11.5 5.27614 11.7239 5.5 12 5.5C12.2761 5.5 12.5 5.27614 12.5 5H11.5ZM7.5 10V10.5V10ZM5.75 9.79904L5.5 10.2321L5.75 9.79904ZM5.20096 9.25L4.76795 9.5L5.20096 9.25ZM18.799 9.25L19.2321 9.5L18.799 9.25ZM16.5 10V9.5V10ZM18.25 9.79904L18.5 10.2321L18.25 9.79904ZM16.5 5V4.5V5ZM18.25 5.20096L18.5 4.76795L18.25 5.20096ZM18.799 5.75L19.2321 5.5L18.799 5.75ZM7.5 5V5.5V5ZM5.75 5.20096L5.5 4.76795L5.75 5.20096ZM5.20096 5.75L4.76795 5.5L5.20096 5.75ZM7.75 18.799L8 18.366V18.366L7.75 18.799ZM7 16.5H6.5H7ZM7.20096 18.25L7.63397 18V18L7.20096 18.25ZM16.799 18.25L16.366 18V18L16.799 18.25ZM16.25 18.799L16 18.366V18.366L16.25 18.799ZM14.5 14V13.5V14ZM16.25 14.201L16 14.634V14.634L16.25 14.201ZM16.799 14.75L16.366 15V15L16.799 14.75ZM9.5 14V14.5V14ZM7.75 14.201L8 14.634V14.634L7.75 14.201ZM7.20096 14.75L7.63397 15V15L7.20096 14.75ZM11.5 19V22H12.5V19H11.5ZM11.5 10V14H12.5V10H11.5ZM11.5 2V5H12.5V2H11.5ZM7.5 5.5H16.5V4.5H7.5V5.5ZM16.5 9.5H7.5V10.5H16.5V9.5ZM7.5 9.5C7.02349 9.5 6.69954 9.49952 6.45018 9.47692C6.2077 9.45494 6.08526 9.41525 6 9.36603L5.5 10.2321C5.76282 10.3838 6.04807 10.4446 6.35992 10.4728C6.66488 10.5005 7.04189 10.5 7.5 10.5V9.5ZM4.5 7.5C4.5 7.95811 4.49952 8.33512 4.52716 8.64008C4.55542 8.95193 4.61621 9.23718 4.76795 9.5L5.63397 9C5.58475 8.91475 5.54506 8.7923 5.52308 8.54982C5.50048 8.30046 5.5 7.97651 5.5 7.5H4.5ZM6 9.36603C5.84798 9.27826 5.72174 9.15202 5.63397 9L4.76795 9.5C4.94349 9.80404 5.19596 10.0565 5.5 10.2321L6 9.36603ZM18.5 7.5C18.5 7.97651 18.4995 8.30046 18.4769 8.54982C18.4549 8.7923 18.4152 8.91475 18.366 9L19.2321 9.5C19.3838 9.23718 19.4446 8.95193 19.4728 8.64008C19.5005 8.33512 19.5 7.95811 19.5 7.5H18.5ZM16.5 10.5C16.9581 10.5 17.3351 10.5005 17.6401 10.4728C17.9519 10.4446 18.2372 10.3838 18.5 10.2321L18 9.36603C17.9147 9.41525 17.7923 9.45494 17.5498 9.47692C17.3005 9.49952 16.9765 9.5 16.5 9.5V10.5ZM18.366 9C18.2783 9.15202 18.152 9.27826 18 9.36603L18.5 10.2321C18.804 10.0565 19.0565 9.80404 19.2321 9.5L18.366 9ZM16.5 5.5C16.9765 5.5 17.3005 5.50048 17.5498 5.52308C17.7923 5.54506 17.9147 5.58475 18 5.63397L18.5 4.76795C18.2372 4.61621 17.9519 4.55542 17.6401 4.52716C17.3351 4.49952 16.9581 4.5 16.5 4.5V5.5ZM19.5 7.5C19.5 7.04189 19.5005 6.66488 19.4728 6.35992C19.4446 6.04807 19.3838 5.76282 19.2321 5.5L18.366 6C18.4152 6.08525 18.4549 6.2077 18.4769 6.45018C18.4995 6.69954 18.5 7.02349 18.5 7.5H19.5ZM18 5.63397C18.152 5.72174 18.2783 5.84798 18.366 6L19.2321 5.5C19.0565 5.19596 18.804 4.94349 18.5 4.76795L18 5.63397ZM7.5 4.5C7.04189 4.5 6.66488 4.49952 6.35992 4.52716C6.04807 4.55542 5.76282 4.61621 5.5 4.76795L6 5.63397C6.08525 5.58475 6.2077 5.54506 6.45018 5.52308C6.69954 5.50048 7.02349 5.5 7.5 5.5V4.5ZM5.5 7.5C5.5 7.02349 5.50048 6.69954 5.52308 6.45018C5.54506 6.2077 5.58475 6.08525 5.63397 6L4.76795 5.5C4.61621 5.76282 4.55542 6.04807 4.52716 6.35992C4.49952 6.66488 4.5 7.04189 4.5 7.5H5.5ZM5.5 4.76795C5.19596 4.94349 4.94349 5.19596 4.76795 5.5L5.63397 6C5.72174 5.84798 5.84798 5.72174 6 5.63397L5.5 4.76795ZM9.5 14.5H14.5V13.5H9.5V14.5ZM14.5 18.5H9.5V19.5H14.5V18.5ZM9.5 18.5C9.02349 18.5 8.69954 18.4995 8.45018 18.4769C8.2077 18.4549 8.08525 18.4152 8 18.366L7.5 19.232C7.76282 19.3838 8.04807 19.4446 8.35992 19.4728C8.66488 19.5005 9.04189 19.5 9.5 19.5V18.5ZM6.5 16.5C6.5 16.9581 6.49952 17.3351 6.52716 17.6401C6.55542 17.9519 6.61621 18.2372 6.76795 18.5L7.63397 18C7.58475 17.9147 7.54506 17.7923 7.52308 17.5498C7.50048 17.3005 7.5 16.9765 7.5 16.5H6.5ZM8 18.366C7.84798 18.2783 7.72174 18.152 7.63397 18L6.76795 18.5C6.94349 18.804 7.19596 19.0565 7.5 19.232L8 18.366ZM16.5 16.5C16.5 16.9765 16.4995 17.3005 16.4769 17.5498C16.4549 17.7923 16.4152 17.9147 16.366 18L17.2321 18.5C17.3838 18.2372 17.4446 17.9519 17.4728 17.6401C17.5005 17.3351 17.5 16.9581 17.5 16.5H16.5ZM14.5 19.5C14.9581 19.5 15.3351 19.5005 15.6401 19.4728C15.9519 19.4446 16.2372 19.3838 16.5 19.232L16 18.366C15.9147 18.4152 15.7923 18.4549 15.5498 18.4769C15.3005 18.4995 14.9765 18.5 14.5 18.5V19.5ZM16.366 18C16.2783 18.152 16.152 18.2783 16 18.366L16.5 19.232C16.804 19.0565 17.0565 18.804 17.2321 18.5L16.366 18ZM14.5 14.5C14.9765 14.5 15.3005 14.5005 15.5498 14.5231C15.7923 14.5451 15.9147 14.5848 16 14.634L16.5 13.7679C16.2372 13.6162 15.9519 13.5554 15.6401 13.5272C15.3351 13.4995 14.9581 13.5 14.5 13.5V14.5ZM17.5 16.5C17.5 16.0419 17.5005 15.6649 17.4728 15.3599C17.4446 15.0481 17.3838 14.7628 17.2321 14.5L16.366 15C16.4152 15.0853 16.4549 15.2077 16.4769 15.4502C16.4995 15.6995 16.5 16.0235 16.5 16.5H17.5ZM16 14.634C16.152 14.7217 16.2783 14.848 16.366 15L17.2321 14.5C17.0565 14.196 16.804 13.9435 16.5 13.7679L16 14.634ZM9.5 13.5C9.04189 13.5 8.66488 13.4995 8.35992 13.5272C8.04807 13.5554 7.76282 13.6162 7.5 13.7679L8 14.634C8.08525 14.5848 8.2077 14.5451 8.45018 14.5231C8.69954 14.5005 9.02349 14.5 9.5 14.5V13.5ZM7.5 16.5C7.5 16.0235 7.50048 15.6995 7.52308 15.4502C7.54506 15.2077 7.58475 15.0853 7.63397 15L6.76795 14.5C6.61621 14.7628 6.55542 15.0481 6.52716 15.3599C6.49952 15.6649 6.5 16.0419 6.5 16.5H7.5ZM7.5 13.7679C7.19596 13.9435 6.94349 14.196 6.76795 14.5L7.63397 15C7.72174 14.848 7.84798 14.7217 8 14.634L7.5 13.7679Z" fill="#424242"/>
</svg>
