<svg width="24" height="24" viewBox="0 0 24 24" fill="none" xmlns="http://www.w3.org/2000/svg">
<path d="M19 11.5C18.7239 11.5 18.5 11.7239 18.5 12C18.5 12.2761 18.7239 12.5 19 12.5V11.5ZM22 12.5C22.2761 12.5 22.5 12.2761 22.5 12C22.5 11.7239 22.2761 11.5 22 11.5V12.5ZM10 11.5C9.72386 11.5 9.5 11.7239 9.5 12C9.5 12.2761 9.72386 12.5 10 12.5V11.5ZM14 12.5C14.2761 12.5 14.5 12.2761 14.5 12C14.5 11.7239 14.2761 11.5 14 11.5V12.5ZM2 11.5C1.72386 11.5 1.5 11.7239 1.5 12C1.5 12.2761 1.72386 12.5 2 12.5V11.5ZM5 12.5C5.27614 12.5 5.5 12.2761 5.5 12C5.5 11.7239 5.27614 11.5 5 11.5V12.5ZM10 7.5H10.5H10ZM9.79904 5.75L9.36602 6V6L9.79904 5.75ZM9.25 5.20096L9.5 4.76795V4.76795L9.25 5.20096ZM9.25 18.799L9 18.366V18.366L9.25 18.799ZM10 16.5H9.5H10ZM9.79904 18.25L10.232 18.5V18.5L9.79904 18.25ZM5 16.5H4.5H5ZM5.20096 18.25L5.63397 18V18L5.20096 18.25ZM5.75 18.799L5.5 19.2321V19.2321L5.75 18.799ZM5 7.5H5.5H5ZM5.20096 5.75L4.76795 5.5V5.5L5.20096 5.75ZM5.75 5.20096L6 5.63397V5.63397L5.75 5.20096ZM19 9.5H18.5V9.5H19ZM18.799 7.75L19.232 7.5L18.799 7.75ZM18.25 7.20096L18.5 6.76795L18.25 7.20096ZM18.25 16.799L18.5 17.2321L18.25 16.799ZM19 14.5H19.5V14.5H19ZM18.799 16.25L19.232 16.5L18.799 16.25ZM14 14.5H14.5V14.5H14ZM14.201 16.25L13.7679 16.5L14.201 16.25ZM14.75 16.799L14.5 17.2321L14.75 16.799ZM14 9.5H13.5V9.5H14ZM14.201 7.75L13.7679 7.5L14.201 7.75ZM14.75 7.20096L14.5 6.76795L14.75 7.20096ZM19 12.5H22V11.5H19V12.5ZM10 12.5H14V11.5H10V12.5ZM2 12.5H5V11.5H2V12.5ZM4.5 7.5L4.5 16.5H5.5L5.5 7.5H4.5ZM10.5 16.5L10.5 7.5H9.5L9.5 16.5H10.5ZM10.5 7.5C10.5 7.04189 10.5005 6.66488 10.4728 6.35992C10.4446 6.04807 10.3838 5.76282 10.232 5.5L9.36602 6C9.41525 6.08526 9.45494 6.2077 9.47692 6.45018C9.49952 6.69954 9.5 7.02349 9.5 7.5H10.5ZM7.5 5.5C7.97651 5.5 8.30046 5.50048 8.54982 5.52308C8.7923 5.54506 8.91474 5.58475 9 5.63397L9.5 4.76795C9.23718 4.61621 8.95193 4.55542 8.64008 4.52716C8.33511 4.49952 7.95811 4.5 7.5 4.5V5.5ZM10.232 5.5C10.0565 5.19596 9.80404 4.94349 9.5 4.76795L9 5.63397C9.15202 5.72174 9.27826 5.84798 9.36602 6L10.232 5.5ZM7.5 19.5C7.95811 19.5 8.33511 19.5005 8.64008 19.4728C8.95193 19.4446 9.23718 19.3838 9.5 19.2321L9 18.366C8.91474 18.4152 8.7923 18.4549 8.54982 18.4769C8.30046 18.4995 7.97651 18.5 7.5 18.5V19.5ZM9.5 16.5C9.5 16.9765 9.49952 17.3005 9.47692 17.5498C9.45494 17.7923 9.41525 17.9147 9.36602 18L10.232 18.5C10.3838 18.2372 10.4446 17.9519 10.4728 17.6401C10.5005 17.3351 10.5 16.9581 10.5 16.5H9.5ZM9.5 19.2321C9.80404 19.0565 10.0565 18.804 10.232 18.5L9.36602 18C9.27826 18.152 9.15202 18.2783 9 18.366L9.5 19.2321ZM4.5 16.5C4.5 16.9581 4.49952 17.3351 4.52716 17.6401C4.55542 17.9519 4.61621 18.2372 4.76795 18.5L5.63397 18C5.58475 17.9147 5.54506 17.7923 5.52308 17.5498C5.50048 17.3005 5.5 16.9765 5.5 16.5H4.5ZM7.5 18.5C7.02349 18.5 6.69954 18.4995 6.45018 18.4769C6.20769 18.4549 6.08525 18.4152 6 18.366L5.5 19.2321C5.76282 19.3838 6.04807 19.4446 6.35991 19.4728C6.66488 19.5005 7.04189 19.5 7.5 19.5V18.5ZM4.76795 18.5C4.94349 18.804 5.19596 19.0565 5.5 19.2321L6 18.366C5.84798 18.2783 5.72174 18.152 5.63397 18L4.76795 18.5ZM5.5 7.5C5.5 7.02349 5.50048 6.69954 5.52308 6.45018C5.54506 6.2077 5.58475 6.08525 5.63397 6L4.76795 5.5C4.61621 5.76282 4.55542 6.04807 4.52716 6.35992C4.49952 6.66488 4.5 7.04189 4.5 7.5H5.5ZM7.5 4.5C7.04189 4.5 6.66488 4.49952 6.35992 4.52716C6.04807 4.55542 5.76282 4.61621 5.5 4.76795L6 5.63397C6.08525 5.58475 6.20769 5.54506 6.45018 5.52308C6.69954 5.50048 7.02349 5.5 7.5 5.5V4.5ZM5.63397 6C5.72174 5.84798 5.84798 5.72174 6 5.63397L5.5 4.76795C5.19596 4.94349 4.94349 5.19596 4.76795 5.5L5.63397 6ZM13.5 9.5V14.5H14.5V9.5H13.5ZM19.5 14.5V9.5H18.5V14.5H19.5ZM19.5 9.5C19.5 9.04189 19.5005 8.66488 19.4728 8.35992C19.4446 8.04807 19.3838 7.76282 19.232 7.5L18.366 8C18.4152 8.08525 18.4549 8.2077 18.4769 8.45018C18.4995 8.69954 18.5 9.02349 18.5 9.5H19.5ZM16.5 7.5C16.9765 7.5 17.3005 7.50048 17.5498 7.52308C17.7923 7.54506 17.9147 7.58475 18 7.63397L18.5 6.76795C18.2372 6.61621 17.9519 6.55542 17.6401 6.52716C17.3351 6.49952 16.9581 6.5 16.5 6.5V7.5ZM19.232 7.5C19.0565 7.19596 18.804 6.94349 18.5 6.76795L18 7.63397C18.152 7.72174 18.2783 7.84798 18.366 8L19.232 7.5ZM16.5 17.5C16.9581 17.5 17.3351 17.5005 17.6401 17.4728C17.9519 17.4446 18.2372 17.3838 18.5 17.2321L18 16.366C17.9147 16.4152 17.7923 16.4549 17.5498 16.4769C17.3005 16.4995 16.9765 16.5 16.5 16.5V17.5ZM18.5 14.5C18.5 14.9765 18.4995 15.3005 18.4769 15.5498C18.4549 15.7923 18.4152 15.9147 18.366 16L19.232 16.5C19.3838 16.2372 19.4446 15.9519 19.4728 15.6401C19.5005 15.3351 19.5 14.9581 19.5 14.5H18.5ZM18.5 17.2321C18.804 17.0565 19.0565 16.804 19.232 16.5L18.366 16C18.2783 16.152 18.152 16.2783 18 16.366L18.5 17.2321ZM13.5 14.5C13.5 14.9581 13.4995 15.3351 13.5272 15.6401C13.5554 15.9519 13.6162 16.2372 13.7679 16.5L14.634 16C14.5848 15.9147 14.5451 15.7923 14.5231 15.5498C14.5005 15.3005 14.5 14.9765 14.5 14.5H13.5ZM16.5 16.5C16.0235 16.5 15.6995 16.4995 15.4502 16.4769C15.2077 16.4549 15.0853 16.4152 15 16.366L14.5 17.2321C14.7628 17.3838 15.0481 17.4446 15.3599 17.4728C15.6649 17.5005 16.0419 17.5 16.5 17.5V16.5ZM13.7679 16.5C13.9435 16.804 14.196 17.0565 14.5 17.2321L15 16.366C14.848 16.2783 14.7217 16.152 14.634 16L13.7679 16.5ZM14.5 9.5C14.5 9.02349 14.5005 8.69954 14.5231 8.45018C14.5451 8.2077 14.5848 8.08525 14.634 8L13.7679 7.5C13.6162 7.76282 13.5554 8.04807 13.5272 8.35992C13.4995 8.66488 13.5 9.04189 13.5 9.5H14.5ZM16.5 6.5C16.0419 6.5 15.6649 6.49952 15.3599 6.52716C15.0481 6.55542 14.7628 6.61621 14.5 6.76795L15 7.63397C15.0853 7.58475 15.2077 7.54506 15.4502 7.52308C15.6995 7.50048 16.0235 7.5 16.5 7.5V6.5ZM14.634 8C14.7217 7.84798 14.848 7.72174 15 7.63397L14.5 6.76795C14.196 6.94349 13.9435 7.19596 13.7679 7.5L14.634 8Z" fill="#424242"/>
</svg>
