<svg width="24" height="24" viewBox="0 0 24 24" fill="none" xmlns="http://www.w3.org/2000/svg">
<path d="M3.5 2C3.5 1.72386 3.27614 1.5 3 1.5C2.72386 1.5 2.5 1.72386 2.5 2L3.5 2ZM2.5 22C2.5 22.2761 2.72386 22.5 3 22.5C3.27614 22.5 3.5 22.2761 3.5 22H2.5ZM21.5 2C21.5 1.72386 21.2761 1.5 21 1.5C20.7239 1.5 20.5 1.72386 20.5 2L21.5 2ZM20.5 22C20.5 22.2761 20.7239 22.5 21 22.5C21.2761 22.5 21.5 22.2761 21.5 22H20.5ZM16 8H16.5H16ZM16 16H15.5H16ZM8 16H7.5H8ZM8 8H8.5H8ZM2.5 2L2.5 22H3.5L3.5 2L2.5 2ZM20.5 2L20.5 22H21.5L21.5 2L20.5 2ZM7.5 8V16H8.5V8H7.5ZM16.5 16V8H15.5V16H16.5ZM16.5 8C16.5 7.07133 16.5011 6.32452 16.4223 5.73883C16.3416 5.13876 16.169 4.63351 15.7678 4.23223L15.0607 4.93934C15.2452 5.12385 15.3655 5.3829 15.4312 5.87208C15.4989 6.37565 15.5 7.04306 15.5 8H16.5ZM12 4.5C12.9569 4.5 13.6244 4.50106 14.1279 4.56876C14.6171 4.63453 14.8762 4.75483 15.0607 4.93934L15.7678 4.23223C15.3665 3.83096 14.8612 3.65836 14.2612 3.57768C13.6755 3.49894 12.9287 3.5 12 3.5V4.5ZM12 20.5C12.9287 20.5 13.6755 20.5011 14.2612 20.4223C14.8612 20.3416 15.3665 20.169 15.7678 19.7678L15.0607 19.0607C14.8762 19.2452 14.6171 19.3655 14.1279 19.4312C13.6244 19.4989 12.9569 19.5 12 19.5V20.5ZM15.5 16C15.5 16.9569 15.4989 17.6244 15.4312 18.1279C15.3655 18.6171 15.2452 18.8762 15.0607 19.0607L15.7678 19.7678C16.169 19.3665 16.3416 18.8612 16.4223 18.2612C16.5011 17.6755 16.5 16.9287 16.5 16H15.5ZM7.5 16C7.5 16.9287 7.49894 17.6755 7.57768 18.2612C7.65836 18.8612 7.83096 19.3665 8.23223 19.7678L8.93934 19.0607C8.75483 18.8762 8.63454 18.6171 8.56877 18.1279C8.50106 17.6244 8.5 16.9569 8.5 16H7.5ZM12 19.5C11.0431 19.5 10.3756 19.4989 9.87208 19.4312C9.3829 19.3655 9.12385 19.2452 8.93934 19.0607L8.23223 19.7678C8.63351 20.169 9.13876 20.3416 9.73883 20.4223C10.3245 20.5011 11.0713 20.5 12 20.5V19.5ZM8.5 8C8.5 7.04306 8.50106 6.37565 8.56877 5.87208C8.63454 5.3829 8.75483 5.12385 8.93934 4.93934L8.23223 4.23223C7.83096 4.63351 7.65836 5.13876 7.57768 5.73883C7.49894 6.32452 7.5 7.07133 7.5 8H8.5ZM12 3.5C11.0713 3.5 10.3245 3.49894 9.73883 3.57768C9.13876 3.65836 8.63351 3.83096 8.23223 4.23223L8.93934 4.93934C9.12385 4.75483 9.3829 4.63453 9.87208 4.56876C10.3756 4.50106 11.0431 4.5 12 4.5V3.5Z" fill="#424242"/>
</svg>
