<svg width="24" height="24" viewBox="0 0 24 24" fill="none" xmlns="http://www.w3.org/2000/svg">
<path d="M2 2.5C1.72386 2.5 1.5 2.72386 1.5 3C1.5 3.27614 1.72386 3.5 2 3.5L2 2.5ZM22 3.5C22.2761 3.5 22.5 3.27614 22.5 3C22.5 2.72386 22.2761 2.5 22 2.5V3.5ZM10 9.5H10.5H10ZM9.79904 7.75L9.36602 8V8L9.79904 7.75ZM9.25 7.20096L9.5 6.76795V6.76795L9.25 7.20096ZM9.25 20.799L9 20.366V20.366L9.25 20.799ZM10 18.5H9.5H10ZM9.79904 20.25L10.232 20.5V20.5L9.79904 20.25ZM5 18.5H4.5H5ZM5.20096 20.25L5.63397 20V20L5.20096 20.25ZM5.75 20.799L5.5 21.232V21.232L5.75 20.799ZM5 9.5H5.5H5ZM5.20096 7.75L4.76795 7.5V7.5L5.20096 7.75ZM5.75 7.20096L6 7.63397V7.63397L5.75 7.20096ZM19 9.5H18.5V9.5H19ZM18.799 7.75L18.366 8V8L18.799 7.75ZM18.25 7.20096L18.5 6.76795V6.76795L18.25 7.20096ZM18.25 17.799L18 17.366V17.366L18.25 17.799ZM19 15.5H19.5V15.5H19ZM18.799 17.25L19.232 17.5V17.5L18.799 17.25ZM14 15.5H14.5V15.5H14ZM14.201 17.25L14.634 17V17L14.201 17.25ZM14.75 17.799L14.5 18.2321V18.2321L14.75 17.799ZM14 9.5H13.5V9.5H14ZM14.201 7.75L13.7679 7.5V7.5L14.201 7.75ZM14.75 7.20096L15 7.63397V7.63397L14.75 7.20096ZM2 3.5L22 3.5V2.5L2 2.5L2 3.5ZM4.5 9.5L4.5 18.5H5.5L5.5 9.5H4.5ZM10.5 18.5L10.5 9.5H9.5L9.5 18.5H10.5ZM10.5 9.5C10.5 9.04189 10.5005 8.66488 10.4728 8.35992C10.4446 8.04807 10.3838 7.76282 10.232 7.5L9.36602 8C9.41525 8.08525 9.45494 8.2077 9.47692 8.45018C9.49952 8.69954 9.5 9.02349 9.5 9.5H10.5ZM7.5 7.5C7.97651 7.5 8.30046 7.50048 8.54982 7.52308C8.7923 7.54506 8.91474 7.58475 9 7.63397L9.5 6.76795C9.23718 6.61621 8.95193 6.55542 8.64008 6.52716C8.33511 6.49952 7.95811 6.5 7.5 6.5V7.5ZM10.232 7.5C10.0565 7.19596 9.80404 6.94349 9.5 6.76795L9 7.63397C9.15202 7.72174 9.27826 7.84798 9.36602 8L10.232 7.5ZM7.5 21.5C7.95811 21.5 8.33511 21.5005 8.64008 21.4728C8.95193 21.4446 9.23718 21.3838 9.5 21.232L9 20.366C8.91474 20.4152 8.7923 20.4549 8.54982 20.4769C8.30046 20.4995 7.97651 20.5 7.5 20.5V21.5ZM9.5 18.5C9.5 18.9765 9.49952 19.3005 9.47692 19.5498C9.45494 19.7923 9.41525 19.9147 9.36602 20L10.232 20.5C10.3838 20.2372 10.4446 19.9519 10.4728 19.6401C10.5005 19.3351 10.5 18.9581 10.5 18.5H9.5ZM9.5 21.232C9.80404 21.0565 10.0565 20.804 10.232 20.5L9.36602 20C9.27826 20.152 9.15202 20.2783 9 20.366L9.5 21.232ZM4.5 18.5C4.5 18.9581 4.49952 19.3351 4.52716 19.6401C4.55542 19.9519 4.61621 20.2372 4.76795 20.5L5.63397 20C5.58475 19.9147 5.54506 19.7923 5.52308 19.5498C5.50048 19.3005 5.5 18.9765 5.5 18.5H4.5ZM7.5 20.5C7.02349 20.5 6.69954 20.4995 6.45018 20.4769C6.20769 20.4549 6.08525 20.4152 6 20.366L5.5 21.232C5.76282 21.3838 6.04807 21.4446 6.35991 21.4728C6.66488 21.5005 7.04189 21.5 7.5 21.5V20.5ZM4.76795 20.5C4.94349 20.804 5.19596 21.0565 5.5 21.232L6 20.366C5.84798 20.2783 5.72174 20.152 5.63397 20L4.76795 20.5ZM5.5 9.5C5.5 9.02349 5.50048 8.69954 5.52308 8.45018C5.54506 8.2077 5.58475 8.08525 5.63397 8L4.76795 7.5C4.61621 7.76282 4.55542 8.04807 4.52716 8.35992C4.49952 8.66488 4.5 9.04189 4.5 9.5H5.5ZM7.5 6.5C7.04189 6.5 6.66488 6.49952 6.35992 6.52716C6.04807 6.55542 5.76282 6.61621 5.5 6.76795L6 7.63397C6.08525 7.58475 6.20769 7.54506 6.45018 7.52308C6.69954 7.50048 7.02349 7.5 7.5 7.5V6.5ZM5.63397 8C5.72174 7.84798 5.84798 7.72174 6 7.63397L5.5 6.76795C5.19596 6.94349 4.94349 7.19596 4.76795 7.5L5.63397 8ZM13.5 9.5V15.5H14.5V9.5H13.5ZM19.5 15.5V9.5H18.5V15.5H19.5ZM19.5 9.5C19.5 9.04189 19.5005 8.66488 19.4728 8.35992C19.4446 8.04807 19.3838 7.76282 19.232 7.5L18.366 8C18.4152 8.08526 18.4549 8.2077 18.4769 8.45018C18.4995 8.69954 18.5 9.02349 18.5 9.5H19.5ZM16.5 7.5C16.9765 7.5 17.3005 7.50048 17.5498 7.52308C17.7923 7.54506 17.9147 7.58475 18 7.63397L18.5 6.76795C18.2372 6.61621 17.9519 6.55542 17.6401 6.52716C17.3351 6.49952 16.9581 6.5 16.5 6.5V7.5ZM19.232 7.5C19.0565 7.19596 18.804 6.94349 18.5 6.76795L18 7.63397C18.152 7.72174 18.2783 7.84798 18.366 8L19.232 7.5ZM16.5 18.5C16.9581 18.5 17.3351 18.5005 17.6401 18.4728C17.9519 18.4446 18.2372 18.3838 18.5 18.2321L18 17.366C17.9147 17.4152 17.7923 17.4549 17.5498 17.4769C17.3005 17.4995 16.9765 17.5 16.5 17.5V18.5ZM18.5 15.5C18.5 15.9765 18.4995 16.3005 18.4769 16.5498C18.4549 16.7923 18.4152 16.9147 18.366 17L19.232 17.5C19.3838 17.2372 19.4446 16.9519 19.4728 16.6401C19.5005 16.3351 19.5 15.9581 19.5 15.5H18.5ZM18.5 18.2321C18.804 18.0565 19.0565 17.804 19.232 17.5L18.366 17C18.2783 17.152 18.152 17.2783 18 17.366L18.5 18.2321ZM13.5 15.5C13.5 15.9581 13.4995 16.3351 13.5272 16.6401C13.5554 16.9519 13.6162 17.2372 13.7679 17.5L14.634 17C14.5848 16.9147 14.5451 16.7923 14.5231 16.5498C14.5005 16.3005 14.5 15.9765 14.5 15.5H13.5ZM16.5 17.5C16.0235 17.5 15.6995 17.4995 15.4502 17.4769C15.2077 17.4549 15.0853 17.4152 15 17.366L14.5 18.2321C14.7628 18.3838 15.0481 18.4446 15.3599 18.4728C15.6649 18.5005 16.0419 18.5 16.5 18.5V17.5ZM13.7679 17.5C13.9435 17.804 14.196 18.0565 14.5 18.2321L15 17.366C14.848 17.2783 14.7217 17.152 14.634 17L13.7679 17.5ZM14.5 9.5C14.5 9.02349 14.5005 8.69954 14.5231 8.45018C14.5451 8.2077 14.5848 8.08525 14.634 8L13.7679 7.5C13.6162 7.76282 13.5554 8.04807 13.5272 8.35992C13.4995 8.66488 13.5 9.04189 13.5 9.5H14.5ZM16.5 6.5C16.0419 6.5 15.6649 6.49952 15.3599 6.52716C15.0481 6.55542 14.7628 6.61621 14.5 6.76795L15 7.63397C15.0853 7.58475 15.2077 7.54506 15.4502 7.52308C15.6995 7.50048 16.0235 7.5 16.5 7.5V6.5ZM14.634 8C14.7217 7.84798 14.848 7.72174 15 7.63397L14.5 6.76795C14.196 6.94349 13.9435 7.19596 13.7679 7.5L14.634 8Z" fill="#424242"/>
</svg>
