<svg width="24" height="24" viewBox="0 0 24 24" fill="none" xmlns="http://www.w3.org/2000/svg">
<path d="M21.5 2C21.5 1.72386 21.2761 1.5 21 1.5C20.7239 1.5 20.5 1.72386 20.5 2H21.5ZM20.5 22C20.5 22.2761 20.7239 22.5 21 22.5C21.2761 22.5 21.5 22.2761 21.5 22H20.5ZM16.25 9.79904L16.5 10.2321L16.25 9.79904ZM16.799 9.25L17.2321 9.5L16.799 9.25ZM3.20096 9.25L2.76795 9.5L3.20096 9.25ZM3.75 9.79904L3.5 10.2321L3.75 9.79904ZM3.75 5.20096L3.5 4.76795L3.75 5.20096ZM3.20096 5.75L2.76795 5.5L3.20096 5.75ZM16.25 5.20096L16.5 4.76795L16.25 5.20096ZM16.799 5.75L17.2321 5.5L16.799 5.75ZM16.25 18.799L16.5 19.232L16.25 18.799ZM16.799 18.25L17.2321 18.5L16.799 18.25ZM6.20096 18.25L5.76795 18.5L6.20096 18.25ZM6.75 18.799L6.5 19.232L6.75 18.799ZM6.75 14.201L6.5 13.7679L6.75 14.201ZM6.20096 14.75L5.76795 14.5L6.20096 14.75ZM16.25 14.201L16.5 13.7679L16.25 14.201ZM16.799 14.75L17.2321 14.5L16.799 14.75ZM20.5 2V22H21.5V2H20.5ZM14.5 4.5H5.5V5.5H14.5V4.5ZM5.5 10.5H14.5V9.5H5.5V10.5ZM14.5 10.5C14.9581 10.5 15.3351 10.5005 15.6401 10.4728C15.9519 10.4446 16.2372 10.3838 16.5 10.2321L16 9.36603C15.9147 9.41525 15.7923 9.45494 15.5498 9.47692C15.3005 9.49952 14.9765 9.5 14.5 9.5V10.5ZM16.5 7.5C16.5 7.97651 16.4995 8.30046 16.4769 8.54982C16.4549 8.7923 16.4152 8.91475 16.366 9L17.2321 9.5C17.3838 9.23718 17.4446 8.95193 17.4728 8.64008C17.5005 8.33512 17.5 7.95811 17.5 7.5H16.5ZM16.5 10.2321C16.804 10.0565 17.0565 9.80404 17.2321 9.5L16.366 9C16.2783 9.15202 16.152 9.27826 16 9.36603L16.5 10.2321ZM2.5 7.5C2.5 7.95811 2.49952 8.33512 2.52716 8.64008C2.55542 8.95193 2.61621 9.23718 2.76795 9.5L3.63397 9C3.58475 8.91475 3.54506 8.7923 3.52308 8.54982C3.50048 8.30046 3.5 7.97651 3.5 7.5H2.5ZM5.5 9.5C5.02349 9.5 4.69954 9.49952 4.45018 9.47692C4.2077 9.45494 4.08526 9.41525 4 9.36603L3.5 10.2321C3.76282 10.3838 4.04807 10.4446 4.35992 10.4728C4.66488 10.5005 5.04189 10.5 5.5 10.5V9.5ZM2.76795 9.5C2.94349 9.80404 3.19596 10.0565 3.5 10.2321L4 9.36603C3.84798 9.27826 3.72174 9.15202 3.63397 9L2.76795 9.5ZM5.5 4.5C5.04189 4.5 4.66488 4.49952 4.35992 4.52716C4.04807 4.55542 3.76282 4.61621 3.5 4.76795L4 5.63397C4.08525 5.58475 4.2077 5.54506 4.45018 5.52308C4.69954 5.50048 5.02349 5.5 5.5 5.5V4.5ZM3.5 7.5C3.5 7.02349 3.50048 6.69954 3.52308 6.45018C3.54506 6.2077 3.58475 6.08525 3.63397 6L2.76795 5.5C2.61621 5.76282 2.55542 6.04807 2.52716 6.35992C2.49952 6.66488 2.5 7.04189 2.5 7.5H3.5ZM3.5 4.76795C3.19596 4.94349 2.94349 5.19596 2.76795 5.5L3.63397 6C3.72174 5.84798 3.84798 5.72174 4 5.63397L3.5 4.76795ZM14.5 5.5C14.9765 5.5 15.3005 5.50048 15.5498 5.52308C15.7923 5.54506 15.9147 5.58475 16 5.63397L16.5 4.76795C16.2372 4.61621 15.9519 4.55542 15.6401 4.52716C15.3351 4.49952 14.9581 4.5 14.5 4.5V5.5ZM17.5 7.5C17.5 7.04189 17.5005 6.66488 17.4728 6.35992C17.4446 6.04807 17.3838 5.76282 17.2321 5.5L16.366 6C16.4152 6.08525 16.4549 6.2077 16.4769 6.45018C16.4995 6.69954 16.5 7.02349 16.5 7.5H17.5ZM16 5.63397C16.152 5.72174 16.2783 5.84798 16.366 6L17.2321 5.5C17.0565 5.19596 16.804 4.94349 16.5 4.76795L16 5.63397ZM14.5 13.5H8.5V14.5H14.5V13.5ZM8.5 19.5H14.5V18.5H8.5V19.5ZM14.5 19.5C14.9581 19.5 15.3351 19.5005 15.6401 19.4728C15.9519 19.4446 16.2372 19.3838 16.5 19.232L16 18.366C15.9147 18.4152 15.7923 18.4549 15.5498 18.4769C15.3005 18.4995 14.9765 18.5 14.5 18.5V19.5ZM16.5 16.5C16.5 16.9765 16.4995 17.3005 16.4769 17.5498C16.4549 17.7923 16.4152 17.9147 16.366 18L17.2321 18.5C17.3838 18.2372 17.4446 17.9519 17.4728 17.6401C17.5005 17.3351 17.5 16.9581 17.5 16.5H16.5ZM16.5 19.232C16.804 19.0565 17.0565 18.804 17.2321 18.5L16.366 18C16.2783 18.152 16.152 18.2783 16 18.366L16.5 19.232ZM5.5 16.5C5.5 16.9581 5.49952 17.3351 5.52716 17.6401C5.55542 17.9519 5.61621 18.2372 5.76795 18.5L6.63397 18C6.58475 17.9147 6.54506 17.7923 6.52308 17.5498C6.50048 17.3005 6.5 16.9765 6.5 16.5H5.5ZM8.5 18.5C8.02349 18.5 7.69954 18.4995 7.45018 18.4769C7.2077 18.4549 7.08525 18.4152 7 18.366L6.5 19.232C6.76282 19.3838 7.04807 19.4446 7.35992 19.4728C7.66488 19.5005 8.04189 19.5 8.5 19.5V18.5ZM5.76795 18.5C5.94349 18.804 6.19596 19.0565 6.5 19.232L7 18.366C6.84798 18.2783 6.72174 18.152 6.63397 18L5.76795 18.5ZM8.5 13.5C8.04189 13.5 7.66488 13.4995 7.35992 13.5272C7.04807 13.5554 6.76282 13.6162 6.5 13.7679L7 14.634C7.08526 14.5848 7.2077 14.5451 7.45018 14.5231C7.69954 14.5005 8.02349 14.5 8.5 14.5V13.5ZM6.5 16.5C6.5 16.0235 6.50048 15.6995 6.52308 15.4502C6.54506 15.2077 6.58475 15.0853 6.63397 15L5.76795 14.5C5.61621 14.7628 5.55542 15.0481 5.52716 15.3599C5.49952 15.6649 5.5 16.0419 5.5 16.5H6.5ZM6.5 13.7679C6.19596 13.9435 5.94349 14.196 5.76795 14.5L6.63397 15C6.72174 14.848 6.84798 14.7217 7 14.634L6.5 13.7679ZM14.5 14.5C14.9765 14.5 15.3005 14.5005 15.5498 14.5231C15.7923 14.5451 15.9147 14.5848 16 14.634L16.5 13.7679C16.2372 13.6162 15.9519 13.5554 15.6401 13.5272C15.3351 13.4995 14.9581 13.5 14.5 13.5V14.5ZM17.5 16.5C17.5 16.0419 17.5005 15.6649 17.4728 15.3599C17.4446 15.0481 17.3838 14.7628 17.2321 14.5L16.366 15C16.4152 15.0853 16.4549 15.2077 16.4769 15.4502C16.4995 15.6995 16.5 16.0235 16.5 16.5H17.5ZM16 14.634C16.152 14.7217 16.2783 14.848 16.366 15L17.2321 14.5C17.0565 14.196 16.804 13.9435 16.5 13.7679L16 14.634Z" fill="#424242"/>
</svg>
