<svg width="24" height="24" viewBox="0 0 24 24" fill="none" xmlns="http://www.w3.org/2000/svg">
<path d="M3.5 2C3.5 1.72386 3.27614 1.5 3 1.5C2.72386 1.5 2.5 1.72386 2.5 2H3.5ZM2.5 22C2.5 22.2761 2.72386 22.5 3 22.5C3.27614 22.5 3.5 22.2761 3.5 22H2.5ZM7.75 9.79904L7.5 10.2321L7.75 9.79904ZM7.20096 9.25L6.76795 9.5L7.20096 9.25ZM20.799 9.25L21.232 9.5L20.799 9.25ZM20.25 9.79904L20.5 10.2321L20.25 9.79904ZM20.25 5.20096L20.5 4.76795L20.25 5.20096ZM20.799 5.75L21.232 5.5L20.799 5.75ZM7.75 5.20096L7.5 4.76795L7.75 5.20096ZM7.20096 5.75L6.76795 5.5L7.20096 5.75ZM7.75 18.799L7.5 19.232L7.75 18.799ZM7.20096 18.25L6.76795 18.5L7.20096 18.25ZM17.799 18.25L18.2321 18.5L17.799 18.25ZM17.25 18.799L17.5 19.232L17.25 18.799ZM17.25 14.201L17.5 13.7679L17.25 14.201ZM17.799 14.75L18.2321 14.5L17.799 14.75ZM7.75 14.201L7.5 13.7679L7.75 14.201ZM7.20096 14.75L6.76795 14.5L7.20096 14.75ZM2.5 2V22H3.5V2H2.5ZM9.5 5.5H18.5V4.5H9.5V5.5ZM18.5 9.5H9.5V10.5H18.5V9.5ZM9.5 9.5C9.02349 9.5 8.69954 9.49952 8.45018 9.47692C8.2077 9.45494 8.08526 9.41525 8 9.36603L7.5 10.2321C7.76282 10.3838 8.04807 10.4446 8.35992 10.4728C8.66488 10.5005 9.04189 10.5 9.5 10.5V9.5ZM6.5 7.5C6.5 7.95811 6.49952 8.33512 6.52716 8.64008C6.55542 8.95193 6.61621 9.23718 6.76795 9.5L7.63397 9C7.58475 8.91475 7.54506 8.7923 7.52308 8.54982C7.50048 8.30046 7.5 7.97651 7.5 7.5H6.5ZM8 9.36603C7.84798 9.27826 7.72174 9.15202 7.63397 9L6.76795 9.5C6.94349 9.80404 7.19596 10.0565 7.5 10.2321L8 9.36603ZM20.5 7.5C20.5 7.97651 20.4995 8.30046 20.4769 8.54982C20.4549 8.7923 20.4152 8.91475 20.366 9L21.232 9.5C21.3838 9.23718 21.4446 8.95193 21.4728 8.64008C21.5005 8.33512 21.5 7.95811 21.5 7.5H20.5ZM18.5 10.5C18.9581 10.5 19.3351 10.5005 19.6401 10.4728C19.9519 10.4446 20.2372 10.3838 20.5 10.2321L20 9.36603C19.9147 9.41525 19.7923 9.45494 19.5498 9.47692C19.3005 9.49952 18.9765 9.5 18.5 9.5V10.5ZM20.366 9C20.2783 9.15202 20.152 9.27826 20 9.36603L20.5 10.2321C20.804 10.0565 21.0565 9.80404 21.232 9.5L20.366 9ZM18.5 5.5C18.9765 5.5 19.3005 5.50048 19.5498 5.52308C19.7923 5.54506 19.9147 5.58475 20 5.63397L20.5 4.76795C20.2372 4.61621 19.9519 4.55542 19.6401 4.52716C19.3351 4.49952 18.9581 4.5 18.5 4.5V5.5ZM21.5 7.5C21.5 7.04189 21.5005 6.66488 21.4728 6.35992C21.4446 6.04807 21.3838 5.76282 21.232 5.5L20.366 6C20.4152 6.08525 20.4549 6.2077 20.4769 6.45018C20.4995 6.69954 20.5 7.02349 20.5 7.5H21.5ZM20 5.63397C20.152 5.72174 20.2783 5.84798 20.366 6L21.232 5.5C21.0565 5.19596 20.804 4.94349 20.5 4.76795L20 5.63397ZM9.5 4.5C9.04189 4.5 8.66488 4.49952 8.35992 4.52716C8.04807 4.55542 7.76282 4.61621 7.5 4.76795L8 5.63397C8.08525 5.58475 8.2077 5.54506 8.45018 5.52308C8.69954 5.50048 9.02349 5.5 9.5 5.5V4.5ZM7.5 7.5C7.5 7.02349 7.50048 6.69954 7.52308 6.45018C7.54506 6.2077 7.58475 6.08525 7.63397 6L6.76795 5.5C6.61621 5.76282 6.55542 6.04807 6.52716 6.35992C6.49952 6.66488 6.5 7.04189 6.5 7.5H7.5ZM7.5 4.76795C7.19596 4.94349 6.94349 5.19596 6.76795 5.5L7.63397 6C7.72174 5.84798 7.84798 5.72174 8 5.63397L7.5 4.76795ZM9.5 14.5H15.5V13.5H9.5V14.5ZM15.5 18.5H9.5V19.5H15.5V18.5ZM9.5 18.5C9.02349 18.5 8.69954 18.4995 8.45018 18.4769C8.2077 18.4549 8.08526 18.4152 8 18.366L7.5 19.232C7.76282 19.3838 8.04807 19.4446 8.35992 19.4728C8.66488 19.5005 9.04189 19.5 9.5 19.5V18.5ZM6.5 16.5C6.5 16.9581 6.49952 17.3351 6.52716 17.6401C6.55542 17.9519 6.61621 18.2372 6.76795 18.5L7.63397 18C7.58475 17.9147 7.54506 17.7923 7.52308 17.5498C7.50048 17.3005 7.5 16.9765 7.5 16.5H6.5ZM8 18.366C7.84798 18.2783 7.72174 18.152 7.63397 18L6.76795 18.5C6.94349 18.804 7.19596 19.0565 7.5 19.232L8 18.366ZM17.5 16.5C17.5 16.9765 17.4995 17.3005 17.4769 17.5498C17.4549 17.7923 17.4152 17.9147 17.366 18L18.2321 18.5C18.3838 18.2372 18.4446 17.9519 18.4728 17.6401C18.5005 17.3351 18.5 16.9581 18.5 16.5H17.5ZM15.5 19.5C15.9581 19.5 16.3351 19.5005 16.6401 19.4728C16.9519 19.4446 17.2372 19.3838 17.5 19.232L17 18.366C16.9147 18.4152 16.7923 18.4549 16.5498 18.4769C16.3005 18.4995 15.9765 18.5 15.5 18.5V19.5ZM17.366 18C17.2783 18.152 17.152 18.2783 17 18.366L17.5 19.232C17.804 19.0565 18.0565 18.804 18.2321 18.5L17.366 18ZM15.5 14.5C15.9765 14.5 16.3005 14.5005 16.5498 14.5231C16.7923 14.5451 16.9147 14.5848 17 14.634L17.5 13.7679C17.2372 13.6162 16.9519 13.5554 16.6401 13.5272C16.3351 13.4995 15.9581 13.5 15.5 13.5V14.5ZM18.5 16.5C18.5 16.0419 18.5005 15.6649 18.4728 15.3599C18.4446 15.0481 18.3838 14.7628 18.2321 14.5L17.366 15C17.4152 15.0853 17.4549 15.2077 17.4769 15.4502C17.4995 15.6995 17.5 16.0235 17.5 16.5H18.5ZM17 14.634C17.152 14.7217 17.2783 14.848 17.366 15L18.2321 14.5C18.0565 14.196 17.804 13.9435 17.5 13.7679L17 14.634ZM9.5 13.5C9.04189 13.5 8.66488 13.4995 8.35992 13.5272C8.04807 13.5554 7.76282 13.6162 7.5 13.7679L8 14.634C8.08525 14.5848 8.2077 14.5451 8.45018 14.5231C8.69954 14.5005 9.02349 14.5 9.5 14.5V13.5ZM7.5 16.5C7.5 16.0235 7.50048 15.6995 7.52308 15.4502C7.54506 15.2077 7.58475 15.0853 7.63397 15L6.76795 14.5C6.61621 14.7628 6.55542 15.0481 6.52716 15.3599C6.49952 15.6649 6.5 16.0419 6.5 16.5H7.5ZM7.5 13.7679C7.19596 13.9435 6.94349 14.196 6.76795 14.5L7.63397 15C7.72174 14.848 7.84798 14.7217 8 14.634L7.5 13.7679Z" fill="#424242"/>
</svg>
