<svg width="24" height="24" viewBox="0 0 24 24" fill="none" xmlns="http://www.w3.org/2000/svg">
<path fill-rule="evenodd" clip-rule="evenodd" d="M13.9791 13.7465V4.7027C13.9791 4.10564 13.4768 3.62162 12.8571 3.62162C12.2374 3.62162 11.7351 4.10564 11.7351 4.7027V10.7703V3.08108C11.7351 2.48402 11.2328 2 10.6131 2C9.99344 2 9.49112 2.48402 9.49112 3.08108V11.2703V4.7027C9.49112 4.10564 8.9888 3.62162 8.36912 3.62162C7.74943 3.62162 7.24711 4.10564 7.24711 4.7027V11.7703V7.94595C7.24711 7.34886 6.74479 6.86486 6.12511 6.86486C5.50545 6.86486 5.00311 7.34886 5.00311 7.94595V16.0541C5.00311 16.0541 4.72261 21.7297 9.49112 22H11.7351C14.2063 22 15.357 19.4994 16.5335 17.4054L18.7477 13.6216C19.0949 13.0036 19.1359 11.9069 18.5368 11.5061C17.8812 11.0674 16.98 11.2299 16.5335 11.8674L15.0051 14.049C14.6955 14.4909 13.9791 14.2798 13.9791 13.7465Z" stroke="#424242" stroke-linejoin="round"/>
<path fill-rule="evenodd" clip-rule="evenodd" d="M7.70875 14.2141C7.70884 14.3324 7.60938 14.4284 7.48658 14.4285C7.36378 14.4286 7.26415 14.3327 7.26406 14.2144C7.26395 14.0961 7.3634 14.0001 7.4862 14C7.609 13.9999 7.70864 14.0957 7.70875 14.2141ZM12.341 15.4274C12.3411 15.5457 12.2417 15.6417 12.1189 15.6418C11.9961 15.6419 11.8964 15.5461 11.8964 15.4278C11.8962 15.3095 11.9957 15.2135 12.1185 15.2134C12.2413 15.2133 12.3409 15.3091 12.341 15.4274ZM9.97003 17.4993C10.0928 17.4992 10.1923 17.4032 10.1922 17.2849C10.1921 17.1666 10.0925 17.0707 9.96966 17.0708C9.84686 17.0709 9.7474 17.1669 9.74749 17.2852C9.7476 17.4036 9.84723 17.4994 9.97003 17.4993ZM12.5648 17.7123C12.6876 17.7122 12.7871 17.6162 12.787 17.4979C12.7869 17.3796 12.6873 17.2837 12.5645 17.2838C12.4417 17.2839 12.3422 17.3799 12.3423 17.4983C12.3424 17.6166 12.442 17.7124 12.5648 17.7123ZM10.4154 19.3559C10.5382 19.3558 10.6377 19.2598 10.6376 19.1415C10.6375 19.0232 10.5379 18.9273 10.4151 18.9274C10.2923 18.9275 10.1928 19.0235 10.1929 19.1418C10.193 19.2602 10.2927 19.356 10.4154 19.3559ZM8.48785 18.9281C8.48796 19.0464 8.38848 19.1424 8.26568 19.1425C8.14288 19.1426 8.04327 19.0468 8.04316 18.9285C8.04307 18.8102 8.14252 18.7142 8.26533 18.7141C8.38813 18.714 8.48776 18.8098 8.48785 18.9281ZM7.82026 16.2859C7.94306 16.2858 8.04254 16.1899 8.04242 16.0715C8.04234 15.9532 7.9427 15.8574 7.8199 15.8575C7.6971 15.8576 7.59765 15.9536 7.59774 16.0719C7.59785 16.1902 7.69748 16.286 7.82026 16.2859Z" stroke="#424242" stroke-linejoin="round"/>
<path d="M12.8249 19.4979C12.825 19.6162 12.7255 19.7122 12.6027 19.7123C12.4799 19.7124 12.3803 19.6166 12.3802 19.4983C12.3801 19.3799 12.4795 19.2839 12.6023 19.2838C12.7251 19.2837 12.8247 19.3796 12.8249 19.4979Z" stroke="#424242" stroke-linejoin="round"/>
<path d="M10.1922 14.2849C10.1923 14.4032 10.0928 14.4992 9.97004 14.4993C9.84724 14.4994 9.7476 14.4036 9.74749 14.2852C9.7474 14.1669 9.84686 14.0709 9.96966 14.0708C10.0925 14.0707 10.1921 14.1666 10.1922 14.2849Z" stroke="#424242" stroke-linejoin="round"/>
</svg>
