<svg width="24" height="24" viewBox="0 0 24 24" fill="none" xmlns="http://www.w3.org/2000/svg">
<path d="M11.4945 12.0626L17.198 17.7661M5.90063 6.4676L9.30547 9.84698M18.3618 16.5415L7.12418 5.30499M17.7585 11.458C17.8659 12.593 17.5371 13.7556 16.6945 14.616C16.6889 14.6226 16.6823 14.6282 16.6767 14.6348L15.5197 13.4788C16.6679 12.6129 16.1751 11.52 16.3246 10.9177C16.4807 10.2932 17.6334 10.116 17.7585 11.458ZM17.7585 11.458H18.393M10.2878 15.8174C10.6466 16.8039 11.4361 17.4993 12.3684 17.8437C13.4701 18.25 13.7657 17.2778 13.3328 16.9202C12.8988 16.5626 11.7871 16.5504 11.5977 15.1685C11.4881 14.3635 9.80175 14.4831 10.2878 15.8174ZM10.2878 15.8174L9.66772 15.9558M16.2991 11.4881H15.6647M18.2291 13.149L17.6599 12.8666M12.0616 18.3897L12.1713 17.7652M12.8367 16.6602L13.3028 16.2294M10.6134 17.4607L11.1205 17.0798M11.6653 15.492L12.1724 15.1111M10.5934 10.9265L10.589 10.921M2.39062 11.6662C2.39062 16.9733 6.69234 21.2761 11.9995 21.2761C17.301 21.2761 21.6005 16.9822 21.6094 11.6828V11.6662V11.6507C21.6005 6.35577 17.3099 2.06624 12.0161 2.05737H11.9995H11.9839C6.68348 2.06624 2.39062 6.36464 2.39062 11.6662ZM15.5595 8.22276C15.4643 8.62803 15.0601 8.87826 14.656 8.78303C14.2518 8.68893 14.0005 8.28365 14.0957 7.87951C14.1898 7.47537 14.5951 7.22401 14.9992 7.31924C15.4034 7.41447 15.6547 7.81861 15.5595 8.22276ZM7.92049 14.3557C7.81861 14.7898 7.38346 15.0589 6.94943 14.957C6.51537 14.8551 6.24517 14.4211 6.34705 13.987C6.44892 13.5519 6.88408 13.2828 7.31814 13.3847C7.75217 13.4865 8.02232 13.9217 7.92049 14.3557ZM7.59489 11.157C7.49301 11.591 7.05786 11.8612 6.62383 11.7593C6.18977 11.6575 5.91962 11.2223 6.02149 10.7882C6.12337 10.3531 6.55848 10.084 6.99254 10.1859C7.42657 10.2878 7.69676 10.7229 7.59489 11.157ZM12.6485 6.9926C12.5466 7.42667 12.1114 7.69682 11.6774 7.59385C11.2422 7.49198 10.9731 7.05791 11.075 6.62389C11.1769 6.18873 11.612 5.91967 12.0461 6.02155C12.4801 6.12342 12.7503 6.55854 12.6485 6.9926Z" stroke="#424242" stroke-miterlimit="10" stroke-linecap="round" stroke-linejoin="round"/>
</svg>
