<svg width="24" height="24" viewBox="0 0 24 24" fill="none" xmlns="http://www.w3.org/2000/svg">
<path d="M20.3417 4.52384L20.6997 4.17479V4.17479L20.3417 4.52384ZM20.9208 10.9744C20.9208 11.2505 21.1447 11.4744 21.4208 11.4744C21.697 11.4744 21.9208 11.2505 21.9208 10.9744H20.9208ZM4.07907 4.52384L3.72107 4.17479V4.17479L4.07907 4.52384ZM7.1052 3.41711C7.1052 3.69325 7.32906 3.91711 7.6052 3.91711C7.88135 3.91711 8.1052 3.69325 8.1052 3.41711H7.1052ZM8.1052 2.00012C8.1052 1.72398 7.88135 1.50012 7.6052 1.50012C7.32906 1.50012 7.1052 1.72398 7.1052 2.00012H8.1052ZM16.3156 3.41711C16.3156 3.69325 16.5395 3.91711 16.8156 3.91711C17.0917 3.91711 17.3156 3.69325 17.3156 3.41711H16.3156ZM17.3156 2.00012C17.3156 1.72398 17.0917 1.50012 16.8156 1.50012C16.5395 1.50012 16.3156 1.72398 16.3156 2.00012H17.3156ZM3.46052 7.64039C3.18438 7.64039 2.96052 7.86425 2.96052 8.14039C2.96052 8.41653 3.18438 8.64039 3.46052 8.64039V7.64039ZM20.9603 8.64039C21.2364 8.64039 21.4603 8.41653 21.4603 8.14039C21.4603 7.86425 21.2364 7.64039 20.9603 7.64039V8.64039ZM11.5 20.9209C11.7761 20.9209 12 20.6971 12 20.4209C12 20.1448 11.7761 19.9209 11.5 19.9209V20.9209ZM17 17.5H16.5C16.5 17.6326 16.5527 17.7598 16.6464 17.8536L17 17.5ZM17.5 15.5C17.5 15.2239 17.2761 15 17 15C16.7239 15 16.5 15.2239 16.5 15.5H17.5ZM17.8964 19.1036C18.0917 19.2988 18.4083 19.2988 18.6036 19.1036C18.7988 18.9083 18.7988 18.5917 18.6036 18.3965L17.8964 19.1036ZM12.485 12.826C12.2508 12.9724 12.1796 13.2808 12.326 13.515C12.4724 13.7492 12.7808 13.8204 13.015 13.674L12.485 12.826ZM15.015 12.424C15.2492 12.2777 15.3204 11.9692 15.174 11.735C15.0277 11.5008 14.7192 11.4297 14.485 11.576L15.015 12.424ZM20.985 13.674C21.2192 13.8204 21.5276 13.7492 21.674 13.515C21.8204 13.2808 21.7492 12.9724 21.515 12.826L20.985 13.674ZM19.515 11.576C19.2808 11.4297 18.9724 11.5008 18.826 11.735C18.6796 11.9692 18.7508 12.2777 18.985 12.424L19.515 11.576ZM10.3683 3.91711H14.0525V2.91711H10.3683V3.91711ZM3.5 12.8637V10.9744H2.5V12.8637H3.5ZM10.3683 19.9209C8.6171 19.9209 7.35526 19.9198 6.3941 19.7873C5.44864 19.6569 4.86877 19.4079 4.43707 18.9651L3.72107 19.6632C4.36843 20.3272 5.19646 20.6316 6.2575 20.7779C7.30283 20.922 8.64608 20.9209 10.3683 20.9209V19.9209ZM2.5 12.8637C2.5 14.6311 2.49899 16.0058 2.63912 17.0748C2.78098 18.157 3.07542 19.001 3.72107 19.6632L4.43707 18.9651C4.00365 18.5206 3.75855 17.9207 3.63064 16.9449C3.50101 15.956 3.5 14.6587 3.5 12.8637H2.5ZM14.0525 3.91711C15.8037 3.91711 17.0655 3.91822 18.0267 4.05076C18.9722 4.18113 19.552 4.43012 19.9837 4.87289L20.6997 4.17479C20.0524 3.51083 19.2244 3.20645 18.1633 3.06014C17.118 2.91599 15.7747 2.91711 14.0525 2.91711V3.91711ZM21.9208 10.9744C21.9208 9.20689 21.9218 7.83223 21.7817 6.76319C21.6398 5.68105 21.3454 4.83699 20.6997 4.17479L19.9837 4.87289C20.4172 5.31743 20.6623 5.91737 20.7902 6.89317C20.9198 7.88208 20.9208 9.17931 20.9208 10.9744H21.9208ZM10.3683 2.91711C8.64608 2.91711 7.30283 2.91599 6.2575 3.06014C5.19646 3.20645 4.36843 3.51083 3.72107 4.17479L4.43707 4.87289C4.86877 4.43012 5.44864 4.18113 6.3941 4.05076C7.35526 3.91822 8.61711 3.91711 10.3683 3.91711V2.91711ZM3.5 10.9744C3.5 9.17931 3.50101 7.88208 3.63064 6.89317C3.75855 5.91737 4.00365 5.31743 4.43707 4.87289L3.72107 4.17479C3.07542 4.83699 2.78098 5.68105 2.63912 6.76319C2.49899 7.83223 2.5 9.20689 2.5 10.9744H3.5ZM8.1052 3.41711V2.00012H7.1052V3.41711H8.1052ZM17.3156 3.41711V2.00012H16.3156V3.41711H17.3156ZM3.46052 8.64039H20.9603V7.64039H3.46052V8.64039ZM10.3683 20.9209H11.5V19.9209H10.3683V20.9209ZM21 17.5C21 19.7092 19.2091 21.5 17 21.5V22.5C19.7614 22.5 22 20.2614 22 17.5H21ZM17 21.5C14.7909 21.5 13 19.7092 13 17.5H12C12 20.2614 14.2386 22.5 17 22.5V21.5ZM13 17.5C13 15.2909 14.7909 13.5 17 13.5V12.5C14.2386 12.5 12 14.7386 12 17.5H13ZM17 13.5C19.2091 13.5 21 15.2909 21 17.5H22C22 14.7386 19.7614 12.5 17 12.5V13.5ZM17.5 17.5V15.5H16.5V17.5H17.5ZM16.6464 17.8536L17.8964 19.1036L18.6036 18.3965L17.3536 17.1465L16.6464 17.8536ZM13.015 13.674L15.015 12.424L14.485 11.576L12.485 12.826L13.015 13.674ZM21.515 12.826L19.515 11.576L18.985 12.424L20.985 13.674L21.515 12.826Z" fill="#424242"/>
</svg>
