<svg width="24" height="24" viewBox="0 0 24 24" fill="none" xmlns="http://www.w3.org/2000/svg">
<path d="M4.73005 21.455L4.95704 21.0095L4.73005 21.455ZM2.54497 19.27L2.99047 19.043L2.54497 19.27ZM21.455 19.27L21.0095 19.043L21.455 19.27ZM19.27 21.455L19.043 21.0095L19.27 21.455ZM19.27 6.54497L19.043 6.99047L19.27 6.54497ZM21.455 8.73005L21.0095 8.95704L21.455 8.73005ZM4.73005 6.54497L4.95704 6.99047L4.73005 6.54497ZM2.54497 8.73005L2.99047 8.95704L2.54497 8.73005ZM12.5 11C12.5 10.7239 12.2761 10.5 12 10.5C11.7239 10.5 11.5 10.7239 11.5 11H12.5ZM12 17L11.6464 17.3536C11.8417 17.5488 12.1583 17.5488 12.3536 17.3536L12 17ZM14.8536 14.8536C15.0488 14.6583 15.0488 14.3417 14.8536 14.1464C14.6583 13.9512 14.3417 13.9512 14.1464 14.1464L14.8536 14.8536ZM9.85355 14.1464C9.65829 13.9512 9.34171 13.9512 9.14645 14.1464C8.95118 14.3417 8.95118 14.6583 9.14645 14.8536L9.85355 14.1464ZM12 2.5C14.3712 2.5 16.0992 2.50106 17.4197 2.6786C18.7259 2.8542 19.5581 3.19417 20.182 3.81802L20.8891 3.11091C20.0485 2.2703 18.97 1.87803 17.553 1.68752C16.1504 1.49894 14.3429 1.5 12 1.5V2.5ZM22.5 12C22.5 9.65711 22.5011 7.84965 22.3125 6.44702C22.122 5.03 21.7297 3.95153 20.8891 3.11091L20.182 3.81802C20.8058 4.44187 21.1458 5.27414 21.3214 6.58026C21.4989 7.90077 21.5 9.62884 21.5 12H22.5ZM12 1.5C9.65711 1.5 7.84965 1.49894 6.44702 1.68752C5.03 1.87803 3.95153 2.2703 3.11091 3.11091L3.81802 3.81802C4.44187 3.19417 5.27414 2.8542 6.58026 2.6786C7.90077 2.50106 9.62884 2.5 12 2.5V1.5ZM2.5 12C2.5 9.62884 2.50106 7.90077 2.6786 6.58026C2.8542 5.27414 3.19417 4.44187 3.81802 3.81802L3.11091 3.11091C2.2703 3.95153 1.87803 5.03 1.68752 6.44702C1.49894 7.84965 1.5 9.65711 1.5 12H2.5ZM10 6.5H14V5.5H10V6.5ZM14 21.5H10V22.5H14V21.5ZM10 21.5C8.59162 21.5 7.5654 21.4996 6.75673 21.4335C5.95389 21.3679 5.40959 21.2401 4.95704 21.0095L4.50305 21.9005C5.12007 22.2149 5.81061 22.3596 6.67529 22.4302C7.53414 22.5004 8.60812 22.5 10 22.5V21.5ZM1.5 14C1.5 15.3919 1.49961 16.4659 1.56978 17.3247C1.64043 18.1894 1.78508 18.8799 2.09946 19.4969L2.99047 19.043C2.75989 18.5904 2.63205 18.0461 2.56646 17.2433C2.50039 16.4346 2.5 15.4084 2.5 14H1.5ZM4.95704 21.0095C4.11031 20.5781 3.4219 19.8897 2.99047 19.043L2.09946 19.4969C2.62677 20.5318 3.46816 21.3732 4.50305 21.9005L4.95704 21.0095ZM21.5 14C21.5 15.4084 21.4996 16.4346 21.4335 17.2433C21.3679 18.0461 21.2401 18.5904 21.0095 19.043L21.9005 19.4969C22.2149 18.8799 22.3596 18.1894 22.4302 17.3247C22.5004 16.4659 22.5 15.3919 22.5 14H21.5ZM14 22.5C15.3919 22.5 16.4659 22.5004 17.3247 22.4302C18.1894 22.3596 18.8799 22.2149 19.4969 21.9005L19.043 21.0095C18.5904 21.2401 18.0461 21.3679 17.2433 21.4335C16.4346 21.4996 15.4084 21.5 14 21.5V22.5ZM21.0095 19.043C20.5781 19.8897 19.8897 20.5781 19.043 21.0095L19.4969 21.9005C20.5318 21.3732 21.3732 20.5318 21.9005 19.4969L21.0095 19.043ZM14 6.5C15.4084 6.5 16.4346 6.50039 17.2433 6.56646C18.0461 6.63206 18.5904 6.75989 19.043 6.99047L19.4969 6.09946C18.8799 5.78508 18.1894 5.64043 17.3247 5.56978C16.4659 5.49961 15.3919 5.5 14 5.5V6.5ZM22.5 14C22.5 12.6081 22.5004 11.5341 22.4302 10.6753C22.3596 9.81061 22.2149 9.12007 21.9005 8.50305L21.0095 8.95704C21.2401 9.40959 21.3679 9.95389 21.4335 10.7567C21.4996 11.5654 21.5 12.5916 21.5 14H22.5ZM19.043 6.99047C19.8897 7.4219 20.5781 8.11031 21.0095 8.95704L21.9005 8.50305C21.3732 7.46816 20.5318 6.62677 19.4969 6.09946L19.043 6.99047ZM10 5.5C8.60812 5.5 7.53414 5.49961 6.67529 5.56978C5.81061 5.64043 5.12007 5.78508 4.50305 6.09946L4.95704 6.99047C5.40959 6.75989 5.95389 6.63206 6.75673 6.56646C7.5654 6.50039 8.59162 6.5 10 6.5V5.5ZM2.5 14C2.5 12.5916 2.50039 11.5654 2.56646 10.7567C2.63205 9.95389 2.75989 9.40959 2.99047 8.95704L2.09946 8.50305C1.78508 9.12007 1.64043 9.81061 1.56978 10.6753C1.49961 11.5341 1.5 12.6081 1.5 14H2.5ZM4.50305 6.09946C3.46816 6.62677 2.62677 7.46816 2.09946 8.50305L2.99047 8.95704C3.4219 8.11031 4.11031 7.4219 4.95704 6.99047L4.50305 6.09946ZM11.5 11V17H12.5V11H11.5ZM12.3536 17.3536L14.8536 14.8536L14.1464 14.1464L11.6464 16.6464L12.3536 17.3536ZM12.3536 16.6464L9.85355 14.1464L9.14645 14.8536L11.6464 17.3536L12.3536 16.6464Z" fill="#424242"/>
</svg>
