<svg width="24" height="24" viewBox="0 0 24 24" fill="none" xmlns="http://www.w3.org/2000/svg">
<path d="M21 7C21 6.72386 20.7761 6.5 20.5 6.5C20.2239 6.5 20 6.72386 20 7H21ZM4 7C4 6.72386 3.77614 6.5 3.5 6.5C3.22386 6.5 3 6.72386 3 7H4ZM9.87297 13.067C9.68905 12.861 9.37298 12.8431 9.16699 13.027C8.96101 13.2109 8.94312 13.527 9.12703 13.733L9.87297 13.067ZM10.9286 15L10.5556 15.333C10.6505 15.4393 10.7861 15.5 10.9286 15.5C11.071 15.5 11.2067 15.4393 11.3015 15.333L10.9286 15ZM14.873 11.333C15.0569 11.127 15.039 10.8109 14.833 10.627C14.627 10.4431 14.3109 10.461 14.127 10.667L14.873 11.333ZM20 7V13H21V7H20ZM12.5 20.5H11.5V21.5H12.5V20.5ZM4 13V7H3V13H4ZM11.5 20.5C9.60025 20.5 8.22573 20.4989 7.17754 20.358C6.14373 20.219 5.50253 19.9523 5.02513 19.4749L4.31802 20.182C5.01219 20.8762 5.89959 21.1952 7.04429 21.3491C8.17461 21.5011 9.62852 21.5 11.5 21.5V20.5ZM3 13C3 14.8715 2.99894 16.3254 3.15091 17.4557C3.30481 18.6004 3.62385 19.4878 4.31802 20.182L5.02513 19.4749C4.54772 18.9975 4.28098 18.3563 4.14199 17.3225C4.00106 16.2743 4 14.8998 4 13H3ZM20 13C20 14.8998 19.9989 16.2743 19.858 17.3225C19.719 18.3563 19.4523 18.9975 18.9749 19.4749L19.682 20.182C20.3762 19.4878 20.6952 18.6004 20.8491 17.4557C21.0011 16.3254 21 14.8715 21 13H20ZM12.5 21.5C14.3715 21.5 15.8254 21.5011 16.9557 21.3491C18.1004 21.1952 18.9878 20.8762 19.682 20.182L18.9749 19.4749C18.4975 19.9523 17.8563 20.219 16.8225 20.358C15.7743 20.4989 14.3998 20.5 12.5 20.5V21.5ZM4 3.5H20V2.5H4V3.5ZM20 6.5H4V7.5H20V6.5ZM4 6.5C3.51446 6.5 3.20061 6.49894 2.96935 6.46785C2.75248 6.43869 2.68451 6.39162 2.64645 6.35355L1.93934 7.06066C2.19417 7.31549 2.50835 7.41486 2.8361 7.45893C3.14948 7.50106 3.54273 7.5 4 7.5V6.5ZM1.5 5C1.5 5.45727 1.49894 5.85052 1.54107 6.1639C1.58514 6.49165 1.68451 6.80583 1.93934 7.06066L2.64645 6.35355C2.60838 6.31549 2.56131 6.24752 2.53215 6.03065C2.50106 5.79939 2.5 5.48554 2.5 5H1.5ZM21.5 5C21.5 5.48554 21.4989 5.7994 21.4678 6.03065C21.4387 6.24752 21.3916 6.31549 21.3536 6.35355L22.0607 7.06066C22.3155 6.80583 22.4149 6.49165 22.4589 6.1639C22.5011 5.85052 22.5 5.45727 22.5 5H21.5ZM20 7.5C20.4573 7.5 20.8505 7.50106 21.1639 7.45893C21.4917 7.41486 21.8058 7.31549 22.0607 7.06066L21.3536 6.35355C21.3155 6.39162 21.2475 6.43869 21.0306 6.46785C20.7994 6.49894 20.4855 6.5 20 6.5V7.5ZM20 3.5C20.4855 3.5 20.7994 3.50106 21.0306 3.53215C21.2475 3.56131 21.3155 3.60838 21.3536 3.64645L22.0607 2.93934C21.8058 2.68451 21.4917 2.58514 21.1639 2.54107C20.8505 2.49894 20.4573 2.5 20 2.5V3.5ZM22.5 5C22.5 4.54273 22.5011 4.14948 22.4589 3.8361C22.4149 3.50835 22.3155 3.19417 22.0607 2.93934L21.3536 3.64645C21.3916 3.68451 21.4387 3.75248 21.4678 3.96935C21.4989 4.2006 21.5 4.51446 21.5 5H22.5ZM4 2.5C3.54273 2.5 3.14948 2.49894 2.8361 2.54107C2.50835 2.58514 2.19417 2.68451 1.93934 2.93934L2.64645 3.64645C2.68451 3.60838 2.75248 3.56131 2.96935 3.53215C3.20061 3.50106 3.51446 3.5 4 3.5V2.5ZM2.5 5C2.5 4.51446 2.50106 4.20061 2.53215 3.96935C2.56131 3.75248 2.60838 3.68451 2.64645 3.64645L1.93934 2.93934C1.68451 3.19417 1.58514 3.50835 1.54107 3.8361C1.49894 4.14948 1.5 4.54273 1.5 5H2.5ZM9.12703 13.733L10.5556 15.333L11.3015 14.667L9.87297 13.067L9.12703 13.733ZM11.3015 15.333L14.873 11.333L14.127 10.667L10.5556 14.667L11.3015 15.333Z" fill="#424242"/>
</svg>
