<svg width="24" height="24" viewBox="0 0 24 24" fill="none" xmlns="http://www.w3.org/2000/svg">
<path d="M9.61506 5.55858C9.33892 5.55858 9.11506 5.78243 9.11506 6.05858C9.11506 6.33472 9.33892 6.55858 9.61506 6.55858V5.55858ZM12.7531 6.55858C13.0293 6.55858 13.2531 6.33472 13.2531 6.05858C13.2531 5.78243 13.0293 5.55858 12.7531 5.55858V6.55858ZM9.61506 8.52929C9.33892 8.52929 9.11506 8.75315 9.11506 9.02929C9.11506 9.30543 9.33892 9.52929 9.61506 9.52929V8.52929ZM12.7531 9.52929C13.0293 9.52929 13.2531 9.30543 13.2531 9.02929C13.2531 8.75315 13.0293 8.52929 12.7531 8.52929V9.52929ZM9.11297 12.1695C8.83683 12.1695 8.61297 12.3933 8.61297 12.6695C8.61297 12.9456 8.83683 13.1695 9.11297 13.1695V12.1695ZM19.0711 13.1695C19.3473 13.1695 19.5711 12.9456 19.5711 12.6695C19.5711 12.3933 19.3473 12.1695 19.0711 12.1695V13.1695ZM9.11297 15.0565C8.83683 15.0565 8.61297 15.2803 8.61297 15.5565C8.61297 15.8326 8.83683 16.0565 9.11297 16.0565V15.0565ZM19.0711 16.0565C19.3473 16.0565 19.5711 15.8326 19.5711 15.5565C19.5711 15.2803 19.3473 15.0565 19.0711 15.0565V16.0565ZM9.11297 17.9435C8.83683 17.9435 8.61297 18.1674 8.61297 18.4435C8.61297 18.7197 8.83683 18.9435 9.11297 18.9435V17.9435ZM19.0711 18.9435C19.3473 18.9435 19.5711 18.7197 19.5711 18.4435C19.5711 18.1674 19.3473 17.9435 19.0711 17.9435V18.9435ZM2.63113 14.2679L2.333 13.8665H2.333L2.63113 14.2679ZM6.30962 22.8347C6.58577 22.8347 6.80962 22.6109 6.80962 22.3347C6.80962 22.0586 6.58577 21.8347 6.30962 21.8347V22.8347ZM2.63113 21.866L2.92926 21.4646V21.4646L2.63113 21.866ZM3.54544 14.4212C3.81579 14.365 3.98931 14.1002 3.93302 13.8298C3.87672 13.5595 3.61193 13.386 3.34159 13.4422L3.54544 14.4212ZM7.1744 3.19118L7.55228 3.51861V3.51861L7.1744 3.19118ZM9.61506 6.55858H12.7531V5.55858H9.61506V6.55858ZM9.61506 9.52929H12.7531V8.52929H9.61506V9.52929ZM9.11297 13.1695H19.0711V12.1695H9.11297V13.1695ZM9.11297 16.0565H19.0711V15.0565H9.11297V16.0565ZM9.11297 18.9435H19.0711V17.9435H9.11297V18.9435ZM16.364 6.22385H18.0544V5.22385H16.364V6.22385ZM18.8222 6.79079V8.21339H19.8222V6.79079H18.8222ZM18.0544 8.78033H16.364V9.78033H18.0544V8.78033ZM15.5962 8.21339V6.79079H14.5962V8.21339H15.5962ZM16.364 8.78033C16.0533 8.78033 15.8626 8.77958 15.7247 8.76397C15.5936 8.74914 15.5872 8.72752 15.6038 8.74153L14.9599 9.50664C15.1623 9.6769 15.3981 9.73341 15.6122 9.75763C15.8196 9.78109 16.0771 9.78033 16.364 9.78033V8.78033ZM14.5962 8.21339C14.5962 8.44817 14.5947 8.68385 14.6257 8.87763C14.6606 9.09586 14.7452 9.3259 14.9599 9.50664L15.6038 8.74153C15.6329 8.76602 15.6247 8.7922 15.6132 8.71988C15.5977 8.62311 15.5962 8.48157 15.5962 8.21339H14.5962ZM18.8222 8.21339C18.8222 8.48157 18.8207 8.62311 18.8052 8.71988C18.7937 8.7922 18.7855 8.76602 18.8146 8.74153L19.4585 9.50664C19.6732 9.3259 19.7578 9.09586 19.7927 8.87763C19.8237 8.68385 19.8222 8.44817 19.8222 8.21339H18.8222ZM18.0544 9.78033C18.3413 9.78033 18.5988 9.78109 18.8062 9.75763C19.0203 9.73341 19.2562 9.6769 19.4585 9.50664L18.8146 8.74153C18.8312 8.72752 18.8249 8.74914 18.6937 8.76397C18.5558 8.77958 18.3652 8.78033 18.0544 8.78033V9.78033ZM18.0544 6.22385C18.3652 6.22385 18.5558 6.22461 18.6937 6.24021C18.8249 6.25505 18.8312 6.27666 18.8146 6.26265L19.4585 5.49755C19.2562 5.32729 19.0203 5.27078 18.8062 5.24655C18.5988 5.22309 18.3413 5.22385 18.0544 5.22385V6.22385ZM19.8222 6.79079C19.8222 6.55602 19.8237 6.32033 19.7927 6.12655C19.7578 5.90833 19.6732 5.67829 19.4585 5.49755L18.8146 6.26265C18.7855 6.23817 18.7937 6.21199 18.8052 6.28431C18.8207 6.38107 18.8222 6.52261 18.8222 6.79079H19.8222ZM16.364 5.22385C16.0771 5.22385 15.8196 5.22309 15.6122 5.24655C15.3981 5.27078 15.1623 5.32729 14.9599 5.49755L15.6038 6.26265C15.5872 6.27666 15.5936 6.25505 15.7247 6.24021C15.8626 6.22461 16.0533 6.22385 16.364 6.22385V5.22385ZM15.5962 6.79079C15.5962 6.52261 15.5977 6.38107 15.6132 6.28431C15.6247 6.21199 15.6329 6.23817 15.6038 6.26265L14.9599 5.49755C14.7452 5.67829 14.6606 5.90833 14.6257 6.12655C14.5947 6.32033 14.5962 6.55602 14.5962 6.79079H15.5962ZM2.5 19.1339V17H1.5V19.1339H2.5ZM2.5 17C2.5 16.2267 2.5019 15.7141 2.5709 15.333C2.63391 14.9849 2.74241 14.8081 2.92926 14.6693L2.333 13.8665C1.88872 14.1965 1.68166 14.6313 1.58689 15.1548C1.4981 15.6453 1.5 16.2644 1.5 17H2.5ZM6.30962 21.8347C5.28328 21.8347 4.55098 21.8341 3.99489 21.7786C3.44159 21.7234 3.13723 21.619 2.92926 21.4646L2.333 22.2674C2.75616 22.5817 3.27526 22.7117 3.89553 22.7737C4.51301 22.8353 5.3044 22.8347 6.30962 22.8347V21.8347ZM1.5 19.1339C1.5 19.8695 1.4981 20.4886 1.58689 20.9791C1.68166 21.5026 1.88872 21.9374 2.333 22.2674L2.92926 21.4646C2.74241 21.3258 2.63391 21.149 2.5709 20.8009C2.5019 20.4198 2.5 19.9072 2.5 19.1339H1.5ZM3.34159 13.4422C2.96018 13.5217 2.62432 13.6502 2.333 13.8665L2.92926 14.6693C3.07164 14.5636 3.2603 14.4806 3.54544 14.4212L3.34159 13.4422ZM13.1901 2.5H14.9521V1.5H13.1901V2.5ZM21.5 10.1339V14.2008H22.5V10.1339H21.5ZM21.5 14.2008C21.5 16.1303 21.4992 17.5337 21.3743 18.6055C21.2504 19.6694 21.0111 20.3301 20.59 20.8161L21.3457 21.471C21.9568 20.7658 22.2335 19.8723 22.3676 18.7212C22.5008 17.578 22.5 16.1057 22.5 14.2008H21.5ZM14.9521 22.8347C16.5971 22.8347 17.8887 22.8361 18.8955 22.6799C19.9249 22.5202 20.7258 22.1865 21.3457 21.471L20.59 20.8161C20.1778 21.2918 19.632 21.5537 18.7422 21.6917C17.8297 21.8333 16.6296 21.8347 14.9521 21.8347V22.8347ZM14.9521 2.5C16.6296 2.5 17.8297 2.50141 18.7422 2.64299C19.632 2.78106 20.1778 3.04295 20.59 3.51861L21.3457 2.86375C20.7258 2.14823 19.9249 1.81453 18.8955 1.65481C17.8887 1.49859 16.5971 1.5 14.9521 1.5V2.5ZM22.5 10.1339C22.5 8.229 22.5008 6.75668 22.3676 5.61349C22.2335 4.46239 21.9568 3.56895 21.3457 2.86375L20.59 3.51861C21.0111 4.00459 21.2504 4.66533 21.3743 5.7292C21.4992 6.80098 21.5 8.20443 21.5 10.1339H22.5ZM13.1901 1.5C11.5452 1.5 10.2535 1.49859 9.24676 1.65481C8.21739 1.81453 7.41651 2.14823 6.79652 2.86375L7.55228 3.51861C7.96443 3.04295 8.51022 2.78106 9.40009 2.64299C10.3125 2.50141 11.5127 2.5 13.1901 2.5V1.5ZM6.64226 10.1339C6.64226 8.20443 6.64306 6.80098 6.76792 5.7292C6.89186 4.66533 7.13118 4.00459 7.55228 3.51861L6.79652 2.86375C6.18548 3.56895 5.90873 4.46239 5.77464 5.61349C5.64146 6.75668 5.64226 8.229 5.64226 10.1339H6.64226ZM6.35146 21.8347C6.51207 21.8347 6.64226 21.9649 6.64226 22.1255H5.64226C5.64226 22.5172 5.95978 22.8347 6.35146 22.8347V21.8347ZM14.9521 21.8347H6.35146V22.8347H14.9521V21.8347ZM6.64226 22.1255V10.1339H5.64226V22.1255H6.64226Z" fill="#424242"/>
</svg>
