<svg width="24" height="24" viewBox="0 0 24 24" fill="none" xmlns="http://www.w3.org/2000/svg">
<path d="M19.9999 12.0002C22.1965 8.3355 22.6928 4.80814 20.9423 3.05768C19.1919 1.30722 15.6645 1.80354 11.9999 4.00012M19.9999 12.0002C19.0978 13.5052 17.909 15.0333 16.4712 16.4711C15.0333 17.9089 13.505 19.0979 11.9999 20M19.9999 12.0002C22.1963 15.6647 22.6925 19.1919 20.9421 20.9423C19.1917 22.6927 15.6645 22.1965 11.9999 20M19.9999 12.0002C19.0978 10.4951 17.9089 8.9668 16.471 7.52894C15.0332 6.09112 13.505 4.90222 11.9999 4.00012M11.9999 20C8.33539 22.1964 4.80826 22.6926 3.05787 20.9422C1.30749 19.1918 1.8037 15.6647 4.00004 12.0002M11.9999 20C10.4948 19.0979 8.9666 17.909 7.52879 16.4712C6.091 15.0334 4.90213 13.5052 4.00004 12.0002M4.00004 12.0002C4.90216 10.495 6.09109 8.9667 7.52899 7.5288C8.96673 6.09105 10.4949 4.9022 11.9999 4.00012M4.00004 12.0002C1.80353 8.33555 1.30724 4.80826 3.05768 3.05782C4.80809 1.3074 8.33532 1.80366 11.9999 4.00012M14.5 12C14.5 13.3807 13.3807 14.5 12 14.5C10.6193 14.5 9.5 13.3807 9.5 12C9.5 10.6193 10.6193 9.5 12 9.5C13.3807 9.5 14.5 10.6193 14.5 12Z" stroke="#424242"/>
</svg>
