<svg width="24" height="24" viewBox="0 0 24 24" fill="none" xmlns="http://www.w3.org/2000/svg">
<path d="M20 14V10C20 5.58172 16.4183 3 12 3C7.58172 3 4 5.58172 4 10V14.8M17.5 18V18.25C17.5 18.9478 17.5 19.2967 17.4139 19.5806C17.22 20.2198 16.7198 20.72 16.0806 20.9139C15.7967 21 15.4478 21 14.75 21H14C12.8954 21 12 20.1046 12 19M6.84903 17.8982C7.36505 17.9834 7.62306 18.026 7.83187 17.983C8.24331 17.8983 8.58261 17.5951 8.72681 17.1833C8.8 16.9742 8.8 16.7011 8.8 16.1547V12.5497C8.8 12.087 8.8 11.8557 8.74478 11.6719C8.61708 11.247 8.28366 10.9248 7.86863 10.8251C7.68915 10.782 7.46862 10.8002 7.02758 10.8366C6.26218 10.8998 5.87948 10.9314 5.56747 11.0521C4.84803 11.3304 4.29912 11.9515 4.09048 12.7235C4 13.0583 4 13.4598 4 14.2628V14.4112C4 15.2345 4 15.6461 4.09844 15.9944C4.29163 16.678 4.7536 17.2434 5.36906 17.5496C5.68267 17.7056 6.07145 17.7698 6.84903 17.8982ZM17.151 17.8982C16.6349 17.9834 16.3769 18.026 16.1681 17.983C15.7567 17.8983 15.4174 17.5951 15.2732 17.1833C15.2 16.9742 15.2 16.7011 15.2 16.1547V12.5497C15.2 12.087 15.2 11.8557 15.2552 11.6719C15.3829 11.247 15.7163 10.9248 16.1314 10.8251C16.3109 10.782 16.5314 10.8002 16.9724 10.8366C17.7378 10.8998 18.1205 10.9314 18.4325 11.0521C19.152 11.3304 19.7009 11.9515 19.9095 12.7235C20 13.0583 20 13.4598 20 14.2628V14.4112C20 15.2345 20 15.6461 19.9016 15.9944C19.7084 16.678 19.2464 17.2434 18.6309 17.5496C18.3173 17.7056 17.9285 17.7698 17.151 17.8982Z" stroke="#424242" stroke-linecap="round"/>
</svg>
