<svg width="24" height="24" viewBox="0 0 24 24" fill="none" xmlns="http://www.w3.org/2000/svg">
<path d="M11.6723 19.0588H9.70873C6.0748 19.0588 4.25783 19.0588 3.12892 17.9562C2 16.8535 2 15.0788 2 11.5294C2 7.98001 2 6.20531 3.12892 5.10266C4.25783 4 6.0748 4 9.70873 4H13.5631C17.197 4 19.014 4 20.1429 5.10266C20.8498 5.79312 21.1141 6.74709 21.2128 8.23529M5.85436 7.76471L7.93466 9.45796C9.70442 10.8985 10.5893 11.6187 11.6359 11.6187C12.6825 11.6187 13.5674 10.8985 15.3372 9.45796L17.4175 7.76471M20.335 15.076L20.9796 15.3179C21.6289 15.5617 21.9535 15.6836 21.9957 15.9455C22.0378 16.2075 21.7721 16.4527 21.2409 16.9432L19.2514 18.7797C18.3829 19.5815 17.9486 19.9823 17.7529 19.9982C17.5048 20.0183 17.2878 19.8697 17.2338 19.6427C17.1912 19.4636 17.4701 18.9563 18.0278 17.9418C18.1537 17.7128 18.2167 17.5983 18.2254 17.4925C18.2366 17.358 18.1904 17.2286 18.0975 17.1336C18.0244 17.059 17.9046 17.014 17.665 16.924L17.0204 16.6821C16.3711 16.4383 16.0465 16.3164 16.0043 16.0545C15.9622 15.7925 16.2279 15.5473 16.7591 15.0568L18.7486 13.2203C19.6171 12.4185 20.0514 12.0177 20.2471 12.0018C20.4952 11.9817 20.7122 12.1303 20.7662 12.3573C20.8088 12.5364 20.5299 13.0437 19.9722 14.0582C19.8463 14.2872 19.7833 14.4017 19.7746 14.5075C19.7634 14.642 19.8096 14.7714 19.9025 14.8664C19.9756 14.941 20.0954 14.986 20.335 15.076Z" stroke="#424242" stroke-linecap="round"/>
</svg>
