<svg width="24" height="24" viewBox="0 0 24 24" fill="none" xmlns="http://www.w3.org/2000/svg">
<path d="M13.0867 21.3877L13.5169 21.6424H13.5169L13.0867 21.3877ZM13.6288 20.4718L13.1985 20.2172V20.2172L13.6288 20.4718ZM10.3712 20.4718L9.94093 20.7265V20.7265L10.3712 20.4718ZM10.9133 21.3877L11.3436 21.133V21.133L10.9133 21.3877ZM13.5 2.5C13.7761 2.5 14 2.27614 14 2C14 1.72386 13.7761 1.5 13.5 1.5V2.5ZM22.5 10.5C22.5 10.2239 22.2761 10 22 10C21.7239 10 21.5 10.2239 21.5 10.5H22.5ZM2.3806 15.9134L2.84254 15.7221H2.84254L2.3806 15.9134ZM7.78958 18.9915L7.78096 19.4914V19.4914L7.78958 18.9915ZM5.08658 18.6194L4.89524 19.0813L4.89524 19.0813L5.08658 18.6194ZM21.6194 15.9134L22.0813 16.1048V16.1048L21.6194 15.9134ZM16.2104 18.9915L16.2018 18.4915V18.4915L16.2104 18.9915ZM18.9134 18.6194L19.1048 19.0813V19.0813L18.9134 18.6194ZM4.38751 2.7368L4.12626 2.31048V2.31048L4.38751 2.7368ZM2.7368 4.38751L2.31048 4.12626H2.31048L2.7368 4.38751ZM9.40279 19.2098L9.65417 18.7776L9.65417 18.7776L9.40279 19.2098ZM19.335 5.07595L19.1592 5.54405V5.54405L19.335 5.07595ZM18.9025 4.86636L19.2598 4.51661V4.51661L18.9025 4.86636ZM18.9722 4.05818L19.4103 4.29906L18.9722 4.05818ZM18.7746 4.5075L19.2729 4.54874L18.7746 4.5075ZM20.2409 6.94316L20.58 7.31056V7.31056L20.2409 6.94316ZM19.9796 5.31795L20.1553 4.84985V4.84985L19.9796 5.31795ZM17.0278 7.94182L16.5897 7.70094L17.0278 7.94182ZM16.2338 9.64266L15.7474 9.7584V9.7584L16.2338 9.64266ZM18.2514 8.77974L17.9122 8.41235V8.41235L18.2514 8.77974ZM16.7529 9.99818L16.7934 10.4965V10.4965L16.7529 9.99818ZM16.665 6.92405L16.4893 7.39215L16.4893 7.39215L16.665 6.92405ZM17.0975 7.13364L16.7402 7.48339V7.48339L17.0975 7.13364ZM17.2254 7.4925L16.7271 7.45127L17.2254 7.4925ZM15.7591 5.05684L15.42 4.68944V4.68944L15.7591 5.05684ZM16.0204 6.68205L16.1961 6.21395L16.1961 6.21395L16.0204 6.68205ZM17.7486 3.22026L18.0878 3.58765V3.58765L17.7486 3.22026ZM19.2471 2.00182L19.2066 1.50346V1.50346L19.2471 2.00182ZM19.7662 2.35734L20.2526 2.2416V2.2416L19.7662 2.35734ZM13.5169 21.6424L14.059 20.7265L13.1985 20.2172L12.6564 21.133L13.5169 21.6424ZM9.94093 20.7265L10.483 21.6424L11.3436 21.133L10.8015 20.2172L9.94093 20.7265ZM12.6564 21.133C12.3668 21.6222 11.6331 21.6222 11.3436 21.133L10.483 21.6424C11.1598 22.7858 12.8402 22.7858 13.5169 21.6424L12.6564 21.133ZM10.5 2.5H13.5V1.5H10.5V2.5ZM21.5 10.5V11.5H22.5V10.5H21.5ZM2.5 11.5V10.5H1.5V11.5H2.5ZM1.5 11.5C1.5 12.658 1.49973 13.5516 1.54874 14.2698C1.59805 14.9926 1.69892 15.5743 1.91866 16.1048L2.84254 15.7221C2.68168 15.3337 2.59225 14.8736 2.54642 14.2017C2.50027 13.5254 2.5 12.6717 2.5 11.5H1.5ZM7.79819 18.4915C6.54278 18.4699 5.84178 18.391 5.27792 18.1575L4.89524 19.0813C5.65199 19.3948 6.52566 19.4697 7.78096 19.4914L7.79819 18.4915ZM1.91866 16.1048C2.47688 17.4524 3.54759 18.5231 4.89524 19.0813L5.27793 18.1575C4.1753 17.7007 3.29926 16.8247 2.84254 15.7221L1.91866 16.1048ZM21.5 11.5C21.5 12.6717 21.4997 13.5254 21.4536 14.2017C21.4077 14.8736 21.3183 15.3337 21.1575 15.7221L22.0813 16.1048C22.3011 15.5743 22.402 14.9926 22.4513 14.2698C22.5003 13.5516 22.5 12.658 22.5 11.5H21.5ZM16.219 19.4914C17.4743 19.4697 18.348 19.3948 19.1048 19.0813L18.7221 18.1575C18.1582 18.391 17.4572 18.4699 16.2018 18.4915L16.219 19.4914ZM21.1575 15.7221C20.7007 16.8247 19.8247 17.7007 18.7221 18.1575L19.1048 19.0813C20.4524 18.5231 21.5231 17.4524 22.0813 16.1048L21.1575 15.7221ZM10.5 1.5C8.87297 1.5 7.61758 1.49947 6.61977 1.59434C5.61452 1.68992 4.8192 1.88585 4.12626 2.31048L4.64876 3.16312C5.15816 2.85095 5.78237 2.67848 6.71442 2.58986C7.65392 2.50053 8.8536 2.5 10.5 2.5V1.5ZM2.5 10.5C2.5 8.8536 2.50053 7.65392 2.58986 6.71442C2.67848 5.78237 2.85095 5.15816 3.16312 4.64876L2.31048 4.12626C1.88585 4.8192 1.68992 5.61452 1.59434 6.61977C1.49947 7.61758 1.5 8.87297 1.5 10.5H2.5ZM4.12626 2.31048C3.3862 2.76399 2.76399 3.3862 2.31048 4.12626L3.16312 4.64876C3.53417 4.04326 4.04326 3.53417 4.64876 3.16312L4.12626 2.31048ZM10.8015 20.2172C10.596 19.8701 10.4247 19.5795 10.26 19.3536C10.0892 19.1193 9.90398 18.9229 9.65417 18.7776L9.15141 19.6421C9.2393 19.6932 9.32802 19.7726 9.45189 19.9426C9.58191 20.121 9.72589 20.3632 9.94093 20.7265L10.8015 20.2172ZM7.78096 19.4914C8.21542 19.4989 8.50712 19.5044 8.7334 19.5295C8.9504 19.5535 9.06517 19.5919 9.15141 19.6421L9.65417 18.7776C9.40272 18.6314 9.13605 18.5679 8.84346 18.5355C8.56013 18.5042 8.21408 18.4987 7.79819 18.4915L7.78096 19.4914ZM14.059 20.7265C14.2741 20.3632 14.4181 20.121 14.5481 19.9426C14.6719 19.7726 14.7607 19.6932 14.8485 19.6421L14.3458 18.7776C14.096 18.9229 13.9107 19.1193 13.7399 19.3536C13.5753 19.5795 13.4039 19.8701 13.1985 20.2172L14.059 20.7265ZM16.2018 18.4915C15.7859 18.4987 15.4398 18.5042 15.1565 18.5355C14.8639 18.5679 14.5972 18.6314 14.3458 18.7776L14.8485 19.6421C14.9348 19.5919 15.0496 19.5535 15.2666 19.5295C15.4928 19.5044 15.7845 19.4989 16.219 19.4914L16.2018 18.4915ZM17.4095 2.85286L15.42 4.68944L16.0983 5.42423L18.0878 3.58765L17.4095 2.85286ZM15.8447 7.15015L16.4893 7.39215L16.8408 6.45595L16.1961 6.21395L15.8447 7.15015ZM18.5905 9.14714L20.58 7.31056L19.9017 6.57577L17.9122 8.41235L18.5905 9.14714ZM20.1553 4.84985L19.5107 4.60785L19.1592 5.54405L19.8039 5.78605L20.1553 4.84985ZM19.5107 4.60785C19.3839 4.56026 19.3142 4.53375 19.2656 4.51134C19.2201 4.49039 19.2347 4.49102 19.2598 4.51661L18.5452 5.21612C18.6433 5.31637 18.7544 5.37683 18.847 5.41951C18.9364 5.46074 19.0464 5.50169 19.1592 5.54405L19.5107 4.60785ZM18.534 3.8173C18.4745 3.92557 18.4172 4.02925 18.3756 4.11929C18.3326 4.21216 18.2876 4.32881 18.2763 4.46627L19.2729 4.54874C19.2702 4.5804 19.2611 4.58689 19.2833 4.5388C19.3068 4.48788 19.3439 4.41981 19.4103 4.29906L18.534 3.8173ZM19.2598 4.51661C19.2642 4.5211 19.2681 4.52714 19.2705 4.53389C19.2729 4.54059 19.2731 4.54595 19.2729 4.54874L18.2763 4.46627C18.2534 4.74272 18.3489 5.01559 18.5452 5.21612L19.2598 4.51661ZM20.58 7.31056C20.8342 7.07597 21.0649 6.86456 21.2197 6.67597C21.3752 6.48663 21.5452 6.21361 21.4893 5.86618L20.502 6.02492C20.4883 5.93946 20.5465 5.92004 20.4469 6.04141C20.3466 6.16353 20.1789 6.31994 19.9017 6.57577L20.58 7.31056ZM19.8039 5.78605C20.1446 5.91398 20.3448 5.9906 20.4713 6.06135C20.5915 6.1285 20.5174 6.12084 20.502 6.02492L21.4893 5.86618C21.4318 5.50828 21.1744 5.3087 20.9593 5.18848C20.7507 5.07186 20.4638 4.96567 20.1553 4.84985L19.8039 5.78605ZM16.5897 7.70094C16.3137 8.20287 16.097 8.59681 15.956 8.88701C15.8857 9.03162 15.8256 9.16777 15.7861 9.28911C15.7536 9.3887 15.7024 9.56928 15.7474 9.7584L16.7202 9.52693C16.7439 9.6265 16.7116 9.67652 16.7369 9.59893C16.7551 9.54308 16.7916 9.45544 16.8554 9.32404C16.9826 9.06221 17.1842 8.69528 17.466 8.1827L16.5897 7.70094ZM17.9122 8.41235C17.4737 8.8171 17.1588 9.10763 16.9287 9.30039C16.8135 9.39695 16.7329 9.45756 16.678 9.49268C16.6075 9.5378 16.6317 9.50638 16.7125 9.49982L16.7934 10.4965C16.9721 10.482 17.1239 10.3946 17.217 10.335C17.3257 10.2654 17.4446 10.1728 17.571 10.0669C17.8241 9.85484 18.1605 9.54409 18.5905 9.14714L17.9122 8.41235ZM15.7474 9.7584C15.8641 10.2488 16.3238 10.5346 16.7934 10.4965L16.7125 9.49982C16.6997 9.50086 16.698 9.49709 16.7031 9.50059C16.7055 9.50224 16.7091 9.50538 16.7127 9.51053C16.7165 9.5159 16.719 9.52179 16.7202 9.52693L15.7474 9.7584ZM16.4893 7.39215C16.6161 7.43974 16.6858 7.46625 16.7344 7.48866C16.7799 7.50962 16.7653 7.50898 16.7402 7.48339L17.4548 6.78388C17.3567 6.68363 17.2456 6.62317 17.153 6.58049C17.0636 6.53926 16.9536 6.49831 16.8408 6.45595L16.4893 7.39215ZM17.466 8.1827C17.5255 8.07444 17.5828 7.97075 17.6244 7.88071C17.6674 7.78784 17.7124 7.6712 17.7237 7.53373L16.7271 7.45127C16.7298 7.4196 16.7389 7.41311 16.7167 7.4612C16.6932 7.51212 16.6561 7.58019 16.5897 7.70094L17.466 8.1827ZM16.7402 7.48339C16.7358 7.4789 16.7319 7.47286 16.7295 7.46611C16.7271 7.45941 16.7269 7.45405 16.7271 7.45127L17.7237 7.53373C17.7466 7.25728 17.6511 6.98441 17.4548 6.78388L16.7402 7.48339ZM15.42 4.68944C15.1658 4.92403 14.9351 5.13544 14.7803 5.32403C14.6248 5.51337 14.4548 5.78639 14.5107 6.13382L15.498 5.97509C15.5117 6.06054 15.4535 6.07996 15.5531 5.95859C15.6534 5.83647 15.8211 5.68006 16.0983 5.42423L15.42 4.68944ZM16.1961 6.21395C15.8554 6.08602 15.6552 6.0094 15.5286 5.93865C15.4085 5.8715 15.4826 5.87916 15.498 5.97509L14.5107 6.13382C14.5682 6.49172 14.8256 6.6913 15.0407 6.81152C15.2493 6.92814 15.5362 7.03433 15.8447 7.15015L16.1961 6.21395ZM18.0878 3.58765C18.5263 3.1829 18.8412 2.89237 19.0713 2.69961C19.1865 2.60305 19.2671 2.54244 19.322 2.50733C19.3925 2.4622 19.3683 2.49363 19.2875 2.50018L19.2066 1.50346C19.0279 1.51795 18.8761 1.60544 18.783 1.66499C18.6743 1.73455 18.5554 1.82724 18.429 1.93309C18.1759 2.14516 17.8395 2.45591 17.4095 2.85286L18.0878 3.58765ZM19.4103 4.29906C19.6863 3.79713 19.903 3.40319 20.044 3.11299C20.1143 2.96838 20.1744 2.83223 20.2139 2.71089C20.2464 2.6113 20.2976 2.43072 20.2526 2.2416L19.2798 2.47308C19.2561 2.3735 19.2884 2.32349 19.2631 2.40107C19.2449 2.45692 19.2084 2.54456 19.1446 2.67596C19.0174 2.93779 18.8158 3.30472 18.534 3.8173L19.4103 4.29906ZM19.2875 2.50018C19.3003 2.49914 19.302 2.50291 19.2969 2.49941C19.2945 2.49776 19.2909 2.49462 19.2873 2.48947C19.2835 2.4841 19.281 2.47821 19.2798 2.47308L20.2526 2.2416C20.1359 1.75119 19.6762 1.46537 19.2066 1.50346L19.2875 2.50018Z" fill="#424242"/>
</svg>
