<svg width="24" height="24" viewBox="0 0 24 24" fill="none" xmlns="http://www.w3.org/2000/svg">
<path d="M3.6798 11.3333H3.1798V11.3333H3.6798ZM3.6798 13L3.32764 13.3549C3.52258 13.5484 3.83702 13.5484 4.03196 13.3549L3.6798 13ZM5.71176 11.6883C5.90779 11.4938 5.90903 11.1772 5.71454 10.9812C5.52004 10.7851 5.20346 10.7839 5.00744 10.9784L5.3596 11.3333L5.71176 11.6883ZM2.35216 10.9784C2.15614 10.7839 1.83956 10.7851 1.64506 10.9812C1.45057 11.1772 1.45181 11.4938 1.64784 11.6883L2 11.3333L2.35216 10.9784ZM18.8284 7.26186C18.973 7.4971 19.281 7.57057 19.5162 7.42595C19.7515 7.28132 19.8249 6.97338 19.6803 6.73814L19.2544 7L18.8284 7.26186ZM20.3138 11L20.6653 10.6444C20.4705 10.4519 20.1571 10.4519 19.9623 10.6444L20.3138 11ZM18.2761 12.3111C18.0797 12.5052 18.0778 12.8218 18.2719 13.0182C18.4661 13.2145 18.7826 13.2164 18.979 13.0223L18.6276 12.6667L18.2761 12.3111ZM21.6485 13.0223C21.8449 13.2164 22.1615 13.2145 22.3556 13.0182C22.5497 12.8218 22.5479 12.5052 22.3515 12.3111L22 12.6667L21.6485 13.0223ZM5.10517 16.7374C4.96015 16.5024 4.65208 16.4295 4.41709 16.5745C4.18209 16.7195 4.10915 17.0276 4.25417 17.2626L4.67967 17L5.10517 16.7374ZM7.62857 15.522L8.11177 15.6505V15.6505L7.62857 15.522ZM7.89503 14.5203L7.41183 14.3917V14.3917L7.89503 14.5203ZM9.33657 15.9703L9.46651 16.4531H9.46651L9.33657 15.9703ZM8.34071 16.2383L8.21076 15.7555V15.7555L8.34071 16.2383ZM7.83523 14.0036L8.28331 13.7817V13.7817L7.83523 14.0036ZM9.85021 16.0304L9.62624 16.4775V16.4775L9.85021 16.0304ZM12.0788 3V2.5C7.16773 2.5 3.1798 6.45112 3.1798 11.3333H3.6798H4.1798C4.1798 7.0108 7.7126 3.5 12.0788 3.5V3ZM3.6798 11.3333H3.1798L3.1798 13H3.6798H4.1798L4.1798 11.3333H3.6798ZM3.6798 13L4.03196 13.3549L5.71176 11.6883L5.3596 11.3333L5.00744 10.9784L3.32764 12.6451L3.6798 13ZM3.6798 13L4.03196 12.6451L2.35216 10.9784L2 11.3333L1.64784 11.6883L3.32764 13.3549L3.6798 13ZM19.2544 7L19.6803 6.73814C18.1179 4.19664 15.2974 2.5 12.0788 2.5V3V3.5C14.9381 3.5 17.4416 5.00608 18.8284 7.26186L19.2544 7ZM11.8827 21V21.5C16.8097 21.5 20.8138 17.5507 20.8138 12.6667H20.3138H19.8138C19.8138 16.9874 16.2684 20.5 11.8827 20.5V21ZM20.3138 12.6667H20.8138V11H20.3138H19.8138V12.6667H20.3138ZM20.3138 11L19.9623 10.6444L18.2761 12.3111L18.6276 12.6667L18.979 13.0223L20.6653 11.3556L20.3138 11ZM20.3138 11L19.9623 11.3556L21.6485 13.0223L22 12.6667L22.3515 12.3111L20.6653 10.6444L20.3138 11ZM4.67967 17L4.25417 17.2626C5.82265 19.8042 8.65335 21.5 11.8827 21.5V21V20.5C9.01082 20.5 6.49718 18.9931 5.10517 16.7374L4.67967 17ZM16.3158 12H15.8158C15.8158 14.2119 14.0339 16 11.8421 16V16.5V17C14.5918 17 16.8158 14.7587 16.8158 12H16.3158ZM7.36842 12H7.86842C7.86842 9.78809 9.65026 8 11.8421 8V7.5V7C9.09245 7 6.86842 9.24134 6.86842 12H7.36842ZM11.8421 7.5V8C14.0339 8 15.8158 9.78809 15.8158 12H16.3158H16.8158C16.8158 9.24134 14.5918 7 11.8421 7V7.5ZM7.62857 15.522L8.11177 15.6505L8.37822 14.6488L7.89503 14.5203L7.41183 14.3917L7.14537 15.3935L7.62857 15.522ZM9.33657 15.9703L9.20662 15.4875L8.21076 15.7555L8.34071 16.2383L8.47065 16.7211L9.46651 16.4531L9.33657 15.9703ZM7.83523 14.0036L8.28331 13.7817C8.01796 13.2459 7.86842 12.6413 7.86842 12H7.36842H6.86842C6.86842 12.7984 7.05495 13.5546 7.38716 14.2255L7.83523 14.0036ZM11.8421 16.5V16C11.206 16 10.6062 15.8499 10.0742 15.5834L9.85021 16.0304L9.62624 16.4775C10.294 16.812 11.0469 17 11.8421 17V16.5ZM9.33657 15.9703L9.46651 16.4531C9.50467 16.4428 9.56117 16.4449 9.62624 16.4775L9.85021 16.0304L10.0742 15.5834C9.82044 15.4563 9.51253 15.4051 9.20662 15.4875L9.33657 15.9703ZM7.89503 14.5203L8.37822 14.6488C8.45945 14.3434 8.40914 14.0359 8.28331 13.7817L7.83523 14.0036L7.38716 14.2255C7.42012 14.2921 7.42266 14.351 7.41183 14.3917L7.89503 14.5203ZM7.62857 15.522L7.14537 15.3935C6.93231 16.1945 7.66117 16.939 8.47065 16.7211L8.34071 16.2383L8.21076 15.7555C8.15563 15.7703 8.09349 15.7192 8.11177 15.6505L7.62857 15.522Z" fill="#424242"/>
</svg>
