<svg width="24" height="24" viewBox="0 0 24 24" fill="none" xmlns="http://www.w3.org/2000/svg">
<path d="M3.48981 15.18L3.91051 14.9098V14.9098L3.48981 15.18ZM3.48981 8.82001L3.06911 8.5498L3.48981 8.82001ZM13.779 20V20.5V20.5V20ZM13.779 4V3.5V4ZM11.142 4V4.5V4ZM4.17061 7.76001L4.59131 8.03021L4.17061 7.76001ZM11.142 20V19.5V19.5V20ZM4.17061 16.24L3.74991 16.5102L4.17061 16.24ZM15.8535 9.85359C16.0488 9.65833 16.0488 9.34175 15.8535 9.14649C15.6582 8.95122 15.3417 8.95122 15.1464 9.14649L15.8535 9.85359ZM10.1464 14.1465C9.95116 14.3417 9.95116 14.6583 10.1464 14.8536C10.3417 15.0488 10.6583 15.0488 10.8535 14.8536L10.1464 14.1465ZM10.8535 9.14647C10.6582 8.9512 10.3417 8.9512 10.1464 9.14647C9.95114 9.34173 9.95114 9.65831 10.1464 9.85357L10.8535 9.14647ZM15.1464 14.8536C15.3416 15.0488 15.6582 15.0488 15.8535 14.8536C16.0488 14.6583 16.0488 14.3417 15.8535 14.1464L15.1464 14.8536ZM11.142 4.5L13.779 4.5V3.5L11.142 3.5V4.5ZM13.779 19.5H11.142V20.5H13.779V19.5ZM4.59132 15.9698L3.91051 14.9098L3.06911 15.4502L3.74991 16.5102L4.59132 15.9698ZM3.91051 9.09021L4.59131 8.03021L3.74991 7.48981L3.06911 8.5498L3.91051 9.09021ZM3.91051 14.9098C3.40821 14.1277 3.05294 13.5734 2.81922 13.1082C2.59076 12.6536 2.5 12.3243 2.5 12H1.5C1.5 12.5361 1.65754 13.0236 1.92568 13.5572C2.18857 14.0804 2.5782 14.6859 3.06911 15.4502L3.91051 14.9098ZM3.06911 8.5498C2.5782 9.31413 2.18857 9.91959 1.92568 10.4428C1.65754 10.9764 1.5 11.4639 1.5 12H2.5C2.5 11.6757 2.59076 11.3464 2.81922 10.8918C3.05294 10.4266 3.40821 9.87229 3.91051 9.09021L3.06911 8.5498ZM21.5 12C21.5 13.9001 21.4989 15.2736 21.3542 16.3207C21.2117 17.3519 20.9386 17.9921 20.4474 18.4701L21.1448 19.1868C21.8575 18.4932 22.1863 17.6047 22.3448 16.4575C22.5011 15.3261 22.5 13.8711 22.5 12H21.5ZM13.779 20.5C15.7029 20.5 17.1948 20.501 18.3542 20.3493C19.5265 20.1959 20.4339 19.8785 21.1448 19.1868L20.4474 18.4701C19.9542 18.9499 19.2908 19.2183 18.2245 19.3578C17.1451 19.499 15.7304 19.5 13.779 19.5V20.5ZM13.779 4.5C15.7304 4.5 17.1451 4.50101 18.2245 4.64222C19.2908 4.78173 19.9542 5.05006 20.4474 5.52991L21.1448 4.81323C20.4339 4.12151 19.5265 3.80405 18.3542 3.65067C17.1948 3.49899 15.7029 3.5 13.779 3.5V4.5ZM22.5 12C22.5 10.1289 22.5011 8.6739 22.3448 7.54248C22.1863 6.39525 21.8575 5.50681 21.1448 4.81323L20.4474 5.52991C20.9386 6.00791 21.2117 6.64806 21.3542 7.67934C21.4989 8.72644 21.5 10.0999 21.5 12H22.5ZM11.142 3.5C10.0375 3.5 9.17514 3.4995 8.47357 3.56483C7.76193 3.6311 7.17852 3.76756 6.63379 4.06136L7.1085 4.9415C7.49347 4.73387 7.93178 4.61961 8.56629 4.56053C9.21088 4.5005 10.0191 4.5 11.142 4.5V3.5ZM4.59131 8.03021C5.1867 7.10321 5.61473 6.43777 6.00772 5.93887C6.39386 5.44867 6.72417 5.14879 7.1085 4.9415L6.63379 4.06136C6.08842 4.3555 5.65874 4.76586 5.22217 5.32007C4.79247 5.86557 4.33508 6.57871 3.74991 7.48981L4.59131 8.03021ZM11.142 19.5C10.0192 19.5 9.21088 19.4995 8.56629 19.4395C7.93178 19.3804 7.49347 19.2661 7.1085 19.0585L6.63379 19.9386C7.17852 20.2324 7.76193 20.3689 8.47357 20.4352C9.17514 20.5005 10.0375 20.5 11.142 20.5V19.5ZM3.74991 16.5102C4.33508 17.4213 4.79247 18.1344 5.22217 18.6799C5.65874 19.2341 6.08842 19.6445 6.63379 19.9386L7.1085 19.0585C6.72417 18.8512 6.39386 18.5513 6.00772 18.0611C5.61473 17.5622 5.1867 16.8968 4.59132 15.9698L3.74991 16.5102ZM15.1464 9.14649L12.6464 11.6465L13.3535 12.3536L15.8535 9.85359L15.1464 9.14649ZM12.6464 11.6465L10.1464 14.1465L10.8535 14.8536L13.3535 12.3536L12.6464 11.6465ZM10.1464 9.85357L12.6464 12.3536L13.3535 11.6465L10.8535 9.14647L10.1464 9.85357ZM12.6464 12.3536L15.1464 14.8536L15.8535 14.1464L13.3535 11.6465L12.6464 12.3536Z" fill="#424242"/>
</svg>
