<svg width="24" height="24" viewBox="0 0 24 24" fill="none" xmlns="http://www.w3.org/2000/svg">
<path d="M3.74169 20.5545L3.35693 20.8739L3.35693 20.8739L3.74169 20.5545ZM3.77645 12.5257L4.26789 12.6178L3.77645 12.5257ZM20.2236 12.5257L19.7321 12.6178L20.2236 12.5257ZM5.76518 6.92196L5.44586 6.53721H5.44586L5.76518 6.92196ZM10.3345 13.9284C10.1292 13.7436 9.8131 13.7603 9.62837 13.9655C9.44364 14.1708 9.46028 14.4869 9.66554 14.6716L10.3345 13.9284ZM11.3334 15.5L10.9989 15.8716C11.0978 15.9607 11.2282 16.0066 11.3612 15.9992C11.4941 15.9918 11.6186 15.9317 11.7071 15.8322L11.3334 15.5ZM14.3737 12.8322C14.5572 12.6258 14.5386 12.3098 14.3322 12.1263C14.1258 11.9428 13.8098 11.9614 13.6263 12.1678L14.3737 12.8322ZM8.50002 6C8.50002 6.27614 8.72388 6.5 9.00002 6.5C9.27616 6.5 9.50002 6.27614 9.50002 6H8.50002ZM14.5 6C14.5 6.27614 14.7239 6.5 15 6.5C15.2762 6.5 15.5 6.27614 15.5 6H14.5ZM11.6394 6.5H12.3606V5.5H11.6394V6.5ZM12.3606 21.5H11.6394V22.5H12.3606V21.5ZM11.6394 21.5C9.39131 21.5 7.75922 21.4988 6.53651 21.3243C5.32747 21.1518 4.61294 20.8214 4.12644 20.2352L3.35693 20.8739C4.07005 21.7331 5.07169 22.1255 6.39526 22.3143C7.70516 22.5012 9.42213 22.5 11.6394 22.5V21.5ZM3.28501 12.4335C2.87639 14.6129 2.55879 16.3002 2.50109 17.6221C2.44279 18.9578 2.64381 20.0146 3.35693 20.8739L4.12644 20.2352C3.63994 19.649 3.44688 18.8859 3.50014 17.6657C3.554 16.4318 3.85359 14.8274 4.26789 12.6178L3.28501 12.4335ZM19.7321 12.6178C20.1465 14.8274 20.446 16.4318 20.4999 17.6657C20.5532 18.8859 20.3601 19.649 19.8736 20.2352L20.6431 20.8739C21.3562 20.0146 21.5572 18.9578 21.4989 17.6221C21.4412 16.3002 21.1236 14.6129 20.715 12.4335L19.7321 12.6178ZM12.3606 22.5C14.5779 22.5 16.2949 22.5012 17.6048 22.3143C18.9283 22.1255 19.93 21.7331 20.6431 20.8739L19.8736 20.2352C19.3871 20.8214 18.6726 21.1518 17.4635 21.3243C16.2408 21.4988 14.6087 21.5 12.3606 21.5V22.5ZM12.3606 6.5C13.9611 6.5 15.1157 6.50089 16.0107 6.61147C16.8919 6.72036 17.4613 6.92975 17.9155 7.30672L18.5542 6.53721C17.8975 5.99221 17.1175 5.74062 16.1333 5.61902C15.1628 5.49911 13.9357 5.5 12.3606 5.5V6.5ZM20.715 12.4335C20.4247 10.8854 20.1995 9.67919 19.9028 8.74741C19.6019 7.80245 19.2108 7.0822 18.5542 6.53721L17.9155 7.30672C18.3698 7.68369 18.6805 8.20471 18.9499 9.05083C19.2236 9.91014 19.4372 11.0448 19.7321 12.6178L20.715 12.4335ZM11.6394 5.5C10.0643 5.5 8.83723 5.49911 7.86674 5.61902C6.88251 5.74062 6.10254 5.99221 5.44586 6.53721L6.0845 7.30672C6.53872 6.92975 7.10809 6.72036 7.98936 6.61147C8.88438 6.50089 10.039 6.5 11.6394 6.5V5.5ZM4.26789 12.6178C4.56283 11.0448 4.77649 9.91014 5.05012 9.05083C5.31955 8.20471 5.63028 7.68369 6.0845 7.30672L5.44586 6.53721C4.78918 7.0822 4.39816 7.80245 4.09726 8.74741C3.80055 9.67919 3.57529 10.8854 3.28501 12.4335L4.26789 12.6178ZM9.66554 14.6716L10.9989 15.8716L11.6678 15.1284L10.3345 13.9284L9.66554 14.6716ZM11.7071 15.8322L14.3737 12.8322L13.6263 12.1678L10.9596 15.1678L11.7071 15.8322ZM9.50002 6V5H8.50002V6H9.50002ZM14.5 5V6H15.5V5H14.5ZM12 2.5C13.3807 2.5 14.5 3.61929 14.5 5H15.5C15.5 3.067 13.933 1.5 12 1.5V2.5ZM9.50002 5C9.50002 3.61929 10.6193 2.5 12 2.5V1.5C10.067 1.5 8.50002 3.067 8.50002 5H9.50002Z" fill="#424242"/>
</svg>
