<svg width="24" height="24" viewBox="0 0 24 24" fill="none" xmlns="http://www.w3.org/2000/svg">
<path d="M12.5 6C14.1436 6.01326 15.4867 7.35641 15.5 9M12 20.3502C12.3211 20.3502 12.4818 20.3502 12.5933 20.3283C13.2466 20.1999 13.6441 19.5557 13.4511 18.9384C13.4181 18.833 13.3419 18.6962 13.1896 18.4227M12 20.3502C11.6788 20.3502 11.5182 20.3502 11.4067 20.3283C10.7534 20.1999 10.3558 19.5557 10.5489 18.9384C10.5818 18.833 10.658 18.6962 10.8104 18.4227M12 20.3502V22.5M19.5602 9.8043C19.5937 14.0798 16.142 18.0343 12 17.9998C7.85797 17.9653 4.59416 13.9549 4.56074 9.67936C4.52731 5.4038 7.85797 1.96576 12 2.00026C16.142 2.03476 19.5268 5.52875 19.5602 9.8043Z" stroke="#424242" stroke-linecap="round"/>
</svg>
