<svg width="24" height="24" viewBox="0 0 24 24" fill="none" xmlns="http://www.w3.org/2000/svg">
<path d="M8.5 5C8.5 4.72386 8.27614 4.5 8 4.5C7.72386 4.5 7.5 4.72386 7.5 5H8.5ZM16.5 5C16.5 4.72386 16.2761 4.5 16 4.5C15.7239 4.5 15.5 4.72386 15.5 5H16.5ZM6 19.5C5.72386 19.5 5.5 19.7239 5.5 20C5.5 20.2761 5.72386 20.5 6 20.5V19.5ZM10 20.5C10.2761 20.5 10.5 20.2761 10.5 20C10.5 19.7239 10.2761 19.5 10 19.5V20.5ZM14 19.5C13.7239 19.5 13.5 19.7239 13.5 20C13.5 20.2761 13.7239 20.5 14 20.5V19.5ZM18 20.5C18.2761 20.5 18.5 20.2761 18.5 20C18.5 19.7239 18.2761 19.5 18 19.5V20.5ZM8.5 7V5H7.5V7H8.5ZM16.5 7V5H15.5V7H16.5ZM7.5 16V20H8.5V16H7.5ZM6 20.5H8V19.5H6V20.5ZM8 20.5H10V19.5H8V20.5ZM15.5 16V20H16.5V16H15.5ZM14 20.5H16V19.5H14V20.5ZM16 20.5H18V19.5H16V20.5ZM8 7.5H16V6.5H8V7.5ZM19.5 11V12H20.5V11H19.5ZM16 15.5H8V16.5H16V15.5ZM4.5 12V11H3.5V12H4.5ZM8 15.5C7.04306 15.5 6.37565 15.4989 5.87208 15.4312C5.3829 15.3655 5.12385 15.2452 4.93934 15.0607L4.23223 15.7678C4.63351 16.169 5.13876 16.3416 5.73883 16.4223C6.32452 16.5011 7.07133 16.5 8 16.5V15.5ZM3.5 12C3.5 12.9287 3.49894 13.6755 3.57768 14.2612C3.65836 14.8612 3.83096 15.3665 4.23223 15.7678L4.93934 15.0607C4.75483 14.8762 4.63453 14.6171 4.56876 14.1279C4.50106 13.6244 4.5 12.9569 4.5 12H3.5ZM19.5 12C19.5 12.9569 19.4989 13.6244 19.4312 14.1279C19.3655 14.6171 19.2452 14.8762 19.0607 15.0607L19.7678 15.7678C20.169 15.3665 20.3416 14.8612 20.4223 14.2612C20.5011 13.6755 20.5 12.9287 20.5 12H19.5ZM16 16.5C16.9287 16.5 17.6755 16.5011 18.2612 16.4223C18.8612 16.3416 19.3665 16.169 19.7678 15.7678L19.0607 15.0607C18.8762 15.2452 18.6171 15.3655 18.1279 15.4312C17.6244 15.4989 16.9569 15.5 16 15.5V16.5ZM16 7.5C16.9569 7.5 17.6244 7.50106 18.1279 7.56876C18.6171 7.63453 18.8762 7.75483 19.0607 7.93934L19.7678 7.23223C19.3665 6.83096 18.8612 6.65836 18.2612 6.57768C17.6755 6.49894 16.9287 6.5 16 6.5V7.5ZM20.5 11C20.5 10.0713 20.5011 9.32452 20.4223 8.73883C20.3416 8.13876 20.169 7.63351 19.7678 7.23223L19.0607 7.93934C19.2452 8.12385 19.3655 8.3829 19.4312 8.87208C19.4989 9.37565 19.5 10.0431 19.5 11H20.5ZM8 6.5C7.07133 6.5 6.32452 6.49894 5.73883 6.57768C5.13876 6.65836 4.63351 6.83096 4.23223 7.23223L4.93934 7.93934C5.12385 7.75483 5.3829 7.63453 5.87208 7.56876C6.37565 7.50106 7.04306 7.5 8 7.5V6.5ZM4.5 11C4.5 10.0431 4.50106 9.37565 4.56876 8.87208C4.63453 8.3829 4.75483 8.12385 4.93934 7.93934L4.23223 7.23223C3.83096 7.63351 3.65836 8.13876 3.57768 8.73883C3.49894 9.32452 3.5 10.0713 3.5 11H4.5ZM10.1464 6.64645L3.64645 13.1464L4.35355 13.8536L10.8536 7.35355L10.1464 6.64645ZM16.1464 6.64645L7.14645 15.6464L7.85355 16.3536L16.8536 7.35355L16.1464 6.64645ZM19.6464 9.14645L13.1464 15.6464L13.8536 16.3536L20.3536 9.85355L19.6464 9.14645Z" fill="#424242"/>
</svg>
