<svg width="24" height="24" viewBox="0 0 24 24" fill="none" xmlns="http://www.w3.org/2000/svg">
<path d="M21.5 14C21.5 14.2761 21.7239 14.5 22 14.5C22.2761 14.5 22.5 14.2761 22.5 14H21.5ZM22.5 10C22.5 9.72386 22.2761 9.5 22 9.5C21.7239 9.5 21.5 9.72386 21.5 10H22.5ZM11.8841 9.32009C12.0609 9.10795 12.0322 8.79267 11.8201 8.61589C11.608 8.43911 11.2927 8.46777 11.1159 8.67991L11.8841 9.32009ZM9 12L8.61589 11.6799C8.49169 11.8289 8.46492 12.0364 8.54721 12.2121C8.6295 12.3878 8.80599 12.5 9 12.5V12ZM12.5 12L12.8841 12.3201C13.0083 12.1711 13.0351 11.9636 12.9528 11.7879C12.8705 11.6122 12.694 11.5 12.5 11.5V12ZM9.61589 14.6799C9.43911 14.892 9.46777 15.2073 9.67991 15.3841C9.89205 15.5609 10.2073 15.5322 10.3841 15.3201L9.61589 14.6799ZM10 4.5H11.5V3.5H10V4.5ZM11.5 19.5H10V20.5H11.5V19.5ZM10 19.5C8.10025 19.5 6.72573 19.4989 5.67754 19.358C4.64373 19.219 4.00253 18.9523 3.52513 18.4749L2.81802 19.182C3.51219 19.8762 4.39959 20.1952 5.54429 20.3491C6.6746 20.5011 8.12852 20.5 10 20.5V19.5ZM1.5 12C1.5 13.8715 1.49894 15.3254 1.65091 16.4557C1.80481 17.6004 2.12385 18.4878 2.81802 19.182L3.52513 18.4749C3.04772 17.9975 2.78098 17.3563 2.64199 16.3225C2.50106 15.2743 2.5 13.8998 2.5 12H1.5ZM19 12C19 13.8998 18.9989 15.2743 18.858 16.3225C18.719 17.3563 18.4523 17.9975 17.9749 18.4749L18.682 19.182C19.3762 18.4878 19.6952 17.6004 19.8491 16.4557C20.0011 15.3254 20 13.8715 20 12H19ZM11.5 20.5C13.3715 20.5 14.8254 20.5011 15.9557 20.3491C17.1004 20.1952 17.9878 19.8762 18.682 19.182L17.9749 18.4749C17.4975 18.9523 16.8563 19.219 15.8225 19.358C14.7743 19.4989 13.3998 19.5 11.5 19.5V20.5ZM11.5 4.5C13.3998 4.5 14.7743 4.50106 15.8225 4.64199C16.8563 4.78098 17.4975 5.04772 17.9749 5.52513L18.682 4.81802C17.9878 4.12385 17.1004 3.80481 15.9557 3.65091C14.8254 3.49894 13.3715 3.5 11.5 3.5V4.5ZM20 12C20 10.1285 20.0011 8.67461 19.8491 7.54429C19.6952 6.39959 19.3762 5.51219 18.682 4.81802L17.9749 5.52513C18.4523 6.00253 18.719 6.64373 18.858 7.67754C18.9989 8.72573 19 10.1002 19 12H20ZM10 3.5C8.12852 3.5 6.67461 3.49894 5.54429 3.65091C4.39959 3.80481 3.51219 4.12385 2.81802 4.81802L3.52513 5.52513C4.00253 5.04772 4.64373 4.78098 5.67754 4.64199C6.72573 4.50106 8.10025 4.5 10 4.5V3.5ZM2.5 12C2.5 10.1002 2.50106 8.72573 2.64199 7.67754C2.78098 6.64373 3.04772 6.00253 3.52513 5.52513L2.81802 4.81802C2.12385 5.51219 1.80481 6.39959 1.65091 7.54429C1.49894 8.67461 1.5 10.1285 1.5 12H2.5ZM22.5 14V10H21.5V14H22.5ZM11.1159 8.67991L8.61589 11.6799L9.38411 12.3201L11.8841 9.32009L11.1159 8.67991ZM9 12.5H12.5V11.5H9V12.5ZM12.1159 11.6799L9.61589 14.6799L10.3841 15.3201L12.8841 12.3201L12.1159 11.6799Z" fill="#424242"/>
</svg>
