<svg width="24" height="24" viewBox="0 0 24 24" fill="none" xmlns="http://www.w3.org/2000/svg">
<path d="M7.43708 8.75718C7.30297 8.51579 6.99857 8.42881 6.75718 8.56292C6.51579 8.69703 6.42881 9.00143 6.56292 9.24282L7 9L7.43708 8.75718ZM6.56292 14.7572C6.42881 14.9986 6.51579 15.303 6.75718 15.4371C6.99857 15.5712 7.30297 15.4842 7.43708 15.2428L7 15L6.56292 14.7572ZM10.9371 8.75718C10.803 8.51579 10.4986 8.42881 10.2572 8.56292C10.0158 8.69703 9.92881 9.00143 10.0629 9.24282L10.5 9L10.9371 8.75718ZM10.0629 14.7572C9.92881 14.9986 10.0158 15.303 10.2572 15.4371C10.4986 15.5712 10.803 15.4842 10.9371 15.2428L10.5 15L10.0629 14.7572ZM21.5 14C21.5 14.2761 21.7239 14.5 22 14.5C22.2761 14.5 22.5 14.2761 22.5 14H22H21.5ZM22.5 10C22.5 9.72386 22.2761 9.5 22 9.5C21.7239 9.5 21.5 9.72386 21.5 10H22H22.5ZM10 4V4.5H11.5V4V3.5H10V4ZM11.5 20V19.5H10V20V20.5H11.5V20ZM10 20V19.5C8.10025 19.5 6.72573 19.4989 5.67754 19.358C4.64373 19.219 4.00253 18.9523 3.52513 18.4749L3.17157 18.8284L2.81802 19.182C3.51219 19.8762 4.39959 20.1952 5.54429 20.3491C6.6746 20.5011 8.12852 20.5 10 20.5V20ZM2 12H1.5C1.5 13.8715 1.49894 15.3254 1.65091 16.4557C1.80481 17.6004 2.12385 18.4878 2.81802 19.182L3.17157 18.8284L3.52513 18.4749C3.04772 17.9975 2.78098 17.3563 2.64199 16.3225C2.50106 15.2743 2.5 13.8998 2.5 12H2ZM19.5 12H19C19 13.8998 18.9989 15.2743 18.858 16.3225C18.719 17.3563 18.4523 17.9975 17.9749 18.4749L18.3284 18.8284L18.682 19.182C19.3762 18.4878 19.6952 17.6004 19.8491 16.4557C20.0011 15.3254 20 13.8715 20 12H19.5ZM11.5 20V20.5C13.3715 20.5 14.8254 20.5011 15.9557 20.3491C17.1004 20.1952 17.9878 19.8762 18.682 19.182L18.3284 18.8284L17.9749 18.4749C17.4975 18.9523 16.8563 19.219 15.8225 19.358C14.7743 19.4989 13.3998 19.5 11.5 19.5V20ZM11.5 4V4.5C13.3998 4.5 14.7743 4.50106 15.8225 4.64199C16.8563 4.78098 17.4975 5.04772 17.9749 5.52513L18.3284 5.17157L18.682 4.81802C17.9878 4.12385 17.1004 3.80481 15.9557 3.65091C14.8254 3.49894 13.3715 3.5 11.5 3.5V4ZM19.5 12H20C20 10.1285 20.0011 8.67461 19.8491 7.54429C19.6952 6.39959 19.3762 5.51219 18.682 4.81802L18.3284 5.17157L17.9749 5.52513C18.4523 6.00253 18.719 6.64373 18.858 7.67754C18.9989 8.72573 19 10.1002 19 12H19.5ZM10 4V3.5C8.12852 3.5 6.67461 3.49894 5.54429 3.65091C4.39959 3.80481 3.51219 4.12385 2.81802 4.81802L3.17157 5.17157L3.52513 5.52513C4.00253 5.04772 4.64373 4.78098 5.67754 4.64199C6.72573 4.50106 8.10025 4.5 10 4.5V4ZM2 12H2.5C2.5 10.1002 2.50106 8.72573 2.64199 7.67754C2.78098 6.64373 3.04772 6.00253 3.52513 5.52513L3.17157 5.17157L2.81802 4.81802C2.12385 5.51219 1.80481 6.39959 1.65091 7.54429C1.49894 8.67461 1.5 10.1285 1.5 12H2ZM7 9C6.56292 9.24282 6.56281 9.24261 6.56269 9.24241C6.56266 9.24235 6.56255 9.24214 6.56248 9.24202C6.56233 9.24176 6.5622 9.24152 6.56208 9.24129C6.56182 9.24084 6.5616 9.24043 6.56141 9.24009C6.56104 9.23939 6.56078 9.23891 6.56064 9.23865C6.56036 9.23813 6.56055 9.23848 6.56118 9.23971C6.56245 9.24217 6.56549 9.24815 6.57005 9.25774C6.57918 9.27691 6.59444 9.31051 6.61389 9.35913C6.65277 9.45634 6.70855 9.61392 6.76567 9.83669C6.87982 10.2819 7 10.9901 7 12H7.5H8C8 10.9099 7.87018 10.1181 7.73433 9.58831C7.66645 9.32358 7.59723 9.12491 7.54236 8.98774C7.51494 8.91918 7.49113 8.86606 7.47291 8.82781C7.46381 8.80868 7.4561 8.79328 7.45005 8.78153C7.44702 8.77566 7.4444 8.7707 7.44223 8.76664C7.44114 8.76461 7.44017 8.76281 7.43931 8.76123C7.43888 8.76045 7.43848 8.75971 7.43811 8.75904C7.43792 8.7587 7.43774 8.75838 7.43757 8.75807C7.43748 8.75791 7.43736 8.75769 7.43732 8.75761C7.4372 8.75739 7.43708 8.75718 7 9ZM7.5 12H7C7 13.0099 6.87982 13.7181 6.76567 14.1633C6.70855 14.3861 6.65277 14.5437 6.61389 14.6409C6.59444 14.6895 6.57918 14.7231 6.57005 14.7423C6.56549 14.7518 6.56245 14.7578 6.56118 14.7603C6.56055 14.7615 6.56036 14.7619 6.56064 14.7613C6.56078 14.7611 6.56104 14.7606 6.56141 14.7599C6.5616 14.7596 6.56182 14.7592 6.56208 14.7587C6.5622 14.7585 6.56233 14.7582 6.56248 14.758C6.56255 14.7579 6.56266 14.7577 6.56269 14.7576C6.56281 14.7574 6.56292 14.7572 7 15C7.43708 15.2428 7.4372 15.2426 7.43732 15.2424C7.43736 15.2423 7.43748 15.2421 7.43757 15.2419C7.43774 15.2416 7.43792 15.2413 7.43811 15.241C7.43848 15.2403 7.43888 15.2396 7.43931 15.2388C7.44017 15.2372 7.44114 15.2354 7.44223 15.2334C7.4444 15.2293 7.44702 15.2243 7.45005 15.2185C7.4561 15.2067 7.46381 15.1913 7.47291 15.1722C7.49113 15.1339 7.51494 15.0808 7.54236 15.0123C7.59723 14.8751 7.66645 14.6764 7.73433 14.4117C7.87018 13.8819 8 13.0901 8 12H7.5ZM10.5 9C10.0629 9.24282 10.0628 9.24261 10.0627 9.24241C10.0627 9.24235 10.0625 9.24214 10.0625 9.24202C10.0623 9.24176 10.0622 9.24152 10.0621 9.24129C10.0618 9.24084 10.0616 9.24043 10.0614 9.24009C10.061 9.23939 10.0608 9.23891 10.0606 9.23865C10.0604 9.23813 10.0606 9.23848 10.0612 9.23971C10.0625 9.24217 10.0655 9.24815 10.0701 9.25774C10.0792 9.27691 10.0944 9.31051 10.1139 9.35913C10.1528 9.45634 10.2085 9.61392 10.2657 9.83669C10.3798 10.2819 10.5 10.9901 10.5 12H11H11.5C11.5 10.9099 11.3702 10.1181 11.2343 9.58831C11.1665 9.32358 11.0972 9.12491 11.0424 8.98774C11.0149 8.91918 10.9911 8.86606 10.9729 8.82781C10.9638 8.80868 10.9561 8.79328 10.95 8.78153C10.947 8.77566 10.9444 8.7707 10.9422 8.76664C10.9411 8.76461 10.9402 8.76281 10.9393 8.76123C10.9389 8.76045 10.9385 8.75971 10.9381 8.75904C10.9379 8.7587 10.9377 8.75838 10.9376 8.75807C10.9375 8.75791 10.9374 8.75769 10.9373 8.75761C10.9372 8.75739 10.9371 8.75718 10.5 9ZM11 12H10.5C10.5 13.0099 10.3798 13.7181 10.2657 14.1633C10.2085 14.3861 10.1528 14.5437 10.1139 14.6409C10.0944 14.6895 10.0792 14.7231 10.0701 14.7423C10.0655 14.7518 10.0625 14.7578 10.0612 14.7603C10.0606 14.7615 10.0604 14.7619 10.0606 14.7613C10.0608 14.7611 10.061 14.7606 10.0614 14.7599C10.0616 14.7596 10.0618 14.7592 10.0621 14.7587C10.0622 14.7585 10.0623 14.7582 10.0625 14.758C10.0625 14.7579 10.0627 14.7577 10.0627 14.7576C10.0628 14.7574 10.0629 14.7572 10.5 15C10.9371 15.2428 10.9372 15.2426 10.9373 15.2424C10.9374 15.2423 10.9375 15.2421 10.9376 15.2419C10.9377 15.2416 10.9379 15.2413 10.9381 15.241C10.9385 15.2403 10.9389 15.2396 10.9393 15.2388C10.9402 15.2372 10.9411 15.2354 10.9422 15.2334C10.9444 15.2293 10.947 15.2243 10.95 15.2185C10.9561 15.2067 10.9638 15.1913 10.9729 15.1722C10.9911 15.1339 11.0149 15.0808 11.0424 15.0123C11.0972 14.8751 11.1665 14.6764 11.2343 14.4117C11.3702 13.8819 11.5 13.0901 11.5 12H11ZM22 14H22.5V10H22H21.5V14H22Z" fill="#424242"/>
</svg>
