<svg width="24" height="24" viewBox="0 0 24 24" fill="none" xmlns="http://www.w3.org/2000/svg">
<path d="M18.5 10H16.4744C15.2534 10 14.6429 10 14.0934 9.77341C13.544 9.54682 13.111 9.11646 12.2449 8.25573L11.6676 7.68194C10.8828 6.90201 10.4904 6.51204 10.0257 6.55439C9.56102 6.59673 9.24559 7.0512 8.61471 7.96013L7.38809 9.72738C6.74573 10.6529 6.42454 11.1156 6.55348 11.5703C6.68242 12.025 7.1987 12.2503 8.23125 12.7009L9.70695 13.3448C11.0709 13.9399 11.7529 14.2375 12.081 14.8374C12.4091 15.4373 12.2918 16.172 12.0572 17.6416L12 18M17 4C17 5.10457 16.1046 6 15 6C13.8954 6 13 5.10457 13 4C13 2.89543 13.8954 2 15 2C16.1046 2 17 2.89543 17 4ZM9 18C9 19.6569 7.65685 21 6 21C4.34315 21 3 19.6569 3 18C3 16.3431 4.34315 15 6 15C7.65685 15 9 16.3431 9 18ZM21 18C21 19.6569 19.6569 21 18 21C16.3431 21 15 19.6569 15 18C15 16.3431 16.3431 15 18 15C19.6569 15 21 16.3431 21 18Z" stroke="#424242" stroke-linecap="round"/>
</svg>
