<svg width="24" height="24" viewBox="0 0 24 24" fill="none" xmlns="http://www.w3.org/2000/svg">
<path d="M6.375 21.4098L5.96824 21.7006H5.96824L6.375 21.4098ZM5.94231 20.8045L6.34907 20.5138H6.34907L5.94231 20.8045ZM18.0577 20.8045L18.4645 21.0953V21.0953L18.0577 20.8045ZM17.625 21.4098L18.0318 21.7006V21.7006L17.625 21.4098ZM19.4423 20.8045L19.8491 20.5138V20.5138L19.4423 20.8045ZM4.55769 20.8045L4.96445 21.0953V21.0953L4.55769 20.8045ZM18.2615 2.01198L18.2158 2.50988V2.50988L18.2615 2.01198ZM20.9886 4.87321L21.4869 4.83167V4.83166L20.9886 4.87321ZM5.73853 2.01198L5.69283 1.51407V1.51407L5.73853 2.01198ZM3.01142 4.87321L2.51315 4.83166V4.83166L3.01142 4.87321ZM7.5 15C7.22386 15 7 15.2239 7 15.5C7 15.7761 7.22386 16 7.5 16V15ZM16.5 16C16.7761 16 17 15.7761 17 15.5C17 15.2239 16.7761 15 16.5 15V16ZM14.3536 8.35359C14.5488 8.15832 14.5488 7.84174 14.3536 7.64648C14.1583 7.45122 13.8417 7.45122 13.6465 7.64648L14.3536 8.35359ZM9.64648 11.6465C9.45122 11.8417 9.45122 12.1583 9.64648 12.3536C9.84174 12.5488 10.1583 12.5488 10.3536 12.3536L9.64648 11.6465ZM10.3536 7.64646C10.1583 7.4512 9.84173 7.4512 9.64646 7.64646C9.4512 7.84172 9.4512 8.15831 9.64646 8.35357L10.3536 7.64646ZM13.6464 12.3536C13.8417 12.5488 14.1583 12.5488 14.3536 12.3536C14.5488 12.1583 14.5488 11.8417 14.3536 11.6464L13.6464 12.3536ZM6.33333 2.5H17.6667V1.5H6.33333V2.5ZM20.5 5.49727V20.2598H21.5V5.49727H20.5ZM3.5 20.2598V5.49727H2.5V20.2598H3.5ZM6.78176 21.1191L6.34907 20.5138L5.53555 21.0953L5.96824 21.7006L6.78176 21.1191ZM17.6509 20.5138L17.2182 21.1191L18.0318 21.7006L18.4645 21.0953L17.6509 20.5138ZM19.8491 20.5138C19.3035 19.7506 18.1965 19.7506 17.6509 20.5138L18.4645 21.0953C18.6112 20.89 18.8888 20.89 19.0355 21.0953L19.8491 20.5138ZM15.7818 21.1191C15.0198 20.0532 13.4802 20.0532 12.7182 21.1191L13.5318 21.7006C13.8948 21.1927 14.6052 21.1927 14.9682 21.7006L15.7818 21.1191ZM11.2818 21.1191C10.5198 20.0532 8.98016 20.0532 8.21824 21.1191L9.03176 21.7006C9.39484 21.1927 10.1052 21.1927 10.4682 21.7006L11.2818 21.1191ZM6.34907 20.5138C5.80349 19.7506 4.69651 19.7506 4.15093 20.5138L4.96445 21.0953C5.11118 20.89 5.38882 20.89 5.53555 21.0953L6.34907 20.5138ZM5.96824 21.7006C6.73016 22.7665 8.26984 22.7665 9.03176 21.7006L8.21824 21.1191C7.85516 21.627 7.14484 21.627 6.78176 21.1191L5.96824 21.7006ZM14.9682 21.7006C15.7302 22.7665 17.2698 22.7665 18.0318 21.7006L17.2182 21.1191C16.8552 21.627 16.1448 21.627 15.7818 21.1191L14.9682 21.7006ZM10.4682 21.7006C11.2302 22.7665 12.7698 22.7665 13.5318 21.7006L12.7182 21.1191C12.3552 21.627 11.6448 21.627 11.2818 21.1191L10.4682 21.7006ZM2.5 20.2598C2.5 20.9198 2.9098 21.4123 3.42667 21.5931C3.94675 21.775 4.57578 21.639 4.96445 21.0953L4.15093 20.5138C4.04061 20.6681 3.89081 20.696 3.75679 20.6492C3.61955 20.6012 3.5 20.4723 3.5 20.2598H2.5ZM20.5 20.2598C20.5 20.4723 20.3804 20.6012 20.2432 20.6492C20.1092 20.696 19.9594 20.6681 19.8491 20.5138L19.0355 21.0953C19.4242 21.639 20.0533 21.775 20.5733 21.5931C21.0902 21.4123 21.5 20.9198 21.5 20.2598H20.5ZM17.6667 2.5C17.9873 2.5 18.1138 2.50053 18.2158 2.50988L18.3072 1.51407C18.1481 1.49947 17.9651 1.5 17.6667 1.5V2.5ZM21.5 5.49727C21.5 5.18258 21.5004 4.99453 21.4869 4.83167L20.4903 4.91476C20.4996 5.0257 20.5 5.16242 20.5 5.49727H21.5ZM18.2158 2.50988C19.4075 2.61928 20.3821 3.61747 20.4903 4.91476L21.4869 4.83166C21.3413 3.08562 20.0161 1.67093 18.3072 1.51407L18.2158 2.50988ZM6.33333 1.5C6.03487 1.5 5.85186 1.49947 5.69283 1.51407L5.78424 2.50988C5.88617 2.50053 6.0127 2.5 6.33333 2.5V1.5ZM3.5 5.49727C3.5 5.16242 3.50044 5.0257 3.50969 4.91476L2.51315 4.83166C2.49956 4.99453 2.5 5.18258 2.5 5.49727H3.5ZM5.69283 1.51407C3.98392 1.67093 2.65874 3.08562 2.51315 4.83166L3.50969 4.91476C3.61786 3.61747 4.59247 2.61928 5.78424 2.50988L5.69283 1.51407ZM7.5 16H16.5V15H7.5V16ZM13.6465 7.64648L11.6465 9.64647L12.3536 10.3536L14.3536 8.35359L13.6465 7.64648ZM11.6465 9.64647L9.64648 11.6465L10.3536 12.3536L12.3536 10.3536L11.6465 9.64647ZM9.64646 8.35357L11.6465 10.3536L12.3536 9.64647L10.3536 7.64646L9.64646 8.35357ZM11.6465 10.3536L13.6464 12.3536L14.3536 11.6464L12.3536 9.64647L11.6465 10.3536Z" fill="#424242"/>
</svg>
