<svg width="24" height="24" viewBox="0 0 24 24" fill="none" xmlns="http://www.w3.org/2000/svg">
<path d="M6.375 21.5597L6.71254 21.1908H6.71254L6.375 21.5597ZM5.8919 21.1176L6.22945 20.7487V20.7487L5.8919 21.1176ZM18.1081 21.1176L17.7706 20.7487V20.7487L18.1081 21.1176ZM17.625 21.5597L17.2875 21.1908V21.1908L17.625 21.5597ZM19.3919 21.1176L19.0544 21.4865H19.0544L19.3919 21.1176ZM4.6081 21.1176L4.27055 20.7487H4.27055L4.6081 21.1176ZM18.9606 2.16261L18.7963 2.63484V2.63484L18.9606 2.16261ZM20.842 4.09946L21.3171 3.94349V3.94349L20.842 4.09946ZM5.03939 2.16261L5.2037 2.63484V2.63484L5.03939 2.16261ZM3.15795 4.09946L3.633 4.25543V4.25543L3.15795 4.09946ZM9.87297 10.067C9.68905 9.86101 9.37298 9.84312 9.16699 10.027C8.96101 10.2109 8.94312 10.527 9.12703 10.733L9.87297 10.067ZM10.9286 12L10.5556 12.333C10.6505 12.4393 10.7861 12.5 10.9286 12.5C11.071 12.5 11.2067 12.4393 11.3015 12.333L10.9286 12ZM14.873 8.33301C15.0569 8.12702 15.039 7.81095 14.833 7.62703C14.627 7.44312 14.3109 7.46101 14.127 7.66699L14.873 8.33301ZM7.5 15C7.22386 15 7 15.2239 7 15.5C7 15.7761 7.22386 16 7.5 16V15ZM16.5 16C16.7761 16 17 15.7761 17 15.5C17 15.2239 16.7761 15 16.5 15V16ZM7.24502 2.5H16.755V1.5H7.24502V2.5ZM20.5 6.37006V20.3742H21.5V6.37006H20.5ZM3.5 20.3742V6.37006H2.5V20.3742H3.5ZM6.71254 21.1908L6.22945 20.7487L5.55436 21.4865L6.03746 21.9285L6.71254 21.1908ZM17.7706 20.7487L17.2875 21.1908L17.9625 21.9285L18.4456 21.4865L17.7706 20.7487ZM19.7294 20.7487C19.1723 20.2389 18.3277 20.2389 17.7706 20.7487L18.4456 21.4865C18.6206 21.3263 18.8794 21.3263 19.0544 21.4865L19.7294 20.7487ZM15.7125 21.1908C14.8799 20.4289 13.6201 20.4289 12.7875 21.1908L13.4625 21.9285C13.9131 21.5163 14.5869 21.5163 15.0375 21.9285L15.7125 21.1908ZM11.2125 21.1908C10.3799 20.4289 9.12011 20.4289 8.28746 21.1908L8.96254 21.9285C9.41306 21.5163 10.0869 21.5163 10.5375 21.9285L11.2125 21.1908ZM6.22945 20.7487C5.6723 20.2389 4.8277 20.2389 4.27055 20.7487L4.94564 21.4865C5.12065 21.3263 5.37935 21.3263 5.55436 21.4865L6.22945 20.7487ZM6.03746 21.9285C6.87011 22.6905 8.12989 22.6905 8.96254 21.9285L8.28746 21.1908C7.83694 21.6031 7.16306 21.6031 6.71254 21.1908L6.03746 21.9285ZM15.0375 21.9285C15.8701 22.6905 17.1299 22.6905 17.9625 21.9285L17.2875 21.1908C16.8369 21.6031 16.1631 21.6031 15.7125 21.1908L15.0375 21.9285ZM10.5375 21.9285C11.3701 22.6905 12.6299 22.6905 13.4625 21.9285L12.7875 21.1908C12.3369 21.6031 11.6631 21.6031 11.2125 21.1908L10.5375 21.9285ZM2.5 20.3742C2.5 21.6371 3.97965 22.3704 4.94564 21.4865L4.27055 20.7487C3.99034 21.0052 3.5 20.8278 3.5 20.3742H2.5ZM20.5 20.3742C20.5 20.8278 20.0097 21.0052 19.7294 20.7487L19.0544 21.4865C20.0203 22.3704 21.5 21.6371 21.5 20.3742H20.5ZM16.755 2.5C17.9553 2.5 18.4289 2.50699 18.7963 2.63484L19.1249 1.69038C18.5577 1.49301 17.8724 1.5 16.755 1.5V2.5ZM21.5 6.37006C21.5 5.2165 21.5063 4.51975 21.3171 3.94349L20.367 4.25543C20.4937 4.64135 20.5 5.13761 20.5 6.37006H21.5ZM18.7963 2.63484C19.5313 2.89057 20.1148 3.4872 20.367 4.25543L21.3171 3.94349C20.9703 2.88718 20.1623 2.05134 19.1249 1.69038L18.7963 2.63484ZM7.24502 1.5C6.12762 1.5 5.44229 1.49301 4.87507 1.69038L5.2037 2.63484C5.57112 2.50699 6.04467 2.5 7.24502 2.5V1.5ZM3.5 6.37006C3.5 5.1376 3.5063 4.64135 3.633 4.25543L2.6829 3.94349C2.4937 4.51975 2.5 5.2165 2.5 6.37006H3.5ZM4.87507 1.69038C3.83771 2.05134 3.02972 2.88718 2.6829 3.94349L3.633 4.25543C3.88524 3.4872 4.46873 2.89057 5.2037 2.63484L4.87507 1.69038ZM9.12703 10.733L10.5556 12.333L11.3015 11.667L9.87297 10.067L9.12703 10.733ZM11.3015 12.333L14.873 8.33301L14.127 7.66699L10.5556 11.667L11.3015 12.333ZM7.5 16H16.5V15H7.5V16Z" fill="#424242"/>
</svg>
