<svg width="24" height="24" viewBox="0 0 24 24" fill="none" xmlns="http://www.w3.org/2000/svg">
<path d="M6.375 21.5597L6.71254 21.1908H6.71254L6.375 21.5597ZM5.8919 21.1176L6.22945 20.7487V20.7487L5.8919 21.1176ZM18.1081 21.1176L17.7706 20.7487V20.7487L18.1081 21.1176ZM17.625 21.5597L17.2875 21.1908V21.1908L17.625 21.5597ZM19.3919 21.1176L19.0544 21.4865H19.0544L19.3919 21.1176ZM4.6081 21.1176L4.27055 20.7487H4.27055L4.6081 21.1176ZM18.9606 2.16261L18.7963 2.63484V2.63484L18.9606 2.16261ZM20.842 4.09946L21.3171 3.94349V3.94349L20.842 4.09946ZM5.03939 2.16261L5.2037 2.63484V2.63484L5.03939 2.16261ZM3.15795 4.09946L3.633 4.25543V4.25543L3.15795 4.09946ZM10.5 10.5C10.2239 10.5 10 10.7239 10 11C10 11.2761 10.2239 11.5 10.5 11.5V10.5ZM17 11.5C17.2761 11.5 17.5 11.2761 17.5 11C17.5 10.7239 17.2761 10.5 17 10.5V11.5ZM7 10.5C6.72386 10.5 6.5 10.7239 6.5 11C6.5 11.2761 6.72386 11.5 7 11.5V10.5ZM7.5 11.5C7.77614 11.5 8 11.2761 8 11C8 10.7239 7.77614 10.5 7.5 10.5V11.5ZM7 7C6.72386 7 6.5 7.22386 6.5 7.5C6.5 7.77614 6.72386 8 7 8V7ZM7.5 8C7.77614 8 8 7.77614 8 7.5C8 7.22386 7.77614 7 7.5 7V8ZM7 14C6.72386 14 6.5 14.2239 6.5 14.5C6.5 14.7761 6.72386 15 7 15V14ZM7.5 15C7.77614 15 8 14.7761 8 14.5C8 14.2239 7.77614 14 7.5 14V15ZM10.5 7C10.2239 7 10 7.22386 10 7.5C10 7.77614 10.2239 8 10.5 8V7ZM17 8C17.2761 8 17.5 7.77614 17.5 7.5C17.5 7.22386 17.2761 7 17 7V8ZM10.5 14C10.2239 14 10 14.2239 10 14.5C10 14.7761 10.2239 15 10.5 15V14ZM17 15C17.2761 15 17.5 14.7761 17.5 14.5C17.5 14.2239 17.2761 14 17 14V15ZM7.24502 2.5H16.755V1.5H7.24502V2.5ZM20.5 6.37006V20.3742H21.5V6.37006H20.5ZM3.5 20.3742V6.37006H2.5V20.3742H3.5ZM6.71254 21.1908L6.22945 20.7487L5.55436 21.4865L6.03746 21.9285L6.71254 21.1908ZM17.7706 20.7487L17.2875 21.1908L17.9625 21.9285L18.4456 21.4865L17.7706 20.7487ZM19.7294 20.7487C19.1723 20.2389 18.3277 20.2389 17.7706 20.7487L18.4456 21.4865C18.6206 21.3263 18.8794 21.3263 19.0544 21.4865L19.7294 20.7487ZM15.7125 21.1908C14.8799 20.4289 13.6201 20.4289 12.7875 21.1908L13.4625 21.9285C13.9131 21.5163 14.5869 21.5163 15.0375 21.9285L15.7125 21.1908ZM11.2125 21.1908C10.3799 20.4289 9.12011 20.4289 8.28746 21.1908L8.96254 21.9285C9.41306 21.5163 10.0869 21.5163 10.5375 21.9285L11.2125 21.1908ZM6.22945 20.7487C5.6723 20.2389 4.8277 20.2389 4.27055 20.7487L4.94564 21.4865C5.12065 21.3263 5.37935 21.3263 5.55436 21.4865L6.22945 20.7487ZM6.03746 21.9285C6.87011 22.6905 8.12989 22.6905 8.96254 21.9285L8.28746 21.1908C7.83694 21.6031 7.16306 21.6031 6.71254 21.1908L6.03746 21.9285ZM15.0375 21.9285C15.8701 22.6905 17.1299 22.6905 17.9625 21.9285L17.2875 21.1908C16.8369 21.6031 16.1631 21.6031 15.7125 21.1908L15.0375 21.9285ZM10.5375 21.9285C11.3701 22.6905 12.6299 22.6905 13.4625 21.9285L12.7875 21.1908C12.3369 21.6031 11.6631 21.6031 11.2125 21.1908L10.5375 21.9285ZM2.5 20.3742C2.5 21.6371 3.97965 22.3704 4.94564 21.4865L4.27055 20.7487C3.99034 21.0052 3.5 20.8278 3.5 20.3742H2.5ZM20.5 20.3742C20.5 20.8278 20.0097 21.0052 19.7294 20.7487L19.0544 21.4865C20.0203 22.3704 21.5 21.6371 21.5 20.3742H20.5ZM16.755 2.5C17.9553 2.5 18.4289 2.50699 18.7963 2.63484L19.1249 1.69038C18.5577 1.49301 17.8724 1.5 16.755 1.5V2.5ZM21.5 6.37006C21.5 5.2165 21.5063 4.51975 21.3171 3.94349L20.367 4.25543C20.4937 4.64135 20.5 5.13761 20.5 6.37006H21.5ZM18.7963 2.63484C19.5313 2.89057 20.1148 3.4872 20.367 4.25543L21.3171 3.94349C20.9703 2.88718 20.1623 2.05134 19.1249 1.69038L18.7963 2.63484ZM7.24502 1.5C6.12762 1.5 5.44229 1.49301 4.87507 1.69038L5.2037 2.63484C5.57112 2.50699 6.04467 2.5 7.24502 2.5V1.5ZM3.5 6.37006C3.5 5.1376 3.5063 4.64135 3.633 4.25543L2.6829 3.94349C2.4937 4.51975 2.5 5.2165 2.5 6.37006H3.5ZM4.87507 1.69038C3.83771 2.05134 3.02972 2.88718 2.6829 3.94349L3.633 4.25543C3.88524 3.4872 4.46873 2.89057 5.2037 2.63484L4.87507 1.69038ZM10.5 11.5H17V10.5H10.5V11.5ZM7 11.5H7.5V10.5H7V11.5ZM7 8H7.5V7H7V8ZM7 15H7.5V14H7V15ZM10.5 8H17V7H10.5V8ZM10.5 15H17V14H10.5V15Z" fill="#424242"/>
</svg>
