<svg width="24" height="24" viewBox="0 0 24 24" fill="none" xmlns="http://www.w3.org/2000/svg">
<path d="M2 1.5C1.72386 1.5 1.5 1.72386 1.5 2C1.5 2.27614 1.72386 2.5 2 2.5V1.5ZM22 2.5C22.2761 2.5 22.5 2.27614 22.5 2C22.5 1.72386 22.2761 1.5 22 1.5V2.5ZM4 2V1.5H3.5V2H4ZM20 2H20.5V1.5H20V2ZM6.04897 16.7822L6.37809 16.4058V16.4058L6.04897 16.7822ZM17.951 16.7822L18.2801 17.1586L17.951 16.7822ZM15.951 18.5309L15.6219 18.1545V18.1545L15.951 18.5309ZM8.04897 18.5309L7.71985 18.9073V18.9073L8.04897 18.5309ZM12 21V21.5V21ZM8.5 12.5C8.22386 12.5 8 12.7239 8 13C8 13.2761 8.22386 13.5 8.5 13.5V12.5ZM15.5 13.5C15.7761 13.5 16 13.2761 16 13C16 12.7239 15.7761 12.5 15.5 12.5V13.5ZM8.5 7.5C8.22386 7.5 8 7.72386 8 8C8 8.27614 8.22386 8.5 8.5 8.5V7.5ZM15.5 8.5C15.7761 8.5 16 8.27614 16 8C16 7.72386 15.7761 7.5 15.5 7.5V8.5ZM2 2.5H22V1.5H2V2.5ZM4 2.5H20V1.5H4V2.5ZM19.5 2V12.27H20.5V2H19.5ZM17.6219 16.4058L15.6219 18.1545L16.2801 18.9073L18.2801 17.1586L17.6219 16.4058ZM8.37809 18.1545L6.37809 16.4058L5.71985 17.1586L7.71985 18.9073L8.37809 18.1545ZM4.5 12.27V2H3.5V12.27H4.5ZM6.37809 16.4058C5.33561 15.4943 4.93629 15.1313 4.72336 14.6623L3.81284 15.0758C4.13611 15.7877 4.7453 16.3065 5.71985 17.1586L6.37809 16.4058ZM3.5 12.27C3.5 13.564 3.48955 14.3639 3.81284 15.0758L4.72336 14.6623C4.51045 14.1935 4.5 13.6542 4.5 12.27H3.5ZM19.5 12.27C19.5 13.6542 19.4895 14.1935 19.2766 14.6623L20.1872 15.0758C20.5105 14.3639 20.5 13.564 20.5 12.27H19.5ZM18.2801 17.1586C19.2547 16.3065 19.8639 15.7877 20.1872 15.0758L19.2766 14.6623C19.0637 15.1313 18.6644 15.4943 17.6219 16.4058L18.2801 17.1586ZM15.6219 18.1545C14.6708 18.9862 13.9923 19.5782 13.4131 19.9679C12.8457 20.3497 12.4262 20.5 12 20.5V21.5C12.701 21.5 13.3157 21.2388 13.9714 20.7976C14.6153 20.3643 15.3487 19.7217 16.2801 18.9073L15.6219 18.1545ZM7.71985 18.9073C8.65127 19.7217 9.38467 20.3643 10.0286 20.7976C10.6843 21.2388 11.299 21.5 12 21.5V20.5C11.5738 20.5 11.1543 20.3497 10.5869 19.9679C10.0077 19.5782 9.32922 18.9862 8.37809 18.1545L7.71985 18.9073ZM8.5 13.5H15.5V12.5H8.5V13.5ZM8.5 8.5H15.5V7.5H8.5V8.5Z" fill="#424242"/>
</svg>
