<svg width="24" height="24" viewBox="0 0 24 24" fill="none" xmlns="http://www.w3.org/2000/svg">
<path d="M11.4677 13.9326L11.82 14.2875V14.2875L11.4677 13.9326ZM11.4677 2.74249L11.82 2.38763V2.38763L11.4677 2.74249ZM2.74803 2.74249L2.3958 2.38763L2.3958 2.38763L2.74803 2.74249ZM2.74803 13.9326L3.10027 13.5778V13.5778L2.74803 13.9326ZM5.33092 14.6751C5.33092 14.9513 5.55477 15.1751 5.83092 15.1751C6.10706 15.1751 6.33092 14.9513 6.33092 14.6751H5.33092ZM6.33092 2C6.33092 1.72386 6.10706 1.5 5.83092 1.5C5.55477 1.5 5.33092 1.72386 5.33092 2H6.33092ZM12.6212 6.87141C12.6212 6.59527 12.3973 6.37141 12.1212 6.37141C11.845 6.37141 11.6212 6.59527 11.6212 6.87141H12.6212ZM11.6212 9.09429C11.6212 9.37043 11.845 9.59429 12.1212 9.59429C12.3973 9.59429 12.6212 9.37043 12.6212 9.09429H11.6212ZM8.88486 14.8643C8.88486 14.5882 8.661 14.3643 8.38486 14.3643C8.10872 14.3643 7.88486 14.5882 7.88486 14.8643H8.88486ZM19.9047 9.47265C19.9047 9.19651 19.6808 8.97265 19.4047 8.97265C19.1285 8.97265 18.9047 9.19651 18.9047 9.47265H19.9047ZM2.5 9.60508V7.07005H1.5V9.60508H2.5ZM7.10789 15.1751C8.2978 15.1751 9.24016 15.1762 9.9764 15.0779C10.7266 14.9778 11.3374 14.7665 11.82 14.2875L11.1155 13.5778C10.85 13.8413 10.4848 14.0012 9.84412 14.0867C9.18941 14.1741 8.32586 14.1751 7.10789 14.1751V15.1751ZM7.10789 2.5C8.32586 2.5 9.18941 2.50105 9.84412 2.58842C10.4848 2.67392 10.85 2.83384 11.1155 3.09736L11.82 2.38763C11.3374 1.90866 10.7266 1.69733 9.9764 1.59721C9.24016 1.49896 8.2978 1.5 7.10789 1.5V2.5ZM2.5 7.07005C2.5 5.86079 2.50108 5.00452 2.58898 4.35555C2.67488 3.72136 2.83529 3.36037 3.10027 3.09736L2.3958 2.38763C1.91274 2.86711 1.69913 3.47488 1.59803 4.22133C1.49892 4.95301 1.5 5.88927 1.5 7.07005H2.5ZM7.10789 1.5C6.63924 1.5 6.2116 1.49999 5.82374 1.50556L5.8381 2.50546C6.21736 2.50001 6.63733 2.5 7.10789 2.5V1.5ZM5.82374 1.50556C4.27557 1.52779 3.16261 1.6265 2.3958 2.38763L3.10027 3.09736C3.53775 2.66312 4.21993 2.52869 5.8381 2.50546L5.82374 1.50556ZM1.5 9.60508C1.5 10.7859 1.49892 11.7221 1.59803 12.4538C1.69913 13.2003 1.91274 13.808 2.3958 14.2875L3.10027 13.5778C2.83529 13.3148 2.67488 12.9538 2.58898 12.3196C2.50108 11.6706 2.5 10.8143 2.5 9.60508H1.5ZM7.10789 14.1751C6.63733 14.1751 6.21736 14.1751 5.8381 14.1697L5.82374 15.1696C6.2116 15.1751 6.63925 15.1751 7.10789 15.1751V14.1751ZM5.8381 14.1697C4.21993 14.1464 3.53775 14.012 3.10027 13.5778L2.3958 14.2875C3.16261 15.0486 4.27557 15.1473 5.82374 15.1696L5.8381 14.1697ZM6.33092 14.6751V14.6696H5.33092V14.6751H6.33092ZM6.33092 14.6696V2.00551H5.33092V14.6696H6.33092ZM6.33092 2.00551V2H5.33092V2.00551H6.33092ZM12.6284 4.3037C12.5319 3.51969 12.3208 2.88477 11.82 2.38763L11.1155 3.09736C11.39 3.36977 11.5524 3.74748 11.6359 4.42583L12.6284 4.3037ZM11.605 12.4652C11.5149 13.0095 11.3601 13.335 11.1155 13.5778L11.82 14.2875C12.2642 13.8466 12.481 13.2965 12.5916 12.6284L11.605 12.4652ZM11.6212 6.87141V9.09429H12.6212V6.87141H11.6212ZM15.8778 8.47945C15.8778 10.528 14.2171 12.1887 12.1685 12.1887V13.1887C14.7693 13.1887 16.8778 11.0803 16.8778 8.47945H15.8778ZM12.1685 12.1887C10.1199 12.1887 8.4592 10.528 8.4592 8.47945H7.4592C7.4592 11.0803 9.56762 13.1887 12.1685 13.1887V12.1887ZM8.4592 8.47945C8.4592 6.43087 10.1199 4.77017 12.1685 4.77017V3.77017C9.56762 3.77017 7.4592 5.87859 7.4592 8.47945H8.4592ZM12.1685 4.77017C14.2171 4.77017 15.8778 6.43087 15.8778 8.47945H16.8778C16.8778 5.87859 14.7693 3.77017 12.1685 3.77017V4.77017ZM7.88486 14.8643V17.4588H8.88486V14.8643H7.88486ZM7.38486 17.9588H3.33107V18.9588H7.38486V17.9588ZM1.83107 19.4588V20.9113H2.83107V19.4588H1.83107ZM19.9047 20.9113V18.4588H18.9047V20.9113H19.9047ZM19.585 17.9924C18.0595 17.4026 17.3926 15.9578 17.4567 14.496C17.5217 13.0105 18.3284 11.691 19.549 11.3229L19.2603 10.3655C17.5013 10.896 16.5344 12.698 16.4576 14.4523C16.3797 16.2301 17.2026 18.1434 19.2243 18.9251L19.585 17.9924ZM19.9047 10.8442V9.47265H18.9047V10.8442H19.9047ZM19.2663 11.3247C20.5658 11.6988 21.4195 13.0398 21.4947 14.5173C21.5686 15.9676 20.8814 17.4122 19.2395 17.9868L19.5698 18.9307C21.7116 18.1811 22.5851 16.2677 22.4934 14.4664C22.4031 12.6923 21.365 10.8883 19.543 10.3637L19.2663 11.3247ZM3.33107 22.4113H18.4047V21.4113H3.33107V22.4113ZM18.9047 20.9113C18.9047 21.1875 18.6808 21.4113 18.4047 21.4113V22.4113C19.2331 22.4113 19.9047 21.7397 19.9047 20.9113H18.9047ZM1.83107 20.9113C1.83107 21.7397 2.50264 22.4113 3.33107 22.4113V21.4113C3.05492 21.4113 2.83107 21.1875 2.83107 20.9113H1.83107ZM3.33107 17.9588C2.50264 17.9588 1.83107 18.6303 1.83107 19.4588H2.83107C2.83107 19.1826 3.05492 18.9588 3.33107 18.9588V17.9588ZM7.88486 17.4588C7.88486 17.7349 7.661 17.9588 7.38486 17.9588V18.9588C8.21329 18.9588 8.88486 18.2872 8.88486 17.4588H7.88486Z" fill="#424242"/>
</svg>
