<svg width="24" height="24" viewBox="0 0 24 24" fill="none" xmlns="http://www.w3.org/2000/svg">
<path d="M22.1613 12.0806V12.5806H22.6613V12.0806H22.1613ZM2 12.0806H1.5V12.5806H2V12.0806ZM19.4906 5.37774C19.6859 5.18248 19.6859 4.8659 19.4906 4.67064C19.2954 4.47537 18.9788 4.47537 18.7835 4.67064L19.1371 5.02419L19.4906 5.37774ZM17.2714 6.18273C17.0762 6.378 17.0762 6.69458 17.2714 6.88984C17.4667 7.0851 17.7833 7.0851 17.9785 6.88984L17.625 6.53629L17.2714 6.18273ZM5.37774 4.67064C5.18248 4.47537 4.8659 4.47537 4.67064 4.67064C4.47537 4.8659 4.47537 5.18248 4.67064 5.37774L5.02419 5.02419L5.37774 4.67064ZM6.18273 6.88984C6.37799 7.0851 6.69458 7.0851 6.88984 6.88984C7.0851 6.69458 7.0851 6.37799 6.88984 6.18273L6.53629 6.53629L6.18273 6.88984ZM4.01613 12.5806C4.29227 12.5806 4.51613 12.3568 4.51613 12.0806C4.51613 11.8045 4.29227 11.5806 4.01613 11.5806V12.0806V12.5806ZM20.1449 11.5806C19.8688 11.5806 19.6449 11.8045 19.6449 12.0806C19.6449 12.3568 19.8688 12.5806 20.1449 12.5806V12.0806V11.5806ZM11.5806 4.01634C11.5806 4.29248 11.8045 4.51634 12.0806 4.51634C12.3568 4.51634 12.5806 4.29248 12.5806 4.01634H12.0806H11.5806ZM10.0363 9.71583L10.4576 9.98515V9.98515L10.0363 9.71583ZM14.125 9.71583L13.7037 9.98515V9.98515L14.125 9.71583ZM5.65322 21.879C5.65322 22.1552 5.87708 22.379 6.15322 22.379C6.42936 22.379 6.65322 22.1552 6.65322 21.879H6.15322H5.65322ZM6.27419 19.5806V19.0806H5.77419V19.5806H6.27419ZM10.4919 22C10.4919 22.2761 10.7158 22.5 10.9919 22.5C11.2681 22.5 11.4919 22.2761 11.4919 22H10.9919H10.4919ZM10.9919 16.7984L11.4493 16.5963C11.3537 16.3801 11.1199 16.2604 10.8887 16.3092C10.6574 16.358 10.4919 16.562 10.4919 16.7984H10.9919ZM13.2903 22L12.833 22.2021C12.9137 22.3848 13.0955 22.5019 13.2952 22.5C13.495 22.498 13.6744 22.3773 13.7515 22.1931L13.2903 22ZM15.4677 16.7984H15.9677C15.9677 16.5602 15.7997 16.3551 15.5662 16.3082C15.3327 16.2613 15.0985 16.3856 15.0065 16.6053L15.4677 16.7984ZM14.9677 22C14.9677 22.2761 15.1916 22.5 15.4677 22.5C15.7439 22.5 15.9677 22.2761 15.9677 22H15.4677H14.9677ZM17.9032 16.6774C17.9032 16.4013 17.6793 16.1774 17.4032 16.1774C17.1271 16.1774 16.9032 16.4013 16.9032 16.6774H17.4032H17.9032ZM16.9032 22C16.9032 22.2761 17.1271 22.5 17.4032 22.5C17.6793 22.5 17.9032 22.2761 17.9032 22H17.4032H16.9032ZM2 12.0806H2.5C2.5 6.7894 6.7894 2.5 12.0806 2.5V2V1.5C6.23711 1.5 1.5 6.23711 1.5 12.0806H2ZM12.0806 2V2.5C17.3719 2.5 21.6613 6.7894 21.6613 12.0806H22.1613H22.6613C22.6613 6.23711 17.9242 1.5 12.0806 1.5V2ZM19.1371 5.02419L18.7835 4.67064L17.2714 6.18273L17.625 6.53629L17.9785 6.88984L19.4906 5.37774L19.1371 5.02419ZM5.02419 5.02419L4.67064 5.37774L6.18273 6.88984L6.53629 6.53629L6.88984 6.18273L5.37774 4.67064L5.02419 5.02419ZM2 12.0806V12.5806H4.01613V12.0806V11.5806H2V12.0806ZM20.1449 12.0806V12.5806H22.1613V12.0806V11.5806H20.1449V12.0806ZM12.0806 4.01634H12.5806V2H12.0806H11.5806V4.01634H12.0806ZM15.1048 12.0806H14.6048C14.6048 13.4747 13.4747 14.6048 12.0806 14.6048V15.1048V15.6048C14.027 15.6048 15.6048 14.027 15.6048 12.0806H15.1048ZM12.0806 15.1048V14.6048C10.6866 14.6048 9.55644 13.4747 9.55644 12.0806H9.05644H8.55644C8.55644 14.027 10.1343 15.6048 12.0806 15.6048V15.1048ZM9.05644 12.0806H9.55644C9.55644 11.8645 9.63456 11.5599 9.80124 11.1782C9.96421 10.8049 10.1945 10.3967 10.4576 9.98515L10.0363 9.71583L9.61501 9.44651C9.33585 9.88317 9.07617 10.3397 8.88479 10.778C8.69711 11.2078 8.55644 11.6615 8.55644 12.0806H9.05644ZM14.125 9.71583L13.7037 9.98515C13.9668 10.3967 14.1971 10.8049 14.36 11.1782C14.5267 11.5599 14.6048 11.8645 14.6048 12.0806H15.1048H15.6048C15.6048 11.6615 15.4642 11.2078 15.2765 10.778C15.0851 10.3397 14.8254 9.88317 14.5463 9.44651L14.125 9.71583ZM10.0363 9.71583L10.4576 9.98515C10.8744 9.3332 11.1484 8.90884 11.4117 8.63621C11.6456 8.394 11.8309 8.31322 12.0806 8.31322V7.81322V7.31322C11.5024 7.31322 11.0709 7.54955 10.6924 7.94154C10.3432 8.30311 10.0091 8.83006 9.61501 9.44651L10.0363 9.71583ZM14.125 9.71583L14.5463 9.44651C14.1522 8.83006 13.8181 8.30311 13.4689 7.94155C13.0903 7.54955 12.6589 7.31322 12.0806 7.31322V7.81322V8.31322C12.3304 8.31322 12.5157 8.394 12.7496 8.63621C13.0128 8.90884 13.2869 9.3332 13.7037 9.98515L14.125 9.71583ZM6.15322 17.1613H5.65322V19.2177H6.15322H6.65322V17.1613H6.15322ZM6.15322 19.2177H5.65322V21.879H6.15322H6.65322V19.2177H6.15322ZM6.39515 16.9194V17.4194H8.02822V16.9194V16.4194H6.39515V16.9194ZM8.02822 19.2177V18.7177H6.15322V19.2177V19.7177H8.02822V19.2177ZM9.17741 18.0686H8.67741C8.67741 18.4271 8.38676 18.7177 8.02822 18.7177V19.2177V19.7177C8.93904 19.7177 9.67741 18.9794 9.67741 18.0686H9.17741ZM8.02822 16.9194V17.4194C8.38676 17.4194 8.67741 17.71 8.67741 18.0686H9.17741H9.67741C9.67741 17.1577 8.93904 16.4194 8.02822 16.4194V16.9194ZM6.27419 21.6371H6.77419V19.5806H6.27419H5.77419V21.6371H6.27419ZM6.51612 21.879V22.379H8.14918V21.879V21.379H6.51612V21.879ZM8.14918 19.5806V19.0806H6.27419V19.5806V20.0806H8.14918V19.5806ZM9.29838 20.7298H9.79838C9.79838 19.819 9.06001 19.0806 8.14918 19.0806V19.5806V20.0806C8.50772 20.0806 8.79838 20.3713 8.79838 20.7298H9.29838ZM8.14918 21.879V22.379C9.06001 22.379 9.79838 21.6407 9.79838 20.7298H9.29838H8.79838C8.79838 21.0884 8.50772 21.379 8.14918 21.379V21.879ZM6.27419 21.6371H5.77419C5.77419 22.0469 6.10636 22.379 6.51612 22.379V21.879V21.379C6.65865 21.379 6.77419 21.4946 6.77419 21.6371H6.27419ZM6.15322 17.1613H6.65322C6.65322 17.3038 6.53768 17.4194 6.39515 17.4194V16.9194V16.4194C5.98539 16.4194 5.65322 16.7515 5.65322 17.1613H6.15322ZM10.9919 22H11.4919V16.7984H10.9919H10.4919V22H10.9919ZM10.9919 16.7984L10.5346 17.0005L12.833 22.2021L13.2903 22L13.7477 21.7979L11.4493 16.5963L10.9919 16.7984ZM13.2903 22L13.7515 22.1931L15.9289 16.9915L15.4677 16.7984L15.0065 16.6053L12.8291 21.8069L13.2903 22ZM15.4677 16.7984H14.9677V22H15.4677H15.9677V16.7984H15.4677ZM17.4032 16.6774H16.9032V22H17.4032H17.9032V16.6774H17.4032Z" fill="#424242"/>
</svg>
