<svg width="24" height="24" viewBox="0 0 24 24" fill="none" xmlns="http://www.w3.org/2000/svg">
<path d="M19.8978 16.5C20.1739 16.5 20.3978 16.2761 20.3978 16C20.3978 15.7239 20.1739 15.5 19.8978 15.5V16.5ZM6.12132 16.1022L5.99191 15.6193V15.6193L6.12132 16.1022ZM3.51704 18.0941C3.44557 18.3609 3.60386 18.635 3.87059 18.7065C4.13732 18.778 4.41149 18.6197 4.48296 18.353L3.51704 18.0941ZM6.5 16C6.5 16.2761 6.72386 16.5 7 16.5C7.27614 16.5 7.5 16.2761 7.5 16H6.5ZM7.5 2.5C7.5 2.22386 7.27614 2 7 2C6.72386 2 6.5 2.22386 6.5 2.5H7.5ZM10 2.5H14V1.5H10V2.5ZM19.5 8V16H20.5V8H19.5ZM14 21.5H10V22.5H14V21.5ZM4.5 16V8H3.5V16H4.5ZM10 21.5C8.57165 21.5 7.55069 21.4989 6.77481 21.3946C6.01331 21.2922 5.56319 21.0987 5.23223 20.7678L4.52513 21.4749C5.07285 22.0226 5.76917 22.2684 6.64156 22.3857C7.49956 22.5011 8.59992 22.5 10 22.5V21.5ZM3.5 16C3.5 17.4001 3.49894 18.5004 3.61429 19.3584C3.73158 20.2308 3.9774 20.9272 4.52513 21.4749L5.23223 20.7678C4.90128 20.4368 4.70776 19.9867 4.60538 19.2252C4.50106 18.4493 4.5 17.4283 4.5 16H3.5ZM19.5 16C19.5 17.4283 19.4989 18.4493 19.3946 19.2252C19.2922 19.9867 19.0987 20.4368 18.7678 20.7678L19.4749 21.4749C20.0226 20.9271 20.2684 20.2308 20.3857 19.3584C20.5011 18.5004 20.5 17.4001 20.5 16H19.5ZM14 22.5C15.4001 22.5 16.5004 22.5011 17.3584 22.3857C18.2308 22.2684 18.9271 22.0226 19.4749 21.4749L18.7678 20.7678C18.4368 21.0987 17.9867 21.2922 17.2252 21.3946C16.4493 21.4989 15.4283 21.5 14 21.5V22.5ZM14 2.5C15.4283 2.5 16.4493 2.50106 17.2252 2.60538C17.9867 2.70776 18.4368 2.90128 18.7678 3.23223L19.4749 2.52513C18.9271 1.9774 18.2308 1.73158 17.3584 1.61429C16.5004 1.49894 15.4001 1.5 14 1.5V2.5ZM20.5 8C20.5 6.59992 20.5011 5.49956 20.3857 4.64156C20.2684 3.76917 20.0226 3.07285 19.4749 2.52513L18.7678 3.23223C19.0987 3.56319 19.2922 4.01331 19.3946 4.77481C19.4989 5.55069 19.5 6.57165 19.5 8H20.5ZM10 1.5C8.59992 1.5 7.49956 1.49894 6.64156 1.61429C5.76917 1.73158 5.07285 1.9774 4.52513 2.52513L5.23223 3.23223C5.56319 2.90128 6.01331 2.70776 6.77481 2.60538C7.55069 2.50106 8.57165 2.5 10 2.5V1.5ZM4.5 8C4.5 6.57165 4.50106 5.55069 4.60538 4.77481C4.70776 4.01331 4.90128 3.56319 5.23223 3.23223L4.52513 2.52513C3.9774 3.07285 3.73158 3.76917 3.61429 4.64156C3.49894 5.49956 3.5 6.59992 3.5 8H4.5ZM7.89778 16.5H19.8978V15.5H7.89778V16.5ZM7.89778 15.5C7 15.5 6.45302 15.4957 5.99191 15.6193L6.25073 16.5852C6.55262 16.5043 6.93561 16.5 7.89778 16.5V15.5ZM5.99191 15.6193C4.78409 15.9429 3.84067 16.8863 3.51704 18.0941L4.48296 18.353C4.71413 17.4902 5.388 16.8164 6.25073 16.5852L5.99191 15.6193ZM7.5 16V2.5H6.5V16H7.5Z" fill="#424242"/>
</svg>
