<svg width="24" height="24" viewBox="0 0 24 24" fill="none" xmlns="http://www.w3.org/2000/svg">
<path d="M20.082 3.01781L20.0994 3.5175V3.5175L20.082 3.01781ZM16.5 3.4875L16.3566 3.00851V3.00851L16.5 3.4875ZM13.6738 4.80281L13.4234 4.37006V4.37006L13.6738 4.80281ZM3.9824 3.07495L3.95173 3.57401L3.9824 3.07495ZM7 3.4875L7.12757 3.00405V3.00405L7 3.4875ZM10.2823 4.87552L10.0485 5.31753V5.31753L10.2823 4.87552ZM13.6276 20.0693L13.8628 20.5105H13.8628L13.6276 20.0693ZM17 18.6334L16.8724 18.15H16.8724L17 18.6334ZM19.9851 18.2229L20.0164 18.7219V18.7219L19.9851 18.2229ZM10.3724 20.0693L10.1372 20.5105H10.1372L10.3724 20.0693ZM7 18.6334L7.12757 18.15V18.15L7 18.6334ZM4.01486 18.2229L3.98365 18.7219H3.98365L4.01486 18.2229ZM2.5 16.1436V4.99786H1.5V16.1436H2.5ZM22.5 16.1436V4.93325H21.5V16.1436H22.5ZM20.0646 2.51811C18.9295 2.55765 17.4687 2.67558 16.3566 3.00851L16.6434 3.9665C17.6251 3.67259 18.9773 3.55659 20.0994 3.5175L20.0646 2.51811ZM16.3566 3.00851C15.3907 3.29767 14.2922 3.86724 13.4234 4.37006L13.9243 5.23556C14.7784 4.74125 15.794 4.22077 16.6434 3.9665L16.3566 3.00851ZM3.95173 3.57401C4.92118 3.63359 6.03545 3.75009 6.87243 3.97096L7.12757 3.00405C6.19153 2.75705 4.99637 2.63632 4.01307 2.57589L3.95173 3.57401ZM6.87243 3.97096C7.86358 4.2325 9.06861 4.79937 10.0485 5.31753L10.516 4.43351C9.52361 3.90877 8.23484 3.29624 7.12757 3.00405L6.87243 3.97096ZM13.8628 20.5105C14.8566 19.9808 16.1054 19.3866 17.1276 19.1169L16.8724 18.15C15.7317 18.451 14.3975 19.0923 13.3924 19.6281L13.8628 20.5105ZM17.1276 19.1169C17.9551 18.8985 19.054 18.7821 20.0164 18.7219L19.9539 17.7239C18.9774 17.7849 17.7983 17.9057 16.8724 18.15L17.1276 19.1169ZM10.6076 19.6281C9.60249 19.0923 8.26829 18.451 7.12757 18.15L6.87243 19.1169C7.89462 19.3866 9.14338 19.9808 10.1372 20.5105L10.6076 19.6281ZM7.12757 18.15C6.20171 17.9057 5.0226 17.7849 4.04607 17.7239L3.98365 18.7219C4.94596 18.7821 6.04487 18.8985 6.87243 19.1169L7.12757 18.15ZM21.5 16.1436C21.5 16.9711 20.8191 17.6697 19.9539 17.7239L20.0164 18.7219C21.3688 18.6373 22.5 17.5381 22.5 16.1436H21.5ZM22.5 4.93325C22.5 3.60023 21.441 2.47016 20.0646 2.51811L20.0994 3.5175C20.8665 3.49078 21.5 4.12138 21.5 4.93325H22.5ZM1.5 16.1436C1.5 17.5381 2.6312 18.6373 3.98365 18.7219L4.04607 17.7239C3.18089 17.6697 2.5 16.9711 2.5 16.1436H1.5ZM13.3924 19.6281C12.5266 20.0896 11.4734 20.0896 10.6076 19.6281L10.1372 20.5105C11.297 21.1288 12.703 21.1288 13.8628 20.5105L13.3924 19.6281ZM13.4234 4.37006C12.5319 4.88601 11.422 4.91261 10.516 4.43351L10.0485 5.31753C11.2635 5.95999 12.7392 5.92145 13.9243 5.23556L13.4234 4.37006ZM2.5 4.99786C2.5 4.16702 3.16372 3.52558 3.95173 3.57401L4.01307 2.57589C2.60888 2.48959 1.5 3.63237 1.5 4.99786H2.5ZM11.5 5.50046V20.5005H12.5V5.50046H11.5Z" fill="#424242"/>
</svg>
