<svg width="24" height="24" viewBox="0 0 24 24" fill="none" xmlns="http://www.w3.org/2000/svg">
<path d="M14.5578 19.0458L14.2266 19.4204V19.4204L14.5578 19.0458ZM12.4397 17.5751L12.341 18.0652H12.341L12.4397 17.5751ZM9.44216 19.0458L9.77342 19.4204V19.4204L9.44216 19.0458ZM11.5603 17.5751L11.659 18.0652H11.659L11.5603 17.5751ZM3.73411 21.4123L3.39526 21.78L3.39526 21.78L3.73411 21.4123ZM4.99692 21.9915L5.05376 21.4948L5.05376 21.4948L4.99692 21.9915ZM20.2659 21.4123L20.6047 21.78V21.78L20.2659 21.4123ZM19.0031 21.9915L18.9462 21.4948L18.9462 21.4948L19.0031 21.9915ZM15 6.5C15.2761 6.5 15.5 6.27614 15.5 6C15.5 5.72386 15.2761 5.5 15 5.5V6.5ZM9 5.5C8.72386 5.5 8.5 5.72386 8.5 6C8.5 6.27614 8.72386 6.5 9 6.5V5.5ZM20.5 11.0975V16.0909H21.5V11.0975H20.5ZM3.5 16.0909V11.0975H2.5V16.0909H3.5ZM14.8891 18.6713C14.3866 18.2269 13.9844 17.8705 13.6328 17.6134C13.2747 17.3515 12.9323 17.1643 12.5385 17.0849L12.341 18.0652C12.5366 18.1046 12.7438 18.2021 13.0426 18.4206C13.3479 18.6439 13.71 18.9635 14.2266 19.4204L14.8891 18.6713ZM9.77342 19.4204C10.29 18.9635 10.6521 18.6439 10.9574 18.4206C11.2562 18.2021 11.4634 18.1046 11.659 18.0652L11.4615 17.0849C11.0677 17.1643 10.7253 17.3515 10.3672 17.6134C10.0156 17.8705 9.61341 18.2269 9.1109 18.6713L9.77342 19.4204ZM12.5385 17.0849C12.183 17.0133 11.817 17.0133 11.4615 17.0849L11.659 18.0652C11.8841 18.0199 12.1159 18.0199 12.341 18.0652L12.5385 17.0849ZM2.5 16.0909C2.5 17.6272 2.49931 18.8206 2.59459 19.7122C2.68845 20.5905 2.88533 21.31 3.39526 21.78L4.07295 21.0446C3.84877 20.838 3.6786 20.4451 3.58893 19.606C3.50069 18.7802 3.5 17.6512 3.5 16.0909H2.5ZM9.1109 18.6713C7.94906 19.6989 7.10848 20.4415 6.43616 20.9177C5.75278 21.4018 5.35137 21.5288 5.05376 21.4948L4.94007 22.4883C5.62957 22.5672 6.29807 22.241 7.01418 21.7337C7.74134 21.2186 8.62983 20.4318 9.77342 19.4204L9.1109 18.6713ZM3.39526 21.78C3.82291 22.1741 4.36346 22.4223 4.94007 22.4883L5.05376 21.4948C4.68884 21.453 4.34552 21.2958 4.07295 21.0446L3.39526 21.78ZM20.5 16.0909C20.5 17.6512 20.4993 18.7802 20.4111 19.606C20.3214 20.4451 20.1512 20.838 19.927 21.0446L20.6047 21.78C21.1147 21.31 21.3116 20.5905 21.4054 19.7122C21.5007 18.8206 21.5 17.6272 21.5 16.0909H20.5ZM14.2266 19.4204C15.3702 20.4318 16.2587 21.2186 16.9858 21.7337C17.7019 22.241 18.3704 22.5672 19.0599 22.4883L18.9462 21.4948C18.6486 21.5288 18.2472 21.4018 17.5638 20.9177C16.8915 20.4415 16.0509 19.6989 14.8891 18.6713L14.2266 19.4204ZM19.927 21.0446C19.6545 21.2958 19.3112 21.453 18.9462 21.4948L19.0599 22.4883C19.6365 22.4223 20.1771 22.1741 20.6047 21.78L19.927 21.0446ZM12 2.5C14.1356 2.5 15.6865 2.50108 16.8704 2.66198C18.0394 2.82085 18.7757 3.12713 19.3265 3.68394L20.0374 2.98066C19.2703 2.20517 18.2869 1.8453 17.0051 1.67109C15.7382 1.49892 14.107 1.5 12 1.5V2.5ZM21.5 11.0975C21.5 8.9672 21.501 7.31969 21.3309 6.04037C21.1589 4.74721 20.8039 3.7554 20.0374 2.98066L19.3265 3.68394C19.8781 4.24151 20.1821 4.98799 20.3396 6.17222C20.499 7.37027 20.5 8.93923 20.5 11.0975H21.5ZM12 1.5C9.89296 1.5 8.26185 1.49892 6.99494 1.67109C5.7131 1.8453 4.72974 2.20517 3.96257 2.98066L4.67347 3.68394C5.22432 3.12713 5.96063 2.82085 7.12961 2.66198C8.31353 2.50108 9.8644 2.5 12 2.5V1.5ZM3.5 11.0975C3.5 8.93922 3.50104 7.37027 3.66039 6.17221C3.8179 4.98799 4.12189 4.24151 4.67347 3.68394L3.96257 2.98066C3.19613 3.7554 2.84111 4.74721 2.66912 6.04037C2.49896 7.31969 2.5 8.9672 2.5 11.0975H3.5ZM15 5.5H9V6.5H15V5.5Z" fill="#424242"/>
</svg>
