<svg width="24" height="24" viewBox="0 0 24 24" fill="none" xmlns="http://www.w3.org/2000/svg">
<path d="M17.5777 4.43152L17.81 3.98878L17.81 3.98878L17.5777 4.43152ZM15.5777 3.38197L15.3454 3.82471L15.3454 3.82471L15.5777 3.38197ZM8.42229 3.38197L8.65463 3.82471V3.82471L8.42229 3.38197ZM6.42229 4.43152L6.18995 3.98878L6.42229 4.43152ZM17.5777 19.5685L17.81 20.0112H17.81L17.5777 19.5685ZM15.5777 20.618L15.3454 20.1753H15.3454L15.5777 20.618ZM8.42229 20.618L8.65463 20.1753H8.65463L8.42229 20.618ZM6.42229 19.5685L6.18995 20.0112V20.0112L6.42229 19.5685ZM2.5974 16.8603L2.16655 17.114H2.16655L2.5974 16.8603ZM21.4026 16.8603L21.8335 17.114V17.114L21.4026 16.8603ZM2.5974 7.13974L3.02825 7.39345H3.02825L2.5974 7.13974ZM21.4026 7.13974L20.9718 7.39345V7.39345L21.4026 7.13974ZM21.2236 7.94721C21.4706 7.82372 21.5707 7.52338 21.4472 7.27639C21.3237 7.0294 21.0234 6.92929 20.7764 7.05279L21.2236 7.94721ZM3.22361 7.05279C2.97662 6.92929 2.67628 7.0294 2.55279 7.27639C2.42929 7.52338 2.5294 7.82372 2.77639 7.94721L3.22361 7.05279ZM11.5 21.5C11.5 21.7761 11.7239 22 12 22C12.2761 22 12.5 21.7761 12.5 21.5H11.5ZM17.5777 4.43152L17.81 3.98878L15.8101 2.93923L15.5777 3.38197L15.3454 3.82471L17.3454 4.87426L17.5777 4.43152ZM8.42229 3.38197L8.18995 2.93923L6.18995 3.98878L6.42229 4.43152L6.65463 4.87426L8.65463 3.82471L8.42229 3.38197ZM17.5777 19.5685L17.3454 19.1257L15.3454 20.1753L15.5777 20.618L15.8101 21.0608L17.81 20.0112L17.5777 19.5685ZM8.42229 20.618L8.65463 20.1753L6.65463 19.1257L6.42229 19.5685L6.18995 20.0112L8.18995 21.0608L8.42229 20.618ZM22 11.9415H21.5V12.0585H22H22.5V11.9415H22ZM2 11.9415H1.5V12.0585H2H2.5V11.9415H2ZM6.42229 19.5685L6.65463 19.1257C5.56956 18.5563 4.79022 18.1466 4.20468 17.7556C3.62965 17.3716 3.27595 17.0272 3.02825 16.6066L2.5974 16.8603L2.16655 17.114C2.51624 17.7078 2.99916 18.153 3.64931 18.5872C4.28895 19.0144 5.12336 19.4515 6.18995 20.0112L6.42229 19.5685ZM2 12.0585H1.5C1.5 13.3111 1.49944 14.2866 1.57708 15.0748C1.65575 15.8734 1.81769 16.5215 2.16655 17.114L2.5974 16.8603L3.02825 16.6066C2.77971 16.1845 2.64294 15.6942 2.57227 14.9767C2.50056 14.2488 2.5 13.3307 2.5 12.0585H2ZM15.5777 20.618L15.3454 20.1753C14.4596 20.6401 13.8245 20.9729 13.2935 21.1925C12.7717 21.4083 12.3837 21.5 12 21.5V22V22.5C12.5605 22.5 13.0836 22.3614 13.6757 22.1166C14.2586 21.8755 14.9402 21.5173 15.8101 21.0608L15.5777 20.618ZM8.42229 20.618L8.18995 21.0608C9.05983 21.5173 9.74144 21.8755 10.3243 22.1166C10.9164 22.3614 11.4395 22.5 12 22.5V22V21.5C11.6163 21.5 11.2283 21.4083 10.7065 21.1925C10.1755 20.9729 9.54038 20.6401 8.65463 20.1753L8.42229 20.618ZM17.5777 19.5685L17.81 20.0112C18.8766 19.4515 19.711 19.0143 20.3507 18.5872C21.0008 18.153 21.4838 17.7078 21.8335 17.114L21.4026 16.8603L20.9718 16.6066C20.7241 17.0272 20.3704 17.3716 19.7953 17.7556C19.2098 18.1466 18.4304 18.5563 17.3454 19.1257L17.5777 19.5685ZM22 12.0585H21.5C21.5 13.3307 21.4994 14.2488 21.4277 14.9767C21.3571 15.6942 21.2203 16.1845 20.9718 16.6066L21.4026 16.8603L21.8335 17.114C22.1823 16.5215 22.3442 15.8734 22.4229 15.0748C22.5006 14.2866 22.5 13.3111 22.5 12.0585H22ZM15.5777 3.38197L15.8101 2.93923C14.9402 2.48274 14.2586 2.1245 13.6757 1.88345C13.0836 1.63858 12.5605 1.5 12 1.5V2V2.5C12.3837 2.5 12.7717 2.59175 13.2935 2.80754C13.8245 3.02714 14.4596 3.35989 15.3454 3.82471L15.5777 3.38197ZM8.42229 3.38197L8.65463 3.82471C9.54038 3.35989 10.1755 3.02714 10.7065 2.80754C11.2283 2.59175 11.6163 2.5 12 2.5V2V1.5C11.4395 1.5 10.9164 1.63858 10.3243 1.88344C9.74144 2.1245 9.05983 2.48274 8.18995 2.93923L8.42229 3.38197ZM6.42229 4.43152L6.18995 3.98878C5.12336 4.5485 4.28895 4.98565 3.64931 5.41281C2.99916 5.847 2.51624 6.29217 2.16655 6.88603L2.5974 7.13974L3.02825 7.39345C3.27595 6.9728 3.62965 6.62844 4.20468 6.24442C4.79022 5.85339 5.56956 5.44368 6.65463 4.87426L6.42229 4.43152ZM2 11.9415H2.5C2.5 10.6693 2.50056 9.75116 2.57227 9.02327C2.64294 8.30582 2.77971 7.81552 3.02825 7.39345L2.5974 7.13974L2.16655 6.88603C1.81769 7.47847 1.65575 8.12664 1.57708 8.92523C1.49944 9.71339 1.5 10.6889 1.5 11.9415H2ZM17.5777 4.43152L17.3454 4.87426C18.4304 5.44368 19.2098 5.85339 19.7953 6.24442C20.3704 6.62844 20.7241 6.9728 20.9718 7.39345L21.4026 7.13974L21.8335 6.88603C21.4838 6.29217 21.0008 5.847 20.3507 5.41281C19.711 4.98565 18.8766 4.5485 17.81 3.98878L17.5777 4.43152ZM22 11.9415H22.5C22.5 10.6889 22.5006 9.71339 22.4229 8.92523C22.3442 8.12664 22.1823 7.47847 21.8335 6.88603L21.4026 7.13974L20.9718 7.39345C21.2203 7.81552 21.3571 8.30582 21.4277 9.02327C21.4994 9.75116 21.5 10.6693 21.5 11.9415H22ZM21 7.5L20.7764 7.05279L11.7764 11.5528L12 12L12.2236 12.4472L21.2236 7.94721L21 7.5ZM12 12L12.2236 11.5528L3.22361 7.05279L3 7.5L2.77639 7.94721L11.7764 12.4472L12 12ZM12 12H11.5V21.5H12H12.5V12H12Z" fill="#424242"/>
</svg>
