<svg width="24" height="24" viewBox="0 0 24 24" fill="none" xmlns="http://www.w3.org/2000/svg">
<path d="M15.4645 17C16.3885 17 17.1375 16.488 17.1375 15.857C17.1375 14.637 17.1515 13.134 18.2195 12.404C18.5465 12.181 18.5465 11.819 18.2195 11.596C17.1515 10.866 17.1375 9.36398 17.1375 8.14298C17.1375 7.51198 16.3885 6.99998 15.4645 6.99998M8.46447 17C7.54047 17 6.79147 16.488 6.79147 15.857C6.79147 14.637 6.77747 13.134 5.70947 12.404C5.38247 12.181 5.38247 11.819 5.70947 11.596C6.77747 10.866 6.79147 9.36398 6.79147 8.14298C6.79147 7.51198 7.54047 6.99998 8.46447 6.99998M10 15H9M15 15H14M12.5 15H11.5M12 22C7.28595 22 4.92893 22 3.46447 20.5355C2 19.0711 2 16.714 2 12C2 7.28595 2 4.92893 3.46447 3.46447C4.92893 2 7.28595 2 12 2C16.714 2 19.0711 2 20.5355 3.46447C22 4.92893 22 7.28595 22 12C22 16.714 22 19.0711 20.5355 20.5355C19.0711 22 16.714 22 12 22Z" stroke="#424242" stroke-linecap="round"/>
</svg>
