<svg width="24" height="24" viewBox="0 0 24 24" fill="none" xmlns="http://www.w3.org/2000/svg">
<path d="M22.5 14C22.5 13.7239 22.2761 13.5 22 13.5C21.7239 13.5 21.5 13.7239 21.5 14H22.5ZM20.8284 20.8284L20.4749 20.4749V20.4749L20.8284 20.8284ZM3.17157 20.8284L3.52513 20.4749H3.52513L3.17157 20.8284ZM2.5 14C2.5 13.7239 2.27614 13.5 2 13.5C1.72386 13.5 1.5 13.7239 1.5 14H2.5ZM1.5 16C1.5 16.2761 1.72386 16.5 2 16.5C2.27614 16.5 2.5 16.2761 2.5 16H1.5ZM20.8284 9.17157L20.4749 9.52513V9.52513L20.8284 9.17157ZM21.5 16C21.5 16.2761 21.7239 16.5 22 16.5C22.2761 16.5 22.5 16.2761 22.5 16H21.5ZM22 14H21.5C21.5 14.3493 21.5 14.6816 21.4991 14.9985L21.9991 15L22.4991 15.0015C22.5 14.6828 22.5 14.349 22.5 14H22ZM21.9991 15L21.4991 14.9985C21.4945 16.5624 21.4666 17.7123 21.316 18.5998C21.1679 19.4727 20.9087 20.041 20.4749 20.4749L20.8284 20.8284L21.182 21.182C21.8112 20.5527 22.1328 19.764 22.3019 18.7671C22.4686 17.7846 22.4945 16.5519 22.4991 15.0015L21.9991 15ZM12 22V22.5C13.8788 22.5 15.8181 22.5004 17.435 22.3514C18.244 22.2769 18.9909 22.1635 19.62 21.9872C20.2394 21.8136 20.7995 21.5645 21.182 21.182L20.8284 20.8284L20.4749 20.4749C20.2716 20.6782 19.9066 20.8683 19.3501 21.0243C18.8033 21.1775 18.1234 21.2838 17.3432 21.3557C15.7816 21.4996 13.8924 21.5 12 21.5V22ZM12 22V21.5C10.1076 21.5 8.21843 21.4996 6.65679 21.3557C5.87661 21.2838 5.19668 21.1775 4.64985 21.0243C4.09335 20.8683 3.72841 20.6782 3.52513 20.4749L3.17157 20.8284L2.81802 21.182C3.20052 21.5645 3.76062 21.8136 4.38003 21.9872C5.00911 22.1635 5.75596 22.2769 6.56503 22.3514C8.1819 22.5004 10.1212 22.5 12 22.5V22ZM2 14H1.5C1.5 14.349 1.5 14.6828 1.50093 15.0015L2.00093 15L2.50093 14.9985C2.5 14.6816 2.5 14.3493 2.5 14H2ZM2.00093 15L1.50093 15.0015C1.50547 16.5519 1.53136 17.7846 1.69805 18.7671C1.86722 19.764 2.18878 20.5527 2.81802 21.182L3.17157 20.8284L3.52513 20.4749C3.09127 20.041 2.83207 19.4727 2.68396 18.5998C2.53339 17.7123 2.5055 16.5624 2.50093 14.9985L2.00093 15ZM12 8V7.5C10.1212 7.5 8.1819 7.49956 6.56503 7.64856C5.75596 7.72311 5.00911 7.83653 4.38003 8.0128C3.76062 8.18637 3.20052 8.43551 2.81802 8.81802L3.17157 9.17157L3.52513 9.52513C3.72841 9.32184 4.09335 9.13165 4.64985 8.97571C5.19668 8.82248 5.87661 8.71623 6.65679 8.64434C8.21843 8.50043 10.1076 8.5 12 8.5V8ZM2 16H2.5C2.5 15.6507 2.5 15.3184 2.50093 15.0015L2.00093 15L1.50093 14.9985C1.5 15.3172 1.5 15.651 1.5 16H2ZM2.00093 15L2.50093 15.0015C2.5055 13.4376 2.53339 12.2877 2.68396 11.4002C2.83207 10.5273 3.09127 9.95898 3.52513 9.52513L3.17157 9.17157L2.81802 8.81802C2.18878 9.44725 1.86722 10.236 1.69805 11.2329C1.53136 12.2154 1.50547 13.4481 1.50093 14.9985L2.00093 15ZM12 8V8.5C13.8924 8.5 15.7816 8.50043 17.3432 8.64434C18.1234 8.71623 18.8033 8.82248 19.3501 8.97571C19.9066 9.13165 20.2716 9.32184 20.4749 9.52513L20.8284 9.17157L21.182 8.81802C20.7995 8.43551 20.2394 8.18637 19.62 8.0128C18.9909 7.83653 18.244 7.72311 17.435 7.64856C15.8181 7.49956 13.8788 7.5 12 7.5V8ZM22 16H22.5C22.5 15.651 22.5 15.3172 22.4991 14.9985L21.9991 15L21.4991 15.0015C21.5 15.3184 21.5 15.6507 21.5 16H22ZM21.9991 15L22.4991 14.9985C22.4945 13.4481 22.4686 12.2154 22.3019 11.2329C22.1328 10.236 21.8112 9.44725 21.182 8.81802L20.8284 9.17157L20.4749 9.52513C20.9087 9.95898 21.1679 10.5273 21.316 11.4002C21.4666 12.2877 21.4945 13.4376 21.4991 15.0015L21.9991 15ZM16 8V7.5H8V8V8.5H16V8ZM12 4V4.5C12.9569 4.5 13.6244 4.50106 14.1279 4.56876C14.6171 4.63453 14.8762 4.75483 15.0607 4.93934L15.4142 4.58579L15.7678 4.23223C15.3665 3.83096 14.8612 3.65836 14.2612 3.57768C13.6755 3.49894 12.9287 3.5 12 3.5V4ZM16 8H16.5C16.5 7.07133 16.5011 6.32452 16.4223 5.73883C16.3416 5.13876 16.169 4.63351 15.7678 4.23223L15.4142 4.58579L15.0607 4.93934C15.2452 5.12385 15.3655 5.3829 15.4312 5.87208C15.4989 6.37565 15.5 7.04306 15.5 8H16ZM12 4V3.5C11.0713 3.5 10.3245 3.49894 9.73883 3.57768C9.13876 3.65836 8.63351 3.83096 8.23223 4.23223L8.58579 4.58579L8.93934 4.93934C9.12385 4.75483 9.3829 4.63453 9.87208 4.56876C10.3756 4.50106 11.0431 4.5 12 4.5V4ZM8 8H8.5C8.5 7.04306 8.50106 6.37565 8.56876 5.87208C8.63453 5.3829 8.75483 5.12385 8.93934 4.93934L8.58579 4.58579L8.23223 4.23223C7.83096 4.63351 7.65836 5.13876 7.57768 5.73883C7.49894 6.32452 7.5 7.07133 7.5 8H8ZM8 8H7.5V22H8H8.5V8H8ZM16 8H15.5V22H16H16.5V8H16Z" fill="#424242"/>
</svg>
