<svg width="24" height="24" viewBox="0 0 24 24" fill="none" xmlns="http://www.w3.org/2000/svg">
<path d="M16 8.5C16 8.77614 16.2239 9 16.5 9C16.7761 9 17 8.77614 17 8.5H16ZM7 8.5C7 8.77614 7.22386 9 7.5 9C7.77614 9 8 8.77614 8 8.5H7ZM19 13.5C18.7239 13.5 18.5 13.7239 18.5 14C18.5 14.2761 18.7239 14.5 19 14.5V13.5ZM22 14.5C22.2761 14.5 22.5 14.2761 22.5 14C22.5 13.7239 22.2761 13.5 22 13.5V14.5ZM5 14.5C5.27614 14.5 5.5 14.2761 5.5 14C5.5 13.7239 5.27614 13.5 5 13.5V14.5ZM2 13.5C1.72386 13.5 1.5 13.7239 1.5 14C1.5 14.2761 1.72386 14.5 2 14.5V13.5ZM14.2428 3.07125C14.006 3.21333 13.9292 3.52046 14.0713 3.75725C14.2133 3.99404 14.5205 4.07082 14.7572 3.92875L14.2428 3.07125ZM17.2572 2.42875C17.494 2.28667 17.5708 1.97954 17.4287 1.74275C17.2867 1.50596 16.9795 1.42918 16.7428 1.57125L17.2572 2.42875ZM9.24275 3.92875C9.47954 4.07082 9.78667 3.99404 9.92875 3.75725C10.0708 3.52046 9.99404 3.21333 9.75725 3.07125L9.24275 3.92875ZM7.25725 1.57125C7.02046 1.42918 6.71333 1.50596 6.57125 1.74275C6.42918 1.97954 6.50596 2.28667 6.74275 2.42875L7.25725 1.57125ZM18.6857 18.736C18.4293 18.6334 18.1383 18.7581 18.0358 19.0145C17.9332 19.2709 18.0579 19.5619 18.3143 19.6644L18.6857 18.736ZM20.3143 20.4644C20.5707 20.567 20.8617 20.4423 20.9642 20.1859C21.0668 19.9295 20.9421 19.6385 20.6857 19.536L20.3143 20.4644ZM18.3143 8.33557C18.0579 8.43812 17.9332 8.72911 18.0358 8.9855C18.1383 9.24189 18.4293 9.3666 18.6857 9.26404L18.3143 8.33557ZM20.6857 8.46404C20.9421 8.36149 21.0668 8.0705 20.9642 7.81411C20.8617 7.55772 20.5707 7.43301 20.3143 7.53557L20.6857 8.46404ZM5.6857 19.6644C5.94209 19.5619 6.06679 19.2709 5.96424 19.0145C5.86168 18.7581 5.5707 18.6334 5.3143 18.736L5.6857 19.6644ZM3.3143 19.536C3.05791 19.6385 2.9332 19.9295 3.03576 20.1859C3.13832 20.4423 3.4293 20.567 3.6857 20.4644L3.3143 19.536ZM5.3143 9.26404C5.5707 9.3666 5.86168 9.24189 5.96424 8.9855C6.06679 8.72911 5.94209 8.43812 5.6857 8.33557L5.3143 9.26404ZM3.6857 7.53557C3.4293 7.43301 3.13832 7.55772 3.03576 7.81411C2.9332 8.0705 3.05791 8.36149 3.3143 8.46404L3.6857 7.53557ZM11.5 21.5C11.5 21.7761 11.7239 22 12 22C12.2761 22 12.5 21.7761 12.5 21.5H11.5ZM12.5 15C12.5 14.7239 12.2761 14.5 12 14.5C11.7239 14.5 11.5 14.7239 11.5 15H12.5ZM18.5 11.9375V15H19.5V11.9375H18.5ZM5.5 15V11.9375H4.5V15H5.5ZM8.9375 8.5H15.0625V7.5H8.9375V8.5ZM12 21.5C8.41015 21.5 5.5 18.5899 5.5 15H4.5C4.5 19.1421 7.85786 22.5 12 22.5V21.5ZM18.5 15C18.5 18.5899 15.5899 21.5 12 21.5V22.5C16.1421 22.5 19.5 19.1421 19.5 15H18.5ZM19.5 11.9375C19.5 9.48674 17.5133 7.5 15.0625 7.5V8.5C16.961 8.5 18.5 10.039 18.5 11.9375H19.5ZM5.5 11.9375C5.5 10.039 7.03902 8.5 8.9375 8.5V7.5C6.48674 7.5 4.5 9.48674 4.5 11.9375H5.5ZM17 8.5V7.5H16V8.5H17ZM7 7.5V8.5H8V7.5H7ZM12 2.5C9.23858 2.5 7 4.73858 7 7.5H8C8 5.29086 9.79086 3.5 12 3.5V2.5ZM17 7.5C17 4.73858 14.7614 2.5 12 2.5V3.5C14.2091 3.5 16 5.29086 16 7.5H17ZM19 14.5H22V13.5H19V14.5ZM5 13.5H2V14.5H5V13.5ZM14.7572 3.92875L17.2572 2.42875L16.7428 1.57125L14.2428 3.07125L14.7572 3.92875ZM9.75725 3.07125L7.25725 1.57125L6.74275 2.42875L9.24275 3.92875L9.75725 3.07125ZM18.3143 19.6644L20.3143 20.4644L20.6857 19.536L18.6857 18.736L18.3143 19.6644ZM18.6857 9.26404L20.6857 8.46404L20.3143 7.53557L18.3143 8.33557L18.6857 9.26404ZM5.3143 18.736L3.3143 19.536L3.6857 20.4644L5.6857 19.6644L5.3143 18.736ZM5.6857 8.33557L3.6857 7.53557L3.3143 8.46404L5.3143 9.26404L5.6857 8.33557ZM12.5 21.5V15H11.5V21.5H12.5Z" fill="#424242"/>
</svg>
