<svg width="24" height="24" viewBox="0 0 24 24" fill="none" xmlns="http://www.w3.org/2000/svg">
<path d="M9.3 11.5C9.02386 11.5 8.8 11.7239 8.8 12C8.8 12.2761 9.02386 12.5 9.3 12.5V11.5ZM21 12.5C21.2761 12.5 21.5 12.2761 21.5 12C21.5 11.7239 21.2761 11.5 21 11.5V12.5ZM3 11.5C2.72386 11.5 2.5 11.7239 2.5 12C2.5 12.2761 2.72386 12.5 3 12.5V11.5ZM3.9 12.5C4.17614 12.5 4.4 12.2761 4.4 12C4.4 11.7239 4.17614 11.5 3.9 11.5V12.5ZM3 5.5C2.72386 5.5 2.5 5.72386 2.5 6C2.5 6.27614 2.72386 6.5 3 6.5V5.5ZM3.9 6.5C4.17614 6.5 4.4 6.27614 4.4 6C4.4 5.72386 4.17614 5.5 3.9 5.5V6.5ZM3 17.5C2.72386 17.5 2.5 17.7239 2.5 18C2.5 18.2761 2.72386 18.5 3 18.5V17.5ZM3.9 18.5C4.17614 18.5 4.4 18.2761 4.4 18C4.4 17.7239 4.17614 17.5 3.9 17.5V18.5ZM9.3 5.5C9.02386 5.5 8.8 5.72386 8.8 6C8.8 6.27614 9.02386 6.5 9.3 6.5V5.5ZM21 6.5C21.2761 6.5 21.5 6.27614 21.5 6C21.5 5.72386 21.2761 5.5 21 5.5V6.5ZM9.3 17.5C9.02386 17.5 8.8 17.7239 8.8 18C8.8 18.2761 9.02386 18.5 9.3 18.5V17.5ZM21 18.5C21.2761 18.5 21.5 18.2761 21.5 18C21.5 17.7239 21.2761 17.5 21 17.5V18.5ZM9.3 12.5H21V11.5H9.3V12.5ZM3 12.5H3.9V11.5H3V12.5ZM3 6.5H3.9V5.5H3V6.5ZM3 18.5H3.9V17.5H3V18.5ZM9.3 6.5H21V5.5H9.3V6.5ZM9.3 18.5H21V17.5H9.3V18.5Z" fill="#424242"/>
</svg>
