<svg width="24" height="24" viewBox="0 0 24 24" fill="none" xmlns="http://www.w3.org/2000/svg">
<path d="M9.3 11.5C9.02386 11.5 8.8 11.7239 8.8 12C8.8 12.2761 9.02386 12.5 9.3 12.5V12V11.5ZM21 12.5C21.2761 12.5 21.5 12.2761 21.5 12C21.5 11.7239 21.2761 11.5 21 11.5V12V12.5ZM9.3 5.5C9.02386 5.5 8.8 5.72386 8.8 6C8.8 6.27614 9.02386 6.5 9.3 6.5V6V5.5ZM21 6.5C21.2761 6.5 21.5 6.27614 21.5 6C21.5 5.72386 21.2761 5.5 21 5.5V6V6.5ZM9.3 17.5C9.02386 17.5 8.8 17.7239 8.8 18C8.8 18.2761 9.02386 18.5 9.3 18.5V18V17.5ZM21 18.5C21.2761 18.5 21.5 18.2761 21.5 18C21.5 17.7239 21.2761 17.5 21 17.5V18V18.5ZM2.91032 4.42243C2.68428 4.58105 2.62963 4.89288 2.78825 5.11892C2.94688 5.34496 3.25871 5.39961 3.48474 5.24099L3.19753 4.83171L2.91032 4.42243ZM4.38272 4H4.88272C4.88272 3.81346 4.77887 3.64243 4.61336 3.55637C4.44785 3.47032 4.2482 3.48357 4.0955 3.59072L4.38272 4ZM3.88272 7.95062C3.88272 8.22676 4.10657 8.45062 4.38272 8.45062C4.65886 8.45062 4.88272 8.22676 4.88272 7.95062H4.38272H3.88272ZM2.5 11.2099C2.5 11.486 2.72386 11.7099 3 11.7099C3.27614 11.7099 3.5 11.486 3.5 11.2099H3H2.5ZM5.37037 11.2099L5.75 11.5353C5.82767 11.4447 5.87037 11.3292 5.87037 11.2099H5.37037ZM3 13.9753L2.62037 13.6499C2.4933 13.7982 2.46415 14.0068 2.54574 14.1842C2.62734 14.3616 2.80474 14.4753 3 14.4753V13.9753ZM5.37037 14.4753C5.64651 14.4753 5.87037 14.2515 5.87037 13.9753C5.87037 13.6992 5.64651 13.4753 5.37037 13.4753V13.9753V14.4753ZM2.5 17.037C2.5 17.3132 2.72386 17.537 3 17.537C3.27614 17.537 3.5 17.3132 3.5 17.037H3H2.5ZM4.18519 17.5247C3.90904 17.5247 3.68519 17.7485 3.68519 18.0247C3.68519 18.3008 3.90904 18.5247 4.18519 18.5247V18.0247V17.5247ZM3.5 19.0123C3.5 18.7362 3.27614 18.5123 3 18.5123C2.72386 18.5123 2.5 18.7362 2.5 19.0123H3H3.5ZM9.3 12V12.5H21V12V11.5H9.3V12ZM9.3 6V6.5H21V6V5.5H9.3V6ZM9.3 18V18.5H21V18V17.5H9.3V18ZM3.19753 4.83171L3.48474 5.24099L4.66993 4.40928L4.38272 4L4.0955 3.59072L2.91032 4.42243L3.19753 4.83171ZM4.38272 4H3.88272V7.95062H4.38272H4.88272V4H4.38272ZM3 11.2099H3.5C3.5 10.8315 3.80677 10.5247 4.18519 10.5247V10.0247V9.52469C3.25448 9.52469 2.5 10.2792 2.5 11.2099H3ZM4.18519 10.0247V10.5247C4.5636 10.5247 4.87037 10.8315 4.87037 11.2099H5.37037H5.87037C5.87037 10.2792 5.11589 9.52469 4.18519 9.52469V10.0247ZM5.37037 11.2099L4.99074 10.8845L2.62037 13.6499L3 13.9753L3.37963 14.3007L5.75 11.5353L5.37037 11.2099ZM3 13.9753V14.4753H5.37037V13.9753V13.4753H3V13.9753ZM5.37037 17.037H5.87037C5.87037 16.1339 5.02666 15.5494 4.18519 15.5494V16.0494V16.5494C4.65283 16.5494 4.87037 16.8492 4.87037 17.037H5.37037ZM4.18519 16.0494V15.5494C3.34371 15.5494 2.5 16.1339 2.5 17.037H3H3.5C3.5 16.8492 3.71754 16.5494 4.18519 16.5494V16.0494ZM4.18519 18.0247V18.5247C5.02666 18.5247 5.87037 17.9401 5.87037 17.037H5.37037H4.87037C4.87037 17.2249 4.65283 17.5247 4.18519 17.5247V18.0247ZM5.37037 19.0123H4.87037C4.87037 19.2002 4.65283 19.5 4.18519 19.5V20V20.5C5.02666 20.5 5.87037 19.9154 5.87037 19.0123H5.37037ZM4.18519 20V19.5C3.71754 19.5 3.5 19.2002 3.5 19.0123H3H2.5C2.5 19.9154 3.34371 20.5 4.18519 20.5V20ZM4.18519 18.0247V18.5247C4.65283 18.5247 4.87037 18.8245 4.87037 19.0123H5.37037H5.87037C5.87037 18.1093 5.02666 17.5247 4.18519 17.5247V18.0247Z" fill="#424242"/>
</svg>
