<svg width="24" height="24" viewBox="0 0 24 24" fill="none" xmlns="http://www.w3.org/2000/svg">
<path d="M14.8993 17.0565V17.5565V17.5565V17.0565ZM14.8993 6V6.5V6ZM7.52826 6V5.5V6ZM7.52826 17.0565V16.5565V16.5565V17.0565ZM16.1808 18.6083V19.1083H16.1924L16.2041 19.1078L16.1808 18.6083ZM8.42181 18.1083C8.14567 18.1083 7.92181 18.3322 7.92181 18.6083C7.92181 18.8845 8.14567 19.1083 8.42181 19.1083V18.1083ZM22.5 12.7891C22.5 12.513 22.2761 12.2891 22 12.2891C21.7239 12.2891 21.5 12.513 21.5 12.7891H22.5ZM20.6 17.6L20.9536 17.9536V17.9536L20.6 17.6ZM7.52826 6.5L14.8993 6.5V5.5L7.52826 5.5V6.5ZM14.8993 16.5565H7.52826V17.5565H14.8993V16.5565ZM19.9275 11.5283C19.9275 12.8454 19.9265 13.783 19.8308 14.4946C19.7371 15.1919 19.5608 15.597 19.2644 15.8934L19.9715 16.6005C20.4847 16.0873 20.7132 15.436 20.8219 14.6279C20.9286 13.8341 20.9275 12.8172 20.9275 11.5283H19.9275ZM14.8993 17.5565C16.1882 17.5565 17.2051 17.5576 17.9989 17.4509C18.8071 17.3422 19.4583 17.1137 19.9715 16.6005L19.2644 15.8934C18.968 16.1898 18.5629 16.366 17.8657 16.4598C17.154 16.5555 16.2164 16.5565 14.8993 16.5565V17.5565ZM14.8993 6.5C16.2164 6.5 17.154 6.50106 17.8657 6.59674C18.5629 6.69049 18.968 6.86674 19.2644 7.16315L19.9715 6.45604C19.4583 5.94286 18.8071 5.71431 17.9989 5.60566C17.2051 5.49894 16.1882 5.5 14.8993 5.5V6.5ZM20.9275 11.5283C20.9275 10.2394 20.9286 9.22241 20.8219 8.42864C20.7132 7.62048 20.4847 6.96922 19.9715 6.45604L19.2644 7.16315C19.5608 7.45956 19.7371 7.86462 19.8308 8.56188C19.9265 9.27353 19.9275 10.2111 19.9275 11.5283H20.9275ZM2.5 11.5283C2.5 10.2111 2.50106 9.27353 2.59674 8.56188C2.69049 7.86462 2.86674 7.45956 3.16315 7.16315L2.45604 6.45604C1.94286 6.96922 1.71431 7.62048 1.60566 8.42864C1.49894 9.22241 1.5 10.2394 1.5 11.5283H2.5ZM7.52826 5.5C6.23937 5.5 5.22241 5.49894 4.42864 5.60566C3.62048 5.71431 2.96922 5.94286 2.45604 6.45604L3.16315 7.16315C3.45956 6.86674 3.86462 6.69049 4.56188 6.59674C5.27353 6.50106 6.2111 6.5 7.52826 6.5V5.5ZM1.5 11.5283C1.5 12.8172 1.49894 13.8341 1.60566 14.6279C1.71431 15.436 1.94286 16.0873 2.45604 16.6005L3.16315 15.8934C2.86674 15.597 2.69049 15.1919 2.59674 14.4946C2.50106 13.783 2.5 12.8454 2.5 11.5283H1.5ZM7.52826 16.5565C6.2111 16.5565 5.27353 16.5555 4.56188 16.4598C3.86462 16.366 3.45956 16.1898 3.16315 15.8934L2.45604 16.6005C2.96922 17.1137 3.62048 17.3422 4.42864 17.4509C5.22241 17.5576 6.23937 17.5565 7.52826 17.5565V16.5565ZM16.1808 18.1083H8.42181V19.1083H16.1808V18.1083ZM21.5 12.7891C21.5 15.463 20.968 16.5249 20.2464 17.2464L20.9536 17.9536C21.9364 16.9707 22.5 15.6016 22.5 12.7891H21.5ZM16.2041 19.1078C17.3256 19.0554 18.2358 19.0538 18.9626 18.9351C19.7333 18.8092 20.3613 18.5458 20.9536 17.9536L20.2464 17.2464C19.8304 17.6625 19.4084 17.8491 18.8014 17.9482C18.1505 18.0545 17.3552 18.0529 16.1574 18.1089L16.2041 19.1078ZM7.233 11.6306C7.233 11.9199 6.99851 12.1544 6.70925 12.1544V13.1544C7.55079 13.1544 8.233 12.4722 8.233 11.6306H7.233ZM6.70925 12.1544C6.41999 12.1544 6.1855 11.9199 6.1855 11.6306H5.1855C5.1855 12.4722 5.8677 13.1544 6.70925 13.1544V12.1544ZM6.1855 11.6306C6.1855 11.3414 6.41999 11.1069 6.70925 11.1069V10.1069C5.8677 10.1069 5.1855 10.7891 5.1855 11.6306H6.1855ZM6.70925 11.1069C6.99851 11.1069 7.233 11.3414 7.233 11.6306H8.233C8.233 10.7891 7.55079 10.1069 6.70925 10.1069V11.1069ZM11.7375 11.6306C11.7375 11.9199 11.503 12.1544 11.2138 12.1544V13.1544C12.0553 13.1544 12.7375 12.4722 12.7375 11.6306H11.7375ZM11.2138 12.1544C10.9245 12.1544 10.69 11.9199 10.69 11.6306H9.69001C9.69001 12.4722 10.3722 13.1544 11.2138 13.1544V12.1544ZM10.69 11.6306C10.69 11.3414 10.9245 11.1069 11.2138 11.1069V10.1069C10.3722 10.1069 9.69001 10.7891 9.69001 11.6306H10.69ZM11.2138 11.1069C11.503 11.1069 11.7375 11.3414 11.7375 11.6306H12.7375C12.7375 10.7891 12.0553 10.1069 11.2138 10.1069V11.1069ZM16.242 11.6306C16.242 11.9199 16.0075 12.1544 15.7183 12.1544V13.1544C16.5598 13.1544 17.242 12.4722 17.242 11.6306H16.242ZM15.7183 12.1544C15.429 12.1544 15.1945 11.9199 15.1945 11.6306H14.1945C14.1945 12.4722 14.8767 13.1544 15.7183 13.1544V12.1544ZM15.1945 11.6306C15.1945 11.3414 15.429 11.1069 15.7183 11.1069V10.1069C14.8767 10.1069 14.1945 10.7891 14.1945 11.6306H15.1945ZM15.7183 11.1069C16.0075 11.1069 16.242 11.3414 16.242 11.6306H17.242C17.242 10.7891 16.5598 10.1069 15.7183 10.1069V11.1069Z" fill="#424242"/>
</svg>
