<svg width="24" height="24" viewBox="0 0 24 24" fill="none" xmlns="http://www.w3.org/2000/svg">
<path d="M21.8478 20.7654L21.3858 20.574L21.8478 20.7654ZM21.8478 17.2346L21.3858 17.426L21.8478 17.2346ZM11.2884 2.56107L11.7114 2.82772V2.82772L11.2884 2.56107ZM10.2795 4.16159L10.7024 4.42824V4.42824L10.2795 4.16159ZM13.7205 4.16159L14.1435 3.89495V3.89495L13.7205 4.16159ZM12.7116 2.56107L13.1345 2.29443L13.1345 2.29443L12.7116 2.56107ZM13.4142 6.44937L13.0717 6.08505V6.08505L13.4142 6.44937ZM10.5858 6.44937L10.9283 6.08505V6.08505L10.5858 6.44937ZM11.5918 2.14169L11.2786 1.75199V1.75199L11.5918 2.14169ZM12.4082 2.14169L12.0949 2.53139V2.53139L12.4082 2.14169ZM12.5 7C12.5 6.72386 12.2761 6.5 12 6.5C11.7239 6.5 11.5 6.72386 11.5 7H12.5ZM5 16.5H19V15.5H5V16.5ZM19 21.5H5V22.5H19V21.5ZM5 21.5C4.52722 21.5 4.19767 21.4997 3.93972 21.4821C3.68627 21.4648 3.53867 21.4325 3.42597 21.3858L3.04329 22.3097C3.29814 22.4153 3.56728 22.459 3.87165 22.4798C4.17153 22.5003 4.5409 22.5 5 22.5V21.5ZM1.5 19C1.5 19.4591 1.49973 19.8285 1.52019 20.1283C1.54096 20.4327 1.58474 20.7019 1.6903 20.9567L2.61418 20.574C2.5675 20.4613 2.53516 20.3137 2.51787 20.0603C2.50027 19.8023 2.5 19.4728 2.5 19H1.5ZM3.42597 21.3858C3.05843 21.2336 2.76642 20.9416 2.61418 20.574L1.6903 20.9567C1.94404 21.5693 2.43072 22.056 3.04329 22.3097L3.42597 21.3858ZM21.5 19C21.5 19.4728 21.4997 19.8023 21.4821 20.0603C21.4648 20.3137 21.4325 20.4613 21.3858 20.574L22.3097 20.9567C22.4153 20.7019 22.459 20.4327 22.4798 20.1283C22.5003 19.8285 22.5 19.4591 22.5 19H21.5ZM19 22.5C19.4591 22.5 19.8285 22.5003 20.1283 22.4798C20.4327 22.459 20.7019 22.4153 20.9567 22.3097L20.574 21.3858C20.4613 21.4325 20.3137 21.4648 20.0603 21.4821C19.8023 21.4997 19.4728 21.5 19 21.5V22.5ZM21.3858 20.574C21.2336 20.9416 20.9416 21.2336 20.574 21.3858L20.9567 22.3097C21.5693 22.056 22.056 21.5693 22.3097 20.9567L21.3858 20.574ZM19 16.5C19.4728 16.5 19.8023 16.5003 20.0603 16.5179C20.3137 16.5352 20.4613 16.5675 20.574 16.6142L20.9567 15.6903C20.7019 15.5847 20.4327 15.541 20.1283 15.5202C19.8285 15.4997 19.4591 15.5 19 15.5V16.5ZM22.5 19C22.5 18.5409 22.5003 18.1715 22.4798 17.8717C22.459 17.5673 22.4153 17.2981 22.3097 17.0433L21.3858 17.426C21.4325 17.5387 21.4648 17.6863 21.4821 17.9397C21.4997 18.1977 21.5 18.5272 21.5 19H22.5ZM20.574 16.6142C20.9416 16.7664 21.2336 17.0584 21.3858 17.426L22.3097 17.0433C22.056 16.4307 21.5693 15.944 20.9567 15.6903L20.574 16.6142ZM5 15.5C4.5409 15.5 4.17153 15.4997 3.87165 15.5202C3.56728 15.541 3.29814 15.5847 3.04329 15.6903L3.42597 16.6142C3.53867 16.5675 3.68627 16.5352 3.93972 16.5179C4.19767 16.5003 4.52722 16.5 5 16.5V15.5ZM2.5 19C2.5 18.5272 2.50027 18.1977 2.51787 17.9397C2.53516 17.6863 2.5675 17.5387 2.61418 17.426L1.6903 17.0433C1.58474 17.2981 1.54096 17.5673 1.52019 17.8717C1.49973 18.1715 1.5 18.5409 1.5 19H2.5ZM3.04329 15.6903C2.43072 15.944 1.94404 16.4307 1.6903 17.0433L2.61418 17.426C2.76642 17.0584 3.05843 16.7664 3.42597 16.6142L3.04329 15.6903ZM9 10.5H15V9.5H9V10.5ZM18.5 14V16H19.5V14H18.5ZM5.5 16V14H4.5V16H5.5ZM15 10.5C15.9569 10.5 16.6244 10.5011 17.1279 10.5688C17.6171 10.6345 17.8762 10.7548 18.0607 10.9393L18.7678 10.2322C18.3665 9.83096 17.8612 9.65836 17.2612 9.57768C16.6755 9.49894 15.9287 9.5 15 9.5V10.5ZM19.5 14C19.5 13.0713 19.5011 12.3245 19.4223 11.7388C19.3416 11.1388 19.169 10.6335 18.7678 10.2322L18.0607 10.9393C18.2452 11.1238 18.3655 11.3829 18.4312 11.8721C18.4989 12.3756 18.5 13.0431 18.5 14H19.5ZM9 9.5C8.07133 9.5 7.32452 9.49894 6.73883 9.57768C6.13876 9.65836 5.63351 9.83096 5.23223 10.2322L5.93934 10.9393C6.12385 10.7548 6.3829 10.6345 6.87208 10.5688C7.37565 10.5011 8.04306 10.5 9 10.5V9.5ZM5.5 14C5.5 13.0431 5.50106 12.3756 5.56876 11.8721C5.63453 11.3829 5.75483 11.1238 5.93934 10.9393L5.23223 10.2322C4.83096 10.6335 4.65836 11.1388 4.57768 11.7388C4.49894 12.3245 4.5 13.0713 4.5 14H5.5ZM10.8655 2.29443L9.85649 3.89495L10.7024 4.42824L11.7114 2.82772L10.8655 2.29443ZM14.1435 3.89495L13.1345 2.29443L12.2886 2.82772L13.2976 4.42824L14.1435 3.89495ZM13.7566 6.81368C14.5732 6.04614 14.7398 4.8408 14.1435 3.89495L13.2976 4.42824C13.6329 4.96009 13.5473 5.63802 13.0717 6.08505L13.7566 6.81368ZM10.2434 6.81368C11.2169 7.72877 12.7831 7.72877 13.7566 6.81368L13.0717 6.08505C12.4832 6.63832 11.5168 6.63832 10.9283 6.08505L10.2434 6.81368ZM9.85649 3.89495C9.26022 4.8408 9.42684 6.04614 10.2434 6.81368L10.9283 6.08505C10.4527 5.63802 10.3671 4.96009 10.7024 4.42824L9.85649 3.89495ZM11.7114 2.82772C11.789 2.70469 11.8373 2.62834 11.8756 2.57379C11.9147 2.5182 11.921 2.51863 11.9051 2.53139L11.2786 1.75199C11.1836 1.82831 11.113 1.91983 11.0575 1.99873C11.0013 2.07869 10.9375 2.18025 10.8655 2.29443L11.7114 2.82772ZM13.1345 2.29443C13.0625 2.18025 12.9987 2.07869 12.9425 1.99873C12.887 1.91983 12.8164 1.82831 12.7214 1.75199L12.0949 2.53139C12.079 2.51862 12.0853 2.5182 12.1244 2.57379C12.1627 2.62834 12.211 2.70469 12.2886 2.82772L13.1345 2.29443ZM11.9051 2.53139C11.9571 2.48954 12.0429 2.48954 12.0949 2.53139L12.7214 1.75199C12.3035 1.416 11.6965 1.416 11.2786 1.75199L11.9051 2.53139ZM12.5 10V7H11.5V10H12.5Z" fill="#424242"/>
</svg>
