<svg width="24" height="24" viewBox="0 0 24 24" fill="none" xmlns="http://www.w3.org/2000/svg">
<path d="M18 8.99995C18.2761 8.99995 18.5 8.77609 18.5 8.49995C18.5 8.22381 18.2761 7.99995 18 7.99995V8.99995ZM14 7.99995C13.7239 7.99995 13.5 8.22381 13.5 8.49995C13.5 8.77609 13.7239 8.99995 14 8.99995V7.99995ZM18 15C18.2761 15 18.5 14.7761 18.5 14.5C18.5 14.2238 18.2761 14 18 14V15ZM14 14C13.7239 14 13.5 14.2238 13.5 14.5C13.5 14.7761 13.7239 15 14 15V14ZM18 18C18.2761 18 18.5 17.7761 18.5 17.5C18.5 17.2238 18.2761 17 18 17V18ZM14 17C13.7239 17 13.5 17.2238 13.5 17.5C13.5 17.7761 13.7239 18 14 18V17ZM10 8.99997C10.2761 8.99997 10.5 8.77611 10.5 8.49997C10.5 8.22383 10.2761 7.99997 10 7.99997V8.99997ZM6 7.99997C5.72386 7.99997 5.5 8.22383 5.5 8.49997C5.5 8.77611 5.72386 8.99997 6 8.99997L6 7.99997ZM8.5 6.49995C8.5 6.22381 8.27614 5.99995 8 5.99995C7.72386 5.99995 7.5 6.22381 7.5 6.49995H8.5ZM7.5 10.5C7.5 10.7761 7.72386 11 8 11C8.27614 11 8.5 10.7761 8.5 10.5H7.5ZM9.85355 14.8535C10.0488 14.6583 10.0488 14.3417 9.85355 14.1464C9.65829 13.9512 9.34171 13.9512 9.14645 14.1464L9.85355 14.8535ZM6.14646 17.1464C5.9512 17.3417 5.9512 17.6583 6.14646 17.8535C6.34172 18.0488 6.6583 18.0488 6.85357 17.8535L6.14646 17.1464ZM6.85355 14.1464C6.65829 13.9512 6.34171 13.9512 6.14645 14.1464C5.95118 14.3417 5.95118 14.6583 6.14645 14.8535L6.85355 14.1464ZM9.14643 17.8535C9.3417 18.0488 9.65828 18.0488 9.85354 17.8535C10.0488 17.6583 10.0488 17.3417 9.85354 17.1464L9.14643 17.8535ZM12 21.5C9.62884 21.5 7.90077 21.4989 6.58026 21.3214C5.27414 21.1458 4.44187 20.8058 3.81802 20.182L3.11091 20.8891C3.95153 21.7297 5.03 22.122 6.44702 22.3125C7.84965 22.5011 9.65711 22.5 12 22.5V21.5ZM1.5 12C1.5 14.3429 1.49894 16.1504 1.68752 17.553C1.87803 18.97 2.2703 20.0485 3.11091 20.8891L3.81802 20.182C3.19417 19.5581 2.8542 18.7259 2.6786 17.4197C2.50106 16.0992 2.5 14.3712 2.5 12H1.5ZM21.5 12C21.5 14.3712 21.4989 16.0992 21.3214 17.4197C21.1458 18.7259 20.8058 19.5581 20.182 20.182L20.8891 20.8891C21.7297 20.0485 22.122 18.97 22.3125 17.553C22.5011 16.1504 22.5 14.3429 22.5 12H21.5ZM12 22.5C14.3429 22.5 16.1504 22.5011 17.553 22.3125C18.97 22.122 20.0485 21.7297 20.8891 20.8891L20.182 20.182C19.5581 20.8058 18.7259 21.1458 17.4197 21.3214C16.0992 21.4989 14.3712 21.5 12 21.5V22.5ZM12 2.5C14.3712 2.5 16.0992 2.50106 17.4197 2.6786C18.7259 2.8542 19.5581 3.19417 20.182 3.81802L20.8891 3.11091C20.0485 2.2703 18.97 1.87803 17.553 1.68752C16.1504 1.49894 14.3429 1.5 12 1.5V2.5ZM22.5 12C22.5 9.65711 22.5011 7.84965 22.3125 6.44702C22.122 5.03 21.7297 3.95153 20.8891 3.11091L20.182 3.81802C20.8058 4.44187 21.1458 5.27414 21.3214 6.58026C21.4989 7.90077 21.5 9.62884 21.5 12H22.5ZM12 1.5C9.65711 1.5 7.84965 1.49894 6.44702 1.68752C5.03 1.87803 3.95153 2.2703 3.11091 3.11091L3.81802 3.81802C4.44187 3.19417 5.27414 2.8542 6.58026 2.6786C7.90077 2.50106 9.62884 2.5 12 2.5V1.5ZM2.5 12C2.5 9.62884 2.50106 7.90077 2.6786 6.58026C2.8542 5.27414 3.19417 4.44187 3.81802 3.81802L3.11091 3.11091C2.2703 3.95153 1.87803 5.03 1.68752 6.44702C1.49894 7.84965 1.5 9.65711 1.5 12H2.5ZM18 7.99995H14V8.99995H18V7.99995ZM18 14H14V15H18V14ZM18 17H14V18H18V17ZM10 7.99997H8V8.99997H10V7.99997ZM8 7.99997L6 7.99997L6 8.99997L8 8.99997V7.99997ZM7.5 6.49995L7.5 8.49997H8.5L8.5 6.49995H7.5ZM7.5 8.49997V10.5H8.5V8.49997H7.5ZM9.14645 14.1464L7.64645 15.6464L8.35356 16.3535L9.85355 14.8535L9.14645 14.1464ZM7.64645 15.6464L6.14646 17.1464L6.85357 17.8535L8.35356 16.3535L7.64645 15.6464ZM6.14645 14.8535L7.64645 16.3535L8.35356 15.6464L6.85355 14.1464L6.14645 14.8535ZM7.64645 16.3535L9.14643 17.8535L9.85354 17.1464L8.35356 15.6464L7.64645 16.3535Z" fill="#424242"/>
</svg>
