<svg width="24" height="24" viewBox="0 0 24 24" fill="none" xmlns="http://www.w3.org/2000/svg">
<path d="M6.5 3.53846C6.5 3.8146 6.72386 4.03846 7 4.03846C7.27614 4.03846 7.5 3.8146 7.5 3.53846H6.5ZM7.5 2C7.5 1.72386 7.27614 1.5 7 1.5C6.72386 1.5 6.5 1.72386 6.5 2H7.5ZM16.5 3.53846C16.5 3.8146 16.7239 4.03846 17 4.03846C17.2761 4.03846 17.5 3.8146 17.5 3.53846H16.5ZM17.5 2C17.5 1.72386 17.2761 1.5 17 1.5C16.7239 1.5 16.5 1.72386 16.5 2H17.5ZM2.5 8.16667C2.22386 8.16667 2 8.39052 2 8.66667C2 8.94281 2.22386 9.16667 2.5 9.16667V8.16667ZM21.5 9.16667C21.7761 9.16667 22 8.94281 22 8.66667C22 8.39052 21.7761 8.16667 21.5 8.16667V9.16667ZM10 4.03846H14V3.03846H10V4.03846ZM21.5 11.7436V13.7949H22.5V11.7436H21.5ZM14 21.5H10V22.5H14V21.5ZM2.5 13.7949V11.7436H1.5V13.7949H2.5ZM10 21.5C8.09989 21.5 6.72639 21.4989 5.67921 21.3545C4.64775 21.2123 4.00753 20.9395 3.52957 20.4493L2.81357 21.1474C3.50719 21.8588 4.39557 22.1869 5.54261 22.3451C6.67395 22.5011 8.12887 22.5 10 22.5V21.5ZM1.5 13.7949C1.5 15.715 1.49899 17.2042 1.65069 18.3615C1.8041 19.5318 2.12167 20.4378 2.81357 21.1474L3.52957 20.4493C3.0499 19.9574 2.78168 19.2955 2.64221 18.2315C2.50101 17.1544 2.5 15.7426 2.5 13.7949H1.5ZM21.5 13.7949C21.5 15.7426 21.499 17.1544 21.3578 18.2315C21.2183 19.2955 20.9501 19.9574 20.4704 20.4493L21.1864 21.1474C21.8783 20.4378 22.1959 19.5318 22.3493 18.3615C22.501 17.2042 22.5 15.715 22.5 13.7949H21.5ZM14 22.5C15.8711 22.5 17.326 22.5011 18.4574 22.3451C19.6044 22.1869 20.4928 21.8588 21.1864 21.1474L20.4704 20.4493C19.9925 20.9395 19.3523 21.2123 18.3208 21.3545C17.2736 21.4989 15.9001 21.5 14 21.5V22.5ZM14 4.03846C15.9001 4.03846 17.2736 4.03958 18.3208 4.18398C19.3523 4.32621 19.9925 4.59892 20.4704 5.08912L21.1864 4.39102C20.4928 3.67962 19.6044 3.35152 18.4574 3.19335C17.326 3.03735 15.8711 3.03846 14 3.03846V4.03846ZM22.5 11.7436C22.5 9.82341 22.501 8.33422 22.3493 7.17698C22.1959 6.00662 21.8783 5.10066 21.1864 4.39102L20.4704 5.08912C20.9501 5.5811 21.2183 6.24294 21.3578 7.30695C21.499 8.38407 21.5 9.79583 21.5 11.7436H22.5ZM10 3.03846C8.12887 3.03846 6.67395 3.03735 5.54261 3.19335C4.39557 3.35152 3.50719 3.67962 2.81357 4.39102L3.52957 5.08912C4.00753 4.59892 4.64775 4.32621 5.67921 4.18398C6.72639 4.03958 8.09989 4.03846 10 4.03846V3.03846ZM2.5 11.7436C2.5 9.79583 2.50101 8.38407 2.64221 7.30695C2.78168 6.24294 3.0499 5.5811 3.52957 5.08912L2.81357 4.39102C2.12167 5.10066 1.8041 6.00662 1.65069 7.17698C1.49899 8.33422 1.5 9.82341 1.5 11.7436H2.5ZM7.5 3.53846V2H6.5V3.53846H7.5ZM17.5 3.53846V2H16.5V3.53846H17.5ZM17.5 16.359C17.5 16.9445 17.0404 17.3974 16.5 17.3974V18.3974C17.6164 18.3974 18.5 17.4728 18.5 16.359H17.5ZM16.5 17.3974C15.9596 17.3974 15.5 16.9445 15.5 16.359H14.5C14.5 17.4728 15.3836 18.3974 16.5 18.3974V17.3974ZM15.5 16.359C15.5 15.7734 15.9596 15.3205 16.5 15.3205V14.3205C15.3836 14.3205 14.5 15.2452 14.5 16.359H15.5ZM16.5 15.3205C17.0404 15.3205 17.5 15.7734 17.5 16.359H18.5C18.5 15.2452 17.6164 14.3205 16.5 14.3205V15.3205ZM2.5 9.16667H21.5V8.16667H2.5V9.16667Z" fill="#424242"/>
</svg>
