<svg width="24" height="24" viewBox="0 0 24 24" fill="none" xmlns="http://www.w3.org/2000/svg">
<path d="M19.8417 4.52384L20.1997 4.17479V4.17479L19.8417 4.52384ZM3.57907 4.52384L3.22107 4.17479V4.17479L3.57907 4.52384ZM17.7491 16.5421C17.5539 16.3468 17.2373 16.3468 17.042 16.5421C16.8468 16.7374 16.8468 17.0539 17.042 17.2492L17.7491 16.5421ZM19.0198 19.227C19.2151 19.4223 19.5316 19.4223 19.7269 19.227C19.9222 19.0317 19.9222 18.7151 19.7269 18.5199L19.0198 19.227ZM15.0642 19.227C15.2595 19.4223 15.5761 19.4223 15.7714 19.227C15.9666 19.0318 15.9666 18.7152 15.7714 18.5199L15.0642 19.227ZM15.0882 18.5439L14.7346 18.8974H14.7346L15.0882 18.5439ZM19.0437 14.5883L19.3973 14.2347V14.2347L19.0437 14.5883ZM19.0198 15.2715C19.2151 15.4667 19.5317 15.4667 19.7269 15.2715C19.9222 15.0762 19.9222 14.7596 19.7269 14.5644L19.0198 15.2715ZM21.7047 16.5422C21.5094 16.3469 21.1929 16.3469 20.9976 16.5422C20.8023 16.7374 20.8023 17.054 20.9976 17.2493L21.7047 16.5422ZM17.7491 20.4977C17.5539 20.3025 17.2373 20.3025 17.042 20.4977C16.8468 20.693 16.8468 21.0096 17.042 21.2048L17.7491 20.4977ZM9.86832 3.91711H13.5525V2.91711H9.86832V3.91711ZM20.4208 10.9744V12.8637H21.4208V10.9744H20.4208ZM13.5525 19.9209H9.86832V20.9209H13.5525V19.9209ZM3 12.8637V10.9744H2V12.8637H3ZM9.86832 19.9209C8.11711 19.9209 6.85526 19.9198 5.8941 19.7873C4.94864 19.6569 4.36877 19.4079 3.93707 18.9651L3.22107 19.6632C3.86843 20.3272 4.69646 20.6316 5.7575 20.7779C6.80283 20.922 8.14608 20.9209 9.86832 20.9209V19.9209ZM2 12.8637C2 14.6311 1.99899 16.0058 2.13912 17.0748C2.28098 18.157 2.57542 19.001 3.22107 19.6632L3.93707 18.9651C3.50365 18.5206 3.25855 17.9207 3.13064 16.9449C3.00101 15.956 3 14.6587 3 12.8637H2ZM13.5525 3.91711C15.3037 3.91711 16.5655 3.91822 17.5267 4.05076C18.4722 4.18113 19.052 4.43012 19.4837 4.87289L20.1997 4.17479C19.5524 3.51083 18.7244 3.20645 17.6633 3.06014C16.618 2.91599 15.2747 2.91711 13.5525 2.91711V3.91711ZM21.4208 10.9744C21.4208 9.20689 21.4218 7.83223 21.2817 6.76319C21.1398 5.68105 20.8454 4.83699 20.1997 4.17479L19.4837 4.87289C19.9172 5.31743 20.1623 5.91737 20.2902 6.89317C20.4198 7.88208 20.4208 9.17931 20.4208 10.9744H21.4208ZM9.86832 2.91711C8.14608 2.91711 6.80283 2.91599 5.7575 3.06014C4.69646 3.20645 3.86843 3.51083 3.22107 4.17479L3.93707 4.87289C4.36877 4.43012 4.94864 4.18113 5.8941 4.05076C6.85526 3.91822 8.11711 3.91711 9.86832 3.91711V2.91711ZM3 10.9744C3 9.17931 3.00101 7.88208 3.13064 6.89317C3.25855 5.91737 3.50365 5.31743 3.93707 4.87289L3.22107 4.17479C2.57542 4.83699 2.28098 5.68105 2.13912 6.76319C1.99899 7.83223 2 9.20689 2 10.9744H3ZM7.6052 3.41711V2.00012H6.6052V3.41711H7.6052ZM16.8156 3.41711V2.00012H15.8156V3.41711H16.8156ZM2.96052 8.64039H20.4603V7.64039H2.96052V8.64039ZM17.042 17.2492L19.0198 19.227L19.7269 18.5199L17.7491 16.5421L17.042 17.2492ZM15.7714 18.5199L15.4417 18.1903L14.7346 18.8974L15.0642 19.227L15.7714 18.5199ZM18.6902 14.9418L19.0198 15.2715L19.7269 14.5644L19.3973 14.2347L18.6902 14.9418ZM14.7346 14.2347C13.4471 15.5223 13.4471 17.6098 14.7346 18.8974L15.4417 18.1903C14.5447 17.2933 14.5447 15.8389 15.4417 14.9418L14.7346 14.2347ZM15.4417 14.9418C16.3388 14.0448 17.7931 14.0448 18.6902 14.9418L19.3973 14.2347C18.1097 12.9472 16.0222 12.9472 14.7346 14.2347L15.4417 14.9418ZM20.9976 17.2493L21.3272 17.5789L22.0343 16.8718L21.7047 16.5422L20.9976 17.2493ZM18.0788 20.8273L17.7491 20.4977L17.042 21.2048L17.3717 21.5345L18.0788 20.8273ZM21.3272 20.8273C20.4302 21.7244 18.9758 21.7244 18.0788 20.8273L17.3717 21.5345C18.6592 22.822 20.7468 22.822 22.0343 21.5345L21.3272 20.8273ZM22.0343 21.5345C23.3219 20.2469 23.3219 18.1593 22.0343 16.8718L21.3272 17.5789C22.2243 18.4759 22.2243 19.9303 21.3272 20.8273L22.0343 21.5345Z" fill="#424242"/>
</svg>
