<svg width="24" height="24" viewBox="0 0 24 24" fill="none" xmlns="http://www.w3.org/2000/svg">
<path d="M21.5 13.7949C21.5 14.071 21.7239 14.2949 22 14.2949C22.2761 14.2949 22.5 14.071 22.5 13.7949H21.5ZM14 22.5C14.2761 22.5 14.5 22.2761 14.5 22C14.5 21.7239 14.2761 21.5 14 21.5V22.5ZM3.17157 20.7984L3.52957 20.4493H3.52957L3.17157 20.7984ZM6.5 3.53846C6.5 3.8146 6.72386 4.03846 7 4.03846C7.27614 4.03846 7.5 3.8146 7.5 3.53846H6.5ZM7.5 2C7.5 1.72386 7.27614 1.5 7 1.5C6.72386 1.5 6.5 1.72386 6.5 2H7.5ZM16.5 3.53846C16.5 3.8146 16.7239 4.03846 17 4.03846C17.2761 4.03846 17.5 3.8146 17.5 3.53846H16.5ZM17.5 2C17.5 1.72386 17.2761 1.5 17 1.5C16.7239 1.5 16.5 1.72386 16.5 2H17.5ZM2.5 8.16667C2.22386 8.16667 2 8.39052 2 8.66667C2 8.94281 2.22386 9.16667 2.5 9.16667V8.16667ZM21.5 9.16667C21.7761 9.16667 22 8.94281 22 8.66667C22 8.39052 21.7761 8.16667 21.5 8.16667V9.16667ZM14 18C13.7239 18 13.5 18.2239 13.5 18.5C13.5 18.7761 13.7239 19 14 19V18ZM22 18.5L22.3904 18.8123C22.5365 18.6297 22.5365 18.3703 22.3904 18.1877L22 18.5ZM20.3904 15.6877C20.2179 15.472 19.9033 15.4371 19.6877 15.6096C19.472 15.7821 19.4371 16.0967 19.6096 16.3123L20.3904 15.6877ZM19.6096 20.6877C19.4371 20.9033 19.472 21.2179 19.6877 21.3904C19.9033 21.5629 20.2179 21.528 20.3904 21.3123L19.6096 20.6877ZM10 4.03846H14V3.03846H10V4.03846ZM21.5 11.7436V13.7949H22.5V11.7436H21.5ZM14 21.5H10V22.5H14V21.5ZM2.5 13.7949V11.7436H1.5V13.7949H2.5ZM10 21.5C8.09989 21.5 6.72639 21.4989 5.67921 21.3545C4.64775 21.2123 4.00753 20.9395 3.52957 20.4493L2.81357 21.1474C3.50719 21.8588 4.39557 22.1869 5.54261 22.3451C6.67395 22.5011 8.12887 22.5 10 22.5V21.5ZM1.5 13.7949C1.5 15.715 1.49899 17.2042 1.65069 18.3615C1.8041 19.5318 2.12167 20.4378 2.81357 21.1474L3.52957 20.4493C3.0499 19.9574 2.78168 19.2955 2.64221 18.2315C2.50101 17.1544 2.5 15.7426 2.5 13.7949H1.5ZM14 4.03846C15.9001 4.03846 17.2736 4.03958 18.3208 4.18398C19.3522 4.32621 19.9925 4.59892 20.4704 5.08912L21.1864 4.39102C20.4928 3.67962 19.6044 3.35152 18.4574 3.19335C17.326 3.03735 15.8711 3.03846 14 3.03846V4.03846ZM22.5 11.7436C22.5 9.82341 22.501 8.33422 22.3493 7.17697C22.1959 6.00661 21.8783 5.10066 21.1864 4.39102L20.4704 5.08912C20.9501 5.5811 21.2183 6.24294 21.3578 7.30695C21.499 8.38407 21.5 9.79583 21.5 11.7436H22.5ZM10 3.03846C8.12887 3.03846 6.67395 3.03735 5.54261 3.19335C4.39557 3.35152 3.50719 3.67962 2.81357 4.39102L3.52957 5.08912C4.00753 4.59892 4.64775 4.32621 5.67921 4.18398C6.72639 4.03958 8.09989 4.03846 10 4.03846V3.03846ZM2.5 11.7436C2.5 9.79583 2.50101 8.38407 2.64221 7.30695C2.78168 6.24294 3.0499 5.5811 3.52957 5.08912L2.81357 4.39102C2.12167 5.10066 1.8041 6.00661 1.65069 7.17698C1.49899 8.33422 1.5 9.82341 1.5 11.7436H2.5ZM7.5 3.53846V2H6.5V3.53846H7.5ZM17.5 3.53846V2H16.5V3.53846H17.5ZM2.5 9.16667H21.5V8.16667H2.5V9.16667ZM14 19C17.1242 19 18.8758 19 22 19V18C18.8758 18 17.1242 18 14 18V19ZM19.6096 16.3123L21.6096 18.8123L22.3904 18.1877L20.3904 15.6877L19.6096 16.3123ZM21.6096 18.1877L19.6096 20.6877L20.3904 21.3123L22.3904 18.8123L21.6096 18.1877Z" fill="#424242"/>
</svg>
