<svg width="24" height="24" viewBox="0 0 24 24" fill="none" xmlns="http://www.w3.org/2000/svg">
<path d="M12.2908 10.9133L12.7738 11.0426V11.0426L12.2908 10.9133ZM12.5886 9.80031L12.1055 9.67107V9.67107L12.5886 9.80031ZM14.1997 11.4114L14.3289 11.8945H14.3289L14.1997 11.4114ZM13.0867 11.7092L12.9574 11.2262V11.2262L13.0867 11.7092ZM12.5217 9.22624L12.9693 9.00332V9.00332L12.5217 9.22624ZM14.7738 11.4783L14.5508 11.9258V11.9258L14.7738 11.4783ZM16.5 9C16.5 9.27614 16.7239 9.5 17 9.5C17.2761 9.5 17.5 9.27614 17.5 9H16.5ZM17.5 5C17.5 4.72386 17.2761 4.5 17 4.5C16.7239 4.5 16.5 4.72386 16.5 5H17.5ZM19 7.5C19.2761 7.5 19.5 7.27614 19.5 7C19.5 6.72386 19.2761 6.5 19 6.5V7.5ZM15 6.5C14.7239 6.5 14.5 6.72386 14.5 7C14.5 7.27614 14.7239 7.5 15 7.5V6.5ZM14.1007 16.0272L14.4632 16.3715L14.4632 16.3715L14.1007 16.0272ZM14.5562 15.5477L14.1936 15.2034L14.1936 15.2034L14.5562 15.5477ZM16.9728 15.2123L16.7234 15.6457V15.6457L16.9728 15.2123ZM18.8833 16.312L18.6339 16.7453V16.7453L18.8833 16.312ZM19.4217 19.7584L19.7842 20.1028V20.1028L19.4217 19.7584ZM18.0011 21.254L17.6386 20.9097V20.9097L18.0011 21.254ZM16.6763 21.9631L16.7254 22.4607V22.4607L16.6763 21.9631ZM6.81536 17.4752L6.45283 17.8195V17.8195L6.81536 17.4752ZM2.00289 7.96594L1.50361 7.99273L1.50361 7.99273L2.00289 7.96594ZM8.1907 9.80507L8.55323 10.1494V10.1494L8.1907 9.80507ZM8.47752 9.50311L8.84005 9.84746V9.84746L8.47752 9.50311ZM8.63424 6.6931L9.0425 6.40444V6.40444L8.63424 6.6931ZM7.37326 4.90962L6.96499 5.19827V5.19827L7.37326 4.90962ZM4.26145 4.60864L4.62398 4.95299H4.62398L4.26145 4.60864ZM2.69185 6.26114L2.32932 5.91679H2.32932L2.69185 6.26114ZM10.0631 14.0559L10.4257 13.7116V13.7116L10.0631 14.0559ZM21.5 7C21.5 9.48528 19.4853 11.5 17 11.5V12.5C20.0376 12.5 22.5 10.0376 22.5 7H21.5ZM12.5 7C12.5 4.51472 14.5147 2.5 17 2.5V1.5C13.9624 1.5 11.5 3.96243 11.5 7H12.5ZM17 2.5C19.4853 2.5 21.5 4.51472 21.5 7H22.5C22.5 3.96243 20.0376 1.5 17 1.5V2.5ZM12.7738 11.0426L13.0716 9.92954L12.1055 9.67107L11.8077 10.7841L12.7738 11.0426ZM14.0705 10.9284L12.9574 11.2262L13.2159 12.1923L14.3289 11.8945L14.0705 10.9284ZM12.9693 9.00332C12.6691 8.40059 12.5 7.72076 12.5 7H11.5C11.5 7.87892 11.7065 8.71104 12.0742 9.44916L12.9693 9.00332ZM17 11.5C16.2792 11.5 15.5994 11.3309 14.9967 11.0307L14.5508 11.9258C15.289 12.2935 16.1211 12.5 17 12.5V11.5ZM14.3289 11.8945C14.3881 11.8786 14.4667 11.8839 14.5508 11.9258L14.9967 11.0307C14.7245 10.8951 14.3958 10.8414 14.0705 10.9284L14.3289 11.8945ZM13.0716 9.92954C13.1586 9.60417 13.1049 9.27553 12.9693 9.00332L12.0742 9.44915C12.1161 9.53326 12.1214 9.6119 12.1055 9.67107L13.0716 9.92954ZM11.8077 10.7841C11.579 11.6389 12.3611 12.421 13.2159 12.1923L12.9574 11.2262C12.8459 11.2561 12.7439 11.1541 12.7738 11.0426L11.8077 10.7841ZM17.5 9V7H16.5V9H17.5ZM17.5 7V5H16.5V7H17.5ZM19 6.5H17V7.5H19V6.5ZM17 6.5L15 6.5V7.5L17 7.5V6.5ZM14.4632 16.3715L14.9187 15.892L14.1936 15.2034L13.7382 15.6829L14.4632 16.3715ZM16.7234 15.6457L18.6339 16.7453L19.1328 15.8786L17.2222 14.779L16.7234 15.6457ZM19.0591 19.4141L17.6386 20.9097L18.3637 21.5983L19.7842 20.1028L19.0591 19.4141ZM16.6272 21.4655C15.1273 21.6136 11.3029 21.4737 7.17789 17.1308L6.45283 17.8195C10.8213 22.4188 14.9663 22.6343 16.7254 22.4607L16.6272 21.4655ZM7.17789 17.1308C3.25892 13.0049 2.58624 9.50552 2.50217 7.93914L1.50361 7.99273C1.59983 9.78539 2.36251 13.5132 6.45283 17.8195L7.17789 17.1308ZM8.55323 10.1494L8.84005 9.84746L8.11499 9.15877L7.82817 9.46073L8.55323 10.1494ZM9.0425 6.40444L7.78152 4.62096L6.96499 5.19827L8.22598 6.98176L9.0425 6.40444ZM3.89892 4.2643L2.32932 5.91679L3.05438 6.60548L4.62398 4.95299L3.89892 4.2643ZM8.1907 9.80507C7.82817 9.46073 7.82771 9.46122 7.82725 9.46171C7.82708 9.46188 7.82661 9.46238 7.82629 9.46272C7.82565 9.46341 7.82498 9.46412 7.82431 9.46485C7.82295 9.46631 7.82153 9.46785 7.82005 9.46948C7.81708 9.47274 7.81386 9.47635 7.81042 9.48031C7.80353 9.48824 7.79572 9.49757 7.7872 9.50834C7.77014 9.5299 7.75016 9.55724 7.7288 9.59063C7.68598 9.65755 7.63791 9.74822 7.59666 9.86415C7.51308 10.099 7.46326 10.4213 7.52407 10.8363C7.64412 11.6557 8.18986 12.8097 9.70059 14.4002L10.4257 13.7116C8.98138 12.191 8.59091 11.2197 8.5135 10.6914C8.47558 10.4325 8.51172 10.2755 8.53879 10.1994C8.55285 10.1599 8.56628 10.1372 8.57112 10.1296C8.57358 10.1258 8.57398 10.1256 8.57134 10.1289C8.57002 10.1306 8.56793 10.1331 8.56496 10.1366C8.56347 10.1383 8.56176 10.1402 8.55981 10.1423C8.55884 10.1434 8.55781 10.1445 8.55671 10.1457C8.55616 10.1463 8.5556 10.1469 8.55502 10.1475C8.55473 10.1478 8.55428 10.1483 8.55414 10.1485C8.55369 10.1489 8.55323 10.1494 8.1907 9.80507ZM9.70059 14.4002C11.2083 15.9876 12.3115 16.5721 13.1099 16.7017C13.5168 16.7678 13.8356 16.7138 14.0688 16.6218C14.1834 16.5766 14.2725 16.5242 14.3377 16.4779C14.3702 16.4549 14.3968 16.4334 14.4176 16.4151C14.428 16.406 14.4369 16.3977 14.4445 16.3903C14.4483 16.3867 14.4518 16.3833 14.4549 16.3801C14.4565 16.3786 14.4579 16.3771 14.4593 16.3756C14.46 16.3749 14.4607 16.3742 14.4613 16.3735C14.4617 16.3732 14.4622 16.3727 14.4623 16.3725C14.4628 16.372 14.4632 16.3715 14.1007 16.0272C13.7382 15.6829 13.7386 15.6824 13.7391 15.6819C13.7392 15.6818 13.7397 15.6813 13.74 15.681C13.7406 15.6804 13.7411 15.6798 13.7417 15.6792C13.7428 15.678 13.7439 15.6769 13.7449 15.6759C13.747 15.6738 13.7488 15.672 13.7505 15.6704C13.7538 15.6672 13.7564 15.6649 13.7581 15.6634C13.7616 15.6603 13.762 15.6603 13.7592 15.6623C13.7536 15.6662 13.735 15.6785 13.7019 15.6916C13.6398 15.716 13.5034 15.7525 13.2702 15.7147C12.7885 15.6364 11.8729 15.2353 10.4257 13.7116L9.70059 14.4002ZM7.78152 4.62096C6.85147 3.30553 5.00788 3.09677 3.89892 4.2643L4.62398 4.95299C5.26404 4.27912 6.3691 4.35547 6.96499 5.19827L7.78152 4.62096ZM2.50217 7.93914C2.47614 7.45411 2.68891 6.99025 3.05438 6.60548L2.32932 5.91679C1.82755 6.44507 1.45917 7.16479 1.50361 7.99273L2.50217 7.93914ZM17.6386 20.9097C17.3322 21.2323 16.9881 21.4299 16.6272 21.4655L16.7254 22.4607C17.3952 22.3946 17.9477 22.0363 18.3637 21.5983L17.6386 20.9097ZM8.84005 9.84746C9.72062 8.92038 9.78847 7.45951 9.0425 6.40444L8.22598 6.98176C8.71289 7.67042 8.64753 8.5981 8.11499 9.15877L8.84005 9.84746ZM18.6339 16.7453C19.5901 17.2957 19.7873 18.6475 19.0591 19.4141L19.7842 20.1028C20.9738 18.8503 20.6303 16.7406 19.1328 15.8786L18.6339 16.7453ZM14.9187 15.892C15.3855 15.4006 16.1131 15.2944 16.7234 15.6457L17.2222 14.779C16.2214 14.2029 14.986 14.3691 14.1936 15.2034L14.9187 15.892Z" fill="#424242"/>
</svg>
