<svg width="24" height="24" viewBox="0 0 24 24" fill="none" xmlns="http://www.w3.org/2000/svg">
<path d="M15.1007 15.0272L15.4632 15.3715L15.4632 15.3715L15.1007 15.0272ZM15.5562 14.5477L15.1936 14.2034L15.1936 14.2034L15.5562 14.5477ZM17.9728 14.2123L17.7234 14.6457V14.6457L17.9728 14.2123ZM19.8833 15.312L19.6339 15.7453V15.7453L19.8833 15.312ZM20.4217 18.7584L20.7842 19.1028V19.1028L20.4217 18.7584ZM19.0011 20.254L18.6386 19.9097V19.9097L19.0011 20.254ZM17.6763 20.9631L17.7254 21.4607V21.4607L17.6763 20.9631ZM7.81536 16.4752L7.45283 16.8195V16.8195L7.81536 16.4752ZM3.00289 6.96594L2.50361 6.99273L2.50361 6.99273L3.00289 6.96594ZM9.1907 8.80507L9.55323 9.14942V9.14942L9.1907 8.80507ZM9.47752 8.50311L9.84005 8.84746V8.84746L9.47752 8.50311ZM9.63424 5.6931L10.0425 5.40444V5.40444L9.63424 5.6931ZM8.37326 3.90961L7.96499 4.19827V4.19827L8.37326 3.90961ZM5.26145 3.60864L5.62398 3.95299L5.62398 3.95299L5.26145 3.60864ZM3.69185 5.26114L3.32932 4.91679L3.32932 4.91679L3.69185 5.26114ZM11.0631 13.0559L11.4257 12.7116V12.7116L11.0631 13.0559ZM13.7859 8.84444C13.5593 8.68655 13.2477 8.74223 13.0898 8.96878C12.9319 9.19534 12.9876 9.50699 13.2141 9.66487L13.7859 8.84444ZM14.3204 9.8264L14.0346 10.2366V10.2366L14.3204 9.8264ZM19.8891 8.83165L19.4818 8.5416L19.4789 8.54578L19.8891 8.83165ZM21.1935 7L21.6838 6.90194C21.6309 6.63732 21.3775 6.46244 21.1113 6.5068L21.1935 7ZM18.1113 7.0068C17.8389 7.0522 17.6549 7.30981 17.7003 7.5822C17.7457 7.85458 18.0033 8.03859 18.2757 7.9932L18.1113 7.0068ZM21.2032 9.59806C21.2574 9.86884 21.5208 10.0444 21.7916 9.99029C22.0624 9.93613 22.238 9.67272 22.1838 9.40194L21.2032 9.59806ZM16.1891 10.9865L16.4304 10.5485V10.5485L16.1891 10.9865ZM18.0772 10.7982L17.7493 10.4207V10.4207L18.0772 10.7982ZM15.4632 15.3715L15.9187 14.892L15.1936 14.2034L14.7382 14.6829L15.4632 15.3715ZM17.7234 14.6457L19.6339 15.7453L20.1328 14.8786L18.2222 13.779L17.7234 14.6457ZM20.0591 18.4141L18.6386 19.9097L19.3637 20.5983L20.7842 19.1028L20.0591 18.4141ZM17.6272 20.4655C16.1273 20.6136 12.3029 20.4737 8.17789 16.1308L7.45283 16.8195C11.8213 21.4188 15.9663 21.6343 17.7254 21.4607L17.6272 20.4655ZM8.17789 16.1308C4.25892 12.0049 3.58624 8.50552 3.50217 6.93914L2.50361 6.99273C2.59983 8.78539 3.36251 12.5132 7.45283 16.8195L8.17789 16.1308ZM9.55323 9.14942L9.84005 8.84746L9.11499 8.15877L8.82817 8.46073L9.55323 9.14942ZM10.0425 5.40444L8.78152 3.62096L7.96499 4.19827L9.22598 5.98176L10.0425 5.40444ZM4.89892 3.2643L3.32932 4.91679L4.05438 5.60548L5.62398 3.95299L4.89892 3.2643ZM9.1907 8.80507C8.82817 8.46073 8.82771 8.46122 8.82725 8.46171C8.82708 8.46188 8.82661 8.46238 8.82629 8.46272C8.82565 8.46341 8.82498 8.46412 8.82431 8.46485C8.82295 8.46631 8.82153 8.46785 8.82005 8.46948C8.81708 8.47274 8.81386 8.47635 8.81042 8.48031C8.80353 8.48824 8.79572 8.49757 8.7872 8.50834C8.77014 8.5299 8.75016 8.55724 8.7288 8.59063C8.68598 8.65755 8.63791 8.74822 8.59666 8.86415C8.51308 9.09901 8.46326 9.42131 8.52407 9.83632C8.64412 10.6557 9.18986 11.8097 10.7006 13.4002L11.4257 12.7116C9.98138 11.191 9.59091 10.2196 9.5135 9.69135C9.47558 9.43255 9.51172 9.27546 9.53879 9.1994C9.55285 9.15986 9.56628 9.13718 9.57112 9.12962C9.57358 9.12576 9.57398 9.12558 9.57134 9.12892C9.57002 9.13059 9.56793 9.13315 9.56496 9.13656C9.56347 9.13827 9.56176 9.1402 9.55981 9.14234C9.55884 9.14341 9.55781 9.14454 9.55671 9.14572C9.55616 9.14631 9.5556 9.14691 9.55502 9.14753C9.55473 9.14784 9.55428 9.14831 9.55414 9.14846C9.55369 9.14894 9.55323 9.14942 9.1907 8.80507ZM10.7006 13.4002C12.2083 14.9876 13.3115 15.5721 14.1099 15.7017C14.5168 15.7678 14.8356 15.7138 15.0688 15.6218C15.1834 15.5766 15.2725 15.5242 15.3377 15.4779C15.3702 15.4549 15.3968 15.4334 15.4176 15.4151C15.428 15.406 15.4369 15.3977 15.4445 15.3903C15.4483 15.3867 15.4518 15.3833 15.4549 15.3801C15.4565 15.3786 15.4579 15.3771 15.4593 15.3756C15.46 15.3749 15.4607 15.3742 15.4613 15.3735C15.4617 15.3732 15.4622 15.3727 15.4623 15.3725C15.4628 15.372 15.4632 15.3715 15.1007 15.0272C14.7382 14.6829 14.7386 14.6824 14.7391 14.6819C14.7392 14.6818 14.7397 14.6813 14.74 14.681C14.7406 14.6804 14.7411 14.6798 14.7417 14.6792C14.7428 14.678 14.7439 14.6769 14.7449 14.6759C14.747 14.6738 14.7488 14.672 14.7505 14.6704C14.7538 14.6672 14.7564 14.6649 14.7581 14.6634C14.7616 14.6603 14.762 14.6603 14.7592 14.6623C14.7536 14.6662 14.735 14.6785 14.7019 14.6916C14.6398 14.716 14.5034 14.7525 14.2702 14.7147C13.7885 14.6364 12.8729 14.2353 11.4257 12.7116L10.7006 13.4002ZM8.78152 3.62096C7.85147 2.30553 6.00788 2.09677 4.89892 3.2643L5.62398 3.95299C6.26404 3.27912 7.3691 3.35547 7.96499 4.19827L8.78152 3.62096ZM3.50217 6.93914C3.47614 6.45411 3.68891 5.99025 4.05438 5.60548L3.32932 4.91679C2.82755 5.44507 2.45917 6.16479 2.50361 6.99273L3.50217 6.93914ZM18.6386 19.9097C18.3322 20.2323 17.9881 20.4299 17.6272 20.4655L17.7254 21.4607C18.3952 21.3946 18.9477 21.0363 19.3637 20.5983L18.6386 19.9097ZM9.84005 8.84746C10.7206 7.92038 10.7885 6.45951 10.0425 5.40444L9.22598 5.98176C9.71289 6.67042 9.64753 7.5981 9.11499 8.15877L9.84005 8.84746ZM19.6339 15.7453C20.5901 16.2957 20.7873 17.6475 20.0591 18.4141L20.7842 19.1028C21.9738 17.8503 21.6303 15.7406 20.1328 14.8786L19.6339 15.7453ZM15.9187 14.892C16.3855 14.4006 17.1131 14.2944 17.7234 14.6457L18.2222 13.779C17.2214 13.2029 15.986 13.3691 15.1936 14.2034L15.9187 14.892ZM13.2141 9.66487L14.0346 10.2366L14.6063 9.41618L13.7859 8.84444L13.2141 9.66487ZM20.2964 9.12169L21.6008 7.29004L20.7862 6.70996L19.4819 8.54161L20.2964 9.12169ZM21.1113 6.5068L18.1113 7.0068L18.2757 7.9932L21.2757 7.4932L21.1113 6.5068ZM20.7032 7.09806L21.2032 9.59806L22.1838 9.40194L21.6838 6.90194L20.7032 7.09806ZM14.0346 10.2366C14.7549 10.7386 15.4279 11.138 15.9479 11.4244L16.4304 10.5485C15.9341 10.2751 15.2921 9.89407 14.6063 9.41618L14.0346 10.2366ZM19.4789 8.54578C18.9523 9.3014 18.2815 9.95858 17.7493 10.4207L18.405 11.1757C18.9696 10.6854 19.7074 9.96691 20.2994 9.11752L19.4789 8.54578ZM15.9479 11.4244C16.7387 11.86 17.712 11.7774 18.405 11.1757L17.7493 10.4207C17.3841 10.7378 16.8671 10.7891 16.4304 10.5485L15.9479 11.4244Z" fill="#424242"/>
</svg>
