<svg width="24" height="24" viewBox="0 0 24 24" fill="none" xmlns="http://www.w3.org/2000/svg">
<path d="M16.96 5.024V7.04L18.22 8.3M14.1007 15.8672L14.5562 15.3877C15.1858 14.7248 16.1672 14.5886 16.9728 15.0523L18.8833 16.1519C20.1102 16.8581 20.3806 18.5889 19.4217 19.5984L18.0011 21.094C17.6399 21.4742 17.1917 21.7522 16.6763 21.8031C15.0468 21.9639 11.0621 21.7862 6.81536 17.3151C2.81072 13.099 2.09304 9.48542 2.00289 7.8059C1.96765 7.14941 2.25823 6.55762 2.69185 6.1011L4.26145 4.4486C5.13596 3.52791 6.61029 3.67046 7.37326 4.74958L8.63424 6.53306C9.25068 7.40493 9.18407 8.59921 8.47752 9.34307L8.1907 9.64504C8.1907 9.64504 7.10812 10.7848 10.0631 13.8959C13.0181 17.0069 14.1007 15.8672 14.1007 15.8672ZM22 7.04C22 9.82352 19.7435 12.08 16.96 12.08C14.1765 12.08 11.92 9.82352 11.92 7.04C11.92 4.25649 14.1765 2 16.96 2C19.7435 2 22 4.25649 22 7.04Z" stroke="#424242" stroke-linecap="round" stroke-linejoin="round"/>
</svg>
