<svg width="24" height="24" viewBox="0 0 24 24" fill="none" xmlns="http://www.w3.org/2000/svg">
<path d="M18.5 20C18.5 20.2761 18.7239 20.5 19 20.5C19.2761 20.5 19.5 20.2761 19.5 20H18.5ZM19 14L19.3536 13.6464C19.1583 13.4512 18.8417 13.4512 18.6464 13.6464L19 14ZM20.6464 16.3536C20.8417 16.5488 21.1583 16.5488 21.3536 16.3536C21.5488 16.1583 21.5488 15.8417 21.3536 15.6464L20.6464 16.3536ZM16.6464 15.6464C16.4512 15.8417 16.4512 16.1583 16.6464 16.3536C16.8417 16.5488 17.1583 16.5488 17.3536 16.3536L16.6464 15.6464ZM14 20.5C14.2761 20.5 14.5 20.2761 14.5 20C14.5 19.7239 14.2761 19.5 14 19.5V20.5ZM21.5 12C21.5 12.2761 21.7239 12.5 22 12.5C22.2761 12.5 22.5 12.2761 22.5 12H21.5ZM10 16.5C10.2761 16.5 10.5 16.2761 10.5 16C10.5 15.7239 10.2761 15.5 10 15.5V16.5ZM6 15.5C5.72386 15.5 5.5 15.7239 5.5 16C5.5 16.2761 5.72386 16.5 6 16.5V15.5ZM13 16.5C13.2761 16.5 13.5 16.2761 13.5 16C13.5 15.7239 13.2761 15.5 13 15.5V16.5ZM12.5 15.5C12.2239 15.5 12 15.7239 12 16C12 16.2761 12.2239 16.5 12.5 16.5V15.5ZM2 9.5C1.72386 9.5 1.5 9.72386 1.5 10C1.5 10.2761 1.72386 10.5 2 10.5V9.5ZM22 10.5C22.2761 10.5 22.5 10.2761 22.5 10C22.5 9.72386 22.2761 9.5 22 9.5V10.5ZM19.5 20V14H18.5V20H19.5ZM18.6464 14.3536L20.6464 16.3536L21.3536 15.6464L19.3536 13.6464L18.6464 14.3536ZM18.6464 13.6464L16.6464 15.6464L17.3536 16.3536L19.3536 14.3536L18.6464 13.6464ZM10 4.5H14V3.5H10V4.5ZM14 19.5H10V20.5H14V19.5ZM10 19.5C8.10025 19.5 6.72573 19.4989 5.67754 19.358C4.64373 19.219 4.00253 18.9523 3.52513 18.4749L2.81802 19.182C3.51219 19.8762 4.39959 20.1952 5.54429 20.3491C6.6746 20.5011 8.12852 20.5 10 20.5V19.5ZM1.5 12C1.5 13.8715 1.49894 15.3254 1.65091 16.4557C1.80481 17.6004 2.12385 18.4878 2.81802 19.182L3.52513 18.4749C3.04772 17.9975 2.78098 17.3563 2.64199 16.3225C2.50106 15.2743 2.5 13.8998 2.5 12H1.5ZM14 4.5C15.8998 4.5 17.2743 4.50106 18.3225 4.64199C19.3563 4.78098 19.9975 5.04772 20.4749 5.52513L21.182 4.81802C20.4878 4.12385 19.6004 3.80481 18.4557 3.65091C17.3254 3.49894 15.8715 3.5 14 3.5V4.5ZM22.5 12C22.5 10.1285 22.5011 8.67461 22.3491 7.54429C22.1952 6.39959 21.8762 5.51219 21.182 4.81802L20.4749 5.52513C20.9523 6.00253 21.219 6.64373 21.358 7.67754C21.4989 8.72573 21.5 10.1002 21.5 12H22.5ZM10 3.5C8.12852 3.5 6.67461 3.49894 5.54429 3.65091C4.39959 3.80481 3.51219 4.12385 2.81802 4.81802L3.52513 5.52513C4.00253 5.04772 4.64373 4.78098 5.67754 4.64199C6.72573 4.50106 8.10025 4.5 10 4.5V3.5ZM2.5 12C2.5 10.1002 2.50106 8.72573 2.64199 7.67754C2.78098 6.64373 3.04772 6.00253 3.52513 5.52513L2.81802 4.81802C2.12385 5.51219 1.80481 6.39959 1.65091 7.54429C1.49894 8.67461 1.5 10.1285 1.5 12H2.5ZM10 15.5H6V16.5H10V15.5ZM13 15.5H12.5V16.5H13V15.5ZM2 10.5H22V9.5H2V10.5Z" fill="#424242"/>
</svg>
