<svg width="24" height="24" viewBox="0 0 24 24" fill="none" xmlns="http://www.w3.org/2000/svg">
<path d="M20.8284 5.17157L21.182 4.81802V4.81802L20.8284 5.17157ZM21.4991 11.0015C21.4999 11.2776 21.7244 11.5008 22.0005 11.5C22.2767 11.4992 22.4999 11.2747 22.4991 10.9985L21.4991 11.0015ZM11.5 20.5C11.7761 20.5 12 20.2761 12 20C12 19.7239 11.7761 19.5 11.5 19.5V20.5ZM16 14C16 13.7239 15.7761 13.5 15.5 13.5C15.2239 13.5 15 13.7239 15 14H16ZM15.5 20L15.1464 20.3536C15.3417 20.5488 15.6583 20.5488 15.8536 20.3536L15.5 20ZM17.8536 18.3536C18.0488 18.1583 18.0488 17.8417 17.8536 17.6464C17.6583 17.4512 17.3417 17.4512 17.1464 17.6464L17.8536 18.3536ZM13.8536 17.6464C13.6583 17.4512 13.3417 17.4512 13.1464 17.6464C12.9512 17.8417 12.9512 18.1583 13.1464 18.3536L13.8536 17.6464ZM19.5 20C19.5 20.2761 19.7239 20.5 20 20.5C20.2761 20.5 20.5 20.2761 20.5 20H19.5ZM20 14L20.3536 13.6464C20.1583 13.4512 19.8417 13.4512 19.6464 13.6464L20 14ZM21.6464 16.3536C21.8417 16.5488 22.1583 16.5488 22.3536 16.3536C22.5488 16.1583 22.5488 15.8417 22.3536 15.6464L21.6464 16.3536ZM17.6464 15.6464C17.4512 15.8417 17.4512 16.1583 17.6464 16.3536C17.8417 16.5488 18.1583 16.5488 18.3536 16.3536L17.6464 15.6464ZM10 16.5C10.2761 16.5 10.5 16.2761 10.5 16C10.5 15.7239 10.2761 15.5 10 15.5V16.5ZM6 15.5C5.72386 15.5 5.5 15.7239 5.5 16C5.5 16.2761 5.72386 16.5 6 16.5V15.5ZM2 9.5C1.72386 9.5 1.5 9.72386 1.5 10C1.5 10.2761 1.72386 10.5 2 10.5V9.5ZM22 10.5C22.2761 10.5 22.5 10.2761 22.5 10C22.5 9.72386 22.2761 9.5 22 9.5V10.5ZM10 4.5H14V3.5H10V4.5ZM10 19.5C8.10025 19.5 6.72573 19.4989 5.67754 19.358C4.64373 19.219 4.00253 18.9523 3.52513 18.4749L2.81802 19.182C3.51219 19.8762 4.39959 20.1952 5.54429 20.3491C6.6746 20.5011 8.12852 20.5 10 20.5V19.5ZM1.5 12C1.5 13.8715 1.49894 15.3254 1.65091 16.4557C1.80481 17.6004 2.12385 18.4878 2.81802 19.182L3.52513 18.4749C3.04772 17.9975 2.78098 17.3563 2.64199 16.3225C2.50106 15.2743 2.5 13.8998 2.5 12H1.5ZM14 4.5C15.8998 4.5 17.2743 4.50106 18.3225 4.64199C19.3563 4.78098 19.9975 5.04772 20.4749 5.52513L21.182 4.81802C20.4878 4.12385 19.6004 3.80481 18.4557 3.65091C17.3254 3.49894 15.8715 3.5 14 3.5V4.5ZM10 3.5C8.12852 3.5 6.67461 3.49894 5.54429 3.65091C4.39959 3.80481 3.51219 4.12385 2.81802 4.81802L3.52513 5.52513C4.00253 5.04772 4.64373 4.78098 5.67754 4.64199C6.72573 4.50106 8.10025 4.5 10 4.5V3.5ZM2.5 12C2.5 10.1002 2.50106 8.72573 2.64199 7.67754C2.78098 6.64373 3.04772 6.00253 3.52513 5.52513L2.81802 4.81802C2.12385 5.51219 1.80481 6.39959 1.65091 7.54429C1.49894 8.67461 1.5 10.1285 1.5 12H2.5ZM22.4991 10.9985C22.4945 9.44808 22.4686 8.21537 22.3019 7.23294C22.1328 6.23597 21.8112 5.44725 21.182 4.81802L20.4749 5.52513C20.9087 5.95898 21.1679 6.52733 21.316 7.40022C21.4666 8.28766 21.4945 9.43762 21.4991 11.0015L22.4991 10.9985ZM11.5 19.5H10V20.5H11.5V19.5ZM15 14V20H16V14H15ZM15.8536 20.3536L17.8536 18.3536L17.1464 17.6464L15.1464 19.6464L15.8536 20.3536ZM15.8536 19.6464L13.8536 17.6464L13.1464 18.3536L15.1464 20.3536L15.8536 19.6464ZM20.5 20V14H19.5V20H20.5ZM19.6464 14.3536L21.6464 16.3536L22.3536 15.6464L20.3536 13.6464L19.6464 14.3536ZM19.6464 13.6464L17.6464 15.6464L18.3536 16.3536L20.3536 14.3536L19.6464 13.6464ZM10 15.5H6V16.5H10V15.5ZM2 10.5H22V9.5H2V10.5Z" fill="#424242"/>
</svg>
