<svg width="24" height="24" viewBox="0 0 24 24" fill="none" xmlns="http://www.w3.org/2000/svg">
<path d="M3.5 12C3.5 11.7239 3.27614 11.5 3 11.5C2.72386 11.5 2.5 11.7239 2.5 12H3.5ZM21.5 12C21.5 11.7239 21.2761 11.5 21 11.5C20.7239 11.5 20.5 11.7239 20.5 12H21.5ZM20.6676 12.3997L20.5239 11.9208V11.9208L20.6676 12.3997ZM14.5166 13.723C14.2521 13.8023 14.1021 14.0811 14.1814 14.3456C14.2608 14.6101 14.5395 14.7602 14.804 14.6808L14.5166 13.723ZM9.19601 14.6808C9.4605 14.7602 9.73925 14.6101 9.81859 14.3456C9.89794 14.0811 9.74785 13.8023 9.48336 13.723L9.19601 14.6808ZM3.3324 12.3997L3.47608 11.9208H3.47608L3.3324 12.3997ZM2.15078 11.784L1.72617 12.048H1.72617L2.15078 11.784ZM2.25021 11.9176L2.62511 11.5868H2.62511L2.25021 11.9176ZM21.8492 11.784L21.4246 11.52L21.4246 11.52L21.8492 11.784ZM21.7498 11.9176L22.1247 12.2485H22.1247L21.7498 11.9176ZM20.8934 5.67298L20.5778 6.06082V6.06082L20.8934 5.67298ZM21.327 6.10659L20.9392 6.42216V6.42216L21.327 6.10659ZM3.10659 5.67298L2.79103 5.28514H2.79103L3.10659 5.67298ZM2.67298 6.10659L2.28514 5.79103H2.28514L2.67298 6.10659ZM15.5002 3.5L15.0259 3.65811V3.65812L15.5002 3.5ZM15.5259 3.57697L16.0002 3.41886V3.41886L15.5259 3.57697ZM8.47457 3.57697L8.00023 3.41886L8.00023 3.41886L8.47457 3.57697ZM8.50023 3.5L8.97457 3.65811L8.97457 3.65811L8.50023 3.5ZM8.43944 3.68032L8.90963 3.8504L8.90963 3.8504L8.43944 3.68032ZM6.48733 4.50016C6.21128 4.50716 5.99316 4.73661 6.00016 5.01267C6.00716 5.28872 6.23661 5.50684 6.51267 5.49984L6.48733 4.50016ZM15.561 3.68032L16.0312 3.51024L16.0312 3.51023L15.561 3.68032ZM17.4873 5.49984C17.7634 5.50684 17.9928 5.28872 17.9998 5.01267C18.0068 4.73661 17.7887 4.50716 17.5127 4.50016L17.4873 5.49984ZM13.6796 2.00366L13.6494 2.50274V2.50274L13.6796 2.00366ZM15.4144 3.254L14.9505 3.4405L14.9505 3.4405L15.4144 3.254ZM10.3208 2.00366L10.2906 1.50457V1.50457L10.3208 2.00366ZM8.58608 3.254L9.05 3.4405L9.05 3.4405L8.58608 3.254ZM14.1857 15.6257L14 15.1615V15.1615L14.1857 15.6257ZM13.4856 15.9058L13.6713 16.37V16.37L13.4856 15.9058ZM10.5144 15.9058L10.3287 16.37V16.37L10.5144 15.9058ZM9.8143 15.6257L10 15.1615V15.1615L9.8143 15.6257ZM12 21.5C9.86608 21.5 8.31041 21.4992 7.12161 21.3571C5.94174 21.2161 5.19959 20.9431 4.6502 20.4547L3.98584 21.2021C4.75447 21.8854 5.73199 22.1981 7.00294 22.35C8.26497 22.5008 9.89128 22.5 12 22.5V21.5ZM2.5 12C2.5 13.878 2.49945 15.8204 2.66742 17.4406C2.75149 18.2517 2.87957 19.0022 3.07917 19.6354C3.27653 20.2614 3.55911 20.8228 3.98584 21.2021L4.6502 20.4547C4.41792 20.2483 4.20624 19.8846 4.03291 19.3347C3.86182 18.792 3.74276 18.1158 3.66209 17.3375C3.50055 15.7793 3.5 13.8933 3.5 12H2.5ZM20.5 12C20.5 13.8933 20.4995 15.7793 20.3379 17.3375C20.2572 18.1158 20.1382 18.792 19.9671 19.3347C19.7938 19.8846 19.5821 20.2483 19.3498 20.4547L20.0142 21.2021C20.4409 20.8228 20.7235 20.2614 20.9208 19.6354C21.1204 19.0022 21.2485 18.2517 21.3326 17.4406C21.5005 15.8204 21.5 13.878 21.5 12H20.5ZM12 22.5C14.1087 22.5 15.735 22.5008 16.9971 22.35C18.268 22.1981 19.2455 21.8854 20.0142 21.2021L19.3498 20.4547C18.8004 20.9431 18.0583 21.2161 16.8784 21.3571C15.6896 21.4992 14.1339 21.5 12 21.5V22.5ZM7.60893 5.5H16.3911V4.5H7.60893V5.5ZM20.5239 11.9208L14.5166 13.723L14.804 14.6808L20.8113 12.8786L20.5239 11.9208ZM9.48336 13.723L3.47608 11.9208L3.18873 12.8786L9.19601 14.6808L9.48336 13.723ZM1.5 10.6089C1.5 10.9096 1.4994 11.1724 1.5214 11.3892C1.54446 11.6164 1.59562 11.8381 1.72617 12.048L2.57539 11.52C2.55516 11.4875 2.53093 11.4325 2.51629 11.2882C2.5006 11.1335 2.5 10.9299 2.5 10.6089H1.5ZM3.47608 11.9208C3.1686 11.8286 2.97379 11.7695 2.83013 11.71C2.69617 11.6545 2.65046 11.6155 2.62511 11.5868L1.87532 12.2485C2.03891 12.4339 2.23654 12.5466 2.44756 12.6339C2.64889 12.7173 2.90071 12.7922 3.18873 12.8786L3.47608 11.9208ZM1.72617 12.048C1.77022 12.1189 1.82011 12.1859 1.87532 12.2485L2.62511 11.5868C2.6067 11.566 2.59007 11.5436 2.57539 11.52L1.72617 12.048ZM21.5 10.6089C21.5 10.93 21.4994 11.1335 21.4837 11.2882C21.4691 11.4325 21.4448 11.4875 21.4246 11.52L22.2738 12.048C22.4044 11.8381 22.4555 11.6164 22.4786 11.3892C22.5006 11.1724 22.5 10.9096 22.5 10.6089H21.5ZM20.8113 12.8786C21.0993 12.7922 21.3511 12.7173 21.5524 12.6339C21.7635 12.5466 21.9611 12.4339 22.1247 12.2485L21.3749 11.5868C21.3495 11.6155 21.3038 11.6545 21.1699 11.71C21.0262 11.7695 20.8314 11.8286 20.5239 11.9208L20.8113 12.8786ZM21.4246 11.52C21.4099 11.5436 21.3933 11.566 21.3749 11.5868L22.1247 12.2485C22.1799 12.1859 22.2298 12.1189 22.2738 12.048L21.4246 11.52ZM16.3911 5.5C17.6283 5.5 18.5126 5.50081 19.1925 5.58071C19.8616 5.65932 20.2679 5.8086 20.5778 6.06082L21.209 5.28515C20.6918 4.86438 20.072 4.67717 19.3092 4.58754C18.5574 4.49919 17.604 4.5 16.3911 4.5V5.5ZM22.5 10.6089C22.5 9.39602 22.5008 8.44265 22.4125 7.69077C22.3228 6.92798 22.1356 6.30815 21.7149 5.79103L20.9392 6.42216C21.1914 6.73214 21.3407 7.1384 21.4193 7.80747C21.4992 8.48744 21.5 9.37168 21.5 10.6089H22.5ZM20.5778 6.06082C20.7103 6.16861 20.8314 6.28969 20.9392 6.42216L21.7149 5.79103C21.564 5.60556 21.3944 5.43605 21.209 5.28514L20.5778 6.06082ZM7.60893 4.5C6.39602 4.5 5.44265 4.49919 4.69077 4.58754C3.92798 4.67717 3.30815 4.86438 2.79103 5.28514L3.42216 6.06082C3.73214 5.8086 4.1384 5.65932 4.80747 5.58071C5.48744 5.50081 6.37168 5.5 7.60893 5.5V4.5ZM2.5 10.6089C2.5 9.37168 2.50081 8.48744 2.58071 7.80747C2.65932 7.13841 2.8086 6.73214 3.06082 6.42216L2.28514 5.79103C1.86438 6.30815 1.67717 6.92798 1.58754 7.69077C1.49919 8.44265 1.5 9.39602 1.5 10.6089H2.5ZM2.79103 5.28514C2.60556 5.43605 2.43605 5.60556 2.28514 5.79103L3.06082 6.42216C3.16861 6.28969 3.28969 6.16861 3.42216 6.06082L2.79103 5.28514ZM10.5814 2.5H13.4191V1.5H10.5814V2.5ZM15.0259 3.65812L15.0515 3.73509L16.0002 3.41886L15.9746 3.34188L15.0259 3.65812ZM8.94891 3.73509L8.97457 3.65811L8.02588 3.34188L8.00023 3.41886L8.94891 3.73509ZM8.00023 3.41886C7.98168 3.47451 7.9752 3.49381 7.96926 3.51024L8.90963 3.8504C8.92092 3.81917 8.93212 3.78546 8.94891 3.73509L8.00023 3.41886ZM7.96926 3.51024C7.76928 4.06308 7.1365 4.48371 6.48733 4.50016L6.51267 5.49984C7.51039 5.47456 8.54922 4.84673 8.90963 3.8504L7.96926 3.51024ZM15.0515 3.73509C15.0682 3.78513 15.0796 3.81925 15.0908 3.85041L16.0312 3.51023C16.0253 3.49388 16.0187 3.47422 16.0002 3.41886L15.0515 3.73509ZM15.0908 3.8504C15.4512 4.84663 16.4895 5.47455 17.4873 5.49984L17.5127 4.50016C16.8636 4.48371 16.2312 4.06319 16.0312 3.51024L15.0908 3.8504ZM13.4191 2.5C13.5591 2.5 13.6077 2.50022 13.6494 2.50274L13.7098 1.50457C13.6307 1.49978 13.5459 1.5 13.4191 1.5V2.5ZM15.9746 3.34189C15.9345 3.22162 15.9079 3.14108 15.8783 3.0675L14.9505 3.4405C14.966 3.47921 14.9816 3.52524 15.0259 3.65811L15.9746 3.34189ZM13.6494 2.50274C14.2278 2.53777 14.7343 2.90284 14.9505 3.4405L15.8783 3.0675C15.518 2.1714 14.6739 1.56296 13.7098 1.50457L13.6494 2.50274ZM10.5814 1.5C10.4546 1.5 10.3698 1.49978 10.2906 1.50457L10.3511 2.50274C10.3927 2.50022 10.4413 2.5 10.5814 2.5V1.5ZM8.97457 3.65811C9.01885 3.52526 9.03444 3.4792 9.05 3.4405L8.12217 3.0675C8.09259 3.14107 8.06597 3.22163 8.02588 3.34189L8.97457 3.65811ZM10.2906 1.50457C9.32658 1.56296 8.48241 2.1714 8.12217 3.0675L9.05 3.4405C9.26614 2.90284 9.77265 2.53777 10.3511 2.50274L10.2906 1.50457ZM10 13H14V12H10V13ZM14 13V15.1615H15V13H14ZM14 15.1615L13.2999 15.4415L13.6713 16.37L14.3714 16.09L14 15.1615ZM10.7001 15.4415L10 15.1615L9.62861 16.09L10.3287 16.37L10.7001 15.4415ZM10 15.1615V13H9V15.1615H10ZM10 15.1615V15.1615H9C9 15.5704 9.24895 15.9381 9.62861 16.09L10 15.1615ZM13.2999 15.4415C12.4654 15.7753 11.5346 15.7753 10.7001 15.4415L10.3287 16.37C11.4016 16.7992 12.5984 16.7992 13.6713 16.37L13.2999 15.4415ZM14 15.1615V15.1615L14.3714 16.09C14.751 15.9381 15 15.5704 15 15.1615H14ZM14 13H15C15 12.4477 14.5523 12 14 12V13ZM10 12C9.44772 12 9 12.4477 9 13H10V12Z" fill="#424242"/>
</svg>
