<svg width="24" height="24" viewBox="0 0 24 24" fill="none" xmlns="http://www.w3.org/2000/svg">
<path d="M2 21.5C1.72386 21.5 1.5 21.7239 1.5 22C1.5 22.2761 1.72386 22.5 2 22.5V21.5ZM22 21.5H2V22.5H22V21.5ZM16.5 13.5H19.5V12.5H16.5V13.5ZM20.5 14.5V22H21.5V14.5H20.5ZM15.5 22V14.5H14.5V22H15.5ZM19.5 13.5C20.0523 13.5 20.5 13.9477 20.5 14.5H21.5C21.5 13.3954 20.6046 12.5 19.5 12.5V13.5ZM16.5 12.5C15.3954 12.5 14.5 13.3954 14.5 14.5H15.5C15.5 13.9477 15.9477 13.5 16.5 13.5V12.5ZM14.5 5V22H15.5V5H14.5ZM9.5 22V5H8.5V22H9.5ZM12 2.5C12.7212 2.5 13.2119 2.50106 13.5793 2.55046C13.9323 2.59792 14.0958 2.68161 14.2071 2.79289L14.9142 2.08579C14.5862 1.75773 14.1764 1.62175 13.7125 1.55938C13.263 1.49894 12.693 1.5 12 1.5V2.5ZM15.5 5C15.5 4.30703 15.5011 3.737 15.4406 3.28747C15.3783 2.82355 15.2423 2.41384 14.9142 2.08579L14.2071 2.79289C14.3184 2.90418 14.4021 3.06769 14.4495 3.42072C14.4989 3.78813 14.5 4.27876 14.5 5H15.5ZM12 1.5C11.307 1.5 10.737 1.49894 10.2875 1.55938C9.82355 1.62175 9.41384 1.75773 9.08579 2.08579L9.79289 2.79289C9.90418 2.68161 10.0677 2.59792 10.4207 2.55046C10.7881 2.50106 11.2788 2.5 12 2.5V1.5ZM9.5 5C9.5 4.27876 9.50106 3.78813 9.55046 3.42072C9.59792 3.06769 9.68161 2.90418 9.79289 2.79289L9.08579 2.08579C8.75773 2.41384 8.62175 2.82355 8.55938 3.28747C8.49894 3.737 8.5 4.30703 8.5 5H9.5ZM4.5 8.5H7.5V7.5H4.5V8.5ZM8.5 9.5V22H9.5V9.5H8.5ZM3.5 22V9.5H2.5V22H3.5ZM7.5 8.5C8.05228 8.5 8.5 8.94772 8.5 9.5H9.5C9.5 8.39543 8.60457 7.5 7.5 7.5V8.5ZM4.5 7.5C3.39543 7.5 2.5 8.39543 2.5 9.5H3.5C3.5 8.94772 3.94772 8.5 4.5 8.5V7.5Z" fill="#424242"/>
</svg>
