<svg width="24" height="24" viewBox="0 0 24 24" fill="none" xmlns="http://www.w3.org/2000/svg">
<path d="M12 16V8M8 14V10M16 14V10M22 12C22 17.5228 17.5228 22 12 22C10.4003 22 8.88837 21.6244 7.54753 20.9565C7.19121 20.7791 6.78393 20.72 6.39939 20.8229L4.17335 21.4185C3.20701 21.677 2.32295 20.793 2.58151 19.8267L3.17712 17.6006C3.28001 17.2161 3.22094 16.8088 3.04346 16.4525C2.37562 15.1116 2 13.5997 2 12C2 6.47715 6.47715 2 12 2C17.5228 2 22 6.47715 22 12Z" stroke="#424242" stroke-linecap="round"/>
</svg>
