<svg width="24" height="24" viewBox="0 0 24 24" fill="none" xmlns="http://www.w3.org/2000/svg">
<path d="M2.58151 19.8267L3.06452 19.9559H3.06452L2.58151 19.8267ZM3.17712 17.6006L2.69411 17.4714V17.4714L3.17712 17.6006ZM6.39939 20.8229L6.52862 21.3059H6.52862L6.39939 20.8229ZM4.17335 21.4185L4.04411 20.9355V20.9355L4.17335 21.4185ZM3.04346 16.4525L3.49102 16.2296V16.2296L3.04346 16.4525ZM7.54753 20.9565L7.32461 21.4041V21.4041L7.54753 20.9565ZM20.4 11.5C20.1239 11.5 19.9 11.7239 19.9 12C19.9 12.2761 20.1239 12.5 20.4 12.5V11.5ZM21.7703 12.5C22.0465 12.5 22.2703 12.2761 22.2703 12C22.2703 11.7239 22.0465 11.5 21.7703 11.5V12.5ZM2.16 11.5C1.88386 11.5 1.66 11.7239 1.66 12C1.66 12.2761 1.88386 12.5 2.16 12.5V11.5ZM3.53033 12.5C3.80648 12.5 4.03033 12.2761 4.03033 12C4.03033 11.7239 3.80648 11.5 3.53033 11.5V12.5ZM11.5 3.53033C11.5 3.80647 11.7239 4.03033 12 4.03033C12.2761 4.03033 12.5 3.80647 12.5 3.53033H11.5ZM12.5 2.4C12.5 2.12386 12.2761 1.9 12 1.9C11.7239 1.9 11.5 2.12386 11.5 2.4H12.5ZM11.5 22.0103C11.5 22.2865 11.7239 22.5103 12 22.5103C12.2761 22.5103 12.5 22.2865 12.5 22.0103H11.5ZM12.5 20.4C12.5 20.1239 12.2761 19.9 12 19.9C11.7239 19.9 11.5 20.1239 11.5 20.4H12.5ZM12.5 8C12.5 7.72386 12.2761 7.5 12 7.5C11.7239 7.5 11.5 7.72386 11.5 8H12.5ZM12 12.1995H11.5C11.5 12.3321 11.5527 12.4593 11.6464 12.5531L12 12.1995ZM14.6464 15.5531C14.8417 15.7483 15.1583 15.7483 15.3536 15.5531C15.5488 15.3578 15.5488 15.0412 15.3536 14.846L14.6464 15.5531ZM21.5 12C21.5 17.2467 17.2467 21.5 12 21.5V22.5C17.799 22.5 22.5 17.799 22.5 12H21.5ZM2.5 12C2.5 6.75329 6.75329 2.5 12 2.5V1.5C6.20101 1.5 1.5 6.20101 1.5 12H2.5ZM12 2.5C17.2467 2.5 21.5 6.75329 21.5 12H22.5C22.5 6.20101 17.799 1.5 12 1.5V2.5ZM3.06452 19.9559L3.66013 17.7298L2.69411 17.4714L2.0985 19.6974L3.06452 19.9559ZM6.27015 20.3399L4.04411 20.9355L4.30258 21.9015L6.52862 21.3059L6.27015 20.3399ZM3.49102 16.2296C2.85689 14.9564 2.5 13.5206 2.5 12H1.5C1.5 13.6788 1.89434 15.2669 2.5959 16.6754L3.49102 16.2296ZM12 21.5C10.4794 21.5 9.04359 21.1431 7.77045 20.509L7.32461 21.4041C8.73314 22.1057 10.3212 22.5 12 22.5V21.5ZM6.52862 21.3059C6.78007 21.2386 7.06234 21.2735 7.32461 21.4041L7.77045 20.509C7.32007 20.2847 6.7878 20.2014 6.27015 20.3399L6.52862 21.3059ZM3.66013 17.7298C3.79863 17.2122 3.71534 16.6799 3.49102 16.2296L2.5959 16.6754C2.72653 16.9377 2.76139 17.2199 2.69411 17.4714L3.66013 17.7298ZM2.0985 19.6974C1.7405 21.0354 2.96458 22.2595 4.30258 21.9015L4.04411 20.9355C3.44945 21.0946 2.90541 20.5506 3.06452 19.9559L2.0985 19.6974ZM20.4 12.5H21.7703V11.5H20.4V12.5ZM2.16 12.5H3.53033V11.5H2.16V12.5ZM12.5 3.53033V2.4H11.5V3.53033H12.5ZM12.5 22.0103V20.4H11.5V22.0103H12.5ZM11.5 8V12.1995H12.5V8H11.5ZM11.6464 12.5531L14.6464 15.5531L15.3536 14.846L12.3536 11.846L11.6464 12.5531Z" fill="#424242"/>
</svg>
