<svg width="24" height="24" viewBox="0 0 24 24" fill="none" xmlns="http://www.w3.org/2000/svg">
<path d="M2.58151 19.8267L3.06452 19.9559V19.9559L2.58151 19.8267ZM3.17712 17.6006L2.69411 17.4714L2.69411 17.4714L3.17712 17.6006ZM6.39939 20.8229L6.52862 21.3059H6.52862L6.39939 20.8229ZM4.17335 21.4185L4.04411 20.9355V20.9355L4.17335 21.4185ZM3.04346 16.4525L2.5959 16.6754H2.5959L3.04346 16.4525ZM7.54753 20.9565L7.32461 21.4041V21.4041L7.54753 20.9565ZM13.9005 2.69004C14.1712 2.74498 14.4351 2.57013 14.49 2.2995C14.5449 2.02888 14.3701 1.76496 14.0995 1.71003L13.9005 2.69004ZM22.29 9.90053C22.235 9.62991 21.9711 9.45506 21.7005 9.50999C21.4299 9.56493 21.255 9.82884 21.31 10.0995L22.29 9.90053ZM19.8891 7.59621C20.0844 7.79147 20.4009 7.79147 20.5962 7.59621C20.7915 7.40095 20.7915 7.08437 20.5962 6.88911L19.8891 7.59621ZM16.3536 2.64646C16.1583 2.4512 15.8417 2.4512 15.6464 2.64646C15.4512 2.84173 15.4512 3.15831 15.6464 3.35357L16.3536 2.64646ZM20.5962 3.35355C20.7915 3.15829 20.7915 2.84171 20.5962 2.64645C20.4009 2.45118 20.0844 2.45118 19.8891 2.64645L20.5962 3.35355ZM15.6465 6.88909C15.4512 7.08435 15.4512 7.40093 15.6465 7.59619C15.8417 7.79146 16.1583 7.79146 16.3536 7.59619L15.6465 6.88909ZM21.5 12C21.5 17.2467 17.2467 21.5 12 21.5V22.5C17.799 22.5 22.5 17.799 22.5 12H21.5ZM2.5 12C2.5 6.75329 6.75329 2.5 12 2.5V1.5C6.20101 1.5 1.5 6.20101 1.5 12H2.5ZM3.06452 19.9559L3.66013 17.7298L2.69411 17.4714L2.0985 19.6974L3.06452 19.9559ZM6.27015 20.3399L4.04411 20.9355L4.30258 21.9015L6.52862 21.3059L6.27015 20.3399ZM3.49102 16.2296C2.85689 14.9564 2.5 13.5206 2.5 12H1.5C1.5 13.6788 1.89434 15.2669 2.5959 16.6754L3.49102 16.2296ZM12 21.5C10.4794 21.5 9.04359 21.1431 7.77045 20.509L7.32461 21.4041C8.73314 22.1057 10.3212 22.5 12 22.5V21.5ZM6.52862 21.3059C6.78007 21.2386 7.06234 21.2735 7.32461 21.4041L7.77045 20.509C7.32007 20.2847 6.7878 20.2014 6.27015 20.3399L6.52862 21.3059ZM3.66013 17.7299C3.79863 17.2122 3.71534 16.6799 3.49102 16.2296L2.5959 16.6754C2.72653 16.9377 2.76139 17.2199 2.69411 17.4714L3.66013 17.7299ZM2.0985 19.6974C1.7405 21.0354 2.96458 22.2595 4.30258 21.9015L4.04411 20.9355C3.44945 21.0946 2.90541 20.5506 3.06452 19.9559L2.0985 19.6974ZM12 2.5C12.6513 2.5 13.2869 2.56548 13.9005 2.69004L14.0995 1.71003C13.4207 1.57225 12.7185 1.5 12 1.5V2.5ZM21.31 10.0995C21.4345 10.7131 21.5 11.3487 21.5 12H22.5C22.5 11.2815 22.4278 10.5793 22.29 9.90053L21.31 10.0995ZM20.5962 6.88911L18.4749 4.76778L17.7678 5.47489L19.8891 7.59621L20.5962 6.88911ZM18.4749 4.76778L16.3536 2.64646L15.6464 3.35357L17.7678 5.47489L18.4749 4.76778ZM19.8891 2.64645L17.7678 4.76778L18.4749 5.47489L20.5962 3.35355L19.8891 2.64645ZM17.7678 4.76778L15.6465 6.88909L16.3536 7.59619L18.4749 5.47489L17.7678 4.76778Z" fill="#424242"/>
</svg>
