<svg width="24" height="24" viewBox="0 0 24 24" fill="none" xmlns="http://www.w3.org/2000/svg">
<path d="M21.5 8.5C21.7761 8.5 22 8.27614 22 8C22 7.72386 21.7761 7.5 21.5 7.5V8.5ZM2.5 7.5C2.22386 7.5 2 7.72386 2 8C2 8.27614 2.22386 8.5 2.5 8.5V7.5ZM6.57817 7.73156C6.42991 7.96453 6.49859 8.27358 6.73156 8.42183C6.96453 8.57009 7.27358 8.50141 7.42183 8.26844L6.57817 7.73156ZM10.9218 2.76844C11.0701 2.53547 11.0014 2.22642 10.7684 2.07817C10.5355 1.92992 10.2264 1.99859 10.0782 2.23156L10.9218 2.76844ZM13.0782 7.73156C12.9299 7.96453 12.9986 8.27358 13.2316 8.42183C13.4645 8.57009 13.7736 8.50141 13.9218 8.26844L13.0782 7.73156ZM17.4218 2.76844C17.5701 2.53547 17.5014 2.22642 17.2684 2.07817C17.0355 1.92992 16.7264 1.99859 16.5782 2.23156L17.4218 2.76844ZM13.014 12.5852L13.285 12.1651L13.014 12.5852ZM13.014 16.4148L13.285 16.8349V16.8349L13.014 16.4148ZM12 21.5C9.62884 21.5 7.90077 21.4989 6.58026 21.3214C5.27414 21.1458 4.44187 20.8058 3.81802 20.182L3.11091 20.8891C3.95153 21.7297 5.03 22.122 6.44702 22.3125C7.84965 22.5011 9.65711 22.5 12 22.5V21.5ZM1.5 12C1.5 14.3429 1.49894 16.1504 1.68752 17.553C1.87803 18.97 2.2703 20.0485 3.11091 20.8891L3.81802 20.182C3.19417 19.5581 2.8542 18.7259 2.6786 17.4197C2.50106 16.0992 2.5 14.3712 2.5 12H1.5ZM21.5 12C21.5 14.3712 21.4989 16.0992 21.3214 17.4197C21.1458 18.7259 20.8058 19.5581 20.182 20.182L20.8891 20.8891C21.7297 20.0485 22.122 18.97 22.3125 17.553C22.5011 16.1504 22.5 14.3429 22.5 12H21.5ZM12 22.5C14.3429 22.5 16.1504 22.5011 17.553 22.3125C18.97 22.122 20.0485 21.7297 20.8891 20.8891L20.182 20.182C19.5581 20.8058 18.7259 21.1458 17.4197 21.3214C16.0992 21.4989 14.3712 21.5 12 21.5V22.5ZM12 2.5C14.3712 2.5 16.0992 2.50106 17.4197 2.6786C18.7259 2.8542 19.5581 3.19417 20.182 3.81802L20.8891 3.11091C20.0485 2.2703 18.97 1.87803 17.553 1.68752C16.1504 1.49894 14.3429 1.5 12 1.5V2.5ZM22.5 12C22.5 9.65711 22.5011 7.84965 22.3125 6.44702C22.122 5.03 21.7297 3.95153 20.8891 3.11091L20.182 3.81802C20.8058 4.44187 21.1458 5.27414 21.3214 6.58026C21.4989 7.90077 21.5 9.62884 21.5 12H22.5ZM12 1.5C9.65711 1.5 7.84965 1.49894 6.44702 1.68752C5.03 1.87803 3.95153 2.2703 3.11091 3.11091L3.81802 3.81802C4.44187 3.19417 5.27414 2.8542 6.58026 2.6786C7.90077 2.50106 9.62884 2.5 12 2.5V1.5ZM2.5 12C2.5 9.62884 2.50106 7.90077 2.6786 6.58026C2.8542 5.27414 3.19417 4.44187 3.81802 3.81802L3.11091 3.11091C2.2703 3.95153 1.87803 5.03 1.68752 6.44702C1.49894 7.84965 1.5 9.65711 1.5 12H2.5ZM21.5 7.5H2.5V8.5H21.5V7.5ZM7.42183 8.26844L10.9218 2.76844L10.0782 2.23156L6.57817 7.73156L7.42183 8.26844ZM13.9218 8.26844L17.4218 2.76844L16.5782 2.23156L13.0782 7.73156L13.9218 8.26844ZM12.7429 13.0053C13.4192 13.4417 13.8765 13.7384 14.1722 14C14.4586 14.2533 14.5 14.3931 14.5 14.5H15.5C15.5 13.9735 15.2104 13.5831 14.8347 13.2509C14.4685 12.927 13.9328 12.583 13.285 12.1651L12.7429 13.0053ZM13.285 16.8349C13.9328 16.417 14.4685 16.073 14.8347 15.7491C15.2104 15.4169 15.5 15.0265 15.5 14.5H14.5C14.5 14.6069 14.4586 14.7467 14.1722 15C13.8765 15.2616 13.4192 15.5583 12.7429 15.9947L13.285 16.8349ZM10.5 14.5C10.5 13.6255 10.5011 13.0213 10.5582 12.5929C10.6162 12.1572 10.7146 12.0605 10.7685 12.0262L10.2323 11.1822C9.78578 11.4658 9.63398 11.9577 9.56693 12.4608C9.49892 12.9712 9.5 13.6559 9.5 14.5H10.5ZM13.285 12.1651C12.6292 11.7419 12.0869 11.3902 11.6444 11.1938C11.1982 10.9956 10.6988 10.8857 10.2323 11.1822L10.7685 12.0262C10.8024 12.0047 10.8887 11.9524 11.2386 12.1077C11.5924 12.2648 12.0566 12.5625 12.7429 13.0053L13.285 12.1651ZM9.5 14.5C9.5 15.3441 9.49892 16.0288 9.56693 16.5392C9.63398 17.0423 9.78578 17.5342 10.2323 17.8178L10.7685 16.9738C10.7146 16.9395 10.6162 16.8428 10.5582 16.4071C10.5011 15.9787 10.5 15.3745 10.5 14.5H9.5ZM12.7429 15.9947C12.0566 16.4375 11.5924 16.7352 11.2386 16.8923C10.8887 17.0476 10.8024 16.9953 10.7685 16.9738L10.2323 17.8178C10.6988 18.1143 11.1982 18.0044 11.6444 17.8062C12.0869 17.6098 12.6292 17.2581 13.285 16.8349L12.7429 15.9947Z" fill="#424242"/>
</svg>
