<svg width="24" height="24" viewBox="0 0 24 24" fill="none" xmlns="http://www.w3.org/2000/svg">
<path d="M20.1213 4.87694L19.7678 5.23049V5.23049L20.1213 4.87694ZM3.87868 4.87694L3.52513 4.52339H3.52513L3.87868 4.87694ZM15 13.5C15.2761 13.5 15.5 13.2762 15.5 13C15.5 12.7239 15.2761 12.5 15 12.5V13.5ZM9 12.5C8.72386 12.5 8.5 12.7239 8.5 13C8.5 13.2762 8.72386 13.5 9 13.5V12.5ZM12.5 10C12.5 9.72386 12.2761 9.5 12 9.5C11.7239 9.5 11.5 9.72386 11.5 10H12.5ZM11.5 16C11.5 16.2761 11.7239 16.5 12 16.5C12.2761 16.5 12.5 16.2761 12.5 16H11.5ZM20.5 9.99826V15.9983H21.5V9.99826H20.5ZM15 21.4983H9V22.4983H15V21.4983ZM3.5 15.9983V9.99826H2.5V15.9983H3.5ZM9 21.4983C7.57165 21.4983 6.55069 21.4972 5.77481 21.3929C5.01331 21.2905 4.56319 21.097 4.23223 20.766L3.52513 21.4731C4.07285 22.0209 4.76917 22.2667 5.64156 22.384C6.49956 22.4993 7.59992 22.4983 9 22.4983V21.4983ZM2.5 15.9983C2.5 17.3983 2.49894 18.4987 2.61429 19.3567C2.73158 20.2291 2.9774 20.9254 3.52513 21.4731L4.23223 20.766C3.90128 20.4351 3.70776 19.985 3.60538 19.2235C3.50106 18.4476 3.5 17.4266 3.5 15.9983H2.5ZM20.5 15.9983C20.5 17.4266 20.4989 18.4476 20.3946 19.2235C20.2922 19.985 20.0987 20.4351 19.7678 20.766L20.4749 21.4731C21.0226 20.9254 21.2684 20.2291 21.3857 19.3567C21.5011 18.4987 21.5 17.3983 21.5 15.9983H20.5ZM15 22.4983C16.4001 22.4983 17.5004 22.4993 18.3584 22.384C19.2308 22.2667 19.9272 22.0209 20.4749 21.4731L19.7678 20.766C19.4368 21.097 18.9867 21.2905 18.2252 21.3929C17.4493 21.4972 16.4283 21.4983 15 21.4983V22.4983ZM21.5 9.99826C21.5 8.59818 21.5011 7.49783 21.3857 6.63982C21.2684 5.76744 21.0226 5.07111 20.4749 4.52339L19.7678 5.23049C20.0987 5.56145 20.2922 6.01157 20.3946 6.77307C20.4989 7.54895 20.5 8.56991 20.5 9.99826H21.5ZM3.5 9.99826C3.5 8.56991 3.50106 7.54895 3.60538 6.77307C3.70776 6.01157 3.90128 5.56145 4.23223 5.23049L3.52513 4.52339C2.9774 5.07111 2.73158 5.76744 2.61429 6.63982C2.49894 7.49783 2.5 8.59818 2.5 9.99826H3.5ZM15.9972 4.49999C17.0887 4.50607 17.8849 4.53405 18.4978 4.64664C19.0965 4.75661 19.4774 4.94013 19.7678 5.23049L20.4749 4.52339C19.9969 4.04537 19.4046 3.79647 18.6785 3.66309C17.9666 3.53234 17.0863 3.50604 16.0028 3.50001L15.9972 4.49999ZM7.99722 3.50001C6.91369 3.50604 6.03336 3.53234 5.32152 3.66309C4.59538 3.79647 4.00314 4.04537 3.52513 4.52339L4.23223 5.23049C4.5226 4.94013 4.90351 4.75661 5.50218 4.64664C6.11515 4.53405 6.91128 4.50607 8.00278 4.49999L7.99722 3.50001ZM9.5 2.5H14.5V1.5H9.5V2.5ZM15.5 3.5V4.5H16.5V3.5H15.5ZM14.5 5.5H9.5V6.5H14.5V5.5ZM8.5 4.5V3.5H7.5V4.5H8.5ZM9.5 5.5C8.94772 5.5 8.5 5.05228 8.5 4.5H7.5C7.5 5.60457 8.39543 6.5 9.5 6.5V5.5ZM15.5 4.5C15.5 5.05228 15.0523 5.5 14.5 5.5V6.5C15.6046 6.5 16.5 5.60457 16.5 4.5H15.5ZM14.5 2.5C15.0523 2.5 15.5 2.94772 15.5 3.5H16.5C16.5 2.39543 15.6046 1.5 14.5 1.5V2.5ZM9.5 1.5C8.39543 1.5 7.5 2.39543 7.5 3.5H8.5C8.5 2.94772 8.94772 2.5 9.5 2.5V1.5ZM15 12.5H12V13.5H15V12.5ZM12 12.5H9V13.5H12V12.5ZM11.5 10L11.5 13H12.5L12.5 10H11.5ZM11.5 13V16H12.5V13H11.5Z" fill="#424242"/>
</svg>
