<svg width="24" height="24" viewBox="0 0 24 24" fill="none" xmlns="http://www.w3.org/2000/svg">
<path d="M20.1213 4.87694L19.7678 5.23049V5.23049L20.1213 4.87694ZM3.87868 4.87694L3.52513 4.52339H3.52513L3.87868 4.87694ZM11.0429 15.3656L10.7471 15.7687V15.7687L11.0429 15.3656ZM12 11.6913L11.6542 12.0525C11.8476 12.2376 12.1524 12.2376 12.3458 12.0525L12 11.6913ZM12.9571 15.3656L13.2529 15.7687H13.2529L12.9571 15.3656ZM12 15.8276L12 15.3276H12L12 15.8276ZM20.5 9.99826V15.9983H21.5V9.99826H20.5ZM15 21.4983H9V22.4983H15V21.4983ZM3.5 15.9983V9.99826H2.5V15.9983H3.5ZM9 21.4983C7.57165 21.4983 6.55069 21.4972 5.77481 21.3929C5.01331 21.2905 4.56319 21.097 4.23223 20.766L3.52513 21.4731C4.07285 22.0209 4.76917 22.2667 5.64156 22.384C6.49956 22.4993 7.59992 22.4983 9 22.4983V21.4983ZM2.5 15.9983C2.5 17.3983 2.49894 18.4987 2.61429 19.3567C2.73158 20.2291 2.9774 20.9254 3.52513 21.4731L4.23223 20.766C3.90128 20.4351 3.70776 19.985 3.60538 19.2235C3.50106 18.4476 3.5 17.4266 3.5 15.9983H2.5ZM20.5 15.9983C20.5 17.4266 20.4989 18.4476 20.3946 19.2235C20.2922 19.985 20.0987 20.4351 19.7678 20.766L20.4749 21.4731C21.0226 20.9254 21.2684 20.2291 21.3857 19.3567C21.5011 18.4987 21.5 17.3983 21.5 15.9983H20.5ZM15 22.4983C16.4001 22.4983 17.5004 22.4993 18.3584 22.384C19.2308 22.2667 19.9272 22.0209 20.4749 21.4731L19.7678 20.766C19.4368 21.097 18.9867 21.2905 18.2252 21.3929C17.4493 21.4972 16.4283 21.4983 15 21.4983V22.4983ZM21.5 9.99826C21.5 8.59818 21.5011 7.49783 21.3857 6.63982C21.2684 5.76744 21.0226 5.07111 20.4749 4.52339L19.7678 5.23049C20.0987 5.56145 20.2922 6.01157 20.3946 6.77307C20.4989 7.54895 20.5 8.56991 20.5 9.99826H21.5ZM3.5 9.99826C3.5 8.56991 3.50106 7.54895 3.60538 6.77307C3.70776 6.01157 3.90128 5.56145 4.23223 5.23049L3.52513 4.52339C2.9774 5.07111 2.73158 5.76744 2.61429 6.63982C2.49894 7.49783 2.5 8.59818 2.5 9.99826H3.5ZM15.9972 4.49999C17.0887 4.50607 17.8849 4.53405 18.4978 4.64664C19.0965 4.75661 19.4774 4.94013 19.7678 5.23049L20.4749 4.52339C19.9969 4.04537 19.4046 3.79647 18.6785 3.66309C17.9666 3.53234 17.0863 3.50604 16.0028 3.50001L15.9972 4.49999ZM7.99722 3.50001C6.91369 3.50604 6.03336 3.53234 5.32152 3.66309C4.59538 3.79647 4.00314 4.04537 3.52513 4.52339L4.23223 5.23049C4.5226 4.94013 4.90351 4.75661 5.50218 4.64664C6.11515 4.53405 6.91128 4.50607 8.00278 4.49999L7.99722 3.50001ZM11.3386 14.9624C10.9137 14.6506 10.4364 14.2549 10.0704 13.8317C9.69122 13.3933 9.5 13.0038 9.5 12.6967H8.5C8.5 13.374 8.89121 13.9969 9.31399 14.4858C9.74984 14.9898 10.294 15.4363 10.7471 15.7687L11.3386 14.9624ZM9.5 12.6967C9.5 12.0338 9.81255 11.6752 10.1592 11.5537C10.5198 11.4273 11.0788 11.5016 11.6542 12.0525L12.3458 11.3302C11.5712 10.5885 10.6303 10.3289 9.82836 10.61C9.01247 10.896 8.5 11.6864 8.5 12.6967H9.5ZM13.2529 15.7687C13.706 15.4363 14.2502 14.9898 14.686 14.4858C15.1088 13.9969 15.5 13.374 15.5 12.6967H14.5C14.5 13.0039 14.3088 13.3933 13.9296 13.8317C13.5636 14.255 13.0863 14.6506 12.6614 14.9625L13.2529 15.7687ZM15.5 12.6967C15.5 11.6864 14.9875 10.896 14.1716 10.61C13.3697 10.3289 12.4288 10.5885 11.6542 11.3302L12.3458 12.0525C12.9212 11.5016 13.4802 11.4273 13.8408 11.5537C14.1875 11.6752 14.5 12.0338 14.5 12.6967H15.5ZM10.7471 15.7687C11.1327 16.0517 11.4786 16.3275 12 16.3276L12 15.3276C11.8664 15.3276 11.7925 15.2954 11.3386 14.9624L10.7471 15.7687ZM12.6614 14.9625C12.2075 15.2954 12.1336 15.3276 12 15.3276L12 16.3276C12.5214 16.3276 12.8673 16.0517 13.2529 15.7687L12.6614 14.9625ZM9.5 2.5H14.5V1.5H9.5V2.5ZM15.5 3.5V4.5H16.5V3.5H15.5ZM14.5 5.5H9.5V6.5H14.5V5.5ZM8.5 4.5V3.5H7.5V4.5H8.5ZM9.5 5.5C8.94772 5.5 8.5 5.05228 8.5 4.5H7.5C7.5 5.60457 8.39543 6.5 9.5 6.5V5.5ZM15.5 4.5C15.5 5.05228 15.0523 5.5 14.5 5.5V6.5C15.6046 6.5 16.5 5.60457 16.5 4.5H15.5ZM14.5 2.5C15.0523 2.5 15.5 2.94772 15.5 3.5H16.5C16.5 2.39543 15.6046 1.5 14.5 1.5V2.5ZM9.5 1.5C8.39543 1.5 7.5 2.39543 7.5 3.5H8.5C8.5 2.94772 8.94772 2.5 9.5 2.5V1.5Z" fill="#424242"/>
</svg>
