<svg width="24" height="24" viewBox="0 0 24 24" fill="none" xmlns="http://www.w3.org/2000/svg">
<path d="M18.3536 6.3536C18.5488 6.15834 18.5488 5.84176 18.3536 5.64649C18.1583 5.45123 17.8417 5.45123 17.6464 5.64649L18.3536 6.3536ZM5.6465 17.6464C5.45123 17.8417 5.45123 18.1583 5.6465 18.3536C5.84176 18.5488 6.15834 18.5488 6.3536 18.3536L5.6465 17.6464ZM6.35355 5.64645C6.15829 5.45118 5.84171 5.45118 5.64645 5.64645C5.45118 5.84171 5.45118 6.15829 5.64645 6.35355L6.35355 5.64645ZM17.6464 18.3535C17.8417 18.5488 18.1582 18.5488 18.3535 18.3535C18.5488 18.1582 18.5488 17.8417 18.3535 17.6464L17.6464 18.3535ZM17.6464 5.64649L11.6465 11.6465L12.3536 12.3536L18.3536 6.3536L17.6464 5.64649ZM11.6465 11.6465L5.6465 17.6464L6.3536 18.3536L12.3536 12.3536L11.6465 11.6465ZM5.64645 6.35355L11.6465 12.3536L12.3536 11.6465L6.35355 5.64645L5.64645 6.35355ZM11.6465 12.3536L17.6464 18.3535L18.3535 17.6464L12.3536 11.6465L11.6465 12.3536Z" fill="#424242"/>
</svg>
