<svg width="24" height="24" viewBox="0 0 24 24" fill="none" xmlns="http://www.w3.org/2000/svg">
<path d="M6.28571 19C3.91878 19 2 17.1038 2 14.7647C2 12.4256 3.91878 10.5294 6.28571 10.5294C6.56983 10.5294 6.8475 10.5567 7.11616 10.6089M14.381 8.02721C14.9767 7.81911 15.6178 7.70588 16.2857 7.70588C16.9404 7.70588 17.5693 7.81468 18.1551 8.01498M7.11616 10.6089C6.88706 9.9978 6.7619 9.33687 6.7619 8.64706C6.7619 5.52827 9.32028 3 12.4762 3C15.4159 3 17.8371 5.19371 18.1551 8.01498M7.11616 10.6089C7.68058 10.7184 8.20528 10.9374 8.66667 11.2426M18.1551 8.01498C20.393 8.78024 22 10.8811 22 13.3529C22 16.0599 20.0726 18.3221 17.5 18.8722" stroke="#424242" stroke-linecap="round"/>
<path d="M9.22657 18.9097L8.73553 19.0039C8.78664 19.2702 9.04067 19.4473 9.30818 19.403L9.22657 18.9097ZM10.5635 19.1953C10.836 19.1502 11.0203 18.8928 10.9752 18.6204C10.9301 18.348 10.6727 18.1636 10.4003 18.2087L10.4819 18.702L10.5635 19.1953ZM9.49104 17.6349C9.43899 17.3637 9.17695 17.1861 8.90576 17.2381C8.63457 17.2902 8.45691 17.5522 8.50896 17.8234L9 17.7292L9.49104 17.6349ZM13.4484 18.3736C13.593 18.6088 13.901 18.6823 14.1362 18.5377C14.3715 18.3931 14.4449 18.0851 14.3003 17.8499L13.8744 18.1117L13.4484 18.3736ZM14.1695 20.0903L14.6605 19.9961C14.6094 19.7298 14.3554 19.5527 14.0879 19.597L14.1695 20.0903ZM12.8326 19.8047C12.5601 19.8498 12.3758 20.1072 12.4209 20.3796C12.4659 20.652 12.7233 20.8364 12.9958 20.7913L12.9142 20.298L12.8326 19.8047ZM13.905 21.3651C13.9571 21.6363 14.2191 21.8139 14.4903 21.7619C14.7615 21.7098 14.9392 21.4478 14.8871 21.1766L14.3961 21.2708L13.905 21.3651ZM9.94765 20.6264C9.80303 20.3912 9.49509 20.3177 9.25985 20.4623C9.0246 20.6069 8.95114 20.9149 9.09576 21.1501L9.52171 20.8883L9.94765 20.6264ZM9.22657 18.9097L9.30818 19.403L10.5635 19.1953L10.4819 18.702L10.4003 18.2087L9.14496 18.4164L9.22657 18.9097ZM9.22657 18.9097L9.71761 18.8155L9.49104 17.6349L9 17.7292L8.50896 17.8234L8.73553 19.0039L9.22657 18.9097ZM13.8744 18.1117L14.3003 17.8499C14.0657 17.4683 13.3742 16.5 11.7761 16.5V17V17.5C12.8716 17.5 13.2961 18.1259 13.4484 18.3736L13.8744 18.1117ZM11.7761 17V16.5C10.8735 16.5 10.2582 16.8097 9.79499 17.267C9.37502 17.6817 9.06688 18.2478 8.81055 18.6324L9.22657 18.9097L9.6426 19.1871C9.97653 18.6862 10.1746 18.2975 10.4976 17.9786C10.7773 17.7025 11.1416 17.5 11.7761 17.5V17ZM14.1695 20.0903L14.0879 19.597L12.8326 19.8047L12.9142 20.298L12.9958 20.7913L14.2511 20.5836L14.1695 20.0903ZM14.1695 20.0903L13.6785 20.1845L13.905 21.3651L14.3961 21.2708L14.8871 21.1766L14.6605 19.9961L14.1695 20.0903ZM9.52171 20.8883L9.09576 21.1501C9.33034 21.5317 10.0219 22.5 11.6199 22.5V22V21.5C10.5245 21.5 10.0999 20.8741 9.94765 20.6264L9.52171 20.8883ZM11.6199 22V22.5C12.5226 22.5 13.1379 22.1903 13.6011 21.733C14.021 21.3183 14.3292 20.7522 14.5855 20.3676L14.1695 20.0903L13.7535 19.8129C13.4195 20.3138 13.2215 20.7025 12.8985 21.0214C12.6188 21.2975 12.2545 21.5 11.6199 21.5V22Z" fill="#424242"/>
</svg>
