<svg width="24" height="24" viewBox="0 0 24 24" fill="none" xmlns="http://www.w3.org/2000/svg">
<path d="M15.3929 4.05365L15.0585 4.42529V4.42529L15.3929 4.05365ZM19.3517 7.61654L19.0172 7.98819V7.98819L19.3517 7.61654ZM21.654 10.1541L21.1972 10.3575L21.1973 10.3575L21.654 10.1541ZM3.17157 20.8284L3.52513 20.4749H3.52513L3.17157 20.8284ZM20.8284 20.8284L20.4749 20.4749V20.4749L20.8284 20.8284ZM13.5 2.5C13.5 2.22386 13.2761 2 13 2C12.7239 2 12.5 2.22386 12.5 2.5H13.5ZM22 10.5C22.2761 10.5 22.5 10.2761 22.5 10C22.5 9.72386 22.2761 9.5 22 9.5V10.5ZM10.1845 14.0937C9.92085 14.1759 9.77379 14.4562 9.85601 14.7199C9.93822 14.9835 10.2186 15.1305 10.4822 15.0483L10.1845 14.0937ZM8.07906 16.0063C8.31683 16.1468 8.62342 16.0679 8.76385 15.8301C8.90428 15.5923 8.82538 15.2857 8.58761 15.1453L8.07906 16.0063ZM11.6543 14.5672L11.5083 15.0454L11.6543 14.5672ZM14 21.5H10V22.5H14V21.5ZM2.5 14V10H1.5V14H2.5ZM21.5 13.5629V14H22.5V13.5629H21.5ZM15.0585 4.42529L19.0172 7.98819L19.6862 7.2449L15.7274 3.682L15.0585 4.42529ZM22.5 13.5629C22.5 11.8525 22.5101 10.8473 22.1107 9.95068L21.1973 10.3575C21.4899 11.0146 21.5 11.7641 21.5 13.5629H22.5ZM19.0172 7.98819C20.3543 9.19151 20.9046 9.70039 21.1972 10.3575L22.1108 9.95068C21.7114 9.05401 20.9576 8.38912 19.6862 7.2449L19.0172 7.98819ZM10.0298 2.5C11.5927 2.5 12.2448 2.50772 12.8301 2.73233L13.1884 1.79871C12.3898 1.49228 11.5169 1.5 10.0298 1.5V2.5ZM15.7274 3.682C14.6275 2.69205 13.9868 2.10511 13.1884 1.79871L12.8301 2.73233C13.4155 2.95697 13.9027 3.3851 15.0585 4.42529L15.7274 3.682ZM10 21.5C8.10025 21.5 6.72573 21.4989 5.67754 21.358C4.64373 21.219 4.00253 20.9523 3.52513 20.4749L2.81802 21.182C3.51219 21.8762 4.39959 22.1952 5.54429 22.3491C6.6746 22.5011 8.12852 22.5 10 22.5V21.5ZM1.5 14C1.5 15.8715 1.49894 17.3254 1.65091 18.4557C1.80481 19.6004 2.12385 20.4878 2.81802 21.182L3.52513 20.4749C3.04772 19.9975 2.78098 19.3563 2.64199 18.3225C2.50106 17.2743 2.5 15.8998 2.5 14H1.5ZM14 22.5C15.8715 22.5 17.3254 22.5011 18.4557 22.3491C19.6004 22.1952 20.4878 21.8762 21.182 21.182L20.4749 20.4749C19.9975 20.9523 19.3563 21.219 18.3225 21.358C17.2743 21.4989 15.8998 21.5 14 21.5V22.5ZM21.5 14C21.5 15.8998 21.4989 17.2743 21.358 18.3225C21.219 19.3563 20.9523 19.9975 20.4749 20.4749L21.182 21.182C21.8762 20.4878 22.1952 19.6004 22.3491 18.4557C22.5011 17.3254 22.5 15.8715 22.5 14H21.5ZM2.5 10C2.5 8.10025 2.50106 6.72573 2.64199 5.67754C2.78098 4.64373 3.04772 4.00253 3.52513 3.52513L2.81802 2.81802C2.12385 3.51219 1.80481 4.39959 1.65091 5.54429C1.49894 6.6746 1.5 8.12852 1.5 10H2.5ZM10.0298 1.5C8.14833 1.5 6.68714 1.49895 5.55203 1.65087C4.40292 1.80466 3.51258 2.12346 2.81802 2.81802L3.52513 3.52513C4.00214 3.04811 4.64535 2.78113 5.68469 2.64203C6.73803 2.50105 8.12015 2.5 10.0298 2.5V1.5ZM12.5 2.5V5H13.5V2.5H12.5ZM18 10.5H22V9.5H18V10.5ZM12.5 5C12.5 6.16438 12.4989 7.08796 12.596 7.8098C12.695 8.54603 12.9042 9.14682 13.3787 9.62132L14.0858 8.91421C13.8281 8.65648 13.6711 8.3019 13.5871 7.67656C13.5011 7.03683 13.5 6.19265 13.5 5H12.5ZM18 9.5C16.8074 9.5 15.9632 9.49894 15.3234 9.41293C14.6981 9.32885 14.3435 9.17195 14.0858 8.91421L13.3787 9.62132C13.8532 10.0958 14.454 10.305 15.1902 10.404C15.912 10.5011 16.8356 10.5 18 10.5V9.5ZM12.5 16.2353C12.5 16.8768 11.8891 17.5 11 17.5V18.5C12.3201 18.5 13.5 17.543 13.5 16.2353H12.5ZM8.16667 14.7647C8.16667 14.1232 8.77759 13.5 9.66667 13.5V12.5C8.3466 12.5 7.16667 13.457 7.16667 14.7647H8.16667ZM7.5 17.5C6.88707 17.5 6.5 17.0743 6.5 16.6765H5.5C5.5 17.7406 6.45608 18.5 7.5 18.5V17.5ZM6.5 16.6765C6.5 16.2786 6.88707 15.8529 7.5 15.8529V14.8529C6.45608 14.8529 5.5 15.6124 5.5 16.6765H6.5ZM10.4822 15.0483C10.6426 14.9983 10.8168 14.9706 11 14.9706V13.9706C10.7157 13.9706 10.4411 14.0136 10.1845 14.0937L10.4822 15.0483ZM7.5 15.8529C7.5708 15.8529 7.63943 15.859 7.7053 15.8704L7.87601 14.8851C7.75382 14.8639 7.62808 14.8529 7.5 14.8529V15.8529ZM8.25166 15.1842C8.19638 15.0525 8.16667 14.9117 8.16667 14.7647H7.16667C7.16667 15.0489 7.22457 15.3211 7.32965 15.5713L8.25166 15.1842ZM7.7053 15.8704C7.84383 15.8944 7.97017 15.942 8.07906 16.0063L8.58761 15.1453C8.37353 15.0189 8.13258 14.9296 7.87601 14.8851L7.7053 15.8704ZM9.66667 13.5C10.4904 13.5 11.084 14.0419 11.1582 14.6298L12.1503 14.5046C12.002 13.3292 10.9007 12.5 9.66667 12.5V13.5ZM11 14.9706C11.1796 14.9706 11.3505 14.9972 11.5083 15.0454L11.8003 14.089C11.548 14.0119 11.2787 13.9706 11 13.9706V14.9706ZM11.5083 15.0454C12.1223 15.2329 12.5 15.7229 12.5 16.2353H13.5C13.5 15.2028 12.7528 14.3798 11.8003 14.089L11.5083 15.0454ZM7.5 18.5H11V17.5H7.5V18.5Z" fill="#424242"/>
</svg>
