<svg width="24" height="24" viewBox="0 0 24 24" fill="none" xmlns="http://www.w3.org/2000/svg">
<path d="M6.28571 19.5C6.56186 19.5 6.78571 19.2761 6.78571 19C6.78571 18.7239 6.56186 18.5 6.28571 18.5V19.5ZM8.39081 11.6596C8.62112 11.812 8.93133 11.7488 9.08368 11.5185C9.23603 11.2882 9.17284 10.9779 8.94252 10.8256L8.39081 11.6596ZM18.1551 8.01498L17.9933 8.48808H17.9933L18.1551 8.01498ZM17.3954 18.3833C17.1254 18.441 16.9533 18.7068 17.0111 18.9768C17.0688 19.2468 17.3345 19.4189 17.6046 19.3612L17.3954 18.3833ZM12 16L12.3536 15.6464C12.1583 15.4512 11.8417 15.4512 11.6464 15.6464L12 16ZM11.5 22C11.5 22.2761 11.7239 22.5 12 22.5C12.2761 22.5 12.5 22.2761 12.5 22H11.5ZM13.6464 18.3536C13.8417 18.5488 14.1583 18.5488 14.3536 18.3536C14.5488 18.1583 14.5488 17.8417 14.3536 17.6464L13.6464 18.3536ZM9.64645 17.6464C9.45118 17.8417 9.45118 18.1583 9.64645 18.3536C9.84171 18.5488 10.1583 18.5488 10.3536 18.3536L9.64645 17.6464ZM7.2619 8.64706C7.2619 5.80998 9.59083 3.5 12.4762 3.5V2.5C9.04973 2.5 6.2619 5.24657 6.2619 8.64706H7.2619ZM6.28571 18.5C4.18933 18.5 2.5 16.8221 2.5 14.7647H1.5C1.5 17.3855 3.64823 19.5 6.28571 19.5V18.5ZM2.5 14.7647C2.5 12.7073 4.18933 11.0294 6.28571 11.0294V10.0294C3.64823 10.0294 1.5 12.1439 1.5 14.7647H2.5ZM14.5458 8.49924C15.0893 8.30943 15.6747 8.20588 16.2857 8.20588V7.20588C15.561 7.20588 14.8642 7.3288 14.2161 7.55518L14.5458 8.49924ZM6.28571 11.0294C6.53771 11.0294 6.78348 11.0536 7.02092 11.0997L7.2114 10.118C6.91151 10.0598 6.60196 10.0294 6.28571 10.0294V11.0294ZM7.58434 10.4333C7.37594 9.87748 7.2619 9.27595 7.2619 8.64706H6.2619C6.2619 9.39779 6.39819 10.1181 6.64798 10.7844L7.58434 10.4333ZM7.02092 11.0997C7.51964 11.1965 7.98314 11.39 8.39081 11.6596L8.94252 10.8256C8.42742 10.4849 7.84153 10.2403 7.2114 10.118L7.02092 11.0997ZM12.4762 3.5C15.1632 3.5 17.369 5.5044 17.6582 8.07097L18.6519 7.95898C18.3053 4.88302 15.6685 2.5 12.4762 2.5V3.5ZM16.2857 8.20588C16.8847 8.20588 17.459 8.30538 17.9933 8.48808L18.3169 7.54187C17.6797 7.32398 16.9961 7.20588 16.2857 7.20588V8.20588ZM17.9933 8.48808C20.0381 9.18732 21.5 11.1045 21.5 13.3529H22.5C22.5 10.6577 20.7478 8.37315 18.3169 7.54187L17.9933 8.48808ZM21.5 13.3529C21.5 15.8153 19.7461 17.8806 17.3954 18.3833L17.6046 19.3612C20.3991 18.7636 22.5 16.3046 22.5 13.3529H21.5ZM11.5 16V22H12.5V16H11.5ZM11.6464 16.3536L13.6464 18.3536L14.3536 17.6464L12.3536 15.6464L11.6464 16.3536ZM11.6464 15.6464L9.64645 17.6464L10.3536 18.3536L12.3536 16.3536L11.6464 15.6464Z" fill="#424242"/>
</svg>
