<svg width="24" height="24" viewBox="0 0 24 24" fill="none" xmlns="http://www.w3.org/2000/svg">
<path d="M6.28571 18.5C6.56186 18.5 6.78571 18.2761 6.78571 18C6.78571 17.7239 6.56186 17.5 6.28571 17.5V18.5ZM8.39081 10.6596C8.62112 10.812 8.93133 10.7488 9.08368 10.5185C9.23603 10.2882 9.17284 9.97795 8.94252 9.82559L8.39081 10.6596ZM18.1551 7.01498L17.9933 7.48808H17.9933L18.1551 7.01498ZM17.3954 17.3833C17.1254 17.441 16.9533 17.7068 17.0111 17.9768C17.0688 18.2468 17.3345 18.4189 17.6046 18.3612L17.3954 17.3833ZM10.7744 15.9003L11.1765 16.1975V16.1975L10.7744 15.9003ZM9.62607 17.4539L9.22398 17.1567V17.1567L9.62607 17.4539ZM11.4197 19.9023L10.9197 19.9023V19.9023L11.4197 19.9023ZM11.4197 20.0184L11.9197 20.0184V20.0184L11.4197 20.0184ZM13.2256 20.5718L12.8235 20.2746V20.2746L13.2256 20.5718ZM14.3739 19.0182L14.776 19.3154V19.3154L14.3739 19.0182ZM12.7297 17.3828L12.3833 17.7434L12.3872 17.747L12.7297 17.3828ZM12.7222 17.3756L12.372 17.7324L12.3758 17.7361L12.7222 17.3756ZM14.9639 17.7842L14.5199 18.0141L14.5199 18.0141L14.9639 17.7842ZM14.9571 17.7715L14.5203 18.0149L14.5203 18.0149L14.9571 17.7715ZM11.7659 21.9721L11.9124 21.494H11.9124L11.7659 21.9721ZM11.2778 19.0965L11.628 18.7397L11.6242 18.736L11.2778 19.0965ZM11.2703 19.0893L11.6167 18.7287L11.6128 18.7251L11.2703 19.0893ZM9.03615 18.6879L9.48014 18.458L9.48013 18.458L9.03615 18.6879ZM9.04294 18.7006L8.60615 18.9439L8.60616 18.9439L9.04294 18.7006ZM12.234 14.5L12.3805 14.0219V14.0219L12.234 14.5ZM7.2619 7.64706C7.2619 4.80998 9.59083 2.5 12.4762 2.5V1.5C9.04973 1.5 6.2619 4.24657 6.2619 7.64706H7.2619ZM6.28571 17.5C4.18933 17.5 2.5 15.8221 2.5 13.7647H1.5C1.5 16.3855 3.64823 18.5 6.28571 18.5V17.5ZM2.5 13.7647C2.5 11.7073 4.18933 10.0294 6.28571 10.0294V9.02941C3.64823 9.02941 1.5 11.1439 1.5 13.7647H2.5ZM14.5458 7.49924C15.0893 7.30943 15.6747 7.20588 16.2857 7.20588V6.20588C15.561 6.20588 14.8642 6.3288 14.2161 6.55518L14.5458 7.49924ZM6.28571 10.0294C6.53771 10.0294 6.78348 10.0536 7.02092 10.0997L7.2114 9.11802C6.91151 9.05983 6.60196 9.02941 6.28571 9.02941V10.0294ZM7.58434 9.43334C7.37594 8.87748 7.2619 8.27595 7.2619 7.64706H6.2619C6.2619 8.39779 6.39819 9.11812 6.64798 9.78439L7.58434 9.43334ZM7.02092 10.0997C7.51964 10.1965 7.98314 10.39 8.39081 10.6596L8.94252 9.82559C8.42742 9.48485 7.84153 9.24029 7.2114 9.11802L7.02092 10.0997ZM12.4762 2.5C15.1632 2.5 17.369 4.5044 17.6582 7.07097L18.6519 6.95898C18.3053 3.88302 15.6685 1.5 12.4762 1.5V2.5ZM16.2857 7.20588C16.8847 7.20588 17.459 7.30538 17.9933 7.48808L18.3169 6.54187C17.6797 6.32398 16.9961 6.20588 16.2857 6.20588V7.20588ZM17.9933 7.48808C20.0381 8.18732 21.5 10.1045 21.5 12.3529H22.5C22.5 9.65773 20.7478 7.37315 18.3169 6.54187L17.9933 7.48808ZM21.5 12.3529C21.5 14.8153 19.7461 16.8806 17.3954 17.3833L17.6046 18.3612C20.3991 17.7636 22.5 15.3046 22.5 12.3529H21.5ZM10.3723 15.6031L9.22398 17.1567L10.0282 17.7511L11.1765 16.1975L10.3723 15.6031ZM10.9197 19.9023L10.9197 20.0183L11.9197 20.0184L11.9197 19.9023L10.9197 19.9023ZM13.6277 20.869L14.776 19.3154L13.9718 18.721L12.8235 20.2746L13.6277 20.869ZM13.0803 16.5699V16.4537H12.0803V16.5699H13.0803ZM13.5683 17.0192C13.3238 17.0192 13.188 17.0182 13.0933 17.0061C13.0106 16.9956 13.0362 16.9846 13.0723 17.0186L12.3872 17.747C12.5683 17.9174 12.782 17.9746 12.9668 17.9981C13.1395 18.0201 13.3505 18.0192 13.5683 18.0192V17.0192ZM12.0803 16.5699C12.0803 16.7775 12.0792 16.9848 12.1027 17.1555C12.1285 17.3421 12.1917 17.5555 12.372 17.7324L13.0725 17.0187C13.1108 17.0564 13.103 17.089 13.0933 17.0187C13.0814 16.9323 13.0803 16.8065 13.0803 16.5699H12.0803ZM13.0762 17.0222L13.0686 17.015L12.3758 17.7361L12.3833 17.7433L13.0762 17.0222ZM14.776 19.3154C15.0067 19.0033 15.2152 18.7235 15.3406 18.4879C15.4648 18.2548 15.5923 17.9103 15.4078 17.5542L14.5199 18.0141C14.4682 17.9143 14.5416 17.8609 14.458 18.0178C14.3758 18.1722 14.2229 18.3812 13.9718 18.721L14.776 19.3154ZM13.5683 18.0192C14.0005 18.0192 14.2701 18.0204 14.4528 18.0459C14.642 18.0724 14.5701 18.1043 14.5203 18.0149L15.3938 17.5282C15.2034 17.1864 14.8532 17.0922 14.5912 17.0555C14.3227 17.018 13.9683 17.0192 13.5683 17.0192V18.0192ZM15.4078 17.5542C15.4033 17.5454 15.3986 17.5367 15.3938 17.5281L14.5203 18.0149L14.5199 18.0141L15.4078 17.5542ZM10.9197 20.0183C10.9197 20.6178 10.9186 21.1213 10.9674 21.4841C11.0102 21.8017 11.1246 22.2985 11.6194 22.4501L11.9124 21.494C12.061 21.5396 12.0023 21.6754 11.9585 21.3506C11.9208 21.071 11.9197 20.6506 11.9197 20.0184L10.9197 20.0183ZM12.8235 20.2746C12.443 20.7894 12.1877 21.1331 11.987 21.3416C11.7545 21.5833 11.775 21.4519 11.9124 21.494L11.6194 22.4501C12.1032 22.5984 12.4824 22.269 12.7075 22.035C12.9646 21.7679 13.2659 21.3584 13.6277 20.869L12.8235 20.2746ZM11.9197 19.9023C11.9197 19.6946 11.9208 19.4873 11.8973 19.3167C11.8715 19.13 11.8083 18.9166 11.628 18.7397L10.9275 19.4534C10.8892 19.4157 10.897 19.3831 10.9067 19.4534C10.9186 19.5398 10.9197 19.6656 10.9197 19.9023L11.9197 19.9023ZM10.4317 19.4529C10.6762 19.4529 10.812 19.4539 10.9067 19.466C10.9894 19.4765 10.9638 19.4875 10.9277 19.4535L11.6128 18.7251C11.4317 18.5547 11.218 18.4975 11.0332 18.474C10.8605 18.452 10.6495 18.4529 10.4317 18.4529V19.4529ZM11.6242 18.736L11.6167 18.7288L10.9238 19.4499L10.9314 19.4571L11.6242 18.736ZM9.22398 17.1567C8.99331 17.4688 8.78483 17.7487 8.65936 17.9842C8.5352 18.2173 8.40774 18.5618 8.59217 18.9179L9.48013 18.458C9.53183 18.5578 9.45844 18.6112 9.54198 18.4543C9.62422 18.2999 9.77706 18.0909 10.0282 17.7511L9.22398 17.1567ZM10.4317 18.4529C9.9995 18.4529 9.72985 18.4517 9.54723 18.4262C9.358 18.3997 9.42989 18.3678 9.47971 18.4572L8.60616 18.9439C8.79659 19.2857 9.1468 19.3799 9.40876 19.4166C9.67733 19.4541 10.0317 19.4529 10.4317 19.4529V18.4529ZM8.59216 18.9179C8.59668 18.9266 8.60134 18.9353 8.60615 18.9439L9.47972 18.4572L9.48014 18.458L8.59216 18.9179ZM11.1765 16.1975C11.557 15.6827 11.8123 15.339 12.013 15.1305C12.2455 14.8888 12.225 15.0202 12.0875 14.9781L12.3805 14.0219C11.8968 13.8737 11.5176 14.2031 11.2924 14.437C11.0354 14.7042 10.734 15.1137 10.3723 15.6031L11.1765 16.1975ZM13.0803 16.4537C13.0803 15.8542 13.0814 15.3508 13.0325 14.988C12.9897 14.6704 12.8753 14.1736 12.3805 14.0219L12.0875 14.9781C11.939 14.9325 11.9977 14.7967 12.0415 15.1215C12.0792 15.4011 12.0803 15.8215 12.0803 16.4537H13.0803Z" fill="#424242"/>
</svg>
