<svg width="24" height="24" viewBox="0 0 24 24" fill="none" xmlns="http://www.w3.org/2000/svg">
<path d="M6.28571 18.5C6.56186 18.5 6.78571 18.2761 6.78571 18C6.78571 17.7239 6.56186 17.5 6.28571 17.5V18.5ZM14.2161 6.55518C13.9554 6.64624 13.8179 6.93139 13.9089 7.19209C14 7.45278 14.2851 7.5903 14.5458 7.49924L14.2161 6.55518ZM8.39081 10.6596C8.62112 10.812 8.93133 10.7488 9.08368 10.5185C9.23603 10.2882 9.17284 9.97795 8.94252 9.82559L8.39081 10.6596ZM18.1551 7.01498L17.9933 7.48808H17.9933L18.1551 7.01498ZM17.3954 17.3833C17.1254 17.441 16.9533 17.7068 17.0111 17.9768C17.0688 18.2468 17.3345 18.4189 17.6046 18.3612L17.3954 17.3833ZM10 18.3078L9.67363 17.9291C9.51529 18.0655 9.45852 18.286 9.53128 18.4819C9.60405 18.6779 9.791 18.8078 10 18.8078V18.3078ZM14.2857 18.3078L14.6121 18.6867C14.7704 18.5502 14.8272 18.3297 14.7544 18.1338C14.6817 17.9378 14.4947 17.8078 14.2857 17.8078V18.3078ZM9.67365 21.6213C9.46444 21.8016 9.44096 22.1173 9.6212 22.3265C9.80144 22.5357 10.1171 22.5592 10.3264 22.379L9.67365 21.6213ZM14.6121 14.994C14.8213 14.8138 14.8448 14.4981 14.6645 14.2889C14.4843 14.0797 14.1685 14.0562 13.9593 14.2364L14.6121 14.994ZM7.2619 7.64706C7.2619 4.80998 9.59083 2.5 12.4762 2.5V1.5C9.04973 1.5 6.2619 4.24657 6.2619 7.64706H7.2619ZM6.28571 17.5C4.18933 17.5 2.5 15.8221 2.5 13.7647H1.5C1.5 16.3855 3.64823 18.5 6.28571 18.5V17.5ZM2.5 13.7647C2.5 11.7073 4.18933 10.0294 6.28571 10.0294V9.02941C3.64823 9.02941 1.5 11.1439 1.5 13.7647H2.5ZM14.5458 7.49924C15.0893 7.30943 15.6747 7.20588 16.2857 7.20588V6.20588C15.561 6.20588 14.8642 6.3288 14.2161 6.55518L14.5458 7.49924ZM6.28571 10.0294C6.53771 10.0294 6.78348 10.0536 7.02092 10.0997L7.2114 9.11802C6.91151 9.05983 6.60196 9.02941 6.28571 9.02941V10.0294ZM7.58434 9.43334C7.37594 8.87748 7.2619 8.27595 7.2619 7.64706H6.2619C6.2619 8.39779 6.39819 9.11812 6.64798 9.78439L7.58434 9.43334ZM7.02092 10.0997C7.51964 10.1965 7.98314 10.39 8.39081 10.6596L8.94252 9.82559C8.42742 9.48485 7.84153 9.24029 7.2114 9.11802L7.02092 10.0997ZM12.4762 2.5C15.1632 2.5 17.369 4.5044 17.6582 7.07097L18.6519 6.95898C18.3053 3.88302 15.6685 1.5 12.4762 1.5V2.5ZM16.2857 7.20588C16.8847 7.20588 17.459 7.30538 17.9933 7.48808L18.3169 6.54187C17.6797 6.32398 16.9961 6.20588 16.2857 6.20588V7.20588ZM17.9933 7.48808C20.0381 8.18732 21.5 10.1045 21.5 12.3529H22.5C22.5 9.65773 20.7478 7.37315 18.3169 6.54187L17.9933 7.48808ZM21.5 12.3529C21.5 14.8153 19.7461 16.8806 17.3954 17.3833L17.6046 18.3612C20.3991 17.7636 22.5 15.3046 22.5 12.3529H21.5ZM10 18.8078H14.2857V17.8078H10V18.8078ZM13.9594 17.929L9.67365 21.6213L10.3264 22.379L14.6121 18.6867L13.9594 17.929ZM13.9593 14.2364L9.67363 17.9291L10.3264 18.6866L14.6121 14.994L13.9593 14.2364Z" fill="#424242"/>
</svg>
