<svg width="24" height="24" viewBox="0 0 24 24" fill="none" xmlns="http://www.w3.org/2000/svg">
<path d="M9 2.0551L8.97511 1.55572L9 2.0551ZM9 21.9449L8.97511 22.4443L9 21.9449ZM15 2.0551L15.0249 1.55572L15 2.0551ZM15 21.9449L15.0249 22.4443L15 21.9449ZM1.5 12C1.5 14.3429 1.49894 16.1504 1.68752 17.553C1.87803 18.97 2.2703 20.0485 3.11091 20.8891L3.81802 20.182C3.19417 19.5581 2.8542 18.7259 2.6786 17.4197C2.50106 16.0992 2.5 14.3712 2.5 12H1.5ZM21.5 12C21.5 14.3712 21.4989 16.0992 21.3214 17.4197C21.1458 18.7259 20.8058 19.5581 20.182 20.182L20.8891 20.8891C21.7297 20.0485 22.122 18.97 22.3125 17.553C22.5011 16.1504 22.5 14.3429 22.5 12H21.5ZM22.5 12C22.5 9.65711 22.5011 7.84965 22.3125 6.44702C22.122 5.03 21.7297 3.95153 20.8891 3.11091L20.182 3.81802C20.8058 4.44187 21.1458 5.27414 21.3214 6.58026C21.4989 7.90077 21.5 9.62884 21.5 12H22.5ZM2.5 12C2.5 9.62884 2.50106 7.90077 2.6786 6.58026C2.8542 5.27414 3.19417 4.44187 3.81802 3.81802L3.11091 3.11091C2.2703 3.95153 1.87803 5.03 1.68752 6.44702C1.49894 7.84965 1.5 9.65711 1.5 12H2.5ZM12 1.5C10.4185 1.5 10.0934 1.49998 8.97511 1.55572L9.02489 2.55448C10.1174 2.50002 10.4222 2.5 12 2.5V1.5ZM8.97511 1.55572C7.86676 1.61097 6.69484 1.72169 5.6676 1.94727C4.66058 2.1684 3.70414 2.51768 3.11091 3.11091L3.81802 3.81802C4.19853 3.43751 4.91313 3.13677 5.88208 2.924C6.83082 2.71566 7.9398 2.60857 9.02489 2.55448L8.97511 1.55572ZM12 21.5C10.4222 21.5 10.1174 21.5 9.02489 21.4455L8.97511 22.4443C10.0934 22.5 10.4185 22.5 12 22.5V21.5ZM9.02489 21.4455C7.9398 21.3914 6.83082 21.2843 5.88208 21.076C4.91313 20.8632 4.19853 20.5625 3.81802 20.182L3.11091 20.8891C3.70414 21.4823 4.66058 21.8316 5.6676 22.0527C6.69484 22.2783 7.86676 22.389 8.97511 22.4443L9.02489 21.4455ZM8.5 2.0551V21.9449H9.5V2.0551H8.5ZM12 2.5C13.5778 2.5 13.8826 2.50002 14.9751 2.55448L15.0249 1.55572C13.9066 1.49998 13.5815 1.5 12 1.5V2.5ZM14.9751 2.55448C16.0602 2.60857 17.1692 2.71566 18.1179 2.924C19.0869 3.13677 19.8015 3.43751 20.182 3.81802L20.8891 3.11091C20.2959 2.51768 19.3394 2.1684 18.3324 1.94727C17.3052 1.72169 16.1332 1.61097 15.0249 1.55572L14.9751 2.55448ZM12 22.5C13.5815 22.5 13.9066 22.5 15.0249 22.4443L14.9751 21.4455C13.8826 21.5 13.5778 21.5 12 21.5V22.5ZM15.0249 22.4443C16.1333 22.389 17.3052 22.2783 18.3324 22.0527C19.3394 21.8316 20.2959 21.4823 20.8891 20.8891L20.182 20.182C19.8015 20.5625 19.0869 20.8632 18.1179 21.076C17.1692 21.2843 16.0602 21.3914 14.9751 21.4455L15.0249 22.4443ZM14.5 2.0551L14.5 21.9449H15.5L15.5 2.0551L14.5 2.0551Z" fill="#424242"/>
</svg>
