<svg width="24" height="24" viewBox="0 0 24 24" fill="none" xmlns="http://www.w3.org/2000/svg">
<path d="M7.93873 22C6.29847 22 4.96937 20.6709 4.96937 19.0306V14.9857C4.96937 13.3512 3.64963 12.0257 2.01738 12.0164C2.00783 12.0163 2 12.0086 2 11.999C2 11.9895 2.00783 11.9818 2.01738 11.9817C3.64963 11.9724 4.96937 10.6469 4.96937 9.01239V4.96937C4.96937 3.32911 6.29847 2 7.93873 2M16.0613 2C17.7015 2 19.0306 3.32911 19.0306 4.96937V9.01431C19.0306 10.6488 20.3504 11.9743 21.9826 11.9836C21.9922 11.9837 22 11.9914 22 12.001C22 12.0105 21.9922 12.0182 21.9826 12.0183C20.3504 12.0276 19.0306 13.3532 19.0306 14.9876L19.0306 19.0306C19.0306 20.6709 17.7015 22 16.0613 22" stroke="#424242" stroke-linecap="round"/>
</svg>
