<svg width="24" height="24" viewBox="0 0 24 24" fill="none" xmlns="http://www.w3.org/2000/svg">
<path d="M7.7 11.6C7.47909 11.7657 7.43431 12.0791 7.6 12.3C7.76569 12.5209 8.07909 12.5657 8.3 12.4L7.7 11.6ZM10 10.5L10.3 10.9C10.4259 10.8056 10.5 10.6574 10.5 10.5C10.5 10.3426 10.4259 10.1944 10.3 10.1L10 10.5ZM8.3 8.6C8.07909 8.43431 7.76569 8.47909 7.6 8.7C7.43431 8.92091 7.47909 9.23431 7.7 9.4L8.3 8.6ZM15.7 12.4C15.9209 12.5657 16.2343 12.5209 16.4 12.3C16.5657 12.0791 16.5209 11.7657 16.3 11.6L15.7 12.4ZM14 10.5L13.7 10.1C13.5741 10.1944 13.5 10.3426 13.5 10.5C13.5 10.6574 13.5741 10.8056 13.7 10.9L14 10.5ZM16.3 9.4C16.5209 9.23431 16.5657 8.92091 16.4 8.7C16.2343 8.47909 15.9209 8.43431 15.7 8.6L16.3 9.4ZM15.7 16.4C15.9209 16.5657 16.2343 16.5209 16.4 16.3C16.5657 16.0791 16.5209 15.7657 16.3 15.6L15.7 16.4ZM14.6667 15L14.9667 14.6C14.7889 14.4667 14.5444 14.4667 14.3667 14.6L14.6667 15ZM13.3333 16L13.0333 16.4C13.2111 16.5333 13.4556 16.5333 13.6333 16.4L13.3333 16ZM12 15L12.3 14.6C12.1222 14.4667 11.8778 14.4667 11.7 14.6L12 15ZM10.6667 16L10.3667 16.4C10.5444 16.5333 10.7889 16.5333 10.9667 16.4L10.6667 16ZM9.33333 15L9.63333 14.6C9.45556 14.4667 9.21111 14.4667 9.03333 14.6L9.33333 15ZM7.7 15.6C7.47909 15.7657 7.43431 16.0791 7.6 16.3C7.76569 16.5209 8.07909 16.5657 8.3 16.4L7.7 15.6ZM12 21.5C9.62884 21.5 7.90077 21.4989 6.58026 21.3214C5.27414 21.1458 4.44187 20.8058 3.81802 20.182L3.11091 20.8891C3.95153 21.7297 5.03 22.122 6.44702 22.3125C7.84965 22.5011 9.65711 22.5 12 22.5V21.5ZM1.5 12C1.5 14.3429 1.49894 16.1504 1.68752 17.553C1.87803 18.97 2.2703 20.0485 3.11091 20.8891L3.81802 20.182C3.19417 19.5581 2.8542 18.7259 2.6786 17.4197C2.50106 16.0992 2.5 14.3712 2.5 12H1.5ZM21.5 12C21.5 14.3712 21.4989 16.0992 21.3214 17.4197C21.1458 18.7259 20.8058 19.5581 20.182 20.182L20.8891 20.8891C21.7297 20.0485 22.122 18.97 22.3125 17.553C22.5011 16.1504 22.5 14.3429 22.5 12H21.5ZM12 22.5C14.3429 22.5 16.1504 22.5011 17.553 22.3125C18.97 22.122 20.0485 21.7297 20.8891 20.8891L20.182 20.182C19.5581 20.8058 18.7259 21.1458 17.4197 21.3214C16.0992 21.4989 14.3712 21.5 12 21.5V22.5ZM12 2.5C14.3712 2.5 16.0992 2.50106 17.4197 2.6786C18.7259 2.8542 19.5581 3.19417 20.182 3.81802L20.8891 3.11091C20.0485 2.2703 18.97 1.87803 17.553 1.68752C16.1504 1.49894 14.3429 1.5 12 1.5V2.5ZM22.5 12C22.5 9.65711 22.5011 7.84965 22.3125 6.44702C22.122 5.03 21.7297 3.95153 20.8891 3.11091L20.182 3.81802C20.8058 4.44187 21.1458 5.27414 21.3214 6.58026C21.4989 7.90077 21.5 9.62884 21.5 12H22.5ZM12 1.5C9.65711 1.5 7.84965 1.49894 6.44702 1.68752C5.03 1.87803 3.95153 2.2703 3.11091 3.11091L3.81802 3.81802C4.44187 3.19417 5.27414 2.8542 6.58026 2.6786C7.90077 2.50106 9.62884 2.5 12 2.5V1.5ZM2.5 12C2.5 9.62884 2.50106 7.90077 2.6786 6.58026C2.8542 5.27414 3.19417 4.44187 3.81802 3.81802L3.11091 3.11091C2.2703 3.95153 1.87803 5.03 1.68752 6.44702C1.49894 7.84965 1.5 9.65711 1.5 12H2.5ZM8.3 12.4L10.3 10.9L9.7 10.1L7.7 11.6L8.3 12.4ZM10.3 10.1L8.3 8.6L7.7 9.4L9.7 10.9L10.3 10.1ZM16.3 11.6L14.3 10.1L13.7 10.9L15.7 12.4L16.3 11.6ZM14.3 10.9L16.3 9.4L15.7 8.6L13.7 10.1L14.3 10.9ZM16.3 15.6L14.9667 14.6L14.3667 15.4L15.7 16.4L16.3 15.6ZM14.3667 14.6L13.0333 15.6L13.6333 16.4L14.9667 15.4L14.3667 14.6ZM13.6333 15.6L12.3 14.6L11.7 15.4L13.0333 16.4L13.6333 15.6ZM11.7 14.6L10.3667 15.6L10.9667 16.4L12.3 15.4L11.7 14.6ZM10.9667 15.6L9.63333 14.6L9.03333 15.4L10.3667 16.4L10.9667 15.6ZM9.03333 14.6L7.7 15.6L8.3 16.4L9.63333 15.4L9.03333 14.6Z" fill="#424242"/>
</svg>
