<svg width="24" height="24" viewBox="0 0 24 24" fill="none" xmlns="http://www.w3.org/2000/svg">
<path d="M5.70156 10.6933L6.17591 10.8514L5.70156 10.6933ZM4.01207 15.7618L3.53773 15.6037L4.01207 15.7618ZM8.23724 19.987L8.07913 19.5126V19.5126L8.23724 19.987ZM13.3057 18.2975L13.1476 17.8231V17.8231L13.3057 18.2975ZM14.6114 12.7666L14.2578 13.1202V13.1202L14.6114 12.7666ZM11.2324 9.38764L11.5859 9.03408V9.03408L11.2324 9.38764ZM7.75684 7.03229L7.87172 7.51891V7.51891L7.75684 7.03229ZM11.7607 18.5039C11.8477 18.7659 12.1308 18.9078 12.3928 18.8207C12.6549 18.7336 12.7967 18.4505 12.7096 18.1885L11.7607 18.5039ZM12.7096 10.9221C12.7967 10.6601 12.6549 10.3771 12.3928 10.29C12.1308 10.2029 11.8477 10.3447 11.7607 10.6067L12.7096 10.9221ZM7.57818 19.5968C7.64076 19.8657 7.90953 20.033 8.17849 19.9704C8.44745 19.9079 8.61474 19.6391 8.55216 19.3701L7.57818 19.5968ZM7.307 14.9344L7.80593 14.9017V14.9017L7.307 14.9344ZM8.55483 7.45382C8.6107 7.18339 8.43676 6.91887 8.16633 6.863C7.8959 6.80713 7.63138 6.98107 7.57551 7.2515L8.55483 7.45382ZM14.019 9.90802C13.9648 10.1788 14.1404 10.4422 14.4112 10.4964C14.682 10.5505 14.9454 10.3749 14.9996 10.1041L14.019 9.90802ZM14.6533 9.28614L14.163 9.18808V9.18808L14.6533 9.28614ZM17.398 6.17697L17.8883 6.27503V6.27502L17.398 6.17697ZM18.0323 5.55509C18.0864 5.28431 17.9108 5.0209 17.64 4.96674C17.3693 4.91259 17.1058 5.08819 17.0517 5.35897L18.0323 5.55509ZM16.0256 7.73155L15.8675 7.25721L15.8675 7.25721L16.0256 7.73155ZM17.8188 11.8206C17.5797 11.6825 17.2739 11.7644 17.1358 12.0036C16.9978 12.2427 17.0797 12.5485 17.3188 12.6866L17.8188 11.8206ZM17.7817 12.3765L17.5317 12.8095V12.8095L17.7817 12.3765ZM21.7085 11.8725L21.5082 12.3307V12.3307L21.7085 11.8725ZM21.7997 12.4581C22.0527 12.5687 22.3475 12.4533 22.4581 12.2003C22.5687 11.9473 22.4533 11.6525 22.2003 11.5419L21.7997 12.4581ZM19.8327 12.1688L19.501 11.7947V11.7947L19.8327 12.1688ZM10.8377 4.81885L11.1913 4.4653V4.4653L10.8377 4.81885ZM10.7399 4.72097L10.3863 5.07453L10.3863 5.07453L10.7399 4.72097ZM10.9618 3.26079C11.1059 3.02519 11.0316 2.71743 10.796 2.5734C10.5604 2.42937 10.2527 2.5036 10.1086 2.73921L10.9618 3.26079ZM10.7364 6.17715C10.6565 6.44148 10.806 6.72053 11.0703 6.80043C11.3347 6.88033 11.6137 6.73082 11.6936 6.46649L10.7364 6.17715ZM13.2226 5.11636L13.6992 4.96527L13.2226 5.11636ZM13.2226 4.81418L13.6992 4.96527L13.2226 4.81418ZM14.281 5.87262L14.1299 5.39599L14.281 5.87262ZM13.9788 5.87262L14.1299 5.39599L13.9788 5.87262ZM15.0373 4.81418L14.5607 4.96527L15.0373 4.81418ZM15.0373 5.11636L14.5607 4.96527L15.0373 5.11636ZM14.281 4.05792L14.1299 4.53455L14.281 4.05792ZM13.9788 4.05792L14.1299 4.53455L13.9788 4.05792ZM19.4682 7.46822L19.1147 7.11467V7.11467L19.4682 7.46822ZM19.9747 7.04681L20.1545 7.51337V7.51337L19.9747 7.04681ZM20.4781 7.04681L20.6578 6.58024V6.58024L20.4781 7.04681ZM20.9846 7.46822L20.631 7.82178V7.82178L20.9846 7.46822ZM21.406 7.97472L21.8726 7.79496V7.79496L21.406 7.97472ZM21.406 8.47807L21.8726 8.65784V8.65784L21.406 8.47807ZM20.9846 8.98457L20.631 8.63102V8.63102L20.9846 8.98457ZM20.4781 9.40599L20.6578 9.87256V9.87256L20.4781 9.40599ZM19.9747 9.40599L19.795 9.87256V9.87256L19.9747 9.40599ZM19.4682 8.98457L19.8218 8.63102V8.63102L19.4682 8.98457ZM19.0468 8.47807L18.5802 8.65784V8.65784L19.0468 8.47807ZM19.0468 7.97472L19.5134 8.15449V8.15449L19.0468 7.97472ZM5.70156 10.6933L5.22722 10.5352L3.53773 15.6037L4.01207 15.7618L4.48641 15.9199L6.17591 10.8514L5.70156 10.6933ZM8.23724 19.987L8.39535 20.4613L13.4638 18.7718L13.3057 18.2975L13.1476 17.8231L8.07913 19.5126L8.23724 19.987ZM14.6114 12.7666L14.9649 12.4131L11.5859 9.03408L11.2324 9.38764L10.8788 9.74119L14.2578 13.1202L14.6114 12.7666ZM13.3057 18.2975L13.4638 18.7718C14.597 18.3941 15.5016 18.094 16.1438 17.7684C16.7927 17.4395 17.2957 17.025 17.4534 16.3571L16.9667 16.2422L16.4801 16.1273C16.4238 16.3657 16.2454 16.5958 15.6917 16.8764C15.1314 17.1604 14.3125 17.4348 13.1476 17.8231L13.3057 18.2975ZM14.6114 12.7666L14.2578 13.1202C15.1261 13.9884 15.7359 14.6001 16.11 15.1047C16.4797 15.6033 16.5364 15.889 16.4801 16.1273L16.9667 16.2422L17.4534 16.3571C17.611 15.6891 17.3465 15.0934 16.9133 14.5091C16.4844 13.9307 15.8095 13.2577 14.9649 12.4131L14.6114 12.7666ZM4.01207 15.7618L3.53773 15.6037C3.0822 16.9702 2.72119 18.0491 2.574 18.8765C2.42745 19.7003 2.45997 20.4476 3.00569 20.9933L3.35924 20.6398L3.7128 20.2862C3.52863 20.1021 3.42666 19.7931 3.55854 19.0517C3.68978 18.3139 4.02013 17.3187 4.48641 15.9199L4.01207 15.7618ZM8.23724 19.987L8.07913 19.5126C6.68028 19.9789 5.6851 20.3092 4.94735 20.4405C4.20597 20.5724 3.89696 20.4704 3.7128 20.2862L3.35924 20.6398L3.00569 20.9933C3.5514 21.5391 4.29869 21.5716 5.12249 21.425C5.94991 21.2778 7.02879 20.9168 8.39535 20.4613L8.23724 19.987ZM5.70156 10.6933L6.17591 10.8514C6.5642 9.68651 6.83858 8.86757 7.12259 8.30732C7.40325 7.75365 7.63337 7.57518 7.87172 7.51891L7.75684 7.03229L7.64197 6.54566C6.97406 6.70333 6.55954 7.20635 6.23064 7.85518C5.90507 8.49743 5.60494 9.40203 5.22722 10.5352L5.70156 10.6933ZM11.2324 9.38764L11.5859 9.03408C10.7413 8.18949 10.0684 7.51462 9.48993 7.08576C8.90558 6.65252 8.30988 6.38799 7.64197 6.54566L7.75684 7.03229L7.87172 7.51891C8.11007 7.46265 8.39571 7.51936 8.89435 7.88906C9.39892 8.26316 10.0106 8.87293 10.8788 9.74119L11.2324 9.38764ZM12.2351 18.3462C12.7096 18.1885 12.7096 18.1885 12.7096 18.1885C12.7096 18.1885 12.7096 18.1886 12.7096 18.1886C12.7096 18.1886 12.7096 18.1885 12.7096 18.1884C12.7095 18.1883 12.7094 18.188 12.7093 18.1876C12.709 18.1867 12.7086 18.1853 12.7079 18.1834C12.7067 18.1795 12.7047 18.1736 12.7021 18.1656C12.6969 18.1496 12.6891 18.1255 12.6791 18.094C12.6591 18.031 12.6303 17.9386 12.5957 17.8228C12.5262 17.5909 12.4336 17.2661 12.3411 16.8958C12.1533 16.1436 11.977 15.2456 11.977 14.5553H11.477H10.977C10.977 15.3748 11.1797 16.3723 11.3709 17.138C11.468 17.5267 11.5649 17.8666 11.6377 18.1096C11.6741 18.2312 11.7045 18.3288 11.726 18.3965C11.7367 18.4303 11.7452 18.4567 11.7511 18.4748C11.7541 18.4839 11.7564 18.4909 11.758 18.4958C11.7588 18.4982 11.7594 18.5001 11.7599 18.5015C11.7601 18.5022 11.7603 18.5027 11.7604 18.5031C11.7605 18.5033 11.7605 18.5035 11.7606 18.5036C11.7606 18.5037 11.7606 18.5037 11.7606 18.5038C11.7606 18.5038 11.7607 18.5039 12.2351 18.3462ZM11.477 14.5553H11.977C11.977 13.8651 12.1533 12.9671 12.3411 12.2149C12.4336 11.8445 12.5262 11.5198 12.5957 11.2878C12.6303 11.172 12.6591 11.0796 12.6791 11.0167C12.6891 10.9852 12.6969 10.9611 12.7021 10.9451C12.7047 10.9371 12.7067 10.9311 12.7079 10.9272C12.7086 10.9253 12.709 10.9239 12.7093 10.9231C12.7094 10.9226 12.7095 10.9223 12.7096 10.9222C12.7096 10.9221 12.7096 10.9221 12.7096 10.9221C12.7096 10.9221 12.7096 10.9221 12.7096 10.9221C12.7096 10.9221 12.7096 10.9221 12.2351 10.7644C11.7607 10.6067 11.7606 10.6068 11.7606 10.6069C11.7606 10.6069 11.7606 10.607 11.7606 10.607C11.7605 10.6072 11.7605 10.6073 11.7604 10.6075C11.7603 10.6079 11.7601 10.6085 11.7599 10.6091C11.7594 10.6105 11.7588 10.6124 11.758 10.6148C11.7564 10.6197 11.7541 10.6267 11.7511 10.6358C11.7452 10.654 11.7367 10.6803 11.726 10.7142C11.7045 10.7818 11.6741 10.8795 11.6377 11.0011C11.5649 11.244 11.468 11.584 11.3709 11.9726C11.1797 12.7384 10.977 13.7358 10.977 14.5553H11.477ZM8.06517 19.4834C8.55216 19.3701 8.55217 19.3701 8.55217 19.3701C8.55216 19.3701 8.55216 19.3701 8.55216 19.3701C8.55214 19.3701 8.55212 19.37 8.55209 19.3698C8.55203 19.3696 8.55193 19.3691 8.55179 19.3685C8.55151 19.3673 8.55108 19.3655 8.55051 19.363C8.54936 19.358 8.54762 19.3504 8.54532 19.3404C8.54073 19.3204 8.53394 19.2906 8.52521 19.2518C8.50775 19.1743 8.48259 19.0612 8.45198 18.9197C8.39074 18.6365 8.30785 18.2404 8.22135 17.7888C8.04725 16.8799 7.86272 15.7678 7.80593 14.9017L7.307 14.9344L6.80807 14.9671C6.86912 15.8981 7.06368 17.0606 7.2392 17.9769C7.32752 18.438 7.41207 18.8421 7.47458 19.1311C7.50584 19.2756 7.53163 19.3916 7.54965 19.4716C7.55866 19.5116 7.56573 19.5426 7.57058 19.5638C7.57301 19.5744 7.57488 19.5825 7.57615 19.588C7.57679 19.5908 7.57729 19.5929 7.57762 19.5944C7.57779 19.5951 7.57793 19.5957 7.57802 19.5961C7.57807 19.5963 7.5781 19.5964 7.57813 19.5965C7.57814 19.5966 7.57816 19.5967 7.57816 19.5967C7.57817 19.5967 7.57818 19.5968 8.06517 19.4834ZM7.307 14.9344L7.80593 14.9017C7.71211 13.4709 7.89517 11.6179 8.10822 10.0995C8.21406 9.34523 8.32598 8.68245 8.4114 8.20844C8.45409 7.97153 8.49012 7.78205 8.5154 7.65217C8.52804 7.58724 8.53798 7.53723 8.54473 7.50365C8.5481 7.48687 8.55067 7.4742 8.55237 7.46583C8.55323 7.46164 8.55386 7.45853 8.55428 7.45652C8.55448 7.45552 8.55463 7.45479 8.55473 7.45434C8.55477 7.45411 8.5548 7.45395 8.55482 7.45387C8.55483 7.45382 8.55483 7.45381 8.55484 7.45379C8.55484 7.4538 8.55483 7.45382 8.06517 7.35266C7.57551 7.2515 7.5755 7.25156 7.57548 7.25164C7.57547 7.25169 7.57545 7.25178 7.57543 7.25188C7.57539 7.25207 7.57534 7.25233 7.57527 7.25267C7.57513 7.25334 7.57494 7.25428 7.57469 7.25551C7.57419 7.25796 7.57346 7.26151 7.57251 7.26614C7.57063 7.27541 7.56787 7.289 7.56431 7.30672C7.55719 7.34216 7.54685 7.39415 7.53382 7.46113C7.50774 7.5951 7.47085 7.78917 7.42725 8.03108C7.3401 8.5147 7.22596 9.19062 7.11792 9.96059C6.9032 11.4908 6.70718 13.4286 6.80807 14.9671L7.307 14.9344ZM14.5093 10.0061L14.9996 10.1041L15.1436 9.3842L14.6533 9.28614L14.163 9.18808L14.019 9.90802L14.5093 10.0061ZM17.398 6.17697L17.8883 6.27502L18.0323 5.55509L17.542 5.45703L17.0517 5.35897L16.9077 6.07891L17.398 6.17697ZM16.0256 7.73155L16.1837 8.20589C17.0572 7.91474 17.7077 7.17787 17.8883 6.27503L17.398 6.17697L16.9077 6.07891C16.7975 6.62986 16.4005 7.07953 15.8675 7.25721L16.0256 7.73155ZM14.6533 9.28614L15.1436 9.3842C15.2537 8.83324 15.6507 8.38357 16.1837 8.20589L16.0256 7.73155L15.8675 7.25721C14.994 7.54837 14.3435 8.28524 14.163 9.18808L14.6533 9.28614ZM17.5688 12.2536L17.3188 12.6866L17.5317 12.8095L17.7817 12.3765L18.0317 11.9434L17.8188 11.8206L17.5688 12.2536ZM21.7085 11.8725L21.5082 12.3307L21.7997 12.4581L22 12L22.2003 11.5419L21.9088 11.4144L21.7085 11.8725ZM19.8327 12.1688L20.1644 12.5429C20.5327 12.2163 21.0572 12.1335 21.5082 12.3307L21.7085 11.8725L21.9088 11.4144C21.1007 11.0611 20.1609 11.2095 19.501 11.7947L19.8327 12.1688ZM17.7817 12.3765L17.5317 12.8095C18.3752 13.2965 19.4357 13.1891 20.1644 12.5429L19.8327 12.1688L19.501 11.7947C19.0943 12.1553 18.5024 12.2152 18.0317 11.9434L17.7817 12.3765ZM10.8377 4.81885L11.1913 4.4653L11.0934 4.36742L10.7399 4.72097L10.3863 5.07453L10.4842 5.17241L10.8377 4.81885ZM10.7399 4.72097L11.0934 4.36742C10.7992 4.07322 10.7448 3.61578 10.9618 3.26079L10.5352 3L10.1086 2.73921C9.65067 3.48834 9.76545 4.45367 10.3863 5.07453L10.7399 4.72097ZM11.215 6.32182L11.6936 6.46649C11.9078 5.75783 11.7148 4.98879 11.1913 4.4653L10.8377 4.81885L10.4842 5.17241C10.747 5.43524 10.8439 5.82135 10.7364 6.17715L11.215 6.32182ZM13.561 5.53418L13.9146 5.18063C13.8081 5.07418 13.7502 5.01564 13.7118 4.97034C13.6773 4.92961 13.6893 4.93407 13.6992 4.96527L13.2226 5.11636L12.746 5.26746C12.7927 5.41489 12.8734 5.52773 12.9487 5.61659C13.02 5.70088 13.1129 5.79314 13.2075 5.88774L13.561 5.53418ZM13.561 4.39635L13.2075 4.0428C13.1129 4.1374 13.02 4.22966 12.9487 4.31395C12.8734 4.40281 12.7927 4.51565 12.746 4.66308L13.2226 4.81418L13.6992 4.96527C13.6893 4.99647 13.6773 5.00092 13.7118 4.9602C13.7502 4.9149 13.8081 4.85636 13.9146 4.74991L13.561 4.39635ZM13.2226 5.11636L13.6992 4.96527V4.96527L13.2226 4.81418L12.746 4.66308C12.6836 4.85972 12.6836 5.07082 12.746 5.26746L13.2226 5.11636ZM14.6989 5.53418L14.3453 5.18063C14.2388 5.28709 14.1803 5.34505 14.135 5.38342C14.0943 5.41791 14.0987 5.40588 14.1299 5.39599L14.281 5.87262L14.4321 6.34924C14.5796 6.3025 14.6924 6.22179 14.7813 6.14654C14.8656 6.07516 14.9578 5.98234 15.0524 5.88774L14.6989 5.53418ZM13.561 5.53418L13.2075 5.88774C13.3021 5.98234 13.3943 6.07516 13.4786 6.14654C13.5675 6.22179 13.6803 6.3025 13.8278 6.34924L13.9788 5.87262L14.1299 5.39599C14.1611 5.40588 14.1656 5.41791 14.1249 5.38342C14.0796 5.34505 14.021 5.28709 13.9146 5.18063L13.561 5.53418ZM14.281 5.87262L14.1299 5.39599H14.1299L13.9788 5.87262L13.8278 6.34924C14.0244 6.41158 14.2355 6.41158 14.4321 6.34924L14.281 5.87262ZM14.6989 4.39635L14.3453 4.74991C14.4518 4.85636 14.5097 4.9149 14.5481 4.9602C14.5826 5.00092 14.5706 4.99647 14.5607 4.96527L15.0373 4.81418L15.5139 4.66308C15.4672 4.51565 15.3865 4.40281 15.3112 4.31395C15.2398 4.22966 15.147 4.1374 15.0524 4.0428L14.6989 4.39635ZM14.6989 5.53418L15.0524 5.88774C15.147 5.79314 15.2398 5.70088 15.3112 5.61659C15.3865 5.52773 15.4672 5.41489 15.5139 5.26746L15.0373 5.11636L14.5607 4.96527C14.5706 4.93407 14.5826 4.92961 14.5481 4.97034C14.5097 5.01564 14.4518 5.07418 14.3453 5.18063L14.6989 5.53418ZM15.0373 4.81418L14.5607 4.96527V4.96527L15.0373 5.11636L15.5139 5.26746C15.5763 5.07082 15.5763 4.85972 15.5139 4.66308L15.0373 4.81418ZM14.6989 4.39635L15.0524 4.0428C14.9578 3.9482 14.8656 3.85537 14.7813 3.784C14.6924 3.70875 14.5796 3.62803 14.4321 3.5813L14.281 4.05792L14.1299 4.53455C14.0987 4.52466 14.0943 4.51263 14.135 4.54712C14.1803 4.58548 14.2388 4.64345 14.3453 4.74991L14.6989 4.39635ZM13.561 4.39635L13.9146 4.74991C14.021 4.64345 14.0796 4.58548 14.1249 4.54712C14.1656 4.51263 14.1611 4.52466 14.1299 4.53455L13.9788 4.05792L13.8278 3.5813C13.6803 3.62803 13.5675 3.70875 13.4786 3.784C13.3943 3.85537 13.3021 3.9482 13.2075 4.0428L13.561 4.39635ZM14.281 4.05792L14.4321 3.5813C14.2355 3.51896 14.0244 3.51896 13.8278 3.5813L13.9788 4.05792L14.1299 4.53455H14.1299L14.281 4.05792ZM19.4682 7.46822L19.8218 7.82178C19.9496 7.69393 20.0269 7.6171 20.0886 7.56369C20.1467 7.5135 20.1616 7.51062 20.1545 7.51337L19.9747 7.04681L19.795 6.58024C19.6494 6.63632 19.5338 6.72146 19.4345 6.80729C19.339 6.88992 19.2322 6.99713 19.1147 7.11467L19.4682 7.46822ZM19.9747 7.04681L20.1545 7.51337C20.2008 7.49554 20.252 7.49554 20.2983 7.51337L20.4781 7.04681L20.6578 6.58024C20.3802 6.47325 20.0726 6.47325 19.795 6.58024L19.9747 7.04681ZM20.4781 7.04681L20.2983 7.51337C20.2912 7.51062 20.3061 7.5135 20.3642 7.56369C20.4259 7.6171 20.5032 7.69393 20.631 7.82178L20.9846 7.46822L21.3381 7.11467C21.2206 6.99713 21.1138 6.88992 21.0183 6.80729C20.919 6.72146 20.8034 6.63632 20.6578 6.58024L20.4781 7.04681ZM20.9846 7.46822L20.631 7.82178C20.7589 7.94963 20.8357 8.02689 20.8891 8.08865C20.9393 8.14669 20.9422 8.16163 20.9394 8.15449L21.406 7.97472L21.8726 7.79496C21.8165 7.64941 21.7313 7.53379 21.6455 7.43453C21.5629 7.33899 21.4557 7.23221 21.3381 7.11467L20.9846 7.46822ZM21.406 7.97472L20.9394 8.15449C20.9573 8.20077 20.9573 8.25203 20.9394 8.29831L21.406 8.47807L21.8726 8.65784C21.9795 8.38016 21.9795 8.07264 21.8726 7.79496L21.406 7.97472ZM21.406 8.47807L20.9394 8.29831C20.9422 8.29117 20.9393 8.30611 20.8891 8.36415C20.8357 8.4259 20.7589 8.50317 20.631 8.63102L20.9846 8.98457L21.3381 9.33813C21.4557 9.22058 21.5629 9.11381 21.6455 9.01826C21.7313 8.91901 21.8165 8.80339 21.8726 8.65784L21.406 8.47807ZM20.9846 8.98457L20.631 8.63102C20.5032 8.75887 20.4259 8.8357 20.3642 8.88911C20.3061 8.9393 20.2912 8.94217 20.2983 8.93942L20.4781 9.40599L20.6578 9.87256C20.8034 9.81648 20.919 9.73134 21.0183 9.6455C21.1138 9.56288 21.2206 9.45567 21.3381 9.33813L20.9846 8.98457ZM20.4781 9.40599L20.2983 8.93942C20.252 8.95725 20.2008 8.95725 20.1545 8.93942L19.9747 9.40599L19.795 9.87256C20.0726 9.97954 20.3802 9.97954 20.6578 9.87256L20.4781 9.40599ZM19.9747 9.40599L20.1545 8.93942C20.1616 8.94217 20.1467 8.9393 20.0886 8.88911C20.0269 8.8357 19.9496 8.75887 19.8218 8.63102L19.4682 8.98457L19.1147 9.33813C19.2322 9.45567 19.339 9.56288 19.4345 9.6455C19.5338 9.73134 19.6494 9.81648 19.795 9.87256L19.9747 9.40599ZM19.4682 8.98457L19.8218 8.63102C19.6939 8.50317 19.6171 8.4259 19.5637 8.36415C19.5135 8.30611 19.5106 8.29117 19.5134 8.29831L19.0468 8.47807L18.5802 8.65784C18.6363 8.80339 18.7215 8.91901 18.8073 9.01826C18.8899 9.11381 18.9971 9.22058 19.1147 9.33813L19.4682 8.98457ZM19.0468 8.47807L19.5134 8.29831C19.4955 8.25203 19.4955 8.20077 19.5134 8.15449L19.0468 7.97472L18.5802 7.79496C18.4733 8.07264 18.4733 8.38016 18.5802 8.65784L19.0468 8.47807ZM19.0468 7.97472L19.5134 8.15449C19.5106 8.16163 19.5135 8.14669 19.5637 8.08865C19.6171 8.02689 19.6939 7.94963 19.8218 7.82178L19.4682 7.46822L19.1147 7.11467C18.9971 7.23221 18.8899 7.33899 18.8073 7.43453C18.7215 7.53379 18.6363 7.64941 18.5802 7.79496L19.0468 7.97472ZM6.92712 4.69935L7.28067 4.34579C7.26647 4.33159 7.26647 4.30855 7.28067 4.29435L6.92712 3.94079L6.57357 3.58724C6.16884 3.99197 6.16884 4.64817 6.57357 5.0529L6.92712 4.69935ZM7.68567 4.69935L7.33212 4.34579C7.31791 4.36 7.29488 4.36 7.28067 4.34579L6.92712 4.69935L6.57357 5.0529C6.9783 5.45763 7.6345 5.45763 8.03923 5.0529L7.68567 4.69935ZM7.68567 3.94079L7.33212 4.29435C7.34633 4.30855 7.34633 4.33159 7.33212 4.34579L7.68567 4.69935L8.03923 5.0529C8.44396 4.64817 8.44396 3.99197 8.03923 3.58724L7.68567 3.94079ZM7.68567 3.94079L8.03923 3.58724C7.6345 3.18251 6.9783 3.18251 6.57357 3.58724L6.92712 3.94079L7.28067 4.29435C7.29488 4.28014 7.31791 4.28014 7.33212 4.29435L7.68567 3.94079ZM19.058 16.0719L19.4115 15.7184C19.3973 15.7041 19.3973 15.6811 19.4115 15.6669L19.058 15.3134L18.7044 14.9598C18.2997 15.3645 18.2997 16.0207 18.7044 16.4255L19.058 16.0719ZM19.8165 16.0719L19.463 15.7184C19.4488 15.7326 19.4257 15.7326 19.4115 15.7184L19.058 16.0719L18.7044 16.4255C19.1092 16.8302 19.7654 16.8302 20.1701 16.4255L19.8165 16.0719ZM19.8165 15.3134L19.463 15.6669C19.4772 15.6811 19.4772 15.7041 19.463 15.7184L19.8165 16.0719L20.1701 16.4255C20.5748 16.0207 20.5748 15.3645 20.1701 14.9598L19.8165 15.3134ZM19.8165 15.3134L20.1701 14.9598C19.7654 14.5551 19.1092 14.5551 18.7044 14.9598L19.058 15.3134L19.4115 15.6669C19.4257 15.6527 19.4488 15.6527 19.463 15.6669L19.8165 15.3134ZM17.5 10.5L17.8536 10.1464C17.8393 10.1322 17.8393 10.1092 17.8536 10.095L17.5 9.74145L17.1464 9.38789C16.7417 9.79262 16.7417 10.4488 17.1464 10.8536L17.5 10.5ZM18.2586 10.5L17.905 10.1464C17.8908 10.1607 17.8678 10.1607 17.8536 10.1464L17.5 10.5L17.1464 10.8536C17.5512 11.2583 18.2074 11.2583 18.6121 10.8536L18.2586 10.5ZM18.2586 9.74145L17.905 10.095C17.9192 10.1092 17.9192 10.1322 17.905 10.1464L18.2586 10.5L18.6121 10.8536C19.0168 10.4488 19.0168 9.79262 18.6121 9.38789L18.2586 9.74145ZM18.2586 9.74145L18.6121 9.38789C18.2074 8.98316 17.5512 8.98316 17.1464 9.38789L17.5 9.74145L17.8536 10.095C17.8678 10.0808 17.8908 10.0808 17.905 10.095L18.2586 9.74145Z" fill="#424242"/>
</svg>
