<svg width="24" height="24" viewBox="0 0 24 24" fill="none" xmlns="http://www.w3.org/2000/svg">
<path d="M1.5 11.5C1.22386 11.5 1 11.7239 1 12C1 12.2761 1.22386 12.5 1.5 12.5V11.5ZM4.5 12.5C4.77614 12.5 5 12.2761 5 12C5 11.7239 4.77614 11.5 4.5 11.5V12.5ZM1.5 15.5C1.22386 15.5 1 15.7239 1 16C1 16.2761 1.22386 16.5 1.5 16.5V15.5ZM4.5 16.5C4.77614 16.5 5 16.2761 5 16C5 15.7239 4.77614 15.5 4.5 15.5V16.5ZM1.5 7.5C1.22386 7.5 1 7.72386 1 8C1 8.27614 1.22386 8.5 1.5 8.5V7.5ZM4.5 8.5C4.77614 8.5 5 8.27614 5 8C5 7.72386 4.77614 7.5 4.5 7.5V8.5ZM9 2.5H15V1.5H9V2.5ZM20.5 8V16H21.5V8H20.5ZM15 21.5H9V22.5H15V21.5ZM3.5 16V8H2.5V16H3.5ZM9 21.5C7.57165 21.5 6.55069 21.4989 5.77481 21.3946C5.01331 21.2922 4.56319 21.0987 4.23223 20.7678L3.52513 21.4749C4.07285 22.0226 4.76917 22.2684 5.64156 22.3857C6.49956 22.5011 7.59992 22.5 9 22.5V21.5ZM2.5 16C2.5 17.4001 2.49894 18.5004 2.61429 19.3584C2.73158 20.2308 2.9774 20.9272 3.52513 21.4749L4.23223 20.7678C3.90128 20.4368 3.70776 19.9867 3.60538 19.2252C3.50106 18.4493 3.5 17.4283 3.5 16H2.5ZM20.5 16C20.5 17.4283 20.4989 18.4493 20.3946 19.2252C20.2922 19.9867 20.0987 20.4368 19.7678 20.7678L20.4749 21.4749C21.0226 20.9271 21.2684 20.2308 21.3857 19.3584C21.5011 18.5004 21.5 17.4001 21.5 16H20.5ZM15 22.5C16.4001 22.5 17.5004 22.5011 18.3584 22.3857C19.2308 22.2684 19.9271 22.0226 20.4749 21.4749L19.7678 20.7678C19.4368 21.0987 18.9867 21.2922 18.2252 21.3946C17.4493 21.4989 16.4283 21.5 15 21.5V22.5ZM15 2.5C16.4283 2.5 17.4493 2.50106 18.2252 2.60538C18.9867 2.70776 19.4368 2.90128 19.7678 3.23223L20.4749 2.52513C19.9272 1.9774 19.2308 1.73158 18.3584 1.61429C17.5004 1.49894 16.4001 1.5 15 1.5V2.5ZM21.5 8C21.5 6.59992 21.5011 5.49956 21.3857 4.64156C21.2684 3.76917 21.0226 3.07285 20.4749 2.52513L19.7678 3.23223C20.0987 3.56319 20.2922 4.01331 20.3946 4.77481C20.4989 5.55069 20.5 6.57165 20.5 8H21.5ZM9 1.5C7.59992 1.5 6.49956 1.49894 5.64156 1.61429C4.76917 1.73158 4.07285 1.9774 3.52513 2.52513L4.23223 3.23223C4.56319 2.90128 5.01331 2.70776 5.77481 2.60538C6.55069 2.50106 7.57165 2.5 9 2.5V1.5ZM3.5 8C3.5 6.57165 3.50106 5.55069 3.60538 4.77481C3.70776 4.01331 3.90128 3.56319 4.23223 3.23223L3.52513 2.52513C2.9774 3.07285 2.73158 3.76917 2.61429 4.64156C2.49894 5.49956 2.5 6.59992 2.5 8H3.5ZM1.5 12.5H4.5V11.5H1.5V12.5ZM1.5 16.5H4.5V15.5H1.5V16.5ZM1.5 8.5H4.5V7.5H1.5V8.5ZM13.7 8.4C13.7 9.44934 12.8493 10.3 11.8 10.3V11.3C13.4016 11.3 14.7 10.0016 14.7 8.4H13.7ZM11.8 10.3C10.7507 10.3 9.9 9.44934 9.9 8.4H8.9C8.9 10.0016 10.1984 11.3 11.8 11.3V10.3ZM9.9 8.4C9.9 7.35066 10.7507 6.5 11.8 6.5V5.5C10.1984 5.5 8.9 6.79837 8.9 8.4H9.9ZM11.8 6.5C12.8493 6.5 13.7 7.35066 13.7 8.4H14.7C14.7 6.79837 13.4016 5.5 11.8 5.5V6.5ZM16.1 15.3C16.1 16.089 16.0731 16.5048 15.6843 16.8215C15.4706 16.9955 15.1077 17.1699 14.4758 17.2978C13.8462 17.4252 12.9828 17.5 11.8 17.5V18.5C13.0172 18.5 13.9538 18.4237 14.6742 18.2779C15.3923 18.1325 15.9294 17.9115 16.3157 17.5969C17.1269 16.9363 17.1 16.0021 17.1 15.3H16.1ZM11.8 17.5C10.6172 17.5 9.75383 17.4252 9.12419 17.2978C8.49235 17.1699 8.12941 16.9955 7.91573 16.8215C7.52688 16.5048 7.5 16.089 7.5 15.3H6.5C6.5 16.0021 6.47312 16.9363 7.28427 17.5969C7.67059 17.9115 8.20765 18.1325 8.92581 18.2779C9.64617 18.4237 10.5828 18.5 11.8 18.5V17.5ZM7.5 15.3C7.5 14.8153 7.85456 14.2746 8.65102 13.8266C9.43181 13.3874 10.5441 13.1 11.8 13.1V12.1C10.4049 12.1 9.11723 12.417 8.16076 12.955C7.21996 13.4842 6.5 14.2936 6.5 15.3H7.5ZM11.8 13.1C13.0559 13.1 14.1682 13.3874 14.949 13.8266C15.7454 14.2746 16.1 14.8153 16.1 15.3H17.1C17.1 14.2936 16.38 13.4842 15.4392 12.955C14.4828 12.417 13.1951 12.1 11.8 12.1V13.1Z" fill="#424242"/>
</svg>
