<svg width="24" height="24" viewBox="0 0 24 24" fill="none" xmlns="http://www.w3.org/2000/svg">
<path d="M12 20C8.22876 20 6.34315 20 5.17157 18.8284C4 17.6569 4 15.7712 4 12M12 20C15.7712 20 17.6569 20 18.8284 18.8284C20 17.6569 20 15.7712 20 12M12 20V22M4 12C4 8.22876 4 6.34315 5.17157 5.17157C6.34315 4 8.22876 4 12 4M4 12H2M20 12C20 8.22876 20 6.34315 18.8284 5.17157C17.6569 4 15.7712 4 12 4M20 12H22M12 4V2M4 9H2M22 9H20M4 15H2M22 15H20M9 20V22M9 2V4M15 20V22M15 2V4M10 17H14C15.4142 17 16.1213 17 16.5607 16.5607C17 16.1213 17 15.4142 17 14V10C17 8.58579 17 7.87868 16.5607 7.43934C16.1213 7 15.4142 7 14 7H10C8.58579 7 7.87868 7 7.43934 7.43934C7 7.87868 7 8.58579 7 10V14C7 15.4142 7 16.1213 7.43934 16.5607C7.87868 17 8.58579 17 10 17Z" stroke="#424242" stroke-linecap="round"/>
</svg>
