<svg width="24" height="24" viewBox="0 0 24 24" fill="none" xmlns="http://www.w3.org/2000/svg">
<path d="M5.74623 7.5C5.47009 7.5 5.24623 7.72386 5.24623 8C5.24623 8.27614 5.47009 8.5 5.74623 8.5V8V7.5ZM11.5 18C11.5 18.2761 11.7239 18.5 12 18.5C12.2761 18.5 12.5 18.2761 12.5 18H12H11.5ZM18.2538 8.5C18.5299 8.5 18.7538 8.27614 18.7538 8C18.7538 7.72386 18.5299 7.5 18.2538 7.5V8V8.5ZM16.3308 5.62509C16.1238 5.44238 15.8078 5.46212 15.6251 5.66917C15.4424 5.87623 15.4621 6.19219 15.6692 6.37491L16 6L16.3308 5.62509ZM18.2665 8L18.6412 8.331C18.729 8.23158 18.7738 8.10134 18.7655 7.96895C18.7573 7.83655 18.6968 7.71286 18.5973 7.62509L18.2665 8ZM16.1252 9.669C15.9424 9.87597 15.962 10.1919 16.169 10.3748C16.376 10.5576 16.6919 10.538 16.8748 10.331L16.5 10L16.1252 9.669ZM8.33083 6.37491C8.53788 6.19219 8.55762 5.87623 8.37491 5.66917C8.19219 5.46212 7.87623 5.44238 7.66917 5.62509L8 6L8.33083 6.37491ZM5.73352 8L5.40269 7.62509C5.30323 7.71286 5.24272 7.83655 5.23449 7.96895C5.22625 8.10134 5.27095 8.23158 5.35877 8.331L5.73352 8ZM7.12525 10.331C7.30805 10.538 7.62403 10.5576 7.831 10.3748C8.03797 10.1919 8.05756 9.87597 7.87475 9.669L7.5 10L7.12525 10.331ZM12 22V21.5C9.62884 21.5 7.90077 21.4989 6.58026 21.3214C5.27414 21.1458 4.44187 20.8058 3.81802 20.182L3.46447 20.5355L3.11091 20.8891C3.95153 21.7297 5.03 22.122 6.44702 22.3125C7.84965 22.5011 9.65711 22.5 12 22.5V22ZM2 12H1.5C1.5 14.3429 1.49894 16.1504 1.68752 17.553C1.87803 18.97 2.2703 20.0485 3.11091 20.8891L3.46447 20.5355L3.81802 20.182C3.19417 19.5581 2.8542 18.7259 2.6786 17.4197C2.50106 16.0992 2.5 14.3712 2.5 12H2ZM22 12H21.5C21.5 14.3712 21.4989 16.0992 21.3214 17.4197C21.1458 18.7259 20.8058 19.5581 20.182 20.182L20.5355 20.5355L20.8891 20.8891C21.7297 20.0485 22.122 18.97 22.3125 17.553C22.5011 16.1504 22.5 14.3429 22.5 12H22ZM12 22V22.5C14.3429 22.5 16.1504 22.5011 17.553 22.3125C18.97 22.122 20.0485 21.7297 20.8891 20.8891L20.5355 20.5355L20.182 20.182C19.5581 20.8058 18.7259 21.1458 17.4197 21.3214C16.0992 21.4989 14.3712 21.5 12 21.5V22ZM12 2V2.5C14.3712 2.5 16.0992 2.50106 17.4197 2.6786C18.7259 2.8542 19.5581 3.19417 20.182 3.81802L20.5355 3.46447L20.8891 3.11091C20.0485 2.2703 18.97 1.87803 17.553 1.68752C16.1504 1.49894 14.3429 1.5 12 1.5V2ZM22 12H22.5C22.5 9.65711 22.5011 7.84965 22.3125 6.44702C22.122 5.03 21.7297 3.95153 20.8891 3.11091L20.5355 3.46447L20.182 3.81802C20.8058 4.44187 21.1458 5.27414 21.3214 6.58026C21.4989 7.90077 21.5 9.62884 21.5 12H22ZM12 2V1.5C9.65711 1.5 7.84965 1.49894 6.44702 1.68752C5.03 1.87803 3.95153 2.2703 3.11091 3.11091L3.46447 3.46447L3.81802 3.81802C4.44187 3.19417 5.27414 2.8542 6.58026 2.6786C7.90077 2.50106 9.62884 2.5 12 2.5V2ZM2 12H2.5C2.5 9.62884 2.50106 7.90077 2.6786 6.58026C2.8542 5.27414 3.19417 4.44187 3.81802 3.81802L3.46447 3.46447L3.11091 3.11091C2.2703 3.95153 1.87803 5.03 1.68752 6.44702C1.49894 7.84965 1.5 9.65711 1.5 12H2ZM5.74623 8V8.5H8V8V7.5H5.74623V8ZM12 12H11.5V18H12H12.5V12H12ZM8 8V8.5C9.933 8.5 11.5 10.067 11.5 12H12H12.5C12.5 9.51472 10.4853 7.5 8 7.5V8ZM18.2538 8V7.5H16V8V8.5H18.2538V8ZM16 8V7.5C13.5147 7.5 11.5 9.51472 11.5 12H12H12.5C12.5 10.067 14.067 8.5 16 8.5V8ZM16 6L15.6692 6.37491L17.9357 8.37491L18.2665 8L18.5973 7.62509L16.3308 5.62509L16 6ZM18.2665 8L17.8917 7.669L16.1252 9.669L16.5 10L16.8748 10.331L18.6412 8.331L18.2665 8ZM8 6L7.66917 5.62509L5.40269 7.62509L5.73352 8L6.06435 8.37491L8.33083 6.37491L8 6ZM5.73352 8L5.35877 8.331L7.12525 10.331L7.5 10L7.87475 9.669L6.10827 7.669L5.73352 8Z" fill="#424242"/>
</svg>
