<svg width="24" height="24" viewBox="0 0 24 24" fill="none" xmlns="http://www.w3.org/2000/svg">
<path d="M21.8382 11.1263L21.3404 11.0795V11.0795L21.8382 11.1263ZM21.609 13.5616L22.1068 13.6084V13.6084L21.609 13.5616ZM2.391 13.5616L2.8888 13.5147L2.391 13.5616ZM2.16181 11.1263L2.65961 11.0795L2.16181 11.1263ZM7.95007 9.04852L8.39942 9.2678L8.39942 9.2678L7.95007 9.04852ZM10.1869 4.46486L9.73759 4.24557L9.73759 4.24557L10.1869 4.46486ZM13.8131 4.46485L13.3637 4.68414V4.68414L13.8131 4.46485ZM16.0499 9.04851L16.4993 8.82923V8.82923L16.0499 9.04851ZM17.0047 10.5131L16.78 10.9597L16.78 10.9597L17.0047 10.5131ZM18.8381 9.49307L18.4625 9.16309V9.16309L18.8381 9.49307ZM17.5666 10.6027L17.4886 10.1088V10.1088L17.5666 10.6027ZM5.16187 9.49307L4.78622 9.82305L5.16187 9.49307ZM6.43337 10.6027L6.51142 10.1088H6.51142L6.43337 10.6027ZM6.99526 10.5131L7.22003 10.9597L7.22003 10.9597L6.99526 10.5131ZM4.14009 20.7902L4.49764 20.4407H4.49764L4.14009 20.7902ZM19.8599 20.7902L19.5024 20.4407V20.4407L19.8599 20.7902ZM21.781 7.86207L21.3958 8.18088V8.18088L21.781 7.86207ZM21.106 7.4946L21.0623 7.99268V7.99268L21.106 7.4946ZM2.21899 7.86207L1.8338 7.54327H1.8338L2.21899 7.86207ZM2.89399 7.4946L2.93773 7.99268H2.93773L2.89399 7.4946ZM9 17.5C8.72386 17.5 8.5 17.7239 8.5 18C8.5 18.2761 8.72386 18.5 9 18.5V17.5ZM15 18.5C15.2761 18.5 15.5 18.2761 15.5 18C15.5 17.7239 15.2761 17.5 15 17.5V18.5ZM21.3404 11.0795L21.1112 13.5147L22.1068 13.6084L22.336 11.1732L21.3404 11.0795ZM13.3599 21.5H10.6401V22.5H13.3599V21.5ZM2.8888 13.5147L2.65961 11.0795L1.66401 11.1732L1.8932 13.6084L2.8888 13.5147ZM8.39942 9.2678L10.6363 4.68414L9.73759 4.24557L7.50072 8.82923L8.39942 9.2678ZM13.3637 4.68414L15.6006 9.2678L16.4993 8.82923L14.2624 4.24557L13.3637 4.68414ZM15.6006 9.2678C15.8082 9.69324 15.9795 10.0455 16.1411 10.3086C16.3025 10.5712 16.4953 10.8165 16.78 10.9597L17.2295 10.0665C17.1959 10.0495 17.1235 9.99731 16.9931 9.78509C16.863 9.57329 16.716 9.27339 16.4993 8.82923L15.6006 9.2678ZM18.4625 9.16309C18.1461 9.52321 17.9344 9.76331 17.7605 9.92411C17.587 10.0845 17.5136 10.1048 17.4886 10.1088L17.6447 11.0965C17.9643 11.046 18.2177 10.8633 18.4394 10.6583C18.6606 10.4538 18.9122 10.1664 19.2138 9.82305L18.4625 9.16309ZM16.78 10.9597C17.0477 11.0944 17.348 11.1434 17.6447 11.0965L17.4886 10.1088C17.4033 10.1223 17.3145 10.1092 17.2295 10.0665L16.78 10.9597ZM10.6363 4.68414C11.0444 3.84783 11.3275 3.27038 11.58 2.89557C11.8402 2.50944 11.9624 2.5 12 2.5V1.5C11.4274 1.5 11.0441 1.90137 10.7507 2.33686C10.4497 2.78367 10.1314 3.43864 9.73759 4.24557L10.6363 4.68414ZM14.2624 4.24557C13.8686 3.43864 13.5503 2.78367 13.2493 2.33685C12.9559 1.90137 12.5726 1.5 12 1.5V2.5C12.0376 2.5 12.1598 2.50944 12.42 2.89557C12.6725 3.27037 12.9556 3.84783 13.3637 4.68414L14.2624 4.24557ZM4.78622 9.82305C5.08778 10.1664 5.33944 10.4538 5.56064 10.6583C5.78226 10.8633 6.03569 11.046 6.35533 11.0965L6.51142 10.1088C6.4864 10.1048 6.41302 10.0845 6.23953 9.92411C6.06562 9.76331 5.85385 9.52321 5.53752 9.16309L4.78622 9.82305ZM7.50072 8.82923C7.28397 9.27339 7.13699 9.57329 7.00686 9.78509C6.87647 9.99731 6.80412 10.0495 6.77049 10.0665L7.22003 10.9597C7.50465 10.8165 7.69752 10.5712 7.85888 10.3086C8.0205 10.0455 8.1918 9.69324 8.39942 9.2678L7.50072 8.82923ZM6.35533 11.0965C6.652 11.1434 6.95229 11.0944 7.22003 10.9597L6.77049 10.0665C6.68555 10.1092 6.59668 10.1223 6.51142 10.1088L6.35533 11.0965ZM10.6401 21.5C8.85252 21.5 7.56614 21.4988 6.57658 21.354C5.6074 21.2123 4.98644 20.9407 4.49764 20.4407L3.78255 21.1398C4.47636 21.8495 5.33294 22.1828 6.43187 22.3435C7.51042 22.5012 8.88272 22.5 10.6401 22.5V21.5ZM1.8932 13.6084C2.08092 15.6029 2.22492 17.141 2.47434 18.3296C2.72555 19.5268 3.0961 20.4375 3.78255 21.1398L4.49764 20.4407C4.00147 19.9332 3.6863 19.2359 3.45303 18.1243C3.21798 17.0042 3.07874 15.5328 2.8888 13.5147L1.8932 13.6084ZM21.1112 13.5147C20.9213 15.5328 20.782 17.0042 20.547 18.1243C20.3137 19.2359 19.9985 19.9332 19.5024 20.4407L20.2174 21.1398C20.9039 20.4375 21.2744 19.5268 21.5257 18.3296C21.7751 17.141 21.9191 15.6029 22.1068 13.6084L21.1112 13.5147ZM13.3599 22.5C15.1173 22.5 16.4896 22.5012 17.5681 22.3435C18.6671 22.1828 19.5236 21.8495 20.2174 21.1398L19.5024 20.4407C19.0136 20.9407 18.3926 21.2123 17.4234 21.354C16.4339 21.4988 15.1475 21.5 13.3599 21.5V22.5ZM22.336 11.1732C22.4251 10.2267 22.4955 9.48351 22.4998 8.9291C22.5038 8.40761 22.4574 7.89515 22.1662 7.54327L21.3958 8.18088C21.4318 8.22431 21.504 8.38767 21.4998 8.92132C21.4959 9.42205 21.4313 10.1133 21.3404 11.0795L22.336 11.1732ZM19.2138 9.82305C19.8188 9.13429 20.2475 8.6472 20.5832 8.33336C20.7499 8.17748 20.8725 8.08496 20.963 8.0344C21.0509 7.98521 21.076 7.99389 21.0623 7.99268L21.1498 6.99652C20.8981 6.97442 20.6702 7.05244 20.475 7.16152C20.2823 7.26923 20.0917 7.42391 19.9003 7.60285C19.5197 7.95865 19.0523 8.49168 18.4625 9.16309L19.2138 9.82305ZM22.1662 7.54327C21.911 7.23493 21.5509 7.03175 21.1498 6.99652L21.0623 7.99268C21.1758 8.00265 21.297 8.06153 21.3958 8.18088L22.1662 7.54327ZM2.65961 11.0795C2.56868 10.1133 2.50408 9.42204 2.50018 8.92132C2.49603 8.38767 2.56822 8.22431 2.60417 8.18088L1.8338 7.54327C1.54256 7.89515 1.49616 8.40761 1.50021 8.92909C1.50452 9.48351 1.57493 10.2267 1.66401 11.1732L2.65961 11.0795ZM5.53752 9.16309C4.94774 8.49168 4.48032 7.95865 4.09972 7.60285C3.90831 7.42391 3.71767 7.26923 3.52497 7.16152C3.32983 7.05244 3.10187 6.97442 2.85024 6.99652L2.93773 7.99268C2.92395 7.99389 2.94905 7.98521 3.03705 8.0344C3.12749 8.08496 3.25007 8.17748 3.41682 8.33336C3.75254 8.6472 4.1812 9.13429 4.78622 9.82305L5.53752 9.16309ZM2.60417 8.18088C2.70295 8.06153 2.82423 8.00265 2.93773 7.99268L2.85024 6.99652C2.44908 7.03175 2.08901 7.23493 1.8338 7.54327L2.60417 8.18088ZM9 18.5H15V17.5H9V18.5Z" fill="#424242"/>
</svg>
