<svg width="24" height="24" viewBox="0 0 24 24" fill="none" xmlns="http://www.w3.org/2000/svg">
<path d="M5.03907 5.70647L4.53946 5.7263L5.03907 5.70647ZM18.9612 5.70647L18.4616 5.68663V5.68663L18.9612 5.70647ZM16.3771 2.34674L16.2939 2.83977V2.83977L16.3771 2.34674ZM7.62318 2.34674L7.53999 1.85371L7.62318 2.34674ZM5.43937 3.22083L5.82753 3.536V3.536L5.43937 3.22083ZM21.9999 8.16234L21.4999 8.16233V8.16233L21.9999 8.16234ZM21.9999 8.23487L22.4999 8.23488V8.23488L21.9999 8.23487ZM19.1581 4.52566C18.8961 4.43833 18.613 4.57991 18.5257 4.84189C18.4383 5.10386 18.5799 5.38702 18.8419 5.47434L19.1581 4.52566ZM19.9486 5.31621L20.1067 4.84187V4.84187L19.9486 5.31621ZM20.4569 10.8572L20.2141 10.4202V10.4202L20.4569 10.8572ZM17.2572 12.0629C17.0158 12.197 16.9288 12.5014 17.0629 12.7428C17.197 12.9842 17.5014 13.0712 17.7428 12.9371L17.2572 12.0629ZM21.7927 9.87809L21.3618 9.62453V9.62453L21.7927 9.87809ZM21.7168 6.20408L22.1225 5.91173V5.91173L21.7168 6.20408ZM2 8.16234L1.5 8.16235V8.16236L2 8.16234ZM2 8.23487L2.5 8.23485V8.23485L2 8.23487ZM5.15806 5.47434C5.42003 5.38702 5.56161 5.10386 5.47428 4.84189C5.38696 4.57991 5.1038 4.43833 4.84183 4.52566L5.15806 5.47434ZM3.54305 10.8572L3.78587 10.4202H3.78587L3.54305 10.8572ZM6.25712 12.9371C6.49851 13.0712 6.80291 12.9842 6.93702 12.7428C7.07113 12.5014 6.98416 12.197 6.74277 12.0629L6.25712 12.9371ZM2.20723 9.87809L2.63816 9.62453H2.63816L2.20723 9.87809ZM2.2831 6.20408L1.87747 5.91173L1.87747 5.91173L2.2831 6.20408ZM12.5 17C12.5 16.7239 12.2761 16.5 12 16.5C11.7239 16.5 11.5 16.7239 11.5 17H12.5ZM11.5 19C11.5 19.2761 11.7239 19.5 12 19.5C12.2761 19.5 12.5 19.2761 12.5 19H11.5ZM8.5 22L8.00971 21.9019C7.98033 22.0488 8.01836 22.2012 8.11333 22.317C8.2083 22.4328 8.3502 22.5 8.5 22.5V22ZM15.5 22V22.5C15.6498 22.5 15.7917 22.4328 15.8867 22.317C15.9816 22.2012 16.0197 22.0488 15.9903 21.9019L15.5 22ZM15.1608 20.3039L15.6511 20.2058V20.2058L15.1608 20.3039ZM8.83922 20.3039L9.32951 20.4019V20.4019L8.83922 20.3039ZM6 21.5C5.72386 21.5 5.5 21.7239 5.5 22C5.5 22.2761 5.72386 22.5 6 22.5V21.5ZM18 22.5C18.2761 22.5 18.5 22.2761 18.5 22C18.5 21.7239 18.2761 21.5 18 21.5V22.5ZM4.53946 5.7263C4.63032 8.01477 4.93216 10.6788 5.97981 12.7835C6.50756 13.8436 7.23254 14.7786 8.22942 15.4472C9.22964 16.118 10.4729 16.5 12.0002 16.5V15.5C10.6474 15.5 9.60318 15.1644 8.78644 14.6167C7.96637 14.0666 7.34497 13.2819 6.87503 12.3378C5.92731 10.434 5.62858 7.95125 5.53868 5.68663L4.53946 5.7263ZM18.4616 5.68663C18.3717 7.95125 18.073 10.434 17.1253 12.3378C16.6553 13.2819 16.0339 14.0666 15.2139 14.6167C14.3971 15.1644 13.3529 15.5 12.0002 15.5V16.5C13.5274 16.5 14.7707 16.118 15.7709 15.4472C16.7678 14.7786 17.4927 13.8436 18.0205 12.7835C19.0681 10.6788 19.37 8.01477 19.4608 5.7263L18.4616 5.68663ZM16.4603 1.85371C15.3104 1.65969 13.8131 1.5 12.0002 1.5V2.5C13.7542 2.5 15.1958 2.65449 16.2939 2.83977L16.4603 1.85371ZM12.0002 1.5C10.1872 1.5 8.68994 1.65969 7.53999 1.85371L7.70636 2.83977C8.80454 2.65449 10.2461 2.5 12.0002 2.5V1.5ZM19.4608 5.7263C19.5088 4.51892 19.5673 3.667 18.9491 2.90567L18.1728 3.536C18.5061 3.94646 18.5143 4.36103 18.4616 5.68663L19.4608 5.7263ZM16.2939 2.83977C17.4781 3.03957 17.8369 3.12238 18.1728 3.536L18.9491 2.90567C18.3335 2.14749 17.5536 2.03817 16.4603 1.85371L16.2939 2.83977ZM5.53868 5.68663C5.48605 4.36103 5.49426 3.94646 5.82753 3.536L5.0512 2.90567C4.43304 3.667 4.49153 4.51892 4.53946 5.7263L5.53868 5.68663ZM7.53999 1.85371C6.44672 2.03817 5.6668 2.14749 5.0512 2.90567L5.82753 3.536C6.16337 3.12238 6.52218 3.03957 7.70636 2.83977L7.53999 1.85371ZM21.4999 8.16233L21.4999 8.23485L22.4999 8.23488L22.4999 8.16235L21.4999 8.16233ZM18.8419 5.47434L19.7905 5.79055L20.1067 4.84187L19.1581 4.52566L18.8419 5.47434ZM20.2141 10.4202L17.2572 12.0629L17.7428 12.9371L20.6997 11.2943L20.2141 10.4202ZM21.4999 8.23485C21.4999 8.6751 21.4993 8.96884 21.4765 9.19749C21.4548 9.41504 21.4159 9.53259 21.3618 9.62453L22.2236 10.1317C22.3767 9.87149 22.4415 9.59779 22.4715 9.29694C22.5005 9.00719 22.4999 8.65538 22.4999 8.23488L21.4999 8.23485ZM20.6997 11.2943C21.0673 11.0901 21.3751 10.9197 21.6143 10.7537C21.8627 10.5813 22.0706 10.3918 22.2236 10.1317L21.3618 9.62453C21.3077 9.71647 21.2238 9.80753 21.0442 9.93218C20.8554 10.0632 20.5989 10.2064 20.2141 10.4202L20.6997 11.2943ZM22.4999 8.16235C22.5 7.65206 22.5007 7.22736 22.4614 6.88247C22.4205 6.5248 22.3323 6.20281 22.1225 5.91173L21.3112 6.49643C21.3846 6.59819 21.4379 6.73353 21.4678 6.99588C21.4992 7.271 21.5 7.629 21.4999 8.16233L22.4999 8.16235ZM19.7905 5.79055C20.2965 5.9592 20.6359 6.07313 20.8869 6.18993C21.1263 6.30131 21.2379 6.39467 21.3112 6.49643L22.1225 5.91173C21.9127 5.62065 21.6351 5.43508 21.3087 5.28324C20.994 5.13682 20.5908 5.00323 20.1067 4.84187L19.7905 5.79055ZM1.5 8.16236L1.5 8.23488L2.5 8.23485L2.5 8.16232L1.5 8.16236ZM4.84183 4.52566L3.8932 4.84187L4.20943 5.79055L5.15806 5.47434L4.84183 4.52566ZM3.30022 11.2943L6.25712 12.9371L6.74277 12.0629L3.78587 10.4202L3.30022 11.2943ZM1.5 8.23488C1.50001 8.65538 1.49945 9.00719 1.52841 9.29694C1.55847 9.59779 1.6232 9.87149 1.77629 10.1317L2.63816 9.62453C2.58406 9.53259 2.54519 9.41504 2.52345 9.19749C2.5006 8.96884 2.50001 8.6751 2.5 8.23485L1.5 8.23488ZM3.78587 10.4202C3.40103 10.2064 3.14454 10.0632 2.95575 9.93218C2.77614 9.80753 2.69226 9.71647 2.63816 9.62453L1.77629 10.1317C1.92938 10.3918 2.13721 10.5813 2.3856 10.7537C2.62483 10.9197 2.93264 11.0901 3.30022 11.2943L3.78587 10.4202ZM2.5 8.16233C2.49999 7.62901 2.50073 7.271 2.53214 6.99588C2.56208 6.73353 2.61538 6.59819 2.68872 6.49643L1.87747 5.91173C1.66768 6.20281 1.57941 6.5248 1.53859 6.88247C1.49922 7.22736 1.49999 7.65207 1.5 8.16235L2.5 8.16233ZM3.8932 4.84187C3.4091 5.00323 3.00595 5.13682 2.69121 5.28324C2.36482 5.43508 2.08727 5.62065 1.87747 5.91173L2.68872 6.49643C2.76206 6.39467 2.8736 6.30131 3.11301 6.18993C3.36408 6.07313 3.70348 5.9592 4.20943 5.79055L3.8932 4.84187ZM11.5 17V19H12.5V17H11.5ZM8.5 22.5H15.5V21.5H8.5V22.5ZM15.9903 21.9019L15.6511 20.2058L14.6705 20.4019L15.0097 22.0981L15.9903 21.9019ZM14.1802 19H9.8198V20H14.1802V19ZM8.34893 20.2058L8.00971 21.9019L8.99029 22.0981L9.32951 20.4019L8.34893 20.2058ZM9.8198 19C9.10478 19 8.48916 19.5047 8.34893 20.2058L9.32951 20.4019C9.37626 20.1682 9.58146 20 9.8198 20V19ZM15.6511 20.2058C15.5108 19.5047 14.8952 19 14.1802 19V20C14.4185 20 14.6237 20.1682 14.6705 20.4019L15.6511 20.2058ZM6 22.5H18V21.5H6V22.5Z" fill="#424242"/>
</svg>
