<svg width="24" height="24" viewBox="0 0 24 24" fill="none" xmlns="http://www.w3.org/2000/svg">
<path d="M4.94805 11.4063L4.51254 11.1606V11.1606L4.94805 11.4063ZM19.0519 11.4063L18.6164 11.6519V11.6519L19.0519 11.4063ZM18.6883 10.7615L19.1238 10.5159V10.5159L18.6883 10.7615ZM5.31171 10.7615L5.74722 11.0071V11.0071L5.31171 10.7615ZM12 3V3.5V3ZM11.5 17C11.5 17.2761 11.7239 17.5 12 17.5C12.2761 17.5 12.5 17.2761 12.5 17H11.5ZM12.5 16.5C12.5 16.2239 12.2761 16 12 16C11.7239 16 11.5 16.2239 11.5 16.5H12.5ZM11.5 14C11.5 14.2761 11.7239 14.5 12 14.5C12.2761 14.5 12.5 14.2761 12.5 14H11.5ZM12.5 8C12.5 7.72386 12.2761 7.5 12 7.5C11.7239 7.5 11.5 7.72386 11.5 8H12.5ZM18.2528 11.0071L18.6164 11.6519L19.4874 11.1606L19.1238 10.5159L18.2528 11.0071ZM12.3637 20.5H11.6363V21.5H12.3637V20.5ZM5.38356 11.6519L5.74722 11.0071L4.8762 10.5159L4.51254 11.1606L5.38356 11.6519ZM11.6363 20.5C8.91007 20.5 6.9162 20.499 5.46398 20.3078C4.00785 20.1161 3.23943 19.7488 2.81642 19.1421L1.99609 19.714C2.669 20.6792 3.80423 21.0979 5.33347 21.2992C6.86661 21.501 8.93983 21.5 11.6363 21.5V20.5ZM4.51254 11.1606C3.30908 13.2944 2.37429 14.9486 1.88769 16.2669C1.39729 17.5956 1.30823 18.7273 1.99609 19.714L2.81642 19.1421C2.40837 18.5567 2.37764 17.8275 2.82583 16.6132C3.27782 15.3886 4.16189 13.818 5.38356 11.6519L4.51254 11.1606ZM18.6164 11.6519C19.8381 13.818 20.7222 15.3886 21.1742 16.6132C21.6224 17.8275 21.5916 18.5567 21.1836 19.1421L22.0039 19.714C22.6918 18.7273 22.6027 17.5956 22.1123 16.2669C21.6257 14.9486 20.6909 13.2944 19.4874 11.1606L18.6164 11.6519ZM12.3637 21.5C15.0602 21.5 17.1334 21.501 18.6665 21.2992C20.1958 21.0979 21.331 20.6792 22.0039 19.714L21.1836 19.1421C20.7606 19.7488 19.9922 20.1161 18.536 20.3078C17.0838 20.499 15.0899 20.5 12.3637 20.5V21.5ZM19.1238 10.5159C17.6732 7.94396 16.5572 5.96227 15.5091 4.63108C14.4551 3.29221 13.3839 2.5 12 2.5V3.5C12.9268 3.5 13.7406 4.00137 14.7234 5.24967C15.7123 6.50564 16.785 8.40469 18.2528 11.0071L19.1238 10.5159ZM5.74722 11.0071C7.21501 8.40469 8.28775 6.50564 9.27657 5.24967C10.2594 4.00137 11.0732 3.5 12 3.5V2.5C10.6161 2.5 9.54494 3.29222 8.49085 4.63108C7.44281 5.96227 6.32678 7.94397 4.8762 10.5159L5.74722 11.0071ZM12.5 17V16.5H11.5V17H12.5ZM12.5 14V8H11.5V14H12.5Z" fill="#424242"/>
</svg>
