<svg width="24" height="24" viewBox="0 0 24 24" fill="none" xmlns="http://www.w3.org/2000/svg">
<path d="M21.5 13C21.5 13.2761 21.7239 13.5 22 13.5C22.2761 13.5 22.5 13.2761 22.5 13H21.5ZM15.5191 21.5C15.7953 21.5 16.0191 21.2761 16.0191 21C16.0191 20.7239 15.7953 20.5 15.5191 20.5V21.5ZM15.5191 3.5C15.7953 3.5 16.0191 3.27614 16.0191 3C16.0191 2.72386 15.7953 2.5 15.5191 2.5V3.5ZM22.5 11C22.5 10.7239 22.2761 10.5 22 10.5C21.7239 10.5 21.5 10.7239 21.5 11H22.5ZM10 3.5H15.5191V2.5H10V3.5ZM21.5 11V13H22.5V11H21.5ZM15.5191 20.5H10V21.5H15.5191V20.5ZM2.5 13V11H1.5V13H2.5ZM10 20.5C8.10025 20.5 6.72573 20.4989 5.67754 20.358C4.64373 20.219 4.00253 19.9523 3.52513 19.4749L2.81802 20.182C3.51219 20.8762 4.39959 21.1952 5.54429 21.3491C6.6746 21.5011 8.12852 21.5 10 21.5V20.5ZM1.5 13C1.5 14.8715 1.49894 16.3254 1.65091 17.4557C1.80481 18.6004 2.12385 19.4878 2.81802 20.182L3.52513 19.4749C3.04772 18.9975 2.78098 18.3563 2.64199 17.3225C2.50106 16.2743 2.5 14.8998 2.5 13H1.5ZM10 2.5C8.12852 2.5 6.67461 2.49894 5.54429 2.65091C4.39959 2.80481 3.51219 3.12385 2.81802 3.81802L3.52513 4.52513C4.00253 4.04772 4.64373 3.78098 5.67754 3.64199C6.72573 3.50106 8.10025 3.5 10 3.5V2.5ZM2.5 11C2.5 9.10025 2.50106 7.72573 2.64199 6.67754C2.78098 5.64373 3.04772 5.00253 3.52513 4.52513L2.81802 3.81802C2.12385 4.51219 1.80481 5.39959 1.65091 6.54429C1.49894 7.67461 1.5 9.12852 1.5 11H2.5ZM8.2 6.5H9.8V5.5H8.2V6.5ZM12.5 7.77778V8.22222H13.5V7.77778H12.5ZM9.8 9.5H8.2V10.5H9.8V9.5ZM5.5 8.22222V7.77778H4.5V8.22222H5.5ZM8.2 9.5C7.43783 9.5 6.89427 9.49967 6.48161 9.46885C6.06633 9.43783 5.84901 9.37899 5.71145 9.30257L5.22581 10.1767C5.55688 10.3607 5.95099 10.432 6.40712 10.4661C6.86586 10.5003 7.45368 10.5 8.2 10.5V9.5ZM4.5 8.22222C4.5 8.61656 4.4967 9.00151 4.57261 9.31518C4.66176 9.68358 4.86113 9.97413 5.22581 10.1767L5.71145 9.30257C5.6075 9.24482 5.57255 9.19568 5.54455 9.07997C5.5033 8.90953 5.5 8.66594 5.5 8.22222H4.5ZM12.5 8.22222C12.5 8.66594 12.4967 8.90953 12.4555 9.07997C12.4274 9.19568 12.3925 9.24482 12.2885 9.30257L12.7742 10.1767C13.1389 9.97413 13.3382 9.68358 13.4274 9.31518C13.5033 9.00151 13.5 8.61656 13.5 8.22222H12.5ZM9.8 10.5C10.5463 10.5 11.1341 10.5003 11.5929 10.4661C12.049 10.432 12.4431 10.3607 12.7742 10.1767L12.2885 9.30257C12.151 9.37899 11.9337 9.43783 11.5184 9.46885C11.1057 9.49967 10.5622 9.5 9.8 9.5V10.5ZM9.8 6.5C10.5622 6.5 11.1057 6.50033 11.5184 6.53115C11.9337 6.56217 12.151 6.62101 12.2885 6.69743L12.7742 5.82327C12.4431 5.63934 12.049 5.568 11.5929 5.53393C11.1341 5.49967 10.5463 5.5 9.8 5.5V6.5ZM13.5 7.77778C13.5 7.38344 13.5033 6.99849 13.4274 6.68482C13.3382 6.31642 13.1389 6.02587 12.7742 5.82327L12.2885 6.69743C12.3925 6.75518 12.4274 6.80432 12.4555 6.92003C12.4967 7.09047 12.5 7.33406 12.5 7.77778H13.5ZM8.2 5.5C7.45368 5.5 6.86586 5.49967 6.40712 5.53393C5.95099 5.568 5.55688 5.63934 5.22581 5.82327L5.71145 6.69743C5.84901 6.62101 6.06633 6.56217 6.48161 6.53115C6.89427 6.50033 7.43783 6.5 8.2 6.5V5.5ZM5.5 7.77778C5.5 7.33406 5.5033 7.09047 5.54455 6.92003C5.57255 6.80432 5.6075 6.75518 5.71145 6.69743L5.22581 5.82327C4.86113 6.02587 4.66176 6.31642 4.57261 6.68482C4.4967 6.99849 4.5 7.38344 4.5 7.77778H5.5ZM17.8 2.5H19.2V1.5H17.8V2.5ZM21.5 10.8889V13.1111H22.5V10.8889H21.5ZM19.2 21.5H17.8V22.5H19.2V21.5ZM15.5 13.1111V10.8889H14.5V13.1111H15.5ZM17.8 21.5C17.1002 21.5 16.7259 21.4909 16.4601 21.3774C16.2639 21.2937 16.068 21.1228 15.8869 20.548L14.9332 20.8485C15.1621 21.5755 15.5012 22.0554 16.0675 22.2971C16.5642 22.5091 17.1799 22.5 17.8 22.5V21.5ZM14.5 13.1111C14.5 15.2017 14.4999 16.7856 14.5517 18.009C14.6033 19.2279 14.7074 20.1319 14.9332 20.8485L15.8869 20.548C15.7026 19.9629 15.6017 19.1684 15.5508 17.9667C15.5001 16.7695 15.5 15.2107 15.5 13.1111H14.5ZM21.5 13.1111C21.5 15.2107 21.4999 16.7695 21.4492 17.9667C21.3983 19.1684 21.2974 19.9629 21.113 20.548L22.0668 20.8485C22.2926 20.1319 22.3967 19.2279 22.4483 18.009C22.5001 16.7856 22.5 15.2017 22.5 13.1111H21.5ZM19.2 22.5C19.8201 22.5 20.4358 22.5091 20.9325 22.2971C21.4988 22.0554 21.8379 21.5755 22.0668 20.8485L21.113 20.548C20.932 21.1228 20.7361 21.2937 20.5399 21.3774C20.2741 21.4909 19.8998 21.5 19.2 21.5V22.5ZM19.2 2.5C19.8998 2.5 20.2741 2.50912 20.5399 2.62258C20.7361 2.70631 20.932 2.8772 21.113 3.45197L22.0668 3.15152C21.8379 2.42455 21.4988 1.94456 20.9325 1.70285C20.4358 1.49088 19.8201 1.5 19.2 1.5V2.5ZM22.5 10.8889C22.5 8.79826 22.5001 7.21436 22.4483 5.99097C22.3967 4.7721 22.2926 3.86812 22.0668 3.15152L21.113 3.45197C21.2974 4.03712 21.3983 4.83158 21.4492 6.03328C21.4999 7.23046 21.5 8.78925 21.5 10.8889H22.5ZM17.8 1.5C17.1799 1.5 16.5642 1.49088 16.0675 1.70285C15.5012 1.94456 15.1621 2.42455 14.9332 3.15152L15.8869 3.45197C16.068 2.8772 16.2639 2.70631 16.4601 2.62258C16.7259 2.50912 17.1002 2.5 17.8 2.5V1.5ZM15.5 10.8889C15.5 8.78925 15.5001 7.23046 15.5508 6.03328C15.6017 4.83158 15.7026 4.03712 15.8869 3.45197L14.9332 3.15152C14.7074 3.86812 14.6033 4.7721 14.5517 5.99097C14.4999 7.21436 14.5 8.79826 14.5 10.8889H15.5ZM11.8077 13.0769C11.8077 12.8433 11.9971 12.6538 12.2308 12.6538V11.6538C11.4448 11.6538 10.8077 12.291 10.8077 13.0769H11.8077ZM12.2308 12.6538C12.4644 12.6538 12.6539 12.8433 12.6539 13.0769H13.6539C13.6539 12.291 13.0167 11.6538 12.2308 11.6538V12.6538ZM12.6539 13.0769C12.6539 13.3106 12.4644 13.5 12.2308 13.5V14.5C13.0167 14.5 13.6539 13.8629 13.6539 13.0769H12.6539ZM12.2308 13.5C11.9971 13.5 11.8077 13.3106 11.8077 13.0769H10.8077C10.8077 13.8629 11.4448 14.5 12.2308 14.5V13.5ZM8.57693 13.0769C8.57693 12.8433 8.76635 12.6538 9.00001 12.6538V11.6538C8.21406 11.6538 7.57693 12.291 7.57693 13.0769H8.57693ZM9.00001 12.6538C9.23367 12.6538 9.42308 12.8433 9.42308 13.0769H10.4231C10.4231 12.291 9.78595 11.6538 9.00001 11.6538V12.6538ZM9.42308 13.0769C9.42308 13.3106 9.23367 13.5 9.00001 13.5V14.5C9.78595 14.5 10.4231 13.8629 10.4231 13.0769H9.42308ZM9.00001 13.5C8.76635 13.5 8.57693 13.3106 8.57693 13.0769H7.57693C7.57693 13.8629 8.21406 14.5 9.00001 14.5V13.5ZM5.34616 13.0769C5.34616 12.8433 5.53558 12.6538 5.76924 12.6538V11.6538C4.98329 11.6538 4.34616 12.291 4.34616 13.0769H5.34616ZM5.76924 12.6538C6.0029 12.6538 6.19231 12.8433 6.19231 13.0769H7.19231C7.19231 12.291 6.55518 11.6538 5.76924 11.6538V12.6538ZM6.19231 13.0769C6.19231 13.3106 6.0029 13.5 5.76924 13.5V14.5C6.55518 14.5 7.19231 13.8629 7.19231 13.0769H6.19231ZM5.76924 13.5C5.53558 13.5 5.34616 13.3106 5.34616 13.0769H4.34616C4.34616 13.8629 4.98329 14.5 5.76924 14.5V13.5ZM11.8077 17.2308C11.8077 16.9971 11.9971 16.8077 12.2308 16.8077V15.8077C11.4448 15.8077 10.8077 16.4448 10.8077 17.2308H11.8077ZM12.2308 16.8077C12.4644 16.8077 12.6539 16.9971 12.6539 17.2308H13.6539C13.6539 16.4448 13.0167 15.8077 12.2308 15.8077V16.8077ZM12.6539 17.2308C12.6539 17.4644 12.4644 17.6538 12.2308 17.6538V18.6538C13.0167 18.6538 13.6539 18.0167 13.6539 17.2308H12.6539ZM12.2308 17.6538C11.9971 17.6538 11.8077 17.4644 11.8077 17.2308H10.8077C10.8077 18.0167 11.4448 18.6538 12.2308 18.6538V17.6538ZM8.57693 17.2308C8.57693 16.9971 8.76635 16.8077 9.00001 16.8077V15.8077C8.21406 15.8077 7.57693 16.4448 7.57693 17.2308H8.57693ZM9.00001 16.8077C9.23367 16.8077 9.42308 16.9971 9.42308 17.2308H10.4231C10.4231 16.4448 9.78595 15.8077 9.00001 15.8077V16.8077ZM9.42308 17.2308C9.42308 17.4644 9.23367 17.6538 9.00001 17.6538V18.6538C9.78595 18.6538 10.4231 18.0167 10.4231 17.2308H9.42308ZM9.00001 17.6538C8.76635 17.6538 8.57693 17.4644 8.57693 17.2308H7.57693C7.57693 18.0167 8.21406 18.6538 9.00001 18.6538V17.6538ZM5.34616 17.2308C5.34616 16.9971 5.53558 16.8077 5.76924 16.8077V15.8077C4.98329 15.8077 4.34616 16.4448 4.34616 17.2308H5.34616ZM5.76924 16.8077C6.0029 16.8077 6.19231 16.9971 6.19231 17.2308H7.19231C7.19231 16.4448 6.55518 15.8077 5.76924 15.8077V16.8077ZM6.19231 17.2308C6.19231 17.4644 6.0029 17.6538 5.76924 17.6538V18.6538C6.55518 18.6538 7.19231 18.0167 7.19231 17.2308H6.19231ZM5.76924 17.6538C5.53558 17.6538 5.34616 17.4644 5.34616 17.2308H4.34616C4.34616 18.0167 4.98329 18.6538 5.76924 18.6538V17.6538Z" fill="#424242"/>
</svg>
