<svg width="24" height="24" viewBox="0 0 24 24" fill="none" xmlns="http://www.w3.org/2000/svg">
<path d="M21.5 13C21.5 13.2761 21.7239 13.5 22 13.5C22.2761 13.5 22.5 13.2761 22.5 13H22H21.5ZM16.5191 21.5C16.7953 21.5 17.0191 21.2761 17.0191 21C17.0191 20.7239 16.7953 20.5 16.5191 20.5V21V21.5ZM16.5191 3.5C16.7953 3.5 17.0191 3.27614 17.0191 3C17.0191 2.72386 16.7953 2.5 16.5191 2.5V3V3.5ZM22.5 11C22.5 10.7239 22.2761 10.5 22 10.5C21.7239 10.5 21.5 10.7239 21.5 11H22H22.5ZM21.5899 20.6983L21.113 20.548L21.5899 20.6983ZM21.5899 3.30175L22.0668 3.15152L21.5899 3.30175ZM10 3V3.5H16.5191V3V2.5H10V3ZM22 11H21.5V13H22H22.5V11H22ZM16.5191 21V20.5H10V21V21.5H16.5191V21ZM2 13H2.5V11H2H1.5V13H2ZM10 21V20.5C8.10025 20.5 6.72573 20.4989 5.67754 20.358C4.64373 20.219 4.00253 19.9523 3.52513 19.4749L3.17157 19.8284L2.81802 20.182C3.51219 20.8762 4.39959 21.1952 5.54429 21.3491C6.6746 21.5011 8.12852 21.5 10 21.5V21ZM2 13H1.5C1.5 14.8715 1.49894 16.3254 1.65091 17.4557C1.80481 18.6004 2.12385 19.4878 2.81802 20.182L3.17157 19.8284L3.52513 19.4749C3.04772 18.9975 2.78098 18.3563 2.64199 17.3225C2.50106 16.2743 2.5 14.8998 2.5 13H2ZM10 3V2.5C8.12852 2.5 6.67461 2.49894 5.54429 2.65091C4.39959 2.80481 3.51219 3.12385 2.81802 3.81802L3.17157 4.17157L3.52513 4.52513C4.00253 4.04772 4.64373 3.78098 5.67754 3.64199C6.72573 3.50106 8.10025 3.5 10 3.5V3ZM2 11H2.5C2.5 9.10025 2.50106 7.72573 2.64199 6.67754C2.78098 5.64373 3.04772 5.00253 3.52513 4.52513L3.17157 4.17157L2.81802 3.81802C2.12385 4.51219 1.80481 5.39959 1.65091 6.54429C1.49894 7.67461 1.5 9.12852 1.5 11H2ZM8.2 6V6.5H9.8V6V5.5H8.2V6ZM13 7.77778H12.5V8.22222H13H13.5V7.77778H13ZM9.8 10V9.5H8.2V10V10.5H9.8V10ZM5 8.22222H5.5V7.77778H5H4.5V8.22222H5ZM8.2 10V9.5C7.43783 9.5 6.89427 9.49967 6.48161 9.46885C6.06633 9.43783 5.84901 9.37899 5.71145 9.30257L5.46863 9.73965L5.22581 10.1767C5.55688 10.3607 5.95099 10.432 6.40712 10.4661C6.86586 10.5003 7.45368 10.5 8.2 10.5V10ZM5 8.22222H4.5C4.5 8.61656 4.4967 9.00151 4.57261 9.31518C4.66176 9.68358 4.86113 9.97413 5.22581 10.1767L5.46863 9.73965L5.71145 9.30257C5.6075 9.24482 5.57255 9.19568 5.54455 9.07997C5.5033 8.90953 5.5 8.66594 5.5 8.22222H5ZM13 8.22222H12.5C12.5 8.66594 12.4967 8.90953 12.4555 9.07997C12.4274 9.19568 12.3925 9.24482 12.2885 9.30257L12.5314 9.73965L12.7742 10.1767C13.1389 9.97413 13.3382 9.68358 13.4274 9.31518C13.5033 9.00151 13.5 8.61656 13.5 8.22222H13ZM9.8 10V10.5C10.5463 10.5 11.1341 10.5003 11.5929 10.4661C12.049 10.432 12.4431 10.3607 12.7742 10.1767L12.5314 9.73965L12.2885 9.30257C12.151 9.37899 11.9337 9.43783 11.5184 9.46885C11.1057 9.49967 10.5622 9.5 9.8 9.5V10ZM9.8 6V6.5C10.5622 6.5 11.1057 6.50033 11.5184 6.53115C11.9337 6.56217 12.151 6.62101 12.2885 6.69743L12.5314 6.26035L12.7742 5.82327C12.4431 5.63934 12.049 5.568 11.5929 5.53393C11.1341 5.49967 10.5463 5.5 9.8 5.5V6ZM13 7.77778H13.5C13.5 7.38344 13.5033 6.99849 13.4274 6.68482C13.3382 6.31642 13.1389 6.02587 12.7742 5.82327L12.5314 6.26035L12.2885 6.69743C12.3925 6.75518 12.4274 6.80432 12.4555 6.92003C12.4967 7.09047 12.5 7.33406 12.5 7.77778H13ZM8.2 6V5.5C7.45368 5.5 6.86586 5.49967 6.40712 5.53393C5.95099 5.568 5.55688 5.63934 5.22581 5.82327L5.46863 6.26035L5.71145 6.69743C5.84901 6.62101 6.06633 6.56217 6.48161 6.53115C6.89427 6.50033 7.43783 6.5 8.2 6.5V6ZM5 7.77778H5.5C5.5 7.33406 5.5033 7.09047 5.54455 6.92003C5.57255 6.80432 5.6075 6.75518 5.71145 6.69743L5.46863 6.26035L5.22581 5.82327C4.86113 6.02587 4.66176 6.31642 4.57261 6.68482C4.4967 6.99849 4.5 7.38344 4.5 7.77778H5ZM18.8 2V2.5H20.2V2V1.5H18.8V2ZM22 10.8889H21.5V13.1111H22H22.5V10.8889H22ZM20.2 22V21.5H18.8V22V22.5H20.2V22ZM16 13.1111H16.5V10.8889H16H15.5V13.1111H16ZM18.8 22V21.5C18.1002 21.5 17.7259 21.4909 17.4601 21.3774C17.2639 21.2937 17.068 21.1228 16.8869 20.548L16.4101 20.6983L15.9332 20.8485C16.1621 21.5755 16.5012 22.0554 17.0675 22.2971C17.5642 22.5091 18.1799 22.5 18.8 22.5V22ZM16 13.1111H15.5C15.5 15.2017 15.4999 16.7856 15.5517 18.009C15.6033 19.2279 15.7074 20.1319 15.9332 20.8485L16.4101 20.6983L16.8869 20.548C16.7026 19.9629 16.6017 19.1684 16.5508 17.9667C16.5001 16.7695 16.5 15.2107 16.5 13.1111H16ZM22 13.1111H21.5C21.5 15.2107 21.4999 16.7695 21.4492 17.9667C21.3983 19.1684 21.2974 19.9629 21.113 20.548L21.5899 20.6983L22.0668 20.8485C22.2926 20.1319 22.3967 19.2279 22.4483 18.009C22.5001 16.7856 22.5 15.2017 22.5 13.1111H22ZM20.2 22V22.5C20.6451 22.5 21.069 22.4312 21.4144 22.1054C21.7253 21.8122 21.903 21.3688 22.0668 20.8485L21.5899 20.6983L21.113 20.548C20.9472 21.0746 20.8299 21.2821 20.7282 21.378C20.661 21.4414 20.5549 21.5 20.2 21.5V22ZM20.2 2V2.5C20.5365 2.5 20.6537 2.56415 20.7303 2.63808C20.8394 2.74346 20.9573 2.95747 21.113 3.45197L21.5899 3.30175L22.0668 3.15152C21.9098 2.65294 21.7327 2.21608 21.4251 1.91885C21.0848 1.59018 20.6635 1.5 20.2 1.5V2ZM22 10.8889H22.5C22.5 8.79826 22.5001 7.21436 22.4483 5.99097C22.3967 4.7721 22.2926 3.86812 22.0668 3.15152L21.5899 3.30175L21.113 3.45197C21.2974 4.03712 21.3983 4.83158 21.4492 6.03328C21.4999 7.23046 21.5 8.78925 21.5 10.8889H22ZM18.8 2V1.5C18.1799 1.5 17.5642 1.49088 17.0675 1.70285C16.5012 1.94456 16.1621 2.42455 15.9332 3.15152L16.4101 3.30175L16.8869 3.45197C17.068 2.8772 17.2639 2.70631 17.4601 2.62258C17.7259 2.50912 18.1002 2.5 18.8 2.5V2ZM16 10.8889H16.5C16.5 8.78925 16.5001 7.23046 16.5508 6.03328C16.6017 4.83158 16.7026 4.03712 16.8869 3.45197L16.4101 3.30175L15.9332 3.15152C15.7074 3.86812 15.6033 4.7721 15.5517 5.99097C15.4999 7.21436 15.5 8.79826 15.5 10.8889H16Z" fill="#424242"/>
</svg>
