<svg width="24" height="24" viewBox="0 0 24 24" fill="none" xmlns="http://www.w3.org/2000/svg">
<path d="M20.6464 21.3536C20.8417 21.5488 21.1583 21.5488 21.3536 21.3536C21.5488 21.1583 21.5488 20.8417 21.3536 20.6464L20.6464 21.3536ZM10.1328 15.2615L10.4484 14.8738V14.8738L10.1328 15.2615ZM11.5 9.02966L11.1342 9.37057C11.2288 9.47204 11.3613 9.52966 11.5 9.52966C11.6387 9.52966 11.7712 9.47204 11.8658 9.37057L11.5 9.02966ZM12.8672 15.2615L13.1829 15.6493V15.6493L12.8672 15.2615ZM19.6 11.55C19.6 15.9959 15.9959 19.6 11.55 19.6V20.6C16.5482 20.6 20.6 16.5482 20.6 11.55H19.6ZM11.55 19.6C7.10411 19.6 3.5 15.9959 3.5 11.55H2.5C2.5 16.5482 6.55182 20.6 11.55 20.6V19.6ZM3.5 11.55C3.5 7.10411 7.10411 3.5 11.55 3.5V2.5C6.55182 2.5 2.5 6.55182 2.5 11.55H3.5ZM11.55 3.5C15.9959 3.5 19.6 7.10411 19.6 11.55H20.6C20.6 6.55182 16.5482 2.5 11.55 2.5V3.5ZM17.4964 18.2036L20.6464 21.3536L21.3536 20.6464L18.2036 17.4964L17.4964 18.2036ZM10.4484 14.8738C9.75717 14.311 9.02874 13.7819 8.44898 13.1078C7.8862 12.4534 7.5 11.6987 7.5 10.7196H6.5C6.5 12.0003 7.01817 12.9777 7.69078 13.7598C8.34639 14.5222 9.18435 15.1342 9.81711 15.6493L10.4484 14.8738ZM7.5 10.7196C7.5 9.76787 8.02053 8.98727 8.70409 8.6646C9.35141 8.35904 10.248 8.41965 11.1342 9.37057L11.8658 8.68876C10.7271 7.46708 9.37367 7.24272 8.27722 7.76029C7.21701 8.26076 6.5 9.41141 6.5 10.7196H7.5ZM9.81711 15.6493C10.046 15.8356 10.3022 16.0432 10.5645 16.2015C10.8262 16.3594 11.1439 16.5 11.5 16.5V15.5C11.4061 15.5 11.2738 15.4615 11.0812 15.3453C10.8892 15.2294 10.6867 15.0678 10.4484 14.8738L9.81711 15.6493ZM13.1829 15.6493C13.8156 15.1342 14.6536 14.5222 15.3092 13.7598C15.9818 12.9777 16.5 12.0003 16.5 10.7196H15.5C15.5 11.6987 15.1138 12.4534 14.551 13.1078C13.9713 13.7819 13.2428 14.311 12.5516 14.8738L13.1829 15.6493ZM16.5 10.7196C16.5 9.41141 15.783 8.26076 14.7228 7.76029C13.6263 7.24272 12.2729 7.46708 11.1342 8.68876L11.8658 9.37057C12.752 8.41965 13.6486 8.35904 14.2959 8.6646C14.9795 8.98727 15.5 9.76787 15.5 10.7196H16.5ZM12.5516 14.8738C12.3133 15.0678 12.1108 15.2294 11.9188 15.3453C11.7262 15.4615 11.5939 15.5 11.5 15.5V16.5C11.8561 16.5 12.1738 16.3594 12.4355 16.2015C12.6978 16.0432 12.954 15.8356 13.1829 15.6493L12.5516 14.8738Z" fill="#424242"/>
</svg>
