<svg width="24" height="24" viewBox="0 0 24 24" fill="none" xmlns="http://www.w3.org/2000/svg">
<path d="M12 3C13.1361 3 14.0571 3.92101 14.0571 5.05714C14.0571 6.19327 13.1361 7.11429 12 7.11429C10.8639 7.11429 9.94286 6.19327 9.94286 5.05714C9.94286 3.92101 10.8639 3 12 3Z" stroke="#424242" stroke-linecap="round"/>
<path d="M5.05714 3C6.19327 3 7.11429 3.92101 7.11429 5.05714C7.11429 6.19327 6.19327 7.11429 5.05714 7.11429C3.92102 7.11429 3 6.19327 3 5.05714C3 3.92101 3.92102 3 5.05714 3Z" stroke="#424242" stroke-linecap="round"/>
<path d="M18.9429 3C20.079 3 21 3.92101 21 5.05714C21 6.19327 20.079 7.11429 18.9429 7.11429C17.8067 7.11429 16.8857 6.19327 16.8857 5.05714C16.8857 3.92101 17.8067 3 18.9429 3Z" stroke="#424242" stroke-linecap="round"/>
<path d="M12 9.94286C13.1361 9.94286 14.0571 10.8639 14.0571 12C14.0571 13.1361 13.1361 14.0571 12 14.0571C10.8639 14.0571 9.94286 13.1361 9.94286 12C9.94286 10.8639 10.8639 9.94286 12 9.94286Z" stroke="#424242" stroke-linecap="round"/>
<path d="M5.05714 9.94286C6.19327 9.94286 7.11429 10.8639 7.11429 12C7.11429 13.1361 6.19327 14.0571 5.05714 14.0571C3.92102 14.0571 3 13.1361 3 12C3 10.8639 3.92102 9.94286 5.05714 9.94286Z" stroke="#424242" stroke-linecap="round"/>
<path d="M18.9429 9.94286C20.079 9.94286 21 10.8639 21 12C21 13.1361 20.079 14.0571 18.9429 14.0571C17.8067 14.0571 16.8857 13.1361 16.8857 12C16.8857 10.8639 17.8067 9.94286 18.9429 9.94286Z" stroke="#424242" stroke-linecap="round"/>
<path d="M12 16.8857C13.1361 16.8857 14.0571 17.8067 14.0571 18.9429C14.0571 20.079 13.1361 21 12 21C10.8639 21 9.94286 20.079 9.94286 18.9429C9.94286 17.8067 10.8639 16.8857 12 16.8857Z" stroke="#424242" stroke-linecap="round"/>
</svg>
