<svg width="24" height="24" viewBox="0 0 24 24" fill="none" xmlns="http://www.w3.org/2000/svg">
<path d="M19 18H19.5V18H19ZM7.73736 5.05399L8.21088 5.21457L8.21088 5.21457L7.73736 5.05399ZM5 14.584H5.5C5.5 14.3852 5.3823 14.2053 5.20019 14.1258L5 14.584ZM19 14.584L18.7998 14.1258C18.6177 14.2053 18.5 14.3852 18.5 14.584H19ZM16 7C16 7.27614 16.2239 7.5 16.5 7.5C16.7761 7.5 17 7.27614 17 7H16ZM7 7C7 7.27614 7.22386 7.5 7.5 7.5C7.77614 7.5 8 7.27614 8 7H7ZM7 5V4.5C3.96243 4.5 1.5 6.96243 1.5 10H2H2.5C2.5 7.51472 4.51472 5.5 7 5.5V5ZM17 5V5.5C19.4853 5.5 21.5 7.51472 21.5 10H22H22.5C22.5 6.96243 20.0376 4.5 17 4.5V5ZM15 22V21.5H9V22V22.5H15V22ZM9 22V21.5C8.04306 21.5 7.37565 21.4989 6.87208 21.4312C6.3829 21.3655 6.12385 21.2452 5.93934 21.0607L5.58579 21.4142L5.23223 21.7678C5.63351 22.169 6.13876 22.3416 6.73883 22.4223C7.32452 22.5011 8.07133 22.5 9 22.5V22ZM5 18H4.5C4.5 18.9287 4.49894 19.6755 4.57768 20.2612C4.65836 20.8612 4.83096 21.3665 5.23223 21.7678L5.58579 21.4142L5.93934 21.0607C5.75483 20.8762 5.63453 20.6171 5.56876 20.1279C5.50106 19.6244 5.5 18.9569 5.5 18H5ZM19 18H18.5C18.5 18.9569 18.4989 19.6244 18.4312 20.1279C18.3655 20.6171 18.2452 20.8762 18.0607 21.0607L18.4142 21.4142L18.7678 21.7678C19.169 21.3665 19.3416 20.8612 19.4223 20.2612C19.5011 19.6755 19.5 18.9287 19.5 18H19ZM15 22V22.5C15.9287 22.5 16.6755 22.5011 17.2612 22.4223C17.8612 22.3416 18.3665 22.169 18.7678 21.7678L18.4142 21.4142L18.0607 21.0607C17.8762 21.2452 17.6171 21.3655 17.1279 21.4312C16.6244 21.4989 15.9569 21.5 15 21.5V22ZM7 5V5.5C7.22597 5.5 7.44775 5.51662 7.66425 5.54862L7.73736 5.05399L7.81047 4.55936C7.54571 4.52023 7.27507 4.5 7 4.5V5ZM12 2V1.5C9.79984 1.5 7.93282 2.92075 7.26385 4.89341L7.73736 5.05399L8.21088 5.21457C8.74641 3.63536 10.2413 2.5 12 2.5V2ZM7.73736 5.05399L7.26385 4.89341C7.09264 5.39829 7 5.93884 7 6.5H7.5H8C8 6.04949 8.07428 5.61735 8.21088 5.21457L7.73736 5.05399ZM17 5V4.5C16.7249 4.5 16.4543 4.52023 16.1895 4.55936L16.2626 5.05399L16.3357 5.54862C16.5522 5.51662 16.774 5.5 17 5.5V5ZM12 2V2.5C13.7587 2.5 15.2536 3.63536 15.7891 5.21457L16.2626 5.05399L16.7362 4.89341C16.0672 2.92075 14.2002 1.5 12 1.5V2ZM16.2626 5.05399L15.7891 5.21457C15.9257 5.61735 16 6.04949 16 6.5H16.5H17C17 5.93884 16.9074 5.39829 16.7362 4.89341L16.2626 5.05399ZM5 18H5.5V14.584H5H4.5V18H5ZM5 14.584L5.20019 14.1258C3.60983 13.4309 2.5 11.8445 2.5 10H2H1.5C1.5 12.2561 2.85836 14.1939 4.79981 15.0421L5 14.584ZM19 14.584H18.5L18.5 18H19H19.5L19.5 14.584H19ZM22 10H21.5C21.5 11.8445 20.3902 13.4309 18.7998 14.1258L19 14.584L19.2002 15.0421C21.1416 14.1939 22.5 12.2561 22.5 10H22ZM16.5 6.5H16V7H16.5H17V6.5H16.5ZM7.5 6.5H7V7H7.5H8V6.5H7.5ZM5 18V18.5H19V18V17.5H5V18Z" fill="#424242"/>
</svg>
