<svg width="24" height="24" viewBox="0 0 24 24" fill="none" xmlns="http://www.w3.org/2000/svg">
<path d="M21.1213 17.1213L20.7678 16.7678V16.7678L21.1213 17.1213ZM21.1213 2.87868L21.4749 2.52513V2.52513L21.1213 2.87868ZM2.87868 2.87868L2.52513 2.52513L2.52513 2.52513L2.87868 2.87868ZM2.87868 17.1213L3.23223 16.7678H3.23223L2.87868 17.1213ZM17.3197 17.9957L17.3212 18.4957L17.325 18.4957L17.3197 17.9957ZM9 5.5C8.72386 5.5 8.5 5.72386 8.5 6C8.5 6.27614 8.72386 6.5 9 6.5V5.5ZM15 6.5C15.2761 6.5 15.5 6.27614 15.5 6C15.5 5.72386 15.2761 5.5 15 5.5V6.5ZM7 9C6.72386 9 6.5 9.22386 6.5 9.5C6.5 9.77614 6.72386 10 7 10V9ZM17 10C17.2761 10 17.5 9.77614 17.5 9.5C17.5 9.22386 17.2761 9 17 9V10ZM9.91737 14.3485L9.95714 14.8469L9.91737 14.3485ZM10.8907 13.9454L10.5664 13.5648L10.8907 13.9454ZM8.34852 15.9174L8.84694 15.9571L8.34852 15.9174ZM7.94537 16.8907L7.56482 16.5663L7.94537 16.8907ZM7.94537 19.1093L7.56482 19.4336L7.94537 19.1093ZM8.34852 20.0826L7.85011 20.1224L8.34852 20.0826ZM9.91737 21.6515L9.95714 21.1531L9.91737 21.6515ZM10.8907 22.0546L11.215 21.6741V21.6741L10.8907 22.0546ZM13.1093 22.0546L12.785 21.6741V21.6741L13.1093 22.0546ZM14.0826 21.6515L14.0429 21.1531L14.0826 21.6515ZM15.6515 20.0826L15.1531 20.0429L15.6515 20.0826ZM16.0546 19.1093L15.6741 18.785V18.785L16.0546 19.1093ZM16.0546 16.8907L15.6741 17.215V17.215L16.0546 16.8907ZM15.6515 15.9174L15.1531 15.9571L15.6515 15.9174ZM14.0826 14.3485L14.1224 13.8501L14.0826 14.3485ZM13.1093 13.9454L13.4337 13.5648L13.1093 13.9454ZM10.8412 17.8345C10.6393 17.6461 10.3229 17.657 10.1345 17.8588C9.94606 18.0607 9.95697 18.3771 10.1588 18.5655L10.8412 17.8345ZM11.3571 19L11.016 19.3655C11.2081 19.5448 11.5062 19.5448 11.6983 19.3655L11.3571 19ZM13.8412 17.3655C14.043 17.1771 14.0539 16.8607 13.8655 16.6588C13.6771 16.457 13.3607 16.4461 13.1588 16.6345L13.8412 17.3655ZM2.5 12V8H1.5V12H2.5ZM8 2.5H16V1.5H8V2.5ZM21.5 8V12H22.5V8H21.5ZM21.5 12C21.5 13.4283 21.4989 14.4493 21.3946 15.2252C21.2922 15.9867 21.0987 16.4368 20.7678 16.7678L21.4749 17.4749C22.0226 16.9271 22.2684 16.2308 22.3857 15.3584C22.5011 14.5004 22.5 13.4001 22.5 12H21.5ZM16 2.5C17.4283 2.5 18.4493 2.50106 19.2252 2.60538C19.9867 2.70776 20.4368 2.90128 20.7678 3.23223L21.4749 2.52513C20.9272 1.9774 20.2308 1.73158 19.3584 1.61429C18.5004 1.49894 17.4001 1.5 16 1.5V2.5ZM22.5 8C22.5 6.59992 22.5011 5.49956 22.3857 4.64156C22.2684 3.76917 22.0226 3.07285 21.4749 2.52513L20.7678 3.23223C21.0987 3.56319 21.2922 4.01331 21.3946 4.77481C21.4989 5.55069 21.5 6.57165 21.5 8H22.5ZM2.5 8C2.5 6.57165 2.50106 5.55069 2.60538 4.77481C2.70776 4.01331 2.90128 3.56319 3.23223 3.23223L2.52513 2.52513C1.9774 3.07285 1.73158 3.76918 1.61429 4.64156C1.49894 5.49956 1.5 6.59992 1.5 8H2.5ZM8 1.5C6.59992 1.5 5.49956 1.49894 4.64156 1.61429C3.76917 1.73158 3.07285 1.9774 2.52513 2.52513L3.23223 3.23223C3.56319 2.90128 4.01331 2.70776 4.77481 2.60538C5.55069 2.50106 6.57165 2.5 8 2.5V1.5ZM1.5 12C1.5 13.4001 1.49894 14.5004 1.61429 15.3584C1.73158 16.2308 1.9774 16.9271 2.52513 17.4749L3.23223 16.7678C2.90128 16.4368 2.70776 15.9867 2.60538 15.2252C2.50106 14.4493 2.5 13.4283 2.5 12H1.5ZM17.325 18.4957C18.3109 18.4852 19.1219 18.4496 19.7862 18.3143C20.4643 18.1762 21.0213 17.9285 21.4749 17.4749L20.7678 16.7678C20.4915 17.044 20.1339 17.223 19.5867 17.3344C19.0258 17.4487 18.3009 17.4853 17.3144 17.4958L17.325 18.4957ZM7.00278 17.4983C5.91128 17.4922 5.11515 17.4642 4.50218 17.3516C3.90351 17.2417 3.5226 17.0581 3.23223 16.7678L2.52513 17.4749C3.00314 17.9529 3.59538 18.2018 4.32152 18.3352C5.03336 18.4659 5.91369 18.4922 6.99722 18.4983L7.00278 17.4983ZM17.3181 17.4957L16.4985 17.4983L16.5015 18.4983L17.3212 18.4957L17.3181 17.4957ZM9 6.5H15V5.5H9V6.5ZM7 10H17V9H7V10ZM9.95714 14.8469C10.4208 14.8099 10.861 14.6276 11.215 14.3259L10.5664 13.5648C10.3725 13.73 10.1315 13.8298 9.8776 13.8501L9.95714 14.8469ZM8.84694 15.9571C8.89422 15.3647 9.36468 14.8942 9.95714 14.8469L9.8776 13.8501C8.79562 13.9365 7.93645 14.7956 7.85011 15.8776L8.84694 15.9571ZM8.32593 17.215C8.62762 16.861 8.80994 16.4208 8.84694 15.9571L7.85011 15.8776C7.82985 16.1315 7.73001 16.3725 7.56482 16.5663L8.32593 17.215ZM8.32593 18.785C7.94043 18.3327 7.94043 17.6673 8.32593 17.215L7.56482 16.5663C6.8608 17.3925 6.8608 18.6075 7.56482 19.4336L8.32593 18.785ZM8.84694 20.0429C8.80994 19.5792 8.62762 19.139 8.32593 18.785L7.56482 19.4336C7.73001 19.6275 7.82985 19.8685 7.85011 20.1224L8.84694 20.0429ZM9.95714 21.1531C9.36468 21.1058 8.89422 20.6353 8.84694 20.0429L7.85011 20.1224C7.93645 21.2044 8.79562 22.0635 9.8776 22.1499L9.95714 21.1531ZM11.215 21.6741C10.861 21.3724 10.4208 21.1901 9.95714 21.1531L9.8776 22.1499C10.1315 22.1702 10.3725 22.27 10.5664 22.4352L11.215 21.6741ZM12.785 21.6741C12.3327 22.0596 11.6673 22.0596 11.215 21.6741L10.5664 22.4352C11.3925 23.1392 12.6075 23.1392 13.4337 22.4352L12.785 21.6741ZM14.0429 21.1531C13.5792 21.1901 13.139 21.3724 12.785 21.6741L13.4337 22.4352C13.6275 22.27 13.8685 22.1702 14.1224 22.1499L14.0429 21.1531ZM15.1531 20.0429C15.1058 20.6353 14.6353 21.1058 14.0429 21.1531L14.1224 22.1499C15.2044 22.0635 16.0636 21.2044 16.1499 20.1224L15.1531 20.0429ZM15.6741 18.785C15.3724 19.139 15.1901 19.5792 15.1531 20.0429L16.1499 20.1224C16.1702 19.8685 16.27 19.6275 16.4352 19.4336L15.6741 18.785ZM15.6741 17.215C16.0596 17.6673 16.0596 18.3327 15.6741 18.785L16.4352 19.4336C17.1392 18.6075 17.1392 17.3925 16.4352 16.5663L15.6741 17.215ZM15.1531 15.9571C15.1901 16.4208 15.3724 16.861 15.6741 17.215L16.4352 16.5663C16.27 16.3725 16.1702 16.1315 16.1499 15.8776L15.1531 15.9571ZM14.0429 14.8469C14.6353 14.8942 15.1058 15.3647 15.1531 15.9571L16.1499 15.8776C16.0636 14.7956 15.2044 13.9365 14.1224 13.8501L14.0429 14.8469ZM12.785 14.3259C13.139 14.6276 13.5792 14.8099 14.0429 14.8469L14.1224 13.8501C13.8685 13.8298 13.6275 13.73 13.4337 13.5648L12.785 14.3259ZM13.4337 13.5648C12.6075 12.8608 11.3925 12.8608 10.5664 13.5648L11.215 14.3259C11.6673 13.9404 12.3327 13.9404 12.785 14.3259L13.4337 13.5648ZM10.1588 18.5655L11.016 19.3655L11.6983 18.6345L10.8412 17.8345L10.1588 18.5655ZM11.6983 19.3655L13.8412 17.3655L13.1588 16.6345L11.016 18.6345L11.6983 19.3655Z" fill="#424242"/>
</svg>
