<svg width="24" height="24" viewBox="0 0 24 24" fill="none" xmlns="http://www.w3.org/2000/svg">
<path d="M3.02484 11.8148L3.51753 11.9V11.9L3.02484 11.8148ZM3.73038 7.73505L4.22307 7.82025V7.82025L3.73038 7.73505ZM17.0622 3.52293L17.5604 3.47985V3.47985L17.0622 3.52293ZM17.8744 12.9156L17.3763 12.9587V12.9587L17.8744 12.9156ZM10.005 18.7786L9.51163 18.6977V18.6977L10.005 18.7786ZM10.6677 14.734L10.1743 14.6532V14.6532L10.6677 14.734ZM17.3019 14.3225L17.6283 14.7013H17.6283L17.3019 14.3225ZM15.8631 15.5623L15.5367 15.1835V15.1835L15.8631 15.5623ZM13.4819 19.2163L13.9659 19.3418V19.3418L13.4819 19.2163ZM13.0062 21.0501L12.5223 20.9246V20.9246L13.0062 21.0501ZM11.3324 21.9356L11.4853 21.4596L11.4853 21.4596L11.3324 21.9356ZM11.1874 21.8891L11.0345 22.3651L11.0345 22.3651L11.1874 21.8891ZM14.1381 17.5374L13.697 17.3018V17.3018L14.1381 17.5374ZM10.0953 20.7525L10.5793 20.6269V20.6269L10.0953 20.7525ZM12.3258 21.8676L12.5429 22.318V22.318L12.3258 21.8676ZM20.0284 2.52928L20.5265 2.48621V2.48621L20.0284 2.52928ZM21 13.7658L20.5019 13.8089C20.5249 14.0756 20.754 14.2769 21.0216 14.2653C21.2891 14.2538 21.5 14.0336 21.5 13.7658H21ZM3.51753 11.9L4.22307 7.82025L3.23769 7.64985L2.53216 11.7296L3.51753 11.9ZM10.755 2.5H15.4037V1.5H10.755V2.5ZM16.5641 3.566L17.3763 12.9587L18.3725 12.8725L17.5604 3.47985L16.5641 3.566ZM4.22307 7.82025C4.75171 4.76338 7.50373 2.5 10.755 2.5V1.5C7.04375 1.5 3.85369 4.08784 3.23769 7.64985L4.22307 7.82025ZM10.4985 18.8594L11.1611 14.8149L10.1743 14.6532L9.51163 18.6977L10.4985 18.8594ZM16.9755 13.9437L15.5367 15.1835L16.1895 15.9411L17.6283 14.7013L16.9755 13.9437ZM12.998 19.0907L12.5223 20.9246L13.4902 21.1757L13.9659 19.3418L12.998 19.0907ZM11.4853 21.4596L11.3404 21.413L11.0345 22.3651L11.1795 22.4117L11.4853 21.4596ZM13.697 17.3018C13.3943 17.8685 13.1593 18.4687 12.998 19.0907L13.9659 19.3418C14.1073 18.7969 14.3133 18.2706 14.5791 17.773L13.697 17.3018ZM11.3404 21.413C10.9555 21.2894 10.6732 20.9887 10.5793 20.6269L9.61134 20.878C9.79447 21.584 10.3359 22.1407 11.0345 22.3651L11.3404 21.413ZM12.5223 20.9246C12.4682 21.133 12.3203 21.3152 12.1087 21.4172L12.5429 22.318C13.0108 22.0926 13.36 21.6776 13.4902 21.1757L12.5223 20.9246ZM12.1087 21.4172C11.916 21.51 11.6912 21.5257 11.4853 21.4596L11.1795 22.4117C11.6284 22.5559 12.1182 22.5227 12.5429 22.318L12.1087 21.4172ZM9.84631 13.2658H4.66522V14.2658H9.84631V13.2658ZM19.5303 2.57235L20.5019 13.8089L21.4981 13.7227L20.5265 2.48621L19.5303 2.57235ZM20.5 2.48726V13.7658H21.5V2.48726H20.5ZM20.5265 2.48621C20.5265 2.48619 20.5266 2.48637 20.5266 2.48674C20.5265 2.48711 20.5265 2.48758 20.5264 2.48813C20.5263 2.48927 20.526 2.49043 20.5256 2.49151C20.5249 2.49359 20.524 2.49487 20.5233 2.49566C20.5226 2.49645 20.5213 2.49754 20.5191 2.49852C20.5165 2.49969 20.5141 2.5 20.5133 2.5V1.5C19.9342 1.5 19.4804 1.99628 19.5303 2.57235L20.5265 2.48621ZM9.51163 18.6977C9.39272 19.4235 9.42668 20.1662 9.61134 20.878L10.5793 20.6269C10.4296 20.0498 10.4021 19.4478 10.4985 18.8594L9.51163 18.6977ZM15.4037 2.5C16.0075 2.5 16.5119 2.96248 16.5641 3.566L17.5604 3.47985C17.4636 2.3603 16.5273 1.5 15.4037 1.5V2.5ZM15.5367 15.1835C14.861 15.7658 14.1584 16.4382 13.697 17.3018L14.5791 17.773C14.9484 17.0815 15.5302 16.5092 16.1895 15.9411L15.5367 15.1835ZM2.53216 11.7296C2.30319 13.0536 3.32137 14.2658 4.66522 14.2658V13.2658C3.94313 13.2658 3.39406 12.614 3.51753 11.9L2.53216 11.7296ZM20.5133 2.5C20.5123 2.5 20.5101 2.4997 20.5078 2.49871C20.5058 2.49787 20.5045 2.49688 20.5037 2.49607C20.5029 2.49525 20.502 2.49403 20.5012 2.49218C20.5003 2.49001 20.5 2.48801 20.5 2.48726H21.5C21.5 1.94254 21.0588 1.5 20.5133 1.5V2.5ZM11.1611 14.8149C11.294 14.0039 10.6689 13.2658 9.84631 13.2658V14.2658C10.0507 14.2658 10.2077 14.4496 10.1743 14.6532L11.1611 14.8149ZM17.3763 12.9587C17.4086 13.3326 17.2593 13.6991 16.9755 13.9437L17.6283 14.7013C18.1557 14.2468 18.4325 13.5663 18.3725 12.8725L17.3763 12.9587Z" fill="#424242"/>
</svg>
