<svg width="24" height="24" viewBox="0 0 24 24" fill="none" xmlns="http://www.w3.org/2000/svg">
<path d="M4.5 5.00002C4.5 4.72388 4.27614 4.50002 4 4.50002C3.72386 4.50002 3.5 4.72388 3.5 5.00002H4.5ZM18 6.00002V6.50002H18.5V6.00002H18ZM15.7172 2.32614L15.6464 1.83117V1.83117L15.7172 2.32614ZM4.91959 3.86865L4.84888 3.37368H4.84888L4.91959 3.86865ZM8 11.5C7.72386 11.5 7.5 11.7239 7.5 12C7.5 12.2762 7.72386 12.5 8 12.5V11.5ZM16 12.5C16.2761 12.5 16.5 12.2762 16.5 12C16.5 11.7239 16.2761 11.5 16 11.5V12.5ZM8 15C7.72386 15 7.5 15.2239 7.5 15.5C7.5 15.7762 7.72386 16 8 16V15ZM13.5 16C13.7761 16 14 15.7762 14 15.5C14 15.2239 13.7761 15 13.5 15V16ZM19.5 9.00002V19H20.5V9.00002H19.5ZM17 21.5H7V22.5H17V21.5ZM4.5 19V6.00002H3.5V19H4.5ZM4.5 6.00002V5.00002H3.5V6.00002H4.5ZM4 6.50002H17V5.50002H4V6.50002ZM7 21.5C5.61929 21.5 4.5 20.3807 4.5 19H3.5C3.5 20.933 5.067 22.5 7 22.5V21.5ZM19.5 19C19.5 20.3807 18.3807 21.5 17 21.5V22.5C18.933 22.5 20.5 20.933 20.5 19H19.5ZM20.5 9.00002C20.5 7.06702 18.933 5.50002 17 5.50002V6.50002C18.3807 6.50002 19.5 7.61931 19.5 9.00002H20.5ZM5.07107 6.50002H18V5.50002H5.07107V6.50002ZM18.5 6.00002V4.30604H17.5V6.00002H18.5ZM15.6464 1.83117L4.84888 3.37368L4.99031 4.36362L15.7879 2.82112L15.6464 1.83117ZM4.84888 3.37368C4.0749 3.48424 3.5 4.14711 3.5 4.92895H4.5C4.5 4.64476 4.70897 4.40382 4.99031 4.36362L4.84888 3.37368ZM18.5 4.30604C18.5 2.78467 17.1525 1.61601 15.6464 1.83117L15.7879 2.82112C16.6915 2.69202 17.5 3.39322 17.5 4.30604H18.5ZM5.07107 5.50002C4.75568 5.50002 4.5 5.24434 4.5 4.92895H3.5C3.5 5.79663 4.20339 6.50002 5.07107 6.50002V5.50002ZM8 12.5H16V11.5H8V12.5ZM8 16H13.5V15H8V16Z" fill="#424242"/>
</svg>
