<svg width="24" height="24" viewBox="0 0 24 24" fill="none" xmlns="http://www.w3.org/2000/svg">
<path d="M8 11.5C7.72386 11.5 7.5 11.7239 7.5 12C7.5 12.2761 7.72386 12.5 8 12.5V11.5ZM16 12.5C16.2761 12.5 16.5 12.2761 16.5 12C16.5 11.7239 16.2761 11.5 16 11.5V12.5ZM8 7.5C7.72386 7.5 7.5 7.72386 7.5 8C7.5 8.27614 7.72386 8.5 8 8.5V7.5ZM16 8.5C16.2761 8.5 16.5 8.27614 16.5 8C16.5 7.72386 16.2761 7.5 16 7.5V8.5ZM8 15.5C7.72386 15.5 7.5 15.7239 7.5 16C7.5 16.2761 7.72386 16.5 8 16.5V15.5ZM13 16.5C13.2761 16.5 13.5 16.2761 13.5 16C13.5 15.7239 13.2761 15.5 13 15.5V16.5ZM11 2.5H13V1.5H11V2.5ZM20.5 10V14H21.5V10H20.5ZM13 21.5H11V22.5H13V21.5ZM3.5 14V10H2.5V14H3.5ZM11 21.5C9.10025 21.5 7.72573 21.4989 6.67754 21.358C5.64373 21.219 5.00253 20.9523 4.52513 20.4749L3.81802 21.182C4.51219 21.8762 5.39959 22.1952 6.54429 22.3491C7.6746 22.5011 9.12852 22.5 11 22.5V21.5ZM2.5 14C2.5 15.8715 2.49894 17.3254 2.65091 18.4557C2.80481 19.6004 3.12385 20.4878 3.81802 21.182L4.52513 20.4749C4.04772 19.9975 3.78098 19.3563 3.64199 18.3225C3.50106 17.2743 3.5 15.8998 3.5 14H2.5ZM20.5 14C20.5 15.8998 20.4989 17.2743 20.358 18.3225C20.219 19.3563 19.9523 19.9975 19.4749 20.4749L20.182 21.182C20.8762 20.4878 21.1952 19.6004 21.3491 18.4557C21.5011 17.3254 21.5 15.8715 21.5 14H20.5ZM13 22.5C14.8715 22.5 16.3254 22.5011 17.4557 22.3491C18.6004 22.1952 19.4878 21.8762 20.182 21.182L19.4749 20.4749C18.9975 20.9523 18.3563 21.219 17.3225 21.358C16.2743 21.4989 14.8998 21.5 13 21.5V22.5ZM13 2.5C14.8998 2.5 16.2743 2.50106 17.3225 2.64199C18.3563 2.78098 18.9975 3.04772 19.4749 3.52513L20.182 2.81802C19.4878 2.12385 18.6004 1.80481 17.4557 1.65091C16.3254 1.49894 14.8715 1.5 13 1.5V2.5ZM21.5 10C21.5 8.12852 21.5011 6.67461 21.3491 5.54429C21.1952 4.39959 20.8762 3.51219 20.182 2.81802L19.4749 3.52513C19.9523 4.00253 20.219 4.64373 20.358 5.67754C20.4989 6.72573 20.5 8.10025 20.5 10H21.5ZM11 1.5C9.12852 1.5 7.67461 1.49894 6.54429 1.65091C5.39959 1.80481 4.51219 2.12385 3.81802 2.81802L4.52513 3.52513C5.00253 3.04772 5.64373 2.78098 6.67754 2.64199C7.72573 2.50106 9.10025 2.5 11 2.5V1.5ZM3.5 10C3.5 8.10025 3.50106 6.72573 3.64199 5.67754C3.78098 4.64373 4.04772 4.00253 4.52513 3.52513L3.81802 2.81802C3.12385 3.51219 2.80481 4.39959 2.65091 5.54429C2.49894 6.6746 2.5 8.12852 2.5 10H3.5ZM8 12.5H16V11.5H8V12.5ZM8 8.5H16V7.5H8V8.5ZM8 16.5H13V15.5H8V16.5Z" fill="#424242"/>
</svg>
