<svg width="24" height="24" viewBox="0 0 24 24" fill="none" xmlns="http://www.w3.org/2000/svg">
<path d="M12.5 6C12.5 5.72386 12.2761 5.5 12 5.5C11.7238 5.5 11.5 5.72386 11.5 6H12.5ZM11.5 10C11.5 10.2761 11.7238 10.5 12 10.5C12.2761 10.5 12.5 10.2761 12.5 10H11.5ZM9.99997 7.5C9.72382 7.5 9.49997 7.72386 9.49997 8C9.49997 8.27614 9.72382 8.5 9.99997 8.5V7.5ZM14 8.5C14.2761 8.5 14.5 8.27614 14.5 8C14.5 7.72386 14.2761 7.5 14 7.5V8.5ZM8 13.5C7.72386 13.5 7.5 13.7239 7.5 14C7.5 14.2761 7.72386 14.5 8 14.5V13.5ZM16 14.5C16.2761 14.5 16.5 14.2761 16.5 14C16.5 13.7239 16.2761 13.5 16 13.5V14.5ZM9 17.5C8.72386 17.5 8.5 17.7239 8.5 18C8.5 18.2761 8.72386 18.5 9 18.5V17.5ZM15 18.5C15.2761 18.5 15.5 18.2761 15.5 18C15.5 17.7239 15.2761 17.5 15 17.5V18.5ZM11 2.5H13V1.5H11V2.5ZM20.5 10V14H21.5V10H20.5ZM13 21.5H11V22.5H13V21.5ZM3.5 14V10H2.5V14H3.5ZM11 21.5C9.10025 21.5 7.72573 21.4989 6.67754 21.358C5.64373 21.219 5.00253 20.9523 4.52513 20.4749L3.81802 21.182C4.51219 21.8762 5.39959 22.1952 6.54429 22.3491C7.67461 22.5011 9.12852 22.5 11 22.5V21.5ZM2.5 14C2.5 15.8715 2.49894 17.3254 2.65091 18.4557C2.80481 19.6004 3.12385 20.4878 3.81802 21.182L4.52513 20.4749C4.04772 19.9975 3.78098 19.3563 3.64199 18.3225C3.50106 17.2743 3.5 15.8998 3.5 14H2.5ZM20.5 14C20.5 15.8998 20.4989 17.2743 20.358 18.3225C20.219 19.3563 19.9523 19.9975 19.4749 20.4749L20.182 21.182C20.8762 20.4878 21.1952 19.6004 21.3491 18.4557C21.5011 17.3254 21.5 15.8715 21.5 14H20.5ZM13 22.5C14.8715 22.5 16.3254 22.5011 17.4557 22.3491C18.6004 22.1952 19.4878 21.8762 20.182 21.182L19.4749 20.4749C18.9975 20.9523 18.3563 21.219 17.3225 21.358C16.2743 21.4989 14.8998 21.5 13 21.5V22.5ZM13 2.5C14.8998 2.5 16.2743 2.50106 17.3225 2.64199C18.3563 2.78098 18.9975 3.04772 19.4749 3.52513L20.182 2.81802C19.4878 2.12385 18.6004 1.80481 17.4557 1.65091C16.3254 1.49894 14.8715 1.5 13 1.5V2.5ZM21.5 10C21.5 8.12852 21.5011 6.67461 21.3491 5.54429C21.1952 4.39959 20.8762 3.51219 20.182 2.81802L19.4749 3.52513C19.9523 4.00253 20.219 4.64373 20.358 5.67754C20.4989 6.72573 20.5 8.10025 20.5 10H21.5ZM11 1.5C9.12852 1.5 7.67461 1.49894 6.54429 1.65091C5.39959 1.80481 4.51219 2.12385 3.81802 2.81802L4.52513 3.52513C5.00253 3.04772 5.64373 2.78098 6.67754 2.64199C7.72573 2.50106 9.10025 2.5 11 2.5V1.5ZM3.5 10C3.5 8.10025 3.50106 6.72573 3.64199 5.67754C3.78098 4.64373 4.04772 4.00253 4.52513 3.52513L3.81802 2.81802C3.12385 3.51219 2.80481 4.39959 2.65091 5.54429C2.49894 6.6746 2.5 8.12852 2.5 10H3.5ZM11.5 6V8H12.5V6H11.5ZM11.5 8L11.5 10H12.5L12.5 8H11.5ZM9.99997 8.5H12V7.5H9.99997V8.5ZM12 8.5L14 8.5V7.5L12 7.5V8.5ZM8 14.5H16V13.5H8V14.5ZM9 18.5H15V17.5H9V18.5Z" fill="#424242"/>
</svg>
