<svg width="24" height="24" viewBox="0 0 24 24" fill="none" xmlns="http://www.w3.org/2000/svg">
<path d="M2.87868 19.1214L3.23223 18.7678V18.7678L2.87868 19.1214ZM2.87868 4.87873L2.52513 4.52518V4.52518L2.87868 4.87873ZM5.04894 4.57377C5.32376 4.54674 5.52463 4.30204 5.4976 4.02723C5.47057 3.75241 5.22587 3.55154 4.95106 3.57857L5.04894 4.57377ZM4.95105 20.4215C5.22587 20.4486 5.47057 20.2477 5.4976 19.9729C5.52463 19.6981 5.32376 19.4534 5.04895 19.4263L4.95105 20.4215ZM21.1213 19.1214L20.7678 18.7678V18.7678L21.1213 19.1214ZM21.1213 4.87873L20.7678 5.23229V5.23229L21.1213 4.87873ZM19.0489 3.57857C18.7741 3.55154 18.5294 3.75241 18.5024 4.02723C18.4754 4.30204 18.6762 4.54674 18.9511 4.57377L19.0489 3.57857ZM18.9511 19.4263C18.6762 19.4534 18.4754 19.6981 18.5024 19.9729C18.5294 20.2477 18.7741 20.4486 19.0489 20.4215L18.9511 19.4263ZM9 12.5C8.72386 12.5 8.5 12.7239 8.5 13C8.5 13.2761 8.72386 13.5 9 13.5V12.5ZM15 13.5C15.2761 13.5 15.5 13.2761 15.5 13C15.5 12.7239 15.2761 12.5 15 12.5V13.5ZM9 8.5C8.72386 8.5 8.5 8.72386 8.5 9C8.5 9.27614 8.72386 9.5 9 9.5V8.5ZM15 9.5C15.2761 9.5 15.5 9.27614 15.5 9C15.5 8.72386 15.2761 8.5 15 8.5V9.5ZM9 16.5C8.72386 16.5 8.5 16.7239 8.5 17C8.5 17.2761 8.72386 17.5 9 17.5V16.5ZM12 17.5C12.2761 17.5 12.5 17.2761 12.5 17C12.5 16.7239 12.2761 16.5 12 16.5V17.5ZM11 2.5H13V1.5H11V2.5ZM18.5 8V16H19.5V8H18.5ZM13 21.5H11V22.5H13V21.5ZM5.5 16V8H4.5V16H5.5ZM11 21.5C9.57165 21.5 8.55069 21.4989 7.77481 21.3946C7.01331 21.2922 6.56319 21.0987 6.23223 20.7678L5.52513 21.4749C6.07285 22.0226 6.76918 22.2684 7.64156 22.3857C8.49956 22.5011 9.59992 22.5 11 22.5V21.5ZM4.5 16C4.5 17.4001 4.49894 18.5004 4.61429 19.3584C4.73158 20.2308 4.9774 20.9272 5.52513 21.4749L6.23223 20.7678C5.90128 20.4368 5.70776 19.9867 5.60538 19.2252C5.50106 18.4493 5.5 17.4283 5.5 16H4.5ZM18.5 16C18.5 17.4283 18.4989 18.4493 18.3946 19.2252C18.2922 19.9867 18.0987 20.4368 17.7678 20.7678L18.4749 21.4749C19.0226 20.9272 19.2684 20.2308 19.3857 19.3584C19.5011 18.5004 19.5 17.4001 19.5 16H18.5ZM13 22.5C14.4001 22.5 15.5004 22.5011 16.3584 22.3857C17.2308 22.2684 17.9271 22.0226 18.4749 21.4749L17.7678 20.7678C17.4368 21.0987 16.9867 21.2922 16.2252 21.3946C15.4493 21.4989 14.4283 21.5 13 21.5V22.5ZM13 2.5C14.4283 2.5 15.4493 2.50106 16.2252 2.60538C16.9867 2.70776 17.4368 2.90128 17.7678 3.23223L18.4749 2.52513C17.9271 1.9774 17.2308 1.73158 16.3584 1.61429C15.5004 1.49894 14.4001 1.5 13 1.5V2.5ZM19.5 8C19.5 6.59992 19.5011 5.49956 19.3857 4.64156C19.2684 3.76917 19.0226 3.07285 18.4749 2.52513L17.7678 3.23223C18.0987 3.56319 18.2922 4.01331 18.3946 4.77481C18.4989 5.55069 18.5 6.57165 18.5 8H19.5ZM11 1.5C9.59992 1.5 8.49956 1.49894 7.64156 1.61429C6.76917 1.73158 6.07285 1.9774 5.52513 2.52513L6.23223 3.23223C6.56319 2.90128 7.01331 2.70776 7.77481 2.60538C8.55069 2.50106 9.57165 2.5 11 2.5V1.5ZM5.5 8C5.5 6.57165 5.50106 5.55069 5.60538 4.77481C5.70776 4.01331 5.90128 3.56319 6.23223 3.23223L5.52513 2.52513C4.9774 3.07285 4.73158 3.76917 4.61429 4.64156C4.49894 5.49956 4.5 6.59992 4.5 8H5.5ZM2.5 14.0001V10.0001H1.5V14.0001H2.5ZM1.5 14.0001C1.5 15.4001 1.49894 16.5005 1.61429 17.3585C1.73158 18.2309 1.9774 18.9272 2.52513 19.4749L3.23223 18.7678C2.90128 18.4369 2.70776 17.9867 2.60538 17.2252C2.50106 16.4494 2.5 15.4284 2.5 14.0001H1.5ZM2.5 10.0001C2.5 8.5717 2.50106 7.55074 2.60538 6.77486C2.70776 6.01336 2.90128 5.56324 3.23223 5.23229L2.52513 4.52518C1.9774 5.0729 1.73158 5.76923 1.61429 6.64161C1.49894 7.49962 1.5 8.59997 1.5 10.0001H2.5ZM4.95106 3.57857C3.93214 3.6788 3.13617 3.91414 2.52513 4.52518L3.23223 5.23229C3.60097 4.86355 4.11769 4.66537 5.04894 4.57377L4.95106 3.57857ZM5.04895 19.4263C4.11769 19.3347 3.60097 19.1366 3.23223 18.7678L2.52513 19.4749C3.13617 20.086 3.93214 20.3213 4.95105 20.4215L5.04895 19.4263ZM22.5 14.0001V10.0001H21.5V14.0001H22.5ZM21.5 14.0001C21.5 15.4284 21.4989 16.4494 21.3946 17.2252C21.2922 17.9867 21.0987 18.4369 20.7678 18.7678L21.4749 19.4749C22.0226 18.9272 22.2684 18.2309 22.3857 17.3585C22.5011 16.5005 22.5 15.4001 22.5 14.0001H21.5ZM22.5 10.0001C22.5 8.59997 22.5011 7.49962 22.3857 6.64161C22.2684 5.76923 22.0226 5.0729 21.4749 4.52518L20.7678 5.23229C21.0987 5.56324 21.2922 6.01336 21.3946 6.77486C21.4989 7.55074 21.5 8.5717 21.5 10.0001H22.5ZM18.9511 4.57377C19.8823 4.66537 20.399 4.86355 20.7678 5.23229L21.4749 4.52518C20.8638 3.91414 20.0679 3.6788 19.0489 3.57857L18.9511 4.57377ZM19.0489 20.4215C20.0679 20.3213 20.8638 20.086 21.4749 19.4749L20.7678 18.7678C20.399 19.1366 19.8823 19.3347 18.9511 19.4263L19.0489 20.4215ZM9 13.5H15V12.5H9V13.5ZM9 9.5H15V8.5H9V9.5ZM9 17.5H12V16.5H9V17.5Z" fill="#424242"/>
</svg>
