<svg width="24" height="24" viewBox="0 0 24 24" fill="none" xmlns="http://www.w3.org/2000/svg">
<path d="M12.5 3C12.5 2.72386 12.2761 2.5 12 2.5C11.7239 2.5 11.5 2.72386 11.5 3H12.5ZM12 16L11.631 16.3374C11.7257 16.441 11.8596 16.5 12 16.5C12.1404 16.5 12.2743 16.441 12.369 16.3374L12 16ZM16.369 11.9624C16.5553 11.7586 16.5412 11.4423 16.3374 11.256C16.1336 11.0697 15.8173 11.0838 15.631 11.2876L16.369 11.9624ZM8.36901 11.2876C8.18268 11.0838 7.86642 11.0697 7.66262 11.256C7.45881 11.4423 7.44465 11.7586 7.63099 11.9624L8.36901 11.2876ZM15 20.5H9V21.5H15V20.5ZM9 20.5C7.57165 20.5 6.55069 20.4989 5.77481 20.3946C5.01331 20.2922 4.56319 20.0987 4.23223 19.7678L3.52513 20.4749C4.07285 21.0226 4.76917 21.2684 5.64156 21.3857C6.49956 21.5011 7.59992 21.5 9 21.5V20.5ZM2.5 15C2.5 16.4001 2.49894 17.5004 2.61429 18.3584C2.73158 19.2308 2.9774 19.9271 3.52513 20.4749L4.23223 19.7678C3.90128 19.4368 3.70776 18.9867 3.60538 18.2252C3.50106 17.4493 3.5 16.4283 3.5 15H2.5ZM20.5 15C20.5 16.4283 20.4989 17.4493 20.3946 18.2252C20.2922 18.9867 20.0987 19.4368 19.7678 19.7678L20.4749 20.4749C21.0226 19.9271 21.2684 19.2308 21.3857 18.3584C21.5011 17.5004 21.5 16.4001 21.5 15H20.5ZM15 21.5C16.4001 21.5 17.5004 21.5011 18.3584 21.3857C19.2308 21.2684 19.9272 21.0226 20.4749 20.4749L19.7678 19.7678C19.4368 20.0987 18.9867 20.2922 18.2252 20.3946C17.4493 20.4989 16.4283 20.5 15 20.5V21.5ZM11.5 3V16H12.5V3H11.5ZM12.369 16.3374L16.369 11.9624L15.631 11.2876L11.631 15.6626L12.369 16.3374ZM12.369 15.6626L8.36901 11.2876L7.63099 11.9624L11.631 16.3374L12.369 15.6626Z" fill="#424242"/>
</svg>
