<svg width="24" height="24" viewBox="0 0 24 24" fill="none" xmlns="http://www.w3.org/2000/svg">
<path d="M15.7778 16.4444C16.7596 16.4444 17.5556 17.2404 17.5556 18.2222C17.5556 19.2041 16.7596 20 15.7778 20C14.7959 20 14 19.2041 14 18.2222C14 17.2404 14.7959 16.4444 15.7778 16.4444Z" fill="#424242"/>
<path d="M15.7778 10.2222C16.7596 10.2222 17.5556 11.0182 17.5556 12C17.5556 12.9818 16.7596 13.7778 15.7778 13.7778C14.7959 13.7778 14 12.9818 14 12C14 11.0182 14.7959 10.2222 15.7778 10.2222Z" fill="#424242"/>
<path d="M15.7778 4C16.7596 4 17.5556 4.79594 17.5556 5.77778C17.5556 6.75962 16.7596 7.55556 15.7778 7.55556C14.7959 7.55556 14 6.75962 14 5.77778C14 4.79594 14.7959 4 15.7778 4Z" fill="#424242"/>
<path d="M7.77778 16.4444C8.75962 16.4444 9.55556 17.2404 9.55556 18.2222C9.55556 19.2041 8.75962 20 7.77778 20C6.79594 20 6 19.2041 6 18.2222C6 17.2404 6.79594 16.4444 7.77778 16.4444Z" fill="#424242"/>
<path d="M7.77778 10.2222C8.75962 10.2222 9.55556 11.0182 9.55556 12C9.55556 12.9818 8.75962 13.7778 7.77778 13.7778C6.79594 13.7778 6 12.9818 6 12C6 11.0182 6.79594 10.2222 7.77778 10.2222Z" fill="#424242"/>
<path d="M7.77778 4C8.75962 4 9.55556 4.79594 9.55556 5.77778C9.55556 6.75962 8.75962 7.55556 7.77778 7.55556C6.79594 7.55556 6 6.75962 6 5.77778C6 4.79594 6.79594 4 7.77778 4Z" fill="#424242"/>
</svg>
