<svg width="24" height="24" viewBox="0 0 24 24" fill="none" xmlns="http://www.w3.org/2000/svg">
<path d="M7.96529 11.8449C7.77003 12.0402 7.77003 12.3568 7.96529 12.552C8.16056 12.7473 8.47714 12.7473 8.6724 12.552L7.96529 11.8449ZM12.5524 8.67202C12.7477 8.47676 12.7477 8.16018 12.5524 7.96492C12.3572 7.76966 12.0406 7.76966 11.8453 7.96492L12.5524 8.67202ZM15.6564 11.776C15.8517 11.5808 15.8517 11.2642 15.6564 11.0689C15.4612 10.8737 15.1446 10.8737 14.9493 11.0689L15.6564 11.776ZM11.0693 14.9489C10.874 15.1442 10.874 15.4608 11.0693 15.6561C11.2646 15.8513 11.5811 15.8513 11.7764 15.6561L11.0693 14.9489ZM10.6601 21.9892L10.7181 22.4858L10.6601 21.9892ZM8.3807 20.5684L8.73426 20.2149V20.2149L8.3807 20.5684ZM10.2891 21.9892L10.2311 22.4858L10.2891 21.9892ZM12.5684 16.3807L12.922 16.0271V16.0271L12.5684 16.3807ZM13.9892 18.2891L13.4926 18.3471L13.9892 18.2891ZM13.9892 18.6601L13.4926 18.6021L13.9892 18.6601ZM5.33994 10.0108L5.28194 9.51417L5.33994 10.0108ZM5.71092 10.0108L5.76892 9.51417L5.71092 10.0108ZM2.0108 13.3399L2.50742 13.3979L2.0108 13.3399ZM3.43157 15.6193L3.07801 15.9729V15.9729L3.43157 15.6193ZM2.0108 13.7109L2.50742 13.6529L2.0108 13.7109ZM18.6601 13.9892L18.7181 14.4858L18.6601 13.9892ZM16.3807 12.5684L16.0271 12.922V12.922L16.3807 12.5684ZM18.2891 13.9892L18.2311 14.4858L18.2891 13.9892ZM20.5684 8.3807L20.2149 8.73426V8.73426L20.5684 8.3807ZM21.9892 10.2891L21.4926 10.3471L21.9892 10.2891ZM21.9892 10.6601L21.4926 10.6021L21.9892 10.6601ZM13.3399 2.0108L13.2819 1.51417L13.3399 2.0108ZM15.6193 3.43156L15.9729 3.07801V3.07801L15.6193 3.43156ZM13.7109 2.0108L13.7689 1.51417L13.7109 2.0108ZM10.0108 5.33994L10.5074 5.39795L10.0108 5.33994ZM11.4316 7.6193L11.078 7.97285V7.97285L11.4316 7.6193ZM10.0108 5.71092L10.5074 5.65292L10.0108 5.71092ZM18.3721 2.14474C18.1768 1.94948 17.8603 1.94948 17.665 2.14474C17.4697 2.34 17.4697 2.65658 17.665 2.85184L18.3721 2.14474ZM20.769 5.95586C20.9643 6.15112 21.2809 6.15112 21.4761 5.95586C21.6714 5.76059 21.6714 5.44401 21.4761 5.24875L20.769 5.95586ZM2.85111 17.6646C2.65585 17.4694 2.33927 17.4694 2.14401 17.6646C1.94874 17.8599 1.94874 18.1765 2.14401 18.3717L2.85111 17.6646ZM5.24802 21.4758C5.44328 21.671 5.75986 21.671 5.95512 21.4758C6.15038 21.2805 6.15038 20.9639 5.95512 20.7686L5.24802 21.4758ZM8.6724 12.552L12.5524 8.67202L11.8453 7.96492L7.96529 11.8449L8.6724 12.552ZM14.9493 11.0689L11.0693 14.9489L11.7764 15.6561L15.6564 11.776L14.9493 11.0689ZM7.26574 11.7851L12.2149 16.7343L12.922 16.0271L7.97285 11.078L7.26574 11.7851ZM8.73426 20.2149L3.78512 15.2657L3.07801 15.9729L8.02715 20.922L8.73426 20.2149ZM12.2149 20.2149C11.7544 20.6754 11.4387 20.99 11.1714 21.202C10.9125 21.4075 10.7481 21.4755 10.6021 21.4926L10.7181 22.4858C11.1241 22.4384 11.4618 22.2481 11.793 21.9854C12.1158 21.7292 12.4783 21.3657 12.922 20.922L12.2149 20.2149ZM8.02715 20.922C8.47083 21.3657 8.83329 21.7292 9.15615 21.9854C9.48729 22.2481 9.82508 22.4384 10.2311 22.4858L10.3471 21.4926C10.201 21.4755 10.0367 21.4075 9.7777 21.202C9.51045 20.99 9.19477 20.6754 8.73426 20.2149L8.02715 20.922ZM10.6021 21.4926C10.5174 21.5025 10.4318 21.5025 10.3471 21.4926L10.2311 22.4858C10.3929 22.5047 10.5563 22.5047 10.7181 22.4858L10.6021 21.4926ZM12.2149 16.7343C12.6754 17.1948 12.99 17.5104 13.202 17.7777C13.4075 18.0367 13.4755 18.201 13.4926 18.3471L14.4858 18.2311C14.4384 17.8251 14.2481 17.4873 13.9854 17.1562C13.7292 16.8333 13.3657 16.4708 12.922 16.0271L12.2149 16.7343ZM12.922 20.922C13.3657 20.4783 13.7292 20.1158 13.9854 19.793C14.2481 19.4618 14.4384 19.1241 14.4858 18.7181L13.4926 18.6021C13.4755 18.7481 13.4075 18.9125 13.202 19.1714C12.99 19.4387 12.6754 19.7544 12.2149 20.2149L12.922 20.922ZM13.4926 18.3471C13.5025 18.4318 13.5025 18.5174 13.4926 18.6021L14.4858 18.7181C14.5047 18.5563 14.5047 18.3929 14.4858 18.2311L13.4926 18.3471ZM3.78512 11.7851C4.24563 11.3246 4.56131 11.01 4.82857 10.798C5.08755 10.5925 5.25185 10.5245 5.39794 10.5074L5.28194 9.51417C4.87594 9.56159 4.53815 9.75187 4.20701 10.0146C3.88416 10.2708 3.52169 10.6343 3.07801 11.078L3.78512 11.7851ZM7.97285 11.078C7.52917 10.6343 7.16671 10.2708 6.84385 10.0146C6.51271 9.75187 6.17492 9.56159 5.76892 9.51417L5.65292 10.5074C5.79901 10.5245 5.96331 10.5925 6.2223 10.798C6.48955 11.01 6.80523 11.3246 7.26574 11.7851L7.97285 11.078ZM5.39794 10.5074C5.48265 10.4975 5.56821 10.4975 5.65292 10.5074L5.76892 9.51417C5.60714 9.49528 5.44372 9.49528 5.28194 9.51417L5.39794 10.5074ZM3.07801 11.078C2.63433 11.5217 2.27077 11.8842 2.0146 12.207C1.75187 12.5382 1.56159 12.8759 1.51417 13.2819L2.50742 13.3979C2.52448 13.2519 2.59249 13.0875 2.79798 12.8286C3.01003 12.5613 3.3246 12.2456 3.78512 11.7851L3.07801 11.078ZM3.78512 15.2657C3.32461 14.8052 3.01003 14.4896 2.79798 14.2223C2.59249 13.9633 2.52448 13.799 2.50742 13.6529L1.51417 13.7689C1.56159 14.1749 1.75187 14.5127 2.0146 14.8438C2.27077 15.1667 2.63433 15.5292 3.07801 15.9729L3.78512 15.2657ZM1.51417 13.2819C1.49528 13.4437 1.49528 13.6071 1.51417 13.7689L2.50742 13.6529C2.49753 13.5682 2.49753 13.4826 2.50742 13.3979L1.51417 13.2819ZM15.2657 3.78512L20.2149 8.73426L20.922 8.02715L15.9729 3.07801L15.2657 3.78512ZM16.7343 12.2149L11.7851 7.26575L11.078 7.97285L16.0271 12.922L16.7343 12.2149ZM20.2149 12.2149C19.7544 12.6754 19.4387 12.99 19.1714 13.202C18.9125 13.4075 18.7481 13.4755 18.6021 13.4926L18.7181 14.4858C19.1241 14.4384 19.4618 14.2481 19.793 13.9854C20.1158 13.7292 20.4783 13.3657 20.922 12.922L20.2149 12.2149ZM16.0271 12.922C16.4708 13.3657 16.8333 13.7292 17.1562 13.9854C17.4873 14.2481 17.8251 14.4384 18.2311 14.4858L18.3471 13.4926C18.201 13.4755 18.0367 13.4075 17.7777 13.202C17.5104 12.99 17.1948 12.6754 16.7343 12.2149L16.0271 12.922ZM18.6021 13.4926C18.5174 13.5025 18.4318 13.5025 18.3471 13.4926L18.2311 14.4858C18.3929 14.5047 18.5563 14.5047 18.7181 14.4858L18.6021 13.4926ZM20.2149 8.73426C20.6754 9.19477 20.99 9.51045 21.202 9.7777C21.4075 10.0367 21.4755 10.201 21.4926 10.3471L22.4858 10.2311C22.4384 9.82508 22.2481 9.48729 21.9854 9.15615C21.7292 8.83329 21.3657 8.47083 20.922 8.02715L20.2149 8.73426ZM20.922 12.922C21.3657 12.4783 21.7292 12.1158 21.9854 11.793C22.2481 11.4618 22.4384 11.1241 22.4858 10.7181L21.4926 10.6021C21.4755 10.7481 21.4075 10.9125 21.202 11.1714C20.99 11.4387 20.6754 11.7544 20.2149 12.2149L20.922 12.922ZM21.4926 10.3471C21.5025 10.4318 21.5025 10.5174 21.4926 10.6021L22.4858 10.7181C22.5047 10.5563 22.5047 10.3929 22.4858 10.2311L21.4926 10.3471ZM11.7851 3.78512C12.2456 3.3246 12.5613 3.01003 12.8286 2.79798C13.0875 2.59249 13.2519 2.52448 13.3979 2.50742L13.2819 1.51417C12.8759 1.56159 12.5382 1.75187 12.207 2.0146C11.8842 2.27077 11.5217 2.63433 11.078 3.07801L11.7851 3.78512ZM15.9729 3.07801C15.5292 2.63433 15.1667 2.27077 14.8438 2.0146C14.5127 1.75187 14.1749 1.56159 13.7689 1.51417L13.6529 2.50742C13.799 2.52448 13.9633 2.59249 14.2223 2.79798C14.4896 3.01003 14.8052 3.3246 15.2657 3.78512L15.9729 3.07801ZM13.3979 2.50742C13.4826 2.49753 13.5682 2.49753 13.6529 2.50742L13.7689 1.51417C13.6071 1.49528 13.4437 1.49528 13.2819 1.51417L13.3979 2.50742ZM11.078 3.07801C10.6343 3.52169 10.2708 3.88416 10.0146 4.20701C9.75187 4.53815 9.56159 4.87594 9.51417 5.28194L10.5074 5.39795C10.5245 5.25185 10.5925 5.08755 10.798 4.82857C11.01 4.56131 11.3246 4.24563 11.7851 3.78512L11.078 3.07801ZM11.7851 7.26575C11.3246 6.80523 11.01 6.48956 10.798 6.2223C10.5925 5.96331 10.5245 5.79901 10.5074 5.65292L9.51417 5.76892C9.56159 6.17492 9.75187 6.51271 10.0146 6.84385C10.2708 7.16671 10.6343 7.52917 11.078 7.97285L11.7851 7.26575ZM9.51417 5.28194C9.49528 5.44372 9.49528 5.60715 9.51417 5.76892L10.5074 5.65292C10.4975 5.56821 10.4975 5.48265 10.5074 5.39795L9.51417 5.28194ZM17.665 2.85184L20.769 5.95586L21.4761 5.24875L18.3721 2.14474L17.665 2.85184ZM2.14401 18.3717L5.24802 21.4758L5.95512 20.7686L2.85111 17.6646L2.14401 18.3717Z" fill="#424242"/>
</svg>
