<svg width="24" height="24" viewBox="0 0 24 24" fill="none" xmlns="http://www.w3.org/2000/svg">
<path d="M3.09162 20.2684L2.73806 20.622H2.73806L3.09162 20.2684ZM20.7485 20.2684L21.102 20.622V20.622L20.7485 20.2684ZM22.4199 11.4273C22.4129 11.1513 22.1834 10.9332 21.9073 10.9402C21.6313 10.9472 21.4132 11.1767 21.4202 11.4527L22.4199 11.4273ZM12.92 5.94001C13.1962 5.94001 13.42 5.71616 13.42 5.44001C13.42 5.16387 13.1962 4.94001 12.92 4.94001V5.94001ZM6.24014 9.0559C6.028 8.87912 5.71272 8.90778 5.53593 9.11992C5.35915 9.33206 5.38781 9.64734 5.59995 9.82413L6.24014 9.0559ZM8.07894 11.2391L8.39903 10.855V10.855L8.07894 11.2391ZM16.0812 11.6232C16.2934 11.4464 16.322 11.1311 16.1453 10.919C15.9685 10.7069 15.6532 10.6782 15.4411 10.855L16.0812 11.6232ZM19.7884 6.12989L19.5338 5.69957V5.69957L19.7884 6.12989ZM16.46 4.51501C16.46 4.79116 16.6839 5.01501 16.96 5.01501C17.2362 5.01501 17.46 4.79116 17.46 4.51501H16.46ZM18.335 8.64001C18.335 8.91616 18.5589 9.14001 18.835 9.14001C19.1112 9.14001 19.335 8.91616 19.335 8.64001H18.335ZM19.335 11.14C19.335 10.8639 19.1112 10.64 18.835 10.64C18.5589 10.64 18.335 10.8639 18.335 11.14H19.335ZM18.335 11.64C18.335 11.9162 18.5589 12.14 18.835 12.14C19.1112 12.14 19.335 11.9162 19.335 11.64H18.335ZM13.92 20.94H9.92004V21.94H13.92V20.94ZM9.92004 20.94C8.02029 20.94 6.64577 20.939 5.59758 20.798C4.56377 20.659 3.92257 20.3923 3.44517 19.9149L2.73806 20.622C3.43223 21.3162 4.31963 21.6352 5.46433 21.7891C6.59465 21.9411 8.04856 21.94 9.92004 21.94V20.94ZM1.42004 13.44C1.42004 15.3115 1.41898 16.7654 1.57095 17.8957C1.72485 19.0404 2.04389 19.9278 2.73806 20.622L3.44517 19.9149C2.96777 19.4375 2.70102 18.7963 2.56203 17.7625C2.42111 16.7143 2.42004 15.3398 2.42004 13.44H1.42004ZM21.42 13.44C21.42 15.3398 21.419 16.7143 21.2781 17.7625C21.1391 18.7963 20.8723 19.4375 20.3949 19.9149L21.102 20.622C21.7962 19.9278 22.1152 19.0404 22.2691 17.8957C22.4211 16.7654 22.42 15.3115 22.42 13.44H21.42ZM13.92 21.94C15.7915 21.94 17.2454 21.9411 18.3758 21.7891C19.5205 21.6352 20.4079 21.3162 21.102 20.622L20.3949 19.9149C19.9175 20.3923 19.2763 20.659 18.2425 20.798C17.1943 20.939 15.8198 20.94 13.92 20.94V21.94ZM9.92004 4.94001C8.04856 4.94001 6.59465 4.93895 5.46433 5.09092C4.31963 5.24482 3.43223 5.56386 2.73806 6.25803L3.44517 6.96514C3.92257 6.48774 4.56377 6.22099 5.59758 6.082C6.64578 5.94108 8.02029 5.94001 9.92004 5.94001V4.94001ZM2.42004 13.44C2.42004 11.5403 2.42111 10.1657 2.56203 9.11755C2.70102 8.08374 2.96777 7.44254 3.44517 6.96514L2.73806 6.25803C2.04389 6.95221 1.72485 7.8396 1.57095 8.9843C1.41898 10.1146 1.42004 11.5685 1.42004 13.44H2.42004ZM22.42 13.44C22.42 12.515 22.4385 12.1612 22.4199 11.4273L21.4202 11.4527C21.4385 12.173 21.42 12.4735 21.42 13.44H22.42ZM9.92004 5.94001H12.92V4.94001H9.92004V5.94001ZM5.59995 9.82413L7.75885 11.6232L8.39903 10.855L6.24014 9.0559L5.59995 9.82413ZM7.75885 11.6232C8.6674 12.3803 9.38348 12.9782 10.0105 13.3815C10.6491 13.7922 11.245 14.0349 11.92 14.0349V13.0349C11.509 13.0349 11.1026 12.8949 10.5514 12.5404C9.98851 12.1784 9.32711 11.6284 8.39903 10.855L7.75885 11.6232ZM15.4411 10.855C14.513 11.6284 13.8516 12.1784 13.2887 12.5404C12.7375 12.8949 12.3311 13.0349 11.92 13.0349V14.0349C12.5951 14.0349 13.191 13.7922 13.8296 13.3815C14.4566 12.9782 15.1727 12.3803 16.0812 11.6232L15.4411 10.855ZM20.21 4.51501C20.21 5.01853 19.9397 5.45944 19.5338 5.69957L20.043 6.56022C20.7405 6.14756 21.21 5.38639 21.21 4.51501H20.21ZM17.46 4.51501C17.46 3.75562 18.0757 3.14001 18.835 3.14001V2.14001C17.5234 2.14001 16.46 3.20334 16.46 4.51501H17.46ZM18.835 3.14001C19.5944 3.14001 20.21 3.75562 20.21 4.51501H21.21C21.21 3.20334 20.1467 2.14001 18.835 2.14001V3.14001ZM18.335 7.39002V8.64001H19.335V7.39002H18.335ZM19.5338 5.69957C19.2689 5.85631 18.9799 6.06651 18.7523 6.33478C18.5225 6.60548 18.335 6.96071 18.335 7.39002H19.335C19.335 7.26704 19.3866 7.13281 19.5147 6.98182C19.6449 6.82841 19.8326 6.68469 20.043 6.56022L19.5338 5.69957ZM18.335 11.14V11.64H19.335V11.14H18.335Z" fill="#424242"/>
</svg>
