<svg width="24" height="24" viewBox="0 0 24 24" fill="none" xmlns="http://www.w3.org/2000/svg">
<path d="M16.0421 3.10944L16.3956 2.75589L16.0421 3.10944ZM8.81818 5.98485C9.09432 5.98485 9.31818 5.76099 9.31818 5.48485C9.31818 5.20871 9.09432 4.98485 8.81818 4.98485V5.98485ZM5.0303 4.98485C4.75416 4.98485 4.5303 5.20871 4.5303 5.48485C4.5303 5.76099 4.75416 5.98485 5.0303 5.98485V4.98485ZM8.81818 8.56061C9.09432 8.56061 9.31818 8.33675 9.31818 8.06061C9.31818 7.78446 9.09432 7.56061 8.81818 7.56061V8.56061ZM5.0303 7.56061C4.75416 7.56061 4.5303 7.78446 4.5303 8.06061C4.5303 8.33675 4.75416 8.56061 5.0303 8.56061V7.56061ZM16.647 8.00465C16.6496 8.28078 16.8755 8.50254 17.1517 8.49998C17.4278 8.49741 17.6496 8.27148 17.647 7.99535L16.647 8.00465ZM5.19759 17.4862C5.4706 17.5277 5.72555 17.34 5.76705 17.067C5.80855 16.794 5.62087 16.539 5.34787 16.4975L5.19759 17.4862ZM10.2491 12.4809C10.0377 12.3032 9.7223 12.3305 9.54458 12.5418C9.36687 12.7532 9.39413 13.0686 9.60548 13.2463L10.2491 12.4809ZM11.5563 14.2334L11.878 13.8507V13.8507L11.5563 14.2334ZM17.3528 14.2334L17.031 13.8507V13.8507L17.3528 14.2334ZM19.3036 13.2463C19.515 13.0686 19.5422 12.7532 19.3645 12.5418C19.1868 12.3305 18.8714 12.3032 18.66 12.4809L19.3036 13.2463ZM1.5 9.57576C1.5 11.3472 1.49894 12.7262 1.64314 13.7987C1.78927 14.8856 2.09278 15.7325 2.75589 16.3956L3.463 15.6885C3.01666 15.2422 2.76545 14.6415 2.63422 13.6655C2.50106 12.675 2.5 11.3755 2.5 9.57576H1.5ZM9.57576 1.5C7.80427 1.5 6.42535 1.49894 5.3528 1.64314C4.26586 1.78927 3.419 2.09278 2.75589 2.75589L3.463 3.463C3.90934 3.01666 4.51 2.76545 5.48605 2.63422C6.47648 2.50106 7.776 2.5 9.57576 2.5V1.5ZM2.5 9.57576C2.5 7.776 2.50106 6.47648 2.63422 5.48605C2.76545 4.51 3.01666 3.90933 3.463 3.463L2.75589 2.75589C2.09278 3.419 1.78927 4.26586 1.64314 5.3528C1.49894 6.42535 1.5 7.80427 1.5 9.57576H2.5ZM9.57576 2.5C11.3755 2.5 12.675 2.50106 13.6655 2.63422C14.6415 2.76545 15.2422 3.01666 15.6885 3.463L16.3956 2.75589C15.7325 2.09278 14.8856 1.78927 13.7987 1.64314C12.7262 1.49894 11.3472 1.5 9.57576 1.5V2.5ZM8.81818 4.98485H5.0303V5.98485H8.81818V4.98485ZM8.81818 7.56061H5.0303V8.56061H8.81818V7.56061ZM17.647 7.99535C17.6352 6.72281 17.5927 5.69047 17.4258 4.85162C17.2562 3.9989 16.9518 3.31205 16.3956 2.75589L15.6885 3.463C16.065 3.83948 16.3013 4.3242 16.445 5.04674C16.5915 5.78315 16.6352 6.72977 16.647 8.00465L17.647 7.99535ZM5.34787 16.4975C4.45305 16.3615 3.88818 16.1137 3.463 15.6885L2.75589 16.3956C3.3868 17.0265 4.18437 17.3322 5.19759 17.4862L5.34787 16.4975ZM12.9455 10.3182H15.9636V9.31818H12.9455V10.3182ZM15.9636 21.5H12.9455V22.5H15.9636V21.5ZM12.9455 21.5C11.5084 21.5 10.4814 21.4989 9.70091 21.393C8.93528 21.2892 8.48204 21.0929 8.14824 20.756L7.43796 21.46C7.98816 22.0151 8.68831 22.2648 9.56648 22.384C10.4298 22.5011 11.5369 22.5 12.9455 22.5V21.5ZM6.40909 15.9091C6.40909 17.3307 6.40805 18.4468 6.52397 19.3168C6.64175 20.2008 6.88837 20.9054 7.43796 21.46L8.14824 20.756C7.81382 20.4186 7.61844 19.9594 7.51521 19.1847C7.41014 18.3961 7.40909 17.3587 7.40909 15.9091H6.40909ZM21.5 15.9091C21.5 17.3587 21.499 18.3961 21.3939 19.1847C21.2907 19.9594 21.0953 20.4186 20.7609 20.756L21.4711 21.46C22.0207 20.9054 22.2673 20.2008 22.3851 19.3168C22.501 18.4468 22.5 17.3307 22.5 15.9091H21.5ZM15.9636 22.5C17.3722 22.5 18.4793 22.5011 19.3426 22.384C20.2208 22.2648 20.9209 22.0151 21.4711 21.46L20.7609 20.756C20.4271 21.0929 19.9738 21.2892 19.2082 21.393C18.4277 21.4989 17.4007 21.5 15.9636 21.5V22.5ZM15.9636 10.3182C17.4007 10.3182 18.4277 10.3193 19.2082 10.4251C19.9738 10.529 20.4271 10.7253 20.7609 11.0621L21.4711 10.3582C20.9209 9.80304 20.2208 9.55335 19.3426 9.43422C18.4793 9.3171 17.3722 9.31818 15.9636 9.31818V10.3182ZM22.5 15.9091C22.5 14.4875 22.501 13.3714 22.3851 12.5014C22.2673 11.6174 22.0207 10.9128 21.4711 10.3582L20.7609 11.0621C21.0953 11.3996 21.2907 11.8587 21.3939 12.6334C21.499 13.4221 21.5 14.4594 21.5 15.9091H22.5ZM12.9455 9.31818C11.5369 9.31818 10.4298 9.3171 9.56648 9.43422C8.68831 9.55335 7.98816 9.80304 7.43796 10.3582L8.14824 11.0621C8.48204 10.7253 8.93528 10.529 9.70091 10.4251C10.4814 10.3193 11.5084 10.3182 12.9455 10.3182V9.31818ZM7.40909 15.9091C7.40909 14.4594 7.41014 13.4221 7.51521 12.6334C7.61844 11.8587 7.81382 11.3996 8.14824 11.0621L7.43796 10.3582C6.88837 10.9128 6.64175 11.6174 6.52397 12.5014C6.40805 13.3714 6.40909 14.4875 6.40909 15.9091H7.40909ZM9.60548 13.2463L11.2345 14.6161L11.878 13.8507L10.2491 12.4809L9.60548 13.2463ZM17.6746 14.6161L19.3036 13.2463L18.66 12.4809L17.031 13.8507L17.6746 14.6161ZM11.2345 14.6161C11.9176 15.1905 12.4646 15.6516 12.9456 15.9638C13.4381 16.2834 13.9116 16.4813 14.4545 16.4813V15.4813C14.178 15.4813 13.8952 15.3879 13.4899 15.1249C13.0731 14.8544 12.5807 14.4416 11.878 13.8507L11.2345 14.6161ZM17.031 13.8507C16.3284 14.4416 15.836 14.8544 15.4191 15.1249C15.0139 15.3879 14.7311 15.4813 14.4545 15.4813V16.4813C14.9975 16.4813 15.471 16.2834 15.9635 15.9638C16.4445 15.6516 16.9915 15.1905 17.6746 14.6161L17.031 13.8507Z" fill="#424242"/>
</svg>
