<svg width="24" height="24" viewBox="0 0 24 24" fill="none" xmlns="http://www.w3.org/2000/svg">
<path d="M3.09156 20.2684L2.738 20.622H2.738L3.09156 20.2684ZM20.7484 20.2684L21.102 20.622V20.622L20.7484 20.2684ZM22.4198 11.4273C22.4128 11.1512 22.1833 10.9331 21.9073 10.9401C21.6312 10.9472 21.4131 11.1766 21.4201 11.4527L22.4198 11.4273ZM12.92 5.93998C13.1961 5.93998 13.42 5.71612 13.42 5.43998C13.42 5.16384 13.1961 4.93998 12.92 4.93998V5.93998ZM6.24008 9.05587C6.02794 8.87909 5.71265 8.90775 5.53587 9.11989C5.35909 9.33203 5.38775 9.64731 5.59989 9.82409L6.24008 9.05587ZM8.07888 11.2391L8.39897 10.855V10.855L8.07888 11.2391ZM16.0812 11.6232C16.2933 11.4464 16.322 11.1311 16.1452 10.919C15.9684 10.7068 15.6531 10.6782 15.441 10.8549L16.0812 11.6232ZM19.335 4.31119C19.335 4.03505 19.1111 3.81119 18.835 3.81119C18.5588 3.81119 18.335 4.03505 18.335 4.31119H19.335ZM18.335 8.63998C18.335 8.91612 18.5588 9.13998 18.835 9.13998C19.1111 9.13998 19.335 8.91612 19.335 8.63998H18.335ZM19.335 11.14C19.335 10.8638 19.1111 10.64 18.835 10.64C18.5588 10.64 18.335 10.8638 18.335 11.14H19.335ZM18.335 11.64C18.335 11.9161 18.5588 12.14 18.835 12.14C19.1111 12.14 19.335 11.9161 19.335 11.64H18.335ZM13.92 20.94H9.91998V21.94H13.92V20.94ZM9.91998 20.94C8.02023 20.94 6.64571 20.9389 5.59752 20.798C4.56371 20.659 3.92251 20.3923 3.44511 19.9149L2.738 20.622C3.43217 21.3161 4.31957 21.6352 5.46427 21.7891C6.59459 21.941 8.0485 21.94 9.91998 21.94V20.94ZM1.41998 13.44C1.41998 15.3115 1.41892 16.7654 1.57089 17.8957C1.72479 19.0404 2.04383 19.9278 2.738 20.622L3.44511 19.9149C2.96771 19.4375 2.70096 18.7963 2.56197 17.7624C2.42104 16.7143 2.41998 15.3397 2.41998 13.44H1.41998ZM21.42 13.44C21.42 15.3397 21.4189 16.7143 21.278 17.7624C21.139 18.7963 20.8723 19.4375 20.3949 19.9149L21.102 20.622C21.7961 19.9278 22.1152 19.0404 22.2691 17.8957C22.421 16.7654 22.42 15.3115 22.42 13.44H21.42ZM13.92 21.94C15.7915 21.94 17.2454 21.941 18.3757 21.7891C19.5204 21.6352 20.4078 21.3161 21.102 20.622L20.3949 19.9149C19.9175 20.3923 19.2763 20.659 18.2424 20.798C17.1943 20.9389 15.8197 20.94 13.92 20.94V21.94ZM9.91998 4.93998C8.0485 4.93998 6.59459 4.93892 5.46427 5.09089C4.31957 5.24479 3.43217 5.56383 2.738 6.258L3.44511 6.96511C3.92251 6.48771 4.56371 6.22096 5.59752 6.08197C6.64571 5.94104 8.02023 5.93998 9.91998 5.93998V4.93998ZM2.41998 13.44C2.41998 11.5402 2.42104 10.1657 2.56197 9.11752C2.70096 8.08371 2.96771 7.44251 3.44511 6.96511L2.738 6.258C2.04383 6.95217 1.72479 7.83957 1.57089 8.98427C1.41892 10.1146 1.41998 11.5685 1.41998 13.44H2.41998ZM22.42 13.44C22.42 12.5149 22.4385 12.1612 22.4198 11.4273L21.4201 11.4527C21.4384 12.1729 21.42 12.4735 21.42 13.44H22.42ZM9.91998 5.93998H12.92V4.93998H9.91998V5.93998ZM5.59989 9.82409L7.75879 11.6232L8.39897 10.855L6.24008 9.05587L5.59989 9.82409ZM7.75879 11.6232C8.66734 12.3803 9.38342 12.9782 10.0104 13.3814C10.649 13.7922 11.2449 14.0349 11.92 14.0349V13.0349C11.5089 13.0349 11.1025 12.8949 10.5513 12.5404C9.98845 12.1784 9.32705 11.6283 8.39897 10.855L7.75879 11.6232ZM15.441 10.8549C14.5129 11.6283 13.8515 12.1784 13.2886 12.5404C12.7374 12.8949 12.3311 13.0349 11.92 13.0349V14.0349C12.5951 14.0349 13.1909 13.7922 13.8296 13.3814C14.4565 12.9782 15.1726 12.3803 16.0812 11.6232L15.441 10.8549ZM18.335 4.31119V8.63998H19.335V4.31119H18.335ZM18.335 11.14V11.64H19.335V11.14H18.335Z" fill="#424242"/>
</svg>
