<svg width="24" height="24" viewBox="0 0 24 24" fill="none" xmlns="http://www.w3.org/2000/svg">
<path d="M9.03416 15.4481C8.7663 15.381 8.49474 15.5437 8.4276 15.8115C8.36046 16.0794 8.52318 16.351 8.79104 16.4181L9.03416 15.4481ZM13.478 16.9737L13.0291 17.194L13.478 16.9737ZM16.1708 15.6519L16.6196 15.4316V15.4316L16.1708 15.6519ZM15.4661 17.6685L15.2522 17.2165V17.2165L15.4661 17.6685ZM12.9057 15.3808C11.5483 15.7445 10.2071 15.7421 9.03416 15.4481L8.79104 16.4181C10.1347 16.7549 11.6488 16.7529 13.1645 16.3467L12.9057 15.3808ZM16.2922 13.5033C15.4234 14.3444 14.2631 15.0171 12.9057 15.3808L13.1645 16.3467C14.6803 15.9406 15.9925 15.1853 16.9878 14.2218L16.2922 13.5033ZM14.9924 9.64513C15.0776 9.96318 15.0621 10.2525 14.9933 10.4558C14.9232 10.6631 14.8233 10.7257 14.7682 10.7405L15.0271 11.7064C15.5055 11.5782 15.8016 11.1871 15.9406 10.7763C16.0809 10.3615 16.0875 9.86846 15.9583 9.38631L14.9924 9.64513ZM14.7682 10.7405C14.7132 10.7552 14.5954 10.7509 14.431 10.6065C14.2698 10.4648 14.1117 10.222 14.0265 9.90395L13.0605 10.1628C13.1897 10.6449 13.442 11.0686 13.7709 11.3576C14.0966 11.6439 14.5486 11.8346 15.0271 11.7064L14.7682 10.7405ZM14.0265 9.90395C13.9412 9.5859 13.9568 9.29655 14.0255 9.09326C14.0956 8.886 14.1956 8.82336 14.2506 8.80862L13.9918 7.84269C13.5133 7.97089 13.2172 8.36201 13.0783 8.77281C12.9379 9.18759 12.9313 9.68062 13.0605 10.1628L14.0265 9.90395ZM14.2506 8.80862C14.3056 8.79388 14.4235 8.79815 14.5879 8.94259C14.7491 9.08425 14.9072 9.32708 14.9924 9.64513L15.9583 9.38631C15.8291 8.90416 15.5769 8.48049 15.248 8.19144C14.9222 7.90515 14.4702 7.71449 13.9918 7.84269L14.2506 8.80862ZM9.19698 11.1984C9.2822 11.5164 9.26669 11.8058 9.19792 12.009C9.1278 12.2163 9.02785 12.279 8.97284 12.2937L9.23166 13.2596C9.71011 13.1314 10.0062 12.7403 10.1452 12.3295C10.2855 11.9147 10.2921 11.4217 10.1629 10.9395L9.19698 11.1984ZM8.97284 12.2937C8.91783 12.3084 8.79994 12.3042 8.63559 12.1597C8.47439 12.0181 8.31628 11.7752 8.23105 11.4572L7.26513 11.716C7.39432 12.1981 7.64655 12.6218 7.97546 12.9109C8.30121 13.1972 8.7532 13.3878 9.23166 13.2596L8.97284 12.2937ZM8.23105 11.4572C8.14583 11.1391 8.16135 10.8498 8.23012 10.6465C8.30023 10.4392 8.40019 10.3766 8.4552 10.3618L8.19638 9.39591C7.71792 9.52412 7.42182 9.91523 7.28285 10.326C7.14254 10.7408 7.13594 11.2338 7.26513 11.716L8.23105 11.4572ZM8.4552 10.3618C8.51021 10.3471 8.62809 10.3514 8.79245 10.4958C8.95364 10.6375 9.11176 10.8803 9.19698 11.1984L10.1629 10.9395C10.0337 10.4574 9.78149 10.0337 9.45258 9.74466C9.12682 9.45838 8.67484 9.26771 8.19638 9.39591L8.4552 10.3618ZM14.2276 20.3135C12.1406 20.8727 10.6237 21.278 9.42391 21.4326C8.23855 21.5854 7.43754 21.4819 6.75359 21.087L6.25359 21.9531C7.20303 22.5012 8.25538 22.5915 9.55171 22.4244C10.8336 22.2593 12.4267 21.8313 14.4864 21.2794L14.2276 20.3135ZM2.7206 14.4864C3.27249 16.5461 3.6984 18.1397 4.19631 19.3325C4.69981 20.5387 5.30416 21.4049 6.25359 21.9531L6.75359 21.087C6.06965 20.6922 5.57953 20.0502 5.11914 18.9473C4.65315 17.831 4.24573 16.3146 3.68653 14.2276L2.7206 14.4864ZM20.3135 9.77241C20.8727 11.8594 21.278 13.3763 21.4326 14.5761C21.5854 15.7614 21.4819 16.5625 21.087 17.2464L21.9531 17.7464C22.5012 16.797 22.5915 15.7446 22.4244 14.4483C22.2593 13.1664 21.8313 11.5733 21.2794 9.51359L20.3135 9.77241ZM14.4864 21.2794C16.5461 20.7275 18.1397 20.3016 19.3325 19.8037C20.5387 19.3002 21.4049 18.6958 21.9531 17.7464L21.087 17.2464C20.6922 17.9304 20.0502 18.4205 18.9473 18.8809C17.831 19.3469 16.3146 19.7543 14.2276 20.3135L14.4864 21.2794ZM9.77241 3.68653C11.8594 3.12732 13.3763 2.72196 14.5761 2.56735C15.7615 2.41461 16.5625 2.51808 17.2464 2.91296L17.7464 2.04693C16.797 1.49878 15.7446 1.40851 14.4483 1.57556C13.1664 1.74075 11.5733 2.16871 9.51359 2.7206L9.77241 3.68653ZM21.2794 9.51359C20.7275 7.4539 20.3016 5.86028 19.8037 4.6675C19.3002 3.46132 18.6958 2.59509 17.7464 2.04693L17.2464 2.91296C17.9304 3.30784 18.4205 3.94979 18.8809 5.05272C19.3469 6.16903 19.7543 7.68542 20.3135 9.77241L21.2794 9.51359ZM9.51359 2.7206C7.4539 3.27249 5.86028 3.6984 4.6675 4.19631C3.46132 4.69981 2.59509 5.30416 2.04693 6.25359L2.91296 6.75359C3.30784 6.06965 3.94979 5.57953 5.05272 5.11914C6.16903 4.65315 7.68542 4.24573 9.77241 3.68653L9.51359 2.7206ZM3.68653 14.2276C3.12732 12.1406 2.72196 10.6237 2.56735 9.42391C2.41461 8.23855 2.51808 7.43754 2.91296 6.75359L2.04693 6.25359C1.49878 7.20303 1.40851 8.25538 1.57556 9.55171C1.74075 10.8336 2.16871 12.4267 2.7206 14.4864L3.68653 14.2276ZM12.5512 16.2202L13.0291 17.194L13.9268 16.7534L13.4488 15.7796L12.5512 16.2202ZM16.6196 15.4316L16.1604 14.496L15.2627 14.9366L15.7219 15.8723L16.6196 15.4316ZM15.6801 18.1204C16.6884 17.6431 17.1112 16.4331 16.6196 15.4316L15.7219 15.8723C15.9677 16.3729 15.7563 16.9779 15.2522 17.2165L15.6801 18.1204ZM13.0291 17.194C13.511 18.1756 14.6918 18.5882 15.6801 18.1204L15.2522 17.2165C14.7581 17.4504 14.1677 17.2441 13.9268 16.7534L13.0291 17.194Z" fill="#424242"/>
</svg>
