<svg width="24" height="24" viewBox="0 0 24 24" fill="none" xmlns="http://www.w3.org/2000/svg">
<path d="M8 12.8618H7.5V12.8618L8 12.8618ZM8 13.4783H8.5V13.4783H8ZM6.57997 15.3296L6.43935 14.8498L6.43935 14.8498L6.57997 15.3296ZM4.57997 15.9157L4.43935 15.4359H4.43935L4.57997 15.9157ZM2 14.0645H2.5H2ZM2 12.1416H2.5H2ZM2.44083 10.789L2.05582 10.47L2.05582 10.47L2.44083 10.789ZM12 7.00012V7.50012V7.00012ZM21.3703 9.85613L21.7034 9.4832V9.4832L21.3703 9.85613ZM16 13.2501H15.5V13.2501H16ZM17.7004 15.1626L17.6279 15.6573V15.6573L17.7004 15.1626ZM19.7004 15.4557L19.7729 14.961L19.7729 14.961L19.7004 15.4557ZM22 13.5431H21.5V13.5431L22 13.5431ZM22 11.4184H22.5V11.4184H22ZM12 11.3964V10.8964V11.3964ZM7.5 12.8618L7.5 13.4783L8.5 13.4783L8.5 12.8618L7.5 12.8618ZM6.43935 14.8498L4.43935 15.4359L4.72059 16.3955L6.72059 15.8094L6.43935 14.8498ZM2.5 14.0645L2.5 12.1416H1.5L1.5 14.0645H2.5ZM2.82584 11.108C3.74795 9.99515 6.42592 7.50012 12 7.50012V6.50012C6.07689 6.50012 3.13258 9.17048 2.05582 10.47L2.82584 11.108ZM12 7.50012C17.2956 7.50012 19.9864 9.29061 21.0373 10.2291L21.7034 9.4832C20.4728 8.38427 17.5461 6.50012 12 6.50012V7.50012ZM15.5 12.8618V13.2501H16.5V12.8618H15.5ZM17.6279 15.6573L19.6279 15.9504L19.7729 14.961L17.7729 14.6679L17.6279 15.6573ZM22.5 13.5431V11.4184H21.5V13.5431H22.5ZM16 12.8618C16.5 12.8618 16.5 12.8612 16.5 12.8605C16.5 12.8602 16.5 12.8596 16.5 12.8591C16.5 12.8582 16.5 12.8572 16.5 12.8562C16.4999 12.8542 16.4999 12.8521 16.4999 12.8499C16.4998 12.8456 16.4996 12.8408 16.4994 12.8356C16.4989 12.8253 16.4982 12.8134 16.497 12.8001C16.4945 12.7734 16.4903 12.7408 16.4829 12.7032C16.4683 12.6278 16.4413 12.5329 16.3926 12.4258C16.2936 12.2083 16.1127 11.9582 15.7955 11.7258C15.1716 11.2686 14.0463 10.8964 12 10.8964V11.8964C13.9537 11.8964 14.8284 12.2569 15.2045 12.5324C15.3873 12.6664 15.4564 12.7827 15.4824 12.8399C15.4962 12.8702 15.5005 12.8898 15.5014 12.8946C15.5019 12.897 15.5016 12.8959 15.5011 12.8907C15.5008 12.8881 15.5006 12.8844 15.5004 12.8796C15.5003 12.8772 15.5002 12.8746 15.5001 12.8716C15.5001 12.8701 15.5 12.8686 15.5 12.8669C15.5 12.8661 15.5 12.8653 15.5 12.8644C15.5 12.864 15.5 12.8634 15.5 12.8632C15.5 12.8625 15.5 12.8618 16 12.8618ZM12 10.8964C9.95371 10.8964 8.82845 11.2686 8.20448 11.7258C7.88726 11.9582 7.70635 12.2083 7.60738 12.4258C7.55867 12.5329 7.53174 12.6278 7.51705 12.7032C7.50972 12.7408 7.50546 12.7734 7.50303 12.8001C7.50182 12.8134 7.50106 12.8253 7.50061 12.8356C7.50038 12.8408 7.50023 12.8456 7.50013 12.8499C7.50008 12.8521 7.50005 12.8542 7.50003 12.8562C7.50002 12.8572 7.50001 12.8582 7.50001 12.8591C7.5 12.8596 7.5 12.8603 7.5 12.8605C7.5 12.8612 7.5 12.8618 8 12.8618C8.5 12.8618 8.5 12.8625 8.5 12.8632C8.5 12.8634 8.49999 12.864 8.49999 12.8644C8.49999 12.8653 8.49998 12.8661 8.49997 12.8669C8.49995 12.8686 8.49993 12.8701 8.4999 12.8716C8.49983 12.8746 8.49974 12.8772 8.49964 12.8796C8.49943 12.8844 8.49916 12.8881 8.49892 12.8907C8.49844 12.8959 8.49809 12.897 8.49857 12.8946C8.49951 12.8898 8.50382 12.8702 8.51762 12.8399C8.54364 12.7827 8.61274 12.6664 8.79552 12.5324C9.17155 12.2569 10.0463 11.8964 12 11.8964V10.8964ZM19.6279 15.9504C21.1206 16.1692 22.5 15.0509 22.5 13.5431L21.5 13.5431C21.5 14.4028 20.7004 15.0969 19.7729 14.961L19.6279 15.9504ZM21.0373 10.2291C21.3476 10.5062 21.5 10.9291 21.5 11.4184H22.5C22.5 10.7338 22.2848 10.0024 21.7034 9.4832L21.0373 10.2291ZM2.5 12.1416C2.5 11.7337 2.60386 11.3759 2.82584 11.108L2.05582 10.47C1.64553 10.9652 1.5 11.5716 1.5 12.1416H2.5ZM15.5 13.2501C15.5 14.467 16.4171 15.4799 17.6279 15.6573L17.7729 14.6679C17.0283 14.5588 16.5 13.946 16.5 13.2501L15.5 13.2501ZM4.43935 15.4359C3.45314 15.7249 2.5 15.0063 2.5 14.0645H1.5C1.5 15.7186 3.13808 16.8593 4.72059 16.3955L4.43935 15.4359ZM7.5 13.4783C7.5 14.0991 7.07889 14.6624 6.43935 14.8498L6.72059 15.8094C7.76768 15.5025 8.5 14.5621 8.5 13.4783L7.5 13.4783Z" fill="#424242"/>
</svg>
