<svg width="24" height="24" viewBox="0 0 24 24" fill="none" xmlns="http://www.w3.org/2000/svg">
<path d="M5.50506 11.4096L5.85862 11.7631V11.7631L5.50506 11.4096ZM3 14.9522H2.5H3ZM9.04776 21V21.5V21ZM11.4096 5.50506L11.056 5.15151V5.15151L11.4096 5.50506ZM13.4178 17.6676C13.6131 17.8629 13.9296 17.8629 14.1249 17.6676C14.3202 17.4723 14.3202 17.1557 14.1249 16.9605L13.4178 17.6676ZM7.03951 9.8751C6.84425 9.67984 6.52767 9.67984 6.33241 9.8751C6.13714 10.0704 6.13714 10.3869 6.33241 10.5822L7.03951 9.8751ZM9 20.5C8.72386 20.5 8.5 20.7239 8.5 21C8.5 21.2761 8.72386 21.5 9 21.5V20.5ZM21 21.5C21.2761 21.5 21.5 21.2761 21.5 21C21.5 20.7239 21.2761 20.5 21 20.5V21.5ZM18.1414 12.2369L12.2369 18.1414L12.944 18.8485L18.8485 12.944L18.1414 12.2369ZM5.85862 11.7631L11.7631 5.85862L11.056 5.15151L5.15151 11.056L5.85862 11.7631ZM5.85862 18.1414C5.0136 17.2964 4.41616 16.6974 4.02378 16.1831C3.6402 15.6804 3.5 15.3178 3.5 14.9522H2.5C2.5 15.6243 2.77731 16.198 3.22875 16.7897C3.6714 17.3699 4.32648 18.0235 5.15151 18.8485L5.85862 18.1414ZM5.15151 11.056C4.32648 11.881 3.6714 12.5346 3.22875 13.1148C2.77731 13.7065 2.5 14.2802 2.5 14.9522H3.5C3.5 14.5867 3.6402 14.2241 4.02378 13.7213C4.41616 13.2071 5.0136 12.6081 5.85862 11.7631L5.15151 11.056ZM12.2369 18.1414C11.3919 18.9864 10.7929 19.5838 10.2787 19.9762C9.77592 20.3598 9.41329 20.5 9.04776 20.5V21.5C9.71985 21.5 10.2935 21.2227 10.8852 20.7712C11.4654 20.3286 12.119 19.6735 12.944 18.8485L12.2369 18.1414ZM5.15151 18.8485C5.97654 19.6735 6.63012 20.3286 7.21027 20.7712C7.80196 21.2227 8.37566 21.5 9.04776 21.5V20.5C8.68222 20.5 8.31959 20.3598 7.81685 19.9762C7.30258 19.5838 6.70363 18.9864 5.85862 18.1414L5.15151 18.8485ZM18.1414 5.85862C18.9864 6.70363 19.5838 7.30258 19.9762 7.81685C20.3598 8.31959 20.5 8.68222 20.5 9.04776H21.5C21.5 8.37566 21.2227 7.80196 20.7712 7.21027C20.3286 6.63012 19.6735 5.97654 18.8485 5.15151L18.1414 5.85862ZM18.8485 12.944C19.6735 12.119 20.3286 11.4654 20.7712 10.8852C21.2227 10.2935 21.5 9.71985 21.5 9.04776H20.5C20.5 9.41329 20.3598 9.77592 19.9762 10.2787C19.5838 10.7929 18.9864 11.3919 18.1414 12.2369L18.8485 12.944ZM18.8485 5.15151C18.0235 4.32648 17.3699 3.6714 16.7897 3.22875C16.198 2.77731 15.6243 2.5 14.9522 2.5V3.5C15.3178 3.5 15.6804 3.6402 16.1831 4.02378C16.6974 4.41616 17.2964 5.0136 18.1414 5.85862L18.8485 5.15151ZM11.7631 5.85862C12.6081 5.0136 13.2071 4.41616 13.7213 4.02378C14.2241 3.6402 14.5867 3.5 14.9522 3.5V2.5C14.2802 2.5 13.7065 2.77731 13.1148 3.22875C12.5346 3.6714 11.881 4.32648 11.056 5.15151L11.7631 5.85862ZM14.1249 16.9605L7.03951 9.8751L6.33241 10.5822L13.4178 17.6676L14.1249 16.9605ZM9 21.5H21V20.5H9V21.5Z" fill="#424242"/>
</svg>
