<svg width="24" height="24" viewBox="0 0 24 24" fill="none" xmlns="http://www.w3.org/2000/svg">
<path d="M2.45957 6.80304C2.35079 6.54923 2.05686 6.43165 1.80304 6.54043C1.54923 6.64921 1.43165 6.94314 1.54043 7.19696L2.45957 6.80304ZM15.5872 13.3287L15.4041 12.8634H15.4041L15.5872 13.3287ZM8.8319 13.6014C8.98251 13.3699 8.91696 13.0602 8.6855 12.9096C8.45405 12.759 8.14432 12.8245 7.99372 13.056L8.8319 13.6014ZM6.58091 15.2273C6.4303 15.4588 6.49585 15.7685 6.72731 15.9191C6.95877 16.0697 7.26849 16.0042 7.41909 15.7727L6.58091 15.2273ZM22.4596 7.19696C22.5683 6.94314 22.4508 6.64921 22.197 6.54043C21.9431 6.43165 21.6492 6.54923 21.5404 6.80304L22.4596 7.19696ZM19 11.1288L18.6578 10.7643V10.7643L19 11.1288ZM20.1464 12.9824C20.3417 13.1777 20.6583 13.1777 20.8536 12.9824C21.0488 12.7871 21.0488 12.4705 20.8536 12.2753L20.1464 12.9824ZM11.5 16.5C11.5 16.7761 11.7239 17 12 17C12.2761 17 12.5 16.7761 12.5 16.5H11.5ZM16.5809 15.7727C16.7315 16.0042 17.0412 16.0697 17.2727 15.9191C17.5042 15.7685 17.5697 15.4588 17.4191 15.2273L16.5809 15.7727ZM5.35355 11.4824C5.54882 11.2871 5.54882 10.9705 5.35355 10.7753C5.15829 10.58 4.84171 10.58 4.64645 10.7753L5.35355 11.4824ZM3.14645 12.2753C2.95118 12.4705 2.95118 12.7871 3.14645 12.9824C3.34171 13.1777 3.65829 13.1777 3.85355 12.9824L3.14645 12.2753ZM12 13.5C8.68407 13.5 6.30755 11.8464 4.7414 10.1598C3.95847 9.31662 3.38508 8.47189 3.00777 7.83801C2.8194 7.52154 2.68067 7.25894 2.58979 7.07717C2.54437 6.98633 2.51095 6.91579 2.48932 6.86895C2.4785 6.84553 2.47063 6.82804 2.46568 6.81691C2.46321 6.81135 2.46146 6.80738 2.46045 6.80505C2.45994 6.80388 2.45961 6.80313 2.45947 6.80279C2.45939 6.80262 2.45937 6.80256 2.45938 6.8026C2.45939 6.80262 2.45944 6.80273 2.45944 6.80274C2.4595 6.80288 2.45957 6.80304 2 7C1.54043 7.19696 1.54052 7.19718 1.54062 7.19742C1.54067 7.19754 1.54079 7.19781 1.54089 7.19804C1.54109 7.19851 1.54134 7.19908 1.54163 7.19976C1.54222 7.20112 1.543 7.2029 1.54396 7.2051C1.54588 7.2095 1.54854 7.21557 1.55196 7.22325C1.55879 7.23861 1.56862 7.26043 1.58148 7.28828C1.60721 7.34397 1.64508 7.42383 1.69536 7.52439C1.79589 7.72544 1.94623 8.00971 2.14848 8.34949C2.55242 9.02811 3.16653 9.93338 4.0086 10.8402C5.69245 12.6536 8.31593 14.5 12 14.5V13.5ZM15.4041 12.8634C14.4059 13.2563 13.2745 13.5 12 13.5V14.5C13.4055 14.5 14.6608 14.2307 15.7703 13.794L15.4041 12.8634ZM7.99372 13.056L6.58091 15.2273L7.41909 15.7727L8.8319 13.6014L7.99372 13.056ZM22 7C21.5404 6.80304 21.5405 6.80294 21.5405 6.80285C21.5405 6.80283 21.5406 6.80275 21.5406 6.80272C21.5406 6.80264 21.5406 6.8026 21.5406 6.80259C21.5406 6.80257 21.5406 6.80269 21.5405 6.80293C21.5403 6.80342 21.5398 6.80443 21.5392 6.80596C21.5378 6.80901 21.5356 6.81412 21.5324 6.82121C21.5261 6.83538 21.5161 6.85747 21.5024 6.88688C21.4749 6.94571 21.4327 7.03375 21.3753 7.14625C21.2605 7.37136 21.0855 7.6937 20.8476 8.07541C20.371 8.84028 19.6473 9.83555 18.6578 10.7643L19.3422 11.4934C20.4113 10.4899 21.1876 9.42075 21.6963 8.60425C21.9512 8.19528 22.1401 7.84771 22.2662 7.60057C22.3292 7.47695 22.3766 7.37828 22.4087 7.30944C22.4247 7.27501 22.437 7.24802 22.4454 7.22907C22.4497 7.2196 22.453 7.21214 22.4553 7.20676C22.4565 7.20407 22.4574 7.20191 22.4581 7.20027C22.4585 7.19945 22.4588 7.19876 22.459 7.19821C22.4592 7.19794 22.4593 7.19769 22.4593 7.19749C22.4594 7.19738 22.4594 7.19725 22.4595 7.1972C22.4595 7.19707 22.4596 7.19696 22 7ZM18.6578 10.7643C17.7809 11.5874 16.7008 12.353 15.4041 12.8634L15.7703 13.794C17.2085 13.2279 18.3935 12.3839 19.3422 11.4934L18.6578 10.7643ZM18.6464 11.4824L20.1464 12.9824L20.8536 12.2753L19.3536 10.7753L18.6464 11.4824ZM11.5 14V16.5H12.5V14H11.5ZM15.1681 13.6014L16.5809 15.7727L17.4191 15.2273L16.0063 13.056L15.1681 13.6014ZM4.64645 10.7753L3.14645 12.2753L3.85355 12.9824L5.35355 11.4824L4.64645 10.7753Z" fill="#424242"/>
</svg>
