<svg width="24" height="24" viewBox="0 0 24 24" fill="none" xmlns="http://www.w3.org/2000/svg">
<path d="M7 5.5C6.72386 5.5 6.5 5.72386 6.5 6C6.5 6.27614 6.72386 6.5 7 6.5V5.5ZM12 6.5C12.2761 6.5 12.5 6.27614 12.5 6C12.5 5.72386 12.2761 5.5 12 5.5V6.5ZM11 2V2.5H13V2V1.5H11V2ZM21 10H20.5V14H21H21.5V10H21ZM13 22V21.5H11V22V22.5H13V22ZM3 14H3.5V10H3H2.5V14H3ZM11 22V21.5C9.10025 21.5 7.72573 21.4989 6.67754 21.358C5.64373 21.219 5.00253 20.9523 4.52513 20.4749L4.17157 20.8284L3.81802 21.182C4.51219 21.8762 5.39959 22.1952 6.54429 22.3491C7.6746 22.5011 9.12852 22.5 11 22.5V22ZM3 14H2.5C2.5 15.8715 2.49894 17.3254 2.65091 18.4557C2.80481 19.6004 3.12385 20.4878 3.81802 21.182L4.17157 20.8284L4.52513 20.4749C4.04772 19.9975 3.78098 19.3563 3.64199 18.3225C3.50106 17.2743 3.5 15.8998 3.5 14H3ZM21 14H20.5C20.5 15.8998 20.4989 17.2743 20.358 18.3225C20.219 19.3563 19.9523 19.9975 19.4749 20.4749L19.8284 20.8284L20.182 21.182C20.8762 20.4878 21.1952 19.6004 21.3491 18.4557C21.5011 17.3254 21.5 15.8715 21.5 14H21ZM13 22V22.5C14.8715 22.5 16.3254 22.5011 17.4557 22.3491C18.6004 22.1952 19.4878 21.8762 20.182 21.182L19.8284 20.8284L19.4749 20.4749C18.9975 20.9523 18.3563 21.219 17.3225 21.358C16.2743 21.4989 14.8998 21.5 13 21.5V22ZM13 2V2.5C14.8998 2.5 16.2743 2.50106 17.3225 2.64199C18.3563 2.78098 18.9975 3.04772 19.4749 3.52513L19.8284 3.17157L20.182 2.81802C19.4878 2.12385 18.6004 1.80481 17.4557 1.65091C16.3254 1.49894 14.8715 1.5 13 1.5V2ZM21 10H21.5C21.5 8.12852 21.5011 6.67461 21.3491 5.54429C21.1952 4.39959 20.8762 3.51219 20.182 2.81802L19.8284 3.17157L19.4749 3.52513C19.9523 4.00253 20.219 4.64373 20.358 5.67754C20.4989 6.72573 20.5 8.10025 20.5 10H21ZM11 2V1.5C9.12852 1.5 7.67461 1.49894 6.54429 1.65091C5.39959 1.80481 4.51219 2.12385 3.81802 2.81802L4.17157 3.17157L4.52513 3.52513C5.00253 3.04772 5.64373 2.78098 6.67754 2.64199C7.72573 2.50106 9.10025 2.5 11 2.5V2ZM3 10H3.5C3.5 8.10025 3.50106 6.72573 3.64199 5.67754C3.78098 4.64373 4.04772 4.00253 4.52513 3.52513L4.17157 3.17157L3.81802 2.81802C3.12385 3.51219 2.80481 4.39959 2.65091 5.54429C2.49894 6.6746 2.5 8.12852 2.5 10H3ZM9 9V9.5H15V9V8.5H9V9ZM18 12H17.5V16H18H18.5V12H18ZM15 19V18.5H9V19V19.5H15V19ZM6 16H6.5V12H6H5.5V16H6ZM9 19V18.5C8.27876 18.5 7.78813 18.4989 7.42072 18.4495C7.06769 18.4021 6.90418 18.3184 6.79289 18.2071L6.43934 18.5607L6.08579 18.9142C6.41384 19.2423 6.82355 19.3783 7.28747 19.4406C7.737 19.5011 8.30703 19.5 9 19.5V19ZM6 16H5.5C5.5 16.693 5.49894 17.263 5.55938 17.7125C5.62175 18.1764 5.75773 18.5862 6.08579 18.9142L6.43934 18.5607L6.79289 18.2071C6.68161 18.0958 6.59792 17.9323 6.55046 17.5793C6.50106 17.2119 6.5 16.7212 6.5 16H6ZM18 16H17.5C17.5 16.7212 17.4989 17.2119 17.4495 17.5793C17.4021 17.9323 17.3184 18.0958 17.2071 18.2071L17.5607 18.5607L17.9142 18.9142C18.2423 18.5862 18.3783 18.1764 18.4406 17.7125C18.5011 17.263 18.5 16.693 18.5 16H18ZM15 19V19.5C15.693 19.5 16.263 19.5011 16.7125 19.4406C17.1764 19.3783 17.5862 19.2423 17.9142 18.9142L17.5607 18.5607L17.2071 18.2071C17.0958 18.3184 16.9323 18.4021 16.5793 18.4495C16.2119 18.4989 15.7212 18.5 15 18.5V19ZM15 9V9.5C15.7212 9.5 16.2119 9.50106 16.5793 9.55046C16.9323 9.59792 17.0958 9.68161 17.2071 9.79289L17.5607 9.43934L17.9142 9.08579C17.5862 8.75773 17.1764 8.62175 16.7125 8.55938C16.263 8.49894 15.693 8.5 15 8.5V9ZM18 12H18.5C18.5 11.307 18.5011 10.737 18.4406 10.2875C18.3783 9.82355 18.2423 9.41384 17.9142 9.08579L17.5607 9.43934L17.2071 9.79289C17.3184 9.90418 17.4021 10.0677 17.4495 10.4207C17.4989 10.7881 17.5 11.2788 17.5 12H18ZM9 9V8.5C8.30703 8.5 7.737 8.49894 7.28747 8.55938C6.82355 8.62175 6.41384 8.75773 6.08579 9.08579L6.43934 9.43934L6.79289 9.79289C6.90418 9.68161 7.06769 9.59792 7.42072 9.55046C7.78813 9.50106 8.27876 9.5 9 9.5V9ZM6 12H6.5C6.5 11.2788 6.50106 10.7881 6.55046 10.4207C6.59792 10.0677 6.68161 9.90418 6.79289 9.79289L6.43934 9.43934L6.08579 9.08579C5.75773 9.41384 5.62175 9.82355 5.55938 10.2875C5.49894 10.737 5.5 11.307 5.5 12H6ZM7 6V6.5H12V6V5.5H7V6Z" fill="#424242"/>
</svg>
