<svg width="24" height="24" viewBox="0 0 24 24" fill="none" xmlns="http://www.w3.org/2000/svg">
<path d="M15.3929 4.05365L15.0585 4.42529V4.42529L15.3929 4.05365ZM19.3517 7.61654L19.0172 7.98819V7.98819L19.3517 7.61654ZM21.654 10.1541L21.1972 10.3575L21.1973 10.3575L21.654 10.1541ZM3.17157 20.8284L3.52513 20.4749H3.52513L3.17157 20.8284ZM20.8284 20.8284L20.4749 20.4749V20.4749L20.8284 20.8284ZM9.27735 17.084C9.04759 16.9308 8.73715 16.9929 8.58397 17.2226C8.4308 17.4524 8.49289 17.7628 8.72265 17.916L9.27735 17.084ZM15.2774 17.916C15.5071 17.7628 15.5692 17.4524 15.416 17.2226C15.2628 16.9929 14.9524 16.9308 14.7226 17.084L15.2774 17.916ZM14 21.5H10V22.5H14V21.5ZM2.5 14V10H1.5V14H2.5ZM21.5 13.5629V14H22.5V13.5629H21.5ZM15.0585 4.42529L19.0172 7.98819L19.6862 7.2449L15.7274 3.682L15.0585 4.42529ZM22.5 13.5629C22.5 11.8525 22.5101 10.8473 22.1107 9.95068L21.1973 10.3575C21.4899 11.0146 21.5 11.7641 21.5 13.5629H22.5ZM19.0172 7.98819C20.3543 9.19151 20.9046 9.70039 21.1972 10.3575L22.1108 9.95068C21.7114 9.05401 20.9576 8.38912 19.6862 7.2449L19.0172 7.98819ZM10.0298 2.5C11.5927 2.5 12.2448 2.50772 12.8301 2.73233L13.1884 1.79871C12.3898 1.49228 11.5169 1.5 10.0298 1.5V2.5ZM15.7274 3.682C14.6275 2.69205 13.9868 2.10511 13.1884 1.79871L12.8301 2.73233C13.4155 2.95697 13.9027 3.3851 15.0585 4.42529L15.7274 3.682ZM10 21.5C8.10025 21.5 6.72573 21.4989 5.67754 21.358C4.64373 21.219 4.00253 20.9523 3.52513 20.4749L2.81802 21.182C3.51219 21.8762 4.39959 22.1952 5.54429 22.3491C6.6746 22.5011 8.12852 22.5 10 22.5V21.5ZM1.5 14C1.5 15.8715 1.49894 17.3254 1.65091 18.4557C1.80481 19.6004 2.12385 20.4878 2.81802 21.182L3.52513 20.4749C3.04772 19.9975 2.78098 19.3563 2.64199 18.3225C2.50106 17.2743 2.5 15.8998 2.5 14H1.5ZM14 22.5C15.8715 22.5 17.3254 22.5011 18.4557 22.3491C19.6004 22.1952 20.4878 21.8762 21.182 21.182L20.4749 20.4749C19.9975 20.9523 19.3563 21.219 18.3225 21.358C17.2743 21.4989 15.8998 21.5 14 21.5V22.5ZM21.5 14C21.5 15.8998 21.4989 17.2743 21.358 18.3225C21.219 19.3563 20.9523 19.9975 20.4749 20.4749L21.182 21.182C21.8762 20.4878 22.1952 19.6004 22.3491 18.4557C22.5011 17.3254 22.5 15.8715 22.5 14H21.5ZM2.5 10C2.5 8.10025 2.50106 6.72573 2.64199 5.67754C2.78098 4.64373 3.04772 4.00253 3.52513 3.52513L2.81802 2.81802C2.12385 3.51219 1.80481 4.39959 1.65091 5.54429C1.49894 6.6746 1.5 8.12852 1.5 10H2.5ZM10.0298 1.5C8.14833 1.5 6.68714 1.49895 5.55203 1.65087C4.40292 1.80466 3.51258 2.12346 2.81802 2.81802L3.52513 3.52513C4.00214 3.04811 4.64535 2.78113 5.68469 2.64203C6.73803 2.50105 8.12015 2.5 10.0298 2.5V1.5ZM12.5 2.5V5H13.5V2.5H12.5ZM18 10.5H22V9.5H18V10.5ZM12.5 5C12.5 6.16438 12.4989 7.08796 12.596 7.8098C12.695 8.54603 12.9042 9.14682 13.3787 9.62132L14.0858 8.91421C13.8281 8.65648 13.6711 8.3019 13.5871 7.67656C13.5011 7.03683 13.5 6.19265 13.5 5H12.5ZM18 9.5C16.8074 9.5 15.9632 9.49894 15.3234 9.41293C14.6981 9.32885 14.3435 9.17195 14.0858 8.91421L13.3787 9.62132C13.8532 10.0958 14.454 10.305 15.1902 10.404C15.912 10.5011 16.8356 10.5 18 10.5V9.5ZM17.5 14.5C17.5 14.8293 17.4101 15.1048 17.2911 15.2833C17.1697 15.4654 17.057 15.5 17 15.5V16.5C17.4953 16.5 17.8826 16.1988 18.1231 15.838C18.366 15.4737 18.5 14.9992 18.5 14.5H17.5ZM17 15.5C16.943 15.5 16.8303 15.4654 16.7089 15.2833C16.5899 15.1048 16.5 14.8293 16.5 14.5H15.5C15.5 14.9992 15.634 15.4737 15.8769 15.838C16.1174 16.1988 16.5047 16.5 17 16.5V15.5ZM16.5 14.5C16.5 14.1707 16.5899 13.8952 16.7089 13.7167C16.8303 13.5346 16.943 13.5 17 13.5V12.5C16.5047 12.5 16.1174 12.8012 15.8769 13.162C15.634 13.5263 15.5 14.0008 15.5 14.5H16.5ZM17 13.5C17.057 13.5 17.1697 13.5346 17.2911 13.7167C17.4101 13.8952 17.5 14.1707 17.5 14.5H18.5C18.5 14.0008 18.366 13.5263 18.1231 13.162C17.8826 12.8012 17.4953 12.5 17 12.5V13.5ZM8.72265 17.916C10.7073 19.2391 13.2927 19.2391 15.2774 17.916L14.7226 17.084C13.0739 18.1831 10.9261 18.1831 9.27735 17.084L8.72265 17.916ZM7.5 14.5C7.5 14.8293 7.41012 15.1048 7.29108 15.2833C7.16971 15.4654 7.05695 15.5 7 15.5V16.5C7.49533 16.5 7.88257 16.1988 8.12313 15.838C8.36602 15.4737 8.5 14.9992 8.5 14.5H7.5ZM7 15.5C6.94305 15.5 6.83029 15.4654 6.70892 15.2833C6.58988 15.1048 6.5 14.8293 6.5 14.5H5.5C5.5 14.9992 5.63398 15.4737 5.87687 15.838C6.11743 16.1988 6.50467 16.5 7 16.5V15.5ZM6.5 14.5C6.5 14.1707 6.58988 13.8952 6.70892 13.7167C6.83029 13.5346 6.94305 13.5 7 13.5V12.5C6.50467 12.5 6.11743 12.8012 5.87687 13.162C5.63398 13.5263 5.5 14.0008 5.5 14.5H6.5ZM7 13.5C7.05695 13.5 7.16971 13.5346 7.29108 13.7167C7.41012 13.8952 7.5 14.1707 7.5 14.5H8.5C8.5 14.0008 8.36602 13.5263 8.12313 13.162C7.88257 12.8012 7.49533 12.5 7 12.5V13.5Z" fill="#424242"/>
</svg>
