<svg width="24" height="24" viewBox="0 0 24 24" fill="none" xmlns="http://www.w3.org/2000/svg">
<path d="M15.3929 4.05365L15.0585 4.42529V4.42529L15.3929 4.05365ZM19.3517 7.61654L19.0172 7.98819V7.98819L19.3517 7.61654ZM21.654 10.1541L21.1972 10.3575L21.1973 10.3575L21.654 10.1541ZM3.17157 20.8284L3.52513 20.4749H3.52513L3.17157 20.8284ZM20.8284 20.8284L20.4749 20.4749V20.4749L20.8284 20.8284ZM11 16.5C11.2761 16.5 11.5 16.2761 11.5 16C11.5 15.7239 11.2761 15.5 11 15.5V16.5ZM6 16L5.63523 15.658C5.45492 15.8504 5.45492 16.1496 5.63523 16.342L6 16ZM8.23977 14.342C8.42863 14.1405 8.41843 13.8241 8.21697 13.6352C8.01551 13.4464 7.6991 13.4566 7.51023 13.658L8.23977 14.342ZM7.51023 18.342C7.6991 18.5434 8.01551 18.5536 8.21697 18.3648C8.41843 18.1759 8.42863 17.8595 8.23977 17.658L7.51023 18.342ZM14 21.5H10V22.5H14V21.5ZM2.5 14V10H1.5V14H2.5ZM21.5 13.5629V14H22.5V13.5629H21.5ZM15.0585 4.42529L19.0172 7.98819L19.6862 7.2449L15.7274 3.682L15.0585 4.42529ZM22.5 13.5629C22.5 11.8525 22.5101 10.8473 22.1107 9.95068L21.1973 10.3575C21.4899 11.0146 21.5 11.7641 21.5 13.5629H22.5ZM19.0172 7.98819C20.3543 9.19151 20.9046 9.70039 21.1972 10.3575L22.1108 9.95068C21.7114 9.05401 20.9576 8.38912 19.6862 7.2449L19.0172 7.98819ZM10.0298 2.5C11.5927 2.5 12.2448 2.50772 12.8301 2.73233L13.1884 1.79871C12.3898 1.49228 11.5169 1.5 10.0298 1.5V2.5ZM15.7274 3.682C14.6275 2.69205 13.9868 2.10511 13.1884 1.79871L12.8301 2.73233C13.4155 2.95697 13.9027 3.3851 15.0585 4.42529L15.7274 3.682ZM10 21.5C8.10025 21.5 6.72573 21.4989 5.67754 21.358C4.64373 21.219 4.00253 20.9523 3.52513 20.4749L2.81802 21.182C3.51219 21.8762 4.39959 22.1952 5.54429 22.3491C6.6746 22.5011 8.12852 22.5 10 22.5V21.5ZM1.5 14C1.5 15.8715 1.49894 17.3254 1.65091 18.4557C1.80481 19.6004 2.12385 20.4878 2.81802 21.182L3.52513 20.4749C3.04772 19.9975 2.78098 19.3563 2.64199 18.3225C2.50106 17.2743 2.5 15.8998 2.5 14H1.5ZM14 22.5C15.8715 22.5 17.3254 22.5011 18.4557 22.3491C19.6004 22.1952 20.4878 21.8762 21.182 21.182L20.4749 20.4749C19.9975 20.9523 19.3563 21.219 18.3225 21.358C17.2743 21.4989 15.8998 21.5 14 21.5V22.5ZM21.5 14C21.5 15.8998 21.4989 17.2743 21.358 18.3225C21.219 19.3563 20.9523 19.9975 20.4749 20.4749L21.182 21.182C21.8762 20.4878 22.1952 19.6004 22.3491 18.4557C22.5011 17.3254 22.5 15.8715 22.5 14H21.5ZM2.5 10C2.5 8.10025 2.50106 6.72573 2.64199 5.67754C2.78098 4.64373 3.04772 4.00253 3.52513 3.52513L2.81802 2.81802C2.12385 3.51219 1.80481 4.39959 1.65091 5.54429C1.49894 6.6746 1.5 8.12852 1.5 10H2.5ZM10.0298 1.5C8.14833 1.5 6.68714 1.49895 5.55203 1.65087C4.40292 1.80466 3.51258 2.12346 2.81802 2.81802L3.52513 3.52513C4.00214 3.04811 4.64535 2.78113 5.68469 2.64203C6.73803 2.50105 8.12015 2.5 10.0298 2.5V1.5ZM12.5 2.5V5H13.5V2.5H12.5ZM18 10.5H22V9.5H18V10.5ZM12.5 5C12.5 6.16438 12.4989 7.08796 12.596 7.8098C12.695 8.54603 12.9042 9.14682 13.3787 9.62132L14.0858 8.91421C13.8281 8.65648 13.6711 8.3019 13.5871 7.67656C13.5011 7.03683 13.5 6.19265 13.5 5H12.5ZM18 9.5C16.8074 9.5 15.9632 9.49894 15.3234 9.41293C14.6981 9.32885 14.3435 9.17195 14.0858 8.91421L13.3787 9.62132C13.8532 10.0958 14.454 10.305 15.1902 10.404C15.912 10.5011 16.8356 10.5 18 10.5V9.5ZM11 15.5H6V16.5H11V15.5ZM6.36477 16.342L8.23977 14.342L7.51023 13.658L5.63523 15.658L6.36477 16.342ZM5.63523 16.342L7.51023 18.342L8.23977 17.658L6.36477 15.658L5.63523 16.342Z" fill="#424242"/>
</svg>
