<svg width="24" height="24" viewBox="0 0 24 24" fill="none" xmlns="http://www.w3.org/2000/svg">
<path d="M15.3973 4.05365L15.0629 4.42535V4.42535L15.3973 4.05365ZM19.3574 7.61654L19.6918 7.24484V7.24484L19.3574 7.61654ZM21.6604 10.1541L21.2037 10.3576L21.2037 10.3576L21.6604 10.1541ZM3.17196 20.8284L3.52545 20.4748H3.52545L3.17196 20.8284ZM20.8346 20.8284L20.4811 20.4748H20.4811L20.8346 20.8284ZM18.291 12.8571L18.5683 12.4411V12.4411L18.291 12.8571ZM21.7207 12.8571L21.4434 12.4411V12.4411L21.7207 12.8571ZM9.71681 12.8571L9.43952 12.4411H9.43952L9.71681 12.8571ZM12.2891 12.8571L12.5664 12.4411V12.4411L12.2891 12.8571ZM6.28712 12.8571L6.00983 13.2732V13.2732L6.28712 12.8571ZM3.71485 12.8571L3.43756 12.4411H3.43756L3.71485 12.8571ZM18.291 16.8571L18.5683 16.4411V16.4411L18.291 16.8571ZM21.7207 16.8571L21.998 17.2732L21.998 17.2732L21.7207 16.8571ZM15.7188 16.8571L15.4415 16.4411V16.4411L15.7188 16.8571ZM12.2891 16.8571L12.5664 16.4411V16.4411L12.2891 16.8571ZM9.71681 16.8571L9.43952 16.4411H9.43952L9.71681 16.8571ZM15.7188 12.8571L15.4415 12.4411V12.4411L15.7188 12.8571ZM6.28712 16.8571L6.00983 17.2732V17.2732L6.28712 16.8571ZM3.71485 16.8571L3.43756 16.4411V16.4411L3.71485 16.8571ZM3.08865 17.2745L3.36593 17.6905H3.36593L3.08865 17.2745ZM2.27827 19.1149L2.76465 18.9989H2.76465L2.27827 19.1149ZM21.9717 16.9978L22.4712 17.0185V17.0185L21.9717 16.9978ZM21.9999 12.3273L22.4998 12.318V12.318L21.9999 12.3273ZM2.21436 18.0728L2.6797 18.2557L2.6797 18.2557L2.21436 18.0728ZM2.00613 12.2421L2.50307 12.1867H2.50307L2.00613 12.2421ZM3.45978 13.0198L3.68937 13.4639L3.68937 13.4639L3.45978 13.0198ZM12.5 2.5V5H13.5V2.5H12.5ZM18 10.5H22V9.5H18V10.5ZM12.5 5C12.5 6.16438 12.4989 7.08796 12.596 7.8098C12.695 8.54603 12.9042 9.14682 13.3787 9.62132L14.0858 8.91421C13.8281 8.65648 13.6711 8.3019 13.5871 7.67656C13.5011 7.03683 13.5 6.19265 13.5 5H12.5ZM18 9.5C16.8074 9.5 15.9632 9.49894 15.3234 9.41293C14.6981 9.32885 14.3435 9.17195 14.0858 8.91421L13.3787 9.62132C13.8532 10.0958 14.454 10.305 15.1902 10.404C15.912 10.5011 16.8356 10.5 18 10.5V9.5ZM14.0039 21.5H10.0026V22.5H14.0039V21.5ZM2.5 11.9397V10H1.5V11.9397H2.5ZM15.0629 4.42535L19.023 7.98825L19.6918 7.24484L15.7317 3.68195L15.0629 4.42535ZM19.023 7.98825C20.3604 9.19157 20.9109 9.70046 21.2037 10.3576L22.1171 9.95062C21.7177 9.05394 20.9636 8.38907 19.6918 7.24484L19.023 7.98825ZM10.0324 2.5C11.5958 2.5 12.2482 2.50771 12.8337 2.73235L13.1919 1.79869C12.3932 1.49229 11.5201 1.5 10.0324 1.5V2.5ZM15.7317 3.68195C14.6314 2.69198 13.9906 2.10507 13.1919 1.79869L12.8337 2.73235C13.4194 2.957 13.9068 3.38517 15.0629 4.42535L15.7317 3.68195ZM10.0026 21.5C8.10225 21.5 6.72726 21.4989 5.6787 21.358C4.6445 21.219 4.00304 20.9522 3.52545 20.4748L2.81846 21.182C3.51283 21.8762 4.40046 22.1952 5.54549 22.3491C6.67615 22.5011 8.13051 22.5 10.0026 22.5V21.5ZM14.0039 22.5C15.876 22.5 17.3304 22.5011 18.461 22.3491C19.6061 22.1952 20.4937 21.8762 21.1881 21.182L20.4811 20.4748C20.0035 20.9522 19.362 21.219 18.3278 21.358C17.2793 21.4989 15.9043 21.5 14.0039 21.5V22.5ZM2.5 10C2.5 8.10024 2.50106 6.72574 2.64203 5.67756C2.78107 4.64378 3.04789 4.00259 3.52545 3.52518L2.81846 2.81796C2.12407 3.51213 1.80491 4.39954 1.65096 5.54427C1.49894 6.6746 1.5 8.12852 1.5 10H2.5ZM10.0324 1.5C8.15033 1.5 6.68869 1.49895 5.55324 1.65086C4.4038 1.80465 3.51322 2.12343 2.81846 2.81796L3.52545 3.52518C4.00265 3.04814 4.64613 2.78114 5.68585 2.64203C6.73956 2.50105 8.12216 2.5 10.0324 2.5V1.5ZM18.0138 13.2732C19.2201 14.0772 20.7917 14.0772 21.998 13.2732L21.4434 12.4411C20.5729 13.0212 19.4388 13.0212 18.5683 12.4411L18.0138 13.2732ZM9.99409 13.2732C10.605 12.8661 11.4009 12.8661 12.0118 13.2732L12.5664 12.4411C11.6196 11.8101 10.3863 11.8101 9.43952 12.4411L9.99409 13.2732ZM6.00983 13.2732C7.21618 14.0772 8.78775 14.0772 9.99409 13.2732L9.43952 12.4411C8.56901 13.0212 7.43491 13.0212 6.5644 12.4411L6.00983 13.2732ZM3.99213 13.2732C4.60303 12.8661 5.39893 12.8661 6.00983 13.2732L6.5644 12.4411C5.61766 11.8101 4.3843 11.8101 3.43756 12.4411L3.99213 13.2732ZM18.0138 17.2732C19.2201 18.0772 20.7917 18.0772 21.998 17.2732L21.4434 16.4411C20.5729 17.0212 19.4388 17.0212 18.5683 16.4411L18.0138 17.2732ZM15.9961 17.2732C16.607 16.8661 17.4029 16.8661 18.0138 17.2732L18.5683 16.4411C17.6216 15.8101 16.3882 15.8101 15.4415 16.4411L15.9961 17.2732ZM12.0118 17.2732C13.2181 18.0772 14.7897 18.0772 15.9961 17.2732L15.4415 16.4411C14.571 17.0212 13.4369 17.0212 12.5664 16.4411L12.0118 17.2732ZM9.99409 17.2732C10.605 16.8661 11.4009 16.8661 12.0118 17.2732L12.5664 16.4411C11.6196 15.8101 10.3863 15.8101 9.43952 16.4411L9.99409 17.2732ZM15.9961 13.2732C16.607 12.8661 17.4029 12.8661 18.0138 13.2732L18.5683 12.4411C17.6216 11.8101 16.3882 11.8101 15.4415 12.4411L15.9961 13.2732ZM6.00983 17.2732C7.21618 18.0772 8.78775 18.0772 9.99409 17.2732L9.43952 16.4411C8.56901 17.0212 7.43491 17.0212 6.5644 16.4411L6.00983 17.2732ZM12.0118 13.2732C13.2181 14.0772 14.7897 14.0772 15.9961 13.2732L15.4415 12.4411C14.571 13.0212 13.4369 13.0212 12.5664 12.4411L12.0118 13.2732ZM3.99213 17.2732C4.60303 16.8661 5.39893 16.8661 6.00983 17.2732L6.5644 16.4411C5.61766 15.8101 4.3843 15.8101 3.43756 16.4411L3.99213 17.2732ZM3.36593 17.6905L3.99213 17.2732L3.43756 16.4411L2.81136 16.8584L3.36593 17.6905ZM1.7919 19.2308C1.97892 20.0154 2.29172 20.6555 2.81846 21.182L3.52545 20.4748C3.15971 20.1092 2.91985 19.65 2.76465 18.9989L1.7919 19.2308ZM21.4721 16.977C21.3947 18.8446 21.1426 19.8135 20.4811 20.4748L21.1881 21.182C22.1441 20.2264 22.3933 18.8981 22.4712 17.0185L21.4721 16.977ZM22.4998 12.318C22.4815 11.3291 22.4146 10.6183 22.1171 9.95062L21.2037 10.3576C21.4131 10.8276 21.4819 11.3623 21.5 12.3365L22.4998 12.318ZM21.998 13.2732C22.3144 13.0624 22.507 12.704 22.4998 12.318L21.5 12.3365C21.5007 12.3757 21.481 12.4161 21.4434 12.4411L21.998 13.2732ZM2.81136 16.8584C2.56808 17.0205 2.34844 17.1659 2.1792 17.3111C1.99714 17.4672 1.84495 17.6458 1.74902 17.8898L2.6797 18.2557C2.69862 18.2076 2.73044 18.1557 2.83023 18.0701C2.94284 17.9735 3.10292 17.8658 3.36593 17.6905L2.81136 16.8584ZM2.76465 18.9989C2.63541 18.4568 2.63324 18.3739 2.6797 18.2557L1.74902 17.8898C1.56578 18.356 1.68278 18.7731 1.7919 19.2308L2.76465 18.9989ZM21.998 17.2732C21.7699 17.4252 21.4605 17.2561 21.4721 16.977L22.4712 17.0185C22.4937 16.4756 21.8913 16.1426 21.4434 16.4411L21.998 17.2732ZM1.5 11.9397C1.5 12.0873 1.49915 12.207 1.5092 12.2974L2.50307 12.1867C2.50085 12.1669 2.5 12.1218 2.5 11.9397H1.5ZM3.43756 12.4411C3.28601 12.5421 3.24798 12.5664 3.23018 12.5756L3.68937 13.4639C3.77012 13.4222 3.86929 13.3551 3.99213 13.2732L3.43756 12.4411ZM1.5092 12.2974C1.6256 13.3433 2.75473 13.947 3.68937 13.4639L3.23019 12.5756C2.91823 12.7368 2.54184 12.5351 2.50307 12.1867L1.5092 12.2974Z" fill="#424242"/>
</svg>
