<svg width="24" height="24" viewBox="0 0 24 24" fill="none" xmlns="http://www.w3.org/2000/svg">
<path d="M15.3929 4.05365L15.0585 4.42529V4.42529L15.3929 4.05365ZM19.3517 7.61654L19.0172 7.98819V7.98819L19.3517 7.61654ZM21.654 10.1541L21.1972 10.3575L21.1973 10.3575L21.654 10.1541ZM3.17157 20.8284L3.52513 20.4749H3.52513L3.17157 20.8284ZM20.8284 20.8284L20.4749 20.4749V20.4749L20.8284 20.8284ZM7.40277 13.6884L7.51311 14.1761H7.51311L7.40277 13.6884ZM8.04764 13.1989L7.61091 12.9554L7.61091 12.9554L8.04764 13.1989ZM6.68403 15.429L6.30403 15.7539V15.7539L6.68403 15.429ZM7.21186 13.7316L7.10152 13.2439H7.10152L7.21186 13.7316ZM7.0605 16.3733L7.55816 16.4215V16.4215L7.0605 16.3733ZM6.81418 15.5812L7.19418 15.2562V15.2562L6.81418 15.5812ZM8.4227 17.6254L8.63182 18.0795H8.63182L8.4227 17.6254ZM7.04082 16.5763L6.54315 16.5281V16.5281L7.04082 16.5763ZM9.39855 17.5431L9.60767 17.0889H9.60767L9.39855 17.5431ZM8.60145 17.5431L8.39233 17.0889H8.39233L8.60145 17.5431ZM9 17.4075V16.9075V17.4075ZM10.9592 16.5763L10.4615 16.6245V16.6245L10.9592 16.5763ZM9.5773 17.6254L9.36818 18.0795H9.36818L9.5773 17.6254ZM11.1858 15.5812L10.8058 15.2562L10.8058 15.2562L11.1858 15.5812ZM10.9395 16.3733L11.4372 16.325V16.325L10.9395 16.3733ZM10.7881 13.7316L10.8985 13.2439H10.8985L10.7881 13.7316ZM11.316 15.429L11.696 15.7539L11.696 15.7539L11.316 15.429ZM9.95236 13.1989L10.3891 12.9554L10.3891 12.9554L9.95236 13.1989ZM10.5972 13.6884L10.4869 14.1761H10.4869L10.5972 13.6884ZM9.85405 13.0225L9.41732 13.266L9.41732 13.266L9.85405 13.0225ZM8.14595 13.0225L8.58268 13.266L8.58268 13.266L8.14595 13.0225ZM14 21.5H10V22.5H14V21.5ZM2.5 14V10H1.5V14H2.5ZM21.5 13.5629V14H22.5V13.5629H21.5ZM15.0585 4.42529L19.0172 7.98819L19.6862 7.2449L15.7274 3.682L15.0585 4.42529ZM22.5 13.5629C22.5 11.8525 22.5101 10.8473 22.1107 9.95068L21.1973 10.3575C21.4899 11.0146 21.5 11.7641 21.5 13.5629H22.5ZM19.0172 7.98819C20.3543 9.19151 20.9046 9.70039 21.1972 10.3575L22.1108 9.95068C21.7114 9.05401 20.9576 8.38912 19.6862 7.2449L19.0172 7.98819ZM10.0298 2.5C11.5927 2.5 12.2448 2.50772 12.8301 2.73233L13.1884 1.79871C12.3898 1.49228 11.5169 1.5 10.0298 1.5V2.5ZM15.7274 3.682C14.6275 2.69205 13.9868 2.10511 13.1884 1.79871L12.8301 2.73233C13.4155 2.95697 13.9027 3.3851 15.0585 4.42529L15.7274 3.682ZM10 21.5C8.10025 21.5 6.72573 21.4989 5.67754 21.358C4.64373 21.219 4.00253 20.9523 3.52513 20.4749L2.81802 21.182C3.51219 21.8762 4.39959 22.1952 5.54429 22.3491C6.6746 22.5011 8.12852 22.5 10 22.5V21.5ZM1.5 14C1.5 15.8715 1.49894 17.3254 1.65091 18.4557C1.80481 19.6004 2.12385 20.4878 2.81802 21.182L3.52513 20.4749C3.04772 19.9975 2.78098 19.3563 2.64199 18.3225C2.50106 17.2743 2.5 15.8998 2.5 14H1.5ZM14 22.5C15.8715 22.5 17.3254 22.5011 18.4557 22.3491C19.6004 22.1952 20.4878 21.8762 21.182 21.182L20.4749 20.4749C19.9975 20.9523 19.3563 21.219 18.3225 21.358C17.2743 21.4989 15.8998 21.5 14 21.5V22.5ZM21.5 14C21.5 15.8998 21.4989 17.2743 21.358 18.3225C21.219 19.3563 20.9523 19.9975 20.4749 20.4749L21.182 21.182C21.8762 20.4878 22.1952 19.6004 22.3491 18.4557C22.5011 17.3254 22.5 15.8715 22.5 14H21.5ZM2.5 10C2.5 8.10025 2.50106 6.72573 2.64199 5.67754C2.78098 4.64373 3.04772 4.00253 3.52513 3.52513L2.81802 2.81802C2.12385 3.51219 1.80481 4.39959 1.65091 5.54429C1.49894 6.6746 1.5 8.12852 1.5 10H2.5ZM10.0298 1.5C8.14833 1.5 6.68714 1.49895 5.55203 1.65087C4.40292 1.80466 3.51258 2.12346 2.81802 2.81802L3.52513 3.52513C4.00214 3.04811 4.64535 2.78113 5.68469 2.64203C6.73803 2.50105 8.12015 2.5 10.0298 2.5V1.5ZM12.5 2.5V5H13.5V2.5H12.5ZM18 10.5H22V9.5H18V10.5ZM12.5 5C12.5 6.16438 12.4989 7.08796 12.596 7.8098C12.695 8.54603 12.9042 9.14682 13.3787 9.62132L14.0858 8.91421C13.8281 8.65648 13.6711 8.3019 13.5871 7.67656C13.5011 7.03683 13.5 6.19265 13.5 5H12.5ZM18 9.5C16.8074 9.5 15.9632 9.49894 15.3234 9.41293C14.6981 9.32885 14.3435 9.17195 14.0858 8.91421L13.3787 9.62132C13.8532 10.0958 14.454 10.305 15.1902 10.404C15.912 10.5011 16.8356 10.5 18 10.5V9.5ZM9.41732 13.266L9.51563 13.4423L10.3891 12.9554L10.2908 12.7791L9.41732 13.266ZM10.4869 14.1761L10.6778 14.2193L10.8985 13.2439L10.7076 13.2007L10.4869 14.1761ZM10.936 15.104L10.8058 15.2562L11.5658 15.9061L11.696 15.7539L10.936 15.104ZM10.4418 16.4215L10.4615 16.6245L11.4569 16.5281L11.4372 16.325L10.4418 16.4215ZM9.78641 17.1712L9.60767 17.0889L9.18944 17.9972L9.36818 18.0795L9.78641 17.1712ZM8.39233 17.0889L8.21359 17.1712L8.63182 18.0795L8.81056 17.9972L8.39233 17.0889ZM7.53849 16.6245L7.55816 16.4215L6.56283 16.325L6.54315 16.5281L7.53849 16.6245ZM7.19418 15.2562L7.06403 15.104L6.30403 15.7539L6.43418 15.9061L7.19418 15.2562ZM7.3222 14.2193L7.51311 14.1761L7.29243 13.2007L7.10152 13.2439L7.3222 14.2193ZM8.48437 13.4423L8.58268 13.266L7.70922 12.7791L7.61091 12.9554L8.48437 13.4423ZM7.51311 14.1761C7.67982 14.1384 7.91338 14.0962 8.10381 13.9516L7.49916 13.1551C7.51785 13.1409 7.52843 13.1409 7.49882 13.1502C7.46021 13.1624 7.40509 13.1753 7.29243 13.2007L7.51311 14.1761ZM7.61091 12.9554C7.5532 13.0589 7.52347 13.1116 7.4993 13.1479C7.47968 13.1774 7.48119 13.1687 7.49916 13.1551L8.10381 13.9516C8.29109 13.8094 8.39812 13.597 8.48437 13.4423L7.61091 12.9554ZM7.06403 15.104C6.80177 14.7973 6.6428 14.6094 6.5522 14.4655C6.46501 14.327 6.516 14.3442 6.49467 14.4128L5.53978 14.1158C5.43067 14.4667 5.56354 14.7721 5.70593 14.9983C5.84491 15.2191 6.06324 15.4724 6.30403 15.7539L7.06403 15.104ZM7.10152 13.2439C6.74956 13.3236 6.42725 13.395 6.18742 13.4895C5.93818 13.5878 5.65058 13.7595 5.53978 14.1158L6.49467 14.4128C6.47165 14.4868 6.41242 14.4757 6.55407 14.4199C6.70514 14.3604 6.93626 14.3066 7.3222 14.2193L7.10152 13.2439ZM7.55816 16.4215C7.57574 16.2402 7.60731 16.0091 7.53821 15.7868L6.58331 16.0838C6.57801 16.0667 6.58164 16.0624 6.58089 16.0994C6.57998 16.1445 6.57435 16.2062 6.56283 16.325L7.55816 16.4215ZM6.43418 15.9061C6.5106 15.9955 6.54907 16.041 6.57452 16.0761C6.59473 16.1039 6.58876 16.1013 6.58331 16.0838L7.53821 15.7868C7.46844 15.5625 7.31013 15.3918 7.19418 15.2562L6.43418 15.9061ZM8.21359 17.1712C7.85219 17.3376 7.63468 17.4362 7.47899 17.4808C7.32972 17.5235 7.3841 17.4731 7.45887 17.5298L6.85422 18.3263C7.1588 18.5575 7.5008 18.5148 7.75444 18.4421C8.00165 18.3712 8.30232 18.2312 8.63182 18.0795L8.21359 17.1712ZM6.54315 16.5281C6.50668 16.9045 6.47281 17.2413 6.48448 17.5033C6.49619 17.7662 6.55781 18.1013 6.85422 18.3263L7.45887 17.5298C7.52547 17.5804 7.4912 17.632 7.48349 17.4588C7.47573 17.2848 7.4989 17.033 7.53849 16.6245L6.54315 16.5281ZM9.60767 17.0889C9.45327 17.0178 9.23934 16.9075 9 16.9075V17.9075C8.97376 17.9075 8.96384 17.9003 8.99366 17.9112C9.03191 17.9251 9.08399 17.9487 9.18944 17.9972L9.60767 17.0889ZM8.81056 17.9972C8.91601 17.9487 8.96809 17.9251 9.00634 17.9112C9.03616 17.9003 9.02624 17.9075 9 17.9075V16.9075C8.76066 16.9075 8.54673 17.0178 8.39233 17.0889L8.81056 17.9972ZM10.4615 16.6245C10.5011 17.033 10.5243 17.2848 10.5165 17.4588C10.5088 17.632 10.4745 17.5804 10.5411 17.5298L11.1458 18.3263C11.4422 18.1013 11.5038 17.7662 11.5155 17.5033C11.5272 17.2413 11.4933 16.9045 11.4569 16.5281L10.4615 16.6245ZM9.36818 18.0795C9.69768 18.2312 9.99835 18.3712 10.2456 18.4421C10.4992 18.5148 10.8412 18.5575 11.1458 18.3263L10.5411 17.5298C10.6159 17.4731 10.6703 17.5235 10.521 17.4808C10.3653 17.4362 10.1478 17.3376 9.78641 17.1712L9.36818 18.0795ZM10.8058 15.2562C10.6899 15.3918 10.5316 15.5625 10.4618 15.7868L11.4167 16.0838C11.4112 16.1013 11.4053 16.1039 11.4255 16.0761C11.4509 16.041 11.4894 15.9955 11.5658 15.9061L10.8058 15.2562ZM11.4372 16.325C11.4257 16.2062 11.42 16.1445 11.4191 16.0994C11.4184 16.0624 11.422 16.0667 11.4167 16.0838L10.4618 15.7868C10.3927 16.0091 10.4243 16.2402 10.4418 16.4215L11.4372 16.325ZM10.6778 14.2193C11.0637 14.3066 11.2949 14.3604 11.4459 14.4199C11.5876 14.4757 11.5284 14.4868 11.5053 14.4128L12.4602 14.1158C12.3494 13.7595 12.0618 13.5878 11.8126 13.4895C11.5728 13.395 11.2504 13.3236 10.8985 13.2439L10.6778 14.2193ZM11.696 15.7539C11.9368 15.4724 12.1551 15.2191 12.2941 14.9983C12.4365 14.7721 12.5693 14.4667 12.4602 14.1158L11.5053 14.4128C11.484 14.3442 11.535 14.327 11.4478 14.4655C11.3572 14.6094 11.1982 14.7973 10.936 15.104L11.696 15.7539ZM9.51563 13.4423C9.60188 13.597 9.70891 13.8094 9.89619 13.9516L10.5008 13.1551C10.5188 13.1687 10.5203 13.1774 10.5007 13.1479C10.4765 13.1116 10.4468 13.0589 10.3891 12.9554L9.51563 13.4423ZM10.7076 13.2007C10.5949 13.1753 10.5398 13.1624 10.5012 13.1502C10.4716 13.1409 10.4822 13.1409 10.5008 13.1551L9.89619 13.9516C10.0866 14.0962 10.3202 14.1384 10.4869 14.1761L10.7076 13.2007ZM10.2908 12.7791C10.1089 12.4528 9.94605 12.158 9.78802 11.9516C9.62974 11.7449 9.38181 11.5 9 11.5V12.5C8.90225 12.5 8.89135 12.4255 8.99408 12.5596C9.09706 12.6941 9.21918 12.9105 9.41732 13.266L10.2908 12.7791ZM8.58268 13.266C8.78082 12.9105 8.90294 12.6941 9.00592 12.5596C9.10865 12.4255 9.09775 12.5 9 12.5V11.5C8.61819 11.5 8.37026 11.7449 8.21198 11.9516C8.05395 12.158 7.89107 12.4528 7.70922 12.7791L8.58268 13.266Z" fill="#424242"/>
</svg>
