<svg width="24" height="24" viewBox="0 0 24 24" fill="none" xmlns="http://www.w3.org/2000/svg">
<path d="M13 11.0018C13 14.5188 11.991 17.8008 10.247 20.5728M6.807 18.5328L6.861 18.4428C8.26352 16.2147 9.00523 13.6345 9 11.0018C9 9.94093 9.42143 8.92352 10.1716 8.17337C10.9217 7.42322 11.9391 7.0018 13 7.0018C14.0609 7.0018 15.0783 7.42322 15.8284 8.17337C16.5786 8.92352 17 9.94093 17 11.0018C17 12.0188 16.93 13.0208 16.797 14.0018M14.679 20.8458C15.2962 19.6143 15.7958 18.3272 16.171 17.0018M20.01 18.1338C20.655 15.8678 21 13.4748 21 11.0018C21.0003 9.59735 20.6309 8.21757 19.9289 7.00117C19.2269 5.78476 18.217 4.77461 17.0008 4.07225C15.7846 3.36989 14.4049 3.00008 13.0004 3C11.596 2.99992 10.2163 3.36957 9 4.0718M4 15.3658C4.64 14.0468 5 12.5658 5 11.0018C5 9.5448 5.39 8.1788 6.07 7.0018" stroke="#424242" stroke-linecap="round" stroke-linejoin="round"/>
</svg>
