<svg width="24" height="24" viewBox="0 0 24 24" fill="none" xmlns="http://www.w3.org/2000/svg">
<path d="M18.1136 2V1.5V2ZM5.88638 2V2.5V2ZM4.25891 5.16248L3.85204 5.4531V5.4531L4.25891 5.16248ZM5.38837 6.74372L4.9815 7.03433L4.9815 7.03434L5.38837 6.74372ZM7.82957 8V7.5V8ZM16.1704 8V8.5V8ZM18.6116 6.74372L18.2048 6.4531V6.4531L18.6116 6.74372ZM19.7411 5.16247L20.148 5.45309V5.45309L19.7411 5.16247ZM17.6287 7.83375L17.8575 8.27834H17.8575L17.6287 7.83375ZM6.37127 7.83375L6.60006 7.38917H6.60006L6.37127 7.83375ZM18.1136 22V21.5V21.5V22ZM5.88638 22V22.5V22.5V22ZM4.25891 18.8375L3.85204 18.5469H3.85204L4.25891 18.8375ZM5.38837 17.2563L4.9815 16.9657L4.9815 16.9657L5.38837 17.2563ZM7.82957 16V16.5V16.5V16ZM16.1704 16V15.5V15.5V16ZM18.6116 17.2563L18.2048 17.5469V17.5469L18.6116 17.2563ZM19.7411 18.8375L19.3342 19.1281V19.1281L19.7411 18.8375ZM17.6287 16.1662L17.8575 15.7217H17.8575L17.6287 16.1662ZM6.37127 16.1662L6.14248 15.7217H6.14248L6.37127 16.1662ZM10 11.5C9.72386 11.5 9.5 11.7239 9.5 12C9.5 12.2761 9.72386 12.5 10 12.5V11.5ZM14 12.5C14.2761 12.5 14.5 12.2761 14.5 12C14.5 11.7239 14.2761 11.5 14 11.5V12.5ZM18 11.5C17.7239 11.5 17.5 11.7239 17.5 12C17.5 12.2761 17.7239 12.5 18 12.5V11.5ZM22 12.5C22.2761 12.5 22.5 12.2761 22.5 12C22.5 11.7239 22.2761 11.5 22 11.5V12.5ZM2 11.5C1.72386 11.5 1.5 11.7239 1.5 12C1.5 12.2761 1.72386 12.5 2 12.5V11.5ZM6 12.5C6.27614 12.5 6.5 12.2761 6.5 12C6.5 11.7239 6.27614 11.5 6 11.5V12.5ZM18.1136 1.5L5.88638 1.5V2.5L18.1136 2.5V1.5ZM3.85204 5.4531L4.9815 7.03433L5.79523 6.4531L4.66578 4.87186L3.85204 5.4531ZM7.82957 8.5L16.1704 8.5V7.5L7.82957 7.5V8.5ZM19.0185 7.03434L20.148 5.45309L19.3342 4.87186L18.2048 6.4531L19.0185 7.03434ZM16.1704 8.5C16.54 8.5 16.85 8.50047 17.1073 8.47718C17.3746 8.45299 17.6191 8.40102 17.8575 8.27834L17.3999 7.38917C17.3153 7.43274 17.2091 7.46388 17.0172 7.48126C16.8153 7.49953 16.5577 7.5 16.1704 7.5V8.5ZM18.2048 6.4531C17.9797 6.76822 17.8296 6.97755 17.6974 7.13123C17.5717 7.2773 17.4846 7.3456 17.3999 7.38917L17.8575 8.27834C18.0959 8.15566 18.2804 7.98687 18.4554 7.78345C18.6239 7.58763 18.8037 7.33507 19.0185 7.03434L18.2048 6.4531ZM4.9815 7.03434C5.19631 7.33507 5.37613 7.58763 5.54462 7.78345C5.71965 7.98686 5.90408 8.15566 6.14248 8.27834L6.60006 7.38917C6.5154 7.3456 6.42834 7.2773 6.30265 7.13122C6.17042 6.97755 6.02032 6.76822 5.79523 6.4531L4.9815 7.03434ZM7.82957 7.5C7.44231 7.5 7.18473 7.49953 6.98282 7.48126C6.7909 7.46388 6.68472 7.43274 6.60006 7.38917L6.14248 8.27834C6.38087 8.40102 6.62542 8.45299 6.89268 8.47718C7.14995 8.50047 7.46 8.5 7.82957 8.5V7.5ZM5.88638 1.5C5.05232 1.5 4.36935 1.49868 3.86373 1.57314C3.35986 1.64734 2.86373 1.81949 2.60944 2.31363L3.49861 2.77121C3.52345 2.72293 3.59243 2.62387 4.00942 2.56247C4.42465 2.50132 5.01829 2.5 5.88638 2.5V1.5ZM4.66578 4.87186C4.16122 4.16547 3.81724 3.68163 3.62565 3.3082C3.43324 2.93319 3.47376 2.81949 3.49861 2.77121L2.60944 2.31363C2.35515 2.80776 2.50343 3.31155 2.73592 3.76469C2.96922 4.21941 3.36726 4.77439 3.85204 5.4531L4.66578 4.87186ZM18.1136 2.5C18.9817 2.5 19.5754 2.50132 19.9906 2.56247C20.4076 2.62387 20.4765 2.72293 20.5014 2.77121L21.3906 2.31363C21.1363 1.81949 20.6401 1.64734 20.1363 1.57314C19.6306 1.49868 18.9477 1.5 18.1136 1.5V2.5ZM20.148 5.45309C20.6327 4.77439 21.0308 4.21941 21.2641 3.76469C21.4966 3.31155 21.6449 2.80776 21.3906 2.31363L20.5014 2.77121C20.5262 2.81949 20.5668 2.93319 20.3744 3.3082C20.1828 3.68163 19.8388 4.16547 19.3342 4.87186L20.148 5.45309ZM18.1136 21.5H5.88638V22.5H18.1136V21.5ZM4.66578 19.1281L5.79523 17.5469L4.9815 16.9657L3.85204 18.5469L4.66578 19.1281ZM7.82957 16.5H16.1704V15.5H7.82957V16.5ZM18.2048 17.5469L19.3342 19.1281L20.148 18.5469L19.0185 16.9657L18.2048 17.5469ZM16.1704 16.5C16.5577 16.5 16.8153 16.5005 17.0172 16.5187C17.2091 16.5361 17.3153 16.5673 17.3999 16.6108L17.8575 15.7217C17.6191 15.599 17.3746 15.547 17.1073 15.5228C16.85 15.4995 16.54 15.5 16.1704 15.5V16.5ZM19.0185 16.9657C18.8037 16.6649 18.6239 16.4124 18.4554 16.2165C18.2804 16.0131 18.0959 15.8443 17.8575 15.7217L17.3999 16.6108C17.4846 16.6544 17.5717 16.7227 17.6974 16.8688C17.8296 17.0225 17.9797 17.2318 18.2048 17.5469L19.0185 16.9657ZM5.79523 17.5469C6.02032 17.2318 6.17042 17.0224 6.30265 16.8688C6.42834 16.7227 6.5154 16.6544 6.60006 16.6108L6.14248 15.7217C5.90409 15.8443 5.71965 16.0131 5.54462 16.2165C5.37614 16.4124 5.19631 16.6649 4.9815 16.9657L5.79523 17.5469ZM7.82957 15.5C7.46 15.5 7.14995 15.4995 6.89268 15.5228C6.62542 15.547 6.38087 15.599 6.14248 15.7217L6.60006 16.6108C6.68472 16.5673 6.7909 16.5361 6.98282 16.5187C7.18473 16.5005 7.44231 16.5 7.82957 16.5V15.5ZM5.88638 21.5C5.0183 21.5 4.42465 21.4987 4.00942 21.4375C3.59243 21.3761 3.52345 21.2771 3.49861 21.2288L2.60944 21.6864C2.86373 22.1805 3.35986 22.3527 3.86373 22.4269C4.36935 22.5013 5.05232 22.5 5.88638 22.5V21.5ZM3.85204 18.5469C3.36726 19.2256 2.96922 19.7806 2.73592 20.2353C2.50343 20.6885 2.35515 21.1922 2.60944 21.6864L3.49861 21.2288C3.47376 21.1805 3.43324 21.0668 3.62565 20.6918C3.81724 20.3184 4.16122 19.8345 4.66578 19.1281L3.85204 18.5469ZM18.1136 22.5C18.9477 22.5 19.6306 22.5013 20.1363 22.4269C20.6401 22.3527 21.1363 22.1805 21.3906 21.6864L20.5014 21.2288C20.4765 21.2771 20.4076 21.3761 19.9906 21.4375C19.5754 21.4987 18.9817 21.5 18.1136 21.5V22.5ZM19.3342 19.1281C19.8388 19.8345 20.1828 20.3184 20.3744 20.6918C20.5668 21.0668 20.5262 21.1805 20.5014 21.2288L21.3906 21.6864C21.6449 21.1922 21.4966 20.6885 21.2641 20.2353C21.0308 19.7806 20.6327 19.2256 20.148 18.5469L19.3342 19.1281ZM10 12.5H14V11.5H10V12.5ZM18 12.5H22V11.5H18V12.5ZM2 12.5H6V11.5H2V12.5Z" fill="#424242"/>
</svg>
