<svg width="24" height="24" viewBox="0 0 24 24" fill="none" xmlns="http://www.w3.org/2000/svg">
<path d="M5.16248 19.7411L5.4531 20.148V20.148L5.16248 19.7411ZM6.74372 18.6116L7.03433 19.0185H7.03433L6.74372 18.6116ZM6.74371 5.38837L7.03433 4.9815L7.03433 4.9815L6.74371 5.38837ZM5.16247 4.25891L4.87185 4.66578V4.66578L5.16247 4.25891ZM7.83375 6.37127L8.27834 6.14248V6.14248L7.83375 6.37127ZM7.83375 17.6287L7.38917 17.3999V17.3999L7.83375 17.6287ZM2.54242 3.05402L2.31363 2.60944L2.31363 2.60944L2.54242 3.05402ZM18.8375 19.7411L19.1281 19.3342V19.3342L18.8375 19.7411ZM17.2563 18.6116L16.9657 19.0185V19.0185L17.2563 18.6116ZM17.2563 5.38837L16.9657 4.9815V4.9815L17.2563 5.38837ZM18.8375 4.25891L19.1281 4.66578V4.66578L18.8375 4.25891ZM16.1662 6.37127L15.7217 6.14248V6.14248L16.1662 6.37127ZM16.1662 17.6287L16.6108 17.3999V17.3999L16.1662 17.6287ZM21.4576 3.05402L21.6864 2.60944V2.60944L21.4576 3.05402ZM11.5 14C11.5 14.2761 11.7239 14.5 12 14.5C12.2761 14.5 12.5 14.2761 12.5 14H11.5ZM12.5 10C12.5 9.72386 12.2761 9.5 12 9.5C11.7239 9.5 11.5 9.72386 11.5 10H12.5ZM11.5 6C11.5 6.27614 11.7239 6.5 12 6.5C12.2761 6.5 12.5 6.27614 12.5 6H11.5ZM12.5 2C12.5 1.72386 12.2761 1.5 12 1.5C11.7239 1.5 11.5 1.72386 11.5 2H12.5ZM11.5 22C11.5 22.2761 11.7239 22.5 12 22.5C12.2761 22.5 12.5 22.2761 12.5 22H11.5ZM12.5 18C12.5 17.7239 12.2761 17.5 12 17.5C11.7239 17.5 11.5 17.7239 11.5 18H12.5ZM1.5 5.88638V18.1136H2.5V5.88638H1.5ZM5.4531 20.148L7.03433 19.0185L6.4531 18.2048L4.87186 19.3342L5.4531 20.148ZM8.5 16.1704V7.82957H7.5V16.1704H8.5ZM7.03433 4.9815L5.45309 3.85204L4.87185 4.66578L6.4531 5.79523L7.03433 4.9815ZM8.5 7.82957C8.5 7.46 8.50047 7.14996 8.47718 6.89268C8.45299 6.62542 8.40102 6.38087 8.27834 6.14248L7.38917 6.60006C7.43274 6.68472 7.46388 6.7909 7.48125 6.98282C7.49953 7.18473 7.5 7.44231 7.5 7.82957H8.5ZM6.4531 5.79523C6.76822 6.02033 6.97755 6.17042 7.13122 6.30265C7.2773 6.42834 7.3456 6.5154 7.38917 6.60006L8.27834 6.14248C8.15565 5.90409 7.98686 5.71965 7.78345 5.54462C7.58763 5.37614 7.33507 5.19631 7.03433 4.9815L6.4531 5.79523ZM7.03433 19.0185C7.33507 18.8037 7.58763 18.6239 7.78345 18.4554C7.98686 18.2804 8.15565 18.0959 8.27834 17.8575L7.38917 17.3999C7.3456 17.4846 7.2773 17.5717 7.13122 17.6974C6.97755 17.8296 6.76822 17.9797 6.4531 18.2048L7.03433 19.0185ZM7.5 16.1704C7.5 16.5577 7.49953 16.8153 7.48125 17.0172C7.46388 17.2091 7.43274 17.3153 7.38917 17.3999L8.27834 17.8575C8.40102 17.6191 8.45299 17.3746 8.47718 17.1073C8.50047 16.85 8.5 16.54 8.5 16.1704H7.5ZM1.5 18.1136C1.5 18.9477 1.49868 19.6306 1.57314 20.1363C1.64734 20.6401 1.81949 21.1363 2.31363 21.3906L2.77121 20.5014C2.72293 20.4765 2.62387 20.4076 2.56247 19.9906C2.50132 19.5754 2.5 18.9817 2.5 18.1136H1.5ZM4.87186 19.3342C4.16547 19.8388 3.68163 20.1828 3.3082 20.3744C2.93319 20.5668 2.81949 20.5262 2.77121 20.5014L2.31363 21.3906C2.80776 21.6449 3.31155 21.4966 3.76469 21.2641C4.21941 21.0308 4.77439 20.6327 5.4531 20.148L4.87186 19.3342ZM2.5 5.88638C2.5 5.0183 2.50132 4.42465 2.56247 4.00942C2.62387 3.59243 2.72293 3.52345 2.77121 3.49861L2.31363 2.60944C1.81949 2.86373 1.64734 3.35986 1.57314 3.86373C1.49868 4.36935 1.5 5.05232 1.5 5.88638H2.5ZM5.45309 3.85204C4.77439 3.36725 4.21941 2.96922 3.76469 2.73592C3.31155 2.50343 2.80776 2.35515 2.31363 2.60944L2.77121 3.49861C2.81949 3.47376 2.93319 3.43324 3.3082 3.62565C3.68163 3.81724 4.16547 4.16121 4.87185 4.66578L5.45309 3.85204ZM21.5 5.88638V18.1136H22.5V5.88638H21.5ZM19.1281 19.3342L17.5469 18.2048L16.9657 19.0185L18.5469 20.148L19.1281 19.3342ZM16.5 16.1704V7.82957H15.5V16.1704H16.5ZM17.5469 5.79523L19.1281 4.66578L18.5469 3.85204L16.9657 4.9815L17.5469 5.79523ZM16.5 7.82957C16.5 7.44231 16.5005 7.18473 16.5187 6.98282C16.5361 6.7909 16.5673 6.68472 16.6108 6.60006L15.7217 6.14248C15.599 6.38087 15.547 6.62542 15.5228 6.89268C15.4995 7.14996 15.5 7.46 15.5 7.82957H16.5ZM16.9657 4.9815C16.6649 5.19631 16.4124 5.37614 16.2165 5.54462C16.0131 5.71965 15.8443 5.90409 15.7217 6.14248L16.6108 6.60006C16.6544 6.5154 16.7227 6.42834 16.8688 6.30265C17.0224 6.17042 17.2318 6.02033 17.5469 5.79523L16.9657 4.9815ZM17.5469 18.2048C17.2318 17.9797 17.0224 17.8296 16.8688 17.6974C16.7227 17.5717 16.6544 17.4846 16.6108 17.3999L15.7217 17.8575C15.8443 18.0959 16.0131 18.2804 16.2165 18.4554C16.4124 18.6239 16.6649 18.8037 16.9657 19.0185L17.5469 18.2048ZM15.5 16.1704C15.5 16.54 15.4995 16.85 15.5228 17.1073C15.547 17.3746 15.599 17.6191 15.7217 17.8575L16.6108 17.3999C16.5673 17.3153 16.5361 17.2091 16.5187 17.0172C16.5005 16.8153 16.5 16.5577 16.5 16.1704H15.5ZM21.5 18.1136C21.5 18.9817 21.4987 19.5754 21.4375 19.9906C21.3761 20.4076 21.2771 20.4765 21.2288 20.5014L21.6864 21.3906C22.1805 21.1363 22.3527 20.6401 22.4269 20.1363C22.5013 19.6306 22.5 18.9477 22.5 18.1136H21.5ZM18.5469 20.148C19.2256 20.6327 19.7806 21.0308 20.2353 21.2641C20.6885 21.4966 21.1922 21.6449 21.6864 21.3906L21.2288 20.5014C21.1805 20.5262 21.0668 20.5668 20.6918 20.3744C20.3184 20.1828 19.8345 19.8388 19.1281 19.3342L18.5469 20.148ZM22.5 5.88638C22.5 5.05232 22.5013 4.36935 22.4269 3.86373C22.3527 3.35986 22.1805 2.86373 21.6864 2.60944L21.2288 3.49861C21.2771 3.52345 21.3761 3.59243 21.4375 4.00942C21.4987 4.42465 21.5 5.0183 21.5 5.88638H22.5ZM19.1281 4.66578C19.8345 4.16121 20.3184 3.81724 20.6918 3.62565C21.0668 3.43324 21.1805 3.47376 21.2288 3.49861L21.6864 2.60944C21.1922 2.35515 20.6885 2.50343 20.2353 2.73592C19.7806 2.96922 19.2256 3.36726 18.5469 3.85204L19.1281 4.66578ZM12.5 14V10H11.5V14H12.5ZM12.5 6V2H11.5V6H12.5ZM12.5 22V18H11.5V22H12.5Z" fill="#424242"/>
</svg>
