<svg width="24" height="24" viewBox="0 0 24 24" fill="none" xmlns="http://www.w3.org/2000/svg">
<path d="M16.5 8C16.7761 8 17 7.77614 17 7.5C17 7.22386 16.7761 7 16.5 7V8ZM13.5 7C13.2239 7 13 7.22386 13 7.5C13 7.77614 13.2239 8 13.5 8V7ZM11.3 3.3L10.9598 3.6664L10.9598 3.6664L11.3 3.3ZM12.4985 4.27203L12.728 3.82781V3.82781L12.4985 4.27203ZM13.0922 4.5004L13.2202 4.01705L13.0922 4.5004ZM9.0009 2.01129L8.95765 2.50942L9.0009 2.01129ZM10.9148 2.94234L11.255 2.57594L11.255 2.57594L10.9148 2.94234ZM10.5272 2.59833L10.8321 2.20212L10.5272 2.59833ZM18.4614 5.24599L18.8205 4.89812V4.89812L18.4614 5.24599ZM18.3043 5.10015L17.9838 5.48392L18.3043 5.10015ZM5.04855 4.11795L4.55856 4.01839L5.04855 4.11795ZM7.28087 2.04508L7.19459 1.55258L7.28087 2.04508ZM22 20.5C22.2761 20.5 22.5 20.2761 22.5 20C22.5 19.7239 22.2761 19.5 22 19.5V20.5ZM2 19.5C1.72386 19.5 1.5 19.7239 1.5 20C1.5 20.2761 1.72386 20.5 2 20.5V19.5ZM12.5 15C12.5 14.7239 12.2761 14.5 12 14.5C11.7239 14.5 11.5 14.7239 11.5 15H12.5ZM16.5 7H13.5V8H16.5V7ZM18.5 8.36864V9.8H19.5V8.36864H18.5ZM13.4 14.5H10.6V15.5H13.4V14.5ZM5.5 9.8V5.21734H4.5V9.8H5.5ZM10.5746 3.30873L10.9598 3.6664L11.6402 2.9336L11.255 2.57594L10.5746 3.30873ZM14.6799 5.1H14.9415V4.1H14.6799V5.1ZM10.9598 3.6664C11.5113 4.1785 11.8525 4.50107 12.269 4.71625L12.728 3.82781C12.4607 3.6897 12.2308 3.48201 11.6402 2.9336L10.9598 3.6664ZM14.6799 4.1C13.8459 4.1 13.5189 4.09612 13.2202 4.01705L12.9643 4.98376C13.4182 5.10388 13.8987 5.1 14.6799 5.1V4.1ZM12.269 4.71625C12.4895 4.83017 12.7228 4.91984 12.9643 4.98376L13.2202 4.01705C13.0482 3.97154 12.8831 3.90795 12.728 3.82781L12.269 4.71625ZM8.46482 2.5C8.74413 2.5 8.85419 2.50044 8.95765 2.50942L9.04415 1.51317C8.88748 1.49956 8.72686 1.5 8.46482 1.5V2.5ZM11.255 2.57594C11.0703 2.4044 10.9553 2.29689 10.8321 2.20212L10.2222 2.99455C10.3002 3.0546 10.3765 3.12482 10.5746 3.30873L11.255 2.57594ZM8.95765 2.50942C9.4261 2.5501 9.86656 2.72081 10.2222 2.99455L10.8321 2.20212C10.3206 1.80834 9.69722 1.56988 9.04415 1.51317L8.95765 2.50942ZM10.6 14.5C9.26692 14.5 8.31386 14.4991 7.58958 14.4087C6.87612 14.3196 6.46096 14.1512 6.16033 13.8721L5.47988 14.6049C5.99934 15.0872 6.6542 15.2996 7.4657 15.401C8.26638 15.5009 9.29322 15.5 10.6 15.5V14.5ZM4.5 9.8C4.5 11.0105 4.49877 11.9724 4.60767 12.7246C4.71924 13.4951 4.95515 14.1176 5.47988 14.6049L6.16033 13.8721C5.86495 13.5978 5.69081 13.2267 5.59735 12.5813C5.50123 11.9174 5.5 11.0408 5.5 9.8H4.5ZM18.5 9.8C18.5 11.0408 18.4988 11.9174 18.4026 12.5813C18.3092 13.2267 18.135 13.5978 17.8397 13.8721L18.5201 14.6049C19.0448 14.1176 19.2808 13.4951 19.3923 12.7246C19.5012 11.9724 19.5 11.0105 19.5 9.8H18.5ZM13.4 15.5C14.7068 15.5 15.7336 15.5009 16.5343 15.401C17.3458 15.2996 18.0007 15.0872 18.5201 14.6049L17.8397 13.8721C17.539 14.1512 17.1239 14.3196 16.4104 14.4087C15.6861 14.4991 14.7331 14.5 13.4 14.5V15.5ZM19.5 8.36864C19.5 7.52721 19.5011 6.8457 19.4282 6.30712C19.3531 5.75264 19.1921 5.28178 18.8205 4.89812L18.1022 5.59386C18.2692 5.76629 18.3776 6.00123 18.4372 6.44129C18.4989 6.89725 18.5 7.49902 18.5 8.36864H19.5ZM14.9415 5.1C15.875 5.1 16.5316 5.1008 17.0313 5.15915C17.5216 5.21638 17.7907 5.32266 17.9838 5.48392L18.6248 4.71639C18.219 4.37749 17.7281 4.23369 17.1473 4.16589C16.576 4.0992 15.8506 4.1 14.9415 4.1V5.1ZM18.8205 4.89812C18.7586 4.83423 18.6933 4.77358 18.6248 4.71639L17.9838 5.48392C18.0255 5.51873 18.065 5.55544 18.1022 5.59386L18.8205 4.89812ZM5.5 5.21734C5.5 4.61929 5.50252 4.39475 5.53853 4.21751L4.55856 4.01839C4.49748 4.31899 4.5 4.66809 4.5 5.21734H5.5ZM8.46482 1.5C7.86823 1.5 7.5055 1.49811 7.19459 1.55258L7.36715 2.53758C7.57083 2.50189 7.82587 2.5 8.46482 2.5V1.5ZM5.53853 4.21751C5.70757 3.38557 6.41807 2.70385 7.36715 2.53758L7.19459 1.55258C5.87836 1.78318 4.81692 2.74683 4.55856 4.01839L5.53853 4.21751ZM22 19.5H14V20.5H22V19.5ZM10 19.5H2V20.5H10V19.5ZM12.5 18V15H11.5V18H12.5ZM13.5 20C13.5 20.8284 12.8284 21.5 12 21.5V22.5C13.3807 22.5 14.5 21.3807 14.5 20H13.5ZM12 21.5C11.1716 21.5 10.5 20.8284 10.5 20H9.5C9.5 21.3807 10.6193 22.5 12 22.5V21.5ZM10.5 20C10.5 19.1716 11.1716 18.5 12 18.5V17.5C10.6193 17.5 9.5 18.6193 9.5 20H10.5ZM12 18.5C12.8284 18.5 13.5 19.1716 13.5 20H14.5C14.5 18.6193 13.3807 17.5 12 17.5V18.5Z" fill="#424242"/>
</svg>
