<svg width="24" height="24" viewBox="0 0 24 24" fill="none" xmlns="http://www.w3.org/2000/svg">
<path d="M10.7598 3.08731L11.1018 2.72254L11.1018 2.72254L10.7598 3.08731ZM11.2 3.5L11.542 3.13523V3.13523L11.2 3.5ZM12.5697 4.62157L12.8009 4.17825V4.17825L12.5697 4.62157ZM13.2483 4.88508L13.3774 4.40203V4.40203L13.2483 4.88508ZM8.57246 2.01303L8.61612 1.51494V1.51494L8.57246 2.01303ZM10.3168 2.69039L10.0099 3.08518V3.08518L10.3168 2.69039ZM19.3844 5.74537L19.0236 6.09152V6.09152L19.3844 5.74537ZM19.2049 5.5771L19.5272 5.19485L19.5272 5.19485L19.2049 5.5771ZM4.05548 4.44379L3.56531 4.34514L4.05548 4.44379ZM6.60671 2.05201L6.51962 1.55966V1.55966L6.60671 2.05201ZM10 16.5C9.72386 16.5 9.5 16.7239 9.5 17C9.5 17.2761 9.72386 17.5 10 17.5V16.5ZM5.10183 21.5101L5.38225 21.0962L5.10183 21.5101ZM3.47674 17.4839L3.9692 17.3974L3.47674 17.4839ZM4.58706 21.0655L4.95553 20.7275V20.7275L4.58706 21.0655ZM20.5233 17.4839L20.0308 17.3974L20.5233 17.4839ZM19.4129 21.0655L19.0445 20.7275V20.7275L19.4129 21.0655ZM18.8982 21.5101L18.6178 21.0962L18.8982 21.5101ZM20.1209 11.7634L19.7814 12.1304V12.1304L20.1209 11.7634ZM20.6609 12.433L21.0912 12.1783V12.1783L20.6609 12.433ZM3.87908 11.7634L4.21863 12.1304V12.1304L3.87908 11.7634ZM3.33908 12.433L2.90879 12.1783H2.90879L3.33908 12.433ZM19.5 9.34843V11.5H20.5V9.34843H19.5ZM4.5 11.5V5.71231H3.5V11.5H4.5ZM10.4178 3.45208L10.858 3.86477L11.542 3.13523L11.1018 2.72254L10.4178 3.45208ZM15.0627 5.5H15.3617V4.5H15.0627V5.5ZM10.858 3.86477C11.491 4.45822 11.873 4.8221 12.3385 5.06489L12.8009 4.17825C12.4849 4.0134 12.2142 3.76545 11.542 3.13523L10.858 3.86477ZM15.0627 4.5C14.1131 4.5 13.7292 4.49605 13.3774 4.40203L13.1192 5.36813C13.6275 5.50395 14.1664 5.5 15.0627 5.5V4.5ZM12.3385 5.06489C12.5859 5.19397 12.8479 5.29564 13.1192 5.36813L13.3774 4.40203C13.1762 4.34827 12.9828 4.2731 12.8009 4.17825L12.3385 5.06489ZM7.9598 2.5C8.27786 2.5 8.40701 2.50044 8.52879 2.51112L8.61612 1.51494C8.44061 1.49956 8.26042 1.5 7.9598 1.5V2.5ZM11.1018 2.72254C10.8897 2.52372 10.761 2.4024 10.6236 2.29559L10.0099 3.08518C10.1024 3.15702 10.1924 3.24078 10.4178 3.45208L11.1018 2.72254ZM8.52879 2.51112C9.07637 2.55913 9.59235 2.76065 10.0099 3.08518L10.6236 2.29559C10.0501 1.84991 9.35027 1.5793 8.61612 1.51494L8.52879 2.51112ZM20.5 9.34843C20.5 8.37526 20.5011 7.59541 20.4186 6.98071C20.3341 6.35057 20.1545 5.8258 19.7452 5.39922L19.0236 6.09152C19.2299 6.30658 19.3581 6.59621 19.4275 7.11362C19.4989 7.64647 19.5 8.34733 19.5 9.34843H20.5ZM15.3617 5.5C16.4269 5.5 17.1819 5.50082 17.7578 5.5687C18.3239 5.63542 18.6468 5.76052 18.8826 5.95935L19.5272 5.19485C19.0786 4.81658 18.5329 4.65313 17.8749 4.57557C17.2268 4.49918 16.4023 4.5 15.3617 4.5V5.5ZM19.7452 5.39923C19.6763 5.32741 19.6036 5.2592 19.5272 5.19485L18.8826 5.95935C18.9322 6.00116 18.9793 6.04529 19.0236 6.09152L19.7452 5.39923ZM4.5 5.71231C4.5 5.02623 4.50247 4.75698 4.54565 4.54244L3.56531 4.34514C3.49753 4.68195 3.5 5.07459 3.5 5.71231H4.5ZM7.9598 1.5C7.27515 1.5 6.86778 1.49807 6.51962 1.55966L6.6938 2.54437C6.93374 2.50193 7.2324 2.5 7.9598 2.5V1.5ZM4.54565 4.54244C4.74609 3.5465 5.58537 2.74043 6.6938 2.54437L6.51962 1.55966C5.03912 1.82153 3.85334 2.91397 3.56531 4.34514L4.54565 4.54244ZM14 16.5H10V17.5H14V16.5ZM8.7053 11.5H15.2947V10.5H8.7053V11.5ZM15.2947 21.5H8.70531V22.5H15.2947V21.5ZM8.70531 21.5C7.73437 21.5 7.04566 21.4993 6.50805 21.4416C5.98146 21.3851 5.65056 21.2779 5.38225 21.0962L4.82141 21.9241C5.27627 22.2322 5.78701 22.37 6.40131 22.4359C7.0046 22.5007 7.75604 22.5 8.70531 22.5V21.5ZM2.98428 17.5704C3.15427 18.538 3.28759 19.3003 3.45623 19.9C3.62736 20.5086 3.84719 20.9986 4.2186 21.4035L4.95553 20.7275C4.73186 20.4837 4.56827 20.1605 4.41889 19.6293C4.26701 19.0892 4.14271 18.385 3.9692 17.3974L2.98428 17.5704ZM5.38225 21.0962C5.22708 20.991 5.08383 20.8674 4.95553 20.7275L4.2186 21.4035C4.39907 21.6002 4.60132 21.775 4.82141 21.9241L5.38225 21.0962ZM20.0308 17.3974C19.8573 18.385 19.733 19.0892 19.5811 19.6293C19.4317 20.1605 19.2681 20.4837 19.0445 20.7275L19.7814 21.4035C20.1528 20.9986 20.3726 20.5086 20.5438 19.9C20.7124 19.3003 20.8457 18.538 21.0157 17.5704L20.0308 17.3974ZM15.2947 22.5C16.244 22.5 16.9954 22.5007 17.5987 22.4359C18.213 22.37 18.7237 22.2322 19.1786 21.9241L18.6178 21.0962C18.3494 21.2779 18.0185 21.3851 17.492 21.4416C16.9543 21.4993 16.2656 21.5 15.2947 21.5V22.5ZM19.0445 20.7275C18.9162 20.8674 18.7729 20.991 18.6178 21.0962L19.1786 21.9241C19.3987 21.775 19.6009 21.6002 19.7814 21.4035L19.0445 20.7275ZM15.2947 11.5C16.6415 11.5 17.6051 11.5009 18.3372 11.5916C19.0589 11.6811 19.4786 11.8502 19.7814 12.1304L20.4605 11.3963C19.9382 10.9131 19.2784 10.7006 18.4602 10.5992C17.6522 10.4991 16.6153 10.5 15.2947 10.5V11.5ZM21.0157 17.5704C21.2522 16.2244 21.4378 15.1723 21.4869 14.3355C21.5365 13.4908 21.4534 12.7904 21.0912 12.1783L20.2306 12.6877C20.4465 13.0524 20.5331 13.5193 20.4887 14.2769C20.4437 15.0423 20.2715 16.0273 20.0308 17.3974L21.0157 17.5704ZM19.7814 12.1304C19.9561 12.292 20.1075 12.4797 20.2306 12.6877L21.0912 12.1783C20.9193 11.8879 20.7069 11.6243 20.4605 11.3963L19.7814 12.1304ZM8.7053 10.5C7.38467 10.5 6.34777 10.4991 5.53985 10.5992C4.72158 10.7006 4.06184 10.9131 3.53953 11.3963L4.21863 12.1304C4.52144 11.8502 4.94111 11.6811 5.66283 11.5916C6.39489 11.5009 7.35854 11.5 8.7053 11.5V10.5ZM3.9692 17.3974C3.72851 16.0273 3.55627 15.0423 3.51134 14.2769C3.46686 13.5193 3.55352 13.0524 3.76936 12.6877L2.90879 12.1783C2.54655 12.7904 2.46346 13.4908 2.51305 14.3355C2.56218 15.1723 2.74781 16.2244 2.98428 17.5704L3.9692 17.3974ZM3.53953 11.3963C3.2931 11.6243 3.08072 11.8879 2.90879 12.1783L3.76936 12.6877C3.89248 12.4797 4.04394 12.292 4.21863 12.1304L3.53953 11.3963Z" fill="#424242"/>
</svg>
