<svg width="24" height="24" viewBox="0 0 24 24" fill="none" xmlns="http://www.w3.org/2000/svg">
<path d="M12.7121 5.49543L12.9552 5.0585L12.7121 5.49543ZM13.5604 5.84678L13.4233 6.32762L13.5604 5.84678ZM7.71557 2.01738L7.66902 2.5152L7.71557 2.01738ZM9.89594 2.92051L10.215 2.53558V2.53558L9.89594 2.92051ZM21.2305 6.99383L21.6023 6.65947L21.2305 6.99383ZM21.0062 6.76946L21.3405 6.39771L21.0062 6.76946ZM2.06935 5.25839L1.57802 5.16568V5.16568L2.06935 5.25839ZM5.25839 2.06935L5.16568 1.57802V1.57802L5.25839 2.06935ZM12.7968 11.41C12.5344 11.496 12.3913 11.7784 12.4772 12.0408C12.5631 12.3032 12.8456 12.4463 13.108 12.3604L12.7968 11.41ZM10.0465 12.8533L9.95698 13.3453H9.95698L10.0465 12.8533ZM10.4031 13.5159C10.6378 13.6614 10.9461 13.5892 11.0916 13.3545C11.2371 13.1198 11.1649 12.8116 10.9302 12.6661L10.4031 13.5159ZM21.5 11.7979V14H22.5V11.7979H21.5ZM14 21.5H10V22.5H14V21.5ZM2.5 14V6.94975H1.5V14H2.5ZM10.0962 3.8033L10.6464 4.35355L11.3536 3.64645L10.8033 3.09619L10.0962 3.8033ZM15.8284 6.5H16.2021V5.5H15.8284V6.5ZM10.6464 4.35355C11.4423 5.14938 11.9053 5.61873 12.469 5.93235L12.9552 5.0585C12.542 4.82861 12.1893 4.48218 11.3536 3.64645L10.6464 4.35355ZM15.8284 5.5C14.6465 5.5 14.1521 5.49555 13.6974 5.36593L13.4233 6.32762C14.0437 6.50445 14.703 6.5 15.8284 6.5V5.5ZM12.469 5.93235C12.7709 6.1003 13.0911 6.23293 13.4233 6.32762L13.6974 5.36593C13.439 5.29228 13.19 5.18912 12.9552 5.0585L12.469 5.93235ZM6.94975 2.5C7.34572 2.5 7.51184 2.50051 7.66902 2.5152L7.76212 1.51955C7.54769 1.49949 7.32713 1.5 6.94975 1.5V2.5ZM10.8033 3.09619C10.5364 2.82934 10.3809 2.67303 10.215 2.53558L9.57684 3.30545C9.69838 3.4062 9.8162 3.52331 10.0962 3.8033L10.8033 3.09619ZM7.66902 2.5152C8.36996 2.58075 9.03485 2.85616 9.57684 3.30545L10.215 2.53558C9.5182 1.95791 8.66334 1.60382 7.76212 1.51955L7.66902 2.5152ZM10 21.5C8.10025 21.5 6.72573 21.4989 5.67754 21.358C4.64373 21.219 4.00253 20.9523 3.52513 20.4749L2.81802 21.182C3.51219 21.8762 4.39959 22.1952 5.54429 22.3491C6.6746 22.5011 8.12852 22.5 10 22.5V21.5ZM1.5 14C1.5 15.8715 1.49894 17.3254 1.65091 18.4557C1.80481 19.6004 2.12385 20.4878 2.81802 21.182L3.52513 20.4749C3.04772 19.9975 2.78098 19.3563 2.64199 18.3225C2.50106 17.2743 2.5 15.8998 2.5 14H1.5ZM21.5 14C21.5 15.8998 21.4989 17.2743 21.358 18.3225C21.219 19.3563 20.9523 19.9975 20.4749 20.4749L21.182 21.182C21.8762 20.4878 22.1952 19.6004 22.3491 18.4557C22.5011 17.3254 22.5 15.8715 22.5 14H21.5ZM14 22.5C15.8715 22.5 17.3254 22.5011 18.4557 22.3491C19.6004 22.1952 20.4878 21.8762 21.182 21.182L20.4749 20.4749C19.9975 20.9523 19.3563 21.219 18.3225 21.358C17.2743 21.4989 15.8998 21.5 14 21.5V22.5ZM22.5 11.7979C22.5 10.4948 22.5009 9.47065 22.3999 8.66718C22.2973 7.85122 22.0827 7.19362 21.6023 6.65947L20.8588 7.32819C21.1478 7.64956 21.3179 8.07781 21.4077 8.79192C21.4991 9.51852 21.5 10.4686 21.5 11.7979H22.5ZM16.2021 6.5C17.5314 6.5 18.4815 6.50093 19.2081 6.59228C19.9222 6.68206 20.3504 6.85218 20.6718 7.14122L21.3405 6.39771C20.8064 5.91729 20.1488 5.70267 19.3328 5.60009C18.5294 5.49907 17.5052 5.5 16.2021 5.5V6.5ZM21.6023 6.65947C21.5197 6.56766 21.4323 6.48028 21.3405 6.39771L20.6718 7.14122C20.7374 7.2002 20.7998 7.26262 20.8588 7.32819L21.6023 6.65947ZM2.5 6.94975C2.5 6.04448 2.50219 5.66112 2.56068 5.35109L1.57802 5.16568C1.49781 5.59078 1.5 6.08996 1.5 6.94975H2.5ZM6.94975 1.5C6.08996 1.5 5.59078 1.49781 5.16568 1.57802L5.35109 2.56068C5.66112 2.50219 6.04448 2.5 6.94975 2.5V1.5ZM2.56068 5.35109C2.82781 3.93527 3.93527 2.82781 5.35109 2.56068L5.16568 1.57802C3.34535 1.92147 1.92147 3.34535 1.57802 5.16568L2.56068 5.35109ZM15.5 13.8824C15.5 14.7405 14.7372 15.5 13.7143 15.5V16.5C15.2161 16.5 16.5 15.3633 16.5 13.8824H15.5ZM10.4048 12.1176C10.4048 11.2595 11.1676 10.5 12.1905 10.5V9.5C10.6886 9.5 9.40476 10.6367 9.40476 12.1176H10.4048ZM9.71429 15.5C9.00701 15.5 8.5 14.9775 8.5 14.4118H7.5C7.5 15.6003 8.52801 16.5 9.71429 16.5V15.5ZM8.5 14.4118C8.5 13.846 9.00701 13.3235 9.71429 13.3235V12.3235C8.52801 12.3235 7.5 13.2232 7.5 14.4118H8.5ZM13.108 12.3604C13.2964 12.2987 13.5003 12.2647 13.7143 12.2647V11.2647C13.394 11.2647 13.085 11.3156 12.7968 11.41L13.108 12.3604ZM9.71429 13.3235C9.79784 13.3235 9.87896 13.3311 9.95698 13.3453L10.136 12.3614C9.99904 12.3365 9.85803 12.3235 9.71429 12.3235V13.3235ZM10.5107 12.6677C10.4421 12.4961 10.4048 12.3111 10.4048 12.1176H9.40476C9.40476 12.4415 9.46755 12.7523 9.58221 13.039L10.5107 12.6677ZM9.95698 13.3453C10.1209 13.3751 10.2718 13.4344 10.4031 13.5159L10.9302 12.6661C10.6925 12.5186 10.4236 12.4137 10.136 12.3614L9.95698 13.3453ZM12.1905 10.5C13.1407 10.5 13.8718 11.1599 13.9656 11.9403L14.9585 11.8209C14.7979 10.4854 13.592 9.5 12.1905 9.5V10.5ZM13.7143 12.2647C13.9241 12.2647 14.1242 12.2974 14.3094 12.3567L14.6147 11.4045C14.3313 11.3136 14.0283 11.2647 13.7143 11.2647V12.2647ZM14.3094 12.3567C15.0243 12.5859 15.5 13.1996 15.5 13.8824H16.5C16.5 12.7113 15.6901 11.7492 14.6147 11.4045L14.3094 12.3567ZM9.71429 16.5H13.7143V15.5H9.71429V16.5Z" fill="#424242"/>
</svg>
