<svg width="24" height="24" viewBox="0 0 24 24" fill="none" xmlns="http://www.w3.org/2000/svg">
<path d="M19 3.93726L18.6471 4.29143V4.29143L19 3.93726ZM4.82498 3.93726L4.47205 3.58309V3.58309L4.82498 3.93726ZM3.98779 6L3.4914 5.94006L3.48743 5.97296L3.48783 6.0061L3.98779 6ZM19.8372 6H20.3372V5.96992L20.3336 5.94006L19.8372 6ZM1.67075 14.1238C1.46293 14.3057 1.44187 14.6216 1.62371 14.8294C1.80555 15.0372 2.12143 15.0583 2.32925 14.8764L1.67075 14.1238ZM3.75159 12.9675L4.08084 13.3438H4.08084L3.75159 12.9675ZM6.89249 13.0721L7.24604 12.7185V12.7185L6.89249 13.0721ZM11.1822 17.3618L11.5358 17.0083V17.0083L11.1822 17.3618ZM13.7464 17.5839L14.0339 17.993V17.993L13.7464 17.5839ZM14.0446 17.3744L13.7571 16.9653V16.9653L14.0446 17.3744ZM17.7765 17.599L17.442 17.9706V17.9706L17.7765 17.599ZM20.6655 20.8718C20.8708 21.0565 21.1869 21.0399 21.3716 20.8346C21.5564 20.6294 21.5397 20.3132 21.3345 20.1285L20.6655 20.8718ZM10 6.5H14V5.5H10V6.5ZM14 21.5H10V22.5H14V21.5ZM10 21.5C8.10025 21.5 6.72573 21.4989 5.67754 21.358C4.64373 21.219 4.00253 20.9523 3.52513 20.4749L2.81802 21.182C3.51219 21.8762 4.39959 22.1952 5.54429 22.3491C6.6746 22.5011 8.12852 22.5 10 22.5V21.5ZM1.5 14C1.5 15.8715 1.49894 17.3254 1.65091 18.4557C1.80481 19.6004 2.12385 20.4878 2.81802 21.182L3.52513 20.4749C3.04772 19.9975 2.78098 19.3563 2.64199 18.3225C2.50106 17.2743 2.5 15.8998 2.5 14H1.5ZM21.5 14C21.5 15.8998 21.4989 17.2743 21.358 18.3225C21.219 19.3563 20.9523 19.9975 20.4749 20.4749L21.182 21.182C21.8762 20.4878 22.1952 19.6004 22.3491 18.4557C22.5011 17.3254 22.5 15.8715 22.5 14H21.5ZM14 22.5C15.8715 22.5 17.3254 22.5011 18.4557 22.3491C19.6004 22.1952 20.4878 21.8762 21.182 21.182L20.4749 20.4749C19.9975 20.9523 19.3563 21.219 18.3225 21.358C17.2743 21.4989 15.8998 21.5 14 21.5V22.5ZM14 6.5C15.8998 6.5 17.2743 6.50106 18.3225 6.64199C19.3563 6.78098 19.9975 7.04772 20.4749 7.52513L21.182 6.81802C20.4878 6.12385 19.6004 5.80481 18.4557 5.65091C17.3254 5.49894 15.8715 5.5 14 5.5V6.5ZM22.5 14C22.5 12.1285 22.5011 10.6746 22.3491 9.54429C22.1952 8.39959 21.8762 7.51219 21.182 6.81802L20.4749 7.52513C20.9523 8.00253 21.219 8.64372 21.358 9.67754C21.4989 10.7257 21.5 12.1002 21.5 14H22.5ZM10 5.5C8.12852 5.5 6.67461 5.49894 5.54429 5.65091C4.39959 5.80481 3.51219 6.12385 2.81802 6.81802L3.52513 7.52513C4.00253 7.04772 4.64373 6.78098 5.67754 6.64199C6.72573 6.50106 8.10025 6.5 10 6.5V5.5ZM2.5 14C2.5 12.1002 2.50106 10.7257 2.64199 9.67754C2.78098 8.64372 3.04772 8.00253 3.52513 7.52513L2.81802 6.81802C2.12385 7.51219 1.80481 8.39959 1.65091 9.54429C1.49894 10.6746 1.5 12.1285 1.5 14H2.5ZM10.3069 3.5H13.5181V2.5H10.3069V3.5ZM13.5181 3.5C15.046 3.5 16.1418 3.50105 16.9753 3.61273C17.7946 3.7225 18.2853 3.93087 18.6471 4.29143L19.353 3.58309C18.7742 3.00638 18.0377 2.74613 17.1081 2.62159C16.1927 2.49895 15.0178 2.5 13.5181 2.5V3.5ZM10.3069 2.5C8.80719 2.5 7.63229 2.49895 6.71691 2.62159C5.78732 2.74613 5.05077 3.00638 4.47205 3.58309L5.17792 4.29143C5.53974 3.93087 6.03036 3.7225 6.8497 3.61273C7.68324 3.50105 8.77902 3.5 10.3069 3.5V2.5ZM4.48419 6.05994C4.59034 5.18086 4.80134 4.66669 5.17792 4.29143L4.47205 3.58309C3.86855 4.18448 3.6101 4.9571 3.4914 5.94006L4.48419 6.05994ZM20.3336 5.94006C20.2149 4.9571 19.9565 4.18448 19.353 3.58309L18.6471 4.29143C19.0237 4.66669 19.2347 5.18085 19.3408 6.05994L20.3336 5.94006ZM3.48783 6.0061L3.50004 7.0061L4.49996 6.9939L4.48776 5.9939L3.48783 6.0061ZM19.3372 6V7H20.3372V6H19.3372ZM18.5 10.5C18.5 11.0523 18.0523 11.5 17.5 11.5V12.5C18.6046 12.5 19.5 11.6046 19.5 10.5H18.5ZM17.5 11.5C16.9477 11.5 16.5 11.0523 16.5 10.5H15.5C15.5 11.6046 16.3954 12.5 17.5 12.5V11.5ZM16.5 10.5C16.5 9.94772 16.9477 9.5 17.5 9.5V8.5C16.3954 8.5 15.5 9.39543 15.5 10.5H16.5ZM17.5 9.5C18.0523 9.5 18.5 9.94772 18.5 10.5H19.5C19.5 9.39543 18.6046 8.5 17.5 8.5V9.5ZM2.32925 14.8764L4.08084 13.3438L3.42234 12.5912L1.67075 14.1238L2.32925 14.8764ZM6.53893 13.4257L10.8287 17.7154L11.5358 17.0083L7.24604 12.7185L6.53893 13.4257ZM14.0339 17.993L14.3321 17.7834L13.7571 16.9653L13.4589 17.1748L14.0339 17.993ZM17.442 17.9706L20.6655 20.8718L21.3345 20.1285L18.111 17.2273L17.442 17.9706ZM14.3321 17.7834C15.2856 17.1133 16.5757 17.191 17.442 17.9706L18.111 17.2273C16.8982 16.1358 15.0921 16.0271 13.7571 16.9653L14.3321 17.7834ZM10.8287 17.7154C11.6877 18.5744 13.0399 18.6915 14.0339 17.993L13.4589 17.1748C12.8625 17.594 12.0512 17.5237 11.5358 17.0083L10.8287 17.7154ZM4.08084 13.3438C4.79401 12.7198 5.86886 12.7556 6.53893 13.4257L7.24604 12.7185C6.2037 11.6762 4.53171 11.6205 3.42234 12.5912L4.08084 13.3438Z" fill="#424242"/>
</svg>
