<svg width="24" height="24" viewBox="0 0 24 24" fill="none" xmlns="http://www.w3.org/2000/svg">
<path d="M1.67075 12.1238C1.46293 12.3057 1.44187 12.6216 1.62371 12.8294C1.80555 13.0372 2.12143 13.0583 2.32925 12.8764L1.67075 12.1238ZM3.75159 10.9675L4.08084 11.3438H4.08084L3.75159 10.9675ZM6.89249 11.0721L7.24604 10.7185V10.7185L6.89249 11.0721ZM11.1822 15.3618L11.5358 15.0083V15.0083L11.1822 15.3618ZM13.7464 15.5839L14.0339 15.993V15.993L13.7464 15.5839ZM14.0446 15.3744L13.7571 14.9653V14.9653L14.0446 15.3744ZM17.7765 15.599L17.442 15.9706V15.9706L17.7765 15.599ZM20.6655 18.8718C20.8708 19.0565 21.1869 19.0399 21.3716 18.8346C21.5564 18.6294 21.5397 18.3132 21.3345 18.1285L20.6655 18.8718ZM12 21.5C9.62884 21.5 7.90077 21.4989 6.58026 21.3214C5.27414 21.1458 4.44187 20.8058 3.81802 20.182L3.11091 20.8891C3.95153 21.7297 5.03 22.122 6.44702 22.3125C7.84965 22.5011 9.65711 22.5 12 22.5V21.5ZM1.5 12C1.5 14.3429 1.49894 16.1504 1.68752 17.553C1.87803 18.97 2.2703 20.0485 3.11091 20.8891L3.81802 20.182C3.19417 19.5581 2.8542 18.7259 2.6786 17.4197C2.50106 16.0992 2.5 14.3712 2.5 12H1.5ZM21.5 12C21.5 14.3712 21.4989 16.0992 21.3214 17.4197C21.1458 18.7259 20.8058 19.5581 20.182 20.182L20.8891 20.8891C21.7297 20.0485 22.122 18.97 22.3125 17.553C22.5011 16.1504 22.5 14.3429 22.5 12H21.5ZM12 22.5C14.3429 22.5 16.1504 22.5011 17.553 22.3125C18.97 22.122 20.0485 21.7297 20.8891 20.8891L20.182 20.182C19.5581 20.8058 18.7259 21.1458 17.4197 21.3214C16.0992 21.4989 14.3712 21.5 12 21.5V22.5ZM12 2.5C14.3712 2.5 16.0992 2.50106 17.4197 2.6786C18.7259 2.8542 19.5581 3.19417 20.182 3.81802L20.8891 3.11091C20.0485 2.2703 18.97 1.87803 17.553 1.68752C16.1504 1.49894 14.3429 1.5 12 1.5V2.5ZM22.5 12C22.5 9.65711 22.5011 7.84965 22.3125 6.44702C22.122 5.03 21.7297 3.95153 20.8891 3.11091L20.182 3.81802C20.8058 4.44187 21.1458 5.27414 21.3214 6.58026C21.4989 7.90077 21.5 9.62884 21.5 12H22.5ZM12 1.5C9.65711 1.5 7.84965 1.49894 6.44702 1.68752C5.03 1.87803 3.95153 2.2703 3.11091 3.11091L3.81802 3.81802C4.44187 3.19417 5.27414 2.8542 6.58026 2.6786C7.90077 2.50106 9.62884 2.5 12 2.5V1.5ZM2.5 12C2.5 9.62884 2.50106 7.90077 2.6786 6.58026C2.8542 5.27414 3.19417 4.44187 3.81802 3.81802L3.11091 3.11091C2.2703 3.95153 1.87803 5.03 1.68752 6.44702C1.49894 7.84965 1.5 9.65711 1.5 12H2.5ZM17.5 8C17.5 8.82843 16.8284 9.5 16 9.5V10.5C17.3807 10.5 18.5 9.38071 18.5 8H17.5ZM16 9.5C15.1716 9.5 14.5 8.82843 14.5 8H13.5C13.5 9.38071 14.6193 10.5 16 10.5V9.5ZM14.5 8C14.5 7.17157 15.1716 6.5 16 6.5V5.5C14.6193 5.5 13.5 6.61929 13.5 8H14.5ZM16 6.5C16.8284 6.5 17.5 7.17157 17.5 8H18.5C18.5 6.61929 17.3807 5.5 16 5.5V6.5ZM2.32925 12.8764L4.08084 11.3438L3.42234 10.5912L1.67075 12.1238L2.32925 12.8764ZM6.53893 11.4257L10.8287 15.7154L11.5358 15.0083L7.24604 10.7185L6.53893 11.4257ZM14.0339 15.993L14.3321 15.7834L13.7571 14.9653L13.4589 15.1748L14.0339 15.993ZM17.442 15.9706L20.6655 18.8718L21.3345 18.1285L18.111 15.2273L17.442 15.9706ZM14.3321 15.7834C15.2856 15.1133 16.5757 15.191 17.442 15.9706L18.111 15.2273C16.8982 14.1358 15.0921 14.0271 13.7571 14.9653L14.3321 15.7834ZM10.8287 15.7154C11.6877 16.5744 13.0399 16.6915 14.0339 15.993L13.4589 15.1748C12.8625 15.594 12.0512 15.5237 11.5358 15.0083L10.8287 15.7154ZM4.08084 11.3438C4.79401 10.7198 5.86886 10.7556 6.53893 11.4257L7.24604 10.7185C6.2037 9.6762 4.53171 9.62053 3.42234 10.5912L4.08084 11.3438Z" fill="#424242"/>
</svg>
