<svg width="24" height="24" viewBox="0 0 24 24" fill="none" xmlns="http://www.w3.org/2000/svg">
<path d="M22.5 12C22.5 11.7239 22.2761 11.5 22 11.5C21.7239 11.5 21.5 11.7239 21.5 12H22.5ZM12 2.5C12.2761 2.5 12.5 2.27614 12.5 2C12.5 1.72386 12.2761 1.5 12 1.5V2.5ZM1.67075 12.1238C1.46293 12.3057 1.44187 12.6216 1.62371 12.8294C1.80555 13.0372 2.12143 13.0583 2.32925 12.8764L1.67075 12.1238ZM3.75159 10.9675L4.08084 11.3438H4.08084L3.75159 10.9675ZM6.89249 11.0721L7.24604 10.7185V10.7185L6.89249 11.0721ZM11.1822 15.3618L11.5358 15.0083V15.0083L11.1822 15.3618ZM13.7464 15.5839L14.0339 15.993V15.993L13.7464 15.5839ZM14.0446 15.3744L13.7571 14.9653V14.9653L14.0446 15.3744ZM17.7765 15.599L17.442 15.9706V15.9706L17.7765 15.599ZM20.6655 18.8718C20.8708 19.0565 21.1869 19.0399 21.3716 18.8346C21.5564 18.6294 21.5397 18.3132 21.3345 18.1285L20.6655 18.8718ZM18.562 2.9354L18.2085 2.58184V2.58184L18.562 2.9354ZM18.9791 2.5183L19.3327 2.87185V2.87185L18.9791 2.5183ZM21.4817 5.02087L21.8353 5.37443L21.8353 5.37443L21.4817 5.02087ZM13.0245 10.3719L13.4988 10.53V10.53L13.0245 10.3719ZM13.637 8.53437L14.1113 8.69248V8.69248L13.637 8.53437ZM14.7275 6.76995L15.081 7.12351V7.12351L14.7275 6.76995ZM17.23 9.27253L17.5836 9.62608V9.62608L17.23 9.27253ZM15.4656 10.363L15.3075 9.88865L15.3075 9.88865L15.4656 10.363ZM13.6281 10.9755L13.47 10.5012V10.5012L13.6281 10.9755ZM16.6973 9.7738L16.3898 9.37954V9.37954L16.6973 9.7738ZM16.1522 10.1106L15.9371 9.65928V9.65928L16.1522 10.1106ZM13.8894 7.84776L13.438 7.63265L13.438 7.63265L13.8894 7.84776ZM14.2262 7.30273L14.6205 7.61024V7.61024L14.2262 7.30273ZM14.35 10.7349L14.5081 11.2092H14.5081L14.35 10.7349ZM13.2651 9.65L12.7908 9.49189V9.49189L13.2651 9.65ZM12 21.5C9.62884 21.5 7.90077 21.4989 6.58026 21.3214C5.27414 21.1458 4.44187 20.8058 3.81802 20.182L3.11091 20.8891C3.95153 21.7297 5.03 22.122 6.44702 22.3125C7.84965 22.5011 9.65711 22.5 12 22.5V21.5ZM1.5 12C1.5 14.3429 1.49894 16.1504 1.68752 17.553C1.87803 18.97 2.2703 20.0485 3.11091 20.8891L3.81802 20.182C3.19417 19.5581 2.8542 18.7259 2.6786 17.4197C2.50106 16.0992 2.5 14.3712 2.5 12H1.5ZM21.5 12C21.5 14.3712 21.4989 16.0992 21.3214 17.4197C21.1458 18.7259 20.8058 19.5581 20.182 20.182L20.8891 20.8891C21.7297 20.0485 22.122 18.97 22.3125 17.553C22.5011 16.1504 22.5 14.3429 22.5 12H21.5ZM12 22.5C14.3429 22.5 16.1504 22.5011 17.553 22.3125C18.97 22.122 20.0485 21.7297 20.8891 20.8891L20.182 20.182C19.5581 20.8058 18.7259 21.1458 17.4197 21.3214C16.0992 21.4989 14.3712 21.5 12 21.5V22.5ZM12 1.5C9.65711 1.5 7.84965 1.49894 6.44702 1.68752C5.03 1.87803 3.95153 2.2703 3.11091 3.11091L3.81802 3.81802C4.44187 3.19417 5.27414 2.8542 6.58026 2.6786C7.90077 2.50106 9.62884 2.5 12 2.5V1.5ZM2.5 12C2.5 9.62884 2.50106 7.90077 2.6786 6.58026C2.8542 5.27414 3.19417 4.44187 3.81802 3.81802L3.11091 3.11091C2.2703 3.95153 1.87803 5.03 1.68752 6.44702C1.49894 7.84965 1.5 9.65711 1.5 12H2.5ZM2.32925 12.8764L4.08084 11.3438L3.42234 10.5912L1.67075 12.1238L2.32925 12.8764ZM6.53893 11.4257L10.8287 15.7154L11.5358 15.0083L7.24604 10.7185L6.53893 11.4257ZM14.0339 15.993L14.3321 15.7834L13.7571 14.9653L13.4589 15.1748L14.0339 15.993ZM17.442 15.9706L20.6655 18.8718L21.3345 18.1285L18.111 15.2273L17.442 15.9706ZM14.3321 15.7834C15.2856 15.1133 16.5757 15.191 17.442 15.9706L18.111 15.2273C16.8982 14.1358 15.0921 14.0271 13.7571 14.9653L14.3321 15.7834ZM10.8287 15.7154C11.6877 16.5744 13.0399 16.6915 14.0339 15.993L13.4589 15.1748C12.8625 15.594 12.0512 15.5237 11.5358 15.0083L10.8287 15.7154ZM4.08084 11.3438C4.79401 10.7198 5.86886 10.7556 6.53893 11.4257L7.24604 10.7185C6.2037 9.6762 4.53171 9.62053 3.42234 10.5912L4.08084 11.3438ZM18.9156 3.28895L19.3327 2.87185L18.6256 2.16475L18.2085 2.58184L18.9156 3.28895ZM21.1281 4.66732L20.7111 5.08442L21.4182 5.79152L21.8353 5.37443L21.1281 4.66732ZM18.562 2.9354C18.0629 2.96476 18.0629 2.96496 18.0629 2.96517C18.0629 2.96525 18.0629 2.96546 18.0629 2.96561C18.063 2.9659 18.063 2.96621 18.063 2.96654C18.063 2.96719 18.0631 2.9679 18.0631 2.96866C18.0632 2.97018 18.0634 2.97192 18.0635 2.97388C18.0638 2.97781 18.0641 2.9826 18.0646 2.98824C18.0656 2.99951 18.067 3.01417 18.069 3.03195C18.0731 3.06749 18.0797 3.11566 18.0903 3.17444C18.1113 3.29179 18.1484 3.45265 18.2135 3.6402C18.3436 4.01534 18.5877 4.50231 19.0427 4.95733L19.7498 4.25023C19.4227 3.92319 19.2497 3.57598 19.1582 3.31243C19.1125 3.18064 19.0877 3.07105 19.0745 2.99777C19.068 2.96123 19.0644 2.93406 19.0625 2.91807C19.0616 2.91009 19.0612 2.90493 19.061 2.90284C19.0609 2.90179 19.0609 2.90152 19.0609 2.90204C19.0609 2.9023 19.061 2.90276 19.061 2.90343C19.061 2.90376 19.0611 2.90414 19.0611 2.90458C19.0611 2.90479 19.0611 2.90502 19.0611 2.90527C19.0611 2.90539 19.0611 2.90558 19.0611 2.90564C19.0612 2.90584 19.0612 2.90603 18.562 2.9354ZM19.0427 4.95733C19.4977 5.41235 19.9847 5.65638 20.3598 5.78652C20.5473 5.85159 20.7082 5.88868 20.8256 5.90974C20.8843 5.92029 20.9325 5.92688 20.9681 5.93095C20.9858 5.93299 21.0005 5.9344 21.0118 5.93537C21.0174 5.93585 21.0222 5.93622 21.0261 5.9365C21.0281 5.93665 21.0298 5.93677 21.0313 5.93686C21.0321 5.93691 21.0328 5.93696 21.0335 5.937C21.0338 5.93702 21.0341 5.93704 21.0344 5.93706C21.0345 5.93707 21.0348 5.93708 21.0348 5.93708C21.035 5.9371 21.0352 5.93711 21.0646 5.43797C21.094 4.93883 21.0942 4.93884 21.0944 4.93886C21.0944 4.93886 21.0946 4.93887 21.0947 4.93888C21.095 4.93889 21.0952 4.93891 21.0954 4.93892C21.0959 4.93895 21.0962 4.93897 21.0966 4.93899C21.0972 4.93904 21.0977 4.93907 21.098 4.93909C21.0985 4.93913 21.0982 4.93911 21.0972 4.93902C21.0951 4.93884 21.0899 4.93837 21.0819 4.93746C21.0659 4.93562 21.0388 4.93203 21.0022 4.92547C20.9289 4.91232 20.8194 4.88749 20.6876 4.84177C20.424 4.75033 20.0768 4.57726 19.7498 4.25023L19.0427 4.95733ZM15.081 7.12351L18.9156 3.28895L18.2085 2.58184L14.3739 6.4164L15.081 7.12351ZM20.7111 5.08442L16.8765 8.91898L17.5836 9.62608L21.4182 5.79152L20.7111 5.08442ZM16.8765 8.91898C16.6084 9.18703 16.5031 9.29112 16.3898 9.37954L17.0048 10.1681C17.1778 10.0331 17.3322 9.87747 17.5836 9.62608L16.8765 8.91898ZM15.6237 10.8373C15.961 10.7249 16.1693 10.6564 16.3673 10.562L15.9371 9.65928C15.8074 9.72113 15.6672 9.76878 15.3075 9.88865L15.6237 10.8373ZM16.3898 9.37954C16.2495 9.48895 16.0977 9.58275 15.9371 9.65928L16.3673 10.562C16.5935 10.4542 16.8072 10.3221 17.0048 10.1681L16.3898 9.37954ZM13.4933 10.5067C13.4994 10.5128 13.5016 10.5218 13.4988 10.53L12.5502 10.2138C12.4331 10.5649 12.5245 10.952 12.7862 11.2138L13.4933 10.5067ZM14.1113 8.69248C14.2312 8.33285 14.2789 8.19265 14.3407 8.06287L13.438 7.63265C13.3436 7.83072 13.2751 8.03898 13.1627 8.37626L14.1113 8.69248ZM14.3739 6.4164C14.1225 6.66779 13.9669 6.8222 13.8319 6.99521L14.6205 7.61024C14.7089 7.49688 14.813 7.39156 15.081 7.12351L14.3739 6.4164ZM14.3407 8.06287C14.4172 7.90228 14.5111 7.75051 14.6205 7.61024L13.8319 6.99521C13.6779 7.19276 13.5458 7.4065 13.438 7.63265L14.3407 8.06287ZM12.7862 11.2138C13.048 11.4755 13.4351 11.5669 13.7862 11.4498L13.47 10.5012C13.4782 10.4984 13.4872 10.5006 13.4933 10.5067L12.7862 11.2138ZM21.1281 2.87185C21.624 3.36766 21.624 4.17152 21.1281 4.66732L21.8353 5.37443C22.7216 4.4881 22.7216 3.05108 21.8353 2.16475L21.1281 2.87185ZM21.8353 2.16475C20.9489 1.27842 19.5119 1.27842 18.6256 2.16475L19.3327 2.87185C19.8285 2.37605 20.6323 2.37605 21.1281 2.87185L21.8353 2.16475ZM15.3075 9.88865L14.1919 10.2605L14.5081 11.2092L15.6237 10.8373L15.3075 9.88865ZM14.1919 10.2605L13.47 10.5012L13.7862 11.4498L14.5081 11.2092L14.1919 10.2605ZM13.4988 10.53L13.7395 9.80811L12.7908 9.49189L12.5502 10.2138L13.4988 10.53ZM13.7395 9.80811L14.1113 8.69248L13.1627 8.37626L12.7908 9.49189L13.7395 9.80811ZM14.7036 10.3813L13.6187 9.29645L12.9116 10.0036L13.9964 11.0884L14.7036 10.3813Z" fill="#424242"/>
</svg>
