<svg width="24" height="24" viewBox="0 0 24 24" fill="none" xmlns="http://www.w3.org/2000/svg">
<path d="M11 21.5C11 21.7762 11.2239 22 11.5 22C11.7761 22 12 21.7762 12 21.5H11ZM8.5 18C8.22386 18 8 18.2239 8 18.5C8 18.7762 8.22386 19 8.5 19V18ZM14.5 19C14.7761 19 15 18.7762 15 18.5C15 18.2239 14.7761 18 14.5 18V19ZM15.6465 6.14645C15.4512 6.34171 15.4512 6.65829 15.6465 6.85355C15.8417 7.04882 16.1583 7.04882 16.3536 6.85355L15.6465 6.14645ZM19.5 3L20 3C20 2.86739 19.9474 2.74022 19.8536 2.64645C19.7598 2.55268 19.6326 2.5 19.5 2.5L19.5 3ZM15 2.50002C14.7239 2.50002 14.5 2.72388 14.5 3.00002C14.5 3.27616 14.7239 3.50002 15 3.50002L15 2.50002ZM19 7.50001C19 7.77616 19.2239 8.00002 19.5 8.00002C19.7761 8.00002 20 7.77616 20 7.50002L19 7.50001ZM16.5 10.5C16.5 13.2614 14.2614 15.5 11.5 15.5V16.5C14.8137 16.5 17.5 13.8137 17.5 10.5H16.5ZM11.5 15.5C8.73858 15.5 6.5 13.2614 6.5 10.5H5.5C5.5 13.8137 8.18629 16.5 11.5 16.5V15.5ZM6.5 10.5C6.5 7.73859 8.73858 5.50002 11.5 5.50002V4.50002C8.18629 4.50002 5.5 7.18631 5.5 10.5H6.5ZM11.5 5.50002C14.2614 5.50002 16.5 7.73859 16.5 10.5H17.5C17.5 7.18631 14.8137 4.50002 11.5 4.50002V5.50002ZM11 16V18.5H12V16H11ZM11 18.5V21.5H12V18.5H11ZM8.5 19H11.5V18H8.5V19ZM11.5 19H14.5V18H11.5V19ZM16.3536 6.85355L19.8536 3.35355L19.1465 2.64645L15.6465 6.14645L16.3536 6.85355ZM15 3.50002L19.5 3.5L19.5 2.5L15 2.50002L15 3.50002ZM19 3L19 7.50001L20 7.50002L20 3L19 3Z" fill="#424242"/>
</svg>
