<svg width="24" height="24" viewBox="0 0 24 24" fill="none" xmlns="http://www.w3.org/2000/svg">
<path d="M6.375 21.5597L6.71254 21.1908H6.71254L6.375 21.5597ZM5.8919 21.1176L6.22945 20.7487V20.7487L5.8919 21.1176ZM18.1081 21.1176L17.7706 20.7487V20.7487L18.1081 21.1176ZM17.625 21.5597L17.2875 21.1908V21.1908L17.625 21.5597ZM19.3919 21.1176L19.0544 21.4865H19.0544L19.3919 21.1176ZM4.6081 21.1176L4.27055 20.7487H4.27055L4.6081 21.1176ZM18.9606 2.16261L18.7963 2.63484V2.63484L18.9606 2.16261ZM20.842 4.09946L21.3171 3.94349V3.94349L20.842 4.09946ZM5.03939 2.16261L5.2037 2.63484V2.63484L5.03939 2.16261ZM3.15795 4.09946L3.633 4.25543V4.25543L3.15795 4.09946ZM7.24502 16.0597C6.96887 16.0597 6.74502 16.2836 6.74502 16.5597C6.74502 16.8359 6.96887 17.0597 7.24502 17.0597V16.0597ZM16.245 17.0597C16.5212 17.0597 16.745 16.8359 16.745 16.5597C16.745 16.2836 16.5212 16.0597 16.245 16.0597V17.0597ZM8.74658 9.7037H8.24658V9.7037L8.74658 9.7037ZM8.74658 10.4444L8.39442 10.7994L8.74658 11.1488L9.09874 10.7994L8.74658 10.4444ZM9.84533 10.0586C10.0414 9.86415 10.0426 9.54757 9.8481 9.35154C9.65361 9.15551 9.33703 9.15427 9.141 9.34876L9.84533 10.0586ZM8.35216 9.34876C8.15613 9.15427 7.83955 9.15551 7.64506 9.35154C7.45057 9.54757 7.45181 9.86415 7.64784 10.0586L8.35216 9.34876ZM15.2427 8.03964C15.3873 8.27488 15.6953 8.34834 15.9305 8.20372C16.1658 8.0591 16.2392 7.75116 16.0946 7.51592L15.2427 8.03964ZM16.1395 9.55556L16.491 9.19994L16.1395 8.85254L15.788 9.19994L16.1395 9.55556ZM15.0386 9.94069C14.8422 10.1348 14.8403 10.4514 15.0345 10.6478C15.2286 10.8442 15.5452 10.846 15.7416 10.6519L15.0386 9.94069ZM16.5375 10.6519C16.7339 10.846 17.0504 10.8442 17.2446 10.6478C17.4387 10.4514 17.4368 10.1348 17.2404 9.94069L16.5375 10.6519ZM9.61647 11.9596C9.47145 11.7246 9.16338 11.6517 8.92839 11.7967C8.69339 11.9417 8.62045 12.2498 8.76547 12.4848L9.61647 11.9596ZM7.24502 2.5H16.755V1.5H7.24502V2.5ZM20.5 6.37006V20.3742H21.5V6.37006H20.5ZM3.5 20.3742V6.37006H2.5V20.3742H3.5ZM6.71254 21.1908L6.22945 20.7487L5.55436 21.4865L6.03746 21.9285L6.71254 21.1908ZM17.7706 20.7487L17.2875 21.1908L17.9625 21.9285L18.4456 21.4865L17.7706 20.7487ZM19.7294 20.7487C19.1723 20.2389 18.3277 20.2389 17.7706 20.7487L18.4456 21.4865C18.6206 21.3263 18.8794 21.3263 19.0544 21.4865L19.7294 20.7487ZM15.7125 21.1908C14.8799 20.4289 13.6201 20.4289 12.7875 21.1908L13.4625 21.9285C13.9131 21.5163 14.5869 21.5163 15.0375 21.9285L15.7125 21.1908ZM11.2125 21.1908C10.3799 20.4289 9.12011 20.4289 8.28746 21.1908L8.96254 21.9285C9.41306 21.5163 10.0869 21.5163 10.5375 21.9285L11.2125 21.1908ZM6.22945 20.7487C5.6723 20.2389 4.8277 20.2389 4.27055 20.7487L4.94564 21.4865C5.12065 21.3263 5.37935 21.3263 5.55436 21.4865L6.22945 20.7487ZM6.03746 21.9285C6.87011 22.6905 8.12989 22.6905 8.96254 21.9285L8.28746 21.1908C7.83694 21.6031 7.16306 21.6031 6.71254 21.1908L6.03746 21.9285ZM15.0375 21.9285C15.8701 22.6905 17.1299 22.6905 17.9625 21.9285L17.2875 21.1908C16.8369 21.6031 16.1631 21.6031 15.7125 21.1908L15.0375 21.9285ZM10.5375 21.9285C11.3701 22.6905 12.6299 22.6905 13.4625 21.9285L12.7875 21.1908C12.3369 21.6031 11.6631 21.6031 11.2125 21.1908L10.5375 21.9285ZM2.5 20.3742C2.5 21.6371 3.97965 22.3704 4.94564 21.4865L4.27055 20.7487C3.99034 21.0052 3.5 20.8278 3.5 20.3742H2.5ZM20.5 20.3742C20.5 20.8278 20.0097 21.0052 19.7294 20.7487L19.0544 21.4865C20.0203 22.3704 21.5 21.6371 21.5 20.3742H20.5ZM16.755 2.5C17.9553 2.5 18.4289 2.50699 18.7963 2.63484L19.1249 1.69038C18.5577 1.49301 17.8724 1.5 16.755 1.5V2.5ZM21.5 6.37006C21.5 5.2165 21.5063 4.51975 21.3171 3.94349L20.367 4.25543C20.4937 4.64135 20.5 5.13761 20.5 6.37006H21.5ZM18.7963 2.63484C19.5313 2.89057 20.1148 3.4872 20.367 4.25543L21.3171 3.94349C20.9703 2.88718 20.1623 2.05134 19.1249 1.69038L18.7963 2.63484ZM7.24502 1.5C6.12762 1.5 5.44229 1.49301 4.87507 1.69038L5.2037 2.63484C5.57112 2.50699 6.04467 2.5 7.24502 2.5V1.5ZM3.5 6.37006C3.5 5.1376 3.5063 4.64135 3.633 4.25543L2.6829 3.94349C2.4937 4.51975 2.5 5.2165 2.5 6.37006H3.5ZM4.87507 1.69038C3.83771 2.05134 3.02972 2.88718 2.6829 3.94349L3.633 4.25543C3.88524 3.4872 4.46873 2.89057 5.2037 2.63484L4.87507 1.69038ZM7.24502 17.0597H16.245V16.0597H7.24502V17.0597ZM12.4795 5.5C10.1454 5.5 8.24658 7.37837 8.24658 9.7037H9.24658C9.24658 7.93804 10.6903 6.5 12.4795 6.5V5.5ZM8.24658 9.7037L8.24658 10.4444H9.24658L9.24658 9.7037L8.24658 9.7037ZM9.09874 10.7994L9.84533 10.0586L9.141 9.34876L8.39442 10.0895L9.09874 10.7994ZM9.09874 10.0895L8.35216 9.34876L7.64784 10.0586L8.39442 10.7994L9.09874 10.0895ZM16.0946 7.51592C15.3514 6.30699 14.0098 5.5 12.4795 5.5V6.5C13.6505 6.5 14.6752 7.11644 15.2427 8.03964L16.0946 7.51592ZM12.3923 14.5C14.7325 14.5 16.6395 12.6234 16.6395 10.2963H15.6395C15.6395 12.0602 14.1912 13.5 12.3923 13.5V14.5ZM16.6395 10.2963V9.55556H15.6395V10.2963H16.6395ZM15.788 9.19994L15.0386 9.94069L15.7416 10.6519L16.491 9.91117L15.788 9.19994ZM15.788 9.91117L16.5375 10.6519L17.2404 9.94069L16.491 9.19994L15.788 9.91117ZM8.76547 12.4848C9.5116 13.6938 10.8578 14.5 12.3923 14.5V13.5C11.2152 13.5 10.1861 12.8827 9.61647 11.9596L8.76547 12.4848Z" fill="#424242"/>
</svg>
