<svg width="24" height="24" viewBox="0 0 24 24" fill="none" xmlns="http://www.w3.org/2000/svg">
<path d="M13.5 12C13.5 11.7239 13.2761 11.5 13 11.5C12.7239 11.5 12.5 11.7239 12.5 12H13.5ZM17 16.5C17.2761 16.5 17.5 16.2761 17.5 16C17.5 15.7239 17.2761 15.5 17 15.5V16.5ZM11.5 12C11.5 11.7239 11.2761 11.5 11 11.5C10.7239 11.5 10.5 11.7239 10.5 12H11.5ZM7 15.5C6.72386 15.5 6.5 15.7239 6.5 16C6.5 16.2761 6.72386 16.5 7 16.5V15.5ZM22 12V11.5H2V12V12.5H22V12ZM12 2H11.5V22H12H12.5V2H12ZM13 12H12.5C12.5 14.4853 14.5147 16.5 17 16.5V16V15.5C15.067 15.5 13.5 13.933 13.5 12H13ZM11 12H10.5C10.5 13.933 8.933 15.5 7 15.5V16V16.5C9.48528 16.5 11.5 14.4853 11.5 12H11ZM13.9649 12V11.5H12V12V12.5H13.9649V12ZM12 12H12.5V10.035H12H11.5V12H12ZM17.1148 9.54058L16.6298 9.41931C16.3241 10.6421 15.2254 11.5 13.9649 11.5V12V12.5C15.6842 12.5 17.1829 11.3298 17.5999 9.66185L17.1148 9.54058ZM14.4594 6.88512L14.5807 7.37019C15.8182 7.06081 16.9392 8.18178 16.6298 9.41931L17.1148 9.54058L17.5999 9.66185C18.0924 7.69193 16.308 5.90757 14.3381 6.40005L14.4594 6.88512ZM14.4594 6.88512L14.3381 6.40005C12.6701 6.81705 11.5 8.31573 11.5 10.035H12H12.5C12.5 8.7746 13.3578 7.6759 14.5807 7.37019L14.4594 6.88512ZM10.0352 12V12.5H12V12V11.5H10.0352V12ZM6.88524 9.54058L6.40017 9.66185C6.81717 11.3298 8.31585 12.5 10.0352 12.5V12V11.5C8.77472 11.5 7.67602 10.6421 7.37032 9.41931L6.88524 9.54058ZM9.5407 6.88512L9.66197 6.40005C7.69205 5.90757 5.90769 7.69193 6.40017 9.66185L6.88524 9.54058L7.37032 9.41931C7.06093 8.18178 8.1819 7.06081 9.41944 7.37019L9.5407 6.88512ZM9.5407 6.88512L9.41944 7.37019C10.6422 7.67589 11.5 8.77458 11.5 10.035H12H12.5C12.5 8.31575 11.33 6.81705 9.66197 6.40005L9.5407 6.88512ZM12 22V21.5C9.62884 21.5 7.90077 21.4989 6.58026 21.3214C5.27414 21.1458 4.44187 20.8058 3.81802 20.182L3.46447 20.5355L3.11091 20.8891C3.95153 21.7297 5.03 22.122 6.44702 22.3125C7.84965 22.5011 9.65711 22.5 12 22.5V22ZM2 12H1.5C1.5 14.3429 1.49894 16.1504 1.68752 17.553C1.87803 18.97 2.2703 20.0485 3.11091 20.8891L3.46447 20.5355L3.81802 20.182C3.19417 19.5581 2.8542 18.7259 2.6786 17.4197C2.50106 16.0992 2.5 14.3712 2.5 12H2ZM22 12H21.5C21.5 14.3712 21.4989 16.0992 21.3214 17.4197C21.1458 18.7259 20.8058 19.5581 20.182 20.182L20.5355 20.5355L20.8891 20.8891C21.7297 20.0485 22.122 18.97 22.3125 17.553C22.5011 16.1504 22.5 14.3429 22.5 12H22ZM12 22V22.5C14.3429 22.5 16.1504 22.5011 17.553 22.3125C18.97 22.122 20.0485 21.7297 20.8891 20.8891L20.5355 20.5355L20.182 20.182C19.5581 20.8058 18.7259 21.1458 17.4197 21.3214C16.0992 21.4989 14.3712 21.5 12 21.5V22ZM12 2V2.5C14.3712 2.5 16.0992 2.50106 17.4197 2.6786C18.7259 2.8542 19.5581 3.19417 20.182 3.81802L20.5355 3.46447L20.8891 3.11091C20.0485 2.2703 18.97 1.87803 17.553 1.68752C16.1504 1.49894 14.3429 1.5 12 1.5V2ZM22 12H22.5C22.5 9.65711 22.5011 7.84965 22.3125 6.44702C22.122 5.03 21.7297 3.95153 20.8891 3.11091L20.5355 3.46447L20.182 3.81802C20.8058 4.44187 21.1458 5.27414 21.3214 6.58026C21.4989 7.90077 21.5 9.62884 21.5 12H22ZM12 2V1.5C9.65711 1.5 7.84965 1.49894 6.44702 1.68752C5.03 1.87803 3.95153 2.2703 3.11091 3.11091L3.46447 3.46447L3.81802 3.81802C4.44187 3.19417 5.27414 2.8542 6.58026 2.6786C7.90077 2.50106 9.62884 2.5 12 2.5V2ZM2 12H2.5C2.5 9.62884 2.50106 7.90077 2.6786 6.58026C2.8542 5.27414 3.19417 4.44187 3.81802 3.81802L3.46447 3.46447L3.11091 3.11091C2.2703 3.95153 1.87803 5.03 1.68752 6.44702C1.49894 7.84965 1.5 9.65711 1.5 12H2Z" fill="#424242"/>
</svg>
