<svg width="24" height="24" viewBox="0 0 24 24" fill="none" xmlns="http://www.w3.org/2000/svg">
<path d="M10.4118 15.1667C10.6879 15.1667 10.9118 14.9428 10.9118 14.6667C10.9118 14.3905 10.6879 14.1667 10.4118 14.1667V15.1667ZM3 14.1667C2.72386 14.1667 2.5 14.3905 2.5 14.6667C2.5 14.9428 2.72386 15.1667 3 15.1667V14.1667ZM9.35294 9.83333C9.62908 9.83333 9.85294 9.60948 9.85294 9.33333C9.85294 9.05719 9.62908 8.83333 9.35294 8.83333V9.83333ZM3 8.83333C2.72386 8.83333 2.5 9.05719 2.5 9.33333C2.5 9.60948 2.72386 9.83333 3 9.83333V8.83333ZM8.29412 4.5C8.57026 4.5 8.79412 4.27614 8.79412 4C8.79412 3.72386 8.57026 3.5 8.29412 3.5V4.5ZM3 3.5C2.72386 3.5 2.5 3.72386 2.5 4C2.5 4.27614 2.72386 4.5 3 4.5V3.5ZM13.5882 20.5C13.8644 20.5 14.0882 20.2761 14.0882 20C14.0882 19.7239 13.8644 19.5 13.5882 19.5V20.5ZM3 19.5C2.72386 19.5 2.5 19.7239 2.5 20C2.5 20.2761 2.72386 20.5 3 20.5V19.5ZM17.8235 20L17.4687 20.3522C17.5625 20.4468 17.6903 20.5 17.8235 20.5C17.9568 20.5 18.0845 20.4468 18.1784 20.3522L17.8235 20ZM21.3549 17.1522C21.5494 16.9563 21.5482 16.6397 21.3522 16.4451C21.1563 16.2506 20.8397 16.2518 20.6451 16.4478L21.3549 17.1522ZM15.0019 16.4478C14.8074 16.2518 14.4908 16.2506 14.2948 16.4451C14.0988 16.6397 14.0977 16.9563 14.2922 17.1522L15.0019 16.4478ZM17.8235 9.33333H18.3235V9.33333H17.8235ZM12.5294 3.5C12.2533 3.5 12.0294 3.72386 12.0294 4C12.0294 4.27614 12.2533 4.5 12.5294 4.5V3.5ZM10.4118 14.1667H3V15.1667H10.4118V14.1667ZM9.35294 8.83333H3V9.83333H9.35294V8.83333ZM8.29412 3.5H3V4.5H8.29412V3.5ZM13.5882 19.5H3V20.5H13.5882V19.5ZM18.1784 20.3522L21.3549 17.1522L20.6451 16.4478L17.4687 19.6478L18.1784 20.3522ZM18.1784 19.6478L15.0019 16.4478L14.2922 17.1522L17.4687 20.3522L18.1784 19.6478ZM17.3235 9.33333L17.3235 20H18.3235L18.3235 9.33333H17.3235ZM18.3235 9.33333C18.3235 8.36518 18.0393 6.92349 17.1715 5.70927C16.2853 4.46936 14.8116 3.5 12.5294 3.5V4.5C14.4825 4.5 15.6559 5.30842 16.3579 6.29073C17.0783 7.29873 17.3235 8.52372 17.3235 9.33333H18.3235Z" fill="#424242"/>
</svg>
