<svg width="24" height="24" viewBox="0 0 24 24" fill="none" xmlns="http://www.w3.org/2000/svg">
<path d="M18.6464 19.3536C18.8417 19.5488 19.1583 19.5488 19.3536 19.3536C19.5488 19.1583 19.5488 18.8417 19.3536 18.6464L18.6464 19.3536ZM17.8536 17.1464C17.6583 16.9512 17.3417 16.9512 17.1464 17.1464C16.9512 17.3417 16.9512 17.6583 17.1464 17.8536L17.8536 17.1464ZM19.3536 5.35355C19.5488 5.15829 19.5488 4.84171 19.3536 4.64645C19.1583 4.45118 18.8417 4.45118 18.6464 4.64645L19.3536 5.35355ZM17.1464 6.14645C16.9512 6.34171 16.9512 6.65829 17.1464 6.85355C17.3417 7.04882 17.6583 7.04882 17.8536 6.85355L17.1464 6.14645ZM4.64645 18.6464C4.45118 18.8417 4.45118 19.1583 4.64645 19.3536C4.84171 19.5488 5.15829 19.5488 5.35355 19.3536L4.64645 18.6464ZM6.85355 17.8536C7.04882 17.6583 7.04882 17.3417 6.85355 17.1464C6.65829 16.9512 6.34171 16.9512 6.14645 17.1464L6.85355 17.8536ZM5.35355 4.64645C5.15829 4.45118 4.84171 4.45118 4.64645 4.64645C4.45118 4.84171 4.45118 5.15829 4.64645 5.35355L5.35355 4.64645ZM6.14645 6.85355C6.34171 7.04882 6.65829 7.04882 6.85355 6.85355C7.04882 6.65829 7.04882 6.34171 6.85355 6.14645L6.14645 6.85355ZM4 12.5C4.27614 12.5 4.5 12.2761 4.5 12C4.5 11.7239 4.27614 11.5 4 11.5V12.5ZM19.9998 11.5C19.7236 11.5 19.4998 11.7239 19.4998 12C19.4998 12.2761 19.7236 12.5 19.9998 12.5V11.5ZM11.5 4.00021C11.5 4.27636 11.7239 4.50021 12 4.50021C12.2761 4.50021 12.5 4.27636 12.5 4.00021H11.5ZM9.972 9.65412L9.55073 9.3848L9.972 9.65412ZM14.028 9.65412L14.4493 9.3848L14.028 9.65412ZM21.5 12C21.5 17.2467 17.2467 21.5 12 21.5V22.5C17.799 22.5 22.5 17.799 22.5 12H21.5ZM12 21.5C6.75329 21.5 2.5 17.2467 2.5 12H1.5C1.5 17.799 6.20101 22.5 12 22.5V21.5ZM2.5 12C2.5 6.75329 6.75329 2.5 12 2.5V1.5C6.20101 1.5 1.5 6.20101 1.5 12H2.5ZM12 2.5C17.2467 2.5 21.5 6.75329 21.5 12H22.5C22.5 6.20101 17.799 1.5 12 1.5V2.5ZM19.3536 18.6464L17.8536 17.1464L17.1464 17.8536L18.6464 19.3536L19.3536 18.6464ZM18.6464 4.64645L17.1464 6.14645L17.8536 6.85355L19.3536 5.35355L18.6464 4.64645ZM5.35355 19.3536L6.85355 17.8536L6.14645 17.1464L4.64645 18.6464L5.35355 19.3536ZM4.64645 5.35355L6.14645 6.85355L6.85355 6.14645L5.35355 4.64645L4.64645 5.35355ZM2 12.5H4V11.5H2V12.5ZM19.9998 12.5H22V11.5H19.9998V12.5ZM12.5 4.00021V2H11.5V4.00021H12.5ZM14.5 12C14.5 13.3807 13.3807 14.5 12 14.5V15.5C13.933 15.5 15.5 13.933 15.5 12H14.5ZM12 14.5C10.6193 14.5 9.5 13.3807 9.5 12H8.5C8.5 13.933 10.067 15.5 12 15.5V14.5ZM9.5 12C9.5 11.7864 9.57724 11.4848 9.7425 11.1063C9.90406 10.7363 10.1323 10.3316 10.3933 9.92343L9.55073 9.3848C9.27374 9.81806 9.01602 10.2711 8.82606 10.7062C8.63979 11.1327 8.5 11.5834 8.5 12H9.5ZM13.6067 9.92343C13.8677 10.3316 14.0959 10.7363 14.2575 11.1063C14.4228 11.4848 14.5 11.7864 14.5 12H15.5C15.5 11.5834 15.3602 11.1327 15.1739 10.7062C14.984 10.2711 14.7263 9.81806 14.4493 9.3848L13.6067 9.92343ZM10.3933 9.92343C10.8068 9.27655 11.0785 8.856 11.3393 8.5859C11.5708 8.34623 11.7535 8.26672 12 8.26672V7.26672C11.4251 7.26672 10.9961 7.50178 10.62 7.89124C10.2733 8.25027 9.94159 8.77342 9.55073 9.3848L10.3933 9.92343ZM14.4493 9.3848C14.0584 8.77342 13.7267 8.25027 13.38 7.89124C13.0039 7.50178 12.5749 7.26672 12 7.26672V8.26672C12.2465 8.26672 12.4292 8.34623 12.6607 8.5859C12.9215 8.856 13.1932 9.27655 13.6067 9.92343L14.4493 9.3848Z" fill="#424242"/>
</svg>
