<svg width="24" height="24" viewBox="0 0 24 24" fill="none" xmlns="http://www.w3.org/2000/svg">
<path d="M5 20.3884H7.25993C8.27079 20.3884 9.29253 20.4937 10.2763 20.6964C12.0166 21.0549 13.8488 21.0983 15.6069 20.8138C16.4738 20.6734 17.326 20.4589 18.0975 20.0865C18.7939 19.7504 19.6469 19.2766 20.2199 18.7459C20.7921 18.216 21.388 17.3487 21.8109 16.6707C22.1736 16.0894 21.9982 15.3762 21.4245 14.943C20.7873 14.4619 19.8417 14.462 19.2046 14.9433L17.3974 16.3084C16.697 16.8375 15.932 17.3245 15.0206 17.4699C14.911 17.4874 14.7962 17.5033 14.6764 17.5172M14.6764 17.5172C14.6403 17.5214 14.6038 17.5254 14.5668 17.5292M14.6764 17.5172C14.8222 17.486 14.9669 17.396 15.1028 17.2775C15.746 16.7161 15.7866 15.77 15.2285 15.1431C15.0991 14.9977 14.9475 14.8764 14.7791 14.7759C11.9817 13.1074 7.62942 14.3782 5 16.2429M14.6764 17.5172C14.6399 17.525 14.6033 17.5292 14.5668 17.5292M14.5668 17.5292C14.0434 17.5829 13.4312 17.5968 12.7518 17.5326M9.87035 4.25122L9.61581 4.30881C8.63194 4.53142 8.14001 4.64273 8.02297 5.01909C7.90593 5.39546 8.2413 5.78763 8.91204 6.57197L9.08557 6.77489C9.27617 6.99777 9.37147 7.10922 9.41435 7.24709C9.45722 7.38496 9.44281 7.53364 9.41399 7.83102L9.38776 8.10176C9.28635 9.14824 9.23565 9.67148 9.54206 9.90409C9.84847 10.1367 10.3091 9.92462 11.2303 9.50047L11.4686 9.39074C11.7304 9.27021 11.8613 9.20994 12 9.20994C12.1387 9.20994 12.2696 9.2702 12.5314 9.39074L12.7697 9.50047C13.6909 9.92462 14.1515 10.1367 14.4579 9.90409C14.7644 9.67148 14.7136 9.14824 14.6122 8.10176L14.586 7.83102C14.5572 7.53365 14.5428 7.38496 14.5857 7.24709C14.6285 7.10922 14.7238 6.99777 14.9144 6.77489L15.088 6.57197C15.7587 5.78763 16.0941 5.39546 15.977 5.01909C15.86 4.64273 15.3681 4.53142 14.3842 4.30881L14.1296 4.25122C13.8501 4.18796 13.7103 4.15633 13.598 4.07112C13.4858 3.98591 13.4138 3.85677 13.2698 3.59849L13.1387 3.36335C12.6321 2.45445 12.3787 2 12 2C11.6213 2 11.3679 2.45445 10.8613 3.36335L10.7302 3.59849C10.5862 3.85677 10.5142 3.98591 10.402 4.07112C10.2897 4.15633 10.1499 4.18796 9.87035 4.25122ZM18.9352 8.12561L18.8079 8.15441C18.316 8.26571 18.07 8.32136 18.0115 8.50955C17.953 8.69773 18.1207 8.89381 18.456 9.28598L18.5428 9.38744C18.6381 9.49889 18.6857 9.55461 18.7072 9.62354C18.7286 9.69248 18.7214 9.76682 18.707 9.91551L18.6939 10.0509C18.6432 10.5741 18.6178 10.8357 18.771 10.952C18.9242 11.0683 19.1545 10.9623 19.6151 10.7502L19.7343 10.6954C19.8652 10.6351 19.9306 10.605 20 10.605C20.0694 10.605 20.1348 10.6351 20.2657 10.6954L20.3849 10.7502C20.8455 10.9623 21.0758 11.0683 21.229 10.952C21.3822 10.8357 21.3568 10.5741 21.3061 10.0509L21.293 9.91551C21.2786 9.76682 21.2714 9.69248 21.2928 9.62354C21.3143 9.55461 21.3619 9.49889 21.4572 9.38744L21.544 9.28598C21.8794 8.89381 22.047 8.69773 21.9885 8.50955C21.93 8.32136 21.684 8.26571 21.1921 8.15441L21.0648 8.12561C20.925 8.09398 20.8551 8.07817 20.799 8.03556C20.7429 7.99296 20.7069 7.92839 20.6349 7.79925L20.5694 7.68167C20.316 7.22723 20.1894 7 20 7C19.8106 7 19.684 7.22722 19.4306 7.68167L19.3651 7.79925C19.2931 7.92839 19.2571 7.99296 19.201 8.03556C19.1449 8.07817 19.075 8.09398 18.9352 8.12561ZM2.93518 8.12561L2.80791 8.15441C2.31597 8.26571 2.07 8.32136 2.01148 8.50955C1.95296 8.69773 2.12065 8.89381 2.45602 9.28598L2.54278 9.38744C2.63809 9.49889 2.68574 9.55461 2.70717 9.62354C2.72861 9.69248 2.72141 9.76682 2.707 9.91551L2.69388 10.0509C2.64318 10.5741 2.61782 10.8357 2.77103 10.952C2.92424 11.0683 3.15454 10.9623 3.61513 10.7502L3.7343 10.6954C3.86519 10.6351 3.93063 10.605 4 10.605C4.06937 10.605 4.13481 10.6351 4.2657 10.6954L4.38487 10.7502C4.84547 10.9623 5.07576 11.0683 5.22897 10.952C5.38218 10.8357 5.35682 10.5741 5.30612 10.0509L5.293 9.91551C5.27859 9.76682 5.27139 9.69248 5.29283 9.62354C5.31426 9.55461 5.36191 9.49889 5.45722 9.38744L5.54398 9.28598C5.87935 8.89381 6.04704 8.69773 5.98852 8.50955C5.93 8.32136 5.68403 8.26571 5.19209 8.15441L5.06482 8.12561C4.92503 8.09398 4.85513 8.07817 4.79901 8.03556C4.74289 7.99296 4.7069 7.92839 4.63491 7.79925L4.56937 7.68167C4.31604 7.22723 4.18937 7 4 7C3.81063 7 3.68396 7.22722 3.43063 7.68167L3.36509 7.79925C3.29311 7.92839 3.25711 7.99296 3.20099 8.03556C3.14487 8.07817 3.07497 8.09398 2.93518 8.12561ZM3.5 22C2.67157 22 2 21.3284 2 20.5V15.5C2 14.6716 2.67157 14 3.5 14C4.32843 14 5 14.6716 5 15.5V20.5C5 21.3284 4.32843 22 3.5 22Z" stroke="#424242" stroke-linecap="round"/>
</svg>
