<svg width="24" height="24" viewBox="0 0 24 24" fill="none" xmlns="http://www.w3.org/2000/svg">
<path d="M5 19.8884C4.72386 19.8884 4.5 20.1122 4.5 20.3884C4.5 20.6645 4.72386 20.8884 5 20.8884V19.8884ZM19.2046 14.9433L18.9032 14.5443V14.5443L19.2046 14.9433ZM17.3974 16.3084L17.096 15.9095L17.096 15.9095L17.3974 16.3084ZM14.7791 14.7759L14.5229 15.2053H14.5229L14.7791 14.7759ZM15.2285 15.1431L14.8551 15.4756V15.4756L15.2285 15.1431ZM15.0206 17.4699L14.9418 16.9762V16.9762L15.0206 17.4699ZM14.5668 17.5292L14.5157 17.0318L14.5157 17.0318L14.5668 17.5292ZM12.7988 17.0348C12.5239 17.0089 12.2799 17.2107 12.254 17.4856C12.228 17.7605 12.4298 18.0045 12.7048 18.0304L12.7988 17.0348ZM18.0975 20.0865L18.3148 20.5368V20.5368L18.0975 20.0865ZM20.2199 18.7459L20.5597 19.1127V19.1127L20.2199 18.7459ZM21.8109 16.6707L21.3867 16.4061H21.3867L21.8109 16.6707ZM15.1028 17.2775L15.4315 17.6542L15.4315 17.6542L15.1028 17.2775ZM4.71076 15.8351C4.48551 15.9948 4.43241 16.3069 4.59215 16.5322C4.75189 16.7574 5.06399 16.8105 5.28924 16.6508L4.71076 15.8351ZM21.4245 14.943L21.7258 14.544V14.544L21.4245 14.943ZM15.6069 20.8138L15.5271 20.3202V20.3202L15.6069 20.8138ZM10.2763 20.6964L10.3772 20.2067V20.2067L10.2763 20.6964ZM14 7H13.5C13.5 7.13261 13.5527 7.25979 13.6464 7.35355L14 7ZM14.5 5C14.5 4.72386 14.2761 4.5 14 4.5C13.7239 4.5 13.5 4.72386 13.5 5H14.5ZM14.8964 8.60355C15.0917 8.79882 15.4083 8.79882 15.6036 8.60355C15.7988 8.40829 15.7988 8.09171 15.6036 7.89645L14.8964 8.60355ZM5 20.8884H7.25993V19.8884H5V20.8884ZM18.9032 14.5443L17.096 15.9095L17.6988 16.7074L19.506 15.3422L18.9032 14.5443ZM14.5229 15.2053C14.6524 15.2825 14.7631 15.3722 14.8551 15.4756L15.602 14.8107C15.4351 14.6231 15.2427 14.4702 15.0352 14.3465L14.5229 15.2053ZM14.9418 16.9762C14.8392 16.9925 14.7315 17.0075 14.6188 17.0205L14.7339 18.0139C14.8609 17.9992 14.9828 17.9823 15.0993 17.9637L14.9418 16.9762ZM14.6188 17.0205C14.5849 17.0244 14.5505 17.0282 14.5157 17.0318L14.6179 18.0265C14.657 18.0225 14.6957 18.0183 14.7339 18.0139L14.6188 17.0205ZM14.5157 17.0318C14.0229 17.0824 13.4435 17.0957 12.7988 17.0348L12.7048 18.0304C13.4188 18.0978 14.064 18.0834 14.6179 18.0265L14.5157 17.0318ZM18.3148 20.5368C19.0199 20.1965 19.9294 19.6965 20.5597 19.1127L19.8802 18.3791C19.3645 18.8567 18.5679 19.3043 17.8801 19.6362L18.3148 20.5368ZM20.5597 19.1127C21.185 18.5336 21.8106 17.6159 22.2351 16.9354L21.3867 16.4061C20.9654 17.0815 20.3992 17.8983 19.8802 18.3791L20.5597 19.1127ZM14.774 16.9008C14.668 16.9933 14.5992 17.0224 14.5716 17.0283L14.7811 18.0061C15.0451 17.9495 15.2659 17.7988 15.4315 17.6542L14.774 16.9008ZM14.5716 17.0283C14.5667 17.0294 14.5653 17.0292 14.5668 17.0292V18.0292C14.6413 18.0292 14.7131 18.0207 14.7811 18.0061L14.5716 17.0283ZM14.8551 15.4756C15.2339 15.9011 15.2014 16.5278 14.774 16.9008L15.4315 17.6542C16.2906 16.9044 16.3393 15.6389 15.602 14.8107L14.8551 15.4756ZM15.0352 14.3465C13.4915 13.4258 11.5642 13.3385 9.73146 13.6936C7.89245 14.0499 6.08124 14.8632 4.71076 15.8351L5.28924 16.6508C6.54817 15.758 8.22783 15.0035 9.92166 14.6753C11.6218 14.346 13.2693 14.4576 14.5229 15.2053L15.0352 14.3465ZM17.096 15.9095C16.4097 16.428 15.7266 16.851 14.9418 16.9762L15.0993 17.9637C16.1374 17.7981 16.9844 17.2471 17.6988 16.7074L17.096 15.9095ZM21.7258 14.544C20.9103 13.9282 19.7186 13.9283 18.9032 14.5443L19.506 15.3422C19.9648 14.9956 20.6643 14.9956 21.1232 15.3421L21.7258 14.544ZM21.1232 15.3421C21.522 15.6432 21.5922 16.0767 21.3867 16.4061L22.2351 16.9354C22.755 16.1021 22.4743 15.1092 21.7258 14.544L21.1232 15.3421ZM15.6868 21.3073C16.579 21.1629 17.4834 20.9381 18.3148 20.5368L17.8801 19.6362C17.1687 19.9796 16.3686 20.1839 15.5271 20.3202L15.6868 21.3073ZM10.1754 21.1861C11.9745 21.5567 13.868 21.6017 15.6868 21.3073L15.5271 20.3202C13.8297 20.5949 12.0587 20.5531 10.3772 20.2067L10.1754 21.1861ZM7.25993 20.8884C8.23663 20.8884 9.22457 20.9902 10.1754 21.1861L10.3772 20.2067C9.3605 19.9972 8.30496 19.8884 7.25993 19.8884V20.8884ZM4.5 15.5V20.5H5.5V15.5H4.5ZM2.5 20.5V15.5H1.5V20.5H2.5ZM3.5 21.5C2.94772 21.5 2.5 21.0523 2.5 20.5H1.5C1.5 21.6046 2.39543 22.5 3.5 22.5V21.5ZM4.5 20.5C4.5 21.0523 4.05228 21.5 3.5 21.5V22.5C4.60457 22.5 5.5 21.6046 5.5 20.5H4.5ZM3.5 14.5C4.05228 14.5 4.5 14.9477 4.5 15.5H5.5C5.5 14.3954 4.60457 13.5 3.5 13.5V14.5ZM3.5 13.5C2.39543 13.5 1.5 14.3954 1.5 15.5H2.5C2.5 14.9477 2.94772 14.5 3.5 14.5V13.5ZM18.5 7C18.5 9.48528 16.4853 11.5 14 11.5V12.5C17.0376 12.5 19.5 10.0376 19.5 7H18.5ZM14 11.5C11.5147 11.5 9.5 9.48528 9.5 7H8.5C8.5 10.0376 10.9624 12.5 14 12.5V11.5ZM9.5 7C9.5 4.51472 11.5147 2.5 14 2.5V1.5C10.9624 1.5 8.5 3.96243 8.5 7H9.5ZM14 2.5C16.4853 2.5 18.5 4.51472 18.5 7H19.5C19.5 3.96243 17.0376 1.5 14 1.5V2.5ZM14.5 7V5H13.5V7H14.5ZM13.6464 7.35355L14.8964 8.60355L15.6036 7.89645L14.3536 6.64645L13.6464 7.35355Z" fill="#424242"/>
</svg>
