<svg width="24" height="24" viewBox="0 0 24 24" fill="none" xmlns="http://www.w3.org/2000/svg">
<path d="M8.57977 22.4566C8.83194 22.5691 9.1276 22.4559 9.24014 22.2038C9.35269 21.9516 9.2395 21.656 8.98734 21.5434L8.57977 22.4566ZM5.22343 18.2551C5.08432 18.0165 4.77818 17.9359 4.53963 18.075C4.30108 18.2141 4.22047 18.5203 4.35958 18.7588L5.22343 18.2551ZM14.6884 1.70504C14.4228 1.78062 14.2687 2.05719 14.3443 2.32279C14.4199 2.58839 14.6964 2.74244 14.962 2.66686L14.6884 1.70504ZM19.0845 3.74706C19.2777 3.94436 19.5943 3.94769 19.7916 3.7545C19.9889 3.5613 19.9922 3.24474 19.799 3.04743L19.0845 3.74706ZM4.0106 8.36655L3.76251 7.93244L4.0106 8.36655ZM6.50218 8.86743L6.93411 8.61556V8.61556L6.50218 8.86743ZM3.2028 10.7531L2.77087 11.0049H2.77087L3.2028 10.7531ZM7.69685 3.37253L8.12878 3.12066V3.12066L7.69685 3.37253ZM8.53873 4.81624L8.10681 5.06811V5.06811L8.53873 4.81624ZM10.6325 9.39923C10.7716 9.63778 11.0777 9.71839 11.3163 9.57928C11.5548 9.44018 11.6354 9.13403 11.4963 8.89548L10.6325 9.39923ZM7.75402 12.0067C7.89313 12.2453 8.19928 12.3259 8.43782 12.1868C8.67637 12.0477 8.75698 11.7415 8.61788 11.503L7.75402 12.0067ZM4.39747 5.25817L3.96554 5.51004H3.96554L4.39747 5.25817ZM11.8381 2.9306L12.27 2.67873V2.67873L11.8381 2.9306ZM14.3638 7.26172L14.7957 7.00985V7.00985L14.3638 7.26172ZM16.0475 10.1491L16.2956 10.5832C16.4114 10.5171 16.496 10.4074 16.5305 10.2786C16.565 10.1497 16.5467 10.0125 16.4795 9.89726L16.0475 10.1491ZM17.6632 5.37608L17.2312 5.62796V5.62796L17.6632 5.37608ZM20.1888 9.7072L20.6207 9.45533V9.45533L20.1888 9.7072ZM6.99128 17.2497L7.42321 16.9979V16.9979L6.99128 17.2497ZM16.9576 19.2533L16.7095 18.8192L16.9576 19.2533ZM14 15.1741C14.1391 15.4126 14.4453 15.4932 14.6838 15.3541C14.9224 15.215 15.003 14.9089 14.8639 14.6703L14 15.1741ZM8.98734 21.5434C7.38635 20.8289 6.07964 19.7233 5.22343 18.2551L4.35958 18.7588C5.33318 20.4284 6.81036 21.6669 8.57977 22.4566L8.98734 21.5434ZM14.962 2.66686C16.4647 2.2393 18.0057 2.64534 19.0845 3.74706L19.799 3.04743C18.4608 1.68076 16.5394 1.17834 14.6884 1.70504L14.962 2.66686ZM4.2587 8.80065C4.98485 8.38565 5.77256 8.60881 6.07025 9.11931L6.93411 8.61556C6.30188 7.53138 4.85855 7.30604 3.76251 7.93244L4.2587 8.80065ZM3.76251 7.93244C2.66491 8.55973 2.13616 9.91651 2.77087 11.0049L3.63472 10.5012C3.33951 9.99496 3.5341 9.21477 4.2587 8.80065L3.76251 7.93244ZM7.26492 3.62441L8.10681 5.06811L8.97066 4.56436L8.12878 3.12066L7.26492 3.62441ZM8.10681 5.06811L10.6325 9.39923L11.4963 8.89548L8.97066 4.56436L8.10681 5.06811ZM8.61788 11.503L6.93411 8.61556L6.07025 9.11931L7.75402 12.0067L8.61788 11.503ZM6.93411 8.61556L4.82939 5.00629L3.96554 5.51004L6.07025 9.11931L6.93411 8.61556ZM5.45337 3.30575C6.17952 2.89075 6.96723 3.11391 7.26492 3.62441L8.12878 3.12066C7.49655 2.03648 6.05322 1.81113 4.95718 2.43754L5.45337 3.30575ZM4.95718 2.43754C3.85958 3.06483 3.33083 4.42161 3.96554 5.51004L4.82939 5.00629C4.53418 4.50006 4.72877 3.71987 5.45337 3.30575L4.95718 2.43754ZM11.4062 3.18247L13.9318 7.51359L14.7957 7.00985L12.27 2.67873L11.4062 3.18247ZM13.9318 7.51359L15.6156 10.401L16.4795 9.89726L14.7957 7.00985L13.9318 7.51359ZM9.59464 2.86382C10.3208 2.44882 11.1085 2.67198 11.4062 3.18247L12.27 2.67873C11.6378 1.59455 10.1945 1.3692 9.09845 1.99561L9.59464 2.86382ZM9.09845 1.99561C8.00085 2.6229 7.4721 3.97968 8.10681 5.06811L8.97066 4.56436C8.67545 4.05813 8.87004 3.27794 9.59464 2.86382L9.09845 1.99561ZM17.2312 5.62796L19.7569 9.95908L20.6207 9.45533L18.0951 5.12421L17.2312 5.62796ZM15.4197 5.3093C16.1458 4.8943 16.9335 5.11746 17.2312 5.62796L18.0951 5.12421C17.4629 4.04003 16.0195 3.81469 14.9235 4.44109L15.4197 5.3093ZM14.9235 4.44109C13.8259 5.06838 13.2971 6.42516 13.9318 7.51359L14.7957 7.00985C14.5005 6.50361 14.6951 5.72342 15.4197 5.3093L14.9235 4.44109ZM2.77087 11.0049L6.55936 17.5016L7.42321 16.9979L3.63472 10.5012L2.77087 11.0049ZM16.7095 18.8192C13.25 20.7963 9.11578 19.9004 7.42321 16.9979L6.55936 17.5016C8.58647 20.9778 13.3763 21.8759 17.2057 19.6874L16.7095 18.8192ZM19.7569 9.95908C21.447 12.8573 20.1674 16.843 16.7095 18.8192L17.2057 19.6874C21.0366 17.498 22.6503 12.9358 20.6207 9.45533L19.7569 9.95908ZM14.8639 14.6703C14.1037 13.3667 14.6599 11.5181 16.2956 10.5832L15.7994 9.71503C13.7908 10.863 12.9003 13.2883 14 15.1741L14.8639 14.6703Z" fill="#424242"/>
</svg>
