<svg width="24" height="24" viewBox="0 0 24 24" fill="none" xmlns="http://www.w3.org/2000/svg">
<path d="M7.26985 12.4584C7.13756 11.9698 7.00527 11.336 6.72746 10.4116C6.44964 9.48721 6.27767 9.27593 6.10569 8.78733C5.93371 8.29873 5.70881 7.83655 5.44423 7.2291C5.20188 6.60852 4.99864 5.97343 4.83569 5.32753C4.72558 4.78321 4.86106 4.2181 5.20611 3.78251C5.68084 3.32009 6.36588 3.14411 7.00527 3.32032C7.50619 3.53899 7.93008 3.90232 8.22235 4.36354C8.61265 4.9864 8.93213 5.65077 9.17484 6.34434C9.54756 7.29464 9.81807 8.28178 9.98182 9.28913L10.1009 9.88337C10.1009 9.88337 10.1009 8.40438 10.1009 8.35155C10.1009 7.03102 10.0215 5.94818 10.1009 4.46919C10.1009 4.29752 10.1803 3.69007 10.2067 3.5184C10.2409 2.95052 10.5799 2.44544 11.0931 2.19787C11.6821 1.93404 12.3561 1.93404 12.9451 2.19787C13.4725 2.43349 13.8244 2.94267 13.8579 3.5184C13.8579 3.66366 13.977 4.83893 13.977 4.98419C13.977 6.30473 13.977 7.14987 13.977 7.84975C13.977 8.15347 13.977 10.0022 13.977 9.79094C14.0082 8.04844 14.1584 6.3101 14.4268 4.58803C14.5836 4.04852 14.9639 3.60161 15.4719 3.35994C16.1002 3.11292 16.814 3.23506 17.324 3.67687C17.7052 4.09454 17.9296 4.6312 17.959 5.19548C17.959 5.7369 17.959 6.38396 17.959 6.84615C17.959 7.99501 17.959 8.58925 17.959 9.64568C17.959 9.64568 17.959 10.0418 17.959 9.88337C18.078 9.51362 18.2103 9.17029 18.3162 8.90618C18.422 8.64207 18.6337 8.10065 18.7924 7.77052C18.954 7.45579 19.1351 7.15147 19.3348 6.85935C19.5423 6.52358 19.8533 6.26409 20.2211 6.11985C20.5525 5.992 20.9214 6.00253 21.2449 6.14907C21.5683 6.29561 21.8192 6.56586 21.9409 6.89897C22.0197 7.37997 22.0197 7.87055 21.9409 8.35155C21.8527 9.0903 21.6978 9.81957 21.4779 10.5304C21.3059 11.1247 21.1207 12.1547 21.0281 12.6433C20.9355 13.1319 20.7239 14.4656 20.5519 15.0467C20.2972 15.7398 19.9454 16.3934 19.5068 16.9878C18.8649 17.7013 18.3342 18.507 17.9325 19.378C17.8337 19.811 17.7892 20.2546 17.8002 20.6985C17.7981 21.1088 17.8515 21.5175 17.959 21.9134C17.4181 21.971 16.8726 21.971 16.3318 21.9134C15.8159 21.8342 15.1809 20.8042 15.0089 20.4873C14.9238 20.3171 14.7496 20.2096 14.5591 20.2096C14.3686 20.2096 14.1944 20.3171 14.1093 20.4873C13.805 20.9891 13.17 21.9002 12.7202 21.953C11.8339 22.0587 10.0083 21.953 8.5663 21.953C8.5663 21.953 8.81766 20.6325 8.26203 20.1571C7.70641 19.6817 7.16402 19.1271 6.75391 18.7574L5.6559 17.5425C5.28548 17.0671 4.82246 16.1031 4.01549 14.9014C3.55247 14.2411 2.69258 13.462 2.32216 12.815C2.01118 12.2898 1.92083 11.6632 2.07081 11.0719C2.29545 10.2866 3.0771 9.79682 3.8832 9.93619C4.49637 9.97653 5.07635 10.2286 5.52361 10.6493C5.87777 10.9552 6.20935 11.2862 6.51579 11.6397C6.72746 11.8906 6.78037 12.0094 7.0185 12.3132C7.25662 12.6169 7.41537 12.9206 7.29631 12.4716M11.1592 12.8942V17.4422M13.858 12.8942V17.4422M16.3979 12.8942V17.4422" stroke="#424242" stroke-linecap="round" stroke-linejoin="round"/>
</svg>
