<svg width="24" height="24" viewBox="0 0 24 24" fill="none" xmlns="http://www.w3.org/2000/svg">
<path d="M11.2493 10.6349V15.236M14.5275 10.6349V15.236M17.6129 10.6349V15.236M6.00863 4.21266C6.75729 3.93275 8.23903 4.10381 8.62896 4.94352C9.01889 5.78323 9.25284 6.87175 9.26844 6.6074C9.2386 5.80391 9.30669 4.99979 9.4712 4.21266C9.64457 3.70854 10.0418 3.31253 10.5474 3.13969C11.0111 2.99348 11.5035 2.96146 11.9824 3.04639C12.4665 3.14575 12.8953 3.42337 13.1833 3.8239C13.5482 4.73069 13.754 5.69328 13.7916 6.6696C13.8304 5.8365 13.9719 5.01132 14.2128 4.21266C14.4734 3.84653 14.854 3.58255 15.289 3.46625C15.8046 3.37225 16.333 3.37225 16.8487 3.46625C17.272 3.60629 17.6421 3.8722 17.9093 4.22821C18.2406 5.05261 18.4405 5.92357 18.502 6.80955C18.502 7.02725 18.6112 6.20309 18.9543 5.65883C19.23 4.84296 20.1168 4.40435 20.9351 4.67917C21.7535 4.95399 22.1934 5.83817 21.9178 6.65405C21.9178 7.66481 21.9178 7.61816 21.9178 8.30237C21.9178 8.98658 21.9178 9.59304 21.9178 10.1684C21.8616 11.0784 21.7365 11.9829 21.5434 12.8741C21.2727 13.663 20.8949 14.4112 20.4204 15.0978C19.6633 15.9376 19.0376 16.8865 18.5644 17.9124C18.4489 18.4225 18.3965 18.9447 18.4084 19.4674C18.4068 19.9505 18.4698 20.4316 18.5956 20.8981C17.9579 20.966 17.3148 20.966 16.6771 20.8981C16.0688 20.8048 15.3202 19.5918 15.1174 19.2186C15.0171 19.0182 14.8117 18.8916 14.5871 18.8916C14.3624 18.8916 14.1571 19.0182 14.0568 19.2186C13.7136 19.8095 12.9494 20.8825 12.4971 20.9447C11.4521 21.0691 9.28404 20.9447 7.59954 20.9447C7.59954 20.9447 7.89589 19.3897 7.24081 18.8299C6.58572 18.2701 5.94624 17.617 5.46272 17.1816L4.16816 15.7509C3.25524 14.9061 2.5872 13.8318 2.2341 12.6409C1.90656 11.1792 1.93776 10.4794 2.2341 9.88849C2.53636 9.40053 3.00834 9.0407 3.55987 8.87773C4.01806 8.79486 4.48974 8.82692 4.93242 8.97103C5.23854 9.0988 5.50311 9.30874 5.69668 9.57749C6.05542 10.0595 6.1802 10.2928 6.02422 9.76409C5.86825 9.23538 5.52511 8.84663 5.35354 8.20907C5.01953 7.45612 4.819 6.65114 4.76085 5.82988C4.79274 5.08228 5.29204 4.43515 6.00863 4.21266Z" stroke="#424242" stroke-linecap="round" stroke-linejoin="round"/>
</svg>
