<svg width="24" height="24" viewBox="0 0 24 24" fill="none" xmlns="http://www.w3.org/2000/svg">
<path d="M3.08718 12.2222L2.6891 11.9197L2.67974 11.932L2.67115 11.9449L3.08718 12.2222ZM7.59096 4.09474C7.8642 4.0548 8.05332 3.80091 8.01338 3.52768C7.97344 3.25444 7.71955 3.06531 7.44631 3.10526L7.59096 4.09474ZM18.3537 3.10526C18.0805 3.06531 17.8266 3.25444 17.7866 3.52768C17.7467 3.80091 17.9358 4.0548 18.209 4.09474L18.3537 3.10526ZM5.29755 8.52618L4.8042 8.44485L5.29755 8.52618ZM12.9761 1.5C8.81618 1.5 5.46343 4.44573 4.8042 8.44485L5.79089 8.6075C6.37205 5.08193 9.3152 2.5 12.9761 2.5V1.5ZM4.24138 9.8772L2.6891 11.9197L3.48526 12.5248L5.03754 10.4823L4.24138 9.8772ZM2.67115 11.9449C2.4462 12.2823 2.46343 12.6935 2.60542 13.0012C2.75214 13.3191 3.07411 13.6111 3.53162 13.6111V12.6111C3.52881 12.6111 3.52946 12.6108 3.53199 12.6116C3.53431 12.6124 3.53538 12.6132 3.53488 12.6128C3.53311 12.6116 3.52305 12.6031 3.51338 12.5821C3.50365 12.561 3.49941 12.538 3.50007 12.5193C3.50069 12.5014 3.50517 12.4966 3.5032 12.4996L2.67115 11.9449ZM3.53162 13.6111H4.19829V12.6111H3.53162V13.6111ZM4.69829 14.1111V16.4444H5.69829V14.1111H4.69829ZM4.69829 16.4444C4.69829 17.9428 5.92215 19.1667 7.42051 19.1667V18.1667C6.47443 18.1667 5.69829 17.3905 5.69829 16.4444H4.69829ZM8.03162 19.7778V22H9.03162V19.7778H8.03162ZM16.8094 22V19.3446H15.8094V22H16.8094ZM18.7676 15.6988C20.3166 14.2047 21.2538 12.1051 21.2538 9.77778H20.2538C20.2538 11.8311 19.4287 13.6717 18.0733 14.9791L18.7676 15.6988ZM21.2538 9.77778C21.2538 5.1683 17.5855 1.5 12.9761 1.5V2.5C17.0333 2.5 20.2538 5.72059 20.2538 9.77778H21.2538ZM20.5 5.06809C20.5 4.98133 20.5484 4.96123 20.4961 5.00963C20.4444 5.05741 20.34 5.12716 20.1594 5.20793C19.8014 5.36798 19.2522 5.52432 18.5346 5.66002C17.1078 5.92988 15.1154 6.1 12.9 6.1V7.1C15.1581 7.1 17.2157 6.92719 18.7205 6.6426C19.4688 6.50109 20.1057 6.32732 20.5676 6.12082C20.7968 6.01832 21.0107 5.89567 21.1748 5.74401C21.3382 5.59296 21.5 5.36636 21.5 5.06809H20.5ZM12.9 6.1C10.6846 6.1 8.69221 5.92988 7.26535 5.66002C6.54781 5.52432 5.99858 5.36798 5.64064 5.20793C5.46 5.12716 5.35563 5.05741 5.30393 5.00963C5.25156 4.96123 5.3 4.98133 5.3 5.06809H4.3C4.3 5.36636 4.46176 5.59296 4.62519 5.74401C4.78929 5.89567 5.00319 6.01832 5.23244 6.12082C5.69427 6.32732 6.33125 6.50109 7.07952 6.6426C8.58428 6.92719 10.6419 7.1 12.9 7.1V6.1ZM5.3 5.06809C5.3 5.0872 5.30968 4.92123 5.70232 4.68008C6.06687 4.45617 6.67562 4.22855 7.59096 4.09474L7.44631 3.10526C6.44516 3.25161 5.69459 3.51126 5.17895 3.82797C4.6914 4.12742 4.3 4.55541 4.3 5.06809H5.3ZM18.209 4.09474C19.1244 4.22855 19.7331 4.45617 20.0977 4.68008C20.4903 4.92123 20.5 5.0872 20.5 5.06809H21.5C21.5 4.55541 21.1086 4.12742 20.621 3.82797C20.1054 3.51126 19.3548 3.25161 18.3537 3.10526L18.209 4.09474ZM16.8094 19.3446C16.8094 17.9918 17.667 16.7604 18.7676 15.6988L18.0733 14.9791C16.9225 16.0891 15.8094 17.5693 15.8094 19.3446H16.8094ZM7.42051 19.1667C7.75802 19.1667 8.03162 19.4403 8.03162 19.7778H9.03162C9.03162 18.888 8.3103 18.1667 7.42051 18.1667V19.1667ZM4.19829 13.6111C4.47443 13.6111 4.69829 13.835 4.69829 14.1111H5.69829C5.69829 13.2827 5.02672 12.6111 4.19829 12.6111V13.6111ZM4.8042 8.44485C4.71456 8.98865 4.54041 9.48375 4.24138 9.8772L5.03754 10.4823C5.46676 9.91753 5.68478 9.25122 5.79089 8.6075L4.8042 8.44485Z" fill="#424242"/>
</svg>
