<svg width="24" height="24" viewBox="0 0 24 24" fill="none" xmlns="http://www.w3.org/2000/svg">
<path d="M8.96173 19.3786L9.27679 18.9904L8.96173 19.3786ZM12 5.57412L11.6348 5.91561C11.7293 6.01673 11.8616 6.07412 12 6.07412C12.1384 6.07412 12.2707 6.01673 12.3652 5.91561L12 5.57412ZM15.0383 19.3787L15.3533 19.7669V19.7669L15.0383 19.3787ZM12 21L12 20.5L12 21ZM18.5 9.50002C18.7761 9.50002 19 9.27616 19 9.00002C19 8.72387 18.7761 8.50002 18.5 8.50002V9.50002ZM14.5 8.50002C14.2239 8.50002 14 8.72387 14 9.00002C14 9.27616 14.2239 9.50002 14.5 9.50002V8.50002ZM17 7C17 6.72386 16.7761 6.5 16.5 6.5C16.2239 6.5 16 6.72386 16 7H17ZM16 11C16 11.2761 16.2239 11.5 16.5 11.5C16.7761 11.5 17 11.2761 17 11H16ZM9.27679 18.9904C7.81982 17.8081 6.11115 16.2519 4.77098 14.5427C3.42116 12.8211 2.5 11.0133 2.5 9.3175H1.5C1.5 11.351 2.58856 13.3799 3.98403 15.1597C5.38914 16.9518 7.16134 18.5615 8.64667 19.7669L9.27679 18.9904ZM2.5 9.3175C2.5 6.34276 3.80346 4.4327 5.49487 3.7704C7.18397 3.109 9.47695 3.60779 11.6348 5.91561L12.3652 5.23264C10.0232 2.72783 7.31619 1.9833 5.13025 2.83924C2.94662 3.69428 1.5 6.06223 1.5 9.3175H2.5ZM15.3533 19.7669C16.8387 18.5616 18.6109 16.9518 20.016 15.1597C21.4114 13.3799 22.5 11.351 22.5 9.31747H21.5C21.5 11.0133 20.5788 12.8211 19.229 14.5427C17.8889 16.252 16.1802 17.8081 14.7232 18.9904L15.3533 19.7669ZM22.5 9.31747C22.5 6.06221 21.0534 3.69427 18.8697 2.83924C16.6838 1.9833 13.9768 2.72783 11.6348 5.23264L12.3652 5.91561C14.523 3.60779 16.816 3.109 18.5051 3.7704C20.1965 4.43269 21.5 6.34274 21.5 9.31747H22.5ZM8.64667 19.7669C9.93829 20.815 10.7481 21.5 12 21.5L12 20.5C11.1713 20.5 10.6492 20.1041 9.27679 18.9904L8.64667 19.7669ZM14.7232 18.9904C13.3509 20.1041 12.8287 20.5 12 20.5L12 21.5C13.2519 21.5 14.0617 20.815 15.3533 19.7669L14.7232 18.9904ZM18.5 8.50002H16.5V9.50002H18.5V8.50002ZM16.5 8.50002L14.5 8.50002V9.50002L16.5 9.50002V8.50002ZM16 7V9.00002H17V7H16ZM16 9.00002V11H17V9.00002H16Z" fill="#424242"/>
</svg>
