<svg width="24" height="24" viewBox="0 0 24 24" fill="none" xmlns="http://www.w3.org/2000/svg">
<path d="M8.96173 18.9108L9.27127 18.5182L8.96173 18.9108ZM12 5.50057L11.6398 5.84731C11.734 5.94524 11.8641 6.00057 12 6.00057C12.1359 6.00057 12.266 5.94524 12.3602 5.84731L12 5.50057ZM15.0383 18.9108L15.3478 19.3035L15.0383 18.9108ZM9.27127 18.5182C7.77045 17.335 6.08543 16.1479 4.75136 14.6457C3.43443 13.1628 2.5 11.4125 2.5 9.13704H1.5C1.5 11.7245 2.57528 13.7014 4.00365 15.3097C5.41487 16.8988 7.21071 18.1671 8.65219 19.3035L9.27127 18.5182ZM2.5 9.13704C2.5 6.89264 3.76859 4.99753 5.52043 4.19676C7.24074 3.4104 9.5178 3.64267 11.6398 5.84731L12.3602 5.15384C9.98236 2.6833 7.25942 2.30234 5.1047 3.28727C2.98149 4.25779 1.5 6.5185 1.5 9.13704H2.5ZM8.65219 19.3035C9.16673 19.7091 9.70317 20.1286 10.243 20.444C10.7826 20.7593 11.3731 20.9999 12 20.9999V19.9999C11.6269 19.9999 11.2174 19.8552 10.7475 19.5806C10.2777 19.3061 9.79501 18.931 9.27127 18.5182L8.65219 19.3035ZM15.3478 19.3035C16.7893 18.1671 18.5851 16.8988 19.9964 15.3097C21.4247 13.7014 22.5 11.7245 22.5 9.13704H21.5C21.5 11.4125 20.5656 13.1628 19.2486 14.6457C17.9146 16.1479 16.2295 17.335 14.7287 18.5182L15.3478 19.3035ZM22.5 9.13704C22.5 6.5185 21.0185 4.25779 18.8953 3.28727C16.7406 2.30234 14.0176 2.6833 11.6398 5.15384L12.3602 5.84731C14.4822 3.64267 16.7593 3.4104 18.4796 4.19676C20.2314 4.99753 21.5 6.89264 21.5 9.13704H22.5ZM14.7287 18.5182C14.205 18.931 13.7223 19.3061 13.2525 19.5806C12.7826 19.8552 12.3731 19.9999 12 19.9999V20.9999C12.6269 20.9999 13.2174 20.7593 13.757 20.444C14.2968 20.1286 14.8333 19.7091 15.3478 19.3035L14.7287 18.5182Z" fill="#424242"/>
</svg>
