<svg width="24" height="24" viewBox="0 0 24 24" fill="none" xmlns="http://www.w3.org/2000/svg">
<path d="M12.8615 13.4755L12.4234 13.7165V13.7165L12.8615 13.4755ZM11.1742 10.4077L10.7361 10.6487H10.7361L11.1742 10.4077ZM18 12.5001C18.2761 12.5001 18.5 12.2763 18.5 12.0001C18.5 11.724 18.2761 11.5001 18 11.5001V12.5001ZM14.6261 13.4567L15.0548 13.7139L15.0548 13.7139L14.6261 13.4567ZM14.5952 13.5081L14.1665 13.2509L14.1665 13.2509L14.5952 13.5081ZM9.47875 10.3162L9.06913 10.0295V10.0295L9.47875 10.3162ZM9.19573 10.7205L9.60535 11.0072L9.60535 11.0072L9.19573 10.7205ZM6 11.5001C5.72386 11.5001 5.5 11.724 5.5 12.0001C5.5 12.2763 5.72386 12.5001 6 12.5001V11.5001ZM8.21173 11.8306L8.44264 12.2741H8.44264L8.21173 11.8306ZM15.6102 12.1948L15.3639 11.7597V11.7597L15.6102 12.1948ZM13.7095 14.4968L13.7001 14.9967H13.7001L13.7095 14.4968ZM8.96173 19.3707L9.27772 18.9832V18.9832L8.96173 19.3707ZM12 5.49877L11.6339 5.83937C11.7285 5.94102 11.8611 5.99877 12 5.99877C12.1389 5.99877 12.2715 5.94102 12.3661 5.83937L12 5.49877ZM15.0383 19.3707L15.3543 19.7582V19.7582L15.0383 19.3707ZM13.2996 13.2346L11.6123 10.1668L10.7361 10.6487L12.4234 13.7165L13.2996 13.2346ZM18 11.5001H17.1986V12.5001H18V11.5001ZM14.1973 13.1994L14.1665 13.2509L15.0239 13.7654L15.0548 13.7139L14.1973 13.1994ZM9.06913 10.0295L8.78611 10.4338L9.60535 11.0072L9.88836 10.6029L9.06913 10.0295ZM6.73803 11.5001H6V12.5001H6.73803V11.5001ZM8.78611 10.4338C8.56153 10.7546 8.41172 10.9678 8.2794 11.1243C8.1536 11.2731 8.06613 11.3427 7.98083 11.3871L8.44264 12.2741C8.68294 12.149 8.86801 11.977 9.04308 11.7699C9.21162 11.5705 9.39101 11.3134 9.60535 11.0072L8.78611 10.4338ZM6.73803 12.5001C7.1118 12.5001 7.42529 12.5006 7.68527 12.4768C7.95533 12.4522 8.20233 12.3992 8.44264 12.2741L7.98083 11.3871C7.89552 11.4315 7.78837 11.4633 7.59433 11.481C7.39021 11.4996 7.12966 11.5001 6.73803 11.5001V12.5001ZM17.1986 11.5001C16.7933 11.5001 16.454 11.4996 16.1739 11.5268C15.883 11.5551 15.6179 11.6159 15.3639 11.7597L15.8566 12.6299C15.9465 12.579 16.0607 12.5425 16.2706 12.5221C16.4913 12.5007 16.7742 12.5001 17.1986 12.5001V11.5001ZM15.0548 13.7139C15.2732 13.35 15.4192 13.1077 15.5511 12.9295C15.6766 12.76 15.7667 12.6808 15.8566 12.6299L15.3639 11.7597C15.1099 11.9035 14.9213 12.0995 14.7474 12.3344C14.58 12.5606 14.4058 12.8519 14.1973 13.1994L15.0548 13.7139ZM11.6123 10.1668C11.4467 9.8657 11.2961 9.58912 11.1468 9.39281C10.9929 9.19043 10.7608 8.96566 10.4029 8.94634L10.349 9.94488C10.2684 9.94053 10.2618 9.88111 10.3509 9.99819C10.4445 10.1213 10.5544 10.3183 10.7361 10.6487L11.6123 10.1668ZM9.88836 10.6029C10.1046 10.294 10.235 10.11 10.3414 9.99767C10.4425 9.89087 10.4296 9.94923 10.349 9.94488L10.4029 8.94634C10.045 8.92701 9.79009 9.12548 9.61526 9.31012C9.44568 9.48921 9.26617 9.74797 9.06913 10.0295L9.88836 10.6029ZM12.4234 13.7165C12.6015 14.0403 12.7616 14.3342 12.9187 14.5407C13.0784 14.7508 13.3232 14.9896 13.7001 14.9967L13.7189 13.9969C13.8065 13.9985 13.8135 14.0653 13.7146 13.9354C13.6132 13.802 13.494 13.588 13.2996 13.2346L12.4234 13.7165ZM14.1665 13.2509C13.9589 13.5967 13.8317 13.8061 13.7254 13.9356C13.6217 14.0617 13.6312 13.9952 13.7189 13.9969L13.7001 14.9967C14.077 15.0038 14.3305 14.7743 14.498 14.5704C14.6628 14.3699 14.8338 14.0822 15.0239 13.7654L14.1665 13.2509ZM9.27772 18.9832C7.82076 17.7951 6.112 16.2313 4.7717 14.5136C3.42192 12.7836 2.5 10.9661 2.5 9.26044H1.5C1.5 11.3022 2.58779 13.3402 3.9833 15.1287C5.38829 16.9294 7.1604 18.547 8.64575 19.7582L9.27772 18.9832ZM2.5 9.26044C2.5 6.45537 3.79695 4.52153 5.50462 3.81109C7.19867 3.10632 9.48526 3.5301 11.6339 5.83937L12.3661 5.15817C10.0149 2.63131 7.30149 1.98045 5.1205 2.88781C2.95313 3.7895 1.5 6.15456 1.5 9.26044H2.5ZM15.3543 19.7582C16.8396 18.547 18.6117 16.9294 20.0167 15.1287C21.4122 13.3402 22.5 11.3022 22.5 9.2604H21.5C21.5 10.9661 20.5781 12.7837 19.2283 14.5136C17.888 16.2314 16.1793 17.7952 14.7223 18.9832L15.3543 19.7582ZM22.5 9.2604C22.5 6.15446 21.0469 3.7894 18.8795 2.88773C16.6985 1.98041 13.9851 2.63131 11.6339 5.15817L12.3661 5.83937C14.5147 3.53009 16.8013 3.10627 18.4954 3.81102C20.203 4.52143 21.5 6.45525 21.5 9.2604H22.5ZM8.64575 19.7582C9.93704 20.8112 10.7472 21.5 12 21.5L12 20.5C11.1722 20.5 10.6504 20.1026 9.27772 18.9832L8.64575 19.7582ZM14.7223 18.9832C13.3496 20.1026 12.8278 20.5 12 20.5L12 21.5C13.2528 21.5 14.063 20.8112 15.3543 19.7582L14.7223 18.9832Z" fill="#424242"/>
</svg>
