<svg width="24" height="24" viewBox="0 0 24 24" fill="none" xmlns="http://www.w3.org/2000/svg">
<path d="M18.3636 3V3.5V3.5V3ZM16.5455 3L16.5455 2.5H16.5455V3ZM12.9091 11.5909C12.6329 11.5909 12.4091 11.8148 12.4091 12.0909C12.4091 12.3671 12.6329 12.5909 12.9091 12.5909V11.5909ZM14.7273 12.5909C15.0034 12.5909 15.2273 12.3671 15.2273 12.0909C15.2273 11.8148 15.0034 11.5909 14.7273 11.5909V12.5909ZM14.7273 7.13636C15.0034 7.13636 15.2273 6.91251 15.2273 6.63636C15.2273 6.36022 15.0034 6.13636 14.7273 6.13636V7.13636ZM14.7273 18.0455C15.0034 18.0455 15.2273 17.8216 15.2273 17.5455C15.2273 17.2693 15.0034 17.0455 14.7273 17.0455L14.7273 18.0455ZM12.9091 14.3182C12.6329 14.3182 12.4091 14.542 12.4091 14.8182C12.4091 15.0943 12.6329 15.3182 12.9091 15.3182V14.3182ZM15.6364 15.3182C15.9125 15.3182 16.1364 15.0943 16.1364 14.8182C16.1364 14.542 15.9125 14.3182 15.6364 14.3182V15.3182ZM12.9091 8.86364C12.6329 8.86364 12.4091 9.08749 12.4091 9.36364C12.4091 9.63978 12.6329 9.86364 12.9091 9.86364V8.86364ZM15.6364 9.86364C15.9125 9.86364 16.1364 9.63978 16.1364 9.36364C16.1364 9.08749 15.9125 8.86364 15.6364 8.86364V9.86364ZM6.09091 10.2727L6.58843 10.3225C6.60248 10.1819 6.55642 10.042 6.46164 9.93722C6.36685 9.83248 6.23217 9.77273 6.09091 9.77273V10.2727ZM5.94665 11.7154L6.44416 11.7651V11.7651L5.94665 11.7154ZM7.29594 17.4582L6.87263 17.7243L7.29594 17.4582ZM9.21341 21.4479C9.36038 21.6817 9.66904 21.7521 9.90282 21.6051C10.1366 21.4582 10.207 21.1495 10.06 20.9157L9.21341 21.4479ZM2.27631 13.1203L2.7644 13.2287V13.2287L2.27631 13.1203ZM1.51191 14.2552C1.452 14.5247 1.62197 14.7918 1.89153 14.8517C2.1611 14.9116 2.42819 14.7417 2.48809 14.4721L1.51191 14.2552ZM3.2299 10.6727L3.54276 11.0627V11.0627L3.2299 10.6727ZM5.1433 17.3683C5.29647 17.1385 5.23439 16.8281 5.00462 16.6749C4.77486 16.5217 4.46442 16.5838 4.31125 16.8136L5.1433 17.3683ZM1.58397 20.9045C1.4308 21.1342 1.49289 21.4447 1.72265 21.5978C1.95241 21.751 2.26285 21.6889 2.41603 21.4592L1.58397 20.9045ZM6.18182 9.77273C5.90568 9.77273 5.68182 9.99658 5.68182 10.2727C5.68182 10.5489 5.90568 10.7727 6.18182 10.7727V9.77273ZM9.99642 13.1203L9.50833 13.2287V13.2287L9.99642 13.1203ZM9.78463 14.4721C9.84454 14.7417 10.1116 14.9116 10.3812 14.8517C10.6508 14.7918 10.8207 14.5247 10.7608 14.2552L9.78463 14.4721ZM9.04283 10.6727L8.72997 11.0627V11.0627L9.04283 10.6727ZM13.4091 17.5455V6.63636H12.4091V17.5455H13.4091ZM16.5455 3.5L18.3636 3.5V2.5L16.5455 2.5L16.5455 3.5ZM21.5 6.63636V17.5455H22.5V6.63636H21.5ZM18.3636 20.6818H16.5455V21.6818H18.3636V20.6818ZM21.5 17.5455C21.5 18.4167 21.4989 19.0198 21.4379 19.4739C21.3788 19.9135 21.2718 20.1378 21.1139 20.2957L21.821 21.0028C22.1957 20.6282 22.355 20.1577 22.429 19.6071C22.5011 19.0709 22.5 18.3884 22.5 17.5455H21.5ZM18.3636 21.6818C19.2066 21.6818 19.8891 21.6829 20.4253 21.6108C20.9759 21.5368 21.4464 21.3775 21.821 21.0028L21.1139 20.2957C20.956 20.4536 20.7317 20.5606 20.2921 20.6197C19.838 20.6808 19.2349 20.6818 18.3636 20.6818V21.6818ZM18.3636 3.5C19.2349 3.5 19.838 3.50106 20.2921 3.56211C20.7317 3.62122 20.956 3.7282 21.1139 3.88609L21.821 3.17898C21.4464 2.80433 20.9759 2.64505 20.4253 2.57103C19.8891 2.49894 19.2066 2.5 18.3636 2.5V3.5ZM22.5 6.63636C22.5 5.7934 22.5011 5.11088 22.429 4.5747C22.355 4.02414 22.1957 3.55363 21.821 3.17898L21.1139 3.88609C21.2718 4.04397 21.3788 4.26828 21.4379 4.70795C21.4989 5.162 21.5 5.76513 21.5 6.63636H22.5ZM13.4091 6.63636C13.4091 5.76513 13.4102 5.162 13.4712 4.70795C13.5303 4.26828 13.6373 4.04397 13.7952 3.88609L13.0881 3.17898C12.7134 3.55363 12.5541 4.02414 12.4801 4.5747C12.408 5.11088 12.4091 5.7934 12.4091 6.63636H13.4091ZM16.5455 2.5C15.7025 2.5 15.02 2.49894 14.4838 2.57103C13.9332 2.64505 13.4627 2.80433 13.0881 3.17898L13.7952 3.88609C13.9531 3.72821 14.1774 3.62122 14.617 3.56211C15.0711 3.50106 15.6742 3.5 16.5455 3.5V2.5ZM12.4091 17.5455C12.4091 18.3884 12.408 19.0709 12.4801 19.6071C12.5541 20.1577 12.7134 20.6282 13.0881 21.0028L13.7952 20.2957C13.6373 20.1378 13.5303 19.9135 13.4712 19.4739C13.4102 19.0198 13.4091 18.4167 13.4091 17.5455H12.4091ZM16.5455 20.6818C15.6742 20.6818 15.0711 20.6808 14.617 20.6197C14.1774 20.5606 13.9531 20.4536 13.7952 20.2957L13.0881 21.0028C13.4627 21.3775 13.9332 21.5368 14.4838 21.6108C15.02 21.6829 15.7025 21.6818 16.5455 21.6818V20.6818ZM12.9091 12.5909H14.7273V11.5909H12.9091V12.5909ZM12.9091 7.13636L14.7273 7.13636V6.13636L12.9091 6.13636V7.13636ZM12.9091 18.0455L14.7273 18.0455L14.7273 17.0455L12.9091 17.0455L12.9091 18.0455ZM12.9091 15.3182H15.6364V14.3182H12.9091V15.3182ZM12.9091 9.86364L15.6364 9.86364V8.86364L12.9091 8.86364V9.86364ZM7.86364 5.27273C7.86364 6.25178 7.06996 7.04545 6.09091 7.04545V8.04545C7.62224 8.04545 8.86364 6.80406 8.86364 5.27273H7.86364ZM6.09091 7.04545C5.11186 7.04545 4.31818 6.25178 4.31818 5.27273H3.31818C3.31818 6.80406 4.55957 8.04545 6.09091 8.04545V7.04545ZM4.31818 5.27273C4.31818 4.29368 5.11186 3.5 6.09091 3.5V2.5C4.55957 2.5 3.31818 3.74139 3.31818 5.27273H4.31818ZM6.09091 3.5C7.06996 3.5 7.86364 4.29368 7.86364 5.27273H8.86364C8.86364 3.74139 7.62224 2.5 6.09091 2.5V3.5ZM5.59339 10.223L5.44913 11.6656L6.44416 11.7651L6.58843 10.3225L5.59339 10.223ZM6.87263 17.7243L9.21341 21.4479L10.06 20.9157L7.71924 17.1921L6.87263 17.7243ZM6.09091 9.77273H5.82608V10.7727H6.09091V9.77273ZM1.78821 13.0118L1.51191 14.2552L2.48809 14.4721L2.7644 13.2287L1.78821 13.0118ZM5.82608 9.77273C5.13926 9.77273 4.57929 9.77187 4.1303 9.82636C3.66778 9.88249 3.26603 10.0027 2.91703 10.2826L3.54276 11.0627C3.69232 10.9427 3.88945 10.8629 4.25078 10.8191C4.62563 10.7736 5.11447 10.7727 5.82608 10.7727V9.77273ZM2.7644 13.2287C2.91877 12.5341 3.02565 12.057 3.15138 11.701C3.27256 11.3578 3.39321 11.1826 3.54276 11.0627L2.91703 10.2826C2.56804 10.5626 2.36357 10.9287 2.20843 11.368C2.05784 11.7945 1.9372 12.3413 1.78821 13.0118L2.7644 13.2287ZM5.44913 11.6656C5.29874 13.1695 5.20588 14.0354 5.4027 14.8731L6.37619 14.6444C6.22631 14.0064 6.28715 13.3353 6.44416 11.7651L5.44913 11.6656ZM7.71924 17.1921C6.87943 15.8561 6.52607 15.2823 6.37619 14.6444L5.4027 14.8731C5.59952 15.7108 6.06825 16.4447 6.87263 17.7243L7.71924 17.1921ZM4.31125 16.8136L1.58397 20.9045L2.41603 21.4592L5.1433 17.3683L4.31125 16.8136ZM6.18182 10.7727H6.44665V9.77273H6.18182V10.7727ZM9.50833 13.2287L9.78463 14.4721L10.7608 14.2552L10.4845 13.0118L9.50833 13.2287ZM6.44665 10.7727C7.15825 10.7727 7.6471 10.7736 8.02195 10.8191C8.38327 10.8629 8.58041 10.9427 8.72997 11.0627L9.35569 10.2826C9.0067 10.0027 8.60495 9.88249 8.14243 9.82636C7.69343 9.77187 7.13346 9.77273 6.44665 9.77273V10.7727ZM10.4845 13.0118C10.3355 12.3413 10.2149 11.7945 10.0643 11.368C9.90916 10.9287 9.70469 10.5626 9.35569 10.2826L8.72997 11.0627C8.87952 11.1826 9.00016 11.3578 9.12135 11.701C9.24708 12.057 9.35396 12.5341 9.50833 13.2287L10.4845 13.0118Z" fill="#424242"/>
</svg>
