<svg width="24" height="24" viewBox="0 0 24 24" fill="none" xmlns="http://www.w3.org/2000/svg">
<path d="M12 11.9999H11.5V12.207L11.6464 12.3535L12 11.9999ZM12.5 7.99994C12.5 7.7238 12.2761 7.49994 12 7.49994C11.7239 7.49994 11.5 7.7238 11.5 7.99994H12.5ZM14.1464 14.8535C14.3417 15.0488 14.6583 15.0488 14.8536 14.8535C15.0488 14.6582 15.0488 14.3416 14.8536 14.1464L14.1464 14.8535ZM18.3319 5.6681L17.9783 6.02165V6.02165L18.3319 5.6681ZM5.60414 5.60414L5.25059 5.25059H5.25059L5.60414 5.60414ZM5.6681 18.3319L6.02165 17.9783V17.9783L5.6681 18.3319ZM18.3959 18.3959L18.7494 18.7494V18.7494L18.3959 18.3959ZM4.33776 6.87052L3.83777 6.87303C3.83914 7.14721 4.06107 7.36914 4.33525 7.37051L4.33776 6.87052ZM6.8808 7.38331C7.15694 7.38469 7.38192 7.16196 7.38331 6.88583C7.38469 6.60969 7.16196 6.38471 6.88583 6.38332L6.8808 7.38331ZM4.82496 4.32246C4.82357 4.04632 4.59859 3.82359 4.32246 3.82498C4.04632 3.82636 3.82359 4.05134 3.82497 4.32748L4.82496 4.32246ZM3.57892 10.751C3.61642 10.4774 3.42504 10.2252 3.15145 10.1877C2.87787 10.1502 2.62569 10.3416 2.58819 10.6152L3.57892 10.751ZM12.5 11.9999V7.99994H11.5V11.9999H12.5ZM11.6464 12.3535L14.1464 14.8535L14.8536 14.1464L12.3536 11.6464L11.6464 12.3535ZM18.6855 5.31455C14.9612 1.59031 8.9462 1.55497 5.25059 5.25059L5.95769 5.95769C9.2561 2.65929 14.6379 2.68122 17.9783 6.02165L18.6855 5.31455ZM5.31455 18.6855C9.03879 22.4097 15.0538 22.445 18.7494 18.7494L18.0423 18.0423C14.7439 21.3407 9.36208 21.3188 6.02165 17.9783L5.31455 18.6855ZM18.7494 18.7494C22.445 15.0538 22.4097 9.03879 18.6855 5.31455L17.9783 6.02165C21.3188 9.36209 21.3407 14.7439 18.0423 18.0423L18.7494 18.7494ZM5.25059 5.25059L3.98421 6.51697L4.69131 7.22407L5.95769 5.95769L5.25059 5.25059ZM4.33525 7.37051L6.8808 7.38331L6.88583 6.38332L4.34027 6.37053L4.33525 7.37051ZM4.83775 6.86801L4.82496 4.32246L3.82497 4.32748L3.83777 6.87303L4.83775 6.86801ZM2.58819 10.6152C2.197 13.4691 3.10791 16.4788 5.31455 18.6855L6.02165 17.9783C4.04386 16.0006 3.22871 13.306 3.57892 10.751L2.58819 10.6152Z" fill="#424242"/>
</svg>
