<svg width="24" height="24" viewBox="0 0 24 24" fill="none" xmlns="http://www.w3.org/2000/svg">
<path d="M7.88403 3.86687L8.14769 4.2917L7.88403 3.86687ZM16.116 3.86687L15.8523 4.2917V4.2917L16.116 3.86687ZM18.116 5.10812L18.3796 4.68329V4.68329L18.116 5.10812ZM5.88403 5.10813L6.1477 5.53296L5.88403 5.10813ZM15 18.5C15.2761 18.5 15.5 18.2761 15.5 18C15.5 17.7239 15.2761 17.5 15 17.5V18.5ZM9 17.5C8.72386 17.5 8.5 17.7239 8.5 18C8.5 18.2761 8.72386 18.5 9 18.5V17.5ZM14 21.5H10V22.5H14V21.5ZM6.1477 5.53296L8.14769 4.2917L7.62037 3.44204L5.62037 4.68329L6.1477 5.53296ZM15.8523 4.2917L17.8523 5.53296L18.3796 4.68329L16.3796 3.44204L15.8523 4.2917ZM2.5 13.725V12.2039H1.5V13.725H2.5ZM21.5 12.2039V13.725H22.5V12.2039H21.5ZM8.14769 4.2917C9.15909 3.664 9.8859 3.21364 10.4972 2.91637C11.0983 2.62407 11.5488 2.5 12 2.5V1.5C11.3433 1.5 10.7385 1.68707 10.0599 2.01707C9.39153 2.34208 8.61432 2.82516 7.62037 3.44204L8.14769 4.2917ZM16.3796 3.44204C15.3857 2.82516 14.6085 2.34208 13.9401 2.01707C13.2615 1.68707 12.6567 1.5 12 1.5V2.5C12.4512 2.5 12.9017 2.62407 13.5028 2.91637C14.1141 3.21364 14.8409 3.664 15.8523 4.2917L16.3796 3.44204ZM10 21.5C8.09977 21.5 6.72661 21.4989 5.67978 21.3533C4.64912 21.21 4.00921 20.9352 3.53105 20.4406L2.8121 21.1357C3.50551 21.8529 4.39419 22.1841 5.54204 22.3438C6.67373 22.5011 8.12899 22.5 10 22.5V21.5ZM1.5 13.725C1.5 15.6617 1.49901 17.1629 1.65062 18.3294C1.80388 19.5085 2.12097 20.4208 2.8121 21.1357L3.53105 20.4406C3.0506 19.9437 2.78191 19.2748 2.64228 18.2005C2.50099 17.1135 2.5 15.6891 2.5 13.725H1.5ZM14 22.5C15.871 22.5 17.3263 22.5011 18.458 22.3438C19.6058 22.1841 20.4945 21.8529 21.1879 21.1357L20.4689 20.4406C19.9908 20.9352 19.3509 21.21 18.3202 21.3533C17.2734 21.4989 15.9002 21.5 14 21.5V22.5ZM21.5 13.725C21.5 15.6891 21.499 17.1135 21.3577 18.2005C21.2181 19.2748 20.9494 19.9437 20.4689 20.4406L21.1879 21.1357C21.879 20.4208 22.1961 19.5085 22.3494 18.3294C22.501 17.1629 22.5 15.6617 22.5 13.725H21.5ZM17.8523 5.53296C18.809 6.12674 19.4959 6.55368 20.0111 6.94822C20.5172 7.33582 20.8273 7.6702 21.0422 8.06282L21.9194 7.58267C21.6151 7.02675 21.1913 6.59252 20.6191 6.15429C20.0559 5.723 19.32 5.2669 18.3796 4.68329L17.8523 5.53296ZM22.5 12.2039C22.5 11.069 22.5005 10.1835 22.4329 9.46409C22.3644 8.73456 22.2232 8.13775 21.9194 7.58267L21.0422 8.06282C21.2576 8.45627 21.376 8.90583 21.4373 9.55765C21.4995 10.2196 21.5 11.0504 21.5 12.2039H22.5ZM5.62037 4.68329C4.68002 5.2669 3.94407 5.723 3.3809 6.15429C2.80868 6.59252 2.3849 7.02675 2.08061 7.58267L2.95779 8.06282C3.1727 7.6702 3.4828 7.33582 3.98892 6.94822C4.50409 6.55368 5.19096 6.12674 6.1477 5.53296L5.62037 4.68329ZM2.5 12.2039C2.5 11.0504 2.50051 10.2196 2.56271 9.55765C2.62396 8.90583 2.74243 8.45627 2.95779 8.06282L2.08061 7.58267C1.77677 8.13775 1.63564 8.73456 1.56709 9.46409C1.49949 10.1835 1.5 11.069 1.5 12.2039H2.5ZM15 17.5H9V18.5H15V17.5Z" fill="#424242"/>
</svg>
