<svg width="24" height="24" viewBox="0 0 24 24" fill="none" xmlns="http://www.w3.org/2000/svg">
<path d="M8.52039 5.33341L8.27394 4.89837H8.27394L8.52039 5.33341ZM15.4794 5.33341L15.2329 5.76845V5.76845L15.4794 5.33341ZM14.5189 4.0606L14.0189 4.0606V4.0606H14.5189ZM9.9809 2.04541C9.9809 1.76927 9.75704 1.54541 9.4809 1.54541C9.20476 1.54541 8.9809 1.76927 8.9809 2.04541H9.9809ZM15.0189 2.04541C15.0189 1.76927 14.795 1.54541 14.5189 1.54541C14.2427 1.54541 14.0189 1.76927 14.0189 2.04541L15.0189 2.04541ZM8.55848 18.712L8.31202 19.147H8.31202L8.55848 18.712ZM15.5175 18.712L15.271 18.277V18.277L15.5175 18.712ZM14.557 19.9848H14.057V19.9848H14.557ZM9.01899 22C9.01899 22.2761 9.24285 22.5 9.51899 22.5C9.79513 22.5 10.019 22.2761 10.019 22H9.01899ZM14.057 22C14.057 22.2761 14.2808 22.5 14.557 22.5C14.8331 22.5 15.057 22.2761 15.057 22H14.057ZM11.4999 8.09098C11.4999 9.20604 10.596 10.11 9.4809 10.11V11.11C11.1482 11.11 12.4999 9.75832 12.4999 8.09098H11.4999ZM9.4809 10.11C8.36585 10.11 7.46191 9.20604 7.46191 8.09098H6.46191C6.46191 9.75832 7.81356 11.11 9.4809 11.11V10.11ZM7.46191 8.09098C7.46191 7.2054 8.02112 6.19092 8.76685 5.76845L8.27394 4.89837C7.1902 5.51232 6.46191 6.87442 6.46191 8.09098H7.46191ZM16.5379 8.09098C16.5379 9.20604 15.6339 10.11 14.5189 10.11V11.11C16.1862 11.11 17.5379 9.75832 17.5379 8.09098H16.5379ZM14.5189 10.11C13.4038 10.11 12.4999 9.20604 12.4999 8.09098H11.4999C11.4999 9.75832 12.8515 11.11 14.5189 11.11V10.11ZM15.2329 5.76845C15.9787 6.19092 16.5379 7.20539 16.5379 8.09098H17.5379C17.5379 6.87442 16.8096 5.51232 15.7258 4.89837L15.2329 5.76845ZM15.7258 4.89837C15.5182 4.78073 15.3309 4.6369 15.2008 4.4817C15.0723 4.32835 15.0189 4.18843 15.0189 4.0606H14.0189C14.0189 4.48925 14.2036 4.84859 14.4343 5.12395C14.6635 5.39746 14.9564 5.6118 15.2329 5.76845L15.7258 4.89837ZM8.76685 5.76845C9.04337 5.6118 9.3363 5.39746 9.56547 5.12394C9.79618 4.84859 9.9809 4.48925 9.9809 4.0606H8.9809C8.9809 4.18843 8.92745 4.32835 8.79896 4.4817C8.66892 4.6369 8.4816 4.78073 8.27394 4.89837L8.76685 5.76845ZM9.9809 4.0606V2.04541H8.9809V4.0606H9.9809ZM15.0189 4.0606L15.0189 2.04541L14.0189 2.04541L14.0189 4.0606L15.0189 4.0606ZM12.538 15.9544C12.538 14.2871 11.1863 12.9354 9.51899 12.9354V13.9354C10.634 13.9354 11.538 14.8394 11.538 15.9544H12.538ZM9.51899 12.9354C7.85165 12.9354 6.5 14.2871 6.5 15.9544H7.5C7.5 14.8394 8.40393 13.9354 9.51899 13.9354V12.9354ZM6.5 15.9544C6.5 17.171 7.22829 18.5331 8.31202 19.147L8.80493 18.277C8.05921 17.8545 7.5 16.84 7.5 15.9544H6.5ZM17.576 15.9544C17.576 14.2871 16.2243 12.9354 14.557 12.9354V13.9354C15.672 13.9354 16.576 14.8394 16.576 15.9544H17.576ZM14.557 12.9354C12.8896 12.9354 11.538 14.2871 11.538 15.9544H12.538C12.538 14.8394 13.4419 13.9354 14.557 13.9354V12.9354ZM15.7639 19.147C16.8477 18.5331 17.576 17.171 17.576 15.9544H16.576C16.576 16.84 16.0167 17.8545 15.271 18.277L15.7639 19.147ZM15.271 18.277C14.9945 18.4336 14.7016 18.648 14.4724 18.9215C14.2417 19.1968 14.057 19.5562 14.057 19.9848H15.057C15.057 19.857 15.1104 19.7171 15.2389 19.5637C15.3689 19.4085 15.5563 19.2647 15.7639 19.147L15.271 18.277ZM8.31202 19.147C8.51968 19.2647 8.70701 19.4085 8.83705 19.5637C8.96554 19.7171 9.01899 19.857 9.01899 19.9848H10.019C10.019 19.5562 9.83427 19.1968 9.60355 18.9215C9.37438 18.648 9.08146 18.4336 8.80493 18.277L8.31202 19.147ZM9.01899 19.9848V22H10.019V19.9848H9.01899ZM14.057 19.9848L14.057 22H15.057L15.057 19.9848H14.057ZM12 21.5C9.62884 21.5 7.90077 21.4989 6.58026 21.3214C5.27414 21.1458 4.44187 20.8058 3.81802 20.182L3.11091 20.8891C3.95153 21.7297 5.03 22.122 6.44702 22.3125C7.84965 22.5011 9.65711 22.5 12 22.5V21.5ZM1.5 12C1.5 14.3429 1.49894 16.1504 1.68752 17.553C1.87803 18.97 2.2703 20.0485 3.11091 20.8891L3.81802 20.182C3.19417 19.5581 2.8542 18.7259 2.6786 17.4197C2.50106 16.0992 2.5 14.3712 2.5 12H1.5ZM21.5 12C21.5 14.3712 21.4989 16.0992 21.3214 17.4197C21.1458 18.7259 20.8058 19.5581 20.182 20.182L20.8891 20.8891C21.7297 20.0485 22.122 18.97 22.3125 17.553C22.5011 16.1504 22.5 14.3429 22.5 12H21.5ZM12 22.5C14.3429 22.5 16.1504 22.5011 17.553 22.3125C18.97 22.122 20.0485 21.7297 20.8891 20.8891L20.182 20.182C19.5581 20.8058 18.7259 21.1458 17.4197 21.3214C16.0992 21.4989 14.3712 21.5 12 21.5V22.5ZM12 2.5C14.3712 2.5 16.0992 2.50106 17.4197 2.6786C18.7259 2.8542 19.5581 3.19417 20.182 3.81802L20.8891 3.11091C20.0485 2.2703 18.97 1.87803 17.553 1.68752C16.1504 1.49894 14.3429 1.5 12 1.5V2.5ZM22.5 12C22.5 9.65711 22.5011 7.84965 22.3125 6.44702C22.122 5.03 21.7297 3.95153 20.8891 3.11091L20.182 3.81802C20.8058 4.44187 21.1458 5.27414 21.3214 6.58026C21.4989 7.90077 21.5 9.62884 21.5 12H22.5ZM12 1.5C9.65711 1.5 7.84965 1.49894 6.44702 1.68752C5.03 1.87803 3.95153 2.2703 3.11091 3.11091L3.81802 3.81802C4.44187 3.19417 5.27414 2.8542 6.58026 2.6786C7.90077 2.50106 9.62884 2.5 12 2.5V1.5ZM2.5 12C2.5 9.62884 2.50106 7.90077 2.6786 6.58026C2.8542 5.27414 3.19417 4.44187 3.81802 3.81802L3.11091 3.11091C2.2703 3.95153 1.87803 5.03 1.68752 6.44702C1.49894 7.84965 1.5 9.65711 1.5 12H2.5Z" fill="#424242"/>
</svg>
