<svg width="24" height="24" viewBox="0 0 24 24" fill="none" xmlns="http://www.w3.org/2000/svg">
<path d="M14 2.00522C13.3848 2 12.7199 2 12 2C7.28595 2 4.92893 2 3.46447 3.46447C2 4.92893 2 7.28595 2 12C2 16.714 2 19.0711 3.46447 20.5355C4.92893 22 7.28595 22 12 22C16.714 22 19.0711 22 20.5355 20.5355C22 19.0711 22 16.714 22 12C22 11.2801 22 10.6152 21.9948 10M2 13H5.16026C6.06543 13 6.51802 13 6.91584 13.183C7.31367 13.3659 7.60821 13.7096 8.19729 14.3968L8.80271 15.1032C9.39179 15.7904 9.68633 16.1341 10.0842 16.317C10.482 16.5 10.9346 16.5 11.8397 16.5H12.1603C13.0654 16.5 13.518 16.5 13.9158 16.317C14.3137 16.1341 14.6082 15.7904 15.1973 15.1032L15.8027 14.3968C16.3918 13.7096 16.6863 13.3659 17.0842 13.183C17.482 13 17.9346 13 18.8397 13H22M22 5C22 6.65685 20.6569 8 19 8C17.3431 8 16 6.65685 16 5C16 3.34315 17.3431 2 19 2C20.6569 2 22 3.34315 22 5Z" stroke="#424242" stroke-linecap="round"/>
</svg>
