<svg width="24" height="24" viewBox="0 0 24 24" fill="none" xmlns="http://www.w3.org/2000/svg">
<path d="M4 14.5C3.72386 14.5 3.5 14.7239 3.5 15C3.5 15.2761 3.72386 15.5 4 15.5V14.5ZM20 15.5C20.2761 15.5 20.5 15.2761 20.5 15C20.5 14.7239 20.2761 14.5 20 14.5V15.5ZM14.5987 16.4013L14.2452 16.0477V16.0477L14.5987 16.4013ZM14.8284 16.1716L14.4749 15.818V15.818L14.8284 16.1716ZM9.15 16.25L8.78203 16.5885H8.78203L9.15 16.25ZM9.18546 16.2885L9.55342 15.95L9.55342 15.95L9.18546 16.2885ZM10.2809 17.2877L10.0567 17.7346V17.7346L10.2809 17.2877ZM10.4692 17.3703L10.6463 16.9027L10.6463 16.9027L10.4692 17.3703ZM13.5262 17.3082L13.3126 16.8561H13.3126L13.5262 17.3082ZM13.3458 17.3829L13.5144 17.8536H13.5144L13.3458 17.3829ZM16.0631 15.1522L15.8717 14.6903H15.8717L16.0631 15.1522ZM7.87676 15.1477L8.06536 14.6847H8.06536L7.87676 15.1477ZM7.97471 15.1907L7.76162 15.643H7.76162L7.97471 15.1907ZM4.5 15C4.5 15.2761 4.72386 15.5 5 15.5C5.27614 15.5 5.5 15.2761 5.5 15H4.5ZM18.5 15C18.5 15.2761 18.7239 15.5 19 15.5C19.2761 15.5 19.5 15.2761 19.5 15H18.5ZM4.5 14C4.5 14.2761 4.72386 14.5 5 14.5C5.27614 14.5 5.5 14.2761 5.5 14H4.5ZM18.5 14C18.5 14.2761 18.7239 14.5 19 14.5C19.2761 14.5 19.5 14.2761 19.5 14H18.5ZM4.5 11C4.5 11.2761 4.72386 11.5 5 11.5C5.27614 11.5 5.5 11.2761 5.5 11H4.5ZM18.5 11C18.5 11.2761 18.7239 11.5 19 11.5C19.2761 11.5 19.5 11.2761 19.5 11H18.5ZM12 21.5C9.62884 21.5 7.90077 21.4989 6.58026 21.3214C5.27414 21.1458 4.44187 20.8058 3.81802 20.182L3.11091 20.8891C3.95153 21.7297 5.03 22.122 6.44702 22.3125C7.84965 22.5011 9.65711 22.5 12 22.5V21.5ZM1.5 12C1.5 14.3429 1.49894 16.1504 1.68752 17.553C1.87803 18.97 2.2703 20.0485 3.11091 20.8891L3.81802 20.182C3.19417 19.5581 2.8542 18.7259 2.6786 17.4197C2.50106 16.0992 2.5 14.3712 2.5 12H1.5ZM21.5 12C21.5 14.3712 21.4989 16.0992 21.3214 17.4197C21.1458 18.7259 20.8058 19.5581 20.182 20.182L20.8891 20.8891C21.7297 20.0485 22.122 18.97 22.3125 17.553C22.5011 16.1504 22.5 14.3429 22.5 12H21.5ZM12 22.5C14.3429 22.5 16.1504 22.5011 17.553 22.3125C18.97 22.122 20.0485 21.7297 20.8891 20.8891L20.182 20.182C19.5581 20.8058 18.7259 21.1458 17.4197 21.3214C16.0992 21.4989 14.3712 21.5 12 21.5V22.5ZM12 2.5C14.3712 2.5 16.0992 2.50106 17.4197 2.6786C18.7259 2.8542 19.5581 3.19417 20.182 3.81802L20.8891 3.11091C20.0485 2.2703 18.97 1.87803 17.553 1.68752C16.1504 1.49894 14.3429 1.5 12 1.5V2.5ZM22.5 12C22.5 9.65711 22.5011 7.84965 22.3125 6.44702C22.122 5.03 21.7297 3.95153 20.8891 3.11091L20.182 3.81802C20.8058 4.44187 21.1458 5.27414 21.3214 6.58026C21.4989 7.90077 21.5 9.62884 21.5 12H22.5ZM12 1.5C9.65711 1.5 7.84965 1.49894 6.44702 1.68752C5.03 1.87803 3.95153 2.2703 3.11091 3.11091L3.81802 3.81802C4.44187 3.19417 5.27414 2.8542 6.58026 2.6786C7.90077 2.50106 9.62884 2.5 12 2.5V1.5ZM2.5 12C2.5 9.62884 2.50106 7.90077 2.6786 6.58026C2.8542 5.27414 3.19417 4.44187 3.81802 3.81802L3.11091 3.11091C2.2703 3.95153 1.87803 5.03 1.68752 6.44702C1.49894 7.84965 1.5 9.65711 1.5 12H2.5ZM4 15.5H6.30147V14.5H4V15.5ZM17.6569 15.5H20V14.5H17.6569V15.5ZM14.9523 16.7548L15.182 16.5251L14.4749 15.818L14.2452 16.0477L14.9523 16.7548ZM8.78203 16.5885L8.81749 16.6271L9.55342 15.95L9.51796 15.9115L8.78203 16.5885ZM8.81749 16.6271C9.30415 17.156 9.62858 17.5199 10.0567 17.7346L10.5051 16.8408C10.2787 16.7272 10.091 16.5344 9.55342 15.95L8.81749 16.6271ZM11.9462 17C11.1521 17 10.8831 16.9924 10.6463 16.9027L10.292 17.8379C10.74 18.0076 11.2274 18 11.9462 18V17ZM10.0567 17.7346C10.1333 17.7731 10.2119 17.8075 10.2921 17.8379L10.6463 16.9027C10.5982 16.8845 10.5511 16.8638 10.5051 16.8408L10.0567 17.7346ZM14.2452 16.0477C13.7145 16.5784 13.5298 16.7535 13.3126 16.8561L13.7399 17.7602C14.1506 17.5661 14.4716 17.2355 14.9523 16.7548L14.2452 16.0477ZM11.9462 18C12.6259 18 13.0867 18.0068 13.5144 17.8536L13.1773 16.9122C12.9511 16.9932 12.6967 17 11.9462 17V18ZM13.3126 16.8561C13.2684 16.877 13.2233 16.8957 13.1773 16.9122L13.5144 17.8536C13.591 17.8262 13.6663 17.795 13.7399 17.7602L13.3126 16.8561ZM17.6569 14.5C16.8801 14.5 16.3525 14.4911 15.8717 14.6903L16.2544 15.6142C16.5087 15.5089 16.7986 15.5 17.6569 15.5V14.5ZM15.182 16.5251C15.7889 15.9182 16.0001 15.7195 16.2544 15.6142L15.8717 14.6903C15.3909 14.8895 15.0241 15.2688 14.4749 15.818L15.182 16.5251ZM6.30147 15.5C7.15024 15.5 7.43725 15.5086 7.68816 15.6108L8.06536 14.6847C7.59079 14.4914 7.06944 14.5 6.30147 14.5V15.5ZM9.51797 15.9115C8.99801 15.3463 8.65136 14.9568 8.1878 14.7384L7.76162 15.643C8.00671 15.7585 8.20737 15.9639 8.78203 16.5885L9.51797 15.9115ZM7.68816 15.6108C7.71293 15.6209 7.73742 15.6316 7.76162 15.643L8.1878 14.7384C8.14748 14.7194 8.10665 14.7015 8.06536 14.6847L7.68816 15.6108ZM5.5 15V13.5H4.5V15H5.5ZM6.5 12.5H17.5V11.5H6.5V12.5ZM18.5 13.5V15H19.5V13.5H18.5ZM17.5 12.5C18.0523 12.5 18.5 12.9477 18.5 13.5H19.5C19.5 12.3954 18.6046 11.5 17.5 11.5V12.5ZM5.5 13.5C5.5 12.9477 5.94772 12.5 6.5 12.5V11.5C5.39543 11.5 4.5 12.3954 4.5 13.5H5.5ZM5.5 14V10.5H4.5V14H5.5ZM6.5 9.5H17.5V8.5H6.5V9.5ZM18.5 10.5V14H19.5V10.5H18.5ZM17.5 9.5C18.0523 9.5 18.5 9.94772 18.5 10.5H19.5C19.5 9.39543 18.6046 8.5 17.5 8.5V9.5ZM5.5 10.5C5.5 9.94772 5.94772 9.5 6.5 9.5V8.5C5.39543 8.5 4.5 9.39543 4.5 10.5H5.5ZM5.5 11V7.5H4.5V11H5.5ZM6.5 6.5H17.5V5.5H6.5V6.5ZM18.5 7.5V11H19.5V7.5H18.5ZM17.5 6.5C18.0523 6.5 18.5 6.94772 18.5 7.5H19.5C19.5 6.39543 18.6046 5.5 17.5 5.5V6.5ZM5.5 7.5C5.5 6.94772 5.94772 6.5 6.5 6.5V5.5C5.39543 5.5 4.5 6.39543 4.5 7.5H5.5Z" fill="#424242"/>
</svg>
