<svg width="24" height="24" viewBox="0 0 24 24" fill="none" xmlns="http://www.w3.org/2000/svg">
<path d="M12.5 2C12.5 1.72386 12.2761 1.5 12 1.5C11.7239 1.5 11.5 1.72386 11.5 2H12.5ZM12 10L11.6464 10.3536C11.8417 10.5488 12.1583 10.5488 12.3536 10.3536L12 10ZM15.3536 7.35355C15.5488 7.15829 15.5488 6.84171 15.3536 6.64645C15.1583 6.45118 14.8417 6.45118 14.6464 6.64645L15.3536 7.35355ZM9.35355 6.64645C9.15829 6.45118 8.84171 6.45118 8.64645 6.64645C8.45118 6.84171 8.45118 7.15829 8.64645 7.35355L9.35355 6.64645ZM2 12.5C1.72386 12.5 1.5 12.7239 1.5 13C1.5 13.2761 1.72386 13.5 2 13.5V12.5ZM22 13.5C22.2761 13.5 22.5 13.2761 22.5 13C22.5 12.7239 22.2761 12.5 22 12.5V13.5ZM15.1973 15.1032L15.5769 15.4286V15.4286L15.1973 15.1032ZM15.8027 14.3968L15.4231 14.0714V14.0714L15.8027 14.3968ZM8.19729 14.3968L7.81766 14.7222V14.7222L8.19729 14.3968ZM8.80271 15.1032L9.18234 14.7778V14.7778L8.80271 15.1032ZM10.0842 16.317L9.87523 16.7713V16.7713L10.0842 16.317ZM13.9158 16.317L14.1248 16.7713V16.7713L13.9158 16.317ZM6.91584 13.183L7.12477 12.7287H7.12477L6.91584 13.183ZM20.5355 3.46455L20.182 3.81811V3.81811L20.5355 3.46455ZM3.46447 3.46455L3.11091 3.111V3.111L3.46447 3.46455ZM17.0489 1.62935C16.7741 1.60232 16.5294 1.80319 16.5024 2.07801C16.4754 2.35282 16.6762 2.59752 16.9511 2.62455L17.0489 1.62935ZM7.04894 2.62455C7.32376 2.59752 7.52463 2.35282 7.4976 2.07801C7.47057 1.80319 7.22587 1.60232 6.95106 1.62935L7.04894 2.62455ZM11.5 2V10H12.5V2H11.5ZM12.3536 10.3536L15.3536 7.35355L14.6464 6.64645L11.6464 9.64645L12.3536 10.3536ZM12.3536 9.64645L9.35355 6.64645L8.64645 7.35355L11.6464 10.3536L12.3536 9.64645ZM2 13.5H5.16026V12.5H2V13.5ZM18.8397 13.5H22V12.5H18.8397V13.5ZM15.5769 15.4286L16.1823 14.7222L15.4231 14.0714L14.8177 14.7778L15.5769 15.4286ZM7.81766 14.7222L8.42309 15.4286L9.18234 14.7778L8.57691 14.0714L7.81766 14.7222ZM11.8397 17H12.1603V16H11.8397V17ZM8.42309 15.4286C8.98238 16.0811 9.35469 16.5319 9.87523 16.7713L10.2931 15.8628C10.018 15.7362 9.8012 15.4998 9.18234 14.7778L8.42309 15.4286ZM11.8397 16C10.8888 16 10.5682 15.9893 10.2931 15.8628L9.87523 16.7713C10.3958 17.0107 10.9803 17 11.8397 17V16ZM14.8177 14.7778C14.1988 15.4998 13.982 15.7362 13.7069 15.8628L14.1248 16.7713C14.6453 16.5319 15.0176 16.0811 15.5769 15.4286L14.8177 14.7778ZM12.1603 17C13.0197 17 13.6042 17.0107 14.1248 16.7713L13.7069 15.8628C13.4318 15.9893 13.1112 16 12.1603 16V17ZM18.8397 12.5C17.9803 12.5 17.3958 12.4893 16.8752 12.7287L17.2931 13.6372C17.5682 13.5107 17.8888 13.5 18.8397 13.5V12.5ZM16.1823 14.7222C16.8012 14.0002 17.018 13.7638 17.2931 13.6372L16.8752 12.7287C16.3547 12.9681 15.9824 13.4189 15.4231 14.0714L16.1823 14.7222ZM5.16026 13.5C6.11119 13.5 6.4318 13.5107 6.70692 13.6372L7.12477 12.7287C6.60424 12.4893 6.01967 12.5 5.16026 12.5V13.5ZM8.57691 14.0714C8.01762 13.4189 7.64531 12.9681 7.12477 12.7287L6.70692 13.6372C6.98203 13.7638 7.1988 14.0002 7.81766 14.7222L8.57691 14.0714ZM12 21.5001C9.62884 21.5001 7.90077 21.499 6.58026 21.3215C5.27414 21.1459 4.44187 20.8059 3.81802 20.1821L3.11091 20.8892C3.95153 21.7298 5.03 22.1221 6.44702 22.3126C7.84965 22.5012 9.65711 22.5001 12 22.5001V21.5001ZM1.5 12.0001C1.5 14.343 1.49894 16.1504 1.68752 17.5531C1.87803 18.9701 2.2703 20.0486 3.11091 20.8892L3.81802 20.1821C3.19417 19.5582 2.8542 18.7259 2.6786 17.4198C2.50106 16.0993 2.5 14.3712 2.5 12.0001H1.5ZM21.5 12.0001C21.5 14.3712 21.4989 16.0993 21.3214 17.4198C21.1458 18.7259 20.8058 19.5582 20.182 20.1821L20.8891 20.8892C21.7297 20.0486 22.122 18.9701 22.3125 17.5531C22.5011 16.1504 22.5 14.343 22.5 12.0001H21.5ZM12 22.5001C14.3429 22.5001 16.1504 22.5012 17.553 22.3126C18.97 22.1221 20.0485 21.7298 20.8891 20.8892L20.182 20.1821C19.5581 20.8059 18.7259 21.1459 17.4197 21.3215C16.0992 21.499 14.3712 21.5001 12 21.5001V22.5001ZM22.5 12.0001C22.5 9.6572 22.5011 7.84974 22.3125 6.4471C22.122 5.03009 21.7297 3.95162 20.8891 3.111L20.182 3.81811C20.8058 4.44196 21.1458 5.27423 21.3214 6.58035C21.4989 7.90086 21.5 9.62893 21.5 12.0001H22.5ZM2.5 12.0001C2.5 9.62893 2.50106 7.90086 2.6786 6.58035C2.8542 5.27423 3.19417 4.44196 3.81802 3.81811L3.11091 3.111C2.2703 3.95162 1.87803 5.03009 1.68752 6.4471C1.49894 7.84974 1.5 9.6572 1.5 12.0001H2.5ZM16.9511 2.62455C18.5324 2.78009 19.4867 3.12278 20.182 3.81811L20.8891 3.111C19.9515 2.17337 18.7179 1.79352 17.0489 1.62935L16.9511 2.62455ZM6.95106 1.62935C5.28208 1.79352 4.04854 2.17337 3.11091 3.111L3.81802 3.81811C4.51334 3.12278 5.46763 2.78009 7.04894 2.62455L6.95106 1.62935Z" fill="#424242"/>
</svg>
