<svg width="24" height="24" viewBox="0 0 24 24" fill="none" xmlns="http://www.w3.org/2000/svg">
<path d="M20.5355 3.46447L20.182 3.81802V3.81802L20.5355 3.46447ZM3.46447 3.46447L3.11091 3.11091V3.11091L3.46447 3.46447ZM17.0489 1.62927C16.7741 1.60224 16.5294 1.8031 16.5024 2.07792C16.4754 2.35274 16.6762 2.59743 16.9511 2.62446L17.0489 1.62927ZM7.04894 2.62446C7.32376 2.59743 7.52463 2.35274 7.4976 2.07792C7.47057 1.8031 7.22587 1.60224 6.95106 1.62927L7.04894 2.62446ZM11.5 10C11.5 10.2761 11.7239 10.5 12 10.5C12.2761 10.5 12.5 10.2761 12.5 10H11.5ZM12 2L12.3536 1.64645C12.1583 1.45118 11.8417 1.45118 11.6464 1.64645L12 2ZM14.6464 5.35355C14.8417 5.54882 15.1583 5.54882 15.3536 5.35355C15.5488 5.15829 15.5488 4.84171 15.3536 4.64645L14.6464 5.35355ZM8.64645 4.64645C8.45118 4.84171 8.45118 5.15829 8.64645 5.35355C8.84171 5.54882 9.15829 5.54882 9.35355 5.35355L8.64645 4.64645ZM2 12.5C1.72386 12.5 1.5 12.7239 1.5 13C1.5 13.2761 1.72386 13.5 2 13.5V12.5ZM22 13.5C22.2761 13.5 22.5 13.2761 22.5 13C22.5 12.7239 22.2761 12.5 22 12.5V13.5ZM15.1973 15.1032L15.5769 15.4286V15.4286L15.1973 15.1032ZM15.8027 14.3968L15.4231 14.0714V14.0714L15.8027 14.3968ZM8.19729 14.3968L7.81766 14.7222V14.7222L8.19729 14.3968ZM8.80271 15.1032L9.18234 14.7778V14.7778L8.80271 15.1032ZM10.0842 16.317L9.87523 16.7713V16.7713L10.0842 16.317ZM13.9158 16.317L14.1248 16.7713V16.7713L13.9158 16.317ZM6.91584 13.183L7.12477 12.7287H7.12477L6.91584 13.183ZM12 21.5C9.62884 21.5 7.90077 21.4989 6.58026 21.3214C5.27414 21.1458 4.44187 20.8058 3.81802 20.182L3.11091 20.8891C3.95153 21.7297 5.03 22.122 6.44702 22.3125C7.84965 22.5011 9.65711 22.5 12 22.5V21.5ZM1.5 12C1.5 14.3429 1.49894 16.1504 1.68752 17.553C1.87803 18.97 2.2703 20.0485 3.11091 20.8891L3.81802 20.182C3.19417 19.5581 2.8542 18.7259 2.6786 17.4197C2.50106 16.0992 2.5 14.3712 2.5 12H1.5ZM21.5 12C21.5 14.3712 21.4989 16.0992 21.3214 17.4197C21.1458 18.7259 20.8058 19.5581 20.182 20.182L20.8891 20.8891C21.7297 20.0485 22.122 18.97 22.3125 17.553C22.5011 16.1504 22.5 14.3429 22.5 12H21.5ZM12 22.5C14.3429 22.5 16.1504 22.5011 17.553 22.3125C18.97 22.122 20.0485 21.7297 20.8891 20.8891L20.182 20.182C19.5581 20.8058 18.7259 21.1458 17.4197 21.3214C16.0992 21.4989 14.3712 21.5 12 21.5V22.5ZM22.5 12C22.5 9.65711 22.5011 7.84965 22.3125 6.44702C22.122 5.03 21.7297 3.95153 20.8891 3.11091L20.182 3.81802C20.8058 4.44187 21.1458 5.27414 21.3214 6.58026C21.4989 7.90077 21.5 9.62884 21.5 12H22.5ZM2.5 12C2.5 9.62884 2.50106 7.90077 2.6786 6.58026C2.8542 5.27414 3.19417 4.44187 3.81802 3.81802L3.11091 3.11091C2.2703 3.95153 1.87803 5.03 1.68752 6.44702C1.49894 7.84965 1.5 9.65711 1.5 12H2.5ZM16.9511 2.62446C18.5324 2.78001 19.4867 3.1227 20.182 3.81802L20.8891 3.11091C19.9515 2.17328 18.7179 1.79343 17.0489 1.62927L16.9511 2.62446ZM6.95106 1.62927C5.28208 1.79343 4.04854 2.17328 3.11091 3.11091L3.81802 3.81802C4.51334 3.1227 5.46763 2.78001 7.04894 2.62446L6.95106 1.62927ZM12.5 10V2H11.5V10H12.5ZM11.6464 2.35355L14.6464 5.35355L15.3536 4.64645L12.3536 1.64645L11.6464 2.35355ZM11.6464 1.64645L8.64645 4.64645L9.35355 5.35355L12.3536 2.35355L11.6464 1.64645ZM2 13.5H5.16026V12.5H2V13.5ZM18.8397 13.5H22V12.5H18.8397V13.5ZM15.5769 15.4286L16.1823 14.7222L15.4231 14.0714L14.8177 14.7778L15.5769 15.4286ZM7.81766 14.7222L8.42309 15.4286L9.18234 14.7778L8.57691 14.0714L7.81766 14.7222ZM11.8397 17H12.1603V16H11.8397V17ZM8.42309 15.4286C8.98238 16.0811 9.35469 16.5319 9.87523 16.7713L10.2931 15.8628C10.018 15.7362 9.8012 15.4998 9.18234 14.7778L8.42309 15.4286ZM11.8397 16C10.8888 16 10.5682 15.9893 10.2931 15.8628L9.87523 16.7713C10.3958 17.0107 10.9803 17 11.8397 17V16ZM14.8177 14.7778C14.1988 15.4998 13.982 15.7362 13.7069 15.8628L14.1248 16.7713C14.6453 16.5319 15.0176 16.0811 15.5769 15.4286L14.8177 14.7778ZM12.1603 17C13.0197 17 13.6042 17.0107 14.1248 16.7713L13.7069 15.8628C13.4318 15.9893 13.1112 16 12.1603 16V17ZM18.8397 12.5C17.9803 12.5 17.3958 12.4893 16.8752 12.7287L17.2931 13.6372C17.5682 13.5107 17.8888 13.5 18.8397 13.5V12.5ZM16.1823 14.7222C16.8012 14.0002 17.018 13.7638 17.2931 13.6372L16.8752 12.7287C16.3547 12.9681 15.9824 13.4189 15.4231 14.0714L16.1823 14.7222ZM5.16026 13.5C6.11119 13.5 6.4318 13.5107 6.70692 13.6372L7.12477 12.7287C6.60424 12.4893 6.01967 12.5 5.16026 12.5V13.5ZM8.57691 14.0714C8.01762 13.4189 7.64531 12.9681 7.12477 12.7287L6.70692 13.6372C6.98203 13.7638 7.1988 14.0002 7.81766 14.7222L8.57691 14.0714Z" fill="#424242"/>
</svg>
