<svg width="24" height="24" viewBox="0 0 24 24" fill="none" xmlns="http://www.w3.org/2000/svg">
<path d="M14 17.5C14 19.433 15.567 21 17.5 21C19.433 21 21 19.433 21 17.5C21 15.567 19.433 14 17.5 14C15.567 14 14 15.567 14 17.5ZM14 17.5L13.3416 17.1707C12.4971 16.7484 11.5029 16.7484 10.6584 17.1707L10 17.5M2 11H22M4 11L4.6138 8.54479C5.15947 6.36211 5.43231 5.27077 6.24609 4.63538C7.05988 4 8.1848 4 10.4347 4H13.5653C15.8152 4 16.9401 4 17.7539 4.63538C18.5677 5.27077 18.8405 6.36211 19.3862 8.54479L20 11M10 17.5C10 19.433 8.433 21 6.5 21C4.567 21 3 19.433 3 17.5C3 15.567 4.567 14 6.5 14C8.433 14 10 15.567 10 17.5Z" stroke="#424242" stroke-linecap="round"/>
</svg>
