<svg width="24" height="24" viewBox="0 0 24 24" fill="none" xmlns="http://www.w3.org/2000/svg">
<mask id="path-1-inside-1_73_7686" fill="white">
<path d="M10.8318 4.24299L11.0477 4.06783C11.1014 4.02436 11.1674 4.00052 11.2355 4.00002C11.3036 3.99952 11.37 4.02239 11.4243 4.06506L11.498 4.12311C11.5389 4.1551 11.5668 4.20177 11.5762 4.25398C11.5857 4.30619 11.576 4.36019 11.5491 4.40539C11.5163 4.46092 11.4999 4.52522 11.5019 4.59034C11.5039 4.65545 11.5243 4.71852 11.5605 4.77174L11.705 4.98421C11.7524 5.0538 11.8192 5.10668 11.8965 5.13574V5.54445C11.8035 5.69259 11.6584 5.79723 11.4921 5.8361C11.4797 5.83863 11.4672 5.84071 11.4547 5.84234C11.3732 5.85338 11.2904 5.83752 11.2181 5.79701C11.1457 5.7565 11.0875 5.69339 11.0517 5.61663C11.0108 5.53795 10.9948 5.44789 11.006 5.35924C11.0172 5.27059 11.0551 5.18786 11.1142 5.12278C11.1266 5.10911 11.1363 5.09302 11.1427 5.07543C11.1491 5.05785 11.1521 5.03913 11.1515 5.02034C11.151 5.00155 11.1468 4.98307 11.1393 4.96596C11.1318 4.94885 11.1211 4.93344 11.1078 4.92063C11.0946 4.90782 11.079 4.89786 11.062 4.89132C11.045 4.88478 11.027 4.88178 11.0088 4.88251C10.9907 4.88324 10.9729 4.88768 10.9565 4.89557C10.94 4.90346 10.9253 4.91465 10.913 4.92849C10.8156 5.03653 10.753 5.17338 10.7341 5.32C10.7151 5.46662 10.7406 5.61574 10.8071 5.74661C10.8516 5.83873 10.9153 5.91947 10.9935 5.983C11.0717 6.04653 11.1625 6.09128 11.2594 6.11403C11.2933 6.29414 11.3837 6.45754 11.5165 6.57874C11.6494 6.69994 11.8171 6.77211 11.9937 6.78401C12.0082 6.78485 12.0226 6.78527 12.0369 6.78527C12.2213 6.78279 12.3994 6.71481 12.5414 6.59265C12.6834 6.4705 12.7807 6.30156 12.8172 6.11399C12.9131 6.09102 13.0029 6.04614 13.0799 5.98261C13.157 5.91908 13.2194 5.83851 13.2626 5.74678C13.3289 5.61452 13.3539 5.46414 13.3342 5.31647C13.3144 5.16881 13.2509 5.03118 13.1523 4.92266C13.1274 4.89551 13.0931 4.87967 13.0569 4.87859C13.0207 4.87751 12.9856 4.89126 12.9591 4.91688C12.9327 4.94249 12.917 4.97789 12.9156 5.01539C12.9142 5.05289 12.927 5.08948 12.9514 5.1172C13.0117 5.18282 13.0505 5.26645 13.0624 5.35623C13.0743 5.44602 13.0586 5.53741 13.0177 5.61745C12.9819 5.69402 12.9238 5.75698 12.8516 5.7974C12.7795 5.83783 12.6969 5.85368 12.6155 5.8427C12.6022 5.841 12.5889 5.83881 12.5757 5.83614C12.4094 5.79726 12.2644 5.6926 12.1714 5.54445V5.1357C12.2486 5.10665 12.3154 5.05379 12.3629 4.98421L12.5073 4.77174C12.5436 4.71852 12.5639 4.65544 12.566 4.59032C12.568 4.5252 12.5516 4.46089 12.5187 4.40535C12.4918 4.36015 12.4821 4.30616 12.4916 4.25395C12.501 4.20174 12.5289 4.15507 12.5698 4.12307L12.6436 4.06506C12.6979 4.02239 12.7643 3.99952 12.8324 4.00003C12.9005 4.00054 12.9665 4.02439 13.0202 4.06788L13.2361 4.24303C13.2648 4.26631 13.3013 4.2768 13.3375 4.27219C13.3736 4.26759 13.4066 4.24826 13.429 4.21847C13.4515 4.18867 13.4616 4.15085 13.4571 4.11332C13.4527 4.07579 13.4341 4.04162 13.4053 4.01834L13.1894 3.84323C13.088 3.76101 12.9631 3.71591 12.8343 3.71495C12.7055 3.71399 12.5801 3.75723 12.4775 3.83794L12.4037 3.89598C12.3083 3.9706 12.2432 4.07944 12.2212 4.20121C12.1991 4.32298 12.2216 4.4489 12.2843 4.55435C12.2891 4.56239 12.2915 4.57171 12.2912 4.58115C12.2909 4.59058 12.2879 4.59972 12.2827 4.60743L12.1382 4.81989C12.1264 4.83722 12.1108 4.85136 12.0927 4.86112C12.0745 4.87089 12.0544 4.87598 12.0339 4.87598C12.0135 4.87598 11.9933 4.87089 11.9752 4.86112C11.957 4.85136 11.9414 4.83722 11.9296 4.81989L11.7852 4.60743C11.7799 4.59973 11.777 4.5906 11.7767 4.58117C11.7764 4.57174 11.7788 4.56243 11.7835 4.55439C11.8462 4.44894 11.8688 4.323 11.8467 4.20122C11.8246 4.07944 11.7595 3.9706 11.6641 3.89598L11.5904 3.83794C11.4878 3.75724 11.3623 3.71401 11.2336 3.71497C11.1048 3.71593 10.9799 3.76102 10.8784 3.84323L10.6625 4.01838C10.6346 4.04195 10.6167 4.07592 10.6127 4.113C10.6087 4.15008 10.6188 4.18732 10.641 4.21672C10.6631 4.24612 10.6955 4.26534 10.7312 4.27025C10.7668 4.27516 10.803 4.26537 10.8318 4.24299ZM12.0339 5.82229C12.1622 5.9724 12.3338 6.07542 12.5232 6.11598C12.5263 6.11663 12.5294 6.11696 12.5326 6.11757C12.4979 6.2321 12.4279 6.33158 12.3332 6.4006C12.2385 6.46961 12.1245 6.50432 12.0089 6.49932C11.9034 6.49073 11.8028 6.44968 11.7199 6.38141C11.6371 6.31315 11.5757 6.22078 11.5438 6.11614L11.5446 6.11602C11.734 6.07544 11.9057 5.97241 12.0339 5.82229ZM8.69377 10.6316C8.76757 10.527 8.79838 10.3964 8.77944 10.2683C8.7605 10.1402 8.69335 10.0251 8.59273 9.94832C8.56334 9.92608 8.52665 9.91683 8.49069 9.9226C8.45474 9.92838 8.42246 9.9487 8.40093 9.97913C8.3794 10.0096 8.37038 10.0476 8.37585 10.0849C8.38131 10.1222 8.40082 10.1558 8.43009 10.1782C8.47207 10.2101 8.5001 10.2581 8.50801 10.3115C8.51591 10.3649 8.50305 10.4193 8.47224 10.4629C8.44144 10.5064 8.39521 10.5355 8.34374 10.5437C8.29227 10.5519 8.23977 10.5386 8.19778 10.5066C8.16838 10.4846 8.1318 10.4755 8.09598 10.4814C8.06017 10.4872 8.02804 10.5075 8.00658 10.5378C7.98513 10.5682 7.97608 10.606 7.98142 10.6432C7.98676 10.6804 8.00606 10.7139 8.0351 10.7364C8.13588 10.813 8.26185 10.845 8.38534 10.8253C8.50883 10.8057 8.61976 10.736 8.69377 10.6316ZM8.39785 8.0737C8.42107 8.07728 8.44451 8.07908 8.46798 8.07908C8.55519 8.07886 8.64063 8.05356 8.7148 8.00597C8.78897 7.95838 8.84896 7.89039 8.88809 7.80954C8.92722 7.72869 8.94396 7.63817 8.93645 7.54804C8.92893 7.45791 8.89746 7.37172 8.84554 7.29904C8.83478 7.284 8.82128 7.2713 8.8058 7.26168C8.79032 7.25205 8.77316 7.24568 8.75531 7.24293C8.73745 7.24018 8.71925 7.24111 8.70174 7.24566C8.68424 7.25021 8.66776 7.25829 8.65326 7.26944C8.63877 7.2806 8.62653 7.2946 8.61725 7.31066C8.60797 7.32672 8.60183 7.34452 8.59918 7.36304C8.59653 7.38156 8.59742 7.40044 8.60181 7.4186C8.60619 7.43677 8.61398 7.45385 8.62474 7.46889C8.65575 7.51228 8.66888 7.56668 8.66123 7.62011C8.65358 7.67354 8.62579 7.72163 8.58396 7.7538C8.54213 7.78597 8.48969 7.79959 8.43818 7.79166C8.38668 7.78372 8.34032 7.75489 8.3093 7.7115C8.28759 7.68113 8.25513 7.66095 8.21907 7.6554C8.18302 7.64985 8.14631 7.65938 8.11703 7.68191C8.08775 7.70443 8.06829 7.7381 8.06294 7.7755C8.05759 7.81291 8.06679 7.85098 8.0885 7.88136C8.12524 7.93304 8.1715 7.97665 8.2246 8.00967C8.2777 8.04268 8.33659 8.06445 8.39785 8.0737ZM8.52441 9.308C8.59927 9.20419 8.63132 9.07378 8.6135 8.94546C8.59568 8.81715 8.52945 8.70143 8.42938 8.62376C8.41494 8.61238 8.39847 8.60408 8.38093 8.59933C8.36338 8.59458 8.3451 8.59348 8.32714 8.5961C8.30918 8.59871 8.2919 8.60498 8.27629 8.61456C8.26068 8.62413 8.24705 8.63682 8.23619 8.65188C8.22532 8.66694 8.21744 8.68409 8.213 8.70232C8.20855 8.72056 8.20763 8.73953 8.21028 8.75814C8.21293 8.77675 8.21911 8.79463 8.22846 8.81075C8.2378 8.82687 8.25013 8.84091 8.26473 8.85207C8.28538 8.86809 8.30278 8.88818 8.31594 8.91118C8.3291 8.93418 8.33777 8.95964 8.34144 8.98611C8.34512 9.01259 8.34373 9.03955 8.33736 9.06547C8.33099 9.09138 8.31976 9.11575 8.30431 9.13716C8.28887 9.15858 8.26951 9.17663 8.24733 9.19028C8.22516 9.20393 8.20062 9.21292 8.1751 9.21674C8.14958 9.22055 8.12358 9.21911 8.0986 9.2125C8.07361 9.20589 8.05013 9.19424 8.02948 9.17822C8.0003 9.15557 7.96363 9.14587 7.92755 9.15126C7.89147 9.15665 7.85893 9.17668 7.83709 9.20696C7.81525 9.23723 7.8059 9.27527 7.8111 9.3127C7.81629 9.35012 7.83561 9.38388 7.86479 9.40653C7.96491 9.48407 8.09059 9.51724 8.21426 9.49876C8.33792 9.48028 8.44947 9.4117 8.52441 9.308ZM15.8187 10.5066C15.7979 10.5224 15.7743 10.5338 15.7493 10.5402C15.7242 10.5466 15.6982 10.5477 15.6727 10.5437C15.6472 10.5396 15.6228 10.5304 15.6007 10.5165C15.5787 10.5027 15.5595 10.4844 15.5442 10.4629C15.529 10.4413 15.5179 10.4169 15.5118 10.3909C15.5057 10.3649 15.5045 10.3379 15.5084 10.3115C15.5123 10.285 15.5212 10.2597 15.5346 10.2368C15.548 10.2139 15.5655 10.194 15.5863 10.1782C15.601 10.1672 15.6135 10.1532 15.623 10.1372C15.6325 10.1212 15.6388 10.1033 15.6417 10.0847C15.6445 10.0662 15.6437 10.0472 15.6395 10.0289C15.6352 10.0106 15.6274 9.99336 15.6167 9.97819C15.6059 9.96302 15.5924 9.9502 15.5769 9.94048C15.5613 9.93076 15.5441 9.92433 15.5262 9.92156C15.5082 9.91879 15.4899 9.91973 15.4723 9.92433C15.4547 9.92893 15.4382 9.9371 15.4236 9.94836C15.3485 10.0056 15.2914 10.0846 15.2596 10.1754C15.2278 10.2663 15.2226 10.3649 15.2448 10.4588C15.267 10.5527 15.3155 10.6377 15.3843 10.7029C15.453 10.7682 15.5389 10.8109 15.631 10.8256C15.655 10.8294 15.6792 10.8313 15.7035 10.8313C15.8034 10.8313 15.9008 10.7981 15.9812 10.7365C16.0102 10.7139 16.0294 10.6805 16.0347 10.6433C16.04 10.6062 16.031 10.5684 16.0096 10.5381C15.9882 10.5078 15.9561 10.4875 15.9204 10.4816C15.8846 10.4757 15.8481 10.4847 15.8187 10.5066ZM12.0339 9.7014C12.1589 9.70126 12.2786 9.64971 12.367 9.55808C12.4553 9.46644 12.505 9.34219 12.5051 9.2126C12.5051 9.17479 12.4907 9.13853 12.4649 9.11179C12.4391 9.08505 12.4042 9.07003 12.3677 9.07003C12.3313 9.07003 12.2963 9.08505 12.2705 9.11179C12.2447 9.13853 12.2303 9.17479 12.2303 9.2126C12.2303 9.26662 12.2096 9.31842 12.1728 9.35661C12.1359 9.39481 12.086 9.41627 12.0339 9.41627C11.9819 9.41627 11.9319 9.39481 11.8951 9.35661C11.8583 9.31842 11.8376 9.26662 11.8376 9.2126C11.8376 9.17479 11.8231 9.13853 11.7973 9.11179C11.7716 9.08505 11.7366 9.07003 11.7002 9.07003C11.6637 9.07003 11.6287 9.08505 11.603 9.11179C11.5772 9.13853 11.5627 9.17479 11.5627 9.2126C11.5629 9.34219 11.6125 9.46644 11.7009 9.55808C11.7892 9.64971 11.909 9.70126 12.0339 9.7014ZM15.9869 9.17822C15.9452 9.21058 15.8928 9.22444 15.8413 9.21674C15.7897 9.20904 15.7433 9.18041 15.7121 9.13716C15.6809 9.09391 15.6675 9.03958 15.6749 8.98611C15.6824 8.93265 15.71 8.88443 15.7516 8.85207C15.7808 8.82942 15.8001 8.79566 15.8053 8.75824C15.8105 8.72081 15.8012 8.68277 15.7793 8.6525C15.7575 8.62222 15.725 8.60219 15.6889 8.5968C15.6528 8.59141 15.6161 8.60111 15.587 8.62376C15.5374 8.66222 15.4956 8.71042 15.4641 8.76561C15.4325 8.82081 15.4117 8.88192 15.4028 8.94546C15.394 9.00899 15.3974 9.07371 15.4126 9.13591C15.4279 9.19811 15.4549 9.25658 15.492 9.30798C15.5668 9.41178 15.6784 9.48048 15.8021 9.49896C15.8633 9.50811 15.9257 9.50466 15.9857 9.4888C16.0456 9.47294 16.102 9.44499 16.1515 9.40653C16.1661 9.39537 16.1785 9.38133 16.1878 9.36521C16.1972 9.34909 16.2033 9.33121 16.206 9.3126C16.2087 9.29399 16.2077 9.27502 16.2033 9.25678C16.1988 9.23855 16.191 9.2214 16.1801 9.20634C16.1692 9.19128 16.1556 9.17859 16.14 9.16902C16.1244 9.15944 16.1071 9.15317 16.0891 9.15056C16.0712 9.14794 16.0529 9.14904 16.0354 9.15379C16.0178 9.15854 16.0013 9.16684 15.9869 9.17822ZM17.0618 7.48185C17.1677 7.48191 17.2722 7.45814 17.3683 7.41219C17.4645 7.36624 17.5498 7.2992 17.6185 7.2157L18.3587 6.31834C18.4789 6.17191 18.5413 5.98369 18.5332 5.79151C18.5252 5.59933 18.4473 5.41743 18.3153 5.28238L18.127 5.09052L18.1055 4.77382C18.0918 4.57285 18.011 4.38312 17.8769 4.23735C17.7428 4.09158 17.5639 3.9989 17.371 3.97529L17.2469 3.96022C17.1036 3.94315 16.9723 3.86896 16.8808 3.75333L16.5289 3.31007C16.405 3.1539 16.2393 3.03923 16.0528 2.98049C15.8662 2.92175 15.6671 2.92157 15.4804 2.97997L14.4053 3.31684C14.3405 3.05752 14.1946 2.82783 13.9905 2.66376C13.7863 2.49968 13.5355 2.41049 13.2773 2.41016H10.7906C10.5339 2.41051 10.2846 2.49865 10.0811 2.66091C9.8776 2.82318 9.73137 3.05051 9.66505 3.30771L8.58724 2.97989C8.40058 2.92155 8.20145 2.92177 8.01492 2.98054C7.82838 3.03931 7.66277 3.15399 7.53892 3.31016L7.18708 3.75333C7.09553 3.86897 6.96422 3.94316 6.82091 3.96022L6.69671 3.97529C6.50387 3.99892 6.32502 4.09159 6.19097 4.23733C6.05692 4.38306 5.97608 4.57273 5.96237 4.77366L5.94089 5.09048L5.75272 5.28229C5.62064 5.41733 5.54272 5.59922 5.53463 5.79141C5.52655 5.9836 5.58889 6.17185 5.70913 6.3183L6.44932 7.21561C6.56061 7.35089 6.71417 7.44133 6.88319 7.47112C7.05221 7.50092 7.22595 7.46818 7.37407 7.37863L7.58474 7.25154L7.19093 9.06763C7.12073 9.39203 7.1166 9.72806 7.17881 10.0542C7.24102 10.3804 7.36819 10.6895 7.55219 10.9617L8.29238 12.0567C8.35538 12.1493 8.44001 12.2239 8.53835 12.2734V15.5796C8.53863 15.6639 8.51264 15.746 8.46427 15.8137C8.41589 15.8814 8.34772 15.9311 8.26992 15.9553L8.05489 16.0237C7.92068 16.0656 7.80311 16.1514 7.7197 16.2682C7.63628 16.385 7.5915 16.5267 7.592 16.6721V17.0334H7.44491C7.14681 17.0337 6.86101 17.1567 6.65022 17.3754C6.43943 17.594 6.32086 17.8905 6.32053 18.1997V20.3884C6.32089 20.6931 6.43609 20.9856 6.64152 21.2034C6.84696 21.4212 7.12634 21.5471 7.42001 21.5541V21.6973C7.42022 21.8863 7.49269 22.0675 7.62151 22.2011C7.75034 22.3348 7.925 22.4099 8.10719 22.4102H15.9607C16.1429 22.4099 16.3175 22.3348 16.4463 22.2011C16.5752 22.0675 16.6476 21.8863 16.6478 21.6973V21.5541C16.9415 21.5471 17.2209 21.4212 17.4263 21.2034C17.6318 20.9856 17.747 20.6931 17.7473 20.3884V18.1997C17.747 17.8905 17.6284 17.594 17.4176 17.3754C17.2068 17.1567 16.9211 17.0337 16.6229 17.0334H16.4759V16.6721C16.4764 16.5267 16.4316 16.385 16.3482 16.2682C16.2648 16.1514 16.1472 16.0656 16.013 16.0237L15.7935 15.9541C15.7169 15.9301 15.6498 15.8811 15.6023 15.8143C15.5547 15.7476 15.5292 15.6667 15.5295 15.5837V12.2734C15.6279 12.2239 15.7125 12.1493 15.7755 12.0566L16.5157 10.9618C16.6997 10.6895 16.8268 10.3804 16.8891 10.0543C16.9513 9.72812 16.9472 9.39208 16.877 9.06767L16.4831 7.25158L16.6937 7.37859C16.8055 7.44623 16.9325 7.48186 17.0618 7.48185ZM17.4946 6.9273L16.8271 6.39309C16.8138 6.38249 16.803 6.36901 16.7953 6.35359C16.7876 6.33818 16.7832 6.3212 16.7825 6.30385C16.7818 6.2865 16.7847 6.26921 16.7912 6.25317C16.7976 6.23713 16.8073 6.22274 16.8196 6.21101L17.0431 5.99847C17.0645 5.97815 17.0926 5.96701 17.1217 5.96726C17.1507 5.96751 17.1786 5.97913 17.1997 5.99981L17.7847 6.57565L17.4946 6.9273ZM9.90069 3.61843C9.90096 3.37368 9.99481 3.13904 10.1616 2.96598C10.3285 2.79292 10.5547 2.69557 10.7906 2.69529H13.2773C13.5132 2.69557 13.7394 2.79292 13.9062 2.96598C14.0731 3.13904 14.1669 3.37368 14.1672 3.61843V4.93655C14.1662 5.3206 14.0801 5.69927 13.9156 6.04334C13.7511 6.38741 13.5126 6.68767 13.2185 6.92095C12.9546 7.12824 12.6328 7.24073 12.3018 7.2414H11.766C11.435 7.24073 11.1132 7.12824 10.8493 6.92095C10.5552 6.68767 10.3167 6.3874 10.1522 6.04333C9.98774 5.69925 9.90167 5.32057 9.90065 4.93651L9.90069 3.61843ZM14.0292 16.2281L14.2306 16.4904C14.2717 16.5442 14.2987 16.608 14.3092 16.6757C14.3197 16.7435 14.3132 16.8128 14.2905 16.8772L14.2349 17.0334H12.5842L12.5255 16.8918C12.4971 16.8237 12.4876 16.7488 12.4981 16.6755C12.5087 16.6021 12.5388 16.5333 12.5851 16.4768L12.7813 16.2353C12.8923 16.0998 12.9477 15.9245 12.9356 15.7471L12.7447 12.8567L14.1063 12.2433L13.8868 15.7579C13.8762 15.9276 13.9269 16.0952 14.0292 16.2281ZM10.1947 15.747L9.9632 12.2442L11.327 12.8585L11.146 15.7579C11.1353 15.9276 11.1861 16.0952 11.2884 16.2281L11.4898 16.4904C11.5308 16.5442 11.5578 16.608 11.5683 16.6758C11.5788 16.7435 11.5724 16.8128 11.5496 16.8772L11.4941 17.0334H9.84336L9.78462 16.8917C9.7562 16.8237 9.74672 16.7488 9.75724 16.6754C9.76777 16.6021 9.79789 16.5333 9.84418 16.4768L10.0404 16.2354C10.1515 16.0998 10.2069 15.9245 10.1948 15.7471L10.1947 15.747ZM12.2729 17.0042L12.285 17.0334H11.7871L11.8075 16.976C11.8464 16.8656 11.8575 16.7466 11.8395 16.6305C11.8215 16.5144 11.7751 16.405 11.7048 16.3128L11.5032 16.0503C11.4436 15.9728 11.4141 15.8751 11.4203 15.7762L11.5957 12.9671C11.883 13.0569 12.1894 13.0565 12.4764 12.9659L12.6613 15.7667C12.6684 15.8702 12.6361 15.9724 12.5713 16.0515L12.3751 16.2928C12.2957 16.3897 12.2441 16.5076 12.226 16.6334C12.2079 16.7591 12.2242 16.8876 12.2729 17.0042ZM11.8965 17.3242V18.7216C11.8706 18.7281 11.8452 18.7366 11.8205 18.7469L11.0292 17.6168C11.291 17.4473 11.5887 17.3469 11.8965 17.3242ZM11.5982 18.9146C11.5812 18.9358 11.5657 18.9582 11.5517 18.9816L10.2703 18.5496C10.3871 18.2535 10.5713 17.991 10.8071 17.7847L11.5982 18.9146ZM11.4666 19.2527C11.4657 19.2664 11.4646 19.2801 11.4646 19.2941C11.4646 19.308 11.4657 19.3217 11.4666 19.3355L10.1851 19.7674C10.1109 19.4565 10.1109 19.1316 10.1851 18.8207L11.4666 19.2527ZM11.5517 19.6066C11.5657 19.63 11.5812 19.6523 11.5982 19.6735L10.8071 20.8034C10.5713 20.5971 10.3872 20.3346 10.2703 20.0385L11.5517 19.6066ZM11.8205 19.8412C11.8452 19.8515 11.8706 19.86 11.8965 19.8666V21.2639C11.5887 21.2412 11.291 21.1408 11.0293 20.9713L11.8205 19.8412ZM11.7394 19.2941C11.7394 19.2336 11.7567 19.1746 11.7891 19.1243C11.8214 19.0741 11.8674 19.0349 11.9212 19.0118C11.975 18.9887 12.0343 18.9826 12.0914 18.9944C12.1485 19.0062 12.201 19.0353 12.2422 19.078C12.2834 19.1208 12.3114 19.1752 12.3228 19.2345C12.3341 19.2937 12.3283 19.3552 12.306 19.411C12.2837 19.4668 12.246 19.5145 12.1975 19.5481C12.1491 19.5816 12.0922 19.5996 12.0339 19.5996C11.9558 19.5995 11.881 19.5673 11.8258 19.51C11.7706 19.4527 11.7395 19.3751 11.7394 19.2941ZM12.1714 19.8666C12.1973 19.86 12.2227 19.8515 12.2474 19.8412L13.0386 20.9713C12.7769 21.1408 12.4791 21.2412 12.1714 21.2639V19.8666ZM12.4697 19.6735C12.4867 19.6523 12.5022 19.63 12.5162 19.6066L13.7976 20.0385C13.6807 20.3347 13.4966 20.5971 13.2608 20.8035L12.4697 19.6735ZM12.6013 19.3354C12.6022 19.3217 12.6033 19.308 12.6033 19.2941C12.6033 19.2801 12.6022 19.2664 12.6013 19.2527L13.8828 18.8207C13.9569 19.1316 13.9569 19.4565 13.8828 19.7674L12.6013 19.3354ZM12.5162 18.9816C12.5022 18.9582 12.4867 18.9358 12.4697 18.9146L13.2608 17.7847C13.4965 17.9911 13.6807 18.2535 13.7975 18.5497L12.5162 18.9816ZM12.2474 18.7469C12.2227 18.7366 12.1973 18.7281 12.1714 18.7216V17.3242C12.4791 17.3469 12.7768 17.4473 13.0386 17.6168L12.2474 18.7469ZM12.5297 12.6427C12.3732 12.7129 12.2045 12.7491 12.0339 12.7491C11.8634 12.7491 11.6947 12.7129 11.5381 12.6427L9.75933 11.8415C9.71653 11.8222 9.67878 11.7925 9.64921 11.7551C9.61964 11.7176 9.59911 11.6734 9.5893 11.626L9.25435 9.99598C9.18233 9.64713 9.21469 9.28378 9.3471 8.95451L10.2404 6.7058C10.3709 6.87045 10.5195 7.01882 10.683 7.14792C10.9947 7.39284 11.3749 7.52575 11.766 7.52653H12.3018C12.6929 7.52576 13.0731 7.39286 13.3848 7.14796C13.5499 7.01761 13.6997 6.86762 13.8312 6.70107L14.7194 8.946C14.8518 9.27443 14.8844 9.63695 14.8128 9.98511L14.4781 11.626C14.4684 11.6734 14.448 11.7177 14.4184 11.7552C14.3888 11.7927 14.351 11.8223 14.3081 11.8415L12.5297 12.6427ZM6.28318 6.57565L6.86811 5.99985C6.88924 5.97916 6.91713 5.96752 6.94619 5.96726C6.97524 5.96701 7.00332 5.97815 7.02479 5.99847L7.24822 6.21105C7.26055 6.22278 7.27027 6.23717 7.27668 6.2532C7.28309 6.26924 7.28604 6.28653 7.28533 6.30387C7.28462 6.32121 7.28026 6.33819 7.27256 6.3536C7.26486 6.36901 7.25401 6.38249 7.24076 6.39309L6.57321 6.9273L6.28318 6.57565ZM7.23581 7.13215C7.16518 7.1748 7.08481 7.19701 7.00309 7.19645C6.92136 7.19589 6.84128 7.17259 6.7712 7.12897L7.4087 6.61883C7.45367 6.58283 7.49051 6.53707 7.51663 6.48475C7.54276 6.43243 7.55754 6.37481 7.55994 6.31594C7.56235 6.25708 7.55232 6.19837 7.53055 6.14395C7.50879 6.08952 7.47582 6.04069 7.43395 6.00087L7.21052 5.78832C7.13767 5.71943 7.04241 5.68164 6.94384 5.68251C6.84526 5.68338 6.75064 5.72284 6.67892 5.79301L6.10424 6.35871L5.91796 6.13293C5.84284 6.04143 5.80391 5.92384 5.80897 5.80378C5.81403 5.68372 5.86272 5.5701 5.94525 5.48576L6.17064 5.25602C6.19457 5.23166 6.20908 5.19906 6.21144 5.16437L6.23657 4.79354C6.24577 4.65887 6.29997 4.53175 6.38982 4.43408C6.47966 4.3364 6.59954 4.2743 6.72879 4.25847L6.85284 4.24339C6.96249 4.2301 7.06849 4.19429 7.16466 4.13806L7.18508 4.15158C7.35355 4.26317 7.49223 4.41695 7.58835 4.59875L8.22723 5.80934C8.26818 5.88724 8.28495 5.97636 8.27524 6.06452C8.26552 6.15268 8.22981 6.23558 8.17297 6.30189L7.70058 6.85191L7.23581 7.13215ZM8.51734 11.8929L7.77715 10.7979C7.61515 10.5582 7.50319 10.286 7.44842 9.99887C7.39365 9.71172 7.39728 9.41586 7.45908 9.13024L7.91415 7.03187L8.37814 6.49162C8.47266 6.38134 8.53206 6.24348 8.54821 6.09686C8.56436 5.95025 8.53648 5.80204 8.46837 5.67248L7.82945 4.46181C7.72149 4.25807 7.56997 4.0827 7.38652 3.94914C7.39068 3.94417 7.39524 3.93969 7.39928 3.9346L7.75108 3.4915C7.84066 3.37863 7.96044 3.29578 8.09533 3.25338C8.23022 3.21098 8.37418 3.21094 8.50909 3.25325L9.62645 3.59309C9.62625 3.60152 9.62582 3.60991 9.62582 3.61843V4.93655C9.62699 5.46778 9.77441 5.98761 10.0507 6.43488L9.09308 8.84547C8.93934 9.228 8.9018 9.65008 8.98549 10.0553L9.32044 11.6856C9.32212 11.6937 9.32483 11.7014 9.32684 11.7095L9.07627 11.9529C9.03736 11.9906 8.99111 12.0192 8.94063 12.0368C8.89014 12.0544 8.83661 12.0606 8.78363 12.0549C8.73066 12.0492 8.67948 12.0318 8.63354 12.0039C8.5876 11.9759 8.54798 11.9381 8.51734 11.8929ZM7.86688 16.6721C7.8666 16.5878 7.89259 16.5057 7.94097 16.438C7.98935 16.3703 8.05753 16.3206 8.13535 16.2963L8.35034 16.228C8.48455 16.1861 8.60212 16.1003 8.68553 15.9835C8.76894 15.8667 8.81373 15.725 8.81322 15.5796V12.3416C8.8162 12.3416 8.81919 12.3421 8.82217 12.3421C8.9863 12.3421 9.14429 12.2774 9.26413 12.1611L9.46415 11.9668C9.51654 12.0248 9.57973 12.0711 9.64989 12.103L9.67918 12.1163L9.92052 15.7667C9.92756 15.8702 9.89521 15.9724 9.8304 16.0514L9.63422 16.2928C9.55483 16.3896 9.50318 16.5076 9.48512 16.6334C9.46705 16.7591 9.4833 16.8876 9.53201 17.0042L9.54414 17.0334H7.86688V16.6721ZM7.44491 21.2696C7.21968 21.2694 7.00376 21.1764 6.8445 21.0112C6.68524 20.846 6.59566 20.622 6.5954 20.3884V18.1997C6.59566 17.9661 6.68524 17.7421 6.8445 17.5769C7.00376 17.4117 7.21968 17.3188 7.44491 17.3185H10.9764C10.9033 17.3608 10.8325 17.4075 10.7645 17.4582C10.7608 17.4605 10.7568 17.4623 10.7531 17.4651C10.7502 17.4673 10.7479 17.4701 10.7451 17.4725C10.3779 17.7525 10.1042 18.1445 9.96214 18.5937C9.96195 18.5943 9.96163 18.5948 9.96144 18.5955C9.96128 18.5959 9.96128 18.5964 9.96112 18.5969C9.81908 19.05 9.81908 19.5381 9.96112 19.9913C9.96128 19.9917 9.96128 19.9922 9.96144 19.9927C9.96167 19.9935 9.96207 19.9941 9.96234 19.9949C10.1044 20.4439 10.3781 20.8357 10.7451 21.1156C10.7479 21.1181 10.7502 21.1208 10.7532 21.1231C10.7578 21.1264 10.7626 21.1295 10.7676 21.1322C10.8346 21.182 10.9043 21.2279 10.9763 21.2696H7.44491ZM16.373 21.6973C16.3728 21.8107 16.3294 21.9194 16.2521 21.9996C16.1748 22.0798 16.07 22.1249 15.9607 22.125H8.10719C7.99788 22.1249 7.89308 22.0798 7.81578 21.9996C7.73849 21.9194 7.69501 21.8107 7.69489 21.6973V21.5548H16.373V21.6973ZM16.6229 17.3185C16.8482 17.3188 17.0641 17.4117 17.2234 17.5769C17.3826 17.7421 17.4722 17.9661 17.4725 18.1997V20.3884C17.4722 20.622 17.3826 20.846 17.2234 21.0112C17.0641 21.1764 16.8482 21.2694 16.6229 21.2696H13.0915C13.1635 21.2279 13.2332 21.182 13.3003 21.1322C13.3052 21.1295 13.3101 21.1264 13.3147 21.1231C13.3177 21.1208 13.32 21.1181 13.3228 21.1156C13.6898 20.8357 13.9634 20.4439 14.1055 19.9949C14.1058 19.9941 14.1062 19.9935 14.1064 19.9927C14.1066 19.9922 14.1066 19.9917 14.1067 19.9913C14.2488 19.5381 14.2488 19.05 14.1067 18.5969C14.1066 18.5964 14.1066 18.5959 14.1064 18.5955C14.1062 18.5948 14.1059 18.5943 14.1057 18.5937C13.9637 18.1445 13.6899 17.7525 13.3227 17.4725C13.32 17.4701 13.3177 17.4673 13.3147 17.4651C13.3111 17.4623 13.3071 17.4605 13.3034 17.4582C13.2354 17.4075 13.1646 17.3608 13.0914 17.3185H16.6229ZM15.7131 16.2267L15.9327 16.2964C16.0104 16.3206 16.0786 16.3703 16.1269 16.438C16.1753 16.5057 16.2013 16.5878 16.201 16.6721V17.0334H14.528L14.5484 16.9761C14.5873 16.8656 14.5984 16.7467 14.5804 16.6305C14.5624 16.5144 14.516 16.405 14.4456 16.3128L14.2441 16.0503C14.1845 15.9728 14.1549 15.8751 14.1612 15.7762L14.3897 12.1156L14.4174 12.1031C14.4878 12.0712 14.5511 12.0248 14.6036 11.9667L14.8038 12.1611C14.9236 12.2774 15.0816 12.3422 15.2457 12.3421C15.2487 12.3421 15.2517 12.3417 15.2546 12.3416V15.5837C15.2541 15.7278 15.2984 15.8683 15.381 15.9841C15.4636 16.1 15.5801 16.1851 15.7131 16.2267ZM16.6088 9.13028C16.6706 9.41591 16.6742 9.71178 16.6194 9.99894C16.5646 10.2861 16.4527 10.5582 16.2907 10.7979L15.5506 11.8928C15.5199 11.938 15.4803 11.9758 15.4344 12.0038C15.3885 12.0318 15.3373 12.0492 15.2843 12.0549C15.2313 12.0606 15.1778 12.0545 15.1273 12.0369C15.0768 12.0193 15.0305 11.9906 14.9916 11.9529L14.7407 11.7091C14.7426 11.701 14.7454 11.6931 14.7471 11.6849L15.0816 10.0442C15.1648 9.63978 15.1271 9.21866 14.9734 8.83708L14.0207 6.42902C14.2947 5.98305 14.4409 5.46542 14.442 4.93655V3.61843C14.442 3.61333 14.4417 3.60832 14.4416 3.60327L15.5596 3.25301C15.6944 3.21085 15.8382 3.21099 15.9729 3.25341C16.1076 3.29584 16.2272 3.37864 16.3167 3.49142L16.6686 3.93464C16.6727 3.93973 16.6772 3.94421 16.6813 3.94918C16.4979 4.08274 16.3464 4.25811 16.2384 4.46185L15.5994 5.67248C15.5313 5.80202 15.5035 5.95022 15.5196 6.09681C15.5357 6.24341 15.5951 6.38127 15.6896 6.49154L16.1537 7.03187L16.6088 9.13028ZM16.3673 6.85191L15.8949 6.30185C15.838 6.23555 15.8023 6.15267 15.7926 6.06452C15.7829 5.97638 15.7996 5.88727 15.8406 5.80938L16.4795 4.59879C16.5756 4.41695 16.7143 4.26314 16.8828 4.15154L16.9032 4.1381C16.9994 4.19432 17.1053 4.23011 17.215 4.24339L17.3389 4.25847C17.4682 4.27428 17.5882 4.33639 17.6781 4.4341C17.7679 4.53181 17.8221 4.65898 17.8313 4.7937L17.8565 5.16437C17.8588 5.19905 17.8733 5.23165 17.8972 5.25602L18.1227 5.48588C18.2052 5.57024 18.2539 5.68385 18.2589 5.80389C18.2639 5.92393 18.225 6.0415 18.1499 6.13297L17.9636 6.35875L17.3889 5.79297C17.3172 5.72282 17.2226 5.68336 17.124 5.6825C17.0254 5.68164 16.9302 5.71944 16.8573 5.78832L16.6339 6.00083C16.592 6.04065 16.5591 6.08949 16.5373 6.14392C16.5155 6.19835 16.5055 6.25706 16.5079 6.31593C16.5103 6.37481 16.5251 6.43243 16.5512 6.48475C16.5774 6.53707 16.6142 6.58283 16.6592 6.61883L17.2967 7.12897C17.2266 7.17259 17.1465 7.19589 17.0647 7.19644C16.983 7.197 16.9026 7.17478 16.8319 7.13211L16.3673 6.85191ZM17.3095 5.28254C17.3454 5.28258 17.3798 5.26803 17.4055 5.24201L17.575 5.0704C17.5882 5.05739 17.5987 5.0418 17.606 5.02452C17.6134 5.00725 17.6173 4.98864 17.6176 4.96977C17.618 4.95091 17.6147 4.93216 17.608 4.91462C17.6013 4.89708 17.5913 4.88109 17.5786 4.86758C17.5659 4.85408 17.5507 4.84332 17.534 4.83594C17.5172 4.82856 17.4993 4.8247 17.4811 4.82458C17.4629 4.82446 17.4449 4.82809 17.428 4.83526C17.4112 4.84243 17.3959 4.85299 17.383 4.86633L17.2135 5.03794C17.1939 5.05773 17.1805 5.08313 17.1749 5.11088C17.1694 5.13863 17.1719 5.16748 17.1822 5.19373C17.1925 5.21999 17.2101 5.24246 17.2328 5.25828C17.2555 5.2741 17.2822 5.28254 17.3095 5.28254ZM15.5213 8.07908C15.5448 8.07908 15.5683 8.07728 15.5915 8.0737C15.6527 8.06444 15.7116 8.04267 15.7647 8.00965C15.8178 7.97663 15.8641 7.93301 15.9008 7.88132C15.9117 7.86629 15.9196 7.84918 15.924 7.83097C15.9285 7.81277 15.9295 7.79383 15.9268 7.77524C15.9242 7.75665 15.9181 7.73879 15.9088 7.72266C15.8995 7.70654 15.8872 7.69248 15.8727 7.68129C15.8582 7.67011 15.8416 7.66201 15.824 7.65747C15.8065 7.65294 15.7882 7.65204 15.7703 7.65485C15.7524 7.65766 15.7352 7.66411 15.7197 7.67383C15.7042 7.68355 15.6907 7.69635 15.68 7.7115C15.6647 7.73299 15.6454 7.75112 15.6233 7.76487C15.6011 7.77863 15.5766 7.78772 15.5511 7.79165C15.5256 7.79558 15.4996 7.79425 15.4746 7.78776C15.4496 7.78126 15.4261 7.76971 15.4053 7.75378C15.3846 7.73785 15.3672 7.71784 15.3539 7.6949C15.3406 7.67196 15.3319 7.64653 15.3281 7.62007C15.3243 7.59362 15.3256 7.56664 15.3318 7.5407C15.3381 7.51475 15.3492 7.49034 15.3646 7.46885C15.3754 7.45382 15.3833 7.43671 15.3878 7.41851C15.3923 7.4003 15.3932 7.38136 15.3906 7.36278C15.388 7.34419 15.3819 7.32632 15.3726 7.3102C15.3633 7.29408 15.351 7.28002 15.3365 7.26883C15.3219 7.25764 15.3054 7.24955 15.2878 7.24501C15.2702 7.24047 15.252 7.23958 15.2341 7.24239C15.2162 7.24519 15.199 7.25164 15.1835 7.26136C15.168 7.27109 15.1545 7.28389 15.1438 7.29904C15.0919 7.37172 15.0604 7.45791 15.0529 7.54804C15.0454 7.63817 15.0621 7.72869 15.1012 7.80954C15.1404 7.89039 15.2004 7.95838 15.2745 8.00597C15.3487 8.05356 15.4341 8.07886 15.5213 8.07908ZM11.5431 10.2106C11.5066 10.2106 11.4717 10.2256 11.4459 10.2523C11.4201 10.2791 11.4057 10.3153 11.4057 10.3531C11.4057 10.4071 11.385 10.4589 11.3481 10.4971C11.3113 10.5353 11.2614 10.5568 11.2093 10.5568C11.1572 10.5568 11.1073 10.5353 11.0705 10.4971C11.0337 10.4589 11.013 10.4071 11.013 10.3531C11.013 10.3153 10.9985 10.2791 10.9727 10.2523C10.9469 10.2256 10.912 10.2106 10.8755 10.2106C10.8391 10.2106 10.8041 10.2256 10.7784 10.2523C10.7526 10.2791 10.7381 10.3153 10.7381 10.3531C10.7381 10.4828 10.7878 10.6071 10.8761 10.6988C10.9645 10.7904 11.0843 10.8419 11.2093 10.8419C11.3343 10.8419 11.4541 10.7904 11.5425 10.6988C11.6309 10.6071 11.6805 10.4828 11.6805 10.3531C11.6805 10.3153 11.666 10.2791 11.6403 10.2523C11.6145 10.2256 11.5795 10.2106 11.5431 10.2106ZM11.1308 9.2126C11.1308 9.17479 11.1163 9.13853 11.0905 9.11179C11.0648 9.08505 11.0298 9.07003 10.9933 9.07003C10.9569 9.07003 10.9219 9.08505 10.8962 9.11179C10.8704 9.13853 10.8559 9.17479 10.8559 9.2126C10.8559 9.26662 10.8352 9.31842 10.7984 9.35661C10.7616 9.39481 10.7116 9.41627 10.6596 9.41627C10.6075 9.41627 10.5576 9.39481 10.5207 9.35661C10.4839 9.31842 10.4632 9.26662 10.4632 9.2126C10.4632 9.17479 10.4488 9.13853 10.423 9.11179C10.3972 9.08505 10.3622 9.07003 10.3258 9.07003C10.2893 9.07003 10.2544 9.08505 10.2286 9.11179C10.2028 9.13853 10.1884 9.17479 10.1884 9.2126C10.1884 9.34224 10.238 9.46656 10.3264 9.55823C10.4147 9.6499 10.5346 9.7014 10.6596 9.7014C10.7845 9.7014 10.9044 9.6499 10.9928 9.55823C11.0811 9.46656 11.1308 9.34224 11.1308 9.2126ZM12.3677 11.3511C12.3313 11.3511 12.2963 11.3661 12.2705 11.3928C12.2447 11.4196 12.2303 11.4558 12.2303 11.4937C12.2303 11.5477 12.2096 11.5995 12.1728 11.6377C12.1359 11.6759 12.086 11.6973 12.0339 11.6973C11.9819 11.6973 11.9319 11.6759 11.8951 11.6377C11.8583 11.5995 11.8376 11.5477 11.8376 11.4937C11.8376 11.4558 11.8231 11.4196 11.7973 11.3928C11.7716 11.3661 11.7366 11.3511 11.7002 11.3511C11.6637 11.3511 11.6287 11.3661 11.603 11.3928C11.5772 11.4196 11.5627 11.4558 11.5627 11.4937C11.5627 11.6233 11.6124 11.7476 11.7007 11.8393C11.7891 11.931 11.909 11.9825 12.0339 11.9825C12.1589 11.9825 12.2788 11.931 12.3671 11.8393C12.4555 11.7476 12.5051 11.6233 12.5051 11.4937C12.5051 11.4558 12.4907 11.4196 12.4649 11.3928C12.4391 11.3661 12.4042 11.3511 12.3677 11.3511ZM6.68481 4.86633C6.67195 4.85299 6.65666 4.84243 6.63983 4.83526C6.623 4.82809 6.60497 4.82446 6.58678 4.82458C6.56859 4.8247 6.55061 4.82856 6.53387 4.83594C6.51713 4.84332 6.50197 4.85408 6.48926 4.86758C6.47656 4.88109 6.46657 4.89708 6.45987 4.91462C6.45317 4.93216 6.44989 4.95091 6.45022 4.96977C6.45056 4.98864 6.4545 5.00725 6.46182 5.02452C6.46914 5.0418 6.4797 5.05739 6.49287 5.0704L6.66239 5.24201C6.67531 5.25509 6.69058 5.26539 6.70734 5.27235C6.7241 5.2793 6.74201 5.28276 6.76006 5.28253C6.77811 5.2823 6.79593 5.27839 6.81252 5.27101C6.82911 5.26364 6.84414 5.25294 6.85674 5.23955C6.86935 5.22615 6.87929 5.2103 6.88599 5.19292C6.89269 5.17553 6.89603 5.15695 6.89581 5.13823C6.89559 5.11951 6.89181 5.10102 6.8847 5.08381C6.87759 5.0666 6.86728 5.05101 6.85437 5.03794L6.68481 4.86633ZM13.1923 10.2106C13.1559 10.2106 13.1209 10.2256 13.0951 10.2523C13.0694 10.2791 13.0549 10.3153 13.0549 10.3531C13.0549 10.4071 13.0342 10.4589 12.9974 10.4971C12.9606 10.5353 12.9106 10.5568 12.8585 10.5568C12.8065 10.5568 12.7565 10.5353 12.7197 10.4971C12.6829 10.4589 12.6622 10.4071 12.6622 10.3531C12.6622 10.3153 12.6477 10.2791 12.622 10.2523C12.5962 10.2256 12.5612 10.2106 12.5248 10.2106C12.4883 10.2106 12.4534 10.2256 12.4276 10.2523C12.4018 10.2791 12.3873 10.3153 12.3873 10.3531C12.3873 10.4828 12.437 10.6071 12.5253 10.6988C12.6137 10.7904 12.7336 10.8419 12.8585 10.8419C12.9835 10.8419 13.1034 10.7904 13.1917 10.6988C13.2801 10.6071 13.3298 10.4828 13.3298 10.3531C13.3298 10.3153 13.3153 10.2791 13.2895 10.2523C13.2637 10.2256 13.2288 10.2106 13.1923 10.2106ZM13.7421 9.07003C13.7056 9.07003 13.6707 9.08505 13.6449 9.11179C13.6191 9.13853 13.6046 9.17479 13.6046 9.2126C13.6046 9.26662 13.5839 9.31842 13.5471 9.35661C13.5103 9.39481 13.4604 9.41627 13.4083 9.41627C13.3562 9.41627 13.3063 9.39481 13.2695 9.35661C13.2326 9.31842 13.2119 9.26662 13.2119 9.2126C13.2119 9.17479 13.1975 9.13853 13.1717 9.11179C13.1459 9.08505 13.111 9.07003 13.0745 9.07003C13.0381 9.07003 13.0031 9.08505 12.9773 9.11179C12.9516 9.13853 12.9371 9.17479 12.9371 9.2126C12.9371 9.34224 12.9867 9.46656 13.0751 9.55823C13.1635 9.6499 13.2833 9.7014 13.4083 9.7014C13.5333 9.7014 13.6531 9.6499 13.7415 9.55823C13.8299 9.46656 13.8795 9.34224 13.8795 9.2126C13.8795 9.17479 13.865 9.13853 13.8392 9.11179C13.8135 9.08505 13.7785 9.07003 13.7421 9.07003Z"/>
</mask>
<path d="M10.8318 4.24299L11.0477 4.06783C11.1014 4.02436 11.1674 4.00052 11.2355 4.00002C11.3036 3.99952 11.37 4.02239 11.4243 4.06506L11.498 4.12311C11.5389 4.1551 11.5668 4.20177 11.5762 4.25398C11.5857 4.30619 11.576 4.36019 11.5491 4.40539C11.5163 4.46092 11.4999 4.52522 11.5019 4.59034C11.5039 4.65545 11.5243 4.71852 11.5605 4.77174L11.705 4.98421C11.7524 5.0538 11.8192 5.10668 11.8965 5.13574V5.54445C11.8035 5.69259 11.6584 5.79723 11.4921 5.8361C11.4797 5.83863 11.4672 5.84071 11.4547 5.84234C11.3732 5.85338 11.2904 5.83752 11.2181 5.79701C11.1457 5.7565 11.0875 5.69339 11.0517 5.61663C11.0108 5.53795 10.9948 5.44789 11.006 5.35924C11.0172 5.27059 11.0551 5.18786 11.1142 5.12278C11.1266 5.10911 11.1363 5.09302 11.1427 5.07543C11.1491 5.05785 11.1521 5.03913 11.1515 5.02034C11.151 5.00155 11.1468 4.98307 11.1393 4.96596C11.1318 4.94885 11.1211 4.93344 11.1078 4.92063C11.0946 4.90782 11.079 4.89786 11.062 4.89132C11.045 4.88478 11.027 4.88178 11.0088 4.88251C10.9907 4.88324 10.9729 4.88768 10.9565 4.89557C10.94 4.90346 10.9253 4.91465 10.913 4.92849C10.8156 5.03653 10.753 5.17338 10.7341 5.32C10.7151 5.46662 10.7406 5.61574 10.8071 5.74661C10.8516 5.83873 10.9153 5.91947 10.9935 5.983C11.0717 6.04653 11.1625 6.09128 11.2594 6.11403C11.2933 6.29414 11.3837 6.45754 11.5165 6.57874C11.6494 6.69994 11.8171 6.77211 11.9937 6.78401C12.0082 6.78485 12.0226 6.78527 12.0369 6.78527C12.2213 6.78279 12.3994 6.71481 12.5414 6.59265C12.6834 6.4705 12.7807 6.30156 12.8172 6.11399C12.9131 6.09102 13.0029 6.04614 13.0799 5.98261C13.157 5.91908 13.2194 5.83851 13.2626 5.74678C13.3289 5.61452 13.3539 5.46414 13.3342 5.31647C13.3144 5.16881 13.2509 5.03118 13.1523 4.92266C13.1274 4.89551 13.0931 4.87967 13.0569 4.87859C13.0207 4.87751 12.9856 4.89126 12.9591 4.91688C12.9327 4.94249 12.917 4.97789 12.9156 5.01539C12.9142 5.05289 12.927 5.08948 12.9514 5.1172C13.0117 5.18282 13.0505 5.26645 13.0624 5.35623C13.0743 5.44602 13.0586 5.53741 13.0177 5.61745C12.9819 5.69402 12.9238 5.75698 12.8516 5.7974C12.7795 5.83783 12.6969 5.85368 12.6155 5.8427C12.6022 5.841 12.5889 5.83881 12.5757 5.83614C12.4094 5.79726 12.2644 5.6926 12.1714 5.54445V5.1357C12.2486 5.10665 12.3154 5.05379 12.3629 4.98421L12.5073 4.77174C12.5436 4.71852 12.5639 4.65544 12.566 4.59032C12.568 4.5252 12.5516 4.46089 12.5187 4.40535C12.4918 4.36015 12.4821 4.30616 12.4916 4.25395C12.501 4.20174 12.5289 4.15507 12.5698 4.12307L12.6436 4.06506C12.6979 4.02239 12.7643 3.99952 12.8324 4.00003C12.9005 4.00054 12.9665 4.02439 13.0202 4.06788L13.2361 4.24303C13.2648 4.26631 13.3013 4.2768 13.3375 4.27219C13.3736 4.26759 13.4066 4.24826 13.429 4.21847C13.4515 4.18867 13.4616 4.15085 13.4571 4.11332C13.4527 4.07579 13.4341 4.04162 13.4053 4.01834L13.1894 3.84323C13.088 3.76101 12.9631 3.71591 12.8343 3.71495C12.7055 3.71399 12.5801 3.75723 12.4775 3.83794L12.4037 3.89598C12.3083 3.9706 12.2432 4.07944 12.2212 4.20121C12.1991 4.32298 12.2216 4.4489 12.2843 4.55435C12.2891 4.56239 12.2915 4.57171 12.2912 4.58115C12.2909 4.59058 12.2879 4.59972 12.2827 4.60743L12.1382 4.81989C12.1264 4.83722 12.1108 4.85136 12.0927 4.86112C12.0745 4.87089 12.0544 4.87598 12.0339 4.87598C12.0135 4.87598 11.9933 4.87089 11.9752 4.86112C11.957 4.85136 11.9414 4.83722 11.9296 4.81989L11.7852 4.60743C11.7799 4.59973 11.777 4.5906 11.7767 4.58117C11.7764 4.57174 11.7788 4.56243 11.7835 4.55439C11.8462 4.44894 11.8688 4.323 11.8467 4.20122C11.8246 4.07944 11.7595 3.9706 11.6641 3.89598L11.5904 3.83794C11.4878 3.75724 11.3623 3.71401 11.2336 3.71497C11.1048 3.71593 10.9799 3.76102 10.8784 3.84323L10.6625 4.01838C10.6346 4.04195 10.6167 4.07592 10.6127 4.113C10.6087 4.15008 10.6188 4.18732 10.641 4.21672C10.6631 4.24612 10.6955 4.26534 10.7312 4.27025C10.7668 4.27516 10.803 4.26537 10.8318 4.24299ZM12.0339 5.82229C12.1622 5.9724 12.3338 6.07542 12.5232 6.11598C12.5263 6.11663 12.5294 6.11696 12.5326 6.11757C12.4979 6.2321 12.4279 6.33158 12.3332 6.4006C12.2385 6.46961 12.1245 6.50432 12.0089 6.49932C11.9034 6.49073 11.8028 6.44968 11.7199 6.38141C11.6371 6.31315 11.5757 6.22078 11.5438 6.11614L11.5446 6.11602C11.734 6.07544 11.9057 5.97241 12.0339 5.82229ZM8.69377 10.6316C8.76757 10.527 8.79838 10.3964 8.77944 10.2683C8.7605 10.1402 8.69335 10.0251 8.59273 9.94832C8.56334 9.92608 8.52665 9.91683 8.49069 9.9226C8.45474 9.92838 8.42246 9.9487 8.40093 9.97913C8.3794 10.0096 8.37038 10.0476 8.37585 10.0849C8.38131 10.1222 8.40082 10.1558 8.43009 10.1782C8.47207 10.2101 8.5001 10.2581 8.50801 10.3115C8.51591 10.3649 8.50305 10.4193 8.47224 10.4629C8.44144 10.5064 8.39521 10.5355 8.34374 10.5437C8.29227 10.5519 8.23977 10.5386 8.19778 10.5066C8.16838 10.4846 8.1318 10.4755 8.09598 10.4814C8.06017 10.4872 8.02804 10.5075 8.00658 10.5378C7.98513 10.5682 7.97608 10.606 7.98142 10.6432C7.98676 10.6804 8.00606 10.7139 8.0351 10.7364C8.13588 10.813 8.26185 10.845 8.38534 10.8253C8.50883 10.8057 8.61976 10.736 8.69377 10.6316ZM8.39785 8.0737C8.42107 8.07728 8.44451 8.07908 8.46798 8.07908C8.55519 8.07886 8.64063 8.05356 8.7148 8.00597C8.78897 7.95838 8.84896 7.89039 8.88809 7.80954C8.92722 7.72869 8.94396 7.63817 8.93645 7.54804C8.92893 7.45791 8.89746 7.37172 8.84554 7.29904C8.83478 7.284 8.82128 7.2713 8.8058 7.26168C8.79032 7.25205 8.77316 7.24568 8.75531 7.24293C8.73745 7.24018 8.71925 7.24111 8.70174 7.24566C8.68424 7.25021 8.66776 7.25829 8.65326 7.26944C8.63877 7.2806 8.62653 7.2946 8.61725 7.31066C8.60797 7.32672 8.60183 7.34452 8.59918 7.36304C8.59653 7.38156 8.59742 7.40044 8.60181 7.4186C8.60619 7.43677 8.61398 7.45385 8.62474 7.46889C8.65575 7.51228 8.66888 7.56668 8.66123 7.62011C8.65358 7.67354 8.62579 7.72163 8.58396 7.7538C8.54213 7.78597 8.48969 7.79959 8.43818 7.79166C8.38668 7.78372 8.34032 7.75489 8.3093 7.7115C8.28759 7.68113 8.25513 7.66095 8.21907 7.6554C8.18302 7.64985 8.14631 7.65938 8.11703 7.68191C8.08775 7.70443 8.06829 7.7381 8.06294 7.7755C8.05759 7.81291 8.06679 7.85098 8.0885 7.88136C8.12524 7.93304 8.1715 7.97665 8.2246 8.00967C8.2777 8.04268 8.33659 8.06445 8.39785 8.0737ZM8.52441 9.308C8.59927 9.20419 8.63132 9.07378 8.6135 8.94546C8.59568 8.81715 8.52945 8.70143 8.42938 8.62376C8.41494 8.61238 8.39847 8.60408 8.38093 8.59933C8.36338 8.59458 8.3451 8.59348 8.32714 8.5961C8.30918 8.59871 8.2919 8.60498 8.27629 8.61456C8.26068 8.62413 8.24705 8.63682 8.23619 8.65188C8.22532 8.66694 8.21744 8.68409 8.213 8.70232C8.20855 8.72056 8.20763 8.73953 8.21028 8.75814C8.21293 8.77675 8.21911 8.79463 8.22846 8.81075C8.2378 8.82687 8.25013 8.84091 8.26473 8.85207C8.28538 8.86809 8.30278 8.88818 8.31594 8.91118C8.3291 8.93418 8.33777 8.95964 8.34144 8.98611C8.34512 9.01259 8.34373 9.03955 8.33736 9.06547C8.33099 9.09138 8.31976 9.11575 8.30431 9.13716C8.28887 9.15858 8.26951 9.17663 8.24733 9.19028C8.22516 9.20393 8.20062 9.21292 8.1751 9.21674C8.14958 9.22055 8.12358 9.21911 8.0986 9.2125C8.07361 9.20589 8.05013 9.19424 8.02948 9.17822C8.0003 9.15557 7.96363 9.14587 7.92755 9.15126C7.89147 9.15665 7.85893 9.17668 7.83709 9.20696C7.81525 9.23723 7.8059 9.27527 7.8111 9.3127C7.81629 9.35012 7.83561 9.38388 7.86479 9.40653C7.96491 9.48407 8.09059 9.51724 8.21426 9.49876C8.33792 9.48028 8.44947 9.4117 8.52441 9.308ZM15.8187 10.5066C15.7979 10.5224 15.7743 10.5338 15.7493 10.5402C15.7242 10.5466 15.6982 10.5477 15.6727 10.5437C15.6472 10.5396 15.6228 10.5304 15.6007 10.5165C15.5787 10.5027 15.5595 10.4844 15.5442 10.4629C15.529 10.4413 15.5179 10.4169 15.5118 10.3909C15.5057 10.3649 15.5045 10.3379 15.5084 10.3115C15.5123 10.285 15.5212 10.2597 15.5346 10.2368C15.548 10.2139 15.5655 10.194 15.5863 10.1782C15.601 10.1672 15.6135 10.1532 15.623 10.1372C15.6325 10.1212 15.6388 10.1033 15.6417 10.0847C15.6445 10.0662 15.6437 10.0472 15.6395 10.0289C15.6352 10.0106 15.6274 9.99336 15.6167 9.97819C15.6059 9.96302 15.5924 9.9502 15.5769 9.94048C15.5613 9.93076 15.5441 9.92433 15.5262 9.92156C15.5082 9.91879 15.4899 9.91973 15.4723 9.92433C15.4547 9.92893 15.4382 9.9371 15.4236 9.94836C15.3485 10.0056 15.2914 10.0846 15.2596 10.1754C15.2278 10.2663 15.2226 10.3649 15.2448 10.4588C15.267 10.5527 15.3155 10.6377 15.3843 10.7029C15.453 10.7682 15.5389 10.8109 15.631 10.8256C15.655 10.8294 15.6792 10.8313 15.7035 10.8313C15.8034 10.8313 15.9008 10.7981 15.9812 10.7365C16.0102 10.7139 16.0294 10.6805 16.0347 10.6433C16.04 10.6062 16.031 10.5684 16.0096 10.5381C15.9882 10.5078 15.9561 10.4875 15.9204 10.4816C15.8846 10.4757 15.8481 10.4847 15.8187 10.5066ZM12.0339 9.7014C12.1589 9.70126 12.2786 9.64971 12.367 9.55808C12.4553 9.46644 12.505 9.34219 12.5051 9.2126C12.5051 9.17479 12.4907 9.13853 12.4649 9.11179C12.4391 9.08505 12.4042 9.07003 12.3677 9.07003C12.3313 9.07003 12.2963 9.08505 12.2705 9.11179C12.2447 9.13853 12.2303 9.17479 12.2303 9.2126C12.2303 9.26662 12.2096 9.31842 12.1728 9.35661C12.1359 9.39481 12.086 9.41627 12.0339 9.41627C11.9819 9.41627 11.9319 9.39481 11.8951 9.35661C11.8583 9.31842 11.8376 9.26662 11.8376 9.2126C11.8376 9.17479 11.8231 9.13853 11.7973 9.11179C11.7716 9.08505 11.7366 9.07003 11.7002 9.07003C11.6637 9.07003 11.6287 9.08505 11.603 9.11179C11.5772 9.13853 11.5627 9.17479 11.5627 9.2126C11.5629 9.34219 11.6125 9.46644 11.7009 9.55808C11.7892 9.64971 11.909 9.70126 12.0339 9.7014ZM15.9869 9.17822C15.9452 9.21058 15.8928 9.22444 15.8413 9.21674C15.7897 9.20904 15.7433 9.18041 15.7121 9.13716C15.6809 9.09391 15.6675 9.03958 15.6749 8.98611C15.6824 8.93265 15.71 8.88443 15.7516 8.85207C15.7808 8.82942 15.8001 8.79566 15.8053 8.75824C15.8105 8.72081 15.8012 8.68277 15.7793 8.6525C15.7575 8.62222 15.725 8.60219 15.6889 8.5968C15.6528 8.59141 15.6161 8.60111 15.587 8.62376C15.5374 8.66222 15.4956 8.71042 15.4641 8.76561C15.4325 8.82081 15.4117 8.88192 15.4028 8.94546C15.394 9.00899 15.3974 9.07371 15.4126 9.13591C15.4279 9.19811 15.4549 9.25658 15.492 9.30798C15.5668 9.41178 15.6784 9.48048 15.8021 9.49896C15.8633 9.50811 15.9257 9.50466 15.9857 9.4888C16.0456 9.47294 16.102 9.44499 16.1515 9.40653C16.1661 9.39537 16.1785 9.38133 16.1878 9.36521C16.1972 9.34909 16.2033 9.33121 16.206 9.3126C16.2087 9.29399 16.2077 9.27502 16.2033 9.25678C16.1988 9.23855 16.191 9.2214 16.1801 9.20634C16.1692 9.19128 16.1556 9.17859 16.14 9.16902C16.1244 9.15944 16.1071 9.15317 16.0891 9.15056C16.0712 9.14794 16.0529 9.14904 16.0354 9.15379C16.0178 9.15854 16.0013 9.16684 15.9869 9.17822ZM17.0618 7.48185C17.1677 7.48191 17.2722 7.45814 17.3683 7.41219C17.4645 7.36624 17.5498 7.2992 17.6185 7.2157L18.3587 6.31834C18.4789 6.17191 18.5413 5.98369 18.5332 5.79151C18.5252 5.59933 18.4473 5.41743 18.3153 5.28238L18.127 5.09052L18.1055 4.77382C18.0918 4.57285 18.011 4.38312 17.8769 4.23735C17.7428 4.09158 17.5639 3.9989 17.371 3.97529L17.2469 3.96022C17.1036 3.94315 16.9723 3.86896 16.8808 3.75333L16.5289 3.31007C16.405 3.1539 16.2393 3.03923 16.0528 2.98049C15.8662 2.92175 15.6671 2.92157 15.4804 2.97997L14.4053 3.31684C14.3405 3.05752 14.1946 2.82783 13.9905 2.66376C13.7863 2.49968 13.5355 2.41049 13.2773 2.41016H10.7906C10.5339 2.41051 10.2846 2.49865 10.0811 2.66091C9.8776 2.82318 9.73137 3.05051 9.66505 3.30771L8.58724 2.97989C8.40058 2.92155 8.20145 2.92177 8.01492 2.98054C7.82838 3.03931 7.66277 3.15399 7.53892 3.31016L7.18708 3.75333C7.09553 3.86897 6.96422 3.94316 6.82091 3.96022L6.69671 3.97529C6.50387 3.99892 6.32502 4.09159 6.19097 4.23733C6.05692 4.38306 5.97608 4.57273 5.96237 4.77366L5.94089 5.09048L5.75272 5.28229C5.62064 5.41733 5.54272 5.59922 5.53463 5.79141C5.52655 5.9836 5.58889 6.17185 5.70913 6.3183L6.44932 7.21561C6.56061 7.35089 6.71417 7.44133 6.88319 7.47112C7.05221 7.50092 7.22595 7.46818 7.37407 7.37863L7.58474 7.25154L7.19093 9.06763C7.12073 9.39203 7.1166 9.72806 7.17881 10.0542C7.24102 10.3804 7.36819 10.6895 7.55219 10.9617L8.29238 12.0567C8.35538 12.1493 8.44001 12.2239 8.53835 12.2734V15.5796C8.53863 15.6639 8.51264 15.746 8.46427 15.8137C8.41589 15.8814 8.34772 15.9311 8.26992 15.9553L8.05489 16.0237C7.92068 16.0656 7.80311 16.1514 7.7197 16.2682C7.63628 16.385 7.5915 16.5267 7.592 16.6721V17.0334H7.44491C7.14681 17.0337 6.86101 17.1567 6.65022 17.3754C6.43943 17.594 6.32086 17.8905 6.32053 18.1997V20.3884C6.32089 20.6931 6.43609 20.9856 6.64152 21.2034C6.84696 21.4212 7.12634 21.5471 7.42001 21.5541V21.6973C7.42022 21.8863 7.49269 22.0675 7.62151 22.2011C7.75034 22.3348 7.925 22.4099 8.10719 22.4102H15.9607C16.1429 22.4099 16.3175 22.3348 16.4463 22.2011C16.5752 22.0675 16.6476 21.8863 16.6478 21.6973V21.5541C16.9415 21.5471 17.2209 21.4212 17.4263 21.2034C17.6318 20.9856 17.747 20.6931 17.7473 20.3884V18.1997C17.747 17.8905 17.6284 17.594 17.4176 17.3754C17.2068 17.1567 16.9211 17.0337 16.6229 17.0334H16.4759V16.6721C16.4764 16.5267 16.4316 16.385 16.3482 16.2682C16.2648 16.1514 16.1472 16.0656 16.013 16.0237L15.7935 15.9541C15.7169 15.9301 15.6498 15.8811 15.6023 15.8143C15.5547 15.7476 15.5292 15.6667 15.5295 15.5837V12.2734C15.6279 12.2239 15.7125 12.1493 15.7755 12.0566L16.5157 10.9618C16.6997 10.6895 16.8268 10.3804 16.8891 10.0543C16.9513 9.72812 16.9472 9.39208 16.877 9.06767L16.4831 7.25158L16.6937 7.37859C16.8055 7.44623 16.9325 7.48186 17.0618 7.48185ZM17.4946 6.9273L16.8271 6.39309C16.8138 6.38249 16.803 6.36901 16.7953 6.35359C16.7876 6.33818 16.7832 6.3212 16.7825 6.30385C16.7818 6.2865 16.7847 6.26921 16.7912 6.25317C16.7976 6.23713 16.8073 6.22274 16.8196 6.21101L17.0431 5.99847C17.0645 5.97815 17.0926 5.96701 17.1217 5.96726C17.1507 5.96751 17.1786 5.97913 17.1997 5.99981L17.7847 6.57565L17.4946 6.9273ZM9.90069 3.61843C9.90096 3.37368 9.99481 3.13904 10.1616 2.96598C10.3285 2.79292 10.5547 2.69557 10.7906 2.69529H13.2773C13.5132 2.69557 13.7394 2.79292 13.9062 2.96598C14.0731 3.13904 14.1669 3.37368 14.1672 3.61843V4.93655C14.1662 5.3206 14.0801 5.69927 13.9156 6.04334C13.7511 6.38741 13.5126 6.68767 13.2185 6.92095C12.9546 7.12824 12.6328 7.24073 12.3018 7.2414H11.766C11.435 7.24073 11.1132 7.12824 10.8493 6.92095C10.5552 6.68767 10.3167 6.3874 10.1522 6.04333C9.98774 5.69925 9.90167 5.32057 9.90065 4.93651L9.90069 3.61843ZM14.0292 16.2281L14.2306 16.4904C14.2717 16.5442 14.2987 16.608 14.3092 16.6757C14.3197 16.7435 14.3132 16.8128 14.2905 16.8772L14.2349 17.0334H12.5842L12.5255 16.8918C12.4971 16.8237 12.4876 16.7488 12.4981 16.6755C12.5087 16.6021 12.5388 16.5333 12.5851 16.4768L12.7813 16.2353C12.8923 16.0998 12.9477 15.9245 12.9356 15.7471L12.7447 12.8567L14.1063 12.2433L13.8868 15.7579C13.8762 15.9276 13.9269 16.0952 14.0292 16.2281ZM10.1947 15.747L9.9632 12.2442L11.327 12.8585L11.146 15.7579C11.1353 15.9276 11.1861 16.0952 11.2884 16.2281L11.4898 16.4904C11.5308 16.5442 11.5578 16.608 11.5683 16.6758C11.5788 16.7435 11.5724 16.8128 11.5496 16.8772L11.4941 17.0334H9.84336L9.78462 16.8917C9.7562 16.8237 9.74672 16.7488 9.75724 16.6754C9.76777 16.6021 9.79789 16.5333 9.84418 16.4768L10.0404 16.2354C10.1515 16.0998 10.2069 15.9245 10.1948 15.7471L10.1947 15.747ZM12.2729 17.0042L12.285 17.0334H11.7871L11.8075 16.976C11.8464 16.8656 11.8575 16.7466 11.8395 16.6305C11.8215 16.5144 11.7751 16.405 11.7048 16.3128L11.5032 16.0503C11.4436 15.9728 11.4141 15.8751 11.4203 15.7762L11.5957 12.9671C11.883 13.0569 12.1894 13.0565 12.4764 12.9659L12.6613 15.7667C12.6684 15.8702 12.6361 15.9724 12.5713 16.0515L12.3751 16.2928C12.2957 16.3897 12.2441 16.5076 12.226 16.6334C12.2079 16.7591 12.2242 16.8876 12.2729 17.0042ZM11.8965 17.3242V18.7216C11.8706 18.7281 11.8452 18.7366 11.8205 18.7469L11.0292 17.6168C11.291 17.4473 11.5887 17.3469 11.8965 17.3242ZM11.5982 18.9146C11.5812 18.9358 11.5657 18.9582 11.5517 18.9816L10.2703 18.5496C10.3871 18.2535 10.5713 17.991 10.8071 17.7847L11.5982 18.9146ZM11.4666 19.2527C11.4657 19.2664 11.4646 19.2801 11.4646 19.2941C11.4646 19.308 11.4657 19.3217 11.4666 19.3355L10.1851 19.7674C10.1109 19.4565 10.1109 19.1316 10.1851 18.8207L11.4666 19.2527ZM11.5517 19.6066C11.5657 19.63 11.5812 19.6523 11.5982 19.6735L10.8071 20.8034C10.5713 20.5971 10.3872 20.3346 10.2703 20.0385L11.5517 19.6066ZM11.8205 19.8412C11.8452 19.8515 11.8706 19.86 11.8965 19.8666V21.2639C11.5887 21.2412 11.291 21.1408 11.0293 20.9713L11.8205 19.8412ZM11.7394 19.2941C11.7394 19.2336 11.7567 19.1746 11.7891 19.1243C11.8214 19.0741 11.8674 19.0349 11.9212 19.0118C11.975 18.9887 12.0343 18.9826 12.0914 18.9944C12.1485 19.0062 12.201 19.0353 12.2422 19.078C12.2834 19.1208 12.3114 19.1752 12.3228 19.2345C12.3341 19.2937 12.3283 19.3552 12.306 19.411C12.2837 19.4668 12.246 19.5145 12.1975 19.5481C12.1491 19.5816 12.0922 19.5996 12.0339 19.5996C11.9558 19.5995 11.881 19.5673 11.8258 19.51C11.7706 19.4527 11.7395 19.3751 11.7394 19.2941ZM12.1714 19.8666C12.1973 19.86 12.2227 19.8515 12.2474 19.8412L13.0386 20.9713C12.7769 21.1408 12.4791 21.2412 12.1714 21.2639V19.8666ZM12.4697 19.6735C12.4867 19.6523 12.5022 19.63 12.5162 19.6066L13.7976 20.0385C13.6807 20.3347 13.4966 20.5971 13.2608 20.8035L12.4697 19.6735ZM12.6013 19.3354C12.6022 19.3217 12.6033 19.308 12.6033 19.2941C12.6033 19.2801 12.6022 19.2664 12.6013 19.2527L13.8828 18.8207C13.9569 19.1316 13.9569 19.4565 13.8828 19.7674L12.6013 19.3354ZM12.5162 18.9816C12.5022 18.9582 12.4867 18.9358 12.4697 18.9146L13.2608 17.7847C13.4965 17.9911 13.6807 18.2535 13.7975 18.5497L12.5162 18.9816ZM12.2474 18.7469C12.2227 18.7366 12.1973 18.7281 12.1714 18.7216V17.3242C12.4791 17.3469 12.7768 17.4473 13.0386 17.6168L12.2474 18.7469ZM12.5297 12.6427C12.3732 12.7129 12.2045 12.7491 12.0339 12.7491C11.8634 12.7491 11.6947 12.7129 11.5381 12.6427L9.75933 11.8415C9.71653 11.8222 9.67878 11.7925 9.64921 11.7551C9.61964 11.7176 9.59911 11.6734 9.5893 11.626L9.25435 9.99598C9.18233 9.64713 9.21469 9.28378 9.3471 8.95451L10.2404 6.7058C10.3709 6.87045 10.5195 7.01882 10.683 7.14792C10.9947 7.39284 11.3749 7.52575 11.766 7.52653H12.3018C12.6929 7.52576 13.0731 7.39286 13.3848 7.14796C13.5499 7.01761 13.6997 6.86762 13.8312 6.70107L14.7194 8.946C14.8518 9.27443 14.8844 9.63695 14.8128 9.98511L14.4781 11.626C14.4684 11.6734 14.448 11.7177 14.4184 11.7552C14.3888 11.7927 14.351 11.8223 14.3081 11.8415L12.5297 12.6427ZM6.28318 6.57565L6.86811 5.99985C6.88924 5.97916 6.91713 5.96752 6.94619 5.96726C6.97524 5.96701 7.00332 5.97815 7.02479 5.99847L7.24822 6.21105C7.26055 6.22278 7.27027 6.23717 7.27668 6.2532C7.28309 6.26924 7.28604 6.28653 7.28533 6.30387C7.28462 6.32121 7.28026 6.33819 7.27256 6.3536C7.26486 6.36901 7.25401 6.38249 7.24076 6.39309L6.57321 6.9273L6.28318 6.57565ZM7.23581 7.13215C7.16518 7.1748 7.08481 7.19701 7.00309 7.19645C6.92136 7.19589 6.84128 7.17259 6.7712 7.12897L7.4087 6.61883C7.45367 6.58283 7.49051 6.53707 7.51663 6.48475C7.54276 6.43243 7.55754 6.37481 7.55994 6.31594C7.56235 6.25708 7.55232 6.19837 7.53055 6.14395C7.50879 6.08952 7.47582 6.04069 7.43395 6.00087L7.21052 5.78832C7.13767 5.71943 7.04241 5.68164 6.94384 5.68251C6.84526 5.68338 6.75064 5.72284 6.67892 5.79301L6.10424 6.35871L5.91796 6.13293C5.84284 6.04143 5.80391 5.92384 5.80897 5.80378C5.81403 5.68372 5.86272 5.5701 5.94525 5.48576L6.17064 5.25602C6.19457 5.23166 6.20908 5.19906 6.21144 5.16437L6.23657 4.79354C6.24577 4.65887 6.29997 4.53175 6.38982 4.43408C6.47966 4.3364 6.59954 4.2743 6.72879 4.25847L6.85284 4.24339C6.96249 4.2301 7.06849 4.19429 7.16466 4.13806L7.18508 4.15158C7.35355 4.26317 7.49223 4.41695 7.58835 4.59875L8.22723 5.80934C8.26818 5.88724 8.28495 5.97636 8.27524 6.06452C8.26552 6.15268 8.22981 6.23558 8.17297 6.30189L7.70058 6.85191L7.23581 7.13215ZM8.51734 11.8929L7.77715 10.7979C7.61515 10.5582 7.50319 10.286 7.44842 9.99887C7.39365 9.71172 7.39728 9.41586 7.45908 9.13024L7.91415 7.03187L8.37814 6.49162C8.47266 6.38134 8.53206 6.24348 8.54821 6.09686C8.56436 5.95025 8.53648 5.80204 8.46837 5.67248L7.82945 4.46181C7.72149 4.25807 7.56997 4.0827 7.38652 3.94914C7.39068 3.94417 7.39524 3.93969 7.39928 3.9346L7.75108 3.4915C7.84066 3.37863 7.96044 3.29578 8.09533 3.25338C8.23022 3.21098 8.37418 3.21094 8.50909 3.25325L9.62645 3.59309C9.62625 3.60152 9.62582 3.60991 9.62582 3.61843V4.93655C9.62699 5.46778 9.77441 5.98761 10.0507 6.43488L9.09308 8.84547C8.93934 9.228 8.9018 9.65008 8.98549 10.0553L9.32044 11.6856C9.32212 11.6937 9.32483 11.7014 9.32684 11.7095L9.07627 11.9529C9.03736 11.9906 8.99111 12.0192 8.94063 12.0368C8.89014 12.0544 8.83661 12.0606 8.78363 12.0549C8.73066 12.0492 8.67948 12.0318 8.63354 12.0039C8.5876 11.9759 8.54798 11.9381 8.51734 11.8929ZM7.86688 16.6721C7.8666 16.5878 7.89259 16.5057 7.94097 16.438C7.98935 16.3703 8.05753 16.3206 8.13535 16.2963L8.35034 16.228C8.48455 16.1861 8.60212 16.1003 8.68553 15.9835C8.76894 15.8667 8.81373 15.725 8.81322 15.5796V12.3416C8.8162 12.3416 8.81919 12.3421 8.82217 12.3421C8.9863 12.3421 9.14429 12.2774 9.26413 12.1611L9.46415 11.9668C9.51654 12.0248 9.57973 12.0711 9.64989 12.103L9.67918 12.1163L9.92052 15.7667C9.92756 15.8702 9.89521 15.9724 9.8304 16.0514L9.63422 16.2928C9.55483 16.3896 9.50318 16.5076 9.48512 16.6334C9.46705 16.7591 9.4833 16.8876 9.53201 17.0042L9.54414 17.0334H7.86688V16.6721ZM7.44491 21.2696C7.21968 21.2694 7.00376 21.1764 6.8445 21.0112C6.68524 20.846 6.59566 20.622 6.5954 20.3884V18.1997C6.59566 17.9661 6.68524 17.7421 6.8445 17.5769C7.00376 17.4117 7.21968 17.3188 7.44491 17.3185H10.9764C10.9033 17.3608 10.8325 17.4075 10.7645 17.4582C10.7608 17.4605 10.7568 17.4623 10.7531 17.4651C10.7502 17.4673 10.7479 17.4701 10.7451 17.4725C10.3779 17.7525 10.1042 18.1445 9.96214 18.5937C9.96195 18.5943 9.96163 18.5948 9.96144 18.5955C9.96128 18.5959 9.96128 18.5964 9.96112 18.5969C9.81908 19.05 9.81908 19.5381 9.96112 19.9913C9.96128 19.9917 9.96128 19.9922 9.96144 19.9927C9.96167 19.9935 9.96207 19.9941 9.96234 19.9949C10.1044 20.4439 10.3781 20.8357 10.7451 21.1156C10.7479 21.1181 10.7502 21.1208 10.7532 21.1231C10.7578 21.1264 10.7626 21.1295 10.7676 21.1322C10.8346 21.182 10.9043 21.2279 10.9763 21.2696H7.44491ZM16.373 21.6973C16.3728 21.8107 16.3294 21.9194 16.2521 21.9996C16.1748 22.0798 16.07 22.1249 15.9607 22.125H8.10719C7.99788 22.1249 7.89308 22.0798 7.81578 21.9996C7.73849 21.9194 7.69501 21.8107 7.69489 21.6973V21.5548H16.373V21.6973ZM16.6229 17.3185C16.8482 17.3188 17.0641 17.4117 17.2234 17.5769C17.3826 17.7421 17.4722 17.9661 17.4725 18.1997V20.3884C17.4722 20.622 17.3826 20.846 17.2234 21.0112C17.0641 21.1764 16.8482 21.2694 16.6229 21.2696H13.0915C13.1635 21.2279 13.2332 21.182 13.3003 21.1322C13.3052 21.1295 13.3101 21.1264 13.3147 21.1231C13.3177 21.1208 13.32 21.1181 13.3228 21.1156C13.6898 20.8357 13.9634 20.4439 14.1055 19.9949C14.1058 19.9941 14.1062 19.9935 14.1064 19.9927C14.1066 19.9922 14.1066 19.9917 14.1067 19.9913C14.2488 19.5381 14.2488 19.05 14.1067 18.5969C14.1066 18.5964 14.1066 18.5959 14.1064 18.5955C14.1062 18.5948 14.1059 18.5943 14.1057 18.5937C13.9637 18.1445 13.6899 17.7525 13.3227 17.4725C13.32 17.4701 13.3177 17.4673 13.3147 17.4651C13.3111 17.4623 13.3071 17.4605 13.3034 17.4582C13.2354 17.4075 13.1646 17.3608 13.0914 17.3185H16.6229ZM15.7131 16.2267L15.9327 16.2964C16.0104 16.3206 16.0786 16.3703 16.1269 16.438C16.1753 16.5057 16.2013 16.5878 16.201 16.6721V17.0334H14.528L14.5484 16.9761C14.5873 16.8656 14.5984 16.7467 14.5804 16.6305C14.5624 16.5144 14.516 16.405 14.4456 16.3128L14.2441 16.0503C14.1845 15.9728 14.1549 15.8751 14.1612 15.7762L14.3897 12.1156L14.4174 12.1031C14.4878 12.0712 14.5511 12.0248 14.6036 11.9667L14.8038 12.1611C14.9236 12.2774 15.0816 12.3422 15.2457 12.3421C15.2487 12.3421 15.2517 12.3417 15.2546 12.3416V15.5837C15.2541 15.7278 15.2984 15.8683 15.381 15.9841C15.4636 16.1 15.5801 16.1851 15.7131 16.2267ZM16.6088 9.13028C16.6706 9.41591 16.6742 9.71178 16.6194 9.99894C16.5646 10.2861 16.4527 10.5582 16.2907 10.7979L15.5506 11.8928C15.5199 11.938 15.4803 11.9758 15.4344 12.0038C15.3885 12.0318 15.3373 12.0492 15.2843 12.0549C15.2313 12.0606 15.1778 12.0545 15.1273 12.0369C15.0768 12.0193 15.0305 11.9906 14.9916 11.9529L14.7407 11.7091C14.7426 11.701 14.7454 11.6931 14.7471 11.6849L15.0816 10.0442C15.1648 9.63978 15.1271 9.21866 14.9734 8.83708L14.0207 6.42902C14.2947 5.98305 14.4409 5.46542 14.442 4.93655V3.61843C14.442 3.61333 14.4417 3.60832 14.4416 3.60327L15.5596 3.25301C15.6944 3.21085 15.8382 3.21099 15.9729 3.25341C16.1076 3.29584 16.2272 3.37864 16.3167 3.49142L16.6686 3.93464C16.6727 3.93973 16.6772 3.94421 16.6813 3.94918C16.4979 4.08274 16.3464 4.25811 16.2384 4.46185L15.5994 5.67248C15.5313 5.80202 15.5035 5.95022 15.5196 6.09681C15.5357 6.24341 15.5951 6.38127 15.6896 6.49154L16.1537 7.03187L16.6088 9.13028ZM16.3673 6.85191L15.8949 6.30185C15.838 6.23555 15.8023 6.15267 15.7926 6.06452C15.7829 5.97638 15.7996 5.88727 15.8406 5.80938L16.4795 4.59879C16.5756 4.41695 16.7143 4.26314 16.8828 4.15154L16.9032 4.1381C16.9994 4.19432 17.1053 4.23011 17.215 4.24339L17.3389 4.25847C17.4682 4.27428 17.5882 4.33639 17.6781 4.4341C17.7679 4.53181 17.8221 4.65898 17.8313 4.7937L17.8565 5.16437C17.8588 5.19905 17.8733 5.23165 17.8972 5.25602L18.1227 5.48588C18.2052 5.57024 18.2539 5.68385 18.2589 5.80389C18.2639 5.92393 18.225 6.0415 18.1499 6.13297L17.9636 6.35875L17.3889 5.79297C17.3172 5.72282 17.2226 5.68336 17.124 5.6825C17.0254 5.68164 16.9302 5.71944 16.8573 5.78832L16.6339 6.00083C16.592 6.04065 16.5591 6.08949 16.5373 6.14392C16.5155 6.19835 16.5055 6.25706 16.5079 6.31593C16.5103 6.37481 16.5251 6.43243 16.5512 6.48475C16.5774 6.53707 16.6142 6.58283 16.6592 6.61883L17.2967 7.12897C17.2266 7.17259 17.1465 7.19589 17.0647 7.19644C16.983 7.197 16.9026 7.17478 16.8319 7.13211L16.3673 6.85191ZM17.3095 5.28254C17.3454 5.28258 17.3798 5.26803 17.4055 5.24201L17.575 5.0704C17.5882 5.05739 17.5987 5.0418 17.606 5.02452C17.6134 5.00725 17.6173 4.98864 17.6176 4.96977C17.618 4.95091 17.6147 4.93216 17.608 4.91462C17.6013 4.89708 17.5913 4.88109 17.5786 4.86758C17.5659 4.85408 17.5507 4.84332 17.534 4.83594C17.5172 4.82856 17.4993 4.8247 17.4811 4.82458C17.4629 4.82446 17.4449 4.82809 17.428 4.83526C17.4112 4.84243 17.3959 4.85299 17.383 4.86633L17.2135 5.03794C17.1939 5.05773 17.1805 5.08313 17.1749 5.11088C17.1694 5.13863 17.1719 5.16748 17.1822 5.19373C17.1925 5.21999 17.2101 5.24246 17.2328 5.25828C17.2555 5.2741 17.2822 5.28254 17.3095 5.28254ZM15.5213 8.07908C15.5448 8.07908 15.5683 8.07728 15.5915 8.0737C15.6527 8.06444 15.7116 8.04267 15.7647 8.00965C15.8178 7.97663 15.8641 7.93301 15.9008 7.88132C15.9117 7.86629 15.9196 7.84918 15.924 7.83097C15.9285 7.81277 15.9295 7.79383 15.9268 7.77524C15.9242 7.75665 15.9181 7.73879 15.9088 7.72266C15.8995 7.70654 15.8872 7.69248 15.8727 7.68129C15.8582 7.67011 15.8416 7.66201 15.824 7.65747C15.8065 7.65294 15.7882 7.65204 15.7703 7.65485C15.7524 7.65766 15.7352 7.66411 15.7197 7.67383C15.7042 7.68355 15.6907 7.69635 15.68 7.7115C15.6647 7.73299 15.6454 7.75112 15.6233 7.76487C15.6011 7.77863 15.5766 7.78772 15.5511 7.79165C15.5256 7.79558 15.4996 7.79425 15.4746 7.78776C15.4496 7.78126 15.4261 7.76971 15.4053 7.75378C15.3846 7.73785 15.3672 7.71784 15.3539 7.6949C15.3406 7.67196 15.3319 7.64653 15.3281 7.62007C15.3243 7.59362 15.3256 7.56664 15.3318 7.5407C15.3381 7.51475 15.3492 7.49034 15.3646 7.46885C15.3754 7.45382 15.3833 7.43671 15.3878 7.41851C15.3923 7.4003 15.3932 7.38136 15.3906 7.36278C15.388 7.34419 15.3819 7.32632 15.3726 7.3102C15.3633 7.29408 15.351 7.28002 15.3365 7.26883C15.3219 7.25764 15.3054 7.24955 15.2878 7.24501C15.2702 7.24047 15.252 7.23958 15.2341 7.24239C15.2162 7.24519 15.199 7.25164 15.1835 7.26136C15.168 7.27109 15.1545 7.28389 15.1438 7.29904C15.0919 7.37172 15.0604 7.45791 15.0529 7.54804C15.0454 7.63817 15.0621 7.72869 15.1012 7.80954C15.1404 7.89039 15.2004 7.95838 15.2745 8.00597C15.3487 8.05356 15.4341 8.07886 15.5213 8.07908ZM11.5431 10.2106C11.5066 10.2106 11.4717 10.2256 11.4459 10.2523C11.4201 10.2791 11.4057 10.3153 11.4057 10.3531C11.4057 10.4071 11.385 10.4589 11.3481 10.4971C11.3113 10.5353 11.2614 10.5568 11.2093 10.5568C11.1572 10.5568 11.1073 10.5353 11.0705 10.4971C11.0337 10.4589 11.013 10.4071 11.013 10.3531C11.013 10.3153 10.9985 10.2791 10.9727 10.2523C10.9469 10.2256 10.912 10.2106 10.8755 10.2106C10.8391 10.2106 10.8041 10.2256 10.7784 10.2523C10.7526 10.2791 10.7381 10.3153 10.7381 10.3531C10.7381 10.4828 10.7878 10.6071 10.8761 10.6988C10.9645 10.7904 11.0843 10.8419 11.2093 10.8419C11.3343 10.8419 11.4541 10.7904 11.5425 10.6988C11.6309 10.6071 11.6805 10.4828 11.6805 10.3531C11.6805 10.3153 11.666 10.2791 11.6403 10.2523C11.6145 10.2256 11.5795 10.2106 11.5431 10.2106ZM11.1308 9.2126C11.1308 9.17479 11.1163 9.13853 11.0905 9.11179C11.0648 9.08505 11.0298 9.07003 10.9933 9.07003C10.9569 9.07003 10.9219 9.08505 10.8962 9.11179C10.8704 9.13853 10.8559 9.17479 10.8559 9.2126C10.8559 9.26662 10.8352 9.31842 10.7984 9.35661C10.7616 9.39481 10.7116 9.41627 10.6596 9.41627C10.6075 9.41627 10.5576 9.39481 10.5207 9.35661C10.4839 9.31842 10.4632 9.26662 10.4632 9.2126C10.4632 9.17479 10.4488 9.13853 10.423 9.11179C10.3972 9.08505 10.3622 9.07003 10.3258 9.07003C10.2893 9.07003 10.2544 9.08505 10.2286 9.11179C10.2028 9.13853 10.1884 9.17479 10.1884 9.2126C10.1884 9.34224 10.238 9.46656 10.3264 9.55823C10.4147 9.6499 10.5346 9.7014 10.6596 9.7014C10.7845 9.7014 10.9044 9.6499 10.9928 9.55823C11.0811 9.46656 11.1308 9.34224 11.1308 9.2126ZM12.3677 11.3511C12.3313 11.3511 12.2963 11.3661 12.2705 11.3928C12.2447 11.4196 12.2303 11.4558 12.2303 11.4937C12.2303 11.5477 12.2096 11.5995 12.1728 11.6377C12.1359 11.6759 12.086 11.6973 12.0339 11.6973C11.9819 11.6973 11.9319 11.6759 11.8951 11.6377C11.8583 11.5995 11.8376 11.5477 11.8376 11.4937C11.8376 11.4558 11.8231 11.4196 11.7973 11.3928C11.7716 11.3661 11.7366 11.3511 11.7002 11.3511C11.6637 11.3511 11.6287 11.3661 11.603 11.3928C11.5772 11.4196 11.5627 11.4558 11.5627 11.4937C11.5627 11.6233 11.6124 11.7476 11.7007 11.8393C11.7891 11.931 11.909 11.9825 12.0339 11.9825C12.1589 11.9825 12.2788 11.931 12.3671 11.8393C12.4555 11.7476 12.5051 11.6233 12.5051 11.4937C12.5051 11.4558 12.4907 11.4196 12.4649 11.3928C12.4391 11.3661 12.4042 11.3511 12.3677 11.3511ZM6.68481 4.86633C6.67195 4.85299 6.65666 4.84243 6.63983 4.83526C6.623 4.82809 6.60497 4.82446 6.58678 4.82458C6.56859 4.8247 6.55061 4.82856 6.53387 4.83594C6.51713 4.84332 6.50197 4.85408 6.48926 4.86758C6.47656 4.88109 6.46657 4.89708 6.45987 4.91462C6.45317 4.93216 6.44989 4.95091 6.45022 4.96977C6.45056 4.98864 6.4545 5.00725 6.46182 5.02452C6.46914 5.0418 6.4797 5.05739 6.49287 5.0704L6.66239 5.24201C6.67531 5.25509 6.69058 5.26539 6.70734 5.27235C6.7241 5.2793 6.74201 5.28276 6.76006 5.28253C6.77811 5.2823 6.79593 5.27839 6.81252 5.27101C6.82911 5.26364 6.84414 5.25294 6.85674 5.23955C6.86935 5.22615 6.87929 5.2103 6.88599 5.19292C6.89269 5.17553 6.89603 5.15695 6.89581 5.13823C6.89559 5.11951 6.89181 5.10102 6.8847 5.08381C6.87759 5.0666 6.86728 5.05101 6.85437 5.03794L6.68481 4.86633ZM13.1923 10.2106C13.1559 10.2106 13.1209 10.2256 13.0951 10.2523C13.0694 10.2791 13.0549 10.3153 13.0549 10.3531C13.0549 10.4071 13.0342 10.4589 12.9974 10.4971C12.9606 10.5353 12.9106 10.5568 12.8585 10.5568C12.8065 10.5568 12.7565 10.5353 12.7197 10.4971C12.6829 10.4589 12.6622 10.4071 12.6622 10.3531C12.6622 10.3153 12.6477 10.2791 12.622 10.2523C12.5962 10.2256 12.5612 10.2106 12.5248 10.2106C12.4883 10.2106 12.4534 10.2256 12.4276 10.2523C12.4018 10.2791 12.3873 10.3153 12.3873 10.3531C12.3873 10.4828 12.437 10.6071 12.5253 10.6988C12.6137 10.7904 12.7336 10.8419 12.8585 10.8419C12.9835 10.8419 13.1034 10.7904 13.1917 10.6988C13.2801 10.6071 13.3298 10.4828 13.3298 10.3531C13.3298 10.3153 13.3153 10.2791 13.2895 10.2523C13.2637 10.2256 13.2288 10.2106 13.1923 10.2106ZM13.7421 9.07003C13.7056 9.07003 13.6707 9.08505 13.6449 9.11179C13.6191 9.13853 13.6046 9.17479 13.6046 9.2126C13.6046 9.26662 13.5839 9.31842 13.5471 9.35661C13.5103 9.39481 13.4604 9.41627 13.4083 9.41627C13.3562 9.41627 13.3063 9.39481 13.2695 9.35661C13.2326 9.31842 13.2119 9.26662 13.2119 9.2126C13.2119 9.17479 13.1975 9.13853 13.1717 9.11179C13.1459 9.08505 13.111 9.07003 13.0745 9.07003C13.0381 9.07003 13.0031 9.08505 12.9773 9.11179C12.9516 9.13853 12.9371 9.17479 12.9371 9.2126C12.9371 9.34224 12.9867 9.46656 13.0751 9.55823C13.1635 9.6499 13.2833 9.7014 13.4083 9.7014C13.5333 9.7014 13.6531 9.6499 13.7415 9.55823C13.8299 9.46656 13.8795 9.34224 13.8795 9.2126C13.8795 9.17479 13.865 9.13853 13.8392 9.11179C13.8135 9.08505 13.7785 9.07003 13.7421 9.07003Z" fill="#424242" stroke="#424242" stroke-width="10" mask="url(#path-1-inside-1_73_7686)"/>
</svg>
