<svg width="24" height="24" viewBox="0 0 24 24" fill="none" xmlns="http://www.w3.org/2000/svg">
<path d="M17.9239 4.38268L17.4619 4.19134L17.9239 4.38268ZM17.9239 2.61732L17.4619 2.80866L17.9239 2.61732ZM4.5 17.5C4.22386 17.5 4 17.7239 4 18C4 18.2761 4.22386 18.5 4.5 18.5V17.5ZM19.5 18.5C19.7761 18.5 20 18.2761 20 18C20 17.7239 19.7761 17.5 19.5 17.5V18.5ZM4.5 9.5C4.22386 9.5 4 9.72386 4 10C4 10.2761 4.22386 10.5 4.5 10.5V9.5ZM19.5 10.5C19.7761 10.5 20 10.2761 20 10C20 9.72386 19.7761 9.5 19.5 9.5V10.5ZM7.90434 5.87652L8.21669 6.26696V6.26696L7.90434 5.87652ZM5.50122 7.79902L5.81357 8.18946L5.50122 7.79902ZM4.92711 20.1125L5.31123 19.7924L5.31123 19.7924L4.92711 20.1125ZM16.1595 5.89102L16.4741 5.5024V5.5024L16.1595 5.89102ZM18.5168 7.79931L18.8314 7.41069V7.41069L18.5168 7.79931ZM19.0877 20.1078L19.4737 20.4256H19.4737L19.0877 20.1078ZM18.7294 20.5428L18.3435 20.225H18.3435L18.7294 20.5428ZM15.0182 5.11466L14.8514 5.586V5.586L15.0182 5.11466ZM5.67738 20.9548L6.01439 20.5855V20.5855L5.67738 20.9548ZM7.82957 21.9628L7.76157 22.4582H7.76157L7.82957 21.9628ZM9.03955 5.11274L9.20505 5.58456V5.58456L9.03955 5.11274ZM12.5 12C12.5 11.7239 12.2761 11.5 12 11.5C11.7239 11.5 11.5 11.7239 11.5 12H12.5ZM11.5 16C11.5 16.2761 11.7239 16.5 12 16.5C12.2761 16.5 12.5 16.2761 12.5 16H11.5ZM10 13.5C9.72386 13.5 9.5 13.7239 9.5 14C9.5 14.2761 9.72386 14.5 10 14.5V13.5ZM14 14.5C14.2761 14.5 14.5 14.2761 14.5 14C14.5 13.7239 14.2761 13.5 14 13.5V14.5ZM7.5 2.5H16.5V1.5H7.5V2.5ZM16.5 4.5H7.5V5.5H16.5V4.5ZM7.5 4.5C7.26019 4.5 7.10537 4.49973 6.98688 4.49164C6.87288 4.48387 6.82946 4.47056 6.80866 4.46194L6.42597 5.38582C6.58894 5.45332 6.75389 5.47807 6.91881 5.48933C7.07923 5.50027 7.27387 5.5 7.5 5.5V4.5ZM5.5 3.5C5.5 3.72613 5.49973 3.92077 5.51067 4.08119C5.52193 4.24611 5.54668 4.41106 5.61418 4.57403L6.53806 4.19134C6.52944 4.17054 6.51613 4.12712 6.50836 4.01312C6.50027 3.89463 6.5 3.73981 6.5 3.5H5.5ZM6.80866 4.46194C6.68614 4.41119 6.58881 4.31386 6.53806 4.19134L5.61418 4.57403C5.76642 4.94157 6.05843 5.23358 6.42597 5.38582L6.80866 4.46194ZM17.5 3.5C17.5 3.73981 17.4997 3.89463 17.4916 4.01312C17.4839 4.12712 17.4706 4.17054 17.4619 4.19134L18.3858 4.57403C18.4533 4.41106 18.4781 4.24611 18.4893 4.08119C18.5003 3.92077 18.5 3.72613 18.5 3.5H17.5ZM16.5 5.5C16.7261 5.5 16.9208 5.50027 17.0812 5.48933C17.2461 5.47807 17.4111 5.45332 17.574 5.38582L17.1913 4.46194C17.1705 4.47056 17.1271 4.48387 17.0131 4.49164C16.8946 4.49973 16.7398 4.5 16.5 4.5V5.5ZM17.4619 4.19134C17.4112 4.31386 17.3139 4.41119 17.1913 4.46194L17.574 5.38582C17.9416 5.23358 18.2336 4.94157 18.3858 4.57403L17.4619 4.19134ZM16.5 2.5C16.7398 2.5 16.8946 2.50027 17.0131 2.50836C17.1271 2.51613 17.1705 2.52944 17.1913 2.53806L17.574 1.61418C17.4111 1.54668 17.2461 1.52193 17.0812 1.51067C16.9208 1.49973 16.7261 1.5 16.5 1.5V2.5ZM18.5 3.5C18.5 3.27387 18.5003 3.07923 18.4893 2.91881C18.4781 2.75389 18.4533 2.58894 18.3858 2.42597L17.4619 2.80866C17.4706 2.82947 17.4839 2.87288 17.4916 2.98688C17.4997 3.10537 17.5 3.26019 17.5 3.5H18.5ZM17.1913 2.53806C17.3139 2.58881 17.4112 2.68614 17.4619 2.80866L18.3858 2.42597C18.2336 2.05843 17.9416 1.76642 17.574 1.61418L17.1913 2.53806ZM7.5 1.5C7.27387 1.5 7.07923 1.49973 6.91881 1.51067C6.75389 1.52193 6.58894 1.54668 6.42597 1.61418L6.80866 2.53806C6.82947 2.52944 6.87288 2.51613 6.98688 2.50836C7.10537 2.50027 7.26019 2.5 7.5 2.5V1.5ZM6.5 3.5C6.5 3.26019 6.50027 3.10537 6.50836 2.98688C6.51613 2.87288 6.52944 2.82947 6.53806 2.80866L5.61418 2.42597C5.54668 2.58894 5.52193 2.75389 5.51067 2.91881C5.49973 3.07923 5.5 3.27387 5.5 3.5H6.5ZM6.42597 1.61418C6.05843 1.76642 5.76642 2.05843 5.61418 2.42597L6.53806 2.80866C6.58881 2.68614 6.68614 2.58881 6.80866 2.53806L6.42597 1.61418ZM4.5 18.5H19.5V17.5H4.5V18.5ZM4.5 10.5H19.5V9.5H4.5V10.5ZM7.592 5.48609L5.18887 7.40859L5.81357 8.18946L8.21669 6.26696L7.592 5.48609ZM3.5 10.9225V17.5518H4.5V10.9225H3.5ZM3.5 17.5518C3.5 18.6045 3.86907 19.6239 4.543 20.4326L5.31123 19.7924C4.78706 19.1634 4.5 18.3706 4.5 17.5518H3.5ZM5.18887 7.40859C4.1214 8.26256 3.5 9.55547 3.5 10.9225H4.5C4.5 9.85926 4.98331 8.85366 5.81357 8.18946L5.18887 7.40859ZM15.8449 6.27964L18.2022 8.18793L18.8314 7.41069L16.4741 5.5024L15.8449 6.27964ZM19.5 10.9083V17.5649H20.5V10.9083H19.5ZM18.7018 19.7899L18.3435 20.225L19.1154 20.8607L19.4737 20.4256L18.7018 19.7899ZM15.6417 21.5H8.95693V22.5H15.6417V21.5ZM18.3435 20.225C17.6786 21.0323 16.6876 21.5 15.6417 21.5V22.5C16.9864 22.5 18.2606 21.8987 19.1154 20.8607L18.3435 20.225ZM19.5 17.5649C19.5 18.3767 19.2178 19.1633 18.7018 19.7899L19.4737 20.4256C20.1372 19.6199 20.5 18.6087 20.5 17.5649H19.5ZM18.2022 8.18793C19.0231 8.85246 19.5 9.85214 19.5 10.9083H20.5C20.5 9.55038 19.8868 8.26508 18.8314 7.41069L18.2022 8.18793ZM10.4031 5.5H13.6427V4.5H10.4031V5.5ZM16.4741 5.5024C15.9559 5.08293 15.6087 4.79328 15.1851 4.64333L14.8514 5.586C15.0756 5.66537 15.2732 5.81685 15.8449 6.27964L16.4741 5.5024ZM13.6427 5.5C14.3782 5.5 14.6272 5.50662 14.8514 5.586L15.1851 4.64333C14.7615 4.49338 14.3094 4.5 13.6427 4.5V5.5ZM4.543 20.4326C4.89975 20.8607 5.10739 21.1116 5.34036 21.3242L6.01439 20.5855C5.84369 20.4297 5.6857 20.2418 5.31123 19.7924L4.543 20.4326ZM8.95693 21.5C8.37197 21.5 8.1265 21.4989 7.89756 21.4675L7.76157 22.4582C8.07403 22.5011 8.39966 22.5 8.95693 22.5V21.5ZM5.34036 21.3242C6.0139 21.9387 6.85825 22.3342 7.76157 22.4582L7.89756 21.4675C7.19497 21.3711 6.53826 21.0635 6.01439 20.5855L5.34036 21.3242ZM8.21669 6.26696C8.78584 5.81164 8.98255 5.66261 9.20505 5.58456L8.87404 4.64093C8.45373 4.78837 8.10791 5.07336 7.592 5.48609L8.21669 6.26696ZM10.4031 4.5C9.74244 4.5 9.29436 4.49349 8.87404 4.64093L9.20505 5.58456C9.42755 5.50651 9.67425 5.5 10.4031 5.5V4.5ZM11.5 12V14H12.5V12H11.5ZM11.5 14V16H12.5V14H11.5ZM10 14.5H12V13.5H10V14.5ZM12 14.5H14V13.5H12V14.5Z" fill="#424242"/>
</svg>
