<svg width="24" height="24" viewBox="0 0 24 24" fill="none" xmlns="http://www.w3.org/2000/svg">
<path d="M18.9771 5.02291L19.3306 4.66936V4.66936L18.9771 5.02291ZM18.9771 14.7904L19.3306 15.1439V15.1439L18.9771 14.7904ZM7.14558 12.6684L6.79203 12.3148H6.79203L7.14558 12.6684ZM3.43349 16.3804L3.78705 16.734H3.78705L3.43349 16.3804ZM7.61956 20.5665L7.266 20.213H7.266L7.61956 20.5665ZM11.3319 16.8541L10.9784 16.5006V16.5006L11.3319 16.8541ZM3.00906 17.5904L2.51212 17.6456H2.51212L3.00906 17.5904ZM3.24113 19.679L2.74419 19.7342L2.74419 19.7342L3.24113 19.679ZM4.32101 20.7589L4.2658 21.2558H4.2658L4.32101 20.7589ZM6.4096 20.9909L6.46482 20.494H6.46482L6.4096 20.9909ZM3.52408 20.2677L3.87764 19.9142L3.87763 19.9142L3.52408 20.2677ZM3.73229 20.4759L3.37874 20.8295L3.37874 20.8295L3.73229 20.4759ZM7.40432 11.6311L6.92003 11.7555H6.92003L7.40432 11.6311ZM12.3689 16.5957L12.2445 17.08H12.2445L12.3689 16.5957ZM7.46252 17.2407C7.26618 17.0465 6.94961 17.0483 6.75542 17.2446C6.56123 17.4409 6.56298 17.7575 6.75931 17.9517L7.46252 17.2407ZM12.9393 11.0607C12.3536 10.4749 12.3536 9.52513 12.9393 8.93934L12.2322 8.23223C11.2559 9.20854 11.2559 10.7915 12.2322 11.7678L12.9393 11.0607ZM15.0607 11.0607C14.4749 11.6464 13.5251 11.6464 12.9393 11.0607L12.2322 11.7678C13.2085 12.7441 14.7915 12.7441 15.7678 11.7678L15.0607 11.0607ZM15.0607 8.93934C15.6464 9.52513 15.6464 10.4749 15.0607 11.0607L15.7678 11.7678C16.7441 10.7915 16.7441 9.20854 15.7678 8.23223L15.0607 8.93934ZM15.7678 8.23223C14.7915 7.25592 13.2085 7.25592 12.2322 8.23223L12.9393 8.93934C13.5251 8.35355 14.4749 8.35355 15.0607 8.93934L15.7678 8.23223ZM18.6235 5.37647C21.1255 7.87842 21.1255 11.9349 18.6235 14.4368L19.3306 15.1439C22.2231 12.2515 22.2231 7.56184 19.3306 4.66936L18.6235 5.37647ZM19.3306 4.66936C16.4382 1.77688 11.7485 1.77688 8.85605 4.66936L9.56316 5.37647C12.0651 2.87451 16.1216 2.87451 18.6235 5.37647L19.3306 4.66936ZM6.79203 12.3148L3.07994 16.0269L3.78705 16.734L7.49914 13.0219L6.79203 12.3148ZM7.97311 20.9201L9.21351 19.6797L8.5064 18.9726L7.266 20.213L7.97311 20.9201ZM9.21351 19.6797L11.6855 17.2077L10.9784 16.5006L8.5064 18.9726L9.21351 19.6797ZM2.51212 17.6456L2.74419 19.7342L3.73807 19.6238L3.506 17.5352L2.51212 17.6456ZM4.2658 21.2558L6.35438 21.4879L6.46482 20.494L4.37623 20.2619L4.2658 21.2558ZM3.17053 20.6213L3.37874 20.8295L4.08585 20.1224L3.87764 19.9142L3.17053 20.6213ZM4.37623 20.2619C4.26639 20.2497 4.16399 20.2005 4.08585 20.1224L3.37874 20.8295C3.61745 21.0682 3.93029 21.2185 4.2658 21.2558L4.37623 20.2619ZM2.74419 19.7342C2.78147 20.0697 2.93182 20.3826 3.17053 20.6213L3.87763 19.9142C3.79949 19.836 3.75027 19.7336 3.73807 19.6238L2.74419 19.7342ZM7.266 20.213C7.05549 20.4235 6.7607 20.5269 6.46482 20.494L6.35438 21.4879C6.9522 21.5543 7.54779 21.3454 7.97311 20.9201L7.266 20.213ZM3.07994 16.0269C2.65462 16.4522 2.4457 17.0478 2.51212 17.6456L3.506 17.5352C3.47313 17.2393 3.57653 16.9445 3.78705 16.734L3.07994 16.0269ZM7.8886 11.5068C7.34334 9.38342 7.9023 7.03732 9.56316 5.37647L8.85605 4.66936C6.93503 6.59038 6.29047 9.30389 6.92003 11.7555L7.8886 11.5068ZM18.6235 14.4368C16.9627 16.0977 14.6166 16.6567 12.4932 16.1114L12.2445 17.08C14.6961 17.7095 17.4096 17.065 19.3306 15.1439L18.6235 14.4368ZM11.6855 17.2077C11.8125 17.0807 12.0216 17.0227 12.2445 17.08L12.4932 16.1114C11.9783 15.9792 11.3901 16.0889 10.9784 16.5006L11.6855 17.2077ZM7.49914 13.0219C7.91069 12.6104 8.0209 12.0219 7.8886 11.5068L6.92003 11.7555C6.97722 11.9782 6.91915 12.1877 6.79203 12.3148L7.49914 13.0219ZM9.21156 18.9706L7.46252 17.2407L6.75931 17.9517L8.50835 19.6816L9.21156 18.9706Z" fill="#424242"/>
</svg>
