<svg width="24" height="24" viewBox="0 0 24 24" fill="none" xmlns="http://www.w3.org/2000/svg">
<path d="M15.7561 2.01142L15.8095 1.51427H15.8095L15.7561 2.01142ZM17.5427 4.00435L18.0427 4.00543V4.00543L17.5427 4.00435ZM8.24362 2.01142L8.29698 2.50856V2.50856L8.24362 2.01142ZM6.45704 4.00434L6.95704 4.00326V4.00326L6.45704 4.00434ZM15 18.5C15.2761 18.5 15.5 18.2761 15.5 18C15.5 17.7239 15.2761 17.5 15 17.5V18.5ZM9 17.5C8.72386 17.5 8.5 17.7239 8.5 18C8.5 18.2761 8.72386 18.5 9 18.5V17.5ZM2.80648 16.793L3.30158 16.7232V16.7232L2.80648 16.793ZM21.1935 16.793L20.6984 16.7232V16.7232L21.1935 16.793ZM21.6165 13.793L22.1116 13.8628V13.8628L21.6165 13.793ZM2.38351 13.793L1.88841 13.8628H1.88841L2.38351 13.793ZM6.53788 5H17.4617V4H6.53788V5ZM17.4617 5C18.4757 5 19.2442 5.91493 19.0692 6.9137L20.0542 7.0863C20.3365 5.47554 19.097 4 17.4617 4V5ZM6.53788 4C4.90257 4 3.66311 5.47554 3.94535 7.0863L4.93034 6.9137C4.75533 5.91493 5.52388 5 6.53788 5V4ZM8.74099 2.5H15.2588V1.5H8.74099V2.5ZM15.2588 2.5C15.5329 2.5 15.6298 2.50073 15.7028 2.50856L15.8095 1.51427C15.6697 1.49927 15.5059 1.5 15.2588 1.5V2.5ZM17.997 4.55443C18.0239 4.30875 18.0424 4.14604 18.0427 4.00543L17.0427 4.00326C17.0426 4.07666 17.0327 4.1731 17.0029 4.44557L17.997 4.55443ZM15.7028 2.50856C16.4661 2.59048 17.0444 3.23554 17.0427 4.00326L18.0427 4.00543C18.0455 2.7259 17.0817 1.6508 15.8095 1.51427L15.7028 2.50856ZM8.74099 1.5C8.49382 1.5 8.33008 1.49927 8.19027 1.51427L8.29698 2.50856C8.36996 2.50073 8.46687 2.5 8.74099 2.5V1.5ZM6.99686 4.44557C6.96702 4.17308 6.95719 4.07667 6.95704 4.00326L5.95704 4.00543C5.95734 4.14604 5.97589 4.30873 6.0028 4.55443L6.99686 4.44557ZM8.19027 1.51427C6.91804 1.6508 5.95426 2.7259 5.95704 4.00543L6.95704 4.00326C6.95537 3.23554 7.53364 2.59048 8.29698 2.50856L8.19027 1.51427ZM15 17.5H9V18.5H15V17.5ZM8.67239 7.5H15.3276V6.5H8.67239V7.5ZM21.1214 13.7232L20.6984 16.7232L21.6886 16.8628L22.1116 13.8628L21.1214 13.7232ZM14.9046 21.5H9.09536V22.5H14.9046V21.5ZM3.30158 16.7232L2.87861 13.7232L1.88841 13.8628L2.31138 16.8628L3.30158 16.7232ZM9.09536 21.5C7.75968 21.5 6.8025 21.4992 6.06541 21.4107C5.34013 21.3237 4.89241 21.1578 4.54721 20.872L3.90947 21.6423C4.46146 22.0993 5.12397 22.3049 5.94626 22.4036C6.75675 22.5008 7.78449 22.5 9.09536 22.5V21.5ZM2.31138 16.8628C2.48435 18.0896 2.61996 19.0589 2.83064 19.8116C3.04582 20.5804 3.35427 21.1826 3.90947 21.6423L4.54721 20.872C4.20522 20.5889 3.97763 20.1994 3.79362 19.5421C3.60511 18.8686 3.47839 17.9772 3.30158 16.7232L2.31138 16.8628ZM20.6984 16.7232C20.5216 17.9772 20.3949 18.8686 20.2064 19.5421C20.0224 20.1994 19.7948 20.5889 19.4528 20.872L20.0905 21.6423C20.6457 21.1826 20.9542 20.5804 21.1694 19.8116C21.38 19.0589 21.5156 18.0896 21.6886 16.8628L20.6984 16.7232ZM14.9046 22.5C16.2155 22.5 17.2432 22.5008 18.0537 22.4036C18.876 22.3049 19.5385 22.0993 20.0905 21.6423L19.4528 20.872C19.1076 21.1578 18.6599 21.3237 17.9346 21.4107C17.1975 21.4992 16.2403 21.5 14.9046 21.5V22.5ZM15.3276 7.5C17.0293 7.5 18.2553 7.50105 19.1768 7.62361C20.0876 7.74475 20.6109 7.97475 20.9708 8.3635L21.7046 7.68415C21.1166 7.04908 20.3223 6.76716 19.3087 6.63234C18.3058 6.49895 17.0007 6.5 15.3276 6.5V7.5ZM22.1116 13.8628C22.3324 12.2968 22.5071 11.0669 22.4998 10.1022C22.4923 9.12003 22.2972 8.32429 21.7046 7.68415L20.9708 8.3635C21.326 8.74719 21.4933 9.25425 21.4998 10.1098C21.5064 10.9828 21.3466 12.1256 21.1214 13.7232L22.1116 13.8628ZM8.67239 6.5C6.99926 6.5 5.6942 6.49895 4.69132 6.63234C3.67772 6.76716 2.88335 7.04908 2.29541 7.68415L3.02922 8.3635C3.38913 7.97475 3.91239 7.74475 4.82317 7.62361C5.74465 7.50105 6.97071 7.5 8.67239 7.5V6.5ZM2.87861 13.7232C2.65337 12.1256 2.49357 10.9828 2.5002 10.1098C2.50669 9.25425 2.67401 8.74719 3.02922 8.3635L2.29541 7.68415C1.70278 8.32429 1.50768 9.12003 1.50022 10.1022C1.4929 11.0669 1.66762 12.2968 1.88841 13.8628L2.87861 13.7232Z" fill="#424242"/>
</svg>
