<svg width="24" height="24" viewBox="0 0 24 24" fill="none" xmlns="http://www.w3.org/2000/svg">
<path d="M17.0012 15.0892L16.6677 14.7167V14.7167L17.0012 15.0892ZM6.99876 15.0892L7.3323 14.7167V14.7167L6.99876 15.0892ZM8.83082 16.7807L8.44235 17.0955H8.44235L8.83082 16.7807ZM9.46192 18.193L8.96826 18.2724V18.2724L9.46192 18.193ZM15.1692 16.7807L15.5576 17.0955H15.5576L15.1692 16.7807ZM14.5381 18.193L15.0317 18.2724V18.2724L14.5381 18.193ZM10.25 21.799L10 22.232H10L10.25 21.799ZM9.70096 21.25L10.134 21H10.134L9.70096 21.25ZM14.299 21.25L13.866 21V21L14.299 21.25ZM13.75 21.799L13.5 21.366V21.366L13.75 21.799ZM13.1926 8.79062C13.3531 8.56591 13.301 8.25364 13.0763 8.09313C12.8516 7.93263 12.5394 7.98467 12.3788 8.20938L13.1926 8.79062ZM10.6429 11.5L10.236 11.2094C10.1271 11.3618 10.1126 11.5623 10.1983 11.7288C10.284 11.8953 10.4556 12 10.6429 12V11.5ZM13.6429 11.5L14.0497 11.7906C14.1586 11.6382 14.1731 11.4377 14.0874 11.2712C14.0017 11.1047 13.8302 11 13.6429 11V11.5ZM11.0931 14.2094C10.9326 14.4341 10.9847 14.7464 11.2094 14.9069C11.4341 15.0674 11.7464 15.0153 11.9069 14.7906L11.0931 14.2094ZM5 9.5C5 5.63401 8.13401 2.5 12 2.5V1.5C7.58172 1.5 4 5.08172 4 9.5H5ZM12 2.5C15.866 2.5 19 5.63401 19 9.5H20C20 5.08172 16.4183 1.5 12 1.5V2.5ZM19 9.5C19 11.5726 18.0999 13.4342 16.6677 14.7167L17.3348 15.4616C18.9699 13.9975 20 11.8687 20 9.5H19ZM7.3323 14.7167C5.90009 13.4342 5 11.5726 5 9.5H4C4 11.8687 5.03012 13.9975 6.66522 15.4616L7.3323 14.7167ZM14.5 19H9.5V20H14.5V19ZM6.66522 15.4616C7.22659 15.9643 7.6442 16.3383 7.94056 16.61C8.24924 16.893 8.39533 17.0375 8.44235 17.0955L9.21929 16.466C9.11536 16.3377 8.90576 16.1382 8.61633 15.8728C8.31457 15.5962 7.89162 15.2175 7.3323 14.7167L6.66522 15.4616ZM10 19.5C10 18.8114 10.0018 18.4007 9.95557 18.1135L8.96826 18.2724C8.99823 18.4587 9 18.7615 9 19.5H10ZM8.44235 17.0955C8.69693 17.4097 8.77682 17.519 8.82637 17.6299C8.87592 17.7407 8.90404 17.8731 8.96826 18.2724L9.95557 18.1135C9.89698 17.7494 9.85295 17.4761 9.73935 17.2219C9.62576 16.9677 9.45151 16.7525 9.21929 16.466L8.44235 17.0955ZM16.6677 14.7167C16.1084 15.2175 15.6854 15.5962 15.3837 15.8728C15.0942 16.1382 14.8846 16.3377 14.7807 16.466L15.5576 17.0955C15.6047 17.0375 15.7508 16.893 16.0594 16.61C16.3558 16.3383 16.7734 15.9643 17.3348 15.4616L16.6677 14.7167ZM15 19.5C15 18.7615 15.0018 18.4587 15.0317 18.2724L14.0444 18.1135C13.9982 18.4007 14 18.8114 14 19.5H15ZM14.7807 16.466C14.5485 16.7525 14.3742 16.9677 14.2606 17.2219C14.147 17.4761 14.103 17.7494 14.0444 18.1135L15.0317 18.2724C15.096 17.8731 15.1241 17.7407 15.1736 17.6299C15.2232 17.519 15.3031 17.4097 15.5576 17.0955L14.7807 16.466ZM12 21.5C11.5235 21.5 11.1995 21.4995 10.9502 21.4769C10.7077 21.4549 10.5853 21.4152 10.5 21.366L10 22.232C10.2628 22.3838 10.5481 22.4446 10.8599 22.4728C11.1649 22.5005 11.5419 22.5 12 22.5V21.5ZM9 19.5C9 19.9581 8.99952 20.3351 9.02716 20.6401C9.05542 20.9519 9.11621 21.2372 9.26795 21.5L10.134 21C10.0848 20.9147 10.0451 20.7923 10.0231 20.5498C10.0005 20.3005 10 19.9765 10 19.5H9ZM10.5 21.366C10.348 21.2783 10.2217 21.152 10.134 21L9.26795 21.5C9.44349 21.804 9.69596 22.0565 10 22.232L10.5 21.366ZM14 19.5C14 19.9765 13.9995 20.3005 13.9769 20.5498C13.9549 20.7923 13.9152 20.9147 13.866 21L14.7321 21.5C14.8838 21.2372 14.9446 20.9519 14.9728 20.6401C15.0005 20.3351 15 19.9581 15 19.5H14ZM12 22.5C12.4581 22.5 12.8351 22.5005 13.1401 22.4728C13.4519 22.4446 13.7372 22.3838 14 22.232L13.5 21.366C13.4147 21.4152 13.2923 21.4549 13.0498 21.4769C12.8005 21.4995 12.4765 21.5 12 21.5V22.5ZM13.866 21C13.7783 21.152 13.652 21.2783 13.5 21.366L14 22.232C14.304 22.0565 14.5565 21.804 14.7321 21.5L13.866 21ZM12.3788 8.20938L10.236 11.2094L11.0497 11.7906L13.1926 8.79062L12.3788 8.20938ZM10.6429 12H13.6429V11H10.6429V12ZM13.236 11.2094L11.0931 14.2094L11.9069 14.7906L14.0497 11.7906L13.236 11.2094Z" fill="#424242"/>
</svg>
