<svg width="24" height="24" viewBox="0 0 24 24" fill="none" xmlns="http://www.w3.org/2000/svg">
<path d="M10 19C9.72386 19 9.5 19.2239 9.5 19.5C9.5 19.7761 9.72386 20 10 20V19ZM14 20C14.2761 20 14.5 19.7761 14.5 19.5C14.5 19.2239 14.2761 19 14 19V20ZM10.6667 21.5C10.3905 21.5 10.1667 21.7239 10.1667 22C10.1667 22.2761 10.3905 22.5 10.6667 22.5V21.5ZM13.3333 22.5C13.6095 22.5 13.8333 22.2761 13.8333 22C13.8333 21.7239 13.6095 21.5 13.3333 21.5V22.5ZM7.41058 13.6805L7.0665 14.0432L7.06789 14.0446L7.41058 13.6805ZM5 8.21807H4.5L4.5 8.21846L5 8.21807ZM5.00007 8.30193L4.50006 8.30233L4.50007 8.30411L5.00007 8.30193ZM19 8.21807L19.5 8.21847V8.21807H19ZM18.9999 8.30193L19.4999 8.30411L19.4999 8.30233L18.9999 8.30193ZM16.5894 13.6805L16.9321 14.0446L16.9335 14.0432L16.5894 13.6805ZM15.4854 14.7196L15.8281 15.0837L15.8281 15.0837L15.4854 14.7196ZM8.51463 14.7196L8.17193 15.0837L8.17194 15.0837L8.51463 14.7196ZM9 15.843H9.5V15.843H9ZM10 20H14V19H10V20ZM10.6667 22.5H13.3333V21.5H10.6667V22.5ZM4.5 8.21846L4.50007 8.30233L5.50007 8.30154L5.5 8.21767L4.5 8.21846ZM7.75466 13.3177C6.3054 11.9431 5.50811 10.1503 5.50006 8.29976L4.50007 8.30411C4.50939 10.4465 5.43339 12.4943 7.06651 14.0432L7.75466 13.3177ZM18.5 8.21767L18.4999 8.30153L19.4999 8.30233L19.5 8.21847L18.5 8.21767ZM18.4999 8.29976C18.4919 10.1503 17.6946 11.9431 16.2453 13.3177L16.9335 14.0432C18.5666 12.4943 19.4906 10.4465 19.4999 8.30411L18.4999 8.29976ZM12 2.5C15.6459 2.5 18.5 5.13595 18.5 8.21807H19.5C19.5 4.47785 16.0861 1.5 12 1.5V2.5ZM12 1.5C7.91392 1.5 4.5 4.47785 4.5 8.21807H5.5C5.5 5.13595 8.35409 2.5 12 2.5V1.5ZM13.843 16.5H10.157V17.5H13.843V16.5ZM9.5 15.843C9.5 15.2798 9.26745 14.7416 8.85731 14.3555L8.17194 15.0837C8.38129 15.2808 8.5 15.5555 8.5 15.843H9.5ZM15.5 15.843C15.5 15.5555 15.6187 15.2808 15.8281 15.0837L15.1427 14.3555C14.7326 14.7416 14.5 15.2798 14.5 15.843H15.5ZM10.157 16.5C9.79414 16.5 9.5 16.2059 9.5 15.843H8.5C8.5 16.7581 9.24186 17.5 10.157 17.5V16.5ZM13.843 17.5C14.7581 17.5 15.5 16.7581 15.5 15.843H14.5C14.5 16.2059 14.2059 16.5 13.843 16.5V17.5ZM8.85732 14.3556L7.75328 13.3164L7.06789 14.0446L8.17193 15.0837L8.85732 14.3556ZM15.8281 15.0837L16.9321 14.0446L16.2467 13.3164L15.1427 14.3556L15.8281 15.0837Z" fill="#424242"/>
</svg>
