<svg width="24" height="24" viewBox="0 0 24 24" fill="none" xmlns="http://www.w3.org/2000/svg">
<path d="M20.9752 12.1852L20.4825 12.1V12.1L20.9752 12.1852ZM20.2696 16.265L19.7769 16.1797V16.1797L20.2696 16.265ZM6.93777 20.4771L6.43963 20.5201V20.5201L6.93777 20.4771ZM6.12561 11.0844L6.62375 11.0413V11.0413L6.12561 11.0844ZM13.995 5.22142L14.4884 5.30226V5.30226L13.995 5.22142ZM13.3323 9.26598L13.8257 9.34682V9.34682L13.3323 9.26598ZM6.69814 9.67749L6.37175 9.29872H6.37175L6.69814 9.67749ZM8.13688 8.43769L8.46327 8.81646V8.81646L8.13688 8.43769ZM10.5181 4.78374L10.0341 4.6582V4.6582L10.5181 4.78374ZM10.9938 2.94989L11.4777 3.07544V3.07543L10.9938 2.94989ZM12.6676 2.06435L12.5147 2.54039L12.5147 2.54039L12.6676 2.06435ZM12.8126 2.11093L12.9655 1.63489L12.9655 1.63489L12.8126 2.11093ZM9.86195 6.46262L10.303 6.6982V6.6982L9.86195 6.46262ZM13.9047 3.24752L13.4207 3.37307V3.37307L13.9047 3.24752ZM11.6742 2.13239L11.4571 1.68196V1.68196L11.6742 2.13239ZM3.9716 21.4707L3.47346 21.5138V21.5138L3.9716 21.4707ZM3 10.2342L3.49814 10.1911C3.47507 9.92437 3.24595 9.72312 2.97844 9.73467C2.71093 9.74621 2.5 9.96644 2.5 10.2342H3ZM20.4825 12.1L19.7769 16.1797L20.7623 16.3502L21.4678 12.2704L20.4825 12.1ZM13.245 21.5H8.59635V22.5H13.245V21.5ZM7.43591 20.434L6.62375 11.0413L5.62747 11.1275L6.43963 20.5201L7.43591 20.434ZM19.7769 16.1797C19.2483 19.2366 16.4963 21.5 13.245 21.5V22.5C16.9562 22.5 20.1463 19.9122 20.7623 16.3502L19.7769 16.1797ZM13.5015 5.14058L12.8389 9.18514L13.8257 9.34682L14.4884 5.30226L13.5015 5.14058ZM7.02453 10.0563L8.46327 8.81646L7.81048 8.05892L6.37175 9.29872L7.02453 10.0563ZM11.002 4.90929L11.4777 3.07544L10.5098 2.82434L10.0341 4.6582L11.002 4.90929ZM12.5147 2.54039L12.6596 2.58696L12.9655 1.63489L12.8205 1.58831L12.5147 2.54039ZM10.303 6.6982C10.6057 6.13147 10.8407 5.53134 11.002 4.90929L10.0341 4.6582C9.89272 5.20313 9.68673 5.72943 9.42093 6.22703L10.303 6.6982ZM12.6596 2.58696C13.0445 2.7106 13.3268 3.01127 13.4207 3.37307L14.3887 3.12198C14.2055 2.41601 13.6641 1.8593 12.9655 1.63489L12.6596 2.58696ZM11.4777 3.07543C11.5318 2.86705 11.6797 2.68479 11.8913 2.58282L11.4571 1.68196C10.9892 1.90743 10.64 2.32242 10.5098 2.82434L11.4777 3.07543ZM11.8913 2.58282C12.084 2.48996 12.3088 2.47427 12.5147 2.54039L12.8205 1.58832C12.3716 1.44409 11.8818 1.47735 11.4571 1.68196L11.8913 2.58282ZM14.1537 10.7342H19.3348V9.7342H14.1537V10.7342ZM4.46974 21.4276L3.49814 10.1911L2.50186 10.2773L3.47346 21.5138L4.46974 21.4276ZM3.5 21.5127V10.2342H2.5V21.5127H3.5ZM3.47346 21.5138C3.47346 21.5138 3.47344 21.5136 3.47345 21.5133C3.47346 21.5129 3.47349 21.5124 3.47356 21.5119C3.4737 21.5107 3.47398 21.5096 3.47436 21.5085C3.47508 21.5064 3.476 21.5051 3.47672 21.5043C3.47744 21.5035 3.47871 21.5025 3.48087 21.5015C3.48347 21.5003 3.48588 21.5 3.48671 21.5V22.5C4.06581 22.5 4.51955 22.0037 4.46974 21.4276L3.47346 21.5138ZM14.4884 5.30226C14.6073 4.57649 14.5733 3.83385 14.3887 3.12198L13.4207 3.37307C13.5704 3.95015 13.5979 4.5522 13.5015 5.14058L14.4884 5.30226ZM8.59635 21.5C7.99248 21.5 7.4881 21.0375 7.43591 20.434L6.43963 20.5201C6.53644 21.6397 7.47265 22.5 8.59635 22.5V21.5ZM8.46327 8.81646C9.13902 8.23416 9.84164 7.56184 10.303 6.6982L9.42093 6.22703C9.05156 6.9185 8.46981 7.49077 7.81048 8.05892L8.46327 8.81646ZM21.4678 12.2704C21.6968 10.9464 20.6786 9.7342 19.3348 9.7342V10.7342C20.0569 10.7342 20.6059 11.386 20.4825 12.1L21.4678 12.2704ZM3.48671 21.5C3.4877 21.5 3.4899 21.5003 3.49222 21.5013C3.49421 21.5021 3.49549 21.5031 3.49631 21.5039C3.49712 21.5047 3.49805 21.506 3.49883 21.5078C3.49975 21.51 3.5 21.512 3.5 21.5127H2.5C2.5 22.0575 2.94123 22.5 3.48671 22.5V21.5ZM12.8389 9.18514C12.706 9.99614 13.3311 10.7342 14.1537 10.7342V9.7342C13.9493 9.7342 13.7923 9.55043 13.8257 9.34682L12.8389 9.18514ZM6.62375 11.0413C6.59142 10.6674 6.74066 10.3009 7.02454 10.0563L6.37175 9.29872C5.84431 9.75322 5.56748 10.4337 5.62747 11.1275L6.62375 11.0413Z" fill="#424242"/>
</svg>
