<svg width="24" height="24" viewBox="0 0 24 24" fill="none" xmlns="http://www.w3.org/2000/svg">
<path d="M20 6.5C20.2761 6.5 20.5 6.27614 20.5 6C20.5 5.72386 20.2761 5.5 20 5.5V6V6.5ZM3 5.5C2.72386 5.5 2.5 5.72386 2.5 6C2.5 6.27614 2.72386 6.5 3 6.5V6V5.5ZM20 11.5C20.2761 11.5 20.5 11.2761 20.5 11C20.5 10.7239 20.2761 10.5 20 10.5V11V11.5ZM3 10.5C2.72386 10.5 2.5 10.7239 2.5 11C2.5 11.2761 2.72386 11.5 3 11.5V11V10.5ZM10 16.5C10.2761 16.5 10.5 16.2761 10.5 16C10.5 15.7239 10.2761 15.5 10 15.5V16V16.5ZM3 15.5C2.72386 15.5 2.5 15.7239 2.5 16C2.5 16.2761 2.72386 16.5 3 16.5V16V15.5ZM14.3254 14.6204C14.1157 14.4407 13.8001 14.4649 13.6204 14.6746C13.4407 14.8843 13.4649 15.1999 13.6746 15.3796L14 15L14.3254 14.6204ZM17.5 18L17.1746 18.3796C17.3618 18.5401 17.6382 18.5401 17.8254 18.3796L17.5 18ZM21.3254 15.3796C21.5351 15.1999 21.5593 14.8843 21.3796 14.6746C21.1999 14.4649 20.8843 14.4407 20.6746 14.6204L21 15L21.3254 15.3796ZM20 6V5.5H3V6V6.5H20V6ZM20 11V10.5H3V11V11.5H20V11ZM10 16V15.5H3V16V16.5H10V16ZM14 15L13.6746 15.3796L17.1746 18.3796L17.5 18L17.8254 17.6204L14.3254 14.6204L14 15ZM17.5 18L17.8254 18.3796L21.3254 15.3796L21 15L20.6746 14.6204L17.1746 17.6204L17.5 18Z" fill="#424242"/>
</svg>
