<svg width="24" height="24" viewBox="0 0 24 24" fill="none" xmlns="http://www.w3.org/2000/svg">
<path d="M20 6.5C20.2761 6.5 20.5 6.27614 20.5 6C20.5 5.72386 20.2761 5.5 20 5.5V6V6.5ZM3 5.5C2.72386 5.5 2.5 5.72386 2.5 6C2.5 6.27614 2.72386 6.5 3 6.5V6V5.5ZM10 11.5C10.2761 11.5 10.5 11.2761 10.5 11C10.5 10.7239 10.2761 10.5 10 10.5V11V11.5ZM3 10.5C2.72386 10.5 2.5 10.7239 2.5 11C2.5 11.2761 2.72386 11.5 3 11.5V11V10.5ZM10 16.5C10.2761 16.5 10.5 16.2761 10.5 16C10.5 15.7239 10.2761 15.5 10 15.5V16V16.5ZM3 15.5C2.72386 15.5 2.5 15.7239 2.5 16C2.5 16.2761 2.72386 16.5 3 16.5V16V15.5ZM14.3829 13.1784C14.2052 12.967 13.8898 12.9395 13.6784 13.1171C13.467 13.2948 13.4395 13.6102 13.6171 13.8216L14 13.5L14.3829 13.1784ZM16.1 16L15.7171 16.3216C15.8142 16.4371 15.9582 16.5027 16.1091 16.4999C16.2599 16.4972 16.4015 16.4265 16.4943 16.3075L16.1 16ZM20.3943 11.3075C20.5641 11.0898 20.5253 10.7756 20.3075 10.6057C20.0898 10.4359 19.7756 10.4747 19.6057 10.6925L20 11L20.3943 11.3075ZM20 6V5.5H3V6V6.5H20V6ZM10 11V10.5H3V11V11.5H10V11ZM10 16V15.5H3V16V16.5H10V16ZM14 13.5L13.6171 13.8216L15.7171 16.3216L16.1 16L16.4829 15.6784L14.3829 13.1784L14 13.5ZM16.1 16L16.4943 16.3075L20.3943 11.3075L20 11L19.6057 10.6925L15.7057 15.6925L16.1 16Z" fill="#424242"/>
</svg>
