<svg width="24" height="24" viewBox="0 0 24 24" fill="none" xmlns="http://www.w3.org/2000/svg">
<path d="M20 6.5C20.2761 6.5 20.5 6.27614 20.5 6C20.5 5.72386 20.2761 5.5 20 5.5V6V6.5ZM3 5.5C2.72386 5.5 2.5 5.72386 2.5 6C2.5 6.27614 2.72386 6.5 3 6.5V6V5.5ZM11 11.5C11.2761 11.5 11.5 11.2761 11.5 11C11.5 10.7239 11.2761 10.5 11 10.5V11V11.5ZM3 10.5C2.72386 10.5 2.5 10.7239 2.5 11C2.5 11.2761 2.72386 11.5 3 11.5V11V10.5ZM11 16.5C11.2761 16.5 11.5 16.2761 11.5 16C11.5 15.7239 11.2761 15.5 11 15.5V16V16.5ZM3 15.5C2.72386 15.5 2.5 15.7239 2.5 16C2.5 16.2761 2.72386 16.5 3 16.5V16V15.5ZM14.6464 15.6464C14.4512 15.8417 14.4512 16.1583 14.6464 16.3536C14.8417 16.5488 15.1583 16.5488 15.3536 16.3536L15 16L14.6464 15.6464ZM20.3536 11.3536C20.5488 11.1583 20.5488 10.8417 20.3536 10.6464C20.1583 10.4512 19.8417 10.4512 19.6464 10.6464L20 11L20.3536 11.3536ZM19.6464 16.3536C19.8417 16.5488 20.1583 16.5488 20.3536 16.3536C20.5488 16.1583 20.5488 15.8417 20.3536 15.6464L20 16L19.6464 16.3536ZM15.3536 10.6464C15.1583 10.4512 14.8417 10.4512 14.6464 10.6464C14.4512 10.8417 14.4512 11.1583 14.6464 11.3536L15 11L15.3536 10.6464ZM20 6V5.5H3V6V6.5H20V6ZM11 11V10.5H3V11V11.5H11V11ZM11 16V15.5H3V16V16.5H11V16ZM15 16L15.3536 16.3536L17.8536 13.8536L17.5 13.5L17.1464 13.1464L14.6464 15.6464L15 16ZM17.5 13.5L17.8536 13.8536L20.3536 11.3536L20 11L19.6464 10.6464L17.1464 13.1464L17.5 13.5ZM20 16L20.3536 15.6464L17.8536 13.1464L17.5 13.5L17.1464 13.8536L19.6464 16.3536L20 16ZM17.5 13.5L17.8536 13.1464L15.3536 10.6464L15 11L14.6464 11.3536L17.1464 13.8536L17.5 13.5Z" fill="#424242"/>
</svg>
