<svg width="24" height="24" viewBox="0 0 24 24" fill="none" xmlns="http://www.w3.org/2000/svg">
<path d="M16.5203 18.3408L16.224 18.7435V18.7435L16.5203 18.3408ZM17.5 13.8296L17.1492 14.1859C17.3438 14.3775 17.6562 14.3775 17.8508 14.1859L17.5 13.8296ZM18.4797 18.3408L18.1833 17.9381V17.9381L18.4797 18.3408ZM17.5 18.8201L17.5 19.3201L17.5 18.8201ZM21 6.5C21.2761 6.5 21.5 6.27614 21.5 6C21.5 5.72386 21.2761 5.5 21 5.5V6V6.5ZM3 5.5C2.72386 5.5 2.5 5.72386 2.5 6C2.5 6.27614 2.72386 6.5 3 6.5V6V5.5ZM21 10.5C21.2761 10.5 21.5 10.2761 21.5 10C21.5 9.72386 21.2761 9.5 21 9.5V10V10.5ZM3 9.5C2.72386 9.5 2.5 9.72386 2.5 10C2.5 10.2761 2.72386 10.5 3 10.5V10V9.5ZM10 14.5C10.2761 14.5 10.5 14.2761 10.5 14C10.5 13.7239 10.2761 13.5 10 13.5V14V14.5ZM3 13.5C2.72386 13.5 2.5 13.7239 2.5 14C2.5 14.2761 2.72386 14.5 3 14.5V14V13.5ZM10 18.5C10.2761 18.5 10.5 18.2761 10.5 18C10.5 17.7239 10.2761 17.5 10 17.5V18V18.5ZM3 17.5C2.72386 17.5 2.5 17.7239 2.5 18C2.5 18.2761 2.72386 18.5 3 18.5V18V17.5ZM16.5203 18.3408L16.8167 17.9381C16.3127 17.5672 15.7156 17.0748 15.2494 16.5379C14.7693 15.985 14.5 15.4667 14.5 15.0361H14H13.5C13.5 15.8403 13.9732 16.5934 14.4944 17.1936C15.0295 17.8099 15.6926 18.3525 16.224 18.7435L16.5203 18.3408ZM14 15.0361H14.5C14.5 14.1971 14.889 13.7273 15.329 13.5686C15.7797 13.4061 16.4597 13.5068 17.1492 14.1859L17.5 13.8296L17.8508 13.4734C16.9654 12.6013 15.8954 12.3014 14.9898 12.6279C14.0735 12.9583 13.5 13.8672 13.5 15.0361H14ZM18.4797 18.3408L18.776 18.7435C19.3074 18.3525 19.9705 17.8099 20.5056 17.1936C21.0268 16.5934 21.5 15.8403 21.5 15.0361H21H20.5C20.5 15.4667 20.2307 15.985 19.7506 16.538C19.2844 17.0748 18.6873 17.5672 18.1833 17.9381L18.4797 18.3408ZM21 15.0361H21.5C21.5 13.8672 20.9265 12.9583 20.0102 12.6279C19.1046 12.3014 18.0346 12.6013 17.1492 13.4734L17.5 13.8296L17.8508 14.1859C18.5403 13.5068 19.2203 13.4061 19.671 13.5686C20.111 13.7272 20.5 14.1971 20.5 15.0361H21ZM16.5203 18.3408L16.224 18.7435C16.6209 19.0356 16.9761 19.3201 17.5 19.3201L17.5 18.8201L17.5 18.3201C17.3673 18.3201 17.2883 18.2851 16.8167 17.9381L16.5203 18.3408ZM18.4797 18.3408L18.1833 17.9381C17.7117 18.2851 17.6327 18.3201 17.5 18.3201L17.5 18.8201L17.5 19.3201C18.0239 19.3201 18.3791 19.0356 18.776 18.7435L18.4797 18.3408ZM21 6V5.5H3V6V6.5H21V6ZM21 10V9.5H3V10V10.5H21V10ZM10 14V13.5H3V14V14.5H10V14ZM10 18V17.5H3V18V18.5H10V18Z" fill="#424242"/>
</svg>
