<svg width="24" height="24" viewBox="0 0 24 24" fill="none" xmlns="http://www.w3.org/2000/svg">
<path d="M4 3.5C3.72386 3.5 3.5 3.72386 3.5 4C3.5 4.27614 3.72386 4.5 4 4.5V4V3.5ZM21 4.5C21.2761 4.5 21.5 4.27614 21.5 4C21.5 3.72386 21.2761 3.5 21 3.5V4V4.5ZM4 8.5C3.72386 8.5 3.5 8.72386 3.5 9C3.5 9.27614 3.72386 9.5 4 9.5V9V8.5ZM21 9.5C21.2761 9.5 21.5 9.27614 21.5 9C21.5 8.72386 21.2761 8.5 21 8.5V9V9.5ZM14 13.5C13.7239 13.5 13.5 13.7239 13.5 14C13.5 14.2761 13.7239 14.5 14 14.5V14V13.5ZM21 14.5C21.2761 14.5 21.5 14.2761 21.5 14C21.5 13.7239 21.2761 13.5 21 13.5V14V14.5ZM14 18.5C13.7239 18.5 13.5 18.7239 13.5 19C13.5 19.2761 13.7239 19.5 14 19.5V19V18.5ZM21 19.5C21.2761 19.5 21.5 19.2761 21.5 19C21.5 18.7239 21.2761 18.5 21 18.5V19V19.5ZM7.62037 20.3254C7.80008 20.5351 8.11573 20.5593 8.3254 20.3796C8.53506 20.1999 8.55934 19.8843 8.37963 19.6746L8 20L7.62037 20.3254ZM5 16.5L4.62037 16.1746C4.45988 16.3618 4.45988 16.6382 4.62037 16.8254L5 16.5ZM8.37963 13.3254C8.55934 13.1157 8.53506 12.8001 8.3254 12.6204C8.11573 12.4407 7.80008 12.4649 7.62037 12.6746L8 13L8.37963 13.3254ZM4 4V4.5H21V4V3.5H4V4ZM4 9V9.5H21V9V8.5H4V9ZM14 14V14.5H21V14V13.5H14V14ZM14 19V19.5H21V19V18.5H14V19ZM8 20L8.37963 19.6746L5.37963 16.1746L5 16.5L4.62037 16.8254L7.62037 20.3254L8 20ZM5 16.5L5.37963 16.8254L8.37963 13.3254L8 13L7.62037 12.6746L4.62037 16.1746L5 16.5Z" fill="#424242"/>
</svg>
