<svg width="24" height="24" viewBox="0 0 24 24" fill="none" xmlns="http://www.w3.org/2000/svg">
<path d="M20 6.5C20.2761 6.5 20.5 6.27614 20.5 6C20.5 5.72386 20.2761 5.5 20 5.5V6V6.5ZM3 5.5C2.72386 5.5 2.5 5.72386 2.5 6C2.5 6.27614 2.72386 6.5 3 6.5V6V5.5ZM11 16.5C11.2761 16.5 11.5 16.2761 11.5 16C11.5 15.7239 11.2761 15.5 11 15.5V16V16.5ZM3 15.5C2.72386 15.5 2.5 15.7239 2.5 16C2.5 16.2761 2.72386 16.5 3 16.5V16V15.5ZM12 11.5C12.2761 11.5 12.5 11.2761 12.5 11C12.5 10.7239 12.2761 10.5 12 10.5V11V11.5ZM3 10.5C2.72386 10.5 2.5 10.7239 2.5 11C2.5 11.2761 2.72386 11.5 3 11.5V11V10.5ZM15.3536 14.1464C15.1583 13.9512 14.8417 13.9512 14.6464 14.1464C14.4512 14.3417 14.4512 14.6583 14.6464 14.8536L15 14.5L15.3536 14.1464ZM17.5 17L17.1464 17.3536C17.3417 17.5488 17.6583 17.5488 17.8536 17.3536L17.5 17ZM20.3536 14.8536C20.5488 14.6583 20.5488 14.3417 20.3536 14.1464C20.1583 13.9512 19.8417 13.9512 19.6464 14.1464L20 14.5L20.3536 14.8536ZM18 9C18 8.72386 17.7761 8.5 17.5 8.5C17.2239 8.5 17 8.72386 17 9H17.5H18ZM20 6V5.5H3V6V6.5H20V6ZM11 16V15.5H3V16V16.5H11V16ZM12 11V10.5H3V11V11.5H12V11ZM15 14.5L14.6464 14.8536L17.1464 17.3536L17.5 17L17.8536 16.6464L15.3536 14.1464L15 14.5ZM17.5 17L17.8536 17.3536L20.3536 14.8536L20 14.5L19.6464 14.1464L17.1464 16.6464L17.5 17ZM17.5 17H18V9H17.5H17V17H17.5Z" fill="#424242"/>
</svg>
