<svg width="24" height="24" viewBox="0 0 24 24" fill="none" xmlns="http://www.w3.org/2000/svg">
<path d="M20 6.5C20.2761 6.5 20.5 6.27614 20.5 6C20.5 5.72386 20.2761 5.5 20 5.5V6V6.5ZM3 5.5C2.72386 5.5 2.5 5.72386 2.5 6C2.5 6.27614 2.72386 6.5 3 6.5V6V5.5ZM10 16.5C10.2761 16.5 10.5 16.2761 10.5 16C10.5 15.7239 10.2761 15.5 10 15.5V16V16.5ZM3 15.5C2.72386 15.5 2.5 15.7239 2.5 16C2.5 16.2761 2.72386 16.5 3 16.5V16V15.5ZM9 11.5C9.27614 11.5 9.5 11.2761 9.5 11C9.5 10.7239 9.27614 10.5 9 10.5V11V11.5ZM3 10.5C2.72386 10.5 2.5 10.7239 2.5 11C2.5 11.2761 2.72386 11.5 3 11.5V11V10.5ZM16.4901 16.3082L16.7867 15.9057H16.7867L16.4901 16.3082ZM17.5 10.1062L17.1427 10.456C17.2368 10.552 17.3656 10.6062 17.5 10.6062C17.6344 10.6062 17.7632 10.552 17.8573 10.456L17.5 10.1062ZM18.5099 16.3083L18.8066 16.7107V16.7107L18.5099 16.3083ZM17.5 16.8103L17.5 16.3103H17.5L17.5 16.8103ZM20 6V5.5H3V6V6.5H20V6ZM10 16V15.5H3V16V16.5H10V16ZM9 11V10.5H3V11V11.5H9V11ZM16.4901 16.3082L16.7867 15.9057C16.1365 15.4266 15.2964 14.7409 14.6237 13.9727C13.9355 13.1867 13.5 12.4013 13.5 11.7148H13H12.5C12.5 12.7809 13.1462 13.8033 13.8713 14.6314C14.612 15.4773 15.5168 16.2121 16.1934 16.7107L16.4901 16.3082ZM13 11.7148H13.5C13.5 10.5301 14.036 9.83482 14.6658 9.59932C15.3012 9.36172 16.2259 9.51958 17.1427 10.456L17.5 10.1062L17.8573 9.75635C16.7492 8.62464 15.4239 8.24822 14.3155 8.66266C13.2016 9.07919 12.5 10.2223 12.5 11.7148H13ZM18.5099 16.3083L18.8066 16.7107C19.4832 16.2121 20.388 15.4773 21.1287 14.6314C21.8538 13.8033 22.5 12.7809 22.5 11.7148H22H21.5C21.5 12.4013 21.0645 13.1867 20.3763 13.9727C19.7036 14.7409 18.8635 15.4266 18.2133 15.9058L18.5099 16.3083ZM22 11.7148H22.5C22.5 10.2223 21.7984 9.07918 20.6845 8.66266C19.5761 8.24822 18.2508 8.62464 17.1427 9.75635L17.5 10.1062L17.8573 10.456C18.7741 9.51958 19.6988 9.36172 20.3342 9.59932C20.9641 9.83482 21.5 10.5301 21.5 11.7148H22ZM16.4901 16.3082L16.1934 16.7107C16.6059 17.0148 16.9739 17.3103 17.5 17.3103L17.5 16.8103L17.5 16.3103C17.3687 16.3103 17.2825 16.2712 16.7867 15.9057L16.4901 16.3082ZM18.5099 16.3083L18.2133 15.9058C17.7175 16.2712 17.6313 16.3103 17.5 16.3103L17.5 16.8103L17.5 17.3103C18.0261 17.3103 18.3941 17.0148 18.8066 16.7107L18.5099 16.3083Z" fill="#424242"/>
</svg>
