<svg width="24" height="24" viewBox="0 0 24 24" fill="none" xmlns="http://www.w3.org/2000/svg">
<path d="M20 6.5C20.2761 6.5 20.5 6.27614 20.5 6C20.5 5.72386 20.2761 5.5 20 5.5V6V6.5ZM3 5.5C2.72386 5.5 2.5 5.72386 2.5 6C2.5 6.27614 2.72386 6.5 3 6.5V6V5.5ZM11 11.5C11.2761 11.5 11.5 11.2761 11.5 11C11.5 10.7239 11.2761 10.5 11 10.5V11V11.5ZM3 10.5C2.72386 10.5 2.5 10.7239 2.5 11C2.5 11.2761 2.72386 11.5 3 11.5V11V10.5ZM12 16.5C12.2761 16.5 12.5 16.2761 12.5 16C12.5 15.7239 12.2761 15.5 12 15.5V16V16.5ZM3 15.5C2.72386 15.5 2.5 15.7239 2.5 16C2.5 16.2761 2.72386 16.5 3 16.5V16V15.5ZM14.6464 11.1464C14.4512 11.3417 14.4512 11.6583 14.6464 11.8536C14.8417 12.0488 15.1583 12.0488 15.3536 11.8536L15 11.5L14.6464 11.1464ZM17.5 9L17.8536 8.64645C17.6583 8.45118 17.3417 8.45118 17.1464 8.64645L17.5 9ZM19.6464 11.8536C19.8417 12.0488 20.1583 12.0488 20.3536 11.8536C20.5488 11.6583 20.5488 11.3417 20.3536 11.1464L20 11.5L19.6464 11.8536ZM17 17C17 17.2761 17.2239 17.5 17.5 17.5C17.7761 17.5 18 17.2761 18 17H17.5H17ZM20 6V5.5H3V6V6.5H20V6ZM11 11V10.5H3V11V11.5H11V11ZM12 16V15.5H3V16V16.5H12V16ZM15 11.5L15.3536 11.8536L17.8536 9.35355L17.5 9L17.1464 8.64645L14.6464 11.1464L15 11.5ZM17.5 9L17.1464 9.35355L19.6464 11.8536L20 11.5L20.3536 11.1464L17.8536 8.64645L17.5 9ZM17.5 9H17V17H17.5H18V9H17.5Z" fill="#424242"/>
</svg>
