<svg width="24" height="24" viewBox="0 0 24 24" fill="none" xmlns="http://www.w3.org/2000/svg">
<path d="M13.6746 17.6204C13.4649 17.8001 13.4407 18.1157 13.6204 18.3254C13.8001 18.5351 14.1157 18.5593 14.3254 18.3796L14 18L13.6746 17.6204ZM17.5 15L17.8254 14.6204C17.6382 14.4599 17.3618 14.4599 17.1746 14.6204L17.5 15ZM20.6746 18.3796C20.8843 18.5593 21.1999 18.5351 21.3796 18.3254C21.5593 18.1157 21.5351 17.8001 21.3254 17.6204L21 18L20.6746 18.3796ZM21 6.5C21.2761 6.5 21.5 6.27614 21.5 6C21.5 5.72386 21.2761 5.5 21 5.5V6V6.5ZM3 5.5C2.72386 5.5 2.5 5.72386 2.5 6C2.5 6.27614 2.72386 6.5 3 6.5V6V5.5ZM21 10.5C21.2761 10.5 21.5 10.2761 21.5 10C21.5 9.72386 21.2761 9.5 21 9.5V10V10.5ZM3 9.5C2.72386 9.5 2.5 9.72386 2.5 10C2.5 10.2761 2.72386 10.5 3 10.5V10V9.5ZM11 14.5C11.2761 14.5 11.5 14.2761 11.5 14C11.5 13.7239 11.2761 13.5 11 13.5V14V14.5ZM3 13.5C2.72386 13.5 2.5 13.7239 2.5 14C2.5 14.2761 2.72386 14.5 3 14.5V14V13.5ZM11 18.5C11.2761 18.5 11.5 18.2761 11.5 18C11.5 17.7239 11.2761 17.5 11 17.5V18V18.5ZM3 17.5C2.72386 17.5 2.5 17.7239 2.5 18C2.5 18.2761 2.72386 18.5 3 18.5V18V17.5ZM14 18L14.3254 18.3796L17.8254 15.3796L17.5 15L17.1746 14.6204L13.6746 17.6204L14 18ZM17.5 15L17.1746 15.3796L20.6746 18.3796L21 18L21.3254 17.6204L17.8254 14.6204L17.5 15ZM21 6V5.5H3V6V6.5H21V6ZM21 10V9.5H3V10V10.5H21V10ZM11 14V13.5H3V14V14.5H11V14ZM11 18V17.5H3V18V18.5H11V18Z" fill="#424242"/>
</svg>
