<svg width="24" height="24" viewBox="0 0 24 24" fill="none" xmlns="http://www.w3.org/2000/svg">
<path d="M4 16.5C3.72386 16.5 3.5 16.7239 3.5 17C3.5 17.2761 3.72386 17.5 4 17.5V16.5ZM11 17.5C11.2761 17.5 11.5 17.2761 11.5 17C11.5 16.7239 11.2761 16.5 11 16.5V17.5ZM4 11.5C3.72386 11.5 3.5 11.7239 3.5 12C3.5 12.2761 3.72386 12.5 4 12.5V11.5ZM11 12.5C11.2761 12.5 11.5 12.2761 11.5 12C11.5 11.7239 11.2761 11.5 11 11.5V12.5ZM4 6.5C3.72386 6.5 3.5 6.72386 3.5 7C3.5 7.27614 3.72386 7.5 4 7.5V6.5ZM11 7.5C11.2761 7.5 11.5 7.27614 11.5 7C11.5 6.72386 11.2761 6.5 11 6.5V7.5ZM17 4L17.4 3.7C17.3056 3.5741 17.1574 3.5 17 3.5C16.8426 3.5 16.6944 3.5741 16.6 3.7L17 4ZM17 20L16.6 20.3C16.6944 20.4259 16.8426 20.5 17 20.5C17.1574 20.5 17.3056 20.4259 17.4 20.3L17 20ZM20.4 16.3C20.5657 16.0791 20.5209 15.7657 20.3 15.6C20.0791 15.4343 19.7657 15.4791 19.6 15.7L20.4 16.3ZM14.4 15.7C14.2343 15.4791 13.9209 15.4343 13.7 15.6C13.4791 15.7657 13.4343 16.0791 13.6 16.3L14.4 15.7ZM13.6 7.7C13.4343 7.92091 13.4791 8.23431 13.7 8.4C13.9209 8.56569 14.2343 8.52091 14.4 8.3L13.6 7.7ZM19.6 8.3C19.7657 8.52091 20.0791 8.56569 20.3 8.4C20.5209 8.23431 20.5657 7.92091 20.4 7.7L19.6 8.3ZM4 17V17.5H11V17V16.5H4V17ZM4 12V12.5H11V12V11.5H4V12ZM4 7V7.5H11V7V6.5H4V7ZM17 4H16.5V20H17H17.5V4H17ZM17 20L17.4 20.3L20.4 16.3L20 16L19.6 15.7L16.6 19.7L17 20ZM17 20L17.4 19.7L14.4 15.7L14 16L13.6 16.3L16.6 20.3L17 20ZM14 8L14.4 8.3L17.4 4.3L17 4L16.6 3.7L13.6 7.7L14 8ZM20 8L20.4 7.7L17.4 3.7L17 4L16.6 4.3L19.6 8.3L20 8Z" fill="#424242"/>
</svg>
