<svg width="24" height="24" viewBox="0 0 24 24" fill="none" xmlns="http://www.w3.org/2000/svg">
<path d="M14.3829 15.6784C14.2052 15.467 13.8898 15.4395 13.6784 15.6171C13.467 15.7948 13.4395 16.1102 13.6171 16.3216L14 16L14.3829 15.6784ZM16.1 18.5L15.7171 18.8216C15.8142 18.9371 15.9582 19.0027 16.1091 18.9999C16.2599 18.9972 16.4015 18.9265 16.4943 18.8075L16.1 18.5ZM20.3943 13.8075C20.5641 13.5898 20.5253 13.2756 20.3075 13.1057C20.0898 12.9359 19.7756 12.9747 19.6057 13.1925L20 13.5L20.3943 13.8075ZM21 6.5C21.2761 6.5 21.5 6.27614 21.5 6C21.5 5.72386 21.2761 5.5 21 5.5V6V6.5ZM3 5.5C2.72386 5.5 2.5 5.72386 2.5 6C2.5 6.27614 2.72386 6.5 3 6.5V6V5.5ZM21 10.5C21.2761 10.5 21.5 10.2761 21.5 10C21.5 9.72386 21.2761 9.5 21 9.5V10V10.5ZM3 9.5C2.72386 9.5 2.5 9.72386 2.5 10C2.5 10.2761 2.72386 10.5 3 10.5V10V9.5ZM10 14.5C10.2761 14.5 10.5 14.2761 10.5 14C10.5 13.7239 10.2761 13.5 10 13.5V14V14.5ZM3 13.5C2.72386 13.5 2.5 13.7239 2.5 14C2.5 14.2761 2.72386 14.5 3 14.5V14V13.5ZM10 18.5C10.2761 18.5 10.5 18.2761 10.5 18C10.5 17.7239 10.2761 17.5 10 17.5V18V18.5ZM3 17.5C2.72386 17.5 2.5 17.7239 2.5 18C2.5 18.2761 2.72386 18.5 3 18.5V18V17.5ZM14 16L13.6171 16.3216L15.7171 18.8216L16.1 18.5L16.4829 18.1784L14.3829 15.6784L14 16ZM16.1 18.5L16.4943 18.8075L20.3943 13.8075L20 13.5L19.6057 13.1925L15.7057 18.1925L16.1 18.5ZM21 6V5.5H3V6V6.5H21V6ZM21 10V9.5H3V10V10.5H21V10ZM10 14V13.5H3V14V14.5H10V14ZM10 18V17.5H3V18V18.5H10V18Z" fill="#424242"/>
</svg>
