<svg width="24" height="24" viewBox="0 0 24 24" fill="none" xmlns="http://www.w3.org/2000/svg">
<path d="M21 6.5C21.2761 6.5 21.5 6.27614 21.5 6C21.5 5.72386 21.2761 5.5 21 5.5V6V6.5ZM3 5.5C2.72386 5.5 2.5 5.72386 2.5 6C2.5 6.27614 2.72386 6.5 3 6.5V6V5.5ZM21 10.5C21.2761 10.5 21.5 10.2761 21.5 10C21.5 9.72386 21.2761 9.5 21 9.5V10V10.5ZM3 9.5C2.72386 9.5 2.5 9.72386 2.5 10C2.5 10.2761 2.72386 10.5 3 10.5V10V9.5ZM10 14.5C10.2761 14.5 10.5 14.2761 10.5 14C10.5 13.7239 10.2761 13.5 10 13.5V14V14.5ZM3 13.5C2.72386 13.5 2.5 13.7239 2.5 14C2.5 14.2761 2.72386 14.5 3 14.5V14V13.5ZM10 18.5C10.2761 18.5 10.5 18.2761 10.5 18C10.5 17.7239 10.2761 17.5 10 17.5V18V18.5ZM3 17.5C2.72386 17.5 2.5 17.7239 2.5 18C2.5 18.2761 2.72386 18.5 3 18.5V18V17.5ZM14.3254 14.6204C14.1157 14.4407 13.8001 14.4649 13.6204 14.6746C13.4407 14.8843 13.4649 15.1999 13.6746 15.3796L14 15L14.3254 14.6204ZM17.5 18L17.1746 18.3796C17.3618 18.5401 17.6382 18.5401 17.8254 18.3796L17.5 18ZM21.3254 15.3796C21.5351 15.1999 21.5593 14.8843 21.3796 14.6746C21.1999 14.4649 20.8843 14.4407 20.6746 14.6204L21 15L21.3254 15.3796ZM21 6V5.5H3V6V6.5H21V6ZM21 10V9.5H3V10V10.5H21V10ZM10 14V13.5H3V14V14.5H10V14ZM10 18V17.5H3V18V18.5H10V18ZM14 15L13.6746 15.3796L17.1746 18.3796L17.5 18L17.8254 17.6204L14.3254 14.6204L14 15ZM17.5 18L17.8254 18.3796L21.3254 15.3796L21 15L20.6746 14.6204L17.1746 17.6204L17.5 18Z" fill="#424242"/>
</svg>
