<svg width="24" height="24" viewBox="0 0 24 24" fill="none" xmlns="http://www.w3.org/2000/svg">
<path d="M20 6.5C20.2761 6.5 20.5 6.27614 20.5 6C20.5 5.72386 20.2761 5.5 20 5.5V6V6.5ZM3 5.5C2.72386 5.5 2.5 5.72386 2.5 6C2.5 6.27614 2.72386 6.5 3 6.5V6V5.5ZM20 11.5C20.2761 11.5 20.5 11.2761 20.5 11C20.5 10.7239 20.2761 10.5 20 10.5V11V11.5ZM3 10.5C2.72386 10.5 2.5 10.7239 2.5 11C2.5 11.2761 2.72386 11.5 3 11.5V11V10.5ZM11 16.5C11.2761 16.5 11.5 16.2761 11.5 16C11.5 15.7239 11.2761 15.5 11 15.5V16V16.5ZM3 15.5C2.72386 15.5 2.5 15.7239 2.5 16C2.5 16.2761 2.72386 16.5 3 16.5V16V15.5ZM13.6746 17.6204C13.4649 17.8001 13.4407 18.1157 13.6204 18.3254C13.8001 18.5351 14.1157 18.5593 14.3254 18.3796L14 18L13.6746 17.6204ZM17.5 15L17.8254 14.6204C17.6382 14.4599 17.3618 14.4599 17.1746 14.6204L17.5 15ZM20.6746 18.3796C20.8843 18.5593 21.1999 18.5351 21.3796 18.3254C21.5593 18.1157 21.5351 17.8001 21.3254 17.6204L21 18L20.6746 18.3796ZM20 6V5.5H3V6V6.5H20V6ZM20 11V10.5H3V11V11.5H20V11ZM11 16V15.5H3V16V16.5H11V16ZM14 18L14.3254 18.3796L17.8254 15.3796L17.5 15L17.1746 14.6204L13.6746 17.6204L14 18ZM17.5 15L17.1746 15.3796L20.6746 18.3796L21 18L21.3254 17.6204L17.8254 14.6204L17.5 15Z" fill="#424242"/>
</svg>
