<svg width="24" height="24" viewBox="0 0 24 24" fill="none" xmlns="http://www.w3.org/2000/svg">
<path d="M14.6464 18.1464C14.4512 18.3417 14.4512 18.6583 14.6464 18.8536C14.8417 19.0488 15.1583 19.0488 15.3536 18.8536L15 18.5L14.6464 18.1464ZM20.3536 13.8536C20.5488 13.6583 20.5488 13.3417 20.3536 13.1464C20.1583 12.9512 19.8417 12.9512 19.6464 13.1464L20 13.5L20.3536 13.8536ZM19.6464 18.8536C19.8417 19.0488 20.1583 19.0488 20.3536 18.8536C20.5488 18.6583 20.5488 18.3417 20.3536 18.1464L20 18.5L19.6464 18.8536ZM15.3536 13.1464C15.1583 12.9512 14.8417 12.9512 14.6464 13.1464C14.4512 13.3417 14.4512 13.6583 14.6464 13.8536L15 13.5L15.3536 13.1464ZM21 6.5C21.2761 6.5 21.5 6.27614 21.5 6C21.5 5.72386 21.2761 5.5 21 5.5V6V6.5ZM3 5.5C2.72386 5.5 2.5 5.72386 2.5 6C2.5 6.27614 2.72386 6.5 3 6.5V6V5.5ZM21 10.5C21.2761 10.5 21.5 10.2761 21.5 10C21.5 9.72386 21.2761 9.5 21 9.5V10V10.5ZM3 9.5C2.72386 9.5 2.5 9.72386 2.5 10C2.5 10.2761 2.72386 10.5 3 10.5V10V9.5ZM11 14.5C11.2761 14.5 11.5 14.2761 11.5 14C11.5 13.7239 11.2761 13.5 11 13.5V14V14.5ZM3 13.5C2.72386 13.5 2.5 13.7239 2.5 14C2.5 14.2761 2.72386 14.5 3 14.5V14V13.5ZM11 18.5C11.2761 18.5 11.5 18.2761 11.5 18C11.5 17.7239 11.2761 17.5 11 17.5V18V18.5ZM3 17.5C2.72386 17.5 2.5 17.7239 2.5 18C2.5 18.2761 2.72386 18.5 3 18.5V18V17.5ZM15 18.5L15.3536 18.8536L17.8536 16.3536L17.5 16L17.1464 15.6464L14.6464 18.1464L15 18.5ZM17.5 16L17.8536 16.3536L20.3536 13.8536L20 13.5L19.6464 13.1464L17.1464 15.6464L17.5 16ZM20 18.5L20.3536 18.1464L17.8536 15.6464L17.5 16L17.1464 16.3536L19.6464 18.8536L20 18.5ZM17.5 16L17.8536 15.6464L15.3536 13.1464L15 13.5L14.6464 13.8536L17.1464 16.3536L17.5 16ZM21 6V5.5H3V6V6.5H21V6ZM21 10V9.5H3V10V10.5H21V10ZM11 14V13.5H3V14V14.5H11V14ZM11 18V17.5H3V18V18.5H11V18Z" fill="#424242"/>
</svg>
