<svg width="24" height="24" viewBox="0 0 24 24" fill="none" xmlns="http://www.w3.org/2000/svg">
<path d="M5.5 10C5.5 10.2761 5.72386 10.5 6 10.5C6.27614 10.5 6.5 10.2761 6.5 10H5.5ZM17.3268 6.62463C17.3956 6.89206 17.6682 7.05305 17.9356 6.98422C18.203 6.91539 18.364 6.6428 18.2952 6.37537L17.3268 6.62463ZM12.5 14C12.5 13.7239 12.2761 13.5 12 13.5C11.7239 13.5 11.5 13.7239 11.5 14H12.5ZM11.5 18C11.5 18.2761 11.7239 18.5 12 18.5C12.2761 18.5 12.5 18.2761 12.5 18H11.5ZM8 10.5H16V9.5H8V10.5ZM16 21.5H8V22.5H16V21.5ZM8 21.5C6.57165 21.5 5.55069 21.4989 4.77481 21.3946C4.01331 21.2922 3.56319 21.0987 3.23223 20.7678L2.52513 21.4749C3.07285 22.0226 3.76917 22.2684 4.64156 22.3857C5.49956 22.5011 6.59992 22.5 8 22.5V21.5ZM1.5 16C1.5 17.4001 1.49894 18.5004 1.61429 19.3584C1.73158 20.2308 1.9774 20.9272 2.52513 21.4749L3.23223 20.7678C2.90128 20.4368 2.70776 19.9867 2.60538 19.2252C2.50106 18.4493 2.5 17.4283 2.5 16H1.5ZM21.5 16C21.5 17.4283 21.4989 18.4493 21.3946 19.2252C21.2922 19.9867 21.0987 20.4368 20.7678 20.7678L21.4749 21.4749C22.0226 20.9271 22.2684 20.2308 22.3857 19.3584C22.5011 18.5004 22.5 17.4001 22.5 16H21.5ZM16 22.5C17.4001 22.5 18.5004 22.5011 19.3584 22.3857C20.2308 22.2684 20.9271 22.0226 21.4749 21.4749L20.7678 20.7678C20.4368 21.0987 19.9867 21.2922 19.2252 21.3946C18.4493 21.4989 17.4283 21.5 16 21.5V22.5ZM16 10.5C17.4283 10.5 18.4493 10.5011 19.2252 10.6054C19.9867 10.7078 20.4368 10.9013 20.7678 11.2322L21.4749 10.5251C20.9271 9.9774 20.2308 9.73158 19.3584 9.61429C18.5004 9.49894 17.4001 9.5 16 9.5V10.5ZM22.5 16C22.5 14.5999 22.5011 13.4996 22.3857 12.6416C22.2684 11.7692 22.0226 11.0729 21.4749 10.5251L20.7678 11.2322C21.0987 11.5632 21.2922 12.0133 21.3946 12.7748C21.4989 13.5507 21.5 14.5717 21.5 16H22.5ZM8 9.5C6.59992 9.5 5.49956 9.49894 4.64156 9.61429C3.76917 9.73158 3.07285 9.9774 2.52513 10.5251L3.23223 11.2322C3.56319 10.9013 4.01331 10.7078 4.77481 10.6054C5.55069 10.5011 6.57165 10.5 8 10.5V9.5ZM2.5 16C2.5 14.5717 2.50106 13.5507 2.60538 12.7748C2.70776 12.0133 2.90128 11.5632 3.23223 11.2322L2.52513 10.5251C1.9774 11.0729 1.73158 11.7692 1.61429 12.6416C1.49894 13.4996 1.5 14.5999 1.5 16H2.5ZM6.5 10V8H5.5V10H6.5ZM6.5 8C6.5 4.96243 8.96243 2.5 12 2.5V1.5C8.41015 1.5 5.5 4.41015 5.5 8H6.5ZM12 2.5C14.5621 2.5 16.7162 4.25233 17.3268 6.62463L18.2952 6.37537C17.5737 3.57198 15.0294 1.5 12 1.5V2.5ZM11.5 14V18H12.5V14H11.5Z" fill="#424242"/>
</svg>
