<svg width="24" height="24" viewBox="0 0 24 24" fill="none" xmlns="http://www.w3.org/2000/svg">
<path d="M15 16C15.924 16 16.673 15.488 16.673 14.857C16.673 13.637 16.687 13.134 17.755 12.404C18.082 12.181 18.082 11.819 17.755 11.596C16.687 10.866 16.673 10.364 16.673 9.143C16.673 8.512 15.924 8 15 8M9 16C8.076 16 7.327 15.488 7.327 14.857C7.327 13.637 7.313 13.134 6.245 12.404C5.918 12.181 5.918 11.819 6.245 11.596C7.313 10.866 7.327 10.364 7.327 9.143C7.327 8.512 8.076 8 9 8M2.5 12C2.5 7.522 2.5 5.282 3.891 3.891C5.282 2.5 7.521 2.5 12 2.5C16.478 2.5 18.718 2.5 20.109 3.891C21.5 5.282 21.5 7.521 21.5 12C21.5 16.478 21.5 18.718 20.109 20.109C18.718 21.5 16.479 21.5 12 21.5C7.522 21.5 5.282 21.5 3.891 20.109C2.5 18.718 2.5 16.479 2.5 12ZM9 13.5C9 13.2239 9.22386 13 9.5 13C9.77614 13 10 13.2239 10 13.5C10 13.7761 9.77614 14 9.5 14C9.22386 14 9 13.7761 9 13.5ZM11.5 13.5C11.5 13.2239 11.7239 13 12 13C12.2761 13 12.5 13.2239 12.5 13.5C12.5 13.7761 12.2761 14 12 14C11.7239 14 11.5 13.7761 11.5 13.5ZM14 13.5C14 13.2239 14.2239 13 14.5 13C14.7761 13 15 13.2239 15 13.5C15 13.7761 14.7761 14 14.5 14C14.2239 14 14 13.7761 14 13.5Z" stroke="#424242" stroke-linecap="round"/>
</svg>
