<svg width="24" height="24" viewBox="0 0 24 24" fill="none" xmlns="http://www.w3.org/2000/svg">
<path d="M9.40191 4.57019L9.27521 5.05387H9.27521L9.40191 4.57019ZM12.0565 4.13679L11.7874 3.71536V3.71536L12.0565 4.13679ZM4.59279 8.4936L5.07991 8.38082V8.38082L4.59279 8.4936ZM8.77361 4.4056L8.90032 3.92192L8.90032 3.92192L8.77361 4.4056ZM4.23753 11.7821L4.65271 12.0607H4.65271L4.23753 11.7821ZM4.73983 9.12875L4.25272 9.24152V9.24152L4.73983 9.12875ZM6.30443 17.4487L6.33011 16.9494H6.33011L6.30443 17.4487ZM3.86521 12.3369L3.45003 12.0583H3.45003L3.86521 12.3369ZM9.30163 18.6888L9.69499 18.3801L9.69499 18.3801L9.30163 18.6888ZM6.95753 17.4823L6.93184 17.9817H6.93184L6.95753 17.4823ZM15.3882 18.2675L15.8495 18.4602V18.4602L15.3882 18.2675ZM9.69982 19.1963L9.30645 19.5049L9.30645 19.5049L9.69982 19.1963ZM17.5958 15.7454L17.4141 15.2796L17.4141 15.2796L17.5958 15.7454ZM15.6448 17.6531L15.1834 17.4605V17.4605L15.6448 17.6531ZM19.2906 9.81846L18.9699 10.2021V10.2021L19.2906 9.81846ZM18.2142 15.5043L18.3959 15.9701L18.3959 15.9701L18.2142 15.5043ZM17.6578 7.01967L17.1579 7.03184V7.03184L17.6578 7.01967ZM18.7961 9.40516L19.1167 9.02151V9.02151L18.7961 9.40516ZM17.6418 6.36312L18.1416 6.35095V6.35095L17.6418 6.36312ZM12.6187 3.77783L12.8877 4.19926V4.19926L12.6187 3.77783ZM19.3536 18.6464C19.1583 18.4512 18.8417 18.4512 18.6464 18.6464C18.4512 18.8417 18.4512 19.1583 18.6464 19.3536L19.3536 18.6464ZM20.6464 21.3536C20.8417 21.5488 21.1583 21.5488 21.3536 21.3536C21.5488 21.1583 21.5488 20.8417 21.3536 20.6464L20.6464 21.3536ZM17.1419 6.37529L17.1579 7.03184L18.1576 7.00749L18.1416 6.35095L17.1419 6.37529ZM18.4754 9.78881L18.9699 10.2021L19.6112 9.43481L19.1167 9.02151L18.4754 9.78881ZM18.0325 15.0384L17.4141 15.2796L17.7775 16.2113L18.3959 15.9701L18.0325 15.0384ZM15.1834 17.4605L14.9268 18.0749L15.8495 18.4602L16.1061 17.8458L15.1834 17.4605ZM10.0932 18.8876L9.69499 18.3801L8.90826 18.9974L9.30645 19.5049L10.0932 18.8876ZM6.98321 16.983L6.33011 16.9494L6.27875 17.9481L6.93184 17.9817L6.98321 16.983ZM4.2804 12.6155L4.65271 12.0607L3.82235 11.5035L3.45003 12.0583L4.2804 12.6155ZM5.22695 9.01597L5.07991 8.38082L4.10567 8.60637L4.25272 9.24152L5.22695 9.01597ZM8.64691 4.88928L9.27521 5.05387L9.52861 4.08651L8.90032 3.92192L8.64691 4.88928ZM12.3255 4.55822L12.8877 4.19926L12.3496 3.3564L11.7874 3.71536L12.3255 4.55822ZM9.27521 5.05387C9.92377 5.22376 10.3888 5.35585 10.8642 5.27824L10.7031 4.29131C10.4854 4.32685 10.2603 4.27817 9.52861 4.08651L9.27521 5.05387ZM11.7874 3.71536C11.1332 4.13302 10.924 4.25524 10.7031 4.29131L10.8642 5.27824C11.3363 5.20116 11.7446 4.92911 12.3255 4.55822L11.7874 3.71536ZM5.07991 8.38082C4.79191 7.13685 4.59027 6.25984 4.53873 5.60733C4.48783 4.96279 4.59601 4.67356 4.78507 4.4887L4.08595 3.7737C3.57974 4.26867 3.48237 4.93312 3.54184 5.68606C3.60067 6.43103 3.8253 7.3953 4.10567 8.60637L5.07991 8.38082ZM8.90032 3.92192C7.70252 3.60816 6.74817 3.35674 6.00764 3.27772C5.25854 3.19779 4.59284 3.27807 4.08595 3.7737L4.78507 4.4887C4.97346 4.30449 5.26254 4.20389 5.90153 4.27208C6.54909 4.34118 7.41615 4.56689 8.64691 4.88928L8.90032 3.92192ZM4.65271 12.0607C5.0377 11.487 5.31872 11.0852 5.40781 10.6146L4.42526 10.4286C4.3832 10.6508 4.25526 10.8584 3.82235 11.5035L4.65271 12.0607ZM4.25272 9.24152C4.42383 9.98061 4.46675 10.2094 4.42526 10.4286L5.40781 10.6146C5.49745 10.141 5.37887 9.67217 5.22695 9.01597L4.25272 9.24152ZM6.33011 16.9494C5.05071 16.8836 4.14957 16.8359 3.51346 16.7064C2.88124 16.5778 2.66323 16.3977 2.56344 16.1886L1.66092 16.6192C1.96677 17.2602 2.58268 17.5376 3.31408 17.6864C4.04158 17.8344 5.03374 17.884 6.27875 17.9481L6.33011 16.9494ZM3.45003 12.0583C2.73959 13.117 2.17471 13.9565 1.84634 14.6391C1.51775 15.322 1.3578 15.984 1.66092 16.6192L2.56344 16.1886C2.46091 15.9737 2.45792 15.6744 2.74747 15.0726C3.03725 14.4703 3.55172 13.7014 4.2804 12.6155L3.45003 12.0583ZM9.69499 18.3801C9.28561 17.8584 8.99414 17.4697 8.56838 17.2506L8.11075 18.1397C8.29699 18.2356 8.4429 18.4043 8.90826 18.9974L9.69499 18.3801ZM6.93184 17.9817C7.69473 18.0209 7.92293 18.0431 8.11075 18.1397L8.56838 17.2506C8.14419 17.0323 7.65503 17.0175 6.98321 16.983L6.93184 17.9817ZM14.9268 18.0749C14.4246 19.2773 14.0682 20.1273 13.7249 20.7021C13.3832 21.2741 13.1256 21.4496 12.8739 21.4907L13.0351 22.4777C13.7293 22.3643 14.1927 21.8689 14.5834 21.2149C14.9724 20.5637 15.3599 19.6326 15.8495 18.4602L14.9268 18.0749ZM9.30645 19.5049C10.0652 20.4719 10.6699 21.245 11.2078 21.7487C11.7517 22.2581 12.3323 22.5924 13.0351 22.4777L12.8739 21.4907C12.6306 21.5304 12.3535 21.4516 11.8914 21.0188C11.4232 20.5803 10.8736 19.8822 10.0932 18.8876L9.30645 19.5049ZM17.4141 15.2796C16.7736 15.5294 16.3171 15.6975 15.9726 16.0343L16.6718 16.7493C16.8366 16.5881 17.0594 16.4913 17.7775 16.2113L17.4141 15.2796ZM16.1061 17.8458C16.404 17.1325 16.5066 16.9108 16.6718 16.7493L15.9726 16.0343C15.6284 16.3709 15.4491 16.8241 15.1834 17.4605L16.1061 17.8458ZM18.9699 10.2021C19.9391 11.0121 20.6193 11.5825 21.0432 12.0642C21.4613 12.5393 21.5341 12.8212 21.4875 13.0673L22.47 13.2533C22.6024 12.5539 22.2868 11.9637 21.7939 11.4036C21.3069 10.8502 20.5535 10.2224 19.6112 9.43481L18.9699 10.2021ZM18.3959 15.9701C19.5758 15.5099 20.5133 15.1456 21.1722 14.7723C21.8347 14.397 22.3391 13.9451 22.47 13.2533L21.4875 13.0673C21.4394 13.3211 21.2567 13.5751 20.6792 13.9022C20.0983 14.2314 19.2429 14.5664 18.0325 15.0384L18.3959 15.9701ZM17.1579 7.03184C17.1744 7.70767 17.176 8.19763 17.3815 8.62812L18.284 8.19747C18.1922 8.00515 18.1763 7.77397 18.1576 7.00749L17.1579 7.03184ZM19.1167 9.02151C18.539 8.53868 18.3747 8.38759 18.284 8.19747L17.3815 8.62812C17.5879 9.06081 17.9668 9.3637 18.4754 9.78881L19.1167 9.02151ZM18.1416 6.35095C18.1111 5.09915 18.0882 4.10235 17.9604 3.36861C17.8321 2.63198 17.5732 2.00657 16.9425 1.68199L16.4849 2.57114C16.6896 2.6765 16.8638 2.90049 16.9752 3.54021C17.0872 4.18283 17.1106 5.08935 17.1419 6.37529L18.1416 6.35095ZM12.8877 4.19926C13.9882 3.49667 14.767 3.00089 15.374 2.72619C15.9806 2.45169 16.2761 2.46365 16.4849 2.57114L16.9425 1.68199C16.316 1.35954 15.6506 1.50341 14.9617 1.81515C14.2733 2.12671 13.4223 2.67153 12.3496 3.3564L12.8877 4.19926ZM18.6464 19.3536L20.6464 21.3536L21.3536 20.6464L19.3536 18.6464L18.6464 19.3536Z" fill="#424242"/>
</svg>
