<svg width="24" height="24" viewBox="0 0 24 24" fill="none" xmlns="http://www.w3.org/2000/svg">
<path d="M16.0777 20.1555L16.4313 19.8019L16.0777 20.1555ZM20.1555 16.0777L19.8019 16.4313L20.1555 16.0777ZM7.92226 3.84453L8.27582 3.49097L7.92226 3.84453ZM3.84453 7.92226L3.49097 8.27582L3.84453 7.92226ZM5.64645 9.64645C5.45118 9.84171 5.45118 10.1583 5.64645 10.3536C5.84171 10.5488 6.15829 10.5488 6.35355 10.3536L5.64645 9.64645ZM10.3536 6.35355C10.5488 6.15829 10.5488 5.84171 10.3536 5.64645C10.1583 5.45118 9.84171 5.45118 9.64645 5.64645L10.3536 6.35355ZM15.3973 3.67583L15.2133 3.21093V3.21093L15.3973 3.67583ZM15.6697 3.40247L15.2043 3.21961V3.21961L15.6697 3.40247ZM14.3061 5.01054L14.4901 4.54564V4.54564L14.3061 5.01054ZM14.3061 4.1078L14.4901 4.5727V4.5727L14.3061 4.1078ZM15.6697 5.71587L15.2043 5.89873V5.89873L15.6697 5.71587ZM15.3973 5.44252L15.2133 5.90742V5.90742L15.3973 5.44252ZM16.9995 6.81115L17.4648 6.99401V6.99401L16.9995 6.81115ZM16.1 6.81116L16.5654 6.6283V6.62829L16.1 6.81116ZM17.7022 5.44252L17.8862 5.90742V5.90742L17.7022 5.44252ZM17.4298 5.71587L16.9645 5.53301V5.53301L17.4298 5.71587ZM18.7934 4.1078L18.9775 3.6429V3.6429L18.7934 4.1078ZM18.7934 5.01054L18.6094 4.54564V4.54564L18.7934 5.01054ZM17.4298 3.40247L16.9645 3.58533L17.4298 3.40247ZM17.7022 3.67583L17.5181 4.14073V4.14073L17.7022 3.67583ZM16.9994 2.30719L16.5341 2.49005L16.9994 2.30719ZM16.1 2.30719L16.5654 2.49005V2.49005L16.1 2.30719ZM19.5379 9.80215L19.3539 9.33725V9.33725L19.5379 9.80215ZM19.8103 9.5288L20.2756 9.71166V9.71166L19.8103 9.5288ZM19.14 10.8624L19.3241 10.3975V10.3975L19.14 10.8624ZM19.14 9.95965L19.3241 10.4246V10.4246L19.14 9.95965ZM19.8103 11.2932L20.2756 11.1104V11.1104L19.8103 11.2932ZM19.5379 11.0199L19.3539 11.4848V11.4848L19.5379 11.0199ZM20.8666 11.6926L21.332 11.8755V11.8755L20.8666 11.6926ZM19.9672 11.6926L19.5018 11.8755V11.8755L19.9672 11.6926ZM21.2959 11.0199L21.4799 11.4848V11.4848L21.2959 11.0199ZM21.0235 11.2932L20.5582 11.1104V11.1104L21.0235 11.2932ZM21.6937 9.95965L21.5097 10.4246V10.4246L21.6937 9.95965ZM21.6937 10.8624L21.5097 10.3975V10.3975L21.6937 10.8624ZM21.0235 9.5288L20.5582 9.71166V9.71166L21.0235 9.5288ZM21.2959 9.80215L21.4799 9.33725V9.33725L21.2959 9.80215ZM20.8666 9.12945L21.332 8.94659V8.94659L20.8666 9.12945ZM19.9672 9.12945L19.5018 8.94659V8.94659L19.9672 9.12945ZM4.70393 15.9799L4.5199 15.515H4.5199L4.70393 15.9799ZM4.97628 15.7065L4.51092 15.5237H4.51092L4.97628 15.7065ZM4.30606 17.0401L4.49009 16.5752H4.49009L4.30606 17.0401ZM4.30606 16.1374L4.49009 16.6023H4.49009L4.30606 16.1374ZM4.97628 17.471L4.51092 17.6538V17.6538L4.97628 17.471ZM4.70393 17.1976L4.5199 17.6625H4.5199L4.70393 17.1976ZM6.03261 17.8703L6.49797 18.0532V18.0532L6.03261 17.8703ZM5.1332 17.8703L5.59856 17.6875H5.59856L5.1332 17.8703ZM6.46188 17.1976L6.64591 17.6625H6.64591L6.46188 17.1976ZM6.18953 17.471L5.72417 17.2881V17.2881L6.18953 17.471ZM6.85975 16.1374L6.67572 16.6023H6.67572L6.85975 16.1374ZM6.85975 17.0401L6.67572 16.5752H6.67572L6.85975 17.0401ZM6.18953 15.7065L6.65489 15.5237H6.65489L6.18953 15.7065ZM6.46188 15.9799L6.64591 15.515H6.64591L6.46188 15.9799ZM6.03261 15.3072L5.56725 15.49H5.56725L6.03261 15.3072ZM5.1332 15.3072L5.59856 15.49H5.59856L5.1332 15.3072ZM7.92226 3.84453L7.56871 4.19808L19.8019 16.4313L20.1555 16.0777L20.509 15.7242L8.27582 3.49097L7.92226 3.84453ZM16.0777 20.1555L16.4313 19.8019L4.19808 7.56871L3.84453 7.92226L3.49097 8.27582L15.7242 20.509L16.0777 20.1555ZM20.1555 20.1555L19.8019 19.8019C18.8711 20.7327 17.3621 20.7327 16.4313 19.8019L16.0777 20.1555L15.7242 20.509C17.0455 21.8303 19.1877 21.8303 20.509 20.509L20.1555 20.1555ZM20.1555 16.0777L19.8019 16.4313C20.7327 17.3621 20.7327 18.8711 19.8019 19.8019L20.1555 20.1555L20.509 20.509C21.8303 19.1877 21.8303 17.0455 20.509 15.7242L20.1555 16.0777ZM3.84453 3.84453L4.19808 4.19808C5.12885 3.26731 6.63794 3.26731 7.56871 4.19808L7.92226 3.84453L8.27582 3.49097C6.95452 2.16968 4.81227 2.16968 3.49097 3.49097L3.84453 3.84453ZM3.84453 3.84453L3.49097 3.49097C2.16968 4.81227 2.16968 6.95452 3.49097 8.27582L3.84453 7.92226L4.19808 7.56871C3.26731 6.63794 3.26731 5.12885 4.19808 4.19808L3.84453 3.84453ZM6 10L6.35355 10.3536L10.3536 6.35355L10 6L9.64645 5.64645L5.64645 9.64645L6 10ZM16.9994 2.30719L16.5341 2.49005L16.9645 3.58533L17.4298 3.40247L17.8952 3.21961L17.4648 2.12433L16.9994 2.30719ZM17.7022 3.67583L17.5181 4.14073L18.6094 4.5727L18.7934 4.1078L18.9775 3.6429L17.8862 3.21093L17.7022 3.67583ZM18.7934 5.01054L18.6094 4.54564L17.5181 4.97762L17.7022 5.44252L17.8862 5.90742L18.9775 5.47544L18.7934 5.01054ZM17.4298 5.71587L16.9645 5.53301L16.5341 6.62829L16.9995 6.81115L17.4648 6.99401L17.8952 5.89873L17.4298 5.71587ZM16.1 6.81116L16.5654 6.62829L16.135 5.53301L15.6697 5.71587L15.2043 5.89873L15.6347 6.99402L16.1 6.81116ZM15.3973 5.44252L15.5813 4.97762L14.4901 4.54564L14.3061 5.01054L14.122 5.47544L15.2133 5.90742L15.3973 5.44252ZM14.3061 4.1078L14.4901 4.5727L15.5813 4.14073L15.3973 3.67583L15.2133 3.21093L14.122 3.6429L14.3061 4.1078ZM15.6697 3.40247L16.135 3.58533L16.5654 2.49005L16.1 2.30719L15.6347 2.12433L15.2043 3.21961L15.6697 3.40247ZM15.3973 3.67583L15.5813 4.14073C15.8351 4.04027 16.0354 3.83891 16.135 3.58533L15.6697 3.40247L15.2043 3.21961C15.2057 3.21614 15.2087 3.21275 15.2133 3.21093L15.3973 3.67583ZM14.3061 5.01054L14.4901 4.54564C14.4871 4.54447 14.488 4.54438 14.4907 4.54663C14.4933 4.54877 14.4957 4.55149 14.4975 4.55424C14.5007 4.55925 14.5 4.56113 14.5 4.55917C14.5 4.55722 14.5007 4.55909 14.4975 4.5641C14.4957 4.56686 14.4933 4.56958 14.4907 4.57172C14.488 4.57396 14.4871 4.57387 14.4901 4.5727L14.3061 4.1078L14.122 3.6429C13.2927 3.97121 13.2927 5.14714 14.122 5.47544L14.3061 5.01054ZM15.6697 5.71587L16.135 5.53301C16.0354 5.27943 15.8351 5.07808 15.5813 4.97762L15.3973 5.44252L15.2133 5.90742C15.2087 5.90559 15.2057 5.90221 15.2043 5.89873L15.6697 5.71587ZM16.9995 6.81115L16.5341 6.62829C16.5328 6.63167 16.5325 6.63101 16.5347 6.62838C16.5367 6.62586 16.5395 6.62341 16.5424 6.6215C16.5452 6.6197 16.5474 6.61892 16.5484 6.6186C16.549 6.61845 16.5493 6.61839 16.5495 6.61837C16.5497 6.61834 16.5497 6.61834 16.5497 6.61834C16.5498 6.61834 16.5498 6.61834 16.55 6.61837C16.5501 6.61839 16.5505 6.61845 16.551 6.6186C16.5521 6.61892 16.5543 6.6197 16.5571 6.6215C16.56 6.62341 16.5628 6.62586 16.5648 6.62838C16.567 6.63101 16.5667 6.63167 16.5654 6.6283L16.1 6.81116L15.6347 6.99402C15.9618 7.82646 17.1377 7.82645 17.4648 6.99401L16.9995 6.81115ZM17.7022 5.44252L17.5181 4.97762C17.2644 5.07808 17.0641 5.27943 16.9645 5.53301L17.4298 5.71587L17.8952 5.89873C17.8938 5.90221 17.8908 5.9056 17.8862 5.90742L17.7022 5.44252ZM18.7934 4.1078L18.6094 4.5727C18.6124 4.57387 18.6115 4.57396 18.6088 4.57172C18.6062 4.56958 18.6038 4.56686 18.602 4.5641C18.5988 4.55909 18.5995 4.55722 18.5995 4.55917C18.5995 4.56113 18.5988 4.55926 18.602 4.55425C18.6038 4.55149 18.6062 4.54877 18.6088 4.54663C18.6115 4.54438 18.6124 4.54447 18.6094 4.54564L18.7934 5.01054L18.9775 5.47544C19.8068 5.14713 19.8068 3.97121 18.9775 3.6429L18.7934 4.1078ZM17.4298 3.40247L16.9645 3.58533C17.0641 3.83891 17.2644 4.04027 17.5181 4.14073L17.7022 3.67583L17.8862 3.21093C17.8908 3.21275 17.8938 3.21614 17.8952 3.21961L17.4298 3.40247ZM16.9994 2.30719L17.4648 2.12433C17.1377 1.29189 15.9618 1.29189 15.6347 2.12433L16.1 2.30719L16.5654 2.49005C16.5667 2.48668 16.567 2.48734 16.5648 2.48997C16.5628 2.49248 16.56 2.49494 16.5571 2.49684C16.5543 2.49864 16.5521 2.49943 16.551 2.49974C16.5505 2.4999 16.5501 2.49996 16.55 2.49998C16.5498 2.5 16.5498 2.5 16.5497 2.5C16.5497 2.5 16.5497 2.5 16.5495 2.49998C16.5493 2.49996 16.549 2.4999 16.5484 2.49974C16.5474 2.49943 16.5452 2.49864 16.5424 2.49684C16.5395 2.49494 16.5367 2.49248 16.5347 2.48997C16.5325 2.48734 16.5328 2.48668 16.5341 2.49005L16.9994 2.30719ZM20.8666 9.12945L20.4012 9.31231L20.5582 9.71166L21.0235 9.5288L21.4889 9.34594L21.332 8.94659L20.8666 9.12945ZM21.2959 9.80215L21.1118 10.2671L21.5097 10.4246L21.6937 9.95965L21.8778 9.49475L21.4799 9.33725L21.2959 9.80215ZM21.6937 10.8624L21.5097 10.3975L21.1118 10.555L21.2959 11.0199L21.4799 11.4848L21.8778 11.3273L21.6937 10.8624ZM21.0235 11.2932L20.5582 11.1104L20.4012 11.5097L20.8666 11.6926L21.332 11.8755L21.4889 11.4761L21.0235 11.2932ZM19.9672 11.6926L20.4325 11.5097L20.2756 11.1104L19.8103 11.2932L19.3449 11.4761L19.5018 11.8755L19.9672 11.6926ZM19.5379 11.0199L19.7219 10.555L19.3241 10.3975L19.14 10.8624L18.956 11.3273L19.3539 11.4848L19.5379 11.0199ZM19.14 9.95965L19.3241 10.4246L19.7219 10.2671L19.5379 9.80215L19.3539 9.33725L18.956 9.49475L19.14 9.95965ZM19.8103 9.5288L20.2756 9.71166L20.4325 9.31231L19.9672 9.12945L19.5018 8.94659L19.3449 9.34594L19.8103 9.5288ZM19.5379 9.80215L19.7219 10.2671C19.9757 10.1666 20.176 9.96524 20.2756 9.71166L19.8103 9.5288L19.3449 9.34594C19.3463 9.34246 19.3493 9.33908 19.3539 9.33725L19.5379 9.80215ZM19.14 10.8624L19.3241 10.3975C19.3211 10.3963 19.322 10.3962 19.3247 10.3985C19.3273 10.4006 19.3297 10.4033 19.3315 10.4061C19.3347 10.4111 19.334 10.413 19.334 10.411C19.334 10.4091 19.3347 10.4109 19.3315 10.416C19.3297 10.4187 19.3273 10.4214 19.3247 10.4236C19.322 10.4258 19.3211 10.4257 19.3241 10.4246L19.14 9.95965L18.956 9.49475C18.1266 9.82306 18.1266 10.999 18.956 11.3273L19.14 10.8624ZM19.8103 11.2932L20.2756 11.1104C20.176 10.8568 19.9757 10.6555 19.7219 10.555L19.5379 11.0199L19.3539 11.4848C19.3493 11.483 19.3463 11.4796 19.3449 11.4761L19.8103 11.2932ZM20.8666 11.6926L20.4012 11.5097C20.3999 11.5131 20.3997 11.5124 20.4018 11.5098C20.4039 11.5073 20.4066 11.5048 20.4096 11.5029C20.4124 11.5011 20.4145 11.5004 20.4156 11.5C20.4161 11.4999 20.4165 11.4998 20.4166 11.4998C20.4168 11.4998 20.4169 11.4998 20.4169 11.4998C20.4169 11.4998 20.417 11.4998 20.4171 11.4998C20.4173 11.4998 20.4176 11.4999 20.4182 11.5C20.4193 11.5004 20.4214 11.5011 20.4242 11.5029C20.4272 11.5048 20.4299 11.5073 20.432 11.5098C20.4341 11.5124 20.4339 11.5131 20.4325 11.5097L19.9672 11.6926L19.5018 11.8755C19.8289 12.7079 21.0049 12.7079 21.332 11.8755L20.8666 11.6926ZM21.2959 11.0199L21.1118 10.555C20.8581 10.6555 20.6578 10.8568 20.5582 11.1104L21.0235 11.2932L21.4889 11.4761C21.4875 11.4796 21.4845 11.483 21.4799 11.4848L21.2959 11.0199ZM21.6937 9.95965L21.5097 10.4246C21.5127 10.4257 21.5118 10.4258 21.5091 10.4236C21.5065 10.4214 21.5041 10.4187 21.5023 10.416C21.4991 10.4109 21.4998 10.4091 21.4998 10.411C21.4998 10.413 21.4991 10.4111 21.5023 10.4061C21.5041 10.4033 21.5065 10.4006 21.5091 10.3985C21.5118 10.3962 21.5127 10.3963 21.5097 10.3975L21.6937 10.8624L21.8778 11.3273C22.7071 10.999 22.7071 9.82306 21.8778 9.49475L21.6937 9.95965ZM21.0235 9.5288L20.5582 9.71166C20.6578 9.96524 20.8581 10.1666 21.1118 10.2671L21.2959 9.80215L21.4799 9.33725C21.4845 9.33908 21.4875 9.34246 21.4889 9.34594L21.0235 9.5288ZM20.8666 9.12945L21.332 8.94659C21.0049 8.11416 19.8289 8.11416 19.5018 8.94659L19.9672 9.12945L20.4325 9.31231C20.4339 9.30894 20.4341 9.3096 20.432 9.31223C20.4299 9.31475 20.4272 9.3172 20.4242 9.31911C20.4214 9.32091 20.4193 9.32169 20.4182 9.32201C20.4176 9.32216 20.4173 9.32222 20.4171 9.32224C20.417 9.32227 20.4169 9.32227 20.4169 9.32227C20.4169 9.32227 20.4168 9.32227 20.4166 9.32224C20.4165 9.32222 20.4161 9.32216 20.4156 9.32201C20.4145 9.32169 20.4124 9.32091 20.4096 9.31911C20.4066 9.3172 20.4039 9.31475 20.4018 9.31223C20.3997 9.3096 20.3999 9.30894 20.4012 9.31231L20.8666 9.12945ZM6.03261 15.3072L5.56725 15.49L5.72417 15.8894L6.18953 15.7065L6.65489 15.5237L6.49797 15.1243L6.03261 15.3072ZM6.46188 15.9799L6.27784 16.4448L6.67572 16.6023L6.85975 16.1374L7.04378 15.6725L6.64591 15.515L6.46188 15.9799ZM6.85975 17.0401L6.67572 16.5752L6.27784 16.7327L6.46188 17.1976L6.64591 17.6625L7.04378 17.505L6.85975 17.0401ZM6.18953 17.471L5.72417 17.2881L5.56725 17.6875L6.03261 17.8703L6.49797 18.0532L6.65489 17.6538L6.18953 17.471ZM5.1332 17.8703L5.59856 17.6875L5.44164 17.2881L4.97628 17.471L4.51092 17.6538L4.66784 18.0532L5.1332 17.8703ZM4.70393 17.1976L4.88796 16.7327L4.49009 16.5752L4.30606 17.0401L4.12202 17.505L4.5199 17.6625L4.70393 17.1976ZM4.30606 16.1374L4.49009 16.6023L4.88796 16.4448L4.70393 15.9799L4.5199 15.515L4.12202 15.6725L4.30606 16.1374ZM4.97628 15.7065L5.44164 15.8894L5.59856 15.49L5.1332 15.3072L4.66784 15.1243L4.51092 15.5237L4.97628 15.7065ZM4.70393 15.9799L4.88796 16.4448C5.14174 16.3443 5.342 16.143 5.44164 15.8894L4.97628 15.7065L4.51092 15.5237C4.51228 15.5202 4.5153 15.5168 4.5199 15.515L4.70393 15.9799ZM4.30606 17.0401L4.49009 16.5752C4.48713 16.5741 4.48802 16.574 4.49073 16.5762C4.49332 16.5784 4.4957 16.5811 4.49747 16.5838C4.50068 16.5888 4.5 16.5907 4.5 16.5888C4.5 16.5868 4.50068 16.5887 4.49747 16.5937C4.4957 16.5964 4.49332 16.5992 4.49073 16.6013C4.48802 16.6035 4.48713 16.6035 4.49009 16.6023L4.30606 16.1374L4.12203 15.6725C3.29266 16.0008 3.29266 17.1767 4.12203 17.505L4.30606 17.0401ZM4.97628 17.471L5.44164 17.2881C5.342 17.0345 5.14174 16.8332 4.88796 16.7327L4.70393 17.1976L4.5199 17.6625C4.5153 17.6607 4.51228 17.6573 4.51092 17.6538L4.97628 17.471ZM6.03261 17.8703L5.56725 17.6875C5.56592 17.6908 5.56568 17.6902 5.56783 17.6876C5.5699 17.685 5.57264 17.6826 5.57559 17.6807C5.57837 17.6789 5.58052 17.6781 5.58161 17.6778C5.58215 17.6776 5.5825 17.6776 5.58266 17.6775C5.58282 17.6775 5.58289 17.6775 5.5829 17.6775C5.58292 17.6775 5.58299 17.6775 5.58315 17.6775C5.58331 17.6776 5.58366 17.6776 5.5842 17.6778C5.58529 17.6781 5.58744 17.6789 5.59022 17.6807C5.59317 17.6826 5.59591 17.685 5.59798 17.6876C5.60013 17.6902 5.59989 17.6908 5.59856 17.6875L5.1332 17.8703L4.66784 18.0532C4.99493 18.8856 6.17088 18.8856 6.49797 18.0532L6.03261 17.8703ZM6.46188 17.1976L6.27785 16.7327C6.02407 16.8332 5.82381 17.0345 5.72417 17.2881L6.18953 17.471L6.65489 17.6538C6.65353 17.6573 6.65051 17.6607 6.64591 17.6625L6.46188 17.1976ZM6.85975 16.1374L6.67572 16.6023C6.67868 16.6035 6.67779 16.6035 6.67508 16.6013C6.67249 16.5992 6.67011 16.5964 6.66834 16.5937C6.66513 16.5887 6.66581 16.5868 6.66581 16.5888C6.66581 16.5907 6.66513 16.5888 6.66834 16.5838C6.67011 16.5811 6.67249 16.5784 6.67508 16.5762C6.67779 16.574 6.67868 16.5741 6.67572 16.5752L6.85975 17.0401L7.04378 17.505C7.87315 17.1767 7.87315 16.0008 7.04378 15.6725L6.85975 16.1374ZM6.18953 15.7065L5.72417 15.8894C5.82381 16.143 6.02407 16.3443 6.27785 16.4448L6.46188 15.9799L6.64591 15.515C6.65051 15.5168 6.65353 15.5202 6.65489 15.5237L6.18953 15.7065ZM6.03261 15.3072L6.49797 15.1243C6.17088 14.2919 4.99493 14.2919 4.66784 15.1243L5.1332 15.3072L5.59856 15.49C5.59989 15.4867 5.60013 15.4873 5.59798 15.49C5.59591 15.4925 5.59317 15.4949 5.59022 15.4968C5.58744 15.4986 5.58529 15.4994 5.5842 15.4997C5.58366 15.4999 5.58331 15.5 5.58315 15.5C5.58299 15.5 5.58292 15.5 5.5829 15.5C5.58289 15.5 5.58282 15.5 5.58266 15.5C5.5825 15.5 5.58215 15.4999 5.58161 15.4997C5.58052 15.4994 5.57837 15.4986 5.57559 15.4968C5.57264 15.4949 5.5699 15.4925 5.56783 15.49C5.56568 15.4873 5.56592 15.4867 5.56725 15.49L6.03261 15.3072Z" fill="#424242"/>
</svg>
