<svg width="24" height="24" viewBox="0 0 24 24" fill="none" xmlns="http://www.w3.org/2000/svg">
<path d="M20.8284 7.17177L20.4749 7.52532V7.52532L20.8284 7.17177ZM3.17157 7.17177L2.81802 6.81821H2.81802L3.17157 7.17177ZM10 5.5C9.72386 5.5 9.5 5.72386 9.5 6C9.5 6.27614 9.72386 6.5 10 6.5V5.5ZM14 6.5C14.2761 6.5 14.5 6.27614 14.5 6C14.5 5.72386 14.2761 5.5 14 5.5V6.5ZM11 8.5C10.7239 8.5 10.5 8.72386 10.5 9C10.5 9.27614 10.7239 9.5 11 9.5V8.5ZM13 9.5C13.2761 9.5 13.5 9.27614 13.5 9C13.5 8.72386 13.2761 8.5 13 8.5V9.5ZM7.43926 11.1994L7.11917 11.5835V11.5835L7.43926 11.1994ZM8.1589 11.7991L8.47899 11.415V11.415L8.1589 11.7991ZM15.8411 11.7991L16.1612 12.1832V12.1832L15.8411 11.7991ZM16.5607 11.1994L16.2406 10.8153V10.8153L16.5607 11.1994ZM17.8112 9.91156L18.264 10.1236V10.1236L17.8112 9.91156ZM6.32009 9.61589C6.10795 9.43911 5.79267 9.46777 5.61589 9.67991C5.43911 9.89205 5.46777 10.2073 5.67991 10.3841L6.32009 9.61589ZM18.3201 10.3841C18.5322 10.2073 18.5609 9.89205 18.3841 9.67991C18.2073 9.46777 17.892 9.43911 17.6799 9.61589L18.3201 10.3841ZM14 21.5002H10V22.5002H14V21.5002ZM10 21.5002C8.10025 21.5002 6.72573 21.4991 5.67754 21.3582C4.64372 21.2192 4.00253 20.9525 3.52513 20.4751L2.81802 21.1822C3.51219 21.8763 4.39959 22.1954 5.54429 22.3493C6.67461 22.5013 8.12852 22.5002 10 22.5002V21.5002ZM1.5 14.0002C1.5 15.8717 1.49894 17.3256 1.65091 18.4559C1.80481 19.6006 2.12385 20.488 2.81802 21.1822L3.52513 20.4751C3.04772 19.9977 2.78098 19.3565 2.64199 18.3227C2.50106 17.2745 2.5 15.8999 2.5 14.0002H1.5ZM21.5 14.0002C21.5 15.8999 21.4989 17.2745 21.358 18.3227C21.219 19.3565 20.9523 19.9977 20.4749 20.4751L21.182 21.1822C21.8762 20.488 22.1952 19.6006 22.3491 18.4559C22.5011 17.3256 22.5 15.8717 22.5 14.0002H21.5ZM14 22.5002C15.8715 22.5002 17.3254 22.5013 18.4557 22.3493C19.6004 22.1954 20.4878 21.8763 21.182 21.1822L20.4749 20.4751C19.9975 20.9525 19.3563 21.2192 18.3225 21.3582C17.2743 21.4991 15.8998 21.5002 14 21.5002V22.5002ZM22.5 14.0002C22.5 12.1287 22.5011 10.6748 22.3491 9.54448C22.1952 8.39978 21.8762 7.51238 21.182 6.81821L20.4749 7.52532C20.9523 8.00272 21.219 8.64392 21.358 9.67773C21.4989 10.7259 21.5 12.1004 21.5 14.0002H22.5ZM2.5 14.0002C2.5 12.1004 2.50106 10.7259 2.64199 9.67773C2.78098 8.64392 3.04772 8.00272 3.52513 7.52532L2.81802 6.81821C2.12385 7.51238 1.80481 8.39978 1.65091 9.54448C1.49894 10.6748 1.5 12.1287 1.5 14.0002H2.5ZM17.9511 6.59928C19.2073 6.72286 19.9428 6.99329 20.4749 7.52532L21.182 6.81821C20.4076 6.04388 19.3929 5.73628 18.0489 5.60409L17.9511 6.59928ZM5.95106 5.60409C4.60711 5.73628 3.59236 6.04388 2.81802 6.81821L3.52513 7.52532C4.05715 6.99329 4.79266 6.72286 6.04895 6.59928L5.95106 5.60409ZM10 6.5H14V5.5H10V6.5ZM11 9.5H13V8.5H11V9.5ZM7.11917 11.5835L7.8388 12.1832L8.47899 11.415L7.75935 10.8153L7.11917 11.5835ZM16.1612 12.1832L16.8808 11.5835L16.2406 10.8153L15.521 11.415L16.1612 12.1832ZM7.8388 12.1832C8.74736 12.9403 9.46343 13.5382 10.0904 13.9415C10.7291 14.3522 11.3249 14.5949 12 14.5949V13.5949C11.5889 13.5949 11.1826 13.4549 10.6313 13.1004C10.0685 12.7384 9.40707 12.1884 8.47899 11.415L7.8388 12.1832ZM15.521 11.415C14.5929 12.1884 13.9315 12.7384 13.3687 13.1004C12.8174 13.4549 12.4111 13.5949 12 13.5949V14.5949C12.6751 14.5949 13.2709 14.3522 13.9096 13.9415C14.5366 13.5382 15.2526 12.9403 16.1612 12.1832L15.521 11.415ZM6.5 8.1265V7H5.5V8.1265H6.5ZM11 2.5H13V1.5H11V2.5ZM17.5 7V8.1265H18.5V7H17.5ZM13 2.5C14.1926 2.5 15.0368 2.50106 15.6766 2.58707C16.3019 2.67115 16.6565 2.82805 16.9142 3.08579L17.6213 2.37868C17.1468 1.90418 16.546 1.69497 15.8098 1.59599C15.088 1.49894 14.1644 1.5 13 1.5V2.5ZM18.5 7C18.5 5.83562 18.5011 4.91204 18.404 4.1902C18.305 3.45397 18.0958 2.85318 17.6213 2.37868L16.9142 3.08579C17.1719 3.34352 17.3289 3.6981 17.4129 4.32344C17.4989 4.96317 17.5 5.80735 17.5 7H18.5ZM6.5 7C6.5 5.80735 6.50106 4.96317 6.58707 4.32344C6.67115 3.6981 6.82805 3.34352 7.08579 3.08579L6.37868 2.37868C5.90418 2.85318 5.69497 3.45397 5.59599 4.1902C5.49894 4.91204 5.5 5.83562 5.5 7H6.5ZM11 1.5C9.83562 1.5 8.91204 1.49894 8.1902 1.59599C7.45397 1.69497 6.85318 1.90418 6.37868 2.37868L7.08579 3.08579C7.34352 2.82805 7.6981 2.67115 8.32344 2.58707C8.96317 2.50106 9.80735 2.5 11 2.5V1.5ZM16.8808 11.5835C17.5527 11.0236 18.0169 10.6512 18.264 10.1236L17.3584 9.69948C17.2278 9.97825 16.9843 10.1956 16.2406 10.8153L16.8808 11.5835ZM17.5 8.1265C17.5 9.09447 17.489 9.42071 17.3584 9.69948L18.264 10.1236C18.511 9.59613 18.5 9.00109 18.5 8.1265H17.5ZM7.75935 10.8153C7.01574 10.1956 6.77218 9.97825 6.64162 9.69948L5.73603 10.1236C5.9831 10.6512 6.44729 11.0236 7.11917 11.5835L7.75935 10.8153ZM5.5 8.1265C5.5 9.00109 5.48895 9.59613 5.73603 10.1236L6.64162 9.69948C6.51105 9.42071 6.5 9.09447 6.5 8.1265H5.5ZM5.67991 10.3841L7.8388 12.1832L8.47899 11.415L6.32009 9.61589L5.67991 10.3841ZM16.1612 12.1832L18.3201 10.3841L17.6799 9.61589L15.521 11.415L16.1612 12.1832Z" fill="#424242"/>
</svg>
