<svg width="24" height="24" viewBox="0 0 24 24" fill="none" xmlns="http://www.w3.org/2000/svg">
<path d="M11.6723 19.0588H9.70873C6.0748 19.0588 4.25783 19.0588 3.12892 17.9562C2 16.8535 2 15.0788 2 11.5294C2 7.98001 2 6.20531 3.12892 5.10266C4.25783 4 6.0748 4 9.70873 4H13.5631C17.197 4 19.014 4 20.1429 5.10266C20.8498 5.79312 21.1141 6.74709 21.2128 8.23529M5.85436 7.76471L7.93466 9.45796C9.70442 10.8985 10.5893 11.6187 11.6359 11.6187C12.6825 11.6187 13.5674 10.8985 15.3372 9.45796L17.4175 7.76471M20.95 13.6C20.95 14.484 20.2116 15.2 19.3 15.2C18.3884 15.2 17.65 14.484 17.65 13.6C17.65 12.716 18.3884 12 19.3 12C20.2116 12 20.95 12.716 20.95 13.6ZM22.6 18.2C22.6 19.196 22.6 20 19.3 20C16 20 16 19.196 16 18.2C16 17.204 17.4767 16.4 19.3 16.4C21.1232 16.4 22.6 17.204 22.6 18.2Z" stroke="#424242" stroke-linecap="round"/>
</svg>
