<svg width="24" height="24" viewBox="0 0 24 24" fill="none" xmlns="http://www.w3.org/2000/svg">
<path d="M13.4629 21.6744L13.2512 21.2215L13.4629 21.6744ZM10.5371 21.6744L10.7488 21.2215L10.5371 21.6744ZM9.5 9.5C9.22386 9.5 9 9.72386 9 10C9 10.2761 9.22386 10.5 9.5 10.5V9.5ZM14.5 10.5C14.7761 10.5 15 10.2761 15 10C15 9.72386 14.7761 9.5 14.5 9.5V10.5ZM11.5 12.5C11.5 12.7761 11.7239 13 12 13C12.2761 13 12.5 12.7761 12.5 12.5H11.5ZM12.5 7.5C12.5 7.22386 12.2761 7 12 7C11.7239 7 11.5 7.22386 11.5 7.5H12.5ZM13.2512 21.2215C12.4567 21.5928 11.5433 21.5928 10.7488 21.2215L10.3253 22.1274C11.3882 22.6242 12.6118 22.6242 13.6747 22.1274L13.2512 21.2215ZM3.5 10.1433C3.5 12.4637 4.16213 14.9625 5.33525 17.1225C6.50739 19.2808 8.21131 21.1393 10.3253 22.1274L10.7488 21.2215C8.87908 20.3476 7.31447 18.6716 6.21401 16.6453C5.11453 14.6208 4.5 12.285 4.5 10.1433H3.5ZM19.5 10.1433C19.5 12.285 18.8855 14.6208 17.786 16.6453C16.6855 18.6716 15.1209 20.3476 13.2512 21.2215L13.6747 22.1274C15.7887 21.1393 17.4926 19.2808 18.6648 17.1225C19.8379 14.9625 20.5 12.4637 20.5 10.1433H19.5ZM12 2.5C16.1338 2.5 19.5 5.91361 19.5 10.1433H20.5C20.5 5.37814 16.7028 1.5 12 1.5V2.5ZM12 1.5C7.29725 1.5 3.5 5.37814 3.5 10.1433H4.5C4.5 5.91361 7.8662 2.5 12 2.5V1.5ZM9.5 10.5H12V9.5H9.5V10.5ZM12 10.5H14.5V9.5H12V10.5ZM12.5 12.5V10H11.5V12.5H12.5ZM12.5 10V7.5H11.5V10H12.5Z" fill="#424242"/>
</svg>
