<svg width="24" height="24" viewBox="0 0 24 24" fill="none" xmlns="http://www.w3.org/2000/svg">
<path d="M3.67981 11.3333H3.17981V11.3333H3.67981ZM3.67981 13L3.32765 13.3549C3.52259 13.5484 3.83703 13.5484 4.03197 13.3549L3.67981 13ZM5.71178 11.6883C5.90781 11.4938 5.90906 11.1772 5.71456 10.9812C5.52007 10.7851 5.20349 10.7839 5.00746 10.9784L5.71178 11.6883ZM2.35216 10.9784C2.15613 10.7839 1.83955 10.7851 1.64506 10.9812C1.45057 11.1772 1.45181 11.4938 1.64784 11.6883L2.35216 10.9784ZM18.8285 7.26186C18.9732 7.4971 19.2811 7.57057 19.5163 7.42594C19.7516 7.28132 19.825 6.97338 19.6804 6.73814L18.8285 7.26186ZM20.3139 11L20.6654 10.6444C20.4706 10.4519 20.1572 10.4519 19.9624 10.6444L20.3139 11ZM18.2762 12.3111C18.0798 12.5052 18.0779 12.8218 18.2721 13.0182C18.4662 13.2145 18.7828 13.2164 18.9791 13.0223L18.2762 12.3111ZM21.6486 13.0223C21.845 13.2164 22.1616 13.2145 22.3557 13.0182C22.5499 12.8218 22.548 12.5052 22.3516 12.3111L21.6486 13.0223ZM5.10519 16.7374C4.96016 16.5024 4.6521 16.4295 4.4171 16.5745C4.18211 16.7195 4.10917 17.0276 4.25419 17.2626L5.10519 16.7374ZM14.4132 10.1724C14.4655 9.90122 14.288 9.63904 14.0169 9.58677C13.7457 9.53451 13.4836 9.71195 13.4313 9.9831L14.4132 10.1724ZM12.4529 12.4531L12.0993 12.0995V12.0995L12.4529 12.4531ZM9.98316 13.4313C9.71201 13.4835 9.53453 13.7457 9.58676 14.0168C9.63899 14.288 9.90115 14.4655 10.1723 14.4132L9.98316 13.4313ZM12.0789 2.5C7.16776 2.5 3.17981 6.45112 3.17981 11.3333H4.17981C4.17981 7.0108 7.71263 3.5 12.0789 3.5V2.5ZM3.17981 11.3333L3.17981 13H4.17981L4.17981 11.3333H3.17981ZM4.03197 13.3549L5.71178 11.6883L5.00746 10.9784L3.32765 12.6451L4.03197 13.3549ZM4.03197 12.6451L2.35216 10.9784L1.64784 11.6883L3.32765 13.3549L4.03197 12.6451ZM19.6804 6.73814C18.118 4.19664 15.2975 2.5 12.0789 2.5V3.5C14.9382 3.5 17.4417 5.00608 18.8285 7.26186L19.6804 6.73814ZM11.8827 21.5C16.8098 21.5 20.8139 17.5507 20.8139 12.6667H19.8139C19.8139 16.9874 16.2685 20.5 11.8827 20.5V21.5ZM20.8139 12.6667V11H19.8139V12.6667H20.8139ZM19.9624 10.6444L18.2762 12.3111L18.9791 13.0223L20.6654 11.3556L19.9624 10.6444ZM19.9624 11.3556L21.6486 13.0223L22.3516 12.3111L20.6654 10.6444L19.9624 11.3556ZM4.25419 17.2626C5.82268 19.8042 8.6534 21.5 11.8827 21.5V20.5C9.01087 20.5 6.49721 18.9931 5.10519 16.7374L4.25419 17.2626ZM12.2872 9.14978L14.8502 11.7128L15.5573 11.0057L12.9943 8.44267L12.2872 9.14978ZM11.7128 14.8502L9.14978 12.2872L8.44267 12.9943L11.0057 15.5573L11.7128 14.8502ZM14.8502 14.8502C13.9838 15.7166 12.5792 15.7166 11.7128 14.8502L11.0057 15.5573C12.2626 16.8142 14.3004 16.8142 15.5573 15.5573L14.8502 14.8502ZM14.8502 11.7128C15.7166 12.5792 15.7166 13.9838 14.8502 14.8502L15.5573 15.5573C16.8142 14.3004 16.8142 12.2626 15.5573 11.0057L14.8502 11.7128ZM9.14978 9.14978C10.0162 8.28341 11.4208 8.28341 12.2872 9.14978L12.9943 8.44267C11.7374 7.18578 9.69957 7.18578 8.44267 8.44267L9.14978 9.14978ZM8.44267 8.44267C7.18578 9.69957 7.18578 11.7374 8.44267 12.9943L9.14978 12.2872C8.28341 11.4208 8.28341 10.0162 9.14978 9.14978L8.44267 8.44267ZM13.9223 10.0777C13.4313 9.9831 13.4313 9.9829 13.4314 9.9827C13.4314 9.98263 13.4314 9.98244 13.4315 9.98232C13.4315 9.98207 13.4315 9.98184 13.4316 9.98163C13.4317 9.98121 13.4317 9.98086 13.4318 9.98057C13.4319 9.97999 13.432 9.97968 13.432 9.97962C13.432 9.97952 13.4318 9.98046 13.4314 9.98241C13.4305 9.98632 13.4287 9.99428 13.4257 10.0061C13.4198 10.0296 13.4092 10.0684 13.3926 10.1205C13.3593 10.2248 13.3015 10.3824 13.2071 10.5784C13.0184 10.9698 12.6825 11.5163 12.0993 12.0995L12.8064 12.8066C13.4763 12.1367 13.8751 11.4956 14.1079 11.0126C14.2241 10.7714 14.2988 10.5701 14.3452 10.4248C14.3684 10.3522 14.3845 10.2935 14.3953 10.2508C14.4007 10.2294 14.4048 10.212 14.4077 10.1989C14.4091 10.1923 14.4103 10.1868 14.4112 10.1824C14.4117 10.1801 14.4121 10.1782 14.4124 10.1765C14.4126 10.1757 14.4127 10.1749 14.4129 10.1742C14.4129 10.1739 14.413 10.1736 14.4131 10.1733C14.4131 10.1731 14.4131 10.1729 14.4131 10.1728C14.4132 10.1726 14.4132 10.1724 13.9223 10.0777ZM12.0993 12.0995C11.5161 12.6827 10.9697 13.0185 10.5783 13.2071C10.3824 13.3016 10.2248 13.3593 10.1205 13.3926C10.0684 13.4093 10.0296 13.4198 10.0061 13.4257C9.99433 13.4287 9.98637 13.4305 9.98247 13.4314C9.98052 13.4318 9.97958 13.432 9.97969 13.432C9.97974 13.432 9.98005 13.4319 9.98063 13.4318C9.98092 13.4317 9.98128 13.4317 9.9817 13.4316C9.98191 13.4315 9.98214 13.4315 9.98238 13.4314C9.9825 13.4314 9.9827 13.4314 9.98276 13.4314C9.98296 13.4313 9.98316 13.4313 10.0777 13.9223C10.1723 14.4132 10.1725 14.4132 10.1727 14.4132C10.1728 14.4131 10.173 14.4131 10.1732 14.4131C10.1735 14.413 10.1738 14.4129 10.1742 14.4129C10.1749 14.4127 10.1756 14.4126 10.1765 14.4124C10.1781 14.4121 10.1801 14.4117 10.1823 14.4112C10.1867 14.4103 10.1922 14.4091 10.1988 14.4077C10.212 14.4048 10.2293 14.4007 10.2507 14.3953C10.2934 14.3846 10.3521 14.3684 10.4247 14.3452C10.57 14.2988 10.7713 14.2242 11.0125 14.108C11.4954 13.8752 12.1366 13.4765 12.8064 12.8066L12.0993 12.0995Z" fill="#424242"/>
</svg>
