<svg width="24" height="24" viewBox="0 0 24 24" fill="none" xmlns="http://www.w3.org/2000/svg">
<path d="M20.5 15C20.5 15.2761 20.7239 15.5 21 15.5C21.2761 15.5 21.5 15.2761 21.5 15H20.5ZM13.5 22.5C13.7761 22.5 14 22.2761 14 22C14 21.7239 13.7761 21.5 13.5 21.5V22.5ZM20.1213 4.87868L19.7678 5.23223V5.23223L20.1213 4.87868ZM3.87868 4.87868L3.52513 4.52513H3.52513L3.87868 4.87868ZM10.5 13.5C10.2239 13.5 10 13.7239 10 14C10 14.2761 10.2239 14.5 10.5 14.5V13.5ZM15 14.5C15.2761 14.5 15.5 14.2761 15.5 14C15.5 13.7239 15.2761 13.5 15 13.5V14.5ZM7 13.5C6.72386 13.5 6.5 13.7239 6.5 14C6.5 14.2761 6.72386 14.5 7 14.5V13.5ZM7.5 14.5C7.77614 14.5 8 14.2761 8 14C8 13.7239 7.77614 13.5 7.5 13.5V14.5ZM7 10C6.72386 10 6.5 10.2239 6.5 10.5C6.5 10.7761 6.72386 11 7 11V10ZM7.5 11C7.77614 11 8 10.7761 8 10.5C8 10.2239 7.77614 10 7.5 10V11ZM7 17C6.72386 17 6.5 17.2239 6.5 17.5C6.5 17.7761 6.72386 18 7 18V17ZM7.5 18C7.77614 18 8 17.7761 8 17.5C8 17.2239 7.77614 17 7.5 17V18ZM10.5 10C10.2239 10 10 10.2239 10 10.5C10 10.7761 10.2239 11 10.5 11V10ZM17 11C17.2761 11 17.5 10.7761 17.5 10.5C17.5 10.2239 17.2761 10 17 10V11ZM10.5 17C10.2239 17 10 17.2239 10 17.5C10 17.7761 10.2239 18 10.5 18V17ZM12.5 18C12.7761 18 13 17.7761 13 17.5C13 17.2239 12.7761 17 12.5 17V18ZM17.6555 22.5L18.009 22.1465V22.1465L17.6555 22.5ZM21.5 18.6555L21.8535 18.302V18.302L21.5 18.6555ZM18.937 16.0925L18.5834 16.446V16.446L18.937 16.0925ZM15.0924 19.937L14.7389 20.2906V20.2906L15.0924 19.937ZM20.714 17.441C20.751 17.1673 20.5591 16.9155 20.2855 16.8785C20.0118 16.8415 19.76 17.0334 19.723 17.307L20.714 17.441ZM18.7674 19.7677L18.4139 19.4141V19.4141L18.7674 19.7677ZM16.3432 20.8082C16.0737 20.8681 15.9037 21.1352 15.9636 21.4047C16.0235 21.6743 16.2906 21.8443 16.5602 21.7844L16.3432 20.8082ZM20.5 10V15H21.5V10H20.5ZM13.5 21.5H9V22.5H13.5V21.5ZM3.5 16V10H2.5V16H3.5ZM9 21.5C7.57165 21.5 6.55069 21.4989 5.77481 21.3946C5.01331 21.2922 4.56319 21.0987 4.23223 20.7678L3.52513 21.4749C4.07285 22.0226 4.76917 22.2684 5.64156 22.3857C6.49956 22.5011 7.59992 22.5 9 22.5V21.5ZM2.5 16C2.5 17.4001 2.49894 18.5004 2.61429 19.3584C2.73158 20.2308 2.9774 20.9272 3.52513 21.4749L4.23223 20.7678C3.90128 20.4368 3.70776 19.9867 3.60538 19.2252C3.50106 18.4493 3.5 17.4283 3.5 16H2.5ZM21.5 10C21.5 8.59992 21.5011 7.49956 21.3857 6.64156C21.2684 5.76917 21.0226 5.07285 20.4749 4.52513L19.7678 5.23223C20.0987 5.56319 20.2922 6.01331 20.3946 6.77481C20.4989 7.55069 20.5 8.57165 20.5 10H21.5ZM3.5 10C3.5 8.57165 3.50106 7.55069 3.60538 6.77481C3.70776 6.01331 3.90128 5.56319 4.23223 5.23223L3.52513 4.52513C2.9774 5.07285 2.73158 5.76917 2.61429 6.64156C2.49894 7.49956 2.5 8.59992 2.5 10H3.5ZM15.9972 4.50173C17.0887 4.50781 17.8849 4.53578 18.4978 4.64838C19.0965 4.75835 19.4774 4.94187 19.7678 5.23223L20.4749 4.52513C19.9969 4.04711 19.4046 3.79821 18.6785 3.66483C17.9666 3.53408 17.0863 3.50778 16.0028 3.50175L15.9972 4.50173ZM7.99722 3.50175C6.91369 3.50778 6.03336 3.53408 5.32152 3.66483C4.59538 3.79821 4.00314 4.04711 3.52513 4.52513L4.23223 5.23223C4.5226 4.94187 4.90351 4.75835 5.50218 4.64838C6.11515 4.53578 6.91128 4.50781 8.00278 4.50173L7.99722 3.50175ZM10.5 14.5H15V13.5H10.5V14.5ZM7 14.5H7.5V13.5H7V14.5ZM7 11H7.5V10H7V11ZM7 18H7.5V17H7V18ZM10.5 11H17V10H10.5V11ZM10.5 18H12.5V17H10.5V18ZM9.5 2.5H14.5V1.5H9.5V2.5ZM15.5 3.5V4.5H16.5V3.5H15.5ZM14.5 5.5H9.5V6.5H14.5V5.5ZM8.5 4.5V3.5H7.5V4.5H8.5ZM9.5 5.5C8.94772 5.5 8.5 5.05228 8.5 4.5H7.5C7.5 5.60457 8.39543 6.5 9.5 6.5V5.5ZM15.5 4.5C15.5 5.05228 15.0523 5.5 14.5 5.5V6.5C15.6046 6.5 16.5 5.60457 16.5 4.5H15.5ZM14.5 2.5C15.0523 2.5 15.5 2.94772 15.5 3.5H16.5C16.5 2.39543 15.6046 1.5 14.5 1.5V2.5ZM9.5 1.5C8.39543 1.5 7.5 2.39543 7.5 3.5H8.5C8.5 2.94772 8.94772 2.5 9.5 2.5V1.5ZM18.5834 16.446L21.1464 19.0091L21.8535 18.302L19.2905 15.7389L18.5834 16.446ZM18.009 22.1465L15.446 19.5835L14.7389 20.2906L17.3019 22.8536L18.009 22.1465ZM21.1464 22.1465C20.2801 23.0129 18.8754 23.0129 18.009 22.1465L17.3019 22.8536C18.5588 24.1105 20.5966 24.1105 21.8535 22.8536L21.1464 22.1465ZM21.1464 19.0091C22.0128 19.8754 22.0128 21.2801 21.1464 22.1465L21.8535 22.8536C23.1104 21.5967 23.1104 19.5589 21.8535 18.302L21.1464 19.0091ZM15.446 16.446C16.3124 15.5797 17.717 15.5797 18.5834 16.446L19.2905 15.7389C18.0336 14.482 15.9958 14.482 14.7389 15.7389L15.446 16.446ZM14.7389 15.7389C13.482 16.9958 13.482 19.0337 14.7389 20.2906L15.446 19.5835C14.5796 18.7171 14.5796 17.3124 15.446 16.446L14.7389 15.7389ZM20.2185 17.374C19.723 17.307 19.723 17.3068 19.7231 17.3065C19.7231 17.3065 19.7231 17.3062 19.7231 17.3061C19.7232 17.3058 19.7232 17.3055 19.7232 17.3052C19.7233 17.3047 19.7234 17.3043 19.7234 17.3039C19.7235 17.3031 19.7236 17.3025 19.7237 17.3022C19.7238 17.3017 19.7237 17.3021 19.7234 17.3036C19.723 17.3064 19.7218 17.3132 19.7196 17.3238C19.7153 17.3449 19.7072 17.381 19.6935 17.4303C19.6659 17.529 19.6156 17.6811 19.5274 17.8734C19.3514 18.2571 19.0221 18.8058 18.4139 19.4141L19.121 20.1212C19.8165 19.4257 20.2127 18.7777 20.4363 18.2904C20.5478 18.0473 20.6159 17.8454 20.6567 17.699C20.6771 17.6258 20.6907 17.5666 20.6996 17.523C20.704 17.5012 20.7073 17.4833 20.7096 17.4696C20.7107 17.4627 20.7117 17.4569 20.7124 17.4521C20.7127 17.4497 20.713 17.4476 20.7133 17.4457C20.7134 17.4448 20.7136 17.4439 20.7137 17.4432C20.7137 17.4428 20.7138 17.4424 20.7138 17.442C20.7139 17.4418 20.7139 17.4416 20.7139 17.4415C20.7139 17.4412 20.714 17.441 20.2185 17.374ZM18.4139 19.4141C17.7982 20.0298 17.26 20.3822 16.8876 20.5785C16.701 20.6768 16.5552 20.7364 16.461 20.7703C16.4138 20.7872 16.3795 20.7978 16.3595 20.8036C16.3494 20.8064 16.3429 20.8081 16.3402 20.8088C16.3388 20.8092 16.3383 20.8093 16.3388 20.8092C16.3391 20.8091 16.3396 20.809 16.3403 20.8088C16.3407 20.8087 16.3411 20.8086 16.3416 20.8085C16.3418 20.8085 16.3421 20.8084 16.3424 20.8084C16.3425 20.8083 16.3427 20.8083 16.3428 20.8083C16.343 20.8082 16.3432 20.8082 16.4517 21.2963C16.5602 21.7844 16.5604 21.7843 16.5606 21.7843C16.5607 21.7842 16.5609 21.7842 16.5611 21.7841C16.5614 21.7841 16.5618 21.784 16.5622 21.7839C16.5629 21.7837 16.5637 21.7836 16.5645 21.7834C16.5663 21.783 16.5682 21.7825 16.5704 21.782C16.5748 21.7809 16.5802 21.7796 16.5866 21.778C16.5993 21.7748 16.6158 21.7704 16.636 21.7646C16.6764 21.7529 16.7313 21.7357 16.7994 21.7112C16.9357 21.6622 17.1243 21.5841 17.3537 21.4632C17.8132 21.2211 18.4329 20.8093 19.121 20.1212L18.4139 19.4141Z" fill="#424242"/>
</svg>
