<svg width="24" height="24" viewBox="0 0 24 24" fill="none" xmlns="http://www.w3.org/2000/svg">
<path d="M16.4142 2.58579L16.0607 2.93934L16.0607 2.93934L16.4142 2.58579ZM10.4028 12.6884L10.5131 13.1761H10.5131L10.4028 12.6884ZM11.0476 12.1989L10.6109 11.9554L10.6109 11.9554L11.0476 12.1989ZM9.68403 14.429L9.30403 14.7539L9.30403 14.7539L9.68403 14.429ZM10.2119 12.7316L10.1015 12.2439H10.1015L10.2119 12.7316ZM10.0605 15.3733L10.5582 15.4215V15.4215L10.0605 15.3733ZM9.81418 14.5812L10.1942 14.2562L10.1942 14.2562L9.81418 14.5812ZM11.4227 16.6254L11.6318 17.0795H11.6318L11.4227 16.6254ZM10.0408 15.5763L9.54315 15.5281V15.5281L10.0408 15.5763ZM12.3986 16.5431L12.6077 16.0889L12.6077 16.0889L12.3986 16.5431ZM11.6014 16.5431L11.3923 16.0889H11.3923L11.6014 16.5431ZM12 16.4075V15.9075V16.4075ZM13.9592 15.5763L13.4615 15.6245V15.6245L13.9592 15.5763ZM12.5773 16.6254L12.3682 17.0795L12.3682 17.0795L12.5773 16.6254ZM14.1858 14.5812L13.8058 14.2562L13.8058 14.2562L14.1858 14.5812ZM13.9395 15.3733L14.4372 15.325V15.325L13.9395 15.3733ZM13.7881 12.7316L13.8985 12.2439H13.8985L13.7881 12.7316ZM14.316 14.429L14.696 14.7539L14.696 14.7539L14.316 14.429ZM12.9524 12.1989L13.3891 11.9554L13.3891 11.9554L12.9524 12.1989ZM13.5972 12.6884L13.4869 13.1761H13.4869L13.5972 12.6884ZM12.8541 12.0225L12.4173 12.266L12.4173 12.266L12.8541 12.0225ZM11.1459 12.0225L11.5827 12.266L11.5827 12.266L11.1459 12.0225ZM11 2.5H13V1.5H11V2.5ZM16.5 6V8H17.5V6H16.5ZM7.5 8V6H6.5V8H7.5ZM13 2.5C13.9569 2.5 14.6244 2.50106 15.1279 2.56876C15.6171 2.63453 15.8762 2.75483 16.0607 2.93934L16.7678 2.23223C16.3665 1.83096 15.8612 1.65836 15.2612 1.57768C14.6755 1.49894 13.9287 1.5 13 1.5V2.5ZM17.5 6C17.5 5.07133 17.5011 4.32452 17.4223 3.73883C17.3416 3.13876 17.169 2.63351 16.7678 2.23223L16.0607 2.93934C16.2452 3.12385 16.3655 3.3829 16.4312 3.87208C16.4989 4.37565 16.5 5.04306 16.5 6H17.5ZM11 1.5C10.0713 1.5 9.32452 1.49894 8.73883 1.57768C8.13876 1.65836 7.63351 1.83096 7.23223 2.23223L7.93934 2.93934C8.12385 2.75483 8.3829 2.63453 8.87208 2.56876C9.37565 2.50106 10.0431 2.5 11 2.5V1.5ZM7.5 6C7.5 5.04306 7.50106 4.37565 7.56876 3.87208C7.63453 3.3829 7.75483 3.12385 7.93934 2.93934L7.23223 2.23223C6.83096 2.63351 6.65836 3.13876 6.57768 3.73883C6.49894 4.32452 6.5 5.07133 6.5 6H7.5ZM12.4173 12.266L12.5156 12.4423L13.3891 11.9554L13.2908 11.7791L12.4173 12.266ZM13.4869 13.1761L13.6778 13.2193L13.8985 12.2439L13.7076 12.2007L13.4869 13.1761ZM13.936 14.104L13.8058 14.2562L14.5658 14.9061L14.696 14.7539L13.936 14.104ZM13.4418 15.4215L13.4615 15.6245L14.4569 15.5281L14.4372 15.325L13.4418 15.4215ZM12.7864 16.1712L12.6077 16.0889L12.1894 16.9972L12.3682 17.0795L12.7864 16.1712ZM11.3923 16.0889L11.2136 16.1712L11.6318 17.0795L11.8106 16.9972L11.3923 16.0889ZM10.5385 15.6245L10.5582 15.4215L9.56283 15.325L9.54315 15.5281L10.5385 15.6245ZM10.1942 14.2562L10.064 14.104L9.30403 14.7539L9.43418 14.9061L10.1942 14.2562ZM10.3222 13.2193L10.5131 13.1761L10.2924 12.2007L10.1015 12.2439L10.3222 13.2193ZM11.4844 12.4423L11.5827 12.266L10.7092 11.7791L10.6109 11.9554L11.4844 12.4423ZM10.5131 13.1761C10.6798 13.1384 10.9134 13.0962 11.1038 12.9516L10.4992 12.1551C10.5178 12.1409 10.5284 12.1409 10.4988 12.1502C10.4602 12.1624 10.4051 12.1753 10.2924 12.2007L10.5131 13.1761ZM10.6109 11.9554C10.5532 12.0589 10.5235 12.1116 10.4993 12.1479C10.4797 12.1774 10.4812 12.1687 10.4992 12.1551L11.1038 12.9516C11.2911 12.8094 11.3981 12.597 11.4844 12.4423L10.6109 11.9554ZM10.064 14.104C9.80177 13.7973 9.6428 13.6094 9.5522 13.4655C9.46501 13.327 9.516 13.3442 9.49467 13.4128L8.53978 13.1158C8.43067 13.4667 8.56354 13.7721 8.70593 13.9983C8.84491 14.2191 9.06324 14.4724 9.30403 14.7539L10.064 14.104ZM10.1015 12.2439C9.74956 12.3236 9.42725 12.395 9.18742 12.4895C8.93818 12.5878 8.65058 12.7595 8.53978 13.1158L9.49467 13.4128C9.47165 13.4868 9.41242 13.4757 9.55407 13.4199C9.70514 13.3604 9.93626 13.3066 10.3222 13.2193L10.1015 12.2439ZM10.5582 15.4215C10.5757 15.2402 10.6073 15.0091 10.5382 14.7868L9.58331 15.0838C9.57801 15.0667 9.58164 15.0624 9.58089 15.0994C9.57998 15.1445 9.57435 15.2062 9.56283 15.325L10.5582 15.4215ZM9.43418 14.9061C9.5106 14.9955 9.54907 15.041 9.57452 15.0761C9.59473 15.1039 9.58876 15.1013 9.58331 15.0838L10.5382 14.7868C10.4684 14.5625 10.3101 14.3918 10.1942 14.2562L9.43418 14.9061ZM11.2136 16.1712C10.8522 16.3376 10.6347 16.4362 10.479 16.4808C10.3297 16.5235 10.3841 16.4731 10.4589 16.5298L9.85422 17.3263C10.1588 17.5575 10.5008 17.5148 10.7544 17.4421C11.0016 17.3712 11.3023 17.2312 11.6318 17.0795L11.2136 16.1712ZM9.54315 15.5281C9.50668 15.9045 9.47281 16.2413 9.48448 16.5033C9.49619 16.7662 9.55781 17.1013 9.85422 17.3263L10.4589 16.5298C10.5255 16.5804 10.4912 16.632 10.4835 16.4588C10.4757 16.2848 10.4989 16.033 10.5385 15.6245L9.54315 15.5281ZM12.6077 16.0889C12.4533 16.0178 12.2393 15.9075 12 15.9075V16.9075C11.9738 16.9075 11.9638 16.9003 11.9937 16.9112C12.0319 16.9251 12.084 16.9487 12.1894 16.9972L12.6077 16.0889ZM11.8106 16.9972C11.916 16.9487 11.9681 16.9251 12.0063 16.9112C12.0362 16.9003 12.0262 16.9075 12 16.9075V15.9075C11.7607 15.9075 11.5467 16.0178 11.3923 16.0889L11.8106 16.9972ZM13.4615 15.6245C13.5011 16.033 13.5243 16.2848 13.5165 16.4588C13.5088 16.632 13.4745 16.5804 13.5411 16.5298L14.1458 17.3263C14.4422 17.1013 14.5038 16.7662 14.5155 16.5033C14.5272 16.2413 14.4933 15.9045 14.4569 15.5281L13.4615 15.6245ZM12.3682 17.0795C12.6977 17.2312 12.9984 17.3712 13.2456 17.4421C13.4992 17.5148 13.8412 17.5575 14.1458 17.3263L13.5411 16.5298C13.6159 16.4731 13.6703 16.5235 13.521 16.4808C13.3653 16.4362 13.1478 16.3376 12.7864 16.1712L12.3682 17.0795ZM13.8058 14.2562C13.6899 14.3918 13.5316 14.5625 13.4618 14.7868L14.4167 15.0838C14.4112 15.1013 14.4053 15.1039 14.4255 15.0761C14.4509 15.041 14.4894 14.9955 14.5658 14.9061L13.8058 14.2562ZM14.4372 15.325C14.4257 15.2062 14.42 15.1445 14.4191 15.0994C14.4184 15.0624 14.422 15.0667 14.4167 15.0838L13.4618 14.7868C13.3927 15.0091 13.4243 15.2402 13.4418 15.4215L14.4372 15.325ZM13.6778 13.2193C14.0637 13.3066 14.2949 13.3604 14.4459 13.4199C14.5876 13.4757 14.5284 13.4868 14.5053 13.4128L15.4602 13.1158C15.3494 12.7595 15.0618 12.5878 14.8126 12.4895C14.5728 12.395 14.2504 12.3236 13.8985 12.2439L13.6778 13.2193ZM14.696 14.7539C14.9368 14.4724 15.1551 14.2191 15.2941 13.9983C15.4365 13.7721 15.5693 13.4667 15.4602 13.1158L14.5053 13.4128C14.484 13.3442 14.535 13.327 14.4478 13.4655C14.3572 13.6094 14.1982 13.7973 13.936 14.104L14.696 14.7539ZM12.5156 12.4423C12.6019 12.597 12.7089 12.8094 12.8962 12.9516L13.5008 12.1551C13.5188 12.1687 13.5203 12.1774 13.5007 12.1479C13.4765 12.1116 13.4468 12.0589 13.3891 11.9554L12.5156 12.4423ZM13.7076 12.2007C13.5949 12.1753 13.5398 12.1624 13.5012 12.1502C13.4716 12.1409 13.4822 12.1409 13.5008 12.1551L12.8962 12.9516C13.0866 13.0962 13.3202 13.1384 13.4869 13.1761L13.7076 12.2007ZM13.2908 11.7791C13.1089 11.4528 12.9461 11.158 12.788 10.9516C12.6297 10.7449 12.3818 10.5 12 10.5V11.5C11.9022 11.5 11.8913 11.4255 11.9941 11.5596C12.0971 11.6941 12.2192 11.9105 12.4173 12.266L13.2908 11.7791ZM11.5827 12.266C11.7808 11.9105 11.9029 11.6941 12.0059 11.5596C12.1087 11.4255 12.0978 11.5 12 11.5V10.5C11.6182 10.5 11.3703 10.7449 11.212 10.9516C11.0539 11.158 10.8911 11.4528 10.7092 11.7791L11.5827 12.266ZM19.5 14C19.5 18.1421 16.1421 21.5 12 21.5V22.5C16.6944 22.5 20.5 18.6944 20.5 14H19.5ZM12 21.5C7.85786 21.5 4.5 18.1421 4.5 14H3.5C3.5 18.6944 7.30558 22.5 12 22.5V21.5ZM4.5 14C4.5 9.85786 7.85786 6.5 12 6.5V5.5C7.30558 5.5 3.5 9.30558 3.5 14H4.5ZM12 6.5C16.1421 6.5 19.5 9.85786 19.5 14H20.5C20.5 9.30558 16.6944 5.5 12 5.5V6.5Z" fill="#424242"/>
</svg>
