<svg width="24" height="24" viewBox="0 0 24 24" fill="none" xmlns="http://www.w3.org/2000/svg">
<path d="M10.4028 7.68841L10.5131 8.17609L10.5131 8.17609L10.4028 7.68841ZM11.0476 7.19887L10.6109 6.95542L10.6109 6.95542L11.0476 7.19887ZM9.68403 9.42898L9.30403 9.75394L9.30403 9.75394L9.68403 9.42898ZM10.2119 7.73161L10.1015 7.24394L10.1015 7.24394L10.2119 7.73161ZM10.0605 10.3733L10.5582 10.4215V10.4215L10.0605 10.3733ZM9.81418 9.58117L10.1942 9.2562L10.1942 9.2562L9.81418 9.58117ZM11.4227 11.6254L11.6318 12.0795H11.6318L11.4227 11.6254ZM10.0408 10.5763L9.54315 10.5281V10.5281L10.0408 10.5763ZM12.3986 11.5431L12.6077 11.0889L12.6077 11.0889L12.3986 11.5431ZM11.6014 11.5431L11.3923 11.0889H11.3923L11.6014 11.5431ZM12 11.4075V10.9075V11.4075ZM13.9592 10.5763L13.4615 10.6245V10.6245L13.9592 10.5763ZM12.5773 11.6254L12.3682 12.0795L12.3682 12.0795L12.5773 11.6254ZM14.1858 9.58117L13.8058 9.2562L13.8058 9.2562L14.1858 9.58117ZM13.9395 10.3733L14.4372 10.325V10.325L13.9395 10.3733ZM13.7881 7.73161L13.8985 7.24394L13.8985 7.24394L13.7881 7.73161ZM14.316 9.42898L14.696 9.75394L14.696 9.75394L14.316 9.42898ZM12.9524 7.19887L12.5156 7.44232V7.44232L12.9524 7.19887ZM13.5972 7.68841L13.4869 8.17609L13.4869 8.17609L13.5972 7.68841ZM12.8541 7.02251L13.2908 6.77906V6.77906L12.8541 7.02251ZM11.1459 7.02251L11.5827 7.26596L11.5827 7.26596L11.1459 7.02251ZM12 6V5.5V6ZM7.83332 15.1322C7.90633 14.8659 7.74963 14.5908 7.48332 14.5178C7.217 14.4448 6.94192 14.6015 6.86891 14.8678L7.83332 15.1322ZM6.71424 17.323L6.23204 17.1908L6.71424 17.323ZM17.2858 17.323L16.8036 17.4552L17.2858 17.323ZM17.1311 14.8678C17.0581 14.6015 16.783 14.4448 16.5167 14.5178C16.2504 14.5908 16.0937 14.8659 16.1667 15.1322L17.1311 14.8678ZM10.4393 20.658L10.6704 21.1014H10.6704L10.4393 20.658ZM11.8014 20.0959L11.8544 20.5931H11.8544L11.8014 20.0959ZM13.5607 20.658L13.7917 20.2145V20.2145L13.5607 20.658ZM12.1986 20.0959L12.1456 20.5931H12.1456L12.1986 20.0959ZM17.809 21.3881L18.2247 21.6659H18.2247L17.809 21.3881ZM17.2363 21.9008L17.4632 22.3464H17.4632L17.2363 21.9008ZM6.19097 21.3881L5.77526 21.6659H5.77526L6.19097 21.3881ZM6.76372 21.9008L6.53685 22.3464H6.53685L6.76372 21.9008ZM12.4173 7.26596L12.5156 7.44232L13.3891 6.95542L13.2908 6.77906L12.4173 7.26596ZM13.4869 8.17609L13.6778 8.21928L13.8985 7.24394L13.7076 7.20074L13.4869 8.17609ZM13.936 9.10401L13.8058 9.2562L14.5658 9.90613L14.696 9.75394L13.936 9.10401ZM13.4418 10.4215L13.4615 10.6245L14.4569 10.5281L14.4372 10.325L13.4418 10.4215ZM12.7864 11.1712L12.6077 11.0889L12.1894 11.9972L12.3682 12.0795L12.7864 11.1712ZM11.3923 11.0889L11.2136 11.1712L11.6318 12.0795L11.8106 11.9972L11.3923 11.0889ZM10.5385 10.6245L10.5582 10.4215L9.56283 10.325L9.54315 10.5281L10.5385 10.6245ZM10.1942 9.2562L10.064 9.10402L9.30403 9.75394L9.43418 9.90613L10.1942 9.2562ZM10.3222 8.21928L10.5131 8.17609L10.2924 7.20074L10.1015 7.24394L10.3222 8.21928ZM11.4844 7.44232L11.5827 7.26596L10.7092 6.77906L10.6109 6.95542L11.4844 7.44232ZM10.5131 8.17609C10.6798 8.13837 10.9134 8.09615 11.1038 7.95159L10.4992 7.15509C10.5178 7.14091 10.5284 7.14086 10.4988 7.1502C10.4602 7.16237 10.4051 7.17525 10.2924 7.20074L10.5131 8.17609ZM10.6109 6.95542C10.5532 7.05894 10.5235 7.11156 10.4993 7.1479C10.4797 7.1774 10.4812 7.16873 10.4992 7.15509L11.1038 7.95159C11.2911 7.80941 11.3981 7.59705 11.4844 7.44232L10.6109 6.95542ZM10.064 9.10402C9.80177 8.79733 9.6428 8.60945 9.5522 8.46553C9.46501 8.32702 9.516 8.3442 9.49467 8.41279L8.53978 8.11585C8.43067 8.46671 8.56354 8.77209 8.70593 8.99828C8.84491 9.21906 9.06324 9.47237 9.30403 9.75394L10.064 9.10402ZM10.1015 7.24394C9.74956 7.32357 9.42725 7.39503 9.18742 7.48954C8.93818 7.58776 8.65058 7.75953 8.53978 8.11585L9.49467 8.41279C9.47165 8.48683 9.41242 8.47572 9.55407 8.4199C9.70514 8.36036 9.93626 8.3066 10.3222 8.21928L10.1015 7.24394ZM10.5582 10.4215C10.5757 10.2402 10.6073 10.0091 10.5382 9.78684L9.58331 10.0838C9.57801 10.0667 9.58164 10.0624 9.58089 10.0994C9.57998 10.1445 9.57435 10.2062 9.56283 10.325L10.5582 10.4215ZM9.43418 9.90613C9.5106 9.9955 9.54907 10.041 9.57452 10.0761C9.59473 10.1039 9.58876 10.1013 9.58331 10.0838L10.5382 9.78684C10.4684 9.56249 10.3101 9.3918 10.1942 9.2562L9.43418 9.90613ZM11.2136 11.1712C10.8522 11.3376 10.6347 11.4362 10.479 11.4808C10.3297 11.5235 10.3841 11.4731 10.4589 11.5298L9.85422 12.3263C10.1588 12.5575 10.5008 12.5148 10.7544 12.4421C11.0016 12.3712 11.3023 12.2312 11.6318 12.0795L11.2136 11.1712ZM9.54315 10.5281C9.50668 10.9045 9.47281 11.2413 9.48448 11.5033C9.49619 11.7662 9.55781 12.1013 9.85422 12.3263L10.4589 11.5298C10.5255 11.5804 10.4912 11.632 10.4835 11.4588C10.4757 11.2848 10.4989 11.033 10.5385 10.6245L9.54315 10.5281ZM12.6077 11.0889C12.4533 11.0178 12.2393 10.9075 12 10.9075V11.9075C11.9738 11.9075 11.9638 11.9003 11.9937 11.9112C12.0319 11.9251 12.084 11.9487 12.1894 11.9972L12.6077 11.0889ZM11.8106 11.9972C11.916 11.9487 11.9681 11.9251 12.0063 11.9112C12.0362 11.9003 12.0262 11.9075 12 11.9075V10.9075C11.7607 10.9075 11.5467 11.0178 11.3923 11.0889L11.8106 11.9972ZM13.4615 10.6245C13.5011 11.033 13.5243 11.2848 13.5165 11.4588C13.5088 11.632 13.4745 11.5804 13.5411 11.5298L14.1458 12.3263C14.4422 12.1013 14.5038 11.7662 14.5155 11.5033C14.5272 11.2413 14.4933 10.9045 14.4569 10.5281L13.4615 10.6245ZM12.3682 12.0795C12.6977 12.2312 12.9984 12.3712 13.2456 12.4421C13.4992 12.5148 13.8412 12.5575 14.1458 12.3263L13.5411 11.5298C13.6159 11.4731 13.6703 11.5235 13.521 11.4808C13.3653 11.4362 13.1478 11.3376 12.7864 11.1712L12.3682 12.0795ZM13.8058 9.2562C13.6899 9.3918 13.5316 9.56249 13.4618 9.78684L14.4167 10.0838C14.4112 10.1013 14.4053 10.1039 14.4255 10.0761C14.4509 10.041 14.4894 9.9955 14.5658 9.90613L13.8058 9.2562ZM14.4372 10.325C14.4257 10.2062 14.42 10.1445 14.4191 10.0994C14.4184 10.0624 14.422 10.0667 14.4167 10.0838L13.4618 9.78684C13.3927 10.0091 13.4243 10.2402 13.4418 10.4215L14.4372 10.325ZM13.6778 8.21928C14.0637 8.3066 14.2949 8.36036 14.4459 8.4199C14.5876 8.47572 14.5284 8.48683 14.5053 8.41279L15.4602 8.11585C15.3494 7.75953 15.0618 7.58776 14.8126 7.48954C14.5728 7.39503 14.2504 7.32357 13.8985 7.24394L13.6778 8.21928ZM14.696 9.75394C14.9368 9.47237 15.1551 9.21906 15.2941 8.99828C15.4365 8.77209 15.5693 8.46671 15.4602 8.11585L14.5053 8.41279C14.484 8.3442 14.535 8.32702 14.4478 8.46553C14.3572 8.60945 14.1982 8.79733 13.936 9.10402L14.696 9.75394ZM12.5156 7.44232C12.6019 7.59705 12.7089 7.80941 12.8962 7.95159L13.5008 7.15509C13.5188 7.16873 13.5203 7.1774 13.5007 7.1479C13.4765 7.11156 13.4468 7.05894 13.3891 6.95542L12.5156 7.44232ZM13.7076 7.20074C13.5949 7.17525 13.5398 7.16237 13.5012 7.1502C13.4716 7.14086 13.4822 7.14091 13.5008 7.15509L12.8962 7.95159C13.0866 8.09615 13.3202 8.13837 13.4869 8.17609L13.7076 7.20074ZM13.2908 6.77906C13.1089 6.45284 12.9461 6.15799 12.788 5.95163C12.6297 5.74494 12.3818 5.5 12 5.5V6.5C11.9022 6.5 11.8913 6.42548 11.9941 6.55963C12.0971 6.6941 12.2192 6.91051 12.4173 7.26596L13.2908 6.77906ZM11.5827 7.26596C11.7808 6.91051 11.9029 6.6941 12.0059 6.55963C12.1087 6.42548 12.0978 6.5 12 6.5V5.5C11.6182 5.5 11.3703 5.74494 11.212 5.95163C11.0539 6.15799 10.8911 6.45284 10.7092 6.77906L11.5827 7.26596ZM18.5 9C18.5 12.5899 15.5899 15.5 12 15.5V16.5C16.1421 16.5 19.5 13.1421 19.5 9H18.5ZM12 15.5C8.41015 15.5 5.5 12.5899 5.5 9H4.5C4.5 13.1421 7.85786 16.5 12 16.5V15.5ZM5.5 9C5.5 5.41015 8.41015 2.5 12 2.5V1.5C7.85786 1.5 4.5 4.85786 4.5 9H5.5ZM12 2.5C15.5899 2.5 18.5 5.41015 18.5 9H19.5C19.5 4.85786 16.1421 1.5 12 1.5V2.5ZM6.86891 14.8678L6.23204 17.1908L7.19645 17.4552L7.83332 15.1322L6.86891 14.8678ZM17.768 17.1908L17.1311 14.8678L16.1667 15.1322L16.8036 17.4552L17.768 17.1908ZM10.6704 21.1014C11.3767 20.7333 11.6145 20.6186 11.8544 20.5931L11.7484 19.5987C11.2758 19.6491 10.843 19.8838 10.2083 20.2145L10.6704 21.1014ZM13.7917 20.2145C13.157 19.8838 12.7242 19.6491 12.2516 19.5987L12.1456 20.5931C12.3855 20.6186 12.6233 20.7333 13.3296 21.1014L13.7917 20.2145ZM11.8544 20.5931C11.9512 20.5828 12.0488 20.5828 12.1456 20.5931L12.2516 19.5987C12.0843 19.5809 11.9157 19.5809 11.7484 19.5987L11.8544 20.5931ZM16.8036 17.4552C17.121 18.6129 17.3472 19.441 17.4466 20.059C17.5484 20.6927 17.4897 20.966 17.3933 21.1102L18.2247 21.6659C18.5476 21.1829 18.5414 20.5695 18.4339 19.9004C18.3239 19.2157 18.0789 18.3248 17.768 17.1908L16.8036 17.4552ZM13.3296 21.1014C14.3251 21.6201 15.1126 22.0314 15.7329 22.2656C16.3383 22.4941 16.9345 22.6156 17.4632 22.3464L17.0094 21.4553C16.8854 21.5184 16.6515 21.5435 16.0861 21.33C15.5355 21.1222 14.8115 20.7459 13.7917 20.2145L13.3296 21.1014ZM17.3933 21.1102C17.2924 21.2612 17.1595 21.3789 17.0094 21.4553L17.4632 22.3464C17.7705 22.1899 18.0318 21.9547 18.2247 21.6659L17.3933 21.1102ZM6.23204 17.1908C5.92111 18.3248 5.67613 19.2157 5.5661 19.9004C5.45857 20.5695 5.45245 21.1829 5.77526 21.6659L6.60668 21.1102C6.51025 20.966 6.45159 20.6927 6.55343 20.059C6.65275 19.441 6.87903 18.6129 7.19645 17.4552L6.23204 17.1908ZM10.2083 20.2145C9.18845 20.7459 8.46448 21.1222 7.91393 21.33C7.34847 21.5435 7.11459 21.5184 6.99059 21.4553L6.53685 22.3464C7.06548 22.6156 7.66174 22.4941 8.2671 22.2656C8.88736 22.0314 9.67489 21.6201 10.6704 21.1014L10.2083 20.2145ZM5.77526 21.6659C5.96824 21.9547 6.22949 22.1899 6.53685 22.3464L6.99059 21.4553C6.84051 21.3789 6.70756 21.2612 6.60668 21.1102L5.77526 21.6659Z" fill="#424242"/>
</svg>
