<svg width="24" height="24" viewBox="0 0 24 24" fill="none" xmlns="http://www.w3.org/2000/svg">
<path d="M16.4143 2.58579L16.0607 2.93934L16.0607 2.93934L16.4143 2.58579ZM5.76962 8.39729L5.53025 7.95831L5.76962 8.39729ZM5.76962 18.6027L6.00898 18.1637V18.1637L5.76962 18.6027ZM13.4362 21.2169L13.1969 20.7779V20.7779L13.4362 21.2169ZM10.5638 21.2169L10.3245 21.6559V21.6559L10.5638 21.2169ZM18.2305 18.6027L18.4698 19.0417V19.0417L18.2305 18.6027ZM18.2305 8.39729L17.9911 8.83628L18.2305 8.39729ZM13.4362 5.78312L13.1969 6.2221L13.4362 5.78312ZM10.5638 5.78312L10.3245 5.34414V5.34414L10.5638 5.78312ZM10.4028 12.1886L10.5131 12.6762H10.5131L10.4028 12.1886ZM11.0477 11.699L11.4844 11.9425V11.9425L11.0477 11.699ZM9.68407 13.9291L9.30407 14.2541L9.30407 14.2541L9.68407 13.9291ZM10.2119 12.2318L10.1016 11.7441H10.1016L10.2119 12.2318ZM10.0605 14.8734L10.5582 14.9217V14.9216L10.0605 14.8734ZM9.81421 14.0813L10.1942 13.7564L10.1942 13.7564L9.81421 14.0813ZM11.4227 16.1255L11.2136 15.6713L11.2136 15.6713L11.4227 16.1255ZM10.0409 15.0765L9.54319 15.0283V15.0283L10.0409 15.0765ZM12.3986 16.0432L12.6077 15.589L12.6077 15.589L12.3986 16.0432ZM11.6015 16.0432L11.8106 16.4974L11.8106 16.4974L11.6015 16.0432ZM12 15.9076V15.4076V15.9076ZM13.9592 15.0765L13.4616 15.1247V15.1247L13.9592 15.0765ZM12.5773 16.1255L12.3682 16.5797L12.3682 16.5797L12.5773 16.1255ZM14.1859 14.0813L14.5659 14.4063V14.4063L14.1859 14.0813ZM13.9395 14.8734L14.4372 14.8252V14.8252L13.9395 14.8734ZM13.7882 12.2318L13.8985 11.7441H13.8985L13.7882 12.2318ZM14.316 13.9291L13.936 13.6042V13.6042L14.316 13.9291ZM12.9524 11.699L12.5157 11.9425V11.9425L12.9524 11.699ZM13.5973 12.1886L13.4869 12.6762H13.4869L13.5973 12.1886ZM12.8541 11.5227L13.2908 11.2792V11.2792L12.8541 11.5227ZM11.146 11.5227L10.7093 11.2792V11.2792L11.146 11.5227ZM11 2.5H13V1.5H11V2.5ZM16.5 6V8H17.5V6H16.5ZM7.50004 8V6H6.50004V8H7.50004ZM13 2.5C13.957 2.5 14.6244 2.50106 15.128 2.56876C15.6171 2.63453 15.8762 2.75483 16.0607 2.93934L16.7678 2.23223C16.3665 1.83096 15.8613 1.65836 15.2612 1.57768C14.6755 1.49894 13.9287 1.5 13 1.5V2.5ZM17.5 6C17.5 5.07133 17.5011 4.32452 17.4224 3.73883C17.3417 3.13876 17.1691 2.63351 16.7678 2.23223L16.0607 2.93934C16.2452 3.12385 16.3655 3.3829 16.4313 3.87208C16.499 4.37565 16.5 5.04306 16.5 6H17.5ZM11 1.5C10.0714 1.5 9.32456 1.49894 8.73887 1.57768C8.1388 1.65836 7.63355 1.83096 7.23227 2.23223L7.93938 2.93934C8.12389 2.75483 8.38294 2.63453 8.87212 2.56876C9.37569 2.50106 10.0431 2.5 11 2.5V1.5ZM7.50004 6C7.50004 5.04306 7.5011 4.37565 7.5688 3.87208C7.63457 3.3829 7.75487 3.12385 7.93938 2.93934L7.23227 2.23223C6.83099 2.63351 6.6584 3.13876 6.57772 3.73883C6.49898 4.32452 6.50004 5.07133 6.50004 6H7.50004ZM13.1969 6.2221L17.9911 8.83628L18.4698 7.95831L13.6756 5.34414L13.1969 6.2221ZM19.2943 11.0312V15.9688H20.2943V11.0312H19.2943ZM17.9911 18.1637L13.1969 20.7779L13.6756 21.6559L18.4698 19.0417L17.9911 18.1637ZM10.8032 20.7779L6.00898 18.1637L5.53025 19.0417L10.3245 21.6559L10.8032 20.7779ZM4.70581 15.9688V11.0312H3.70581V15.9688H4.70581ZM6.00898 8.83628L10.8032 6.2221L10.3245 5.34414L5.53025 7.95831L6.00898 8.83628ZM4.70581 11.0312C4.70581 10.1162 5.20566 9.27431 6.00898 8.83628L5.53025 7.95831C4.4056 8.57156 3.70581 9.7502 3.70581 11.0312H4.70581ZM6.00898 18.1637C5.20566 17.7257 4.70581 16.8838 4.70581 15.9688H3.70581C3.70581 17.2498 4.4056 18.4284 5.53025 19.0417L6.00898 18.1637ZM13.1969 20.7779C12.4508 21.1847 11.5492 21.1847 10.8032 20.7779L10.3245 21.6559C11.3689 22.2254 12.6312 22.2254 13.6756 21.6559L13.1969 20.7779ZM19.2943 15.9688C19.2943 16.8838 18.7944 17.7257 17.9911 18.1637L18.4698 19.0417C19.5945 18.4284 20.2943 17.2498 20.2943 15.9688H19.2943ZM17.9911 8.83628C18.7944 9.27431 19.2943 10.1162 19.2943 11.0312H20.2943C20.2943 9.7502 19.5945 8.57156 18.4698 7.95831L17.9911 8.83628ZM13.6756 5.34414C12.6311 4.77463 11.3689 4.77463 10.3245 5.34414L10.8032 6.2221C11.5492 5.81531 12.4508 5.81531 13.1969 6.2221L13.6756 5.34414ZM12.4174 11.7661L12.5157 11.9425L13.3891 11.4556L13.2908 11.2792L12.4174 11.7661ZM13.4869 12.6762L13.6778 12.7194L13.8985 11.7441L13.7076 11.7009L13.4869 12.6762ZM13.936 13.6042L13.8059 13.7564L14.5659 14.4063L14.696 14.2541L13.936 13.6042ZM13.4419 14.9216L13.4616 15.1247L14.4569 15.0283L14.4372 14.8252L13.4419 14.9216ZM12.7865 15.6713L12.6077 15.589L12.1895 16.4974L12.3682 16.5797L12.7865 15.6713ZM11.3924 15.589L11.2136 15.6713L11.6319 16.5797L11.8106 16.4974L11.3924 15.589ZM10.5385 15.1247L10.5582 14.9217L9.56287 14.8252L9.54319 15.0283L10.5385 15.1247ZM10.1942 13.7564L10.0641 13.6042L9.30407 14.2541L9.43422 14.4063L10.1942 13.7564ZM10.3222 12.7194L10.5131 12.6762L10.2925 11.7009L10.1016 11.7441L10.3222 12.7194ZM11.4844 11.9425L11.5827 11.7661L10.7093 11.2792L10.611 11.4556L11.4844 11.9425ZM10.5131 12.6762C10.6799 12.6385 10.9134 12.5963 11.1038 12.4517L10.4992 11.6553C10.5179 11.6411 10.5285 11.641 10.4989 11.6504C10.4602 11.6625 10.4051 11.6754 10.2925 11.7009L10.5131 12.6762ZM10.611 11.4556C10.5532 11.5591 10.5235 11.6117 10.4993 11.6481C10.4797 11.6776 10.4812 11.6689 10.4992 11.6553L11.1038 12.4517C11.2911 12.3096 11.3982 12.0972 11.4844 11.9425L10.611 11.4556ZM10.0641 13.6042C9.8018 13.2975 9.64284 13.1096 9.55224 12.9657C9.46505 12.8272 9.51604 12.8444 9.49471 12.9129L8.53982 12.616C8.43071 12.9669 8.56358 13.2722 8.70597 13.4984C8.84495 13.7192 9.06328 13.9725 9.30407 14.2541L10.0641 13.6042ZM10.1016 11.7441C9.74959 11.8237 9.42729 11.8952 9.18746 11.9897C8.93822 12.0879 8.65062 12.2597 8.53982 12.616L9.49471 12.9129C9.47169 12.987 9.41246 12.9759 9.55411 12.9201C9.70518 12.8605 9.9363 12.8068 10.3222 12.7194L10.1016 11.7441ZM10.5582 14.9216C10.5758 14.7403 10.6073 14.5092 10.5382 14.287L9.58335 14.5839C9.57805 14.5669 9.58167 14.5626 9.58093 14.5995C9.58002 14.6447 9.57439 14.7063 9.56287 14.8252L10.5582 14.9216ZM9.43421 14.4063C9.51064 14.4957 9.5491 14.5412 9.57456 14.5762C9.59477 14.604 9.5888 14.6015 9.58335 14.5839L10.5382 14.287C10.4685 14.0627 10.3102 13.892 10.1942 13.7564L9.43421 14.4063ZM11.2136 15.6713C10.8522 15.8377 10.6347 15.9363 10.479 15.9809C10.3298 16.0237 10.3841 15.9732 10.4589 16.03L9.85426 16.8265C10.1588 17.0577 10.5008 17.0149 10.7545 16.9422C11.0017 16.8714 11.3024 16.7314 11.6319 16.5797L11.2136 15.6713ZM9.54319 15.0283C9.50672 15.4046 9.47285 15.7415 9.48452 16.0035C9.49623 16.2663 9.55785 16.6015 9.85426 16.8265L10.4589 16.03C10.5255 16.0805 10.4912 16.1322 10.4835 15.959C10.4758 15.785 10.4989 15.5332 10.5385 15.1247L9.54319 15.0283ZM12.6077 15.589C12.4533 15.5179 12.2394 15.4076 12 15.4076V16.4076C11.9738 16.4076 11.9639 16.4005 11.9937 16.4114C12.032 16.4253 12.084 16.4488 12.1895 16.4974L12.6077 15.589ZM11.8106 16.4974C11.9161 16.4488 11.9681 16.4253 12.0064 16.4114C12.0362 16.4005 12.0263 16.4076 12 16.4076V15.4076C11.7607 15.4076 11.5468 15.5179 11.3924 15.589L11.8106 16.4974ZM13.4616 15.1247C13.5011 15.5332 13.5243 15.785 13.5166 15.959C13.5088 16.1322 13.4746 16.0805 13.5412 16.03L14.1458 16.8265C14.4422 16.6015 14.5039 16.2663 14.5156 16.0035C14.5272 15.7415 14.4934 15.4046 14.4569 15.0283L13.4616 15.1247ZM12.3682 16.5797C12.6977 16.7314 12.9984 16.8714 13.2456 16.9422C13.4992 17.0149 13.8412 17.0577 14.1458 16.8265L13.5412 16.03C13.6159 15.9732 13.6703 16.0237 13.521 15.9809C13.3654 15.9363 13.1479 15.8377 12.7865 15.6713L12.3682 16.5797ZM13.8059 13.7564C13.6899 13.892 13.5316 14.0627 13.4618 14.287L14.4167 14.5839C14.4113 14.6015 14.4053 14.604 14.4255 14.5762C14.451 14.5412 14.4894 14.4957 14.5659 14.4063L13.8059 13.7564ZM14.4372 14.8252C14.4257 14.7063 14.4201 14.6447 14.4191 14.5995C14.4184 14.5626 14.422 14.5669 14.4167 14.5839L13.4618 14.287C13.3927 14.5092 13.4243 14.7403 13.4419 14.9216L14.4372 14.8252ZM13.6778 12.7194C14.0638 12.8068 14.2949 12.8605 14.446 12.9201C14.5876 12.9759 14.5284 12.987 14.5054 12.9129L15.4603 12.616C15.3495 12.2597 15.0619 12.0879 14.8126 11.9897C14.5728 11.8952 14.2505 11.8237 13.8985 11.7441L13.6778 12.7194ZM14.696 14.2541C14.9368 13.9725 15.1551 13.7192 15.2941 13.4984C15.4365 13.2723 15.5694 12.9669 15.4603 12.616L14.5054 12.9129C14.484 12.8444 14.535 12.8272 14.4478 12.9657C14.3572 13.1096 14.1983 13.2975 13.936 13.6042L14.696 14.2541ZM12.5157 11.9425C12.6019 12.0972 12.7089 12.3096 12.8962 12.4517L13.5009 11.6553C13.5188 11.6689 13.5204 11.6776 13.5007 11.6481C13.4766 11.6117 13.4468 11.5591 13.3891 11.4556L12.5157 11.9425ZM13.7076 11.7009C13.595 11.6754 13.5398 11.6625 13.5012 11.6504C13.4716 11.641 13.4822 11.6411 13.5009 11.6553L12.8962 12.4517C13.0867 12.5963 13.3202 12.6385 13.4869 12.6762L13.7076 11.7009ZM13.2908 11.2792C13.109 10.953 12.9461 10.6582 12.7881 10.4518C12.6298 10.2451 12.3818 10.0002 12 10.0002V11.0002C11.9023 11.0002 11.8914 10.9256 11.9941 11.0598C12.0971 11.1943 12.2192 11.4107 12.4174 11.7661L13.2908 11.2792ZM11.5827 11.7661C11.7809 11.4107 11.903 11.1943 12.006 11.0598C12.1087 10.9256 12.0978 11.0002 12 11.0002V10.0002C11.6182 10.0002 11.3703 10.2451 11.212 10.4518C11.054 10.6582 10.8911 10.953 10.7093 11.2792L11.5827 11.7661Z" fill="#424242"/>
</svg>
