<svg width="24" height="24" viewBox="0 0 24 24" fill="none" xmlns="http://www.w3.org/2000/svg">
<path d="M7.83332 15.1322C7.90633 14.8659 7.74963 14.5908 7.48332 14.5178C7.217 14.4448 6.94192 14.6015 6.86891 14.8678L7.83332 15.1322ZM6.71424 17.323L6.23204 17.1908L6.71424 17.323ZM17.2858 17.323L16.8036 17.4552L17.2858 17.323ZM17.1311 14.8678C17.0581 14.6015 16.783 14.4448 16.5167 14.5178C16.2504 14.5908 16.0937 14.8659 16.1667 15.1322L17.1311 14.8678ZM10.4393 20.658L10.6704 21.1014H10.6704L10.4393 20.658ZM11.8014 20.0959L11.8544 20.5931H11.8544L11.8014 20.0959ZM13.5607 20.658L13.7917 20.2145V20.2145L13.5607 20.658ZM12.1986 20.0959L12.1456 20.5931H12.1456L12.1986 20.0959ZM17.809 21.3881L18.2247 21.6659H18.2247L17.809 21.3881ZM17.2363 21.9008L17.4632 22.3464H17.4632L17.2363 21.9008ZM6.19097 21.3881L5.77526 21.6659H5.77526L6.19097 21.3881ZM6.76372 21.9008L6.53685 22.3464H6.53685L6.76372 21.9008ZM18.5 9C18.5 12.5899 15.5899 15.5 12 15.5V16.5C16.1421 16.5 19.5 13.1421 19.5 9H18.5ZM12 15.5C8.41015 15.5 5.5 12.5899 5.5 9H4.5C4.5 13.1421 7.85786 16.5 12 16.5V15.5ZM5.5 9C5.5 5.41015 8.41015 2.5 12 2.5V1.5C7.85786 1.5 4.5 4.85786 4.5 9H5.5ZM12 2.5C15.5899 2.5 18.5 5.41015 18.5 9H19.5C19.5 4.85786 16.1421 1.5 12 1.5V2.5ZM6.86891 14.8678L6.23204 17.1908L7.19645 17.4552L7.83332 15.1322L6.86891 14.8678ZM17.768 17.1908L17.1311 14.8678L16.1667 15.1322L16.8036 17.4552L17.768 17.1908ZM10.6704 21.1014C11.3767 20.7333 11.6145 20.6186 11.8544 20.5931L11.7484 19.5987C11.2758 19.6491 10.843 19.8838 10.2083 20.2145L10.6704 21.1014ZM13.7917 20.2145C13.157 19.8838 12.7242 19.6491 12.2516 19.5987L12.1456 20.5931C12.3855 20.6186 12.6233 20.7333 13.3296 21.1014L13.7917 20.2145ZM11.8544 20.5931C11.9512 20.5828 12.0488 20.5828 12.1456 20.5931L12.2516 19.5987C12.0843 19.5809 11.9157 19.5809 11.7484 19.5987L11.8544 20.5931ZM16.8036 17.4552C17.121 18.6129 17.3472 19.441 17.4466 20.059C17.5484 20.6927 17.4897 20.966 17.3933 21.1102L18.2247 21.6659C18.5476 21.1829 18.5414 20.5695 18.4339 19.9004C18.3239 19.2157 18.0789 18.3248 17.768 17.1908L16.8036 17.4552ZM13.3296 21.1014C14.3251 21.6201 15.1126 22.0314 15.7329 22.2656C16.3383 22.4941 16.9345 22.6156 17.4632 22.3464L17.0094 21.4553C16.8854 21.5184 16.6515 21.5435 16.0861 21.33C15.5355 21.1222 14.8115 20.7459 13.7917 20.2145L13.3296 21.1014ZM17.3933 21.1102C17.2924 21.2612 17.1595 21.3789 17.0094 21.4553L17.4632 22.3464C17.7705 22.1899 18.0318 21.9547 18.2247 21.6659L17.3933 21.1102ZM6.23204 17.1908C5.92111 18.3248 5.67613 19.2157 5.5661 19.9004C5.45857 20.5695 5.45245 21.1829 5.77526 21.6659L6.60668 21.1102C6.51025 20.966 6.45159 20.6927 6.55343 20.059C6.65275 19.441 6.87903 18.6129 7.19645 17.4552L6.23204 17.1908ZM10.2083 20.2145C9.18845 20.7459 8.46448 21.1222 7.91393 21.33C7.34847 21.5435 7.11459 21.5184 6.99059 21.4553L6.53685 22.3464C7.06548 22.6156 7.66174 22.4941 8.2671 22.2656C8.88736 22.0314 9.67489 21.6201 10.6704 21.1014L10.2083 20.2145ZM5.77526 21.6659C5.96824 21.9547 6.22949 22.1899 6.53685 22.3464L6.99059 21.4553C6.84051 21.3789 6.70756 21.2612 6.60668 21.1102L5.77526 21.6659Z" fill="#424242"/>
</svg>
