<svg width="24" height="24" viewBox="0 0 24 24" fill="none" xmlns="http://www.w3.org/2000/svg">
<path d="M8.92721 20.4728C9.45442 21 10.3029 21 12 21C13.6971 21 14.5456 21 15.0728 20.4728C15.6 19.9456 15.6 19.0971 15.6 17.4V17.4V15.6L17.4 15.6C19.0971 15.6 19.9456 15.6 20.4728 15.0728C21 14.5456 21 13.6971 21 12C21 10.3029 21 9.45442 20.4728 8.92721C19.9456 8.4 19.0971 8.4 17.4 8.4H15.6V6.6V6.59999C15.6 4.90294 15.6 4.05441 15.0728 3.52721C14.5456 3 13.6971 3 12 3C10.3029 3 9.45442 3 8.92721 3.52721C8.4 4.05442 8.4 4.90294 8.4 6.6V8.4H6.6C4.90294 8.4 4.05442 8.4 3.52721 8.92721C3 9.45441 3 10.3029 3 12C3 13.6971 3 14.5456 3.52721 15.0728C4.05441 15.6 4.90294 15.6 6.59999 15.6H6.6H8.4V17.4C8.4 19.0971 8.4 19.9456 8.92721 20.4728Z" stroke="#424242"/>
</svg>
