<svg width="24" height="24" viewBox="0 0 24 24" fill="none" xmlns="http://www.w3.org/2000/svg">
<path d="M2.7745 16.5537C2.52804 16.6783 2.4292 16.979 2.55374 17.2255C2.67828 17.472 2.97903 17.5708 3.2255 17.4463L2.7745 16.5537ZM5.58887 15.6918L5.81437 16.1381H5.81437L5.58887 15.6918ZM20.7745 17.4463C21.021 17.5708 21.3217 17.472 21.4463 17.2255C21.5708 16.979 21.472 16.6783 21.2255 16.5537L20.7745 17.4463ZM18.4111 15.6918L18.1856 16.1381V16.1381L18.4111 15.6918ZM12.9933 9.0825L13.0764 8.58945V8.58945L12.9933 9.0825ZM11.0067 9.0825L11.0897 9.57556V9.57556L11.0067 9.0825ZM9.9 16.3C10.0657 16.0791 10.0209 15.7657 9.8 15.6C9.57909 15.4343 9.26569 15.4791 9.1 15.7L9.9 16.3ZM8.45827 17.389L8.05827 17.089L8.05827 17.089L8.45827 17.389ZM7.25902 18.1852L7.38028 18.6703H7.38029L7.25902 18.1852ZM5.77423 18.5564L5.8955 19.0415V19.0415L5.77423 18.5564ZM10.8182 20.6364L11.1182 21.0364H11.1182L10.8182 20.6364ZM11 20.5L10.7 20.1H10.7L11 20.5ZM13.3 19.4C13.5209 19.2343 13.5657 18.9209 13.4 18.7C13.2343 18.4791 12.9209 18.4343 12.7 18.6L13.3 19.4ZM14.9 15.7C14.7343 15.4791 14.4209 15.4343 14.2 15.6C13.9791 15.7657 13.9343 16.0791 14.1 16.3L14.9 15.7ZM15.5417 17.389L15.1417 17.689L15.1417 17.689L15.5417 17.389ZM13.5397 21.4524L13.7152 20.9842V20.9842L13.5397 21.4524ZM15.2625 21.9583L15.3269 21.4625V21.4625L15.2625 21.9583ZM14.7688 21.8688L14.655 22.3557V22.3557L14.7688 21.8688ZM7.917 21.9658L7.97537 22.4624V22.4624L7.917 21.9658ZM9.84589 21.3229L9.59463 20.8906H9.59463L9.84589 21.3229ZM15.6054 17.4728L15.9976 17.1626L15.9976 17.1626L15.6054 17.4728ZM16.639 18.1591L16.7727 17.6773L16.7727 17.6773L16.639 18.1591ZM8.39456 17.4728L8.78668 17.783L8.78668 17.783L8.39456 17.4728ZM7.36102 18.1591L7.49476 18.6408H7.49476L7.36102 18.1591ZM14 4.5C14 5.60457 13.1046 6.5 12 6.5V7.5C13.6569 7.5 15 6.15685 15 4.5H14ZM12 6.5C10.8954 6.5 10 5.60457 10 4.5H9C9 6.15685 10.3431 7.5 12 7.5V6.5ZM10 4.5C10 3.39543 10.8954 2.5 12 2.5V1.5C10.3431 1.5 9 2.84315 9 4.5H10ZM12 2.5C13.1046 2.5 14 3.39543 14 4.5H15C15 2.84315 13.6569 1.5 12 1.5V2.5ZM3.2255 17.4463L5.81437 16.1381L5.36337 15.2456L2.7745 16.5537L3.2255 17.4463ZM21.2255 16.5537L18.6366 15.2456L18.1856 16.1381L20.7745 17.4463L21.2255 16.5537ZM18.5 15.0196C18.5 11.8362 16.1862 9.11325 13.0764 8.58945L12.9103 9.57556C15.5384 10.0182 17.5 12.3241 17.5 15.0196H18.5ZM18.6366 15.2456C18.5548 15.2042 18.5 15.1177 18.5 15.0196H17.5C17.5 15.4909 17.7635 15.9248 18.1856 16.1381L18.6366 15.2456ZM6.5 15.0196C6.5 12.3241 8.46161 10.0182 11.0897 9.57556L10.9236 8.58945C7.81379 9.11325 5.5 11.8362 5.5 15.0196H6.5ZM11.0897 9.57556C11.6878 9.47481 12.3122 9.47481 12.9103 9.57556L13.0764 8.58945C12.3683 8.47018 11.6317 8.47018 10.9236 8.58945L11.0897 9.57556ZM5.81437 16.1381C6.23649 15.9248 6.5 15.4909 6.5 15.0196H5.5C5.5 15.1177 5.44518 15.2042 5.36337 15.2456L5.81437 16.1381ZM9.1 15.7L8.05827 17.089L8.85827 17.689L9.9 16.3L9.1 15.7ZM7.13775 17.7002L5.65296 18.0714L5.8955 19.0415L7.38028 18.6703L7.13775 17.7002ZM5.17116 22.5H6.72727V21.5H5.17116V22.5ZM11.1182 21.0364L11.3 20.9L10.7 20.1L10.5182 20.2364L11.1182 21.0364ZM11.3 20.9L13.3 19.4L12.7 18.6L10.7 20.1L11.3 20.9ZM14.1 16.3L15.1417 17.689L15.9417 17.089L14.9 15.7L14.1 16.3ZM16.6197 18.6703L18.1045 19.0415L18.347 18.0714L16.8623 17.7002L16.6197 18.6703ZM18.8288 21.5H16.5596V22.5H18.8288V21.5ZM13.7152 20.9842L11.1756 20.0318L10.8244 20.9682L13.3641 21.9205L13.7152 20.9842ZM16.5596 21.5C15.8964 21.5 15.6083 21.4991 15.3269 21.4625L15.1981 22.4542C15.5582 22.5009 15.921 22.5 16.5596 22.5V21.5ZM13.3641 21.9205C13.9621 22.1448 14.3014 22.2731 14.655 22.3557L14.8826 21.3819C14.6063 21.3174 14.3362 21.2171 13.7152 20.9842L13.3641 21.9205ZM15.3269 21.4625C15.1776 21.4431 15.0293 21.4162 14.8826 21.3819L14.655 22.3557C14.8343 22.3976 15.0155 22.4304 15.1981 22.4542L15.3269 21.4625ZM19.5 20.8288C19.5 21.1995 19.1995 21.5 18.8288 21.5V22.5C19.7518 22.5 20.5 21.7518 20.5 20.8288H19.5ZM18.1045 19.0415C18.9246 19.2465 19.5 19.9834 19.5 20.8288H20.5C20.5 19.5246 19.6123 18.3877 18.347 18.0714L18.1045 19.0415ZM6.72727 22.5C7.3151 22.5 7.64874 22.5008 7.97537 22.4624L7.85863 21.4692C7.60359 21.4992 7.33797 21.5 6.72727 21.5V22.5ZM10.5182 20.2364C10.0296 20.6028 9.81665 20.7615 9.59463 20.8906L10.0971 21.7551C10.3815 21.5899 10.6479 21.389 11.1182 21.0364L10.5182 20.2364ZM7.97537 22.4624C8.7236 22.3745 9.44579 22.1337 10.0971 21.7551L9.59463 20.8906C9.06171 21.2003 8.47083 21.3973 7.85863 21.4692L7.97537 22.4624ZM3.5 20.8288C3.5 21.7518 4.24821 22.5 5.17116 22.5V21.5C4.80049 21.5 4.5 21.1995 4.5 20.8288H3.5ZM15.1417 17.689C15.1719 17.7292 15.1924 17.7566 15.2133 17.783L15.9976 17.1626C15.9865 17.1486 15.9749 17.1333 15.9417 17.089L15.1417 17.689ZM16.8623 17.7002C16.8084 17.6867 16.7899 17.6821 16.7727 17.6773L16.5052 18.6408C16.5378 18.6499 16.5708 18.6581 16.6197 18.6703L16.8623 17.7002ZM15.2133 17.783C15.5421 18.1987 15.9946 18.4991 16.5052 18.6408L16.7727 17.6773C16.4663 17.5922 16.1949 17.412 15.9976 17.1626L15.2133 17.783ZM5.65296 18.0714C4.38765 18.3877 3.5 19.5246 3.5 20.8288H4.5C4.5 19.9834 5.07535 19.2465 5.8955 19.0415L5.65296 18.0714ZM8.05827 17.089C8.02495 17.1334 8.01351 17.1486 8.00243 17.1626L8.78668 17.783C8.80762 17.7566 8.82799 17.7294 8.85827 17.689L8.05827 17.089ZM7.38029 18.6703C7.42922 18.6581 7.46225 18.6499 7.49476 18.6408L7.22728 17.6773C7.21007 17.6821 7.19161 17.6867 7.13775 17.7002L7.38029 18.6703ZM8.00243 17.1626C7.80513 17.412 7.53368 17.5922 7.22728 17.6773L7.49476 18.6408C8.00544 18.4991 8.45785 18.1987 8.78668 17.783L8.00243 17.1626Z" fill="#424242"/>
</svg>
