<svg width="24" height="24" viewBox="0 0 24 24" fill="none" xmlns="http://www.w3.org/2000/svg">
<path d="M22 2H22.5C22.5 1.72386 22.2761 1.5 22 1.5V2ZM21.5 7C21.5 7.27614 21.7239 7.5 22 7.5C22.2761 7.5 22.5 7.27614 22.5 7H21.5ZM17 1.5C16.7239 1.5 16.5 1.72386 16.5 2C16.5 2.27614 16.7239 2.5 17 2.5V1.5ZM17.5 14C17.5 18.1421 14.1421 21.5 10 21.5V22.5C14.6944 22.5 18.5 18.6944 18.5 14H17.5ZM10 21.5C5.85786 21.5 2.5 18.1421 2.5 14H1.5C1.5 18.6944 5.30558 22.5 10 22.5V21.5ZM2.5 14C2.5 9.85786 5.85786 6.5 10 6.5V5.5C5.30558 5.5 1.5 9.30558 1.5 14H2.5ZM10 6.5C14.1421 6.5 17.5 9.85786 17.5 14H18.5C18.5 9.30558 14.6944 5.5 10 5.5V6.5ZM15.8536 8.85355L22.3536 2.35355L21.6464 1.64645L15.1464 8.14645L15.8536 8.85355ZM21.5 2V7H22.5V2H21.5ZM17 2.5H22V1.5H17V2.5Z" fill="#424242"/>
</svg>
