<svg width="24" height="24" viewBox="0 0 24 24" fill="none" xmlns="http://www.w3.org/2000/svg">
<path d="M12.978 20.6009L13.4083 20.8556H13.4083L12.978 20.6009ZM13.4659 19.7766L13.0356 19.5219V19.5219L13.4659 19.7766ZM10.5341 19.7766L10.1038 20.0313H10.1038L10.5341 19.7766ZM11.022 20.6009L11.4523 20.3462V20.3462L11.022 20.6009ZM13.35 3.65198C13.6261 3.65198 13.85 3.42812 13.85 3.15198C13.85 2.87584 13.6261 2.65198 13.35 2.65198V3.65198ZM21.5 10.802C21.5 10.5258 21.2761 10.302 21 10.302C20.7239 10.302 20.5 10.5258 20.5 10.802H21.5ZM3.34254 15.6741L3.80448 15.4827H3.80448L3.34254 15.6741ZM8.21062 18.4443L8.20201 18.9442H8.20201L8.21062 18.4443ZM5.77792 18.1094L5.58658 18.5714H5.58658L5.77792 18.1094ZM20.6575 15.6741L21.1194 15.8654L21.1194 15.8654L20.6575 15.6741ZM15.7893 18.4443L15.798 18.9442V18.9442L15.7893 18.4443ZM18.2221 18.1094L18.4134 18.5714H18.4134L18.2221 18.1094ZM5.14876 3.8151L4.88751 3.38878V3.38878L5.14876 3.8151ZM3.66312 5.30073L3.2368 5.03948H3.2368L3.66312 5.30073ZM9.66251 18.6408L9.9139 18.2086L9.91389 18.2086L9.66251 18.6408ZM14.3375 18.6408L14.5888 19.073L14.5888 19.073L14.3375 18.6408ZM18.4535 3.24994C18.4535 2.9738 18.2296 2.74994 17.9535 2.74994C17.6774 2.74994 17.4535 2.9738 17.4535 3.24994H18.4535ZM17.4535 7.39998C17.4535 7.67612 17.6774 7.89998 17.9535 7.89998C18.2296 7.89998 18.4535 7.67612 18.4535 7.39998H17.4535ZM18.4535 9.64998C18.4535 9.37384 18.2296 9.14998 17.9535 9.14998C17.6774 9.14998 17.4535 9.37384 17.4535 9.64998H18.4535ZM17.4535 10.1C17.4535 10.3761 17.6774 10.6 17.9535 10.6C18.2296 10.6 18.4535 10.3761 18.4535 10.1H17.4535ZM13.4083 20.8556L13.8962 20.0313L13.0356 19.5219L12.5477 20.3462L13.4083 20.8556ZM10.1038 20.0313L10.5917 20.8556L11.4523 20.3462L10.9644 19.5219L10.1038 20.0313ZM12.5477 20.3462C12.3065 20.7538 11.6935 20.7538 11.4523 20.3462L10.5917 20.8556C11.2202 21.9173 12.7798 21.9173 13.4083 20.8556L12.5477 20.3462ZM10.65 3.65198H13.35V2.65198H10.65V3.65198ZM20.5 10.802V11.702H21.5V10.802H20.5ZM3.5 11.702V10.802H2.5V11.702H3.5ZM2.5 11.702C2.5 12.7435 2.49973 13.5497 2.54398 14.1982C2.58853 14.8512 2.67989 15.3808 2.8806 15.8654L3.80448 15.4827C3.66265 15.1403 3.58274 14.7322 3.54166 14.1301C3.50027 13.5236 3.5 12.7572 3.5 11.702H2.5ZM8.21924 17.9444C7.08936 17.9249 6.4671 17.8537 5.96927 17.6475L5.58658 18.5714C6.2773 18.8575 7.07224 18.9247 8.20201 18.9442L8.21924 17.9444ZM2.8806 15.8654C3.38807 17.0905 4.36144 18.0639 5.58658 18.5714L5.96927 17.6475C4.98915 17.2415 4.21046 16.4628 3.80448 15.4827L2.8806 15.8654ZM20.5 11.702C20.5 12.7572 20.4997 13.5236 20.4583 14.1301C20.4173 14.7322 20.3373 15.1403 20.1955 15.4827L21.1194 15.8654C21.3201 15.3808 21.4115 14.8512 21.456 14.1982C21.5003 13.5497 21.5 12.7435 21.5 11.702H20.5ZM15.798 18.9442C16.9277 18.9247 17.7227 18.8575 18.4134 18.5714L18.0307 17.6475C17.5329 17.8537 16.9106 17.9249 15.7807 17.9444L15.798 18.9442ZM20.1955 15.4827C19.7895 16.4628 19.0108 17.2415 18.0307 17.6475L18.4134 18.5714C19.6386 18.0639 20.6119 17.0905 21.1194 15.8654L20.1955 15.4827ZM10.65 2.65198C9.18664 2.65198 8.05401 2.65145 7.15306 2.73711C6.24468 2.82348 5.52033 3.00098 4.88751 3.38878L5.41001 4.24142C5.8593 3.96609 6.41253 3.81203 7.24771 3.73262C8.09034 3.65251 9.16727 3.65198 10.65 3.65198V2.65198ZM3.5 10.802C3.5 9.31925 3.50053 8.24232 3.58065 7.39969C3.66006 6.56451 3.81411 6.01127 4.08944 5.56198L3.2368 5.03948C2.84901 5.67231 2.6715 6.39665 2.58513 7.30504C2.49947 8.20598 2.5 9.33861 2.5 10.802H3.5ZM4.88751 3.38878C4.21473 3.80106 3.64908 4.36671 3.2368 5.03948L4.08944 5.56198C4.41926 5.02376 4.87178 4.57124 5.41001 4.24142L4.88751 3.38878ZM10.9644 19.5219C10.78 19.2104 10.6243 18.9465 10.4744 18.7408C10.3184 18.5266 10.1468 18.3441 9.9139 18.2086L9.41113 19.073C9.48213 19.1143 9.55716 19.18 9.66629 19.3298C9.78158 19.4879 9.90979 19.7035 10.1038 20.0313L10.9644 19.5219ZM8.20201 18.9442C8.59394 18.951 8.85375 18.9559 9.05455 18.9782C9.24608 18.9994 9.34178 19.0327 9.41113 19.073L9.91389 18.2086C9.67932 18.0722 9.43172 18.0138 9.16461 17.9843C8.90676 17.9557 8.5926 17.9508 8.21923 17.9444L8.20201 18.9442ZM13.8962 20.0313C14.0902 19.7035 14.2184 19.4879 14.3337 19.3298C14.4428 19.18 14.5178 19.1143 14.5888 19.073L14.0861 18.2086C13.8531 18.3441 13.6816 18.5266 13.5255 18.7408C13.3756 18.9465 13.22 19.2104 13.0356 19.5219L13.8962 20.0313ZM15.7807 17.9444C15.4074 17.9508 15.0932 17.9557 14.8354 17.9843C14.5682 18.0138 14.3206 18.0722 14.0861 18.2086L14.5888 19.073C14.6582 19.0327 14.7539 18.9994 14.9454 18.9782C15.1462 18.9559 15.406 18.951 15.798 18.9442L15.7807 17.9444ZM17.4535 3.24994V7.39998H18.4535V3.24994H17.4535ZM17.4535 9.64998V10.1H18.4535V9.64998H17.4535Z" fill="#424242"/>
</svg>
