<svg width="24" height="24" viewBox="0 0 24 24" fill="none" xmlns="http://www.w3.org/2000/svg">
<path d="M12.978 20.6009L13.4083 20.8556V20.8556L12.978 20.6009ZM13.4659 19.7766L13.0356 19.522V19.522L13.4659 19.7766ZM10.5341 19.7766L10.1038 20.0313L10.1038 20.0313L10.5341 19.7766ZM11.022 20.6009L11.4523 20.3462V20.3462L11.022 20.6009ZM13.35 3.652C13.6261 3.652 13.85 3.42814 13.85 3.152C13.85 2.87586 13.6261 2.652 13.35 2.652V3.652ZM21.5 10.802C21.5 10.5259 21.2761 10.302 21 10.302C20.7239 10.302 20.5 10.5259 20.5 10.802H21.5ZM3.34254 15.6741L3.80448 15.4827H3.80448L3.34254 15.6741ZM8.21062 18.4443L8.20201 18.9442H8.20201L8.21062 18.4443ZM5.77792 18.1095L5.58658 18.5714H5.58658L5.77792 18.1095ZM20.6575 15.6741L21.1194 15.8654L21.1194 15.8654L20.6575 15.6741ZM15.7893 18.4443L15.798 18.9442V18.9442L15.7893 18.4443ZM18.2221 18.1095L18.4134 18.5714H18.4134L18.2221 18.1095ZM5.14876 3.81512L4.88751 3.3888L4.88751 3.3888L5.14876 3.81512ZM3.66312 5.30076L3.2368 5.03951L3.66312 5.30076ZM9.66251 18.6409L9.9139 18.2086L9.91389 18.2086L9.66251 18.6409ZM14.3375 18.6409L14.5888 19.0731H14.5888L14.3375 18.6409ZM18.8115 5.14089L18.5569 4.71056V4.71056L18.8115 5.14089ZM15.766 3.6875C15.766 3.96364 15.9899 4.1875 16.266 4.1875C16.5421 4.1875 16.766 3.96364 16.766 3.6875H15.766ZM17.4535 7.4C17.4535 7.67614 17.6774 7.9 17.9535 7.9C18.2296 7.9 18.4535 7.67614 18.4535 7.4H17.4535ZM18.4535 9.65C18.4535 9.37386 18.2296 9.15 17.9535 9.15C17.6774 9.15 17.4535 9.37386 17.4535 9.65H18.4535ZM17.4535 10.1C17.4535 10.3761 17.6774 10.6 17.9535 10.6C18.2296 10.6 18.4535 10.3761 18.4535 10.1H17.4535ZM13.4083 20.8556L13.8962 20.0313L13.0356 19.522L12.5477 20.3462L13.4083 20.8556ZM10.1038 20.0313L10.5917 20.8556L11.4523 20.3462L10.9644 19.522L10.1038 20.0313ZM12.5477 20.3462C12.3065 20.7538 11.6935 20.7538 11.4523 20.3462L10.5917 20.8556C11.2202 21.9174 12.7798 21.9174 13.4083 20.8556L12.5477 20.3462ZM10.65 3.652H13.35V2.652H10.65V3.652ZM20.5 10.802V11.702H21.5V10.802H20.5ZM3.5 11.702V10.802H2.5V11.702H3.5ZM2.5 11.702C2.5 12.7435 2.49973 13.5497 2.54398 14.1982C2.58853 14.8512 2.67989 15.3809 2.8806 15.8654L3.80448 15.4827C3.66265 15.1403 3.58274 14.7323 3.54166 14.1302C3.50027 13.5236 3.5 12.7572 3.5 11.702H2.5ZM8.21924 17.9444C7.08936 17.9249 6.4671 17.8537 5.96927 17.6475L5.58658 18.5714C6.2773 18.8575 7.07224 18.9248 8.20201 18.9442L8.21924 17.9444ZM2.8806 15.8654C3.38807 17.0906 4.36144 18.0639 5.58658 18.5714L5.96927 17.6475C4.98915 17.2415 4.21046 16.4628 3.80448 15.4827L2.8806 15.8654ZM20.5 11.702C20.5 12.7572 20.4997 13.5236 20.4583 14.1302C20.4173 14.7323 20.3373 15.1403 20.1955 15.4827L21.1194 15.8654C21.3201 15.3809 21.4115 14.8512 21.456 14.1982C21.5003 13.5497 21.5 12.7435 21.5 11.702H20.5ZM15.798 18.9442C16.9277 18.9248 17.7227 18.8575 18.4134 18.5714L18.0307 17.6475C17.5329 17.8537 16.9106 17.9249 15.7807 17.9444L15.798 18.9442ZM20.1955 15.4827C19.7895 16.4628 19.0108 17.2415 18.0307 17.6475L18.4134 18.5714C19.6386 18.0639 20.6119 17.0906 21.1194 15.8654L20.1955 15.4827ZM10.65 2.652C9.18664 2.652 8.05401 2.65147 7.15306 2.73713C6.24468 2.8235 5.52033 3.00101 4.88751 3.3888L5.41001 4.24144C5.8593 3.96611 6.41253 3.81206 7.24771 3.73265C8.09034 3.65253 9.16727 3.652 10.65 3.652V2.652ZM3.5 10.802C3.5 9.31927 3.50053 8.24234 3.58065 7.39971C3.66006 6.56453 3.81411 6.0113 4.08944 5.56201L3.2368 5.03951C2.84901 5.67233 2.6715 6.39668 2.58513 7.30506C2.49947 8.206 2.5 9.33864 2.5 10.802H3.5ZM4.88751 3.3888C4.21473 3.80108 3.64908 4.36673 3.2368 5.03951L4.08944 5.56201C4.41926 5.02378 4.87178 4.57126 5.41001 4.24144L4.88751 3.3888ZM10.9644 19.522C10.78 19.2104 10.6243 18.9465 10.4744 18.7408C10.3184 18.5267 10.1468 18.3441 9.9139 18.2086L9.41113 19.0731C9.48213 19.1144 9.55716 19.18 9.66629 19.3298C9.78158 19.488 9.90979 19.7035 10.1038 20.0313L10.9644 19.522ZM8.20201 18.9442C8.59394 18.951 8.85375 18.956 9.05455 18.9782C9.24608 18.9994 9.34178 19.0327 9.41113 19.0731L9.91389 18.2086C9.67932 18.0722 9.43172 18.0139 9.16461 17.9843C8.90676 17.9557 8.5926 17.9508 8.21924 17.9444L8.20201 18.9442ZM13.8962 20.0313C14.0902 19.7035 14.2184 19.488 14.3337 19.3298C14.4428 19.18 14.5178 19.1144 14.5888 19.0731L14.0861 18.2086C13.8531 18.3441 13.6816 18.5267 13.5255 18.7408C13.3756 18.9465 13.22 19.2104 13.0356 19.522L13.8962 20.0313ZM15.7807 17.9444C15.4074 17.9508 15.0932 17.9557 14.8354 17.9843C14.5682 18.0139 14.3206 18.0722 14.0861 18.2086L14.5888 19.0731C14.6582 19.0327 14.7539 18.9994 14.9454 18.9782C15.1462 18.956 15.406 18.951 15.798 18.9442L15.7807 17.9444ZM19.141 3.6875C19.141 4.12227 18.9076 4.50307 18.5569 4.71056L19.0661 5.57122C19.7084 5.1912 20.141 4.49013 20.141 3.6875H19.141ZM16.766 3.6875C16.766 3.03166 17.2977 2.5 17.9535 2.5V1.5C16.7454 1.5 15.766 2.47938 15.766 3.6875H16.766ZM17.9535 2.5C18.6093 2.5 19.141 3.03166 19.141 3.6875H20.141C20.141 2.47938 19.1616 1.5 17.9535 1.5V2.5ZM17.4535 6.275V7.4H18.4535V6.275H17.4535ZM18.5569 4.71056C18.3158 4.85325 18.0506 5.04575 17.8409 5.29294C17.629 5.54256 17.4535 5.87331 17.4535 6.275H18.4535C18.4535 6.17964 18.4931 6.06988 18.6033 5.93998C18.7156 5.80765 18.8795 5.68163 19.0661 5.57122L18.5569 4.71056ZM17.4535 9.65V10.1H18.4535V9.65H17.4535Z" fill="#424242"/>
</svg>
