<svg width="24" height="24" viewBox="0 0 24 24" fill="none" xmlns="http://www.w3.org/2000/svg">
<path d="M17.5 11C17.5 10.7239 17.2761 10.5 17 10.5C16.7239 10.5 16.5 10.7239 16.5 11H17.5ZM12 15.5C11.7239 15.5 11.5 15.7239 11.5 16C11.5 16.2761 11.7239 16.5 12 16.5V15.5ZM20.5 10C20.5 9.72386 20.2761 9.5 20 9.5C19.7239 9.5 19.5 9.72386 19.5 10H20.5ZM4.5 10C4.5 9.72386 4.27614 9.5 4 9.5C3.72386 9.5 3.5 9.72386 3.5 10H4.5ZM11.5 22C11.5 22.2761 11.7239 22.5 12 22.5C12.2761 22.5 12.5 22.2761 12.5 22H11.5ZM9.51875 18.08C9.25814 17.9887 8.97285 18.1259 8.88152 18.3865C8.7902 18.6471 8.92742 18.9324 9.18803 19.0237L9.51875 18.08ZM8.69918 15.3997C8.91995 15.5656 9.23339 15.5211 9.39926 15.3003C9.56513 15.0796 9.52062 14.7661 9.29985 14.6003L8.69918 15.3997ZM13 7.5C12.7239 7.5 12.5 7.72386 12.5 8C12.5 8.27614 12.7239 8.5 13 8.5V7.5ZM16 8.5C16.2761 8.5 16.5 8.27614 16.5 8C16.5 7.72386 16.2761 7.5 16 7.5V8.5ZM16.3782 6.95531C16.4421 7.22397 16.7116 7.39001 16.9803 7.32617C17.2489 7.26233 17.415 6.99278 17.3511 6.72412L16.3782 6.95531ZM6.37748 17.3749C6.58452 17.5576 6.90049 17.5379 7.08322 17.3309C7.26595 17.1238 7.24625 16.8079 7.03922 16.6251L6.37748 17.3749ZM22.3536 2.35355C22.5488 2.15829 22.5488 1.84171 22.3536 1.64645C22.1583 1.45118 21.8417 1.45118 21.6464 1.64645L22.3536 2.35355ZM1.64645 21.6464C1.45118 21.8417 1.45118 22.1583 1.64645 22.3536C1.84171 22.5488 2.15829 22.5488 2.35355 22.3536L1.64645 21.6464ZM7.5 11V8H6.5V11H7.5ZM16.5 11C16.5 13.4853 14.4853 15.5 12 15.5V16.5C15.0376 16.5 17.5 14.0376 17.5 11H16.5ZM12 2.5C8.96243 2.5 6.5 4.96243 6.5 8H7.5C7.5 5.51472 9.51472 3.5 12 3.5V2.5ZM19.5 10V11H20.5V10H19.5ZM4.5 11V10H3.5V11H4.5ZM19.5 11C19.5 15.1421 16.1421 18.5 12 18.5V19.5C16.6944 19.5 20.5 15.6944 20.5 11H19.5ZM11.5 19V22H12.5V19H11.5ZM12 18.5C11.1295 18.5 10.2947 18.3519 9.51875 18.08L9.18803 19.0237C10.0688 19.3324 11.0154 19.5 12 19.5V18.5ZM9.29985 14.6003C8.20597 13.7784 7.5 12.4717 7.5 11H6.5C6.5 12.7995 7.36472 14.3971 8.69918 15.3997L9.29985 14.6003ZM13 8.5H16V7.5H13V8.5ZM12 3.5C14.1251 3.5 15.9073 4.9736 16.3782 6.95531L17.3511 6.72412C16.7756 4.30201 14.5988 2.5 12 2.5V3.5ZM7.03922 16.6251C5.48135 15.2501 4.5 13.24 4.5 11H3.5C3.5 13.5388 4.61367 15.8181 6.37748 17.3749L7.03922 16.6251ZM21.6464 1.64645L1.64645 21.6464L2.35355 22.3536L22.3536 2.35355L21.6464 1.64645Z" fill="#424242"/>
</svg>
