<svg width="24" height="24" viewBox="0 0 24 24" fill="none" xmlns="http://www.w3.org/2000/svg">
<path d="M13 7.5C12.7239 7.5 12.5 7.72386 12.5 8C12.5 8.27614 12.7239 8.5 13 8.5V7.5ZM13 10.5C12.7239 10.5 12.5 10.7239 12.5 11C12.5 11.2761 12.7239 11.5 13 11.5V10.5ZM20.5 10C20.5 9.72386 20.2761 9.5 20 9.5C19.7239 9.5 19.5 9.72386 19.5 10H20.5ZM4.5 10C4.5 9.72386 4.27614 9.5 4 9.5C3.72386 9.5 3.5 9.72386 3.5 10H4.5ZM11.5 22C11.5 22.2761 11.7239 22.5 12 22.5C12.2761 22.5 12.5 22.2761 12.5 22H11.5ZM16.5 8V11H17.5V8H16.5ZM7.5 11V8H6.5V11H7.5ZM12 15.5C9.51472 15.5 7.5 13.4853 7.5 11H6.5C6.5 14.0376 8.96243 16.5 12 16.5V15.5ZM16.5 11C16.5 13.4853 14.4853 15.5 12 15.5V16.5C15.0376 16.5 17.5 14.0376 17.5 11H16.5ZM12 3.5C14.4853 3.5 16.5 5.51472 16.5 8H17.5C17.5 4.96243 15.0376 2.5 12 2.5V3.5ZM12 2.5C8.96243 2.5 6.5 4.96243 6.5 8H7.5C7.5 5.51472 9.51472 3.5 12 3.5V2.5ZM13 8.5H17V7.5H13V8.5ZM13 11.5L17 11.5V10.5L13 10.5V11.5ZM19.5 10V11H20.5V10H19.5ZM4.5 11V10H3.5V11H4.5ZM12 18.5C7.85786 18.5 4.5 15.1421 4.5 11H3.5C3.5 15.6944 7.30558 19.5 12 19.5V18.5ZM19.5 11C19.5 15.1421 16.1421 18.5 12 18.5V19.5C16.6944 19.5 20.5 15.6944 20.5 11H19.5ZM11.5 19V22H12.5V19H11.5Z" fill="#424242"/>
</svg>
