<svg width="24" height="24" viewBox="0 0 24 24" fill="none" xmlns="http://www.w3.org/2000/svg">
<path d="M13.5 7.5C13.2239 7.5 13 7.72386 13 8C13 8.27614 13.2239 8.5 13.5 8.5V7.5ZM16.5 8L16.8536 8.35355C16.9966 8.21055 17.0393 7.9955 16.9619 7.80866C16.8845 7.62182 16.7022 7.5 16.5 7.5V8ZM13.5 11L13.1464 10.6464C13.0034 10.7894 12.9607 11.0045 13.0381 11.1913C13.1155 11.3782 13.2978 11.5 13.5 11.5V11ZM16.5 11.5C16.7761 11.5 17 11.2761 17 11C17 10.7239 16.7761 10.5 16.5 10.5V11.5ZM18 1.5C17.7239 1.5 17.5 1.72386 17.5 2C17.5 2.27614 17.7239 2.5 18 2.5V1.5ZM22 2L22.3536 2.35355C22.4966 2.21055 22.5393 1.9955 22.4619 1.80866C22.3846 1.62182 22.2022 1.5 22 1.5V2ZM18 6L17.6464 5.64645C17.5034 5.78945 17.4607 6.0045 17.5381 6.19134C17.6155 6.37818 17.7978 6.5 18 6.5V6ZM22 6.5C22.2761 6.5 22.5 6.27614 22.5 6C22.5 5.72386 22.2761 5.5 22 5.5V6.5ZM21.0672 11.8568L20.6393 11.5983V11.5983L21.0672 11.8568ZM12.1432 2.93276L11.8846 2.50482V2.50482L12.1432 2.93276ZM13.5 8.5H16.5V7.5H13.5V8.5ZM16.1464 7.64645L13.1464 10.6464L13.8536 11.3536L16.8536 8.35355L16.1464 7.64645ZM13.5 11.5H16.5V10.5H13.5V11.5ZM18 2.5H22V1.5H18V2.5ZM21.6464 1.64645L17.6464 5.64645L18.3536 6.35355L22.3536 2.35355L21.6464 1.64645ZM18 6.5H22V5.5H18V6.5ZM21.5 12C21.5 17.2467 17.2467 21.5 12 21.5V22.5C17.799 22.5 22.5 17.799 22.5 12H21.5ZM12 21.5C6.75329 21.5 2.5 17.2467 2.5 12H1.5C1.5 17.799 6.20101 22.5 12 22.5V21.5ZM2.5 12C2.5 6.75329 6.75329 2.5 12 2.5V1.5C6.20101 1.5 1.5 6.20101 1.5 12H2.5ZM15.5 14.5C12.1863 14.5 9.5 11.8137 9.5 8.5H8.5C8.5 12.366 11.634 15.5 15.5 15.5V14.5ZM20.6393 11.5983C19.5878 13.3384 17.6793 14.5 15.5 14.5V15.5C18.0438 15.5 20.2701 14.1428 21.4952 12.1154L20.6393 11.5983ZM9.5 8.5C9.5 6.3207 10.6616 4.41222 12.4017 3.3607L11.8846 2.50482C9.85719 3.72988 8.5 5.95621 8.5 8.5H9.5ZM12 2.5C11.9942 2.5 11.979 2.49865 11.9592 2.49025C11.9397 2.48192 11.9238 2.47011 11.9127 2.45849C11.8922 2.43713 11.8958 2.42663 11.8981 2.44357C11.9002 2.4593 11.8978 2.4785 11.8917 2.49304C11.8891 2.4993 11.8866 2.50259 11.8857 2.50378C11.8849 2.50468 11.8847 2.50471 11.8846 2.50482L12.4017 3.3607C12.8032 3.11814 12.9377 2.66929 12.8891 2.30973C12.839 1.93863 12.5549 1.5 12 1.5V2.5ZM21.4952 12.1154C21.4953 12.1153 21.4953 12.1151 21.4962 12.1143C21.4974 12.1134 21.5007 12.1109 21.507 12.1083C21.5215 12.1022 21.5407 12.0998 21.5564 12.1019C21.5734 12.1042 21.5629 12.1078 21.5415 12.0873C21.5299 12.0762 21.5181 12.0603 21.5098 12.0408C21.5013 12.021 21.5 12.0058 21.5 12H22.5C22.5 11.4451 22.0614 11.161 21.6903 11.1109C21.3307 11.0623 20.8819 11.1968 20.6393 11.5983L21.4952 12.1154Z" fill="#424242"/>
</svg>
