<svg width="24" height="24" viewBox="0 0 24 24" fill="none" xmlns="http://www.w3.org/2000/svg">
<path d="M10.4497 3.44975L10.0962 3.8033V3.8033L10.4497 3.44975ZM11 4L11.3536 3.64645V3.64645L11 4ZM12.7121 5.49543L12.9552 5.0585L12.9552 5.0585L12.7121 5.49543ZM13.5604 5.84678L13.4233 6.32762V6.32762L13.5604 5.84678ZM7.71557 2.01738L7.76212 1.51955V1.51955L7.71557 2.01738ZM9.89594 2.92051L9.57684 3.30545L9.57684 3.30545L9.89594 2.92051ZM3.17157 20.8284L3.52513 20.4749H3.52513L3.17157 20.8284ZM21.2305 6.99383L20.8588 7.32819V7.32819L21.2305 6.99383ZM21.0062 6.76946L21.3405 6.39771L21.3405 6.39771L21.0062 6.76946ZM2.06935 5.25839L2.56068 5.35109V5.35109L2.06935 5.25839ZM5.25839 2.06935L5.35109 2.56068V2.56068L5.25839 2.06935ZM1.5 12C1.5 12.2761 1.72386 12.5 2 12.5C2.27614 12.5 2.5 12.2761 2.5 12H1.5ZM2 14.5C1.72386 14.5 1.5 14.7239 1.5 15C1.5 15.2761 1.72386 15.5 2 15.5V14.5ZM13 15L13.2941 15.4044C13.4235 15.3103 13.5 15.16 13.5 15C13.5 14.84 13.4235 14.6897 13.2941 14.5956L13 15ZM9.16909 11.5956C8.94576 11.4332 8.63305 11.4826 8.47063 11.7059C8.30821 11.9292 8.35759 12.2419 8.58091 12.4044L9.16909 11.5956ZM8.58091 17.5956C8.35759 17.7581 8.30821 18.0708 8.47063 18.2941C8.63305 18.5174 8.94576 18.5668 9.16909 18.4044L8.58091 17.5956ZM21.5 11.7979V14H22.5V11.7979H21.5ZM14 21.5H10V22.5H14V21.5ZM10.0962 3.8033L10.6464 4.35355L11.3536 3.64645L10.8033 3.09619L10.0962 3.8033ZM15.8284 6.5H16.2021V5.5H15.8284V6.5ZM10.6464 4.35355C11.4423 5.14938 11.9053 5.61873 12.469 5.93235L12.9552 5.0585C12.542 4.82861 12.1893 4.48218 11.3536 3.64645L10.6464 4.35355ZM15.8284 5.5C14.6465 5.5 14.1521 5.49555 13.6974 5.36593L13.4233 6.32762C14.0437 6.50445 14.703 6.5 15.8284 6.5V5.5ZM12.469 5.93235C12.7709 6.1003 13.0911 6.23293 13.4233 6.32762L13.6974 5.36593C13.439 5.29228 13.19 5.18912 12.9552 5.0585L12.469 5.93235ZM6.94975 2.5C7.34572 2.5 7.51184 2.50051 7.66902 2.5152L7.76212 1.51955C7.54769 1.49949 7.32713 1.5 6.94975 1.5V2.5ZM10.8033 3.09619C10.5365 2.82934 10.3809 2.67303 10.215 2.53558L9.57684 3.30545C9.69838 3.4062 9.8162 3.52331 10.0962 3.8033L10.8033 3.09619ZM7.66902 2.5152C8.36996 2.58075 9.03485 2.85616 9.57684 3.30545L10.215 2.53558C9.5182 1.95791 8.66334 1.60382 7.76212 1.51955L7.66902 2.5152ZM10 21.5C8.10025 21.5 6.72573 21.4989 5.67754 21.358C4.64373 21.219 4.00253 20.9523 3.52513 20.4749L2.81802 21.182C3.51219 21.8762 4.39959 22.1952 5.54429 22.3491C6.6746 22.5011 8.12852 22.5 10 22.5V21.5ZM21.5 14C21.5 15.8998 21.4989 17.2743 21.358 18.3225C21.219 19.3563 20.9523 19.9975 20.4749 20.4749L21.182 21.182C21.8762 20.4878 22.1952 19.6004 22.3491 18.4557C22.5011 17.3254 22.5 15.8715 22.5 14H21.5ZM14 22.5C15.8715 22.5 17.3254 22.5011 18.4557 22.3491C19.6004 22.1952 20.4878 21.8762 21.182 21.182L20.4749 20.4749C19.9975 20.9523 19.3563 21.219 18.3225 21.358C17.2743 21.4989 15.8998 21.5 14 21.5V22.5ZM22.5 11.7979C22.5 10.4948 22.5009 9.47065 22.3999 8.66718C22.2973 7.85122 22.0827 7.19362 21.6023 6.65947L20.8588 7.32819C21.1478 7.64956 21.3179 8.07781 21.4077 8.79192C21.4991 9.51852 21.5 10.4686 21.5 11.7979H22.5ZM16.2021 6.5C17.5314 6.5 18.4815 6.50093 19.2081 6.59228C19.9222 6.68206 20.3504 6.85218 20.6718 7.14122L21.3405 6.39771C20.8064 5.91729 20.1488 5.70267 19.3328 5.60009C18.5294 5.49907 17.5052 5.5 16.2021 5.5V6.5ZM21.6023 6.65947C21.5197 6.56766 21.4323 6.48028 21.3405 6.39771L20.6718 7.14122C20.7374 7.2002 20.7998 7.26262 20.8588 7.32819L21.6023 6.65947ZM2.5 6.94975C2.5 6.04448 2.50219 5.66112 2.56068 5.35109L1.57802 5.16568C1.49781 5.59078 1.5 6.08996 1.5 6.94975H2.5ZM6.94975 1.5C6.08996 1.5 5.59078 1.49781 5.16568 1.57802L5.35109 2.56068C5.66112 2.50219 6.04448 2.5 6.94975 2.5V1.5ZM2.56068 5.35109C2.82781 3.93527 3.93527 2.82781 5.35109 2.56068L5.16568 1.57802C3.34535 1.92147 1.92147 3.34535 1.57802 5.16568L2.56068 5.35109ZM2.5 12V6.94975H1.5V12H2.5ZM1.60389 18.0489C1.73609 19.3929 2.04368 20.4076 2.81802 21.182L3.52513 20.4749C2.9931 19.9428 2.72266 19.2073 2.59909 17.9511L1.60389 18.0489ZM2 15.5H13V14.5H2V15.5ZM13.2941 14.5956L9.16909 11.5956L8.58091 12.4044L12.7059 15.4044L13.2941 14.5956ZM12.7059 14.5956L8.58091 17.5956L9.16909 18.4044L13.2941 15.4044L12.7059 14.5956Z" fill="#424242"/>
</svg>
