<svg width="24" height="24" viewBox="0 0 24 24" fill="none" xmlns="http://www.w3.org/2000/svg">
<path d="M11.7351 5.08848L11.577 4.61414V4.61414L11.7351 5.08848ZM15.7351 3.75515L15.577 3.28081V3.28081L15.7351 3.75515ZM21 8.00018L21.1581 8.47452L21.5 8.36056V8.00018H21ZM9 12.0002H8.5V12.6939L9.15811 12.4745L9 12.0002ZM20.1694 3.15255L19.8771 3.55817V3.55817L20.1694 3.15255ZM9.37752 6.27228L9.78314 6.56463V6.56463L9.37752 6.27228ZM8.5 19C8.5 20.3807 7.38071 21.5 6 21.5V22.5C7.933 22.5 9.5 20.933 9.5 19H8.5ZM6 21.5C4.61929 21.5 3.5 20.3807 3.5 19H2.5C2.5 20.933 4.067 22.5 6 22.5V21.5ZM3.5 19C3.5 17.6193 4.61929 16.5 6 16.5V15.5C4.067 15.5 2.5 17.067 2.5 19H3.5ZM6 16.5C7.38071 16.5 8.5 17.6193 8.5 19H9.5C9.5 17.067 7.933 15.5 6 15.5V16.5ZM20.5 17C20.5 18.3807 19.3807 19.5 18 19.5V20.5C19.933 20.5 21.5 18.933 21.5 17H20.5ZM18 19.5C16.6193 19.5 15.5 18.3807 15.5 17H14.5C14.5 18.933 16.067 20.5 18 20.5V19.5ZM15.5 17C15.5 15.6193 16.6193 14.5 18 14.5V13.5C16.067 13.5 14.5 15.067 14.5 17H15.5ZM18 14.5C19.3807 14.5 20.5 15.6193 20.5 17H21.5C21.5 15.067 19.933 13.5 18 13.5V14.5ZM9.5 19V8H8.5V19H9.5ZM21.5 17V6H20.5V17H21.5ZM11.8932 5.56282L15.8932 4.22949L15.577 3.28081L11.577 4.61414L11.8932 5.56282ZM20.5 7.54988V8.00018H21.5V7.54988H20.5ZM9.5 12.0002V8.88321H8.5V12.0002H9.5ZM20.8419 7.52584L8.84189 11.5258L9.15811 12.4745L21.1581 8.47452L20.8419 7.52584ZM15.8932 4.22949C17.1098 3.82396 17.9695 3.53874 18.6293 3.42131C19.2776 3.30593 19.6219 3.37423 19.8771 3.55817L20.4618 2.74692C19.8864 2.33222 19.2148 2.3014 18.4541 2.43678C17.705 2.5701 16.7629 2.8855 15.577 3.28081L15.8932 4.22949ZM21.5 7.54988C21.5 6.29982 21.5013 5.30627 21.3909 4.55348C21.2788 3.78906 21.0372 3.16163 20.4618 2.74692L19.8771 3.55817C20.1323 3.74211 20.3059 4.04712 20.4015 4.69858C20.4987 5.36168 20.5 6.26749 20.5 7.54988H21.5ZM11.577 4.61414C10.9279 4.8305 10.401 5.00534 9.99196 5.19562C9.57127 5.39133 9.22888 5.62338 8.97189 5.97992L9.78314 6.56463C9.90367 6.3974 10.08 6.25756 10.4138 6.10231C10.7591 5.94165 11.2223 5.78647 11.8932 5.56282L11.577 4.61414ZM9.5 8.88321C9.5 8.17598 9.50076 7.68754 9.54396 7.30909C9.58571 6.94341 9.6626 6.73186 9.78314 6.56463L8.97189 5.97992C8.71491 6.33647 8.60305 6.73466 8.55042 7.19565C8.49924 7.64387 8.5 8.19901 8.5 8.88321H9.5Z" fill="#424242"/>
</svg>
