<svg width="24" height="24" viewBox="0 0 24 24" fill="none" xmlns="http://www.w3.org/2000/svg">
<path d="M10.7955 17.8087L11.0812 17.3984L11.0812 17.3984L10.7955 17.8087ZM10.5922 17.6672L10.3065 18.0775L10.3065 18.0775L10.5922 17.6672ZM10.5922 6.33284L10.3065 5.9225L10.3065 5.9225L10.5922 6.33284ZM10.7955 6.1913L11.0812 6.60164V6.60164L10.7955 6.1913ZM4.0323 13.0084L3.53314 13.0372L4.0323 13.0084ZM4.0323 10.9916L3.53314 10.9628L4.0323 10.9916ZM9.12219 7.05635L9.03441 6.56412V6.56412L9.12219 7.05635ZM9.78309 6.84699L9.57189 6.39379V6.39379L9.78309 6.84699ZM9.78309 17.153L9.9943 16.6998H9.9943L9.78309 17.153ZM9.12219 16.9436L9.20996 16.4514H9.20996L9.12219 16.9436ZM5.70846 16.6307L5.48898 17.08L5.48898 17.08L5.70846 16.6307ZM4.42579 15.3563L4.87116 15.1291V15.1291L4.42579 15.3563ZM15.3286 19.9176L15.4981 20.388V20.388L15.3286 19.9176ZM15.8669 19.6284L16.1648 20.0299V20.0299L15.8669 19.6284ZM15.3286 4.08241L15.1591 4.5528L15.1591 4.5528L15.3286 4.08241ZM15.8669 4.37163L15.5689 4.77315V4.77315L15.8669 4.37163ZM5.70846 7.3693L5.92794 7.81856V7.81856L5.70846 7.3693ZM4.42579 8.64369L3.98042 8.41644L3.98042 8.41644L4.42579 8.64369ZM16.1665 6.08658C16.2143 6.35855 16.4735 6.54026 16.7455 6.49245C17.0175 6.44463 17.1992 6.18539 17.1513 5.91342L16.1665 6.08658ZM17.1513 18.0866C17.1992 17.8146 17.0175 17.5554 16.7455 17.5076C16.4735 17.4597 16.2143 17.6414 16.1665 17.9134L17.1513 18.0866ZM20.3535 9.35358C20.5488 9.15832 20.5488 8.84173 20.3535 8.64647C20.1583 8.45121 19.8417 8.45121 19.6464 8.64647L20.3535 9.35358ZM13.6464 14.6464C13.4512 14.8417 13.4512 15.1583 13.6464 15.3536C13.8417 15.5488 14.1583 15.5488 14.3536 15.3536L13.6464 14.6464ZM14.3535 8.64645C14.1583 8.45118 13.8417 8.45118 13.6464 8.64645C13.4512 8.84171 13.4512 9.15829 13.6464 9.35355L14.3535 8.64645ZM19.6464 15.3535C19.8417 15.5488 20.1582 15.5488 20.3535 15.3535C20.5488 15.1583 20.5488 14.8417 20.3535 14.6464L19.6464 15.3535ZM11.0812 17.3984L10.8779 17.2568L10.3065 18.0775L10.5098 18.219L11.0812 17.3984ZM10.8779 6.74318L11.0812 6.60164L10.5098 5.78096L10.3065 5.9225L10.8779 6.74318ZM4.53147 12.9796C4.51162 12.6356 4.5 12.304 4.5 12H3.5C3.5 12.3282 3.51251 12.6798 3.53314 13.0372L4.53147 12.9796ZM4.5 12C4.5 11.696 4.51162 11.3644 4.53147 11.0204L3.53314 10.9628C3.51251 11.3202 3.5 11.6718 3.5 12H4.5ZM8.17865 7.59742C8.63697 7.59742 8.92612 7.5992 9.20996 7.54859L9.03441 6.56412C8.85766 6.59564 8.6713 6.59742 8.17865 6.59742V7.59742ZM10.3065 5.9225C9.89561 6.20859 9.73743 6.31664 9.57189 6.39379L9.9943 7.30019C10.2561 7.17819 10.4949 7.00985 10.8779 6.74318L10.3065 5.9225ZM9.20996 7.54859C9.48062 7.50033 9.74409 7.41679 9.9943 7.30019L9.57189 6.39379C9.39963 6.47406 9.21909 6.53119 9.03441 6.56412L9.20996 7.54859ZM10.8779 17.2568C10.4949 16.9902 10.2561 16.8218 9.9943 16.6998L9.57189 17.6062C9.73743 17.6834 9.89561 17.7914 10.3065 18.0775L10.8779 17.2568ZM8.17865 17.4026C8.67131 17.4026 8.85766 17.4044 9.03441 17.4359L9.20996 16.4514C8.92612 16.4008 8.63698 16.4026 8.17865 16.4026V17.4026ZM9.9943 16.6998C9.74409 16.5832 9.48062 16.4997 9.20996 16.4514L9.03441 17.4359C9.21909 17.4688 9.39963 17.5259 9.57189 17.6062L9.9943 16.6998ZM8.17865 16.4026C6.85454 16.4026 6.35635 16.3907 5.92794 16.1814L5.48898 17.08C6.17362 17.4144 6.9512 17.4026 8.17865 17.4026V16.4026ZM3.53314 13.0372C3.59948 14.1866 3.63156 14.8999 3.98042 15.5836L4.87116 15.1291C4.63829 14.6727 4.60196 14.2007 4.53147 12.9796L3.53314 13.0372ZM5.92794 16.1814C5.52025 15.9823 5.08941 15.5568 4.87116 15.1291L3.98042 15.5836C4.29366 16.1975 4.87974 16.7823 5.48898 17.08L5.92794 16.1814ZM10.5098 18.219C11.6781 19.0324 12.5963 19.673 13.3477 20.0585C14.0996 20.4441 14.8031 20.6384 15.4981 20.388L15.1591 19.4472C14.863 19.5539 14.4807 19.5158 13.8041 19.1687C13.1271 18.8214 12.2743 18.229 11.0812 17.3984L10.5098 18.219ZM15.4981 20.388C15.7347 20.3027 15.9618 20.1805 16.1648 20.0299L15.5689 19.2269C15.4433 19.32 15.3026 19.3955 15.1591 19.4472L15.4981 20.388ZM11.0812 6.60164C12.2743 5.77097 13.1271 5.17858 13.8041 4.83131C14.4807 4.48425 14.863 4.4461 15.1591 4.5528L15.4981 3.61202C14.8031 3.36158 14.0996 3.55587 13.3477 3.94154C12.5963 4.32699 11.6781 4.96761 10.5098 5.78096L11.0812 6.60164ZM15.1591 4.5528C15.3026 4.60451 15.4433 4.67998 15.5689 4.77315L16.1648 3.97011C15.9618 3.81947 15.7347 3.69727 15.4981 3.61202L15.1591 4.5528ZM8.17865 6.59742C6.9512 6.59742 6.17362 6.58558 5.48898 6.92005L5.92794 7.81856C6.35635 7.60926 6.85454 7.59742 8.17865 7.59742V6.59742ZM4.53147 11.0204C4.60196 9.79931 4.63829 9.32731 4.87116 8.87095L3.98042 8.41644C3.63156 9.10011 3.59948 9.8134 3.53314 10.9628L4.53147 11.0204ZM5.48898 6.92005C4.87974 7.21769 4.29366 7.80255 3.98042 8.41644L4.87116 8.87095C5.08941 8.44322 5.52025 8.01773 5.92794 7.81856L5.48898 6.92005ZM17.1513 5.91342C17.0042 5.07677 16.7434 4.39946 16.1648 3.97011L15.5689 4.77315C15.834 4.96988 16.033 5.32756 16.1665 6.08658L17.1513 5.91342ZM16.1665 17.9134C16.033 18.6724 15.834 19.0301 15.5689 19.2269L16.1648 20.0299C16.7434 19.6005 17.0042 18.9232 17.1513 18.0866L16.1665 17.9134ZM19.6464 8.64647L16.6464 11.6465L17.3535 12.3536L20.3535 9.35358L19.6464 8.64647ZM16.6464 11.6465L13.6464 14.6464L14.3536 15.3536L17.3535 12.3536L16.6464 11.6465ZM13.6464 9.35355L16.6464 12.3536L17.3535 11.6465L14.3535 8.64645L13.6464 9.35355ZM16.6464 12.3536L19.6464 15.3535L20.3535 14.6464L17.3535 11.6465L16.6464 12.3536Z" fill="#424242"/>
</svg>
