<svg width="24" height="24" viewBox="0 0 24 24" fill="none" xmlns="http://www.w3.org/2000/svg">
<path d="M3.67981 11.3333H3.17981V11.3333H3.67981ZM3.67981 13L3.32765 13.3549C3.52259 13.5484 3.83703 13.5484 4.03197 13.3549L3.67981 13ZM5.71178 11.6883C5.90781 11.4938 5.90906 11.1772 5.71456 10.9812C5.52007 10.7851 5.20349 10.7839 5.00746 10.9784L5.35962 11.3333L5.71178 11.6883ZM2.35216 10.9784C2.15613 10.7839 1.83955 10.7851 1.64506 10.9812C1.45057 11.1772 1.45181 11.4938 1.64784 11.6883L2 11.3333L2.35216 10.9784ZM18.8285 7.26186C18.9732 7.4971 19.2811 7.57057 19.5163 7.42594C19.7516 7.28132 19.825 6.97338 19.6804 6.73814L19.2545 7L18.8285 7.26186ZM20.3139 11L20.6654 10.6444C20.4706 10.4519 20.1572 10.4519 19.9624 10.6444L20.3139 11ZM18.2762 12.3111C18.0798 12.5052 18.0779 12.8218 18.2721 13.0182C18.4662 13.2145 18.7828 13.2164 18.9792 13.0223L18.6277 12.6667L18.2762 12.3111ZM21.6486 13.0223C21.845 13.2164 22.1616 13.2145 22.3557 13.0182C22.5499 12.8218 22.548 12.5052 22.3516 12.3111L22.0001 12.6667L21.6486 13.0223ZM5.10519 16.7374C4.96016 16.5024 4.6521 16.4295 4.4171 16.5745C4.18211 16.7195 4.10917 17.0276 4.25419 17.2626L4.67969 17L5.10519 16.7374ZM15.7136 9.23358C15.9088 9.03831 15.9088 8.72173 15.7136 8.52647C15.5183 8.33121 15.2017 8.33121 15.0065 8.52647L15.36 8.88002L15.7136 9.23358ZM8.52648 15.0064C8.33122 15.2017 8.33122 15.5183 8.52648 15.7136C8.72174 15.9088 9.03832 15.9088 9.23359 15.7136L8.88003 15.36L8.52648 15.0064ZM9.23356 8.52645C9.03829 8.33118 8.72171 8.33118 8.52645 8.52645C8.33119 8.72171 8.33119 9.03829 8.52645 9.23355L8.88 8.88L9.23356 8.52645ZM15.0064 15.7135C15.2017 15.9088 15.5183 15.9088 15.7135 15.7135C15.9088 15.5183 15.9088 15.2017 15.7135 15.0064L15.36 15.36L15.0064 15.7135ZM12.0789 3V2.5C7.16777 2.5 3.17981 6.45112 3.17981 11.3333H3.67981H4.17981C4.17981 7.0108 7.71263 3.5 12.0789 3.5V3ZM3.67981 11.3333H3.17981L3.17981 13H3.67981H4.17981L4.17981 11.3333H3.67981ZM3.67981 13L4.03197 13.3549L5.71178 11.6883L5.35962 11.3333L5.00746 10.9784L3.32765 12.6451L3.67981 13ZM3.67981 13L4.03197 12.6451L2.35216 10.9784L2 11.3333L1.64784 11.6883L3.32765 13.3549L3.67981 13ZM19.2545 7L19.6804 6.73814C18.118 4.19664 15.2975 2.5 12.0789 2.5V3V3.5C14.9382 3.5 17.4417 5.00608 18.8285 7.26186L19.2545 7ZM11.8827 21V21.5C16.8098 21.5 20.8139 17.5507 20.8139 12.6667H20.3139H19.8139C19.8139 16.9874 16.2685 20.5 11.8827 20.5V21ZM20.3139 12.6667H20.8139V11H20.3139H19.8139V12.6667H20.3139ZM20.3139 11L19.9624 10.6444L18.2762 12.3111L18.6277 12.6667L18.9792 13.0223L20.6654 11.3556L20.3139 11ZM20.3139 11L19.9624 11.3556L21.6486 13.0223L22.0001 12.6667L22.3516 12.3111L20.6654 10.6444L20.3139 11ZM4.67969 17L4.25419 17.2626C5.82268 19.8042 8.6534 21.5 11.8827 21.5V21V20.5C9.01087 20.5 6.49721 18.9931 5.10519 16.7374L4.67969 17ZM15.36 8.88002L15.0065 8.52647L11.7665 11.7665L12.12 12.12L12.4736 12.4736L15.7136 9.23358L15.36 8.88002ZM12.12 12.12L11.7665 11.7665L8.52648 15.0064L8.88003 15.36L9.23359 15.7136L12.4736 12.4736L12.12 12.12ZM8.88 8.88L8.52645 9.23355L11.7665 12.4736L12.12 12.12L12.4736 11.7665L9.23356 8.52645L8.88 8.88ZM12.12 12.12L11.7665 12.4736L15.0064 15.7135L15.36 15.36L15.7135 15.0064L12.4736 11.7665L12.12 12.12Z" fill="#424242"/>
</svg>
