<svg width="24" height="24" viewBox="0 0 24 24" fill="none" xmlns="http://www.w3.org/2000/svg">
<path d="M20.8293 10.7154L20.3463 10.586V10.586L20.8293 10.7154ZM20.3116 12.6473L20.7946 12.7767V12.7767L20.3116 12.6473ZM7.75458 9.28263L7.27162 9.15322V9.15322L7.75458 9.28263ZM8.27222 7.35077L8.75518 7.48018V7.48018L8.27222 7.35077ZM12.3508 17.2435L12.4802 16.7605H12.4802L12.3508 17.2435ZM8.23687 15.6522L8.57866 15.2872H8.57866L8.23687 15.6522ZM7.07573 13.641L6.58879 13.7546V13.7546L7.07573 13.641ZM18.7203 16.7612L18.3554 16.4194V16.4194L18.7203 16.7612ZM16.7092 17.9223L16.8227 18.4093H16.8227L16.7092 17.9223ZM20.347 4.34587L20.0052 4.71081V4.71081L20.347 4.34587ZM21.5081 6.35703L21.995 6.24349V6.24349L21.5081 6.35703ZM11.8747 2.07573L11.9882 2.56267V2.56267L11.8747 2.07573ZM9.86351 3.23687L9.49858 2.89507V2.89507L9.86351 3.23687ZM8.51621 6.44561L8.99854 6.57736L8.51621 6.44561ZM3.27222 16.647L2.78926 16.7764V16.7764L3.27222 16.647ZM2.75458 14.7151L3.23754 14.5857V14.5857L2.75458 14.7151ZM6.87466 21.922L6.9882 21.4351H6.9882L6.87466 21.922ZM4.86351 20.7609L4.49858 21.1027H4.49858L4.86351 20.7609ZM15.347 19.6519L15.0052 19.2869V19.2869L15.347 19.6519ZM7.35077 6.75428L7.22136 6.27132V6.27132L7.35077 6.75428ZM3.23687 8.34557L3.57866 8.71051V8.71051L3.23687 8.34557ZM2.07573 10.3567L1.58879 10.2432L2.07573 10.3567ZM11.9063 9.51704C11.6395 9.44557 11.3654 9.60386 11.2939 9.87059C11.2224 10.1373 11.3807 10.4115 11.6474 10.483L11.9063 9.51704ZM16.4771 11.7771C16.7438 11.8485 17.018 11.6902 17.0894 11.4235C17.1609 11.1568 17.0026 10.8826 16.7359 10.8111L16.4771 11.7771ZM11.1294 12.4147C10.8627 12.3433 10.5885 12.5016 10.517 12.7683C10.4456 13.035 10.6039 13.3092 10.8706 13.3807L11.1294 12.4147ZM13.7684 14.1571C14.0351 14.2286 14.3093 14.0703 14.3807 13.8036C14.4522 13.5368 14.2939 13.2627 14.0272 13.1912L13.7684 14.1571ZM20.3463 10.586L19.8287 12.5179L20.7946 12.7767L21.3122 10.8448L20.3463 10.586ZM8.23754 9.41204L8.75518 7.48018L7.78926 7.22136L7.27162 9.15322L8.23754 9.41204ZM12.4802 16.7605C11.3443 16.4562 10.5228 16.2356 9.89227 16.0078C9.2676 15.7822 8.87414 15.564 8.57866 15.2872L7.89507 16.0171C8.33087 16.4253 8.86684 16.7006 9.55252 16.9483C10.2323 17.1939 11.1021 17.4265 12.2214 17.7264L12.4802 16.7605ZM7.27162 9.15322C6.97172 10.2724 6.73828 11.142 6.61105 11.8536C6.48272 12.5712 6.4532 13.1731 6.58879 13.7546L7.56267 13.5275C7.47074 13.1332 7.47852 12.6834 7.59543 12.0296C7.71344 11.3696 7.93319 10.5479 8.23754 9.41204L7.27162 9.15322ZM8.57866 15.2872C8.07343 14.814 7.71986 14.2016 7.56267 13.5275L6.58879 13.7546C6.79089 14.6213 7.24548 15.4087 7.89507 16.0171L8.57866 15.2872ZM19.8287 12.5179C19.5243 13.6537 19.3037 14.4752 19.076 15.1058C18.8503 15.7304 18.6321 16.1239 18.3554 16.4194L19.0853 17.103C19.4934 16.6672 19.7688 16.1312 20.0165 15.4455C20.2621 14.7657 20.4947 13.8959 20.7946 12.7767L19.8287 12.5179ZM18.3554 16.4194C17.8822 16.9246 17.2698 17.2782 16.5956 17.4354L16.8227 18.4093C17.6895 18.2072 18.4768 17.7526 19.0853 17.103L18.3554 16.4194ZM16.1037 3.23754C17.2395 3.54189 18.061 3.76246 18.6916 3.99023C19.3162 4.21589 19.7097 4.43406 20.0052 4.71081L20.6888 3.98094C20.253 3.57277 19.717 3.29741 19.0313 3.04972C18.3515 2.80414 17.4817 2.57151 16.3625 2.27162L16.1037 3.23754ZM21.3122 10.8448C21.6121 9.7256 21.8455 8.85603 21.9728 8.1445C22.1011 7.42683 22.1306 6.82499 21.995 6.24349L21.0212 6.47056C21.1131 6.86483 21.1053 7.31466 20.9884 7.96847C20.8704 8.62842 20.6506 9.45016 20.3463 10.586L21.3122 10.8448ZM20.0052 4.71081C20.5104 5.18401 20.864 5.79641 21.0212 6.47056L21.995 6.24349C21.7929 5.37672 21.3384 4.58935 20.6888 3.98094L20.0052 4.71081ZM16.3625 2.27162C15.2432 1.97172 14.3737 1.73828 13.6621 1.61105C12.9445 1.48272 12.3426 1.4532 11.7611 1.58879L11.9882 2.56267C12.3825 2.47074 12.8323 2.47852 13.4861 2.59543C14.1461 2.71344 14.9678 2.93319 16.1037 3.23754L16.3625 2.27162ZM11.7611 1.58879C10.8944 1.79089 10.107 2.24548 9.49858 2.89507L10.2284 3.57866C10.7017 3.07343 11.3141 2.71986 11.9882 2.56267L11.7611 1.58879ZM12.2214 17.7264C13.2316 17.9971 14.0371 18.2132 14.7045 18.3459C15.3736 18.479 15.9418 18.5366 16.4762 18.4707L16.3538 17.4782C15.9731 17.5251 15.5255 17.4896 14.8995 17.3651C14.2716 17.2403 13.5026 17.0345 12.4802 16.7605L12.2214 17.7264ZM16.4762 18.4707C16.5935 18.4562 16.7087 18.4358 16.8227 18.4093L16.5956 17.4354C16.5171 17.4537 16.4368 17.4679 16.3538 17.4782L16.4762 18.4707ZM8.75518 7.48018C8.84213 7.15567 8.9225 6.85576 8.99854 6.57736L8.03388 6.31387C7.95708 6.59505 7.87606 6.89741 7.78926 7.22137L8.75518 7.48018ZM8.99854 6.57736C9.46138 4.88288 9.74223 4.09779 10.2284 3.57866L9.49858 2.89507C8.81195 3.62818 8.48118 4.67627 8.03388 6.31387L8.99854 6.57736ZM3.75518 16.5176L3.23754 14.5857L2.27162 14.8445L2.78926 16.7764L3.75518 16.5176ZM11.1037 20.7602C9.9678 21.0646 9.14606 21.2843 8.48611 21.4023C7.8323 21.5192 7.38247 21.527 6.9882 21.4351L6.76113 22.409C7.34263 22.5445 7.94446 22.515 8.66213 22.3867C9.37367 22.2595 10.2432 22.026 11.3625 21.7261L11.1037 20.7602ZM2.78926 16.7764C3.08915 17.8956 3.32178 18.7654 3.56735 19.4452C3.81505 20.1309 4.09041 20.6669 4.49858 21.1027L5.22845 20.4191C4.9517 20.1236 4.73353 19.7301 4.50787 19.1055C4.28009 18.4749 4.05953 17.6534 3.75518 16.5176L2.78926 16.7764ZM6.9882 21.4351C6.31405 21.2779 5.70165 20.9243 5.22844 20.4191L4.49858 21.1027C5.10699 21.7523 5.89436 22.2069 6.76113 22.409L6.9882 21.4351ZM11.3625 21.7261C12.4817 21.4262 13.3515 21.1936 14.0313 20.948C14.717 20.7003 15.253 20.425 15.6888 20.0168L15.0052 19.2869C14.7097 19.5637 14.3162 19.7819 13.6916 20.0075C13.061 20.2353 12.2395 20.4559 11.1037 20.7602L11.3625 21.7261ZM7.22136 6.27132C6.10214 6.57121 5.23234 6.80384 4.55252 7.04942C3.86684 7.29711 3.33087 7.57247 2.89507 7.98064L3.57866 8.71051C3.87414 8.43376 4.2676 8.21559 4.89227 7.98993C5.52281 7.76215 6.34433 7.54159 7.48018 7.23724L7.22136 6.27132ZM3.23754 14.5857C2.93319 13.4499 2.71344 12.6281 2.59543 11.9682C2.47852 11.3144 2.47074 10.8645 2.56267 10.4703L1.58879 10.2432C1.4532 10.8247 1.48272 11.4265 1.61105 12.1442C1.73828 12.8557 1.97172 13.7253 2.27162 14.8445L3.23754 14.5857ZM2.89507 7.98064C2.24548 8.58905 1.79089 9.37642 1.58879 10.2432L2.56267 10.4703C2.71986 9.79611 3.07343 9.18371 3.57866 8.71051L2.89507 7.98064ZM15.9397 17.8192C15.7573 18.3778 15.4365 18.8829 15.0052 19.2869L15.6888 20.0168C16.2432 19.4975 16.6557 18.848 16.8903 18.1296L15.9397 17.8192ZM7.48018 7.23724C7.90701 7.12287 8.29128 7.02021 8.64137 6.92969L8.39105 5.96153C8.0361 6.05331 7.64779 6.15706 7.22136 6.27132L7.48018 7.23724ZM11.6474 10.483L16.4771 11.7771L16.7359 10.8111L11.9063 9.51704L11.6474 10.483ZM10.8706 13.3807L13.7684 14.1571L14.0272 13.1912L11.1294 12.4147L10.8706 13.3807Z" fill="#424242"/>
</svg>
