<svg width="24" height="24" viewBox="0 0 24 24" fill="none" xmlns="http://www.w3.org/2000/svg">
<path d="M8.5 2.5C8.5 2.22386 8.27614 2 8 2C7.72386 2 7.5 2.22386 7.5 2.5H8.5ZM7.5 22C7.5 22.2761 7.72386 22.5 8 22.5C8.27614 22.5 8.5 22.2761 8.5 22H7.5ZM2 11.5C1.72386 11.5 1.5 11.7239 1.5 12C1.5 12.2761 1.72386 12.5 2 12.5V11.5ZM4 12.5C4.27614 12.5 4.5 12.2761 4.5 12C4.5 11.7239 4.27614 11.5 4 11.5V12.5ZM2 15.5C1.72386 15.5 1.5 15.7239 1.5 16C1.5 16.2761 1.72386 16.5 2 16.5V15.5ZM4 16.5C4.27614 16.5 4.5 16.2761 4.5 16C4.5 15.7239 4.27614 15.5 4 15.5V16.5ZM2 7.5C1.72386 7.5 1.5 7.72386 1.5 8C1.5 8.27614 1.72386 8.5 2 8.5V7.5ZM4 8.5C4.27614 8.5 4.5 8.27614 4.5 8C4.5 7.72386 4.27614 7.5 4 7.5V8.5ZM11.5 6C11.2239 6 11 6.22386 11 6.5C11 6.77614 11.2239 7 11.5 7V6ZM16.5 7C16.7761 7 17 6.77614 17 6.5C17 6.22386 16.7761 6 16.5 6V7ZM11.5 9.5C11.2239 9.5 11 9.72386 11 10C11 10.2761 11.2239 10.5 11.5 10.5V9.5ZM16.5 10.5C16.7761 10.5 17 10.2761 17 10C17 9.72386 16.7761 9.5 16.5 9.5V10.5ZM9 2.5H15V1.5H9V2.5ZM20.5 8V16H21.5V8H20.5ZM15 21.5H9V22.5H15V21.5ZM3.5 16V8H2.5V16H3.5ZM9 21.5C7.57165 21.5 6.55069 21.4989 5.77481 21.3946C5.01331 21.2922 4.56319 21.0987 4.23223 20.7678L3.52513 21.4749C4.07285 22.0226 4.76917 22.2684 5.64156 22.3857C6.49956 22.5011 7.59992 22.5 9 22.5V21.5ZM2.5 16C2.5 17.4001 2.49894 18.5004 2.61429 19.3584C2.73158 20.2308 2.9774 20.9272 3.52513 21.4749L4.23223 20.7678C3.90128 20.4368 3.70776 19.9867 3.60538 19.2252C3.50106 18.4493 3.5 17.4283 3.5 16H2.5ZM20.5 16C20.5 17.4283 20.4989 18.4493 20.3946 19.2252C20.2922 19.9867 20.0987 20.4368 19.7678 20.7678L20.4749 21.4749C21.0226 20.9271 21.2684 20.2308 21.3857 19.3584C21.5011 18.5004 21.5 17.4001 21.5 16H20.5ZM15 22.5C16.4001 22.5 17.5004 22.5011 18.3584 22.3857C19.2308 22.2684 19.9271 22.0226 20.4749 21.4749L19.7678 20.7678C19.4368 21.0987 18.9867 21.2922 18.2252 21.3946C17.4493 21.4989 16.4283 21.5 15 21.5V22.5ZM15 2.5C16.4283 2.5 17.4493 2.50106 18.2252 2.60538C18.9867 2.70776 19.4368 2.90128 19.7678 3.23223L20.4749 2.52513C19.9272 1.9774 19.2308 1.73158 18.3584 1.61429C17.5004 1.49894 16.4001 1.5 15 1.5V2.5ZM21.5 8C21.5 6.59992 21.5011 5.49956 21.3857 4.64156C21.2684 3.76917 21.0226 3.07285 20.4749 2.52513L19.7678 3.23223C20.0987 3.56319 20.2922 4.01331 20.3946 4.77481C20.4989 5.55069 20.5 6.57165 20.5 8H21.5ZM9 1.5C7.59992 1.5 6.49956 1.49894 5.64156 1.61429C4.76917 1.73158 4.07285 1.9774 3.52513 2.52513L4.23223 3.23223C4.56319 2.90128 5.01331 2.70776 5.77481 2.60538C6.55069 2.50106 7.57165 2.5 9 2.5V1.5ZM3.5 8C3.5 6.57165 3.50106 5.55069 3.60538 4.77481C3.70776 4.01331 3.90128 3.56319 4.23223 3.23223L3.52513 2.52513C2.9774 3.07285 2.73158 3.76917 2.61429 4.64156C2.49894 5.49956 2.5 6.59992 2.5 8H3.5ZM7.5 2.5V22H8.5V2.5H7.5ZM2 12.5H4V11.5H2V12.5ZM2 16.5H4V15.5H2V16.5ZM2 8.5H4V7.5H2V8.5ZM11.5 7H16.5V6H11.5V7ZM11.5 10.5H16.5V9.5H11.5V10.5Z" fill="#424242"/>
</svg>
