<svg width="24" height="24" viewBox="0 0 24 24" fill="none" xmlns="http://www.w3.org/2000/svg">
<path d="M22.5 10.5C22.5 10.2239 22.2761 10 22 10C21.7239 10 21.5 10.2239 21.5 10.5H22.5ZM13.5 2.5C13.7761 2.5 14 2.27614 14 2C14 1.72386 13.7761 1.5 13.5 1.5V2.5ZM12 21.5C9.62884 21.5 7.90077 21.4989 6.58026 21.3214C5.27414 21.1458 4.44187 20.8058 3.81802 20.182L3.11091 20.8891C3.95153 21.7297 5.03 22.122 6.44702 22.3125C7.84965 22.5011 9.65711 22.5 12 22.5V21.5ZM1.5 12C1.5 14.3429 1.49894 16.1504 1.68752 17.553C1.87803 18.97 2.2703 20.0485 3.11091 20.8891L3.81802 20.182C3.19417 19.5581 2.8542 18.7259 2.6786 17.4197C2.50106 16.0992 2.5 14.3712 2.5 12H1.5ZM21.5 12C21.5 14.3712 21.4989 16.0992 21.3214 17.4197C21.1458 18.7259 20.8058 19.5581 20.182 20.182L20.8891 20.8891C21.7297 20.0485 22.122 18.97 22.3125 17.553C22.5011 16.1504 22.5 14.3429 22.5 12H21.5ZM12 22.5C14.3429 22.5 16.1504 22.5011 17.553 22.3125C18.97 22.122 20.0485 21.7297 20.8891 20.8891L20.182 20.182C19.5581 20.8058 18.7259 21.1458 17.4197 21.3214C16.0992 21.4989 14.3712 21.5 12 21.5V22.5ZM12 1.5C9.65711 1.5 7.84965 1.49894 6.44702 1.68752C5.03 1.87803 3.95153 2.2703 3.11091 3.11091L3.81802 3.81802C4.44187 3.19417 5.27414 2.8542 6.58026 2.6786C7.90077 2.50106 9.62884 2.5 12 2.5V1.5ZM2.5 12C2.5 9.62884 2.50106 7.90077 2.6786 6.58026C2.8542 5.27414 3.19417 4.44187 3.81802 3.81802L3.11091 3.11091C2.2703 3.95153 1.87803 5.03 1.68752 6.44702C1.49894 7.84965 1.5 9.65711 1.5 12H2.5ZM22.5 12V10.5H21.5V12H22.5ZM12 2.5H13.5V1.5H12V2.5ZM21.5 5C21.5 6.38071 20.3807 7.5 19 7.5V8.5C20.933 8.5 22.5 6.933 22.5 5H21.5ZM19 7.5C17.6193 7.5 16.5 6.38071 16.5 5H15.5C15.5 6.933 17.067 8.5 19 8.5V7.5ZM16.5 5C16.5 3.61929 17.6193 2.5 19 2.5V1.5C17.067 1.5 15.5 3.067 15.5 5H16.5ZM19 2.5C20.3807 2.5 21.5 3.61929 21.5 5H22.5C22.5 3.067 20.933 1.5 19 1.5V2.5Z" fill="#424242"/>
</svg>
