<svg width="24" height="24" viewBox="0 0 24 24" fill="none" xmlns="http://www.w3.org/2000/svg">
<path d="M22.5 10.5C22.5 10.2238 22.2761 9.99999 22 9.99999C21.7239 9.99999 21.5 10.2238 21.5 10.5H22.5ZM13.5 2.49999C13.7761 2.49999 14 2.27613 14 1.99999C14 1.72385 13.7761 1.49999 13.5 1.49999V2.49999ZM22.3536 2.35354C22.5488 2.15828 22.5488 1.8417 22.3536 1.64644C22.1583 1.45117 21.8417 1.45117 21.6464 1.64644L22.3536 2.35354ZM16.6465 6.64642C16.4512 6.84168 16.4512 7.15826 16.6465 7.35352C16.8417 7.54879 17.1583 7.54879 17.3536 7.35352L16.6465 6.64642ZM17.3536 1.64642C17.1583 1.45115 16.8417 1.45115 16.6464 1.64642C16.4512 1.84168 16.4512 2.15826 16.6464 2.35352L17.3536 1.64642ZM21.6464 7.3535C21.8417 7.54877 22.1583 7.54877 22.3535 7.3535C22.5488 7.15824 22.5488 6.84166 22.3535 6.6464L21.6464 7.3535ZM12 21.5C9.62884 21.5 7.90077 21.4989 6.58026 21.3214C5.27414 21.1458 4.44187 20.8058 3.81802 20.182L3.11091 20.8891C3.95153 21.7297 5.03 22.122 6.44702 22.3125C7.84965 22.5011 9.65711 22.5 12 22.5V21.5ZM1.5 12C1.5 14.3429 1.49894 16.1503 1.68752 17.553C1.87803 18.97 2.2703 20.0485 3.11091 20.8891L3.81802 20.182C3.19417 19.5581 2.8542 18.7259 2.6786 17.4197C2.50106 16.0992 2.5 14.3711 2.5 12H1.5ZM21.5 12C21.5 14.3711 21.4989 16.0992 21.3214 17.4197C21.1458 18.7259 20.8058 19.5581 20.182 20.182L20.8891 20.8891C21.7297 20.0485 22.122 18.97 22.3125 17.553C22.5011 16.1503 22.5 14.3429 22.5 12H21.5ZM12 22.5C14.3429 22.5 16.1504 22.5011 17.553 22.3125C18.97 22.122 20.0485 21.7297 20.8891 20.8891L20.182 20.182C19.5581 20.8058 18.7259 21.1458 17.4197 21.3214C16.0992 21.4989 14.3712 21.5 12 21.5V22.5ZM12 1.49999C9.65711 1.49999 7.84965 1.49893 6.44702 1.68751C5.03 1.87802 3.95153 2.27028 3.11091 3.1109L3.81802 3.81801C4.44187 3.19416 5.27414 2.85419 6.58026 2.67859C7.90077 2.50105 9.62884 2.49999 12 2.49999V1.49999ZM2.5 12C2.5 9.62883 2.50106 7.90076 2.6786 6.58025C2.8542 5.27413 3.19417 4.44186 3.81802 3.81801L3.11091 3.1109C2.2703 3.95152 1.87803 5.02999 1.68752 6.44701C1.49894 7.84964 1.5 9.6571 1.5 12H2.5ZM22.5 12V10.5H21.5V12H22.5ZM12 2.49999H13.5V1.49999H12V2.49999ZM21.6464 1.64644L19.1465 4.14643L19.8536 4.85353L22.3536 2.35354L21.6464 1.64644ZM19.1465 4.14643L16.6465 6.64642L17.3536 7.35352L19.8536 4.85353L19.1465 4.14643ZM16.6464 2.35352L19.1465 4.85353L19.8536 4.14643L17.3536 1.64642L16.6464 2.35352ZM19.1465 4.85353L21.6464 7.3535L22.3535 6.6464L19.8536 4.14643L19.1465 4.85353Z" fill="#424242"/>
</svg>
