<svg width="24" height="24" viewBox="0 0 24 24" fill="none" xmlns="http://www.w3.org/2000/svg">
<path d="M13.029 12.0034C13.6873 12.0034 14.221 12.5403 14.221 13.2026C14.221 13.8649 13.6873 14.4017 13.029 14.4017C12.4271 14.4017 11.9295 13.9529 11.8486 13.3698C11.841 13.3152 11.8371 13.2593 11.8371 13.2026M11.8351 10.5718C11.9427 10.0208 12.4254 9.60512 13.0047 9.60512C13.663 9.60512 14.1966 10.142 14.1966 10.8043C14.1966 11.4665 13.663 12.0034 13.0047 12.0034M10.4611 14.3419C10.4611 14.3419 8.18592 14.3706 8.07815 14.3345C7.97038 14.2983 8.25094 14.1565 9.74263 12.0122C10.0212 11.6118 10.1746 11.274 10.2398 10.9909L10.2629 10.8089C10.2629 10.1441 9.72718 9.60512 9.06633 9.60512C8.48483 9.60512 8.00021 10.0224 7.89221 10.5756M5 10.5857L6.26275 9.60513V14.3692M17.2088 8V12.2824V16M17.2088 8H16.0843M17.2088 8H18.3333M17.2088 16H16.0843M17.2088 16H18.3333M10 20H14C17.7712 20 19.6569 20 20.8284 18.8284C22 17.6569 22 15.7712 22 12C22 8.22876 22 6.34315 20.8284 5.17157C19.6569 4 17.7712 4 14 4H10C6.22876 4 4.34315 4 3.17157 5.17157C2 6.34315 2 8.22876 2 12C2 15.7712 2 17.6569 3.17157 18.8284C4.34315 20 6.22876 20 10 20Z" stroke="#424242" stroke-linecap="round" stroke-linejoin="round"/>
</svg>
