<svg width="24" height="24" viewBox="0 0 24 24" fill="none" xmlns="http://www.w3.org/2000/svg">
<path d="M22 22.5C22.2761 22.5 22.5 22.2761 22.5 22C22.5 21.7239 22.2761 21.5 22 21.5V22.5ZM2 21.5C1.72386 21.5 1.5 21.7239 1.5 22C1.5 22.2761 1.72386 22.5 2 22.5V21.5ZM16.4142 2.58579L16.0607 2.93934L16.0607 2.93934L16.4142 2.58579ZM20.1111 8.33706L19.8334 8.7528V8.7528L20.1111 8.33706ZM20.6629 8.88886L20.2472 9.16664V9.16665L20.6629 8.88886ZM3.88886 8.33706L4.16664 8.7528V8.7528L3.88886 8.33706ZM3.33706 8.88886L3.7528 9.16665L3.7528 9.16664L3.33706 8.88886ZM11.5 22C11.5 22.2761 11.7239 22.5 12 22.5C12.2761 22.5 12.5 22.2761 12.5 22H11.5ZM12.5 19C12.5 18.7239 12.2761 18.5 12 18.5C11.7239 18.5 11.5 18.7239 11.5 19H12.5ZM10 4.5C9.72386 4.5 9.5 4.72386 9.5 5C9.5 5.27614 9.72386 5.5 10 5.5V4.5ZM14 5.5C14.2761 5.5 14.5 5.27614 14.5 5C14.5 4.72386 14.2761 4.5 14 4.5V5.5ZM10 7.5C9.72386 7.5 9.5 7.72386 9.5 8C9.5 8.27614 9.72386 8.5 10 8.5V7.5ZM14 8.5C14.2761 8.5 14.5 8.27614 14.5 8C14.5 7.72386 14.2761 7.5 14 7.5V8.5ZM10 10.5C9.72386 10.5 9.5 10.7239 9.5 11C9.5 11.2761 9.72386 11.5 10 11.5V10.5ZM14 11.5C14.2761 11.5 14.5 11.2761 14.5 11C14.5 10.7239 14.2761 10.5 14 10.5V11.5ZM10 13.5C9.72386 13.5 9.5 13.7239 9.5 14C9.5 14.2761 9.72386 14.5 10 14.5V13.5ZM14 14.5C14.2761 14.5 14.5 14.2761 14.5 14C14.5 13.7239 14.2761 13.5 14 13.5V14.5ZM22 21.5H2V22.5H22V21.5ZM11 2.5H13V1.5H11V2.5ZM16.5 6V22H17.5V6H16.5ZM7.5 22V6H6.5V22H7.5ZM13 2.5C13.9569 2.5 14.6244 2.50106 15.1279 2.56876C15.6171 2.63453 15.8762 2.75483 16.0607 2.93934L16.7678 2.23223C16.3665 1.83096 15.8612 1.65836 15.2612 1.57768C14.6755 1.49894 13.9287 1.5 13 1.5V2.5ZM17.5 6C17.5 5.07133 17.5011 4.32452 17.4223 3.73883C17.3416 3.13876 17.169 2.63351 16.7678 2.23223L16.0607 2.93934C16.2452 3.12385 16.3655 3.3829 16.4312 3.87208C16.4989 4.37565 16.5 5.04306 16.5 6H17.5ZM11 1.5C10.0713 1.5 9.32452 1.49894 8.73883 1.57768C8.13876 1.65836 7.63351 1.83096 7.23223 2.23223L7.93934 2.93934C8.12385 2.75483 8.3829 2.63453 8.87208 2.56876C9.37565 2.50106 10.0431 2.5 11 2.5V1.5ZM7.5 6C7.5 5.04306 7.50106 4.37565 7.56876 3.87208C7.63453 3.3829 7.75483 3.12385 7.93934 2.93934L7.23223 2.23223C6.83096 2.63351 6.65836 3.13876 6.57768 3.73883C6.49894 4.32452 6.5 5.07133 6.5 6H7.5ZM20.5 11.5V22H21.5V11.5H20.5ZM17.5 8.5C18.2126 8.5 18.7095 8.5006 19.0925 8.53957C19.4671 8.57768 19.677 8.64831 19.8334 8.7528L20.3889 7.92133C20.0409 7.68875 19.6474 7.59085 19.1937 7.5447C18.7483 7.4994 18.1918 7.5 17.5 7.5V8.5ZM21.5 11.5C21.5 10.8082 21.5006 10.2517 21.4553 9.80632C21.4091 9.35262 21.3112 8.95915 21.0787 8.61107L20.2472 9.16665C20.3517 9.32302 20.4223 9.53289 20.4604 9.90753C20.4994 10.2905 20.5 10.7874 20.5 11.5H21.5ZM19.8334 8.7528C19.9971 8.86223 20.1378 9.00286 20.2472 9.16664L21.0787 8.61107C20.8963 8.3381 20.6619 8.10372 20.3889 7.92133L19.8334 8.7528ZM2.5 11.5V22H3.5V11.5H2.5ZM6.5 7.5C5.80818 7.5 5.25167 7.4994 4.80632 7.5447C4.35262 7.59085 3.95915 7.68875 3.61107 7.92133L4.16664 8.7528C4.32302 8.64831 4.53289 8.57768 4.90753 8.53957C5.29052 8.5006 5.78736 8.5 6.5 8.5V7.5ZM3.5 11.5C3.5 10.7874 3.5006 10.2905 3.53957 9.90753C3.57768 9.53289 3.64831 9.32302 3.7528 9.16665L2.92133 8.61107C2.68875 8.95915 2.59085 9.35262 2.5447 9.80632C2.4994 10.2517 2.5 10.8082 2.5 11.5H3.5ZM3.61107 7.92133C3.3381 8.10372 3.10372 8.3381 2.92133 8.61107L3.7528 9.16664C3.86223 9.00286 4.00286 8.86223 4.16664 8.7528L3.61107 7.92133ZM12.5 22V19H11.5V22H12.5ZM10 5.5H14V4.5H10V5.5ZM10 8.5H14V7.5H10V8.5ZM10 11.5H14V10.5H10V11.5ZM10 14.5H14V13.5H10V14.5Z" fill="#424242"/>
</svg>
