<svg width="24" height="24" viewBox="0 0 24 24" fill="none" xmlns="http://www.w3.org/2000/svg">
<path d="M13.0867 21.3877L13.5169 21.6424H13.5169L13.0867 21.3877ZM13.6288 20.4718L13.1985 20.2172V20.2172L13.6288 20.4718ZM10.3712 20.4718L9.94093 20.7265V20.7265L10.3712 20.4718ZM10.9133 21.3877L11.3436 21.133V21.133L10.9133 21.3877ZM13.5 2.5C13.7761 2.5 14 2.27614 14 2C14 1.72386 13.7761 1.5 13.5 1.5V2.5ZM22.5 10.5C22.5 10.2239 22.2761 10 22 10C21.7239 10 21.5 10.2239 21.5 10.5H22.5ZM2.3806 15.9134L2.84254 15.7221H2.84254L2.3806 15.9134ZM7.78958 18.9915L7.78096 19.4914V19.4914L7.78958 18.9915ZM5.08658 18.6194L4.89524 19.0813L4.89524 19.0813L5.08658 18.6194ZM21.6194 15.9134L22.0813 16.1048V16.1048L21.6194 15.9134ZM16.2104 18.9915L16.2018 18.4915V18.4915L16.2104 18.9915ZM18.9134 18.6194L19.1048 19.0813V19.0813L18.9134 18.6194ZM4.38751 2.7368L4.12626 2.31048V2.31048L4.38751 2.7368ZM2.7368 4.38751L2.31048 4.12626H2.31048L2.7368 4.38751ZM9.40279 19.2098L9.65417 18.7776L9.65417 18.7776L9.40279 19.2098ZM17.839 5.40907C17.6426 5.60317 17.6407 5.91975 17.8348 6.11616C18.0289 6.31257 18.3455 6.31445 18.5419 6.12035L17.839 5.40907ZM22 2H22.5C22.5 1.72386 22.2761 1.5 22 1.5V2ZM21.5 4.82353C21.5 5.09967 21.7238 5.32353 22 5.32353C22.2761 5.32353 22.5 5.09967 22.5 4.82353H21.5ZM19.1428 1.5C18.8667 1.5 18.6428 1.72386 18.6428 2C18.6428 2.27614 18.8667 2.5 19.1428 2.5V1.5ZM13.5169 21.6424L14.059 20.7265L13.1985 20.2172L12.6564 21.133L13.5169 21.6424ZM9.94093 20.7265L10.483 21.6424L11.3436 21.133L10.8015 20.2172L9.94093 20.7265ZM12.6564 21.133C12.3668 21.6222 11.6331 21.6222 11.3436 21.133L10.483 21.6424C11.1598 22.7858 12.8402 22.7858 13.5169 21.6424L12.6564 21.133ZM10.5 2.5H13.5V1.5H10.5V2.5ZM21.5 10.5V11.5H22.5V10.5H21.5ZM2.5 11.5V10.5H1.5V11.5H2.5ZM1.5 11.5C1.5 12.658 1.49973 13.5516 1.54874 14.2698C1.59805 14.9926 1.69892 15.5743 1.91866 16.1048L2.84254 15.7221C2.68168 15.3337 2.59225 14.8736 2.54642 14.2017C2.50027 13.5254 2.5 12.6717 2.5 11.5H1.5ZM7.79819 18.4915C6.54278 18.4699 5.84178 18.391 5.27792 18.1575L4.89524 19.0813C5.65199 19.3948 6.52566 19.4697 7.78096 19.4914L7.79819 18.4915ZM1.91866 16.1048C2.47688 17.4524 3.54759 18.5231 4.89524 19.0813L5.27793 18.1575C4.1753 17.7007 3.29926 16.8247 2.84254 15.7221L1.91866 16.1048ZM21.5 11.5C21.5 12.6717 21.4997 13.5254 21.4536 14.2017C21.4077 14.8736 21.3183 15.3337 21.1575 15.7221L22.0813 16.1048C22.3011 15.5743 22.402 14.9926 22.4513 14.2698C22.5003 13.5516 22.5 12.658 22.5 11.5H21.5ZM16.219 19.4914C17.4743 19.4697 18.348 19.3948 19.1048 19.0813L18.7221 18.1575C18.1582 18.391 17.4572 18.4699 16.2018 18.4915L16.219 19.4914ZM21.1575 15.7221C20.7007 16.8247 19.8247 17.7007 18.7221 18.1575L19.1048 19.0813C20.4524 18.5231 21.5231 17.4524 22.0813 16.1048L21.1575 15.7221ZM10.5 1.5C8.87297 1.5 7.61758 1.49947 6.61977 1.59434C5.61452 1.68992 4.8192 1.88585 4.12626 2.31048L4.64876 3.16312C5.15816 2.85095 5.78237 2.67848 6.71442 2.58986C7.65392 2.50053 8.8536 2.5 10.5 2.5V1.5ZM2.5 10.5C2.5 8.8536 2.50053 7.65392 2.58986 6.71442C2.67848 5.78237 2.85095 5.15816 3.16312 4.64876L2.31048 4.12626C1.88585 4.8192 1.68992 5.61452 1.59434 6.61977C1.49947 7.61758 1.5 8.87297 1.5 10.5H2.5ZM4.12626 2.31048C3.3862 2.76399 2.76399 3.3862 2.31048 4.12626L3.16312 4.64876C3.53417 4.04326 4.04326 3.53417 4.64876 3.16312L4.12626 2.31048ZM10.8015 20.2172C10.596 19.8701 10.4247 19.5795 10.26 19.3536C10.0892 19.1193 9.90398 18.9229 9.65417 18.7776L9.15141 19.6421C9.2393 19.6932 9.32802 19.7726 9.45189 19.9426C9.58191 20.121 9.72589 20.3632 9.94093 20.7265L10.8015 20.2172ZM7.78096 19.4914C8.21542 19.4989 8.50712 19.5044 8.7334 19.5295C8.9504 19.5535 9.06517 19.5919 9.15141 19.6421L9.65417 18.7776C9.40272 18.6314 9.13605 18.5679 8.84346 18.5355C8.56013 18.5042 8.21408 18.4987 7.79819 18.4915L7.78096 19.4914ZM14.059 20.7265C14.2741 20.3632 14.4181 20.121 14.5481 19.9426C14.6719 19.7726 14.7607 19.6932 14.8485 19.6421L14.3458 18.7776C14.096 18.9229 13.9107 19.1193 13.7399 19.3536C13.5753 19.5795 13.4039 19.8701 13.1985 20.2172L14.059 20.7265ZM16.2018 18.4915C15.7859 18.4987 15.4398 18.5042 15.1565 18.5355C14.8639 18.5679 14.5972 18.6314 14.3458 18.7776L14.8485 19.6421C14.9348 19.5919 15.0496 19.5535 15.2666 19.5295C15.4928 19.5044 15.7845 19.4989 16.219 19.4914L16.2018 18.4915ZM18.5419 6.12035L22.3514 2.35564L21.6485 1.64436L17.839 5.40907L18.5419 6.12035ZM21.5 2V4.82353H22.5V2H21.5ZM22 1.5H19.1428V2.5H22V1.5Z" fill="#424242"/>
</svg>
