<svg width="24" height="24" viewBox="0 0 24 24" fill="none" xmlns="http://www.w3.org/2000/svg">
<path d="M15.325 7.3C15.6012 7.3 15.825 7.07614 15.825 6.8C15.825 6.52386 15.6012 6.3 15.325 6.3V7.3ZM2.85977 17.3653L3.21332 17.0117L3.21332 17.0117L2.85977 17.3653ZM21.525 12.5C21.525 12.2239 21.3012 12 21.025 12C20.7489 12 20.525 12.2239 20.525 12.5H21.525ZM20.1903 17.3653L20.5438 17.7188V17.7188L20.1903 17.3653ZM5.80997 18.6833C6.08598 18.6916 6.31648 18.4746 6.3248 18.1986C6.33311 17.9226 6.1161 17.6921 5.84008 17.6838L5.80997 18.6833ZM17.21 17.6838C16.934 17.6921 16.7169 17.9226 16.7253 18.1986C16.7336 18.4746 16.9641 18.6916 17.2401 18.6833L17.21 17.6838ZM11.525 3.5C11.8012 3.5 12.025 3.27614 12.025 3C12.025 2.72386 11.8012 2.5 11.525 2.5V3.5ZM6.65977 3.83475L7.01332 4.1883V4.1883L6.65977 3.83475ZM6.65977 21.1653L7.01332 20.8117H7.01332L6.65977 21.1653ZM5.34171 6.78494C5.33339 7.06096 5.55041 7.29146 5.82642 7.29977C6.10244 7.30809 6.33294 7.09107 6.34126 6.81506L5.34171 6.78494ZM17.725 12.5C17.725 12.2239 17.5012 12 17.225 12C16.9489 12 16.725 12.2239 16.725 12.5H17.725ZM6.32502 12.5C6.32502 12.2239 6.10117 12 5.82502 12C5.54888 12 5.32502 12.2239 5.32502 12.5H6.32502ZM18.4452 13.3773C18.6971 13.4904 18.993 13.3779 19.1062 13.126C19.2193 12.8741 19.1067 12.5782 18.8548 12.4651L18.4452 13.3773ZM4.19523 12.4651C3.94331 12.5782 3.83078 12.8741 3.94389 13.126C4.057 13.3779 4.35291 13.4904 4.60482 13.3773L4.19523 12.4651ZM17.8215 9.29645C17.6262 9.49171 17.6262 9.80829 17.8215 10.0036C18.0167 10.1988 18.3333 10.1988 18.5286 10.0036L17.8215 9.29645ZM21.975 5.85H22.475C22.475 5.57386 22.2512 5.35 21.975 5.35V5.85ZM21.475 8.7C21.475 8.97614 21.6989 9.2 21.975 9.2C22.2512 9.2 22.475 8.97614 22.475 8.7H21.475ZM19.125 5.35C18.8489 5.35 18.625 5.57386 18.625 5.85C18.625 6.12614 18.8489 6.35 19.125 6.35V5.35ZM7.72502 7.3H15.325V6.3H7.72502V7.3ZM1.52502 12.5C1.52502 13.8294 1.52396 14.8767 1.63383 15.6938C1.74562 16.5254 1.98046 17.1931 2.50622 17.7188L3.21332 17.0117C2.90434 16.7027 2.7218 16.2813 2.62491 15.5606C2.52609 14.8256 2.52502 13.8576 2.52502 12.5H1.52502ZM20.525 12.5C20.525 13.8576 20.524 14.8256 20.4251 15.5606C20.3282 16.2813 20.1457 16.7027 19.8367 17.0117L20.5438 17.7188C21.0696 17.1931 21.3044 16.5254 21.4162 15.6938C21.5261 14.8767 21.525 13.8294 21.525 12.5H20.525ZM7.72502 6.3C6.39566 6.3 5.34833 6.29894 4.53118 6.4088C3.69964 6.5206 3.03197 6.75543 2.50622 7.28119L3.21332 7.9883C3.52231 7.67931 3.94377 7.49677 4.66442 7.39988C5.39946 7.30106 6.36739 7.3 7.72502 7.3V6.3ZM2.52502 12.5C2.52502 11.1424 2.52609 10.1744 2.62491 9.4394C2.7218 8.71875 2.90434 8.29729 3.21332 7.9883L2.50622 7.28119C1.98046 7.80695 1.74562 8.47461 1.63383 9.30615C1.52396 10.1233 1.52502 11.1706 1.52502 12.5H2.52502ZM5.84008 17.6838C4.35681 17.6391 3.66875 17.4671 3.21332 17.0117L2.50622 17.7188C3.26927 18.4819 4.34169 18.6391 5.80997 18.6833L5.84008 17.6838ZM17.2401 18.6833C18.7084 18.6391 19.7808 18.4819 20.5438 17.7188L19.8367 17.0117C19.3813 17.4671 18.6932 17.6391 17.21 17.6838L17.2401 18.6833ZM16.725 16.3C16.725 17.6576 16.724 18.6256 16.6251 19.3606C16.5283 20.0813 16.3457 20.5027 16.0367 20.8117L16.7438 21.5188C17.2696 20.993 17.5044 20.3254 17.6162 19.4938C17.7261 18.6767 17.725 17.6294 17.725 16.3H16.725ZM11.525 22.5C12.8544 22.5 13.9017 22.5011 14.7189 22.3912C15.5504 22.2794 16.2181 22.0446 16.7438 21.5188L16.0367 20.8117C15.7277 21.1207 15.3063 21.3032 14.5856 21.4001C13.8506 21.4989 12.8827 21.5 11.525 21.5V22.5ZM11.525 2.5C10.1957 2.5 9.14833 2.49894 8.33117 2.6088C7.49964 2.7206 6.83197 2.95544 6.30622 3.48119L7.01332 4.1883C7.32231 3.87931 7.74377 3.69677 8.46442 3.59988C9.19946 3.50106 10.1674 3.5 11.525 3.5V2.5ZM5.32502 16.3C5.32502 17.6294 5.32396 18.6767 5.43383 19.4938C5.54562 20.3254 5.78046 20.9931 6.30622 21.5188L7.01332 20.8117C6.70434 20.5027 6.5218 20.0813 6.42491 19.3606C6.32609 18.6256 6.32502 17.6576 6.32502 16.3H5.32502ZM11.525 21.5C10.1674 21.5 9.19946 21.4989 8.46442 21.4001C7.74377 21.3032 7.32231 21.1207 7.01332 20.8117L6.30622 21.5188C6.83197 22.0446 7.49964 22.2794 8.33118 22.3912C9.14833 22.5011 10.1957 22.5 11.525 22.5V21.5ZM6.34126 6.81506C6.38594 5.33179 6.5579 4.64373 7.01332 4.1883L6.30622 3.48119C5.54317 4.24424 5.38595 5.31666 5.34171 6.78494L6.34126 6.81506ZM17.725 16.3V12.5H16.725V16.3H17.725ZM6.32502 16.3V12.5H5.32502V16.3H6.32502ZM11.525 12.0503C14.6939 12.0503 16.9625 12.7116 18.4452 13.3773L18.8548 12.4651C17.246 11.7427 14.8379 11.0503 11.525 11.0503V12.0503ZM4.60482 13.3773C6.0875 12.7116 8.35616 12.0503 11.525 12.0503V11.0503C8.21211 11.0503 5.80408 11.7427 4.19523 12.4651L4.60482 13.3773ZM18.5286 10.0036L22.3286 6.20355L21.6215 5.49645L17.8215 9.29645L18.5286 10.0036ZM21.475 5.85V8.7H22.475V5.85H21.475ZM21.975 5.35H19.125V6.35H21.975V5.35Z" fill="#424242"/>
</svg>
