<svg width="24" height="24" viewBox="0 0 24 24" fill="none" xmlns="http://www.w3.org/2000/svg">
<path d="M21.5476 12.4706C21.5476 12.1944 21.3238 11.9706 21.0476 11.9706C20.7715 11.9706 20.5476 12.1944 20.5476 12.4706H21.5476ZM13.4286 5.44118C13.7047 5.44118 13.9286 5.21732 13.9286 4.94118C13.9286 4.66503 13.7047 4.44118 13.4286 4.44118V5.44118ZM6.12738 8.31992C5.91421 8.14437 5.5991 8.17487 5.42356 8.38803C5.24801 8.60119 5.27851 8.9163 5.49167 9.09185L6.12738 8.31992ZM7.86562 10.3991L7.54776 10.7851L7.86562 10.3991ZM15.4999 10.7851C15.713 10.6096 15.7435 10.2944 15.568 10.0813C15.3924 9.86812 15.0773 9.83762 14.8642 10.0132L15.4999 10.7851ZM17.839 7.40907C17.6426 7.60317 17.6407 7.91975 17.8348 8.11616C18.0289 8.31258 18.3455 8.31445 18.5419 8.12035L17.839 7.40907ZM22 4H22.5C22.5 3.72386 22.2761 3.5 22 3.5V4ZM21.5 6.82353C21.5 7.09967 21.7239 7.32353 22 7.32353C22.2761 7.32353 22.5 7.09967 22.5 6.82353H21.5ZM19.1429 3.5C18.8667 3.5 18.6429 3.72386 18.6429 4C18.6429 4.27614 18.8667 4.5 19.1429 4.5V3.5ZM13.4286 19.5H9.61905V20.5H13.4286V19.5ZM9.61905 19.5C7.80925 19.5 6.50161 19.499 5.50482 19.3665C4.52181 19.2359 3.91652 18.9857 3.46724 18.5417L2.76433 19.253C3.43083 19.9116 4.28135 20.2128 5.37311 20.3578C6.45109 20.501 7.83719 20.5 9.61905 20.5V19.5ZM1.5 12.4706C1.5 14.231 1.49891 15.6022 1.64404 16.6689C1.7912 17.7506 2.09701 18.5935 2.76433 19.253L3.46724 18.5417C3.01877 18.0985 2.76669 17.5027 2.63491 16.5341C2.50109 15.5504 2.5 14.2596 2.5 12.4706H1.5ZM20.5476 12.4706C20.5476 14.2596 20.5465 15.5504 20.4127 16.5341C20.2809 17.5027 20.0288 18.0985 19.5804 18.5417L20.2833 19.253C20.9506 18.5935 21.2564 17.7506 21.4036 16.6689C21.5487 15.6022 21.5476 14.231 21.5476 12.4706H20.5476ZM13.4286 20.5C15.2104 20.5 16.5965 20.501 17.6745 20.3578C18.7663 20.2128 19.6168 19.9116 20.2833 19.253L19.5804 18.5417C19.1311 18.9857 18.5258 19.2359 17.5428 19.3665C16.546 19.499 15.2384 19.5 13.4286 19.5V20.5ZM9.61905 4.44118C7.83719 4.44118 6.45109 4.44014 5.37311 4.58336C4.28135 4.72842 3.43083 5.02954 2.76433 5.68819L3.46724 6.39947C3.91652 5.95547 4.52181 5.70526 5.50482 5.57465C6.50161 5.44221 7.80925 5.44118 9.61905 5.44118V4.44118ZM2.5 12.4706C2.5 10.6816 2.50109 9.39073 2.63491 8.40708C2.76669 7.43843 3.01877 6.84266 3.46724 6.39947L2.76433 5.68819C2.09701 6.34766 1.7912 7.19057 1.64404 8.27228C1.49891 9.339 1.5 10.7102 1.5 12.4706H2.5ZM9.61905 5.44118H13.4286V4.44118H9.61905V5.44118ZM5.49167 9.09185L7.54776 10.7851L8.18347 10.0132L6.12738 8.31992L5.49167 9.09185ZM7.54776 10.7851C8.4126 11.4973 9.0959 12.0612 9.69454 12.4417C10.305 12.8297 10.8762 13.0599 11.5238 13.0599V12.0599C11.137 12.0599 10.7537 11.93 10.2309 11.5977C9.69639 11.258 9.06781 10.7414 8.18347 10.0132L7.54776 10.7851ZM14.8642 10.0132C13.9798 10.7414 13.3512 11.258 12.8167 11.5977C12.2939 11.93 11.9106 12.0599 11.5238 12.0599V13.0599C12.1715 13.0599 12.7427 12.8297 13.3531 12.4417C13.9517 12.0612 14.635 11.4973 15.4999 10.7851L14.8642 10.0132ZM18.5419 8.12035L22.3515 4.35564L21.6485 3.64436L17.839 7.40907L18.5419 8.12035ZM21.5 4V6.82353H22.5V4H21.5ZM22 3.5H19.1429V4.5H22V3.5Z" fill="#424242"/>
</svg>
