<svg width="24" height="24" viewBox="0 0 24 24" fill="none" xmlns="http://www.w3.org/2000/svg">
<path d="M21.5 2C21.5 1.72386 21.2761 1.5 21 1.5C20.7239 1.5 20.5 1.72386 20.5 2H21.5ZM20.5 22C20.5 22.2761 20.7239 22.5 21 22.5C21.2761 22.5 21.5 22.2761 21.5 22H20.5ZM10.2 15.6785L10.45 15.2454V15.2454L10.2 15.6785ZM9.32154 14.8L9.75455 14.55V14.55L9.32154 14.8ZM16.6785 14.8L16.2454 14.55V14.55L16.6785 14.8ZM15.8 15.6785L15.55 15.2454V15.2454L15.8 15.6785ZM15.8 8.32154L15.55 8.75455V8.75455L15.8 8.32154ZM16.6785 9.2L16.2454 9.45V9.45L16.6785 9.2ZM10.2 8.32154L10.45 8.75455V8.75455L10.2 8.32154ZM9.32154 9.2L9.75455 9.45V9.45L9.32154 9.2ZM20.5 2V22H21.5V2H20.5ZM13 15.5C12.2431 15.5 11.7089 15.4995 11.2932 15.4618C10.8844 15.4248 10.6397 15.355 10.45 15.2454L9.95 16.1115C10.3172 16.3235 10.7248 16.4144 11.2029 16.4578C11.6742 16.5005 12.2615 16.5 13 16.5V15.5ZM8.5 12C8.5 12.7385 8.49952 13.3258 8.54223 13.7971C8.58557 14.2752 8.6765 14.6828 8.88853 15.05L9.75455 14.55C9.64504 14.3603 9.5752 14.1156 9.53815 13.7068C9.50048 13.2911 9.5 12.7569 9.5 12H8.5ZM10.45 15.2454C10.1612 15.0787 9.92131 14.8388 9.75455 14.55L8.88853 15.05C9.14305 15.4909 9.50914 15.8569 9.95 16.1115L10.45 15.2454ZM16.5 12C16.5 12.7569 16.4995 13.2911 16.4618 13.7068C16.4248 14.1156 16.355 14.3603 16.2454 14.55L17.1115 15.05C17.3235 14.6828 17.4144 14.2752 17.4578 13.7971C17.5005 13.3258 17.5 12.7385 17.5 12H16.5ZM13 16.5C13.7385 16.5 14.3258 16.5005 14.7971 16.4578C15.2752 16.4144 15.6828 16.3235 16.05 16.1115L15.55 15.2454C15.3603 15.355 15.1156 15.4248 14.7068 15.4618C14.2911 15.4995 13.7569 15.5 13 15.5V16.5ZM16.2454 14.55C16.0787 14.8388 15.8388 15.0787 15.55 15.2454L16.05 16.1115C16.4909 15.8569 16.8569 15.4909 17.1115 15.05L16.2454 14.55ZM13 8.5C13.7569 8.5 14.2911 8.50048 14.7068 8.53815C15.1156 8.5752 15.3603 8.64504 15.55 8.75455L16.05 7.88853C15.6828 7.6765 15.2752 7.58557 14.7971 7.54223C14.3258 7.49952 13.7385 7.5 13 7.5V8.5ZM17.5 12C17.5 11.2615 17.5005 10.6742 17.4578 10.2029C17.4144 9.7248 17.3235 9.31724 17.1115 8.95L16.2454 9.45C16.355 9.63968 16.4248 9.88443 16.4618 10.2932C16.4995 10.7089 16.5 11.2431 16.5 12H17.5ZM15.55 8.75455C15.8388 8.92131 16.0787 9.16116 16.2454 9.45L17.1115 8.95C16.8569 8.50914 16.4909 8.14305 16.05 7.88853L15.55 8.75455ZM13 7.5C12.2615 7.5 11.6742 7.49952 11.2029 7.54223C10.7248 7.58557 10.3172 7.6765 9.95 7.88853L10.45 8.75455C10.6397 8.64504 10.8844 8.5752 11.2932 8.53815C11.7089 8.50048 12.2431 8.5 13 8.5V7.5ZM9.5 12C9.5 11.2431 9.50048 10.7089 9.53815 10.2932C9.5752 9.88443 9.64504 9.63968 9.75455 9.45L8.88853 8.95C8.6765 9.31724 8.58557 9.7248 8.54223 10.2029C8.49952 10.6742 8.5 11.2615 8.5 12H9.5ZM9.95 7.88853C9.50914 8.14305 9.14305 8.50914 8.88853 8.95L9.75455 9.45C9.92131 9.16116 10.1612 8.92131 10.45 8.75455L9.95 7.88853Z" fill="#424242"/>
</svg>
