<svg width="24" height="24" viewBox="0 0 24 24" fill="none" xmlns="http://www.w3.org/2000/svg">
<path d="M2 20.5C1.72386 20.5 1.5 20.7239 1.5 21C1.5 21.2761 1.72386 21.5 2 21.5V21V20.5ZM22 21.5C22.2761 21.5 22.5 21.2761 22.5 21C22.5 20.7239 22.2761 20.5 22 20.5V21V21.5ZM9.2 16.6785L9.45 16.2454V16.2454L9.2 16.6785ZM8.32154 15.8L8.75455 15.55V15.55L8.32154 15.8ZM15.6785 15.8L15.2454 15.55V15.55L15.6785 15.8ZM14.8 16.6785L14.55 16.2454V16.2454L14.8 16.6785ZM14.8 9.32154L14.55 9.75455V9.75455L14.8 9.32154ZM15.6785 10.2L15.2454 10.45V10.45L15.6785 10.2ZM9.2 9.32154L9.45 9.75455V9.75455L9.2 9.32154ZM8.32154 10.2L8.75455 10.45V10.45L8.32154 10.2ZM2 21V21.5H22V21V20.5H2V21ZM12 17V16.5C11.2431 16.5 10.7089 16.4995 10.2932 16.4618C9.88443 16.4248 9.63968 16.355 9.45 16.2454L9.2 16.6785L8.95 17.1115C9.31724 17.3235 9.7248 17.4144 10.2029 17.4578C10.6742 17.5005 11.2615 17.5 12 17.5V17ZM8 13H7.5C7.5 13.7385 7.49952 14.3258 7.54223 14.7971C7.58557 15.2752 7.6765 15.6828 7.88853 16.05L8.32154 15.8L8.75455 15.55C8.64504 15.3603 8.5752 15.1156 8.53815 14.7068C8.50048 14.2911 8.5 13.7569 8.5 13H8ZM9.2 16.6785L9.45 16.2454C9.16116 16.0787 8.92131 15.8388 8.75455 15.55L8.32154 15.8L7.88853 16.05C8.14305 16.4909 8.50914 16.8569 8.95 17.1115L9.2 16.6785ZM16 13H15.5C15.5 13.7569 15.4995 14.2911 15.4618 14.7068C15.4248 15.1156 15.355 15.3603 15.2454 15.55L15.6785 15.8L16.1115 16.05C16.3235 15.6828 16.4144 15.2752 16.4578 14.7971C16.5005 14.3258 16.5 13.7385 16.5 13H16ZM12 17V17.5C12.7385 17.5 13.3258 17.5005 13.7971 17.4578C14.2752 17.4144 14.6828 17.3235 15.05 17.1115L14.8 16.6785L14.55 16.2454C14.3603 16.355 14.1156 16.4248 13.7068 16.4618C13.2911 16.4995 12.7569 16.5 12 16.5V17ZM15.6785 15.8L15.2454 15.55C15.0787 15.8388 14.8388 16.0787 14.55 16.2454L14.8 16.6785L15.05 17.1115C15.4909 16.8569 15.8569 16.4909 16.1115 16.05L15.6785 15.8ZM12 9V9.5C12.7569 9.5 13.2911 9.50048 13.7068 9.53815C14.1156 9.5752 14.3603 9.64504 14.55 9.75455L14.8 9.32154L15.05 8.88853C14.6828 8.6765 14.2752 8.58557 13.7971 8.54223C13.3258 8.49952 12.7385 8.5 12 8.5V9ZM16 13H16.5C16.5 12.2615 16.5005 11.6742 16.4578 11.2029C16.4144 10.7248 16.3235 10.3172 16.1115 9.95L15.6785 10.2L15.2454 10.45C15.355 10.6397 15.4248 10.8844 15.4618 11.2932C15.4995 11.7089 15.5 12.2431 15.5 13H16ZM14.8 9.32154L14.55 9.75455C14.8388 9.92131 15.0787 10.1612 15.2454 10.45L15.6785 10.2L16.1115 9.95C15.8569 9.50914 15.4909 9.14305 15.05 8.88853L14.8 9.32154ZM12 9V8.5C11.2615 8.5 10.6742 8.49952 10.2029 8.54223C9.7248 8.58557 9.31724 8.6765 8.95 8.88853L9.2 9.32154L9.45 9.75455C9.63968 9.64504 9.88443 9.5752 10.2932 9.53815C10.7089 9.50048 11.2431 9.5 12 9.5V9ZM8 13H8.5C8.5 12.2431 8.50048 11.7089 8.53815 11.2932C8.5752 10.8844 8.64504 10.6397 8.75455 10.45L8.32154 10.2L7.88853 9.95C7.6765 10.3172 7.58557 10.7248 7.54223 11.2029C7.49952 11.6742 7.5 12.2615 7.5 13H8ZM9.2 9.32154L8.95 8.88853C8.50914 9.14305 8.14305 9.50914 7.88853 9.95L8.32154 10.2L8.75455 10.45C8.92131 10.1612 9.16116 9.92131 9.45 9.75455L9.2 9.32154Z" fill="#424242"/>
</svg>
