<svg width="24" height="24" viewBox="0 0 24 24" fill="none" xmlns="http://www.w3.org/2000/svg">
<path d="M3.5 2C3.5 1.72386 3.27614 1.5 3 1.5C2.72386 1.5 2.5 1.72386 2.5 2H3.5ZM2.5 22C2.5 22.2761 2.72386 22.5 3 22.5C3.27614 22.5 3.5 22.2761 3.5 22H2.5ZM8.2 15.6785L8.45 15.2454V15.2454L8.2 15.6785ZM7.32154 14.8L7.75455 14.55V14.55L7.32154 14.8ZM14.6785 14.8L14.2454 14.55V14.55L14.6785 14.8ZM13.8 15.6785L13.55 15.2454V15.2454L13.8 15.6785ZM13.8 8.32154L13.55 8.75455V8.75455L13.8 8.32154ZM14.6785 9.2L14.2454 9.45V9.45L14.6785 9.2ZM8.2 8.32154L8.45 8.75455V8.75455L8.2 8.32154ZM7.32154 9.2L7.75455 9.45V9.45L7.32154 9.2ZM2.5 2V22H3.5V2H2.5ZM11 15.5C10.2431 15.5 9.70886 15.4995 9.29321 15.4618C8.88443 15.4248 8.63968 15.355 8.45 15.2454L7.95 16.1115C8.31724 16.3235 8.7248 16.4144 9.20294 16.4578C9.67421 16.5005 10.2615 16.5 11 16.5V15.5ZM6.5 12C6.5 12.7385 6.49952 13.3258 6.54223 13.7971C6.58557 14.2752 6.6765 14.6828 6.88853 15.05L7.75455 14.55C7.64504 14.3603 7.5752 14.1156 7.53815 13.7068C7.50048 13.2911 7.5 12.7569 7.5 12H6.5ZM8.45 15.2454C8.16116 15.0787 7.92131 14.8388 7.75455 14.55L6.88853 15.05C7.14305 15.4909 7.50914 15.8569 7.95 16.1115L8.45 15.2454ZM14.5 12C14.5 12.7569 14.4995 13.2911 14.4618 13.7068C14.4248 14.1156 14.355 14.3603 14.2454 14.55L15.1115 15.05C15.3235 14.6828 15.4144 14.2752 15.4578 13.7971C15.5005 13.3258 15.5 12.7385 15.5 12H14.5ZM11 16.5C11.7385 16.5 12.3258 16.5005 12.7971 16.4578C13.2752 16.4144 13.6828 16.3235 14.05 16.1115L13.55 15.2454C13.3603 15.355 13.1156 15.4248 12.7068 15.4618C12.2911 15.4995 11.7569 15.5 11 15.5V16.5ZM14.2454 14.55C14.0787 14.8388 13.8388 15.0787 13.55 15.2454L14.05 16.1115C14.4909 15.8569 14.8569 15.4909 15.1115 15.05L14.2454 14.55ZM11 8.5C11.7569 8.5 12.2911 8.50048 12.7068 8.53815C13.1156 8.5752 13.3603 8.64504 13.55 8.75455L14.05 7.88853C13.6828 7.6765 13.2752 7.58557 12.7971 7.54223C12.3258 7.49952 11.7385 7.5 11 7.5V8.5ZM15.5 12C15.5 11.2615 15.5005 10.6742 15.4578 10.2029C15.4144 9.7248 15.3235 9.31724 15.1115 8.95L14.2454 9.45C14.355 9.63968 14.4248 9.88443 14.4618 10.2932C14.4995 10.7089 14.5 11.2431 14.5 12H15.5ZM13.55 8.75455C13.8388 8.92131 14.0787 9.16116 14.2454 9.45L15.1115 8.95C14.8569 8.50914 14.4909 8.14305 14.05 7.88853L13.55 8.75455ZM11 7.5C10.2615 7.5 9.67421 7.49952 9.20294 7.54223C8.7248 7.58557 8.31724 7.6765 7.95 7.88853L8.45 8.75455C8.63968 8.64504 8.88443 8.5752 9.29321 8.53815C9.70886 8.50048 10.2431 8.5 11 8.5V7.5ZM7.5 12C7.5 11.2431 7.50048 10.7089 7.53815 10.2932C7.5752 9.88443 7.64504 9.63968 7.75455 9.45L6.88853 8.95C6.6765 9.31724 6.58557 9.7248 6.54223 10.2029C6.49952 10.6742 6.5 11.2615 6.5 12H7.5ZM7.95 7.88853C7.50914 8.14305 7.14305 8.50914 6.88853 8.95L7.75455 9.45C7.92131 9.16116 8.16116 8.92131 8.45 8.75455L7.95 7.88853Z" fill="#424242"/>
</svg>
