<svg width="24" height="24" viewBox="0 0 24 24" fill="none" xmlns="http://www.w3.org/2000/svg">
<path d="M2 2.5C1.72386 2.5 1.5 2.72386 1.5 3C1.5 3.27614 1.72386 3.5 2 3.5V3V2.5ZM22 3.5C22.2761 3.5 22.5 3.27614 22.5 3C22.5 2.72386 22.2761 2.5 22 2.5V3V3.5ZM9.2 14.6785L9.45 14.2454V14.2454L9.2 14.6785ZM8.32154 13.8L8.75455 13.55V13.55L8.32154 13.8ZM15.6785 13.8L15.2454 13.55V13.55L15.6785 13.8ZM14.8 14.6785L14.55 14.2454V14.2454L14.8 14.6785ZM14.8 7.32154L14.55 7.75455V7.75455L14.8 7.32154ZM15.6785 8.2L15.2454 8.45V8.45L15.6785 8.2ZM9.2 7.32154L9.45 7.75455V7.75455L9.2 7.32154ZM8.32154 8.2L8.75455 8.45V8.45L8.32154 8.2ZM2 3V3.5H22V3V2.5H2V3ZM12 15V14.5C11.2431 14.5 10.7089 14.4995 10.2932 14.4618C9.88443 14.4248 9.63968 14.355 9.45 14.2454L9.2 14.6785L8.95 15.1115C9.31724 15.3235 9.7248 15.4144 10.2029 15.4578C10.6742 15.5005 11.2615 15.5 12 15.5V15ZM8 11H7.5C7.5 11.7385 7.49952 12.3258 7.54223 12.7971C7.58557 13.2752 7.6765 13.6828 7.88853 14.05L8.32154 13.8L8.75455 13.55C8.64504 13.3603 8.5752 13.1156 8.53815 12.7068C8.50048 12.2911 8.5 11.7569 8.5 11H8ZM9.2 14.6785L9.45 14.2454C9.16116 14.0787 8.92131 13.8388 8.75455 13.55L8.32154 13.8L7.88853 14.05C8.14305 14.4909 8.50914 14.8569 8.95 15.1115L9.2 14.6785ZM16 11H15.5C15.5 11.7569 15.4995 12.2911 15.4618 12.7068C15.4248 13.1156 15.355 13.3603 15.2454 13.55L15.6785 13.8L16.1115 14.05C16.3235 13.6828 16.4144 13.2752 16.4578 12.7971C16.5005 12.3258 16.5 11.7385 16.5 11H16ZM12 15V15.5C12.7385 15.5 13.3258 15.5005 13.7971 15.4578C14.2752 15.4144 14.6828 15.3235 15.05 15.1115L14.8 14.6785L14.55 14.2454C14.3603 14.355 14.1156 14.4248 13.7068 14.4618C13.2911 14.4995 12.7569 14.5 12 14.5V15ZM15.6785 13.8L15.2454 13.55C15.0787 13.8388 14.8388 14.0787 14.55 14.2454L14.8 14.6785L15.05 15.1115C15.4909 14.8569 15.8569 14.4909 16.1115 14.05L15.6785 13.8ZM12 7V7.5C12.7569 7.5 13.2911 7.50048 13.7068 7.53815C14.1156 7.5752 14.3603 7.64504 14.55 7.75455L14.8 7.32154L15.05 6.88853C14.6828 6.6765 14.2752 6.58557 13.7971 6.54223C13.3258 6.49952 12.7385 6.5 12 6.5V7ZM16 11H16.5C16.5 10.2615 16.5005 9.67421 16.4578 9.20294C16.4144 8.7248 16.3235 8.31724 16.1115 7.95L15.6785 8.2L15.2454 8.45C15.355 8.63968 15.4248 8.88443 15.4618 9.29321C15.4995 9.70886 15.5 10.2431 15.5 11H16ZM14.8 7.32154L14.55 7.75455C14.8388 7.92131 15.0787 8.16116 15.2454 8.45L15.6785 8.2L16.1115 7.95C15.8569 7.50914 15.4909 7.14305 15.05 6.88853L14.8 7.32154ZM12 7V6.5C11.2615 6.5 10.6742 6.49952 10.2029 6.54223C9.7248 6.58557 9.31724 6.6765 8.95 6.88853L9.2 7.32154L9.45 7.75455C9.63968 7.64504 9.88443 7.5752 10.2932 7.53815C10.7089 7.50048 11.2431 7.5 12 7.5V7ZM8 11H8.5C8.5 10.2431 8.50048 9.70886 8.53815 9.29321C8.5752 8.88443 8.64504 8.63968 8.75455 8.45L8.32154 8.2L7.88853 7.95C7.6765 8.31724 7.58557 8.7248 7.54223 9.20294C7.49952 9.67421 7.5 10.2615 7.5 11H8ZM9.2 7.32154L8.95 6.88853C8.50914 7.14305 8.14305 7.50914 7.88853 7.95L8.32154 8.2L8.75455 8.45C8.92131 8.16116 9.16116 7.92131 9.45 7.75455L9.2 7.32154Z" fill="#424242"/>
</svg>
