<svg width="24" height="24" viewBox="0 0 24 24" fill="none" xmlns="http://www.w3.org/2000/svg">
<path d="M20.5 7.49994L20.8536 7.14639V7.14639L20.5 7.49994ZM20.6515 7.65468L20.2815 7.991L20.6515 7.65468ZM20.6515 10.3452L21.0215 10.6815L20.6515 10.3452ZM13.6547 3.34841L13.9911 3.7184L13.6547 3.34841ZM16.5 3.49994L16.1464 3.85349V3.8535L16.5 3.49994ZM16.3453 3.34841L16.6816 2.97842L16.3453 3.34841ZM13.5 6.49994L13.1464 6.85349V6.85349L13.5 6.49994ZM13.3485 6.3452L13.7185 6.00889L13.3485 6.3452ZM13.3485 3.65468L12.9785 3.31837L13.3485 3.65468ZM17.5 10.4999L17.8536 10.1464V10.1464L17.5 10.4999ZM17.6547 10.6515L17.3184 11.0215L17.6547 10.6515ZM20.3453 10.6515L20.0089 10.2815L20.3453 10.6515ZM13 5.99994L13.3536 5.64639L13.1643 5.45717L12.9019 5.50965L13 5.99994ZM2 21.9999L1.51396 21.8826L1.32198 22.678L2.11732 22.486L2 21.9999ZM18 10.9999L18.4903 11.098L18.5428 10.8356L18.3536 10.6464L18 10.9999ZM10.2929 19.9982L10.4102 20.4843L10.2929 19.9982ZM17.7523 12.2386L18.2426 12.3366V12.3366L17.7523 12.2386ZM11.7614 6.24766L11.8594 6.73795V6.73795L11.7614 6.24766ZM4.00173 13.7071L4.48777 13.8244L4.00173 13.7071ZM9.93955 14.7675C10.1348 14.5722 10.1348 14.2557 9.93955 14.0604C9.74429 13.8651 9.42771 13.8651 9.23245 14.0604L9.93955 14.7675ZM11 10.9999V11.4999V10.9999ZM13 12.9999H13.5H13ZM11 14.9999V15.4999V14.9999ZM9 12.9999H9.5H9ZM17.8536 10.1464L13.8536 6.14639L13.1464 6.85349L17.1464 10.8535L17.8536 10.1464ZM16.1464 3.8535L20.1464 7.8535L20.8536 7.14639L16.8536 3.14639L16.1464 3.8535ZM20.1464 7.8535C20.2302 7.93722 20.2595 7.96677 20.2815 7.991L21.0215 7.31837C20.9794 7.27207 20.9291 7.22197 20.8536 7.14639L20.1464 7.8535ZM20.8536 10.8535C20.9291 10.7779 20.9794 10.7278 21.0215 10.6815L20.2815 10.0089C20.2595 10.0331 20.2302 10.0627 20.1464 10.1464L20.8536 10.8535ZM20.2815 7.991C20.8016 8.56311 20.8016 9.43677 20.2815 10.0089L21.0215 10.6815C21.8883 9.72799 21.8883 8.27189 21.0215 7.31837L20.2815 7.991ZM13.8536 3.8535C13.9373 3.76977 13.9668 3.74042 13.9911 3.7184L13.3184 2.97842C13.2721 3.0205 13.222 3.07081 13.1464 3.14639L13.8536 3.8535ZM16.8536 3.14639C16.778 3.07081 16.7279 3.0205 16.6816 2.97842L16.0089 3.7184C16.0332 3.74042 16.0627 3.76977 16.1464 3.85349L16.8536 3.14639ZM13.9911 3.7184C14.5632 3.19836 15.4368 3.19836 16.0089 3.7184L16.6816 2.97842C15.7281 2.11169 14.2719 2.11169 13.3184 2.97842L13.9911 3.7184ZM13.8536 6.14639C13.7698 6.06266 13.7405 6.03311 13.7185 6.00889L12.9785 6.68151C13.0206 6.72781 13.0709 6.77792 13.1464 6.85349L13.8536 6.14639ZM13.1464 3.14639C13.0709 3.22197 13.0206 3.27207 12.9785 3.31837L13.7185 3.991C13.7405 3.96677 13.7698 3.93722 13.8536 3.8535L13.1464 3.14639ZM13.7185 6.00889C13.1984 5.43677 13.1984 4.56311 13.7185 3.991L12.9785 3.31837C12.1117 4.27189 12.1117 5.72799 12.9785 6.68151L13.7185 6.00889ZM17.1464 10.8535C17.222 10.9291 17.2721 10.9794 17.3184 11.0215L17.9911 10.2815C17.9668 10.2595 17.9373 10.2301 17.8536 10.1464L17.1464 10.8535ZM20.1464 10.1464C20.0627 10.2301 20.0332 10.2595 20.0089 10.2815L20.6816 11.0215C20.7279 10.9794 20.778 10.9291 20.8536 10.8535L20.1464 10.1464ZM17.3184 11.0215C18.2719 11.8882 19.7281 11.8882 20.6816 11.0215L20.0089 10.2815C19.4368 10.8015 18.5632 10.8015 17.9911 10.2815L17.3184 11.0215ZM12.9019 5.50965L11.6633 5.75737L11.8594 6.73795L13.0981 6.49023L12.9019 5.50965ZM3.51569 13.5897L1.51396 21.8826L2.48604 22.1173L4.48777 13.8244L3.51569 13.5897ZM2.11732 22.486L10.4102 20.4843L10.1756 19.5122L1.88268 21.5139L2.11732 22.486ZM18.2426 12.3366L18.4903 11.098L17.5097 10.9019L17.262 12.1405L18.2426 12.3366ZM18.3536 10.6464L13.3536 5.64639L12.6464 6.3535L17.6464 11.3535L18.3536 10.6464ZM10.4102 20.4843C11.9076 20.1228 13.0684 19.8433 13.9794 19.5188C14.9015 19.1904 15.6096 18.8023 16.1883 18.2003L15.4674 17.5073C15.0341 17.9579 14.4824 18.2781 13.6439 18.5768C12.7941 18.8794 11.6935 19.1458 10.1756 19.5122L10.4102 20.4843ZM17.262 12.1405C16.9558 13.6717 16.733 14.782 16.4641 15.643C16.1988 16.4927 15.9006 17.0566 15.4674 17.5073L16.1883 18.2003C16.767 17.5983 17.1269 16.8754 17.4187 15.9411C17.7069 15.0181 17.9405 13.8471 18.2426 12.3366L17.262 12.1405ZM11.6633 5.75737C10.1528 6.05948 8.98187 6.29301 8.05885 6.58127C7.1245 6.87307 6.40167 7.23294 5.79966 7.81166L6.49268 8.53258C6.94335 8.09935 7.50728 7.80116 8.35695 7.53581C9.21795 7.26691 10.3283 7.04419 11.8594 6.73795L11.6633 5.75737ZM4.48777 13.8244C4.85416 12.3065 5.1205 11.2058 5.42315 10.3561C5.72181 9.51754 6.04201 8.96581 6.49268 8.53258L5.79966 7.81166C5.19764 8.39038 4.80954 9.09846 4.48112 10.0206C4.15667 10.9315 3.87714 12.0923 3.51569 13.5897L4.48777 13.8244ZM2.35355 22.3535L9.93955 14.7675L9.23245 14.0604L1.64645 21.6464L2.35355 22.3535ZM11 11.4999C11.8284 11.4999 12.5 12.1715 12.5 12.9999H13.5C13.5 11.6192 12.3807 10.4999 11 10.4999V11.4999ZM12.5 12.9999C12.5 13.8284 11.8284 14.4999 11 14.4999V15.4999C12.3807 15.4999 13.5 14.3807 13.5 12.9999H12.5ZM11 14.4999C10.1716 14.4999 9.5 13.8284 9.5 12.9999H8.5C8.5 14.3807 9.61929 15.4999 11 15.4999V14.4999ZM9.5 12.9999C9.5 12.1715 10.1716 11.4999 11 11.4999V10.4999C9.61929 10.4999 8.5 11.6192 8.5 12.9999H9.5Z" fill="#424242"/>
</svg>
