<svg width="24" height="24" viewBox="0 0 24 24" fill="none" xmlns="http://www.w3.org/2000/svg">
<path d="M5.6681 5.6681L6.02165 6.02165V6.02165L5.6681 5.6681ZM18.3959 5.60414L18.7494 5.25059V5.25059L18.3959 5.60414ZM5.25059 18.7494C5.44585 18.9447 5.76243 18.9447 5.95769 18.7494C6.15296 18.5542 6.15296 18.2376 5.95769 18.0423L5.25059 18.7494ZM19.6622 6.87052L19.6648 7.37051C19.9389 7.36914 20.1609 7.14721 20.1622 6.87303L19.6622 6.87052ZM17.1142 6.38332C16.838 6.38471 16.6153 6.60969 16.6167 6.88583C16.6181 7.16196 16.8431 7.38469 17.1192 7.38331L17.1142 6.38332ZM20.175 4.32748C20.1764 4.05134 19.9537 3.82636 19.6775 3.82498C19.4014 3.82359 19.1764 4.04632 19.175 4.32246L20.175 4.32748ZM21.4118 10.6152C21.3743 10.3416 21.1221 10.1502 20.8485 10.1877C20.575 10.2252 20.3836 10.4774 20.4211 10.751L21.4118 10.6152ZM20.0276 14.7148C19.9371 14.9758 20.0753 15.2606 20.3362 15.351C20.5971 15.4415 20.882 15.3033 20.9724 15.0424L20.0276 14.7148ZM18.6855 18.6855C18.8807 18.4902 18.8807 18.1736 18.6855 17.9783C18.4902 17.7831 18.1736 17.7831 17.9783 17.9783L18.6855 18.6855ZM14.8295 19.9869C14.5699 20.0811 14.4358 20.3679 14.53 20.6274C14.6241 20.887 14.9109 21.0211 15.1705 20.927L14.8295 19.9869ZM10.9497 21.4516C11.2244 21.4794 11.4697 21.2792 11.4975 21.0045C11.5252 20.7297 11.325 20.4845 11.0503 20.4567L10.9497 21.4516ZM7.27525 19.1179C7.04471 18.9659 6.73459 19.0295 6.58258 19.2601C6.43056 19.4906 6.49422 19.8007 6.72475 19.9527L7.27525 19.1179ZM12 11.9999H11.5V12.207L11.6464 12.3535L12 11.9999ZM12.5 7.99994C12.5 7.7238 12.2761 7.49994 12 7.49994C11.7239 7.49994 11.5 7.7238 11.5 7.99994H12.5ZM14.1464 14.8535C14.3417 15.0488 14.6583 15.0488 14.8536 14.8535C15.0488 14.6582 15.0488 14.3416 14.8536 14.1464L14.1464 14.8535ZM6.02165 6.02165C9.36208 2.68122 14.7439 2.65928 18.0423 5.95769L18.7494 5.25059C15.0538 1.55497 9.03878 1.59031 5.31455 5.31455L6.02165 6.02165ZM5.95769 18.0423C2.65929 14.7439 2.68122 9.36209 6.02165 6.02165L5.31455 5.31455C1.59031 9.03879 1.55497 15.0538 5.25059 18.7494L5.95769 18.0423ZM18.0423 5.95769L19.3087 7.22407L20.0158 6.51697L18.7494 5.25059L18.0423 5.95769ZM19.6597 6.37053L17.1142 6.38332L17.1192 7.38331L19.6648 7.37051L19.6597 6.37053ZM20.1622 6.87303L20.175 4.32748L19.175 4.32246L19.1622 6.86801L20.1622 6.87303ZM20.4211 10.751C20.6025 12.0743 20.4711 13.4355 20.0276 14.7148L20.9724 15.0424C21.4678 13.6137 21.6145 12.0937 21.4118 10.6152L20.4211 10.751ZM17.9783 17.9783C17.0551 18.9016 15.9766 19.5708 14.8295 19.9869L15.1705 20.927C16.4526 20.4619 17.6567 19.7142 18.6855 18.6855L17.9783 17.9783ZM11.0503 20.4567C9.72285 20.3225 8.42514 19.8761 7.27525 19.1179L6.72475 19.9527C8.01346 20.8025 9.46636 21.3016 10.9497 21.4516L11.0503 20.4567ZM12.5 11.9999V7.99994H11.5V11.9999H12.5ZM11.6464 12.3535L14.1464 14.8535L14.8536 14.1464L12.3536 11.6464L11.6464 12.3535Z" fill="#424242"/>
</svg>
