<svg width="24" height="24" viewBox="0 0 24 24" fill="none" xmlns="http://www.w3.org/2000/svg">
<path d="M13.5453 1.50205C13.2703 1.47705 13.0271 1.67972 13.0021 1.95473C12.9771 2.22974 13.1797 2.47295 13.4547 2.49795L13.5453 1.50205ZM18.8033 5.18198L19.1569 4.82843V4.82843L18.8033 5.18198ZM21.4873 10.5305C21.5123 10.8056 21.7555 11.0082 22.0305 10.9832C22.3056 10.9582 22.5082 10.715 22.4832 10.44L21.4873 10.5305ZM14.3444 5.05488C14.0789 4.97902 13.8021 5.13277 13.7263 5.39828C13.6504 5.6638 13.8042 5.94054 14.0697 6.01641L14.3444 5.05488ZM16.6819 7.30341L16.3284 7.65696V7.65696L16.6819 7.30341ZM17.9689 9.91565C18.0448 10.1812 18.3215 10.3349 18.587 10.259C18.8525 10.1832 19.0063 9.90644 18.9304 9.64092L17.9689 9.91565ZM15.1007 15.0272L15.4632 15.3715L15.4632 15.3715L15.1007 15.0272ZM15.5562 14.5477L15.1936 14.2034L15.1936 14.2034L15.5562 14.5477ZM17.9728 14.2123L17.7234 14.6457V14.6457L17.9728 14.2123ZM19.8833 15.312L19.6339 15.7453V15.7453L19.8833 15.312ZM20.4217 18.7584L20.7842 19.1028V19.1028L20.4217 18.7584ZM19.0011 20.254L18.6386 19.9097V19.9097L19.0011 20.254ZM17.6763 20.9631L17.7254 21.4607V21.4607L17.6763 20.9631ZM7.81536 16.4752L7.45283 16.8195V16.8195L7.81536 16.4752ZM3.00289 6.96594L2.50361 6.99273L2.50361 6.99273L3.00289 6.96594ZM9.1907 8.80507L9.55323 9.14942V9.14942L9.1907 8.80507ZM9.47752 8.50311L9.84005 8.84746V8.84746L9.47752 8.50311ZM9.63424 5.6931L10.0425 5.40444V5.40444L9.63424 5.6931ZM8.37326 3.90961L7.96499 4.19827V4.19827L8.37326 3.90961ZM5.26145 3.60864L5.62398 3.95299L5.62398 3.95299L5.26145 3.60864ZM3.69185 5.26114L3.32932 4.91679H3.32932L3.69185 5.26114ZM11.0631 13.0559L11.4257 12.7116V12.7116L11.0631 13.0559ZM13.5 2C13.4547 2.49795 13.4545 2.49792 13.4542 2.4979C13.4541 2.49789 13.4539 2.49787 13.4537 2.49785C13.4534 2.49783 13.4532 2.4978 13.4529 2.49778C13.4525 2.49773 13.4521 2.4977 13.452 2.49768C13.4516 2.49765 13.4518 2.49766 13.4525 2.49774C13.454 2.49791 13.4577 2.49832 13.4635 2.49907C13.4752 2.50056 13.4954 2.50337 13.5239 2.50811C13.5808 2.5176 13.6705 2.53481 13.7897 2.56462C14.0282 2.62423 14.3852 2.73434 14.8349 2.9342C15.7331 3.33341 17.008 4.09377 18.4497 5.53553L19.1569 4.82843C17.6288 3.30034 16.252 2.46971 15.241 2.02039C14.7361 1.79599 14.3242 1.66745 14.0323 1.59448C13.8864 1.558 13.7706 1.53544 13.6883 1.52172C13.6471 1.51486 13.6143 1.51021 13.5904 1.50715C13.5784 1.50561 13.5686 1.50448 13.5611 1.50365C13.5573 1.50324 13.5541 1.50291 13.5515 1.50265C13.5501 1.50251 13.549 1.5024 13.5479 1.5023C13.5474 1.50225 13.5469 1.50221 13.5465 1.50217C13.5463 1.50215 13.546 1.50212 13.5459 1.50211C13.5456 1.50208 13.5453 1.50205 13.5 2ZM18.4497 5.53553C19.8915 6.97729 20.6519 8.25217 21.0511 9.15039C21.2509 9.60009 21.3611 9.95711 21.4207 10.1955C21.4505 10.3148 21.4677 10.4045 21.4772 10.4614C21.4819 10.4899 21.4847 10.5101 21.4862 10.5218C21.487 10.5276 21.4874 10.5313 21.4875 10.5328C21.4876 10.5335 21.4876 10.5337 21.4876 10.5333C21.4876 10.5331 21.4875 10.5328 21.4875 10.5324C21.4875 10.5321 21.4875 10.5319 21.4874 10.5316C21.4874 10.5314 21.4874 10.5312 21.4874 10.5311C21.4874 10.5308 21.4873 10.5305 21.9853 10.4853C22.4832 10.44 22.4832 10.4397 22.4832 10.4394C22.4832 10.4393 22.4831 10.439 22.4831 10.4388C22.4831 10.4383 22.483 10.4379 22.483 10.4373C22.4829 10.4363 22.4828 10.4351 22.4826 10.4338C22.4824 10.4312 22.482 10.428 22.4816 10.4242C22.4808 10.4167 22.4797 10.4069 22.4781 10.3949C22.4751 10.3709 22.4704 10.3382 22.4636 10.297C22.4498 10.2147 22.4273 10.0989 22.3908 9.95301C22.3178 9.66111 22.1893 9.24915 21.9649 8.74425C21.5156 7.73329 20.6849 6.35652 19.1569 4.82843L18.4497 5.53553ZM14.207 5.53564C14.0697 6.01641 14.0694 6.01634 14.0692 6.01628C14.0691 6.01626 14.0689 6.01619 14.0688 6.01615C14.0685 6.01607 14.0682 6.016 14.068 6.01592C14.0675 6.01578 14.0671 6.01565 14.0667 6.01554C14.0659 6.01531 14.0654 6.01516 14.0651 6.01507C14.0645 6.0149 14.0649 6.01501 14.0662 6.01543C14.0689 6.01628 14.0753 6.01836 14.0853 6.02191C14.1053 6.02901 14.1398 6.04198 14.188 6.06261C14.2842 6.10385 14.435 6.17584 14.633 6.29297C15.0285 6.52706 15.6142 6.94284 16.3284 7.65696L17.0355 6.94986C16.2647 6.17906 15.613 5.71096 15.1423 5.43239C14.9071 5.2932 14.7177 5.20166 14.5819 5.14347C14.514 5.11438 14.4596 5.09365 14.4197 5.07948C14.3997 5.0724 14.3834 5.06696 14.3708 5.06293C14.3645 5.06092 14.3591 5.05926 14.3547 5.05793C14.3525 5.05726 14.3506 5.05668 14.3488 5.05617C14.348 5.05592 14.3472 5.05569 14.3464 5.05547C14.3461 5.05536 14.3457 5.05526 14.3454 5.05516C14.3452 5.05511 14.345 5.05504 14.3449 5.05502C14.3446 5.05495 14.3444 5.05488 14.207 5.53564ZM16.3284 7.65696C17.0425 8.37109 17.4583 8.95683 17.6923 9.35236C17.8095 9.55027 17.8815 9.70114 17.9227 9.79736C17.9433 9.8455 17.9563 9.88004 17.9634 9.90005C17.967 9.91006 17.969 9.91644 17.9699 9.91908C17.9703 9.92039 17.9704 9.92078 17.9702 9.92021C17.9702 9.91993 17.97 9.9194 17.9698 9.91864C17.9697 9.91826 17.9695 9.91783 17.9694 9.91733C17.9693 9.91708 17.9692 9.91681 17.9692 9.91653C17.9691 9.91639 17.9691 9.91617 17.969 9.9161C17.969 9.91587 17.9689 9.91565 18.4497 9.77829C18.9304 9.64092 18.9304 9.64069 18.9303 9.64045C18.9303 9.64036 18.9302 9.64012 18.9302 9.63995C18.9301 9.63961 18.93 9.63925 18.9298 9.63888C18.9296 9.63814 18.9294 9.63734 18.9291 9.63648C18.9286 9.63476 18.9281 9.63279 18.9274 9.63059C18.9261 9.62619 18.9244 9.62083 18.9224 9.61453C18.9184 9.60194 18.9129 9.58561 18.9058 9.56564C18.8917 9.52571 18.8709 9.47132 18.8418 9.40344C18.7837 9.26765 18.6921 9.07823 18.5529 8.84303C18.2744 8.37236 17.8063 7.72066 17.0355 6.94986L16.3284 7.65696ZM15.4632 15.3715L15.9187 14.892L15.1936 14.2034L14.7382 14.6829L15.4632 15.3715ZM17.7234 14.6457L19.6339 15.7453L20.1328 14.8786L18.2222 13.779L17.7234 14.6457ZM20.0591 18.4141L18.6386 19.9097L19.3637 20.5983L20.7842 19.1028L20.0591 18.4141ZM17.6272 20.4655C16.1273 20.6136 12.3029 20.4737 8.17789 16.1308L7.45283 16.8195C11.8213 21.4188 15.9663 21.6343 17.7254 21.4607L17.6272 20.4655ZM8.17789 16.1308C4.25892 12.0049 3.58624 8.50552 3.50217 6.93914L2.50361 6.99273C2.59983 8.78539 3.36251 12.5132 7.45283 16.8195L8.17789 16.1308ZM9.55323 9.14942L9.84005 8.84746L9.11499 8.15877L8.82817 8.46073L9.55323 9.14942ZM10.0425 5.40444L8.78152 3.62096L7.96499 4.19827L9.22598 5.98176L10.0425 5.40444ZM4.89892 3.2643L3.32932 4.91679L4.05438 5.60548L5.62398 3.95299L4.89892 3.2643ZM9.1907 8.80507C8.82817 8.46073 8.82771 8.46122 8.82725 8.46171C8.82708 8.46188 8.82661 8.46238 8.82629 8.46272C8.82565 8.46341 8.82498 8.46412 8.82431 8.46485C8.82295 8.46631 8.82153 8.46785 8.82005 8.46948C8.81708 8.47274 8.81386 8.47635 8.81042 8.48031C8.80353 8.48824 8.79572 8.49757 8.7872 8.50834C8.77014 8.5299 8.75016 8.55724 8.7288 8.59063C8.68598 8.65755 8.63791 8.74822 8.59666 8.86415C8.51308 9.09901 8.46326 9.42131 8.52407 9.83632C8.64412 10.6557 9.18986 11.8097 10.7006 13.4002L11.4257 12.7116C9.98138 11.191 9.59091 10.2197 9.5135 9.69135C9.47558 9.43255 9.51172 9.27546 9.53879 9.1994C9.55285 9.15986 9.56628 9.13718 9.57112 9.12962C9.57358 9.12576 9.57398 9.12558 9.57134 9.12892C9.57002 9.13059 9.56793 9.13315 9.56496 9.13656C9.56347 9.13827 9.56176 9.1402 9.55981 9.14234C9.55884 9.14341 9.55781 9.14454 9.55671 9.14572C9.55616 9.14631 9.5556 9.14691 9.55502 9.14753C9.55473 9.14784 9.55428 9.14831 9.55414 9.14846C9.55369 9.14894 9.55323 9.14942 9.1907 8.80507ZM10.7006 13.4002C12.2083 14.9876 13.3115 15.5721 14.1099 15.7017C14.5168 15.7678 14.8356 15.7138 15.0688 15.6218C15.1834 15.5766 15.2725 15.5242 15.3377 15.4779C15.3702 15.4549 15.3968 15.4334 15.4176 15.4151C15.428 15.406 15.4369 15.3977 15.4445 15.3903C15.4483 15.3867 15.4518 15.3833 15.4549 15.3801C15.4565 15.3786 15.4579 15.3771 15.4593 15.3756C15.46 15.3749 15.4607 15.3742 15.4613 15.3735C15.4617 15.3732 15.4622 15.3727 15.4623 15.3725C15.4628 15.372 15.4632 15.3715 15.1007 15.0272C14.7382 14.6829 14.7386 14.6824 14.7391 14.6819C14.7392 14.6818 14.7397 14.6813 14.74 14.681C14.7406 14.6804 14.7411 14.6798 14.7417 14.6792C14.7428 14.678 14.7439 14.6769 14.7449 14.6759C14.747 14.6738 14.7488 14.672 14.7505 14.6704C14.7538 14.6672 14.7564 14.6649 14.7581 14.6634C14.7616 14.6603 14.762 14.6603 14.7592 14.6623C14.7536 14.6662 14.735 14.6785 14.7019 14.6916C14.6398 14.716 14.5034 14.7525 14.2702 14.7147C13.7885 14.6364 12.8729 14.2353 11.4257 12.7116L10.7006 13.4002ZM8.78152 3.62096C7.85147 2.30553 6.00788 2.09677 4.89892 3.2643L5.62398 3.95299C6.26404 3.27912 7.3691 3.35547 7.96499 4.19827L8.78152 3.62096ZM3.50217 6.93914C3.47614 6.45411 3.68891 5.99025 4.05438 5.60548L3.32932 4.91679C2.82755 5.44507 2.45917 6.16479 2.50361 6.99273L3.50217 6.93914ZM18.6386 19.9097C18.3322 20.2323 17.9881 20.4299 17.6272 20.4655L17.7254 21.4607C18.3952 21.3946 18.9477 21.0363 19.3637 20.5983L18.6386 19.9097ZM9.84005 8.84746C10.7206 7.92038 10.7885 6.45951 10.0425 5.40444L9.22598 5.98176C9.71289 6.67042 9.64753 7.5981 9.11499 8.15877L9.84005 8.84746ZM19.6339 15.7453C20.5901 16.2957 20.7873 17.6475 20.0591 18.4141L20.7842 19.1028C21.9738 17.8503 21.6303 15.7406 20.1328 14.8786L19.6339 15.7453ZM15.9187 14.892C16.3855 14.4006 17.1131 14.2944 17.7234 14.6457L18.2222 13.779C17.2214 13.2029 15.986 13.3691 15.1936 14.2034L15.9187 14.892Z" fill="#424242"/>
</svg>
