<svg width="24" height="24" viewBox="0 0 24 24" fill="none" xmlns="http://www.w3.org/2000/svg">
<path d="M15.1007 15.359L14.7482 15.0045V15.0045L15.1007 15.359ZM15.5562 14.9062L15.9087 15.2607V15.2607L15.5562 14.9062ZM17.9728 14.5894L17.734 15.0287V15.0287L17.9728 14.5894ZM19.8833 15.628L19.6445 16.0673L19.8833 15.628ZM20.4217 18.883L20.7742 19.2375L20.7742 19.2375L20.4217 18.883ZM19.0011 20.2954L18.6486 19.9409V19.9409L19.0011 20.2954ZM17.6763 20.9651L17.7227 21.463V21.463L17.6763 20.9651ZM7.81536 16.7266L8.16791 16.372L7.81536 16.7266ZM3.00289 7.74561L2.50369 7.77398L2.50369 7.77398L3.00289 7.74561ZM9.47752 9.19738L9.83006 9.55194V9.55194L9.47752 9.19738ZM9.63424 6.54348L10.0345 6.24384V6.24384L9.63424 6.54348ZM8.37326 4.85908L7.97299 5.15873V5.15873L8.37326 4.85908ZM5.26145 4.57483L5.614 4.92939V4.92939L5.26145 4.57483ZM3.69185 6.13552L3.3393 5.78096H3.3393L3.69185 6.13552ZM11.0631 13.4972L11.4157 13.1427L11.0631 13.4972ZM15.4533 15.7136L15.9087 15.2607L15.2036 14.5516L14.7482 15.0045L15.4533 15.7136ZM17.734 15.0287L19.6445 16.0673L20.1221 15.1887L18.2116 14.1501L17.734 15.0287ZM20.0691 18.5284L18.6486 19.9409L19.3537 20.65L20.7742 19.2375L20.0691 18.5284ZM17.6299 20.4673C16.1202 20.608 12.2911 20.4718 8.16791 16.372L7.46281 17.0811C11.8331 21.4266 15.9735 21.626 17.7227 21.463L17.6299 20.4673ZM8.16791 16.372C4.25211 12.4784 3.58535 9.18237 3.50208 7.71724L2.50369 7.77398C2.60072 9.48127 3.36932 13.0109 7.46281 17.0811L8.16791 16.372ZM9.54325 9.83713L9.83006 9.55194L9.12497 8.84283L8.83816 9.12801L9.54325 9.83713ZM10.0345 6.24384L8.77352 4.55943L7.97299 5.15873L9.23398 6.84313L10.0345 6.24384ZM4.9089 4.22027L3.3393 5.78096L4.04439 6.49008L5.614 4.92939L4.9089 4.22027ZM9.1907 9.48257C8.83816 9.12801 8.83768 9.12849 8.8372 9.12897C8.83703 9.12913 8.83655 9.12962 8.83622 9.12995C8.83555 9.13062 8.83487 9.13131 8.83417 9.13202C8.83278 9.13344 8.83131 9.13494 8.82979 9.13652C8.82674 9.13969 8.82343 9.1432 8.81989 9.14704C8.81281 9.15473 8.80479 9.16379 8.79603 9.17424C8.77851 9.19514 8.75799 9.22168 8.73602 9.25411C8.69199 9.31909 8.64242 9.40735 8.59983 9.52038C8.51331 9.75003 8.46248 10.0637 8.5247 10.4647C8.6471 11.2537 9.20042 12.3502 10.7106 13.8518L11.4157 13.1427C9.97082 11.706 9.58793 10.7952 9.51288 10.3114C9.47636 10.0761 9.5115 9.93697 9.53561 9.87296C9.54834 9.83917 9.56027 9.82038 9.5639 9.81502C9.56576 9.81227 9.56561 9.81281 9.5625 9.81651C9.56095 9.81837 9.55865 9.82102 9.55549 9.82445C9.55391 9.82617 9.55211 9.82809 9.55007 9.8302C9.54906 9.83126 9.54798 9.83236 9.54684 9.83352C9.54628 9.8341 9.54569 9.83468 9.54509 9.83529C9.54479 9.83559 9.54433 9.83605 9.54418 9.8362C9.54372 9.83666 9.54325 9.83713 9.1907 9.48257ZM10.7106 13.8518C12.2211 15.3537 13.323 15.9028 14.1142 16.0242C14.5161 16.0858 14.8301 16.0355 15.0599 15.9499C15.1731 15.9077 15.2615 15.8586 15.3267 15.815C15.3592 15.7932 15.3858 15.7728 15.4068 15.7554C15.4173 15.7467 15.4264 15.7388 15.4341 15.7317C15.438 15.7282 15.4415 15.7249 15.4447 15.7219C15.4463 15.7204 15.4478 15.7189 15.4492 15.7175C15.4499 15.7169 15.4506 15.7162 15.4513 15.7155C15.4516 15.7152 15.4521 15.7147 15.4523 15.7145C15.4528 15.7141 15.4533 15.7136 15.1007 15.359C14.7482 15.0045 14.7486 15.004 14.7491 15.0035C14.7493 15.0034 14.7497 15.0029 14.75 15.0026C14.7506 15.002 14.7512 15.0015 14.7518 15.0009C14.753 14.9998 14.7541 14.9987 14.7551 14.9977C14.7573 14.9957 14.7592 14.9939 14.7609 14.9923C14.7644 14.9892 14.767 14.9869 14.7689 14.9854C14.7725 14.9823 14.773 14.9822 14.7702 14.9841C14.7646 14.9879 14.7453 14.9999 14.7109 15.0128C14.6453 15.0372 14.504 15.0723 14.2659 15.0357C13.777 14.9608 12.8602 14.579 11.4157 13.1427L10.7106 13.8518ZM8.77352 4.55943C7.83965 3.31199 6.01196 3.12348 4.9089 4.22027L5.614 4.92939C6.25995 4.2871 7.38092 4.36784 7.97299 5.15873L8.77352 4.55943ZM3.50208 7.71724C3.47722 7.27982 3.67991 6.85249 4.04439 6.49008L3.3393 5.78096C2.83655 6.28086 2.45808 6.97136 2.50369 7.77398L3.50208 7.71724ZM18.6486 19.9409C18.345 20.2428 17.9992 20.4329 17.6299 20.4673L17.7227 21.463C18.3842 21.4013 18.9349 21.0664 19.3537 20.65L18.6486 19.9409ZM9.83006 9.55194C10.7219 8.66515 10.7929 7.2569 10.0345 6.24384L9.23398 6.84313C9.70845 7.47692 9.64623 8.32453 9.12497 8.84283L9.83006 9.55194ZM19.6445 16.0673C20.5987 16.586 20.7737 17.8278 20.0691 18.5284L20.7742 19.2375C21.9874 18.0312 21.6217 16.0039 20.1221 15.1887L19.6445 16.0673ZM15.9087 15.2607C16.3746 14.7975 17.1138 14.6915 17.734 15.0287L18.2116 14.1501C17.2207 13.6114 15.997 13.7628 15.2036 14.5516L15.9087 15.2607Z" fill="#424242"/>
</svg>
