<svg width="24" height="24" viewBox="0 0 24 24" fill="none" xmlns="http://www.w3.org/2000/svg">
<path d="M14.1007 16.0272L14.4632 16.3715L14.4632 16.3715L14.1007 16.0272ZM14.5562 15.5477L14.1936 15.2034L14.1936 15.2034L14.5562 15.5477ZM16.9728 15.2123L16.7234 15.6457V15.6457L16.9728 15.2123ZM18.8833 16.312L18.6339 16.7453L18.8833 16.312ZM19.4217 19.7584L19.7842 20.1028V20.1028L19.4217 19.7584ZM18.0011 21.254L17.6386 20.9097V20.9097L18.0011 21.254ZM16.6763 21.9631L16.7254 22.4607V22.4607L16.6763 21.9631ZM6.81536 17.4752L6.45283 17.8195V17.8195L6.81536 17.4752ZM2.00289 7.96594L1.50361 7.99273L1.50361 7.99274L2.00289 7.96594ZM8.1907 9.80508L8.55323 10.1494V10.1494L8.1907 9.80508ZM8.47752 9.50311L8.11499 9.15877V9.15877L8.47752 9.50311ZM8.63424 6.6931L9.0425 6.40444V6.40444L8.63424 6.6931ZM7.37326 4.90962L6.96499 5.19827V5.19827L7.37326 4.90962ZM4.26145 4.60864L4.62398 4.95299L4.62398 4.95299L4.26145 4.60864ZM2.69185 6.26114L2.32932 5.91679L2.32932 5.91679L2.69185 6.26114ZM10.0631 14.0559L10.4257 13.7116V13.7116L10.0631 14.0559ZM11.9146 7.53706H11.4146V7.53707L11.9146 7.53706ZM11.9146 8.44448L11.5624 8.79942C11.7573 8.99283 12.0718 8.99283 12.2667 8.79942L11.9146 8.44448ZM13.1813 7.892C13.3773 7.69751 13.3786 7.38093 13.1841 7.1849C12.9896 6.98888 12.673 6.98763 12.477 7.18213L13.1813 7.892ZM11.3522 7.18213C11.1561 6.98763 10.8396 6.98888 10.6451 7.1849C10.4506 7.38093 10.4518 7.69751 10.6478 7.892L11.3522 7.18213ZM19.9682 5.43965C20.1128 5.67489 20.4208 5.74836 20.656 5.60374C20.8913 5.45912 20.9647 5.15117 20.8201 4.91593L19.9682 5.43965ZM20.971 7.35558L21.3224 6.99997C21.1277 6.80745 20.8143 6.80745 20.6195 6.99997L20.971 7.35558ZM19.7014 7.90738C19.505 8.1015 19.5032 8.41808 19.6973 8.61448C19.8914 8.81088 20.208 8.81273 20.4044 8.61861L19.7014 7.90738ZM21.5375 8.61861C21.7339 8.81273 22.0505 8.81088 22.2446 8.61448C22.4388 8.41808 22.4369 8.1015 22.2405 7.90738L21.5375 8.61861ZM12.8844 10.3597C12.7394 10.1247 12.4314 10.0517 12.1964 10.1968C11.9614 10.3418 11.8884 10.6499 12.0335 10.8849L12.8844 10.3597ZM14.4632 16.3715L14.9187 15.892L14.1936 15.2034L13.7382 15.6829L14.4632 16.3715ZM16.7234 15.6457L18.6339 16.7453L19.1328 15.8786L17.2222 14.779L16.7234 15.6457ZM19.0591 19.4141L17.6386 20.9097L18.3637 21.5983L19.7842 20.1028L19.0591 19.4141ZM16.6272 21.4655C15.1273 21.6136 11.3029 21.4737 7.17789 17.1308L6.45283 17.8195C10.8213 22.4188 14.9663 22.6343 16.7254 22.4607L16.6272 21.4655ZM7.17789 17.1308C3.25892 13.0049 2.58624 9.50552 2.50217 7.93914L1.50361 7.99274C1.59983 9.78539 2.36251 13.5132 6.45283 17.8195L7.17789 17.1308ZM8.55323 10.1494L8.84005 9.84746L8.11499 9.15877L7.82817 9.46073L8.55323 10.1494ZM9.0425 6.40444L7.78152 4.62096L6.96499 5.19827L8.22598 6.98176L9.0425 6.40444ZM3.89892 4.2643L2.32932 5.91679L3.05438 6.60548L4.62398 4.95299L3.89892 4.2643ZM8.1907 9.80508C7.82817 9.46073 7.82771 9.46122 7.82725 9.46171C7.82708 9.46188 7.82661 9.46238 7.82629 9.46273C7.82565 9.46341 7.82498 9.46412 7.82431 9.46485C7.82295 9.46631 7.82153 9.46785 7.82005 9.46948C7.81708 9.47274 7.81386 9.47635 7.81042 9.48031C7.80353 9.48824 7.79572 9.49757 7.7872 9.50835C7.77014 9.5299 7.75016 9.55725 7.7288 9.59063C7.68598 9.65755 7.63791 9.74822 7.59666 9.86415C7.51308 10.099 7.46326 10.4213 7.52407 10.8363C7.64412 11.6557 8.18986 12.8097 9.70059 14.4002L10.4257 13.7116C8.98138 12.191 8.59091 11.2197 8.5135 10.6914C8.47558 10.4325 8.51172 10.2755 8.53879 10.1994C8.55285 10.1599 8.56628 10.1372 8.57112 10.1296C8.57358 10.1258 8.57398 10.1256 8.57134 10.1289C8.57002 10.1306 8.56793 10.1331 8.56496 10.1366C8.56347 10.1383 8.56176 10.1402 8.55981 10.1423C8.55884 10.1434 8.55781 10.1445 8.55671 10.1457C8.55616 10.1463 8.5556 10.1469 8.55502 10.1475C8.55473 10.1478 8.55428 10.1483 8.55414 10.1485C8.55369 10.1489 8.55323 10.1494 8.1907 9.80508ZM9.70059 14.4002C11.2083 15.9876 12.3115 16.5721 13.1099 16.7017C13.5168 16.7678 13.8356 16.7138 14.0688 16.6218C14.1834 16.5766 14.2725 16.5242 14.3377 16.4779C14.3702 16.4549 14.3968 16.4334 14.4176 16.4151C14.428 16.406 14.4369 16.3977 14.4445 16.3903C14.4483 16.3867 14.4518 16.3833 14.4549 16.3801C14.4565 16.3786 14.4579 16.3771 14.4593 16.3756C14.46 16.3749 14.4607 16.3742 14.4613 16.3735C14.4617 16.3732 14.4622 16.3727 14.4623 16.3725C14.4628 16.372 14.4632 16.3715 14.1007 16.0272C13.7382 15.6829 13.7386 15.6824 13.7391 15.6819C13.7392 15.6818 13.7397 15.6813 13.74 15.681C13.7406 15.6804 13.7411 15.6798 13.7417 15.6792C13.7428 15.678 13.7439 15.6769 13.7449 15.6759C13.747 15.6738 13.7488 15.672 13.7505 15.6704C13.7538 15.6672 13.7564 15.6649 13.7581 15.6634C13.7616 15.6603 13.762 15.6603 13.7592 15.6623C13.7536 15.6662 13.735 15.6785 13.7019 15.6916C13.6398 15.7161 13.5034 15.7525 13.2702 15.7147C12.7885 15.6364 11.8729 15.2353 10.4257 13.7116L9.70059 14.4002ZM7.78152 4.62096C6.85147 3.30553 5.00788 3.09677 3.89892 4.2643L4.62398 4.95299C5.26404 4.27912 6.3691 4.35547 6.96499 5.19827L7.78152 4.62096ZM2.50217 7.93914C2.47614 7.45411 2.68891 6.99025 3.05438 6.60548L2.32932 5.91679C1.82755 6.44507 1.45917 7.16479 1.50361 7.99273L2.50217 7.93914ZM17.6386 20.9097C17.3322 21.2323 16.9881 21.4299 16.6272 21.4655L16.7254 22.4607C17.3952 22.3946 17.9477 22.0363 18.3637 21.5983L17.6386 20.9097ZM8.84005 9.84746C9.72061 8.92038 9.78847 7.45951 9.0425 6.40444L8.22598 6.98176C8.71289 7.67042 8.64753 8.5981 8.11499 9.15877L8.84005 9.84746ZM18.6339 16.7453C19.5901 17.2957 19.7873 18.6475 19.0591 19.4141L19.7842 20.1028C20.9738 18.8503 20.6303 16.7406 19.1328 15.8786L18.6339 16.7453ZM14.9187 15.892C15.3855 15.4006 16.1131 15.2944 16.7234 15.6457L17.2222 14.779C16.2214 14.2029 14.986 14.3691 14.1936 15.2034L14.9187 15.892ZM16.4874 2.5C13.6895 2.5 11.4146 4.75147 11.4146 7.53706H12.4146C12.4146 5.31115 14.2343 3.5 16.4874 3.5V2.5ZM11.4146 7.53707L11.4146 8.44448L12.4146 8.44448L12.4146 7.53706L11.4146 7.53707ZM12.2667 8.79942L13.1813 7.892L12.477 7.18213L11.5624 8.08954L12.2667 8.79942ZM12.2667 8.08954L11.3522 7.18213L10.6478 7.892L11.5624 8.79942L12.2667 8.08954ZM20.8201 4.91593C19.9294 3.46713 18.3216 2.5 16.4874 2.5V3.5C17.9623 3.5 19.2532 4.27658 19.9682 5.43965L20.8201 4.91593ZM16.3806 13.3001C19.1864 13.3001 21.471 11.0504 21.471 8.263H20.471C20.471 10.4871 18.6452 12.3001 16.3806 12.3001V13.3001ZM21.471 8.263V7.35558H20.471V8.263H21.471ZM20.6195 6.99997L19.7014 7.90738L20.4044 8.61861L21.3224 7.71119L20.6195 6.99997ZM20.6195 7.71119L21.5375 8.61861L22.2405 7.90738L21.3224 6.99997L20.6195 7.71119ZM12.0335 10.8849C12.9276 12.3338 14.541 13.3001 16.3806 13.3001V12.3001C14.8985 12.3001 13.6021 11.5226 12.8844 10.3597L12.0335 10.8849Z" fill="#424242"/>
</svg>
