<svg width="24" height="24" viewBox="0 0 24 24" fill="none" xmlns="http://www.w3.org/2000/svg">
<path d="M13.2654 7.85744L13.6189 7.50388V7.50388L13.2654 7.85744ZM13.6318 8.22382L13.2782 8.57737V8.57737L13.6318 8.22382ZM7.60605 17.0137L7.9596 16.6601V16.6601L7.60605 17.0137ZM4.47555 13.8832L4.122 14.2367H4.122L4.47555 13.8832ZM12.4207 14.0985L12.6055 14.563L12.6055 14.563L12.4207 14.0985ZM12.2752 14.1564L12.0903 13.6918L12.0903 13.6918L12.2752 14.1564ZM7.33282 9.21406L6.86826 9.02916L6.86826 9.02916L7.33282 9.21406ZM7.39073 9.06855L7.85529 9.25345L7.85529 9.25345L7.39073 9.06855ZM5.1858 11.1521L5.32232 11.6331V11.6331L5.1858 11.1521ZM6.3183 10.7431L6.04942 10.3216H6.04942L6.3183 10.7431ZM6.81041 10.2989L6.4185 9.98842L6.4185 9.98842L6.81041 10.2989ZM11.1903 14.6788L10.8798 14.2869V14.2869L11.1903 14.6788ZM10.3371 16.3034L9.85612 16.1669V16.1669L10.3371 16.3034ZM10.7461 15.1709L10.3245 14.902L10.3245 14.902L10.7461 15.1709ZM3.42418 12.5334L3.92035 12.4717V12.4717L3.42418 12.5334ZM3.61007 11.8186L4.01329 12.1143V12.1143L3.61007 11.8186ZM8.95579 18.065L9.01754 17.5689H9.01754L8.95579 18.065ZM9.67058 17.8791L9.37494 17.4759H9.37494L9.67058 17.8791ZM15.9262 11.3483L16.4262 11.3487V11.3487L15.9262 11.3483ZM15.7638 12.1362L16.2232 12.3336L16.2232 12.3336L15.7638 12.1362ZM10.1409 5.56299L10.1405 5.06299H10.1405L10.1409 5.56299ZM9.35298 5.72542L9.1556 5.26603V5.26603L9.35298 5.72542ZM2.99325 17.7884C2.79799 17.9837 2.79799 18.3003 2.99325 18.4955C3.18851 18.6908 3.50509 18.6908 3.70036 18.4955L3.3468 18.142L2.99325 17.7884ZM6.3941 15.8018C6.58936 15.6065 6.58936 15.29 6.3941 15.0947C6.19883 14.8994 5.88225 14.8994 5.68699 15.0947L6.04054 15.4482L6.3941 15.8018ZM22 8.5C22.2762 8.5 22.5 8.27614 22.5 8C22.5 7.72386 22.2762 7.5 22 7.5V8V8.5ZM17 7.5C16.7239 7.5 16.5 7.72386 16.5 8C16.5 8.27614 16.7239 8.5 17 8.5V8V7.5ZM22 13C22.2762 13 22.5 12.7761 22.5 12.5C22.5 12.2239 22.2762 12 22 12V12.5V13ZM18 12C17.7239 12 17.5 12.2239 17.5 12.5C17.5 12.7761 17.7239 13 18 13V12.5V12ZM22 17.5C22.2762 17.5 22.5 17.2761 22.5 17C22.5 16.7239 22.2762 16.5 22 16.5V17V17.5ZM13 16.5C12.7239 16.5 12.5 16.7239 12.5 17C12.5 17.2761 12.7239 17.5 13 17.5V17V16.5ZM13.2654 7.85744L12.9118 8.21099L13.2782 8.57737L13.6318 8.22382L13.9853 7.87027L13.6189 7.50388L13.2654 7.85744ZM7.60605 17.0137L7.9596 16.6601L4.8291 13.5296L4.47555 13.8832L4.122 14.2367L7.25249 17.3672L7.60605 17.0137ZM12.4207 14.0985L12.2358 13.6339L12.0903 13.6918L12.2752 14.1564L12.46 14.621L12.6055 14.563L12.4207 14.0985ZM7.33282 9.21406L7.79738 9.39895L7.85529 9.25345L7.39073 9.06855L6.92617 8.88366L6.86826 9.02916L7.33282 9.21406ZM5.1858 11.1521L5.32232 11.6331C5.88328 11.4739 6.26356 11.3711 6.58718 11.1647L6.3183 10.7431L6.04942 10.3216C5.87847 10.4306 5.66861 10.4953 5.04928 10.6711L5.1858 11.1521ZM7.33282 9.21406L6.86826 9.02916C6.6302 9.62732 6.54442 9.82948 6.4185 9.98842L6.81041 10.2989L7.20232 10.6094C7.44069 10.3085 7.58175 9.94073 7.79738 9.39895L7.33282 9.21406ZM6.3183 10.7431L6.58718 11.1647C6.82169 11.0151 7.02959 10.8274 7.20232 10.6094L6.81041 10.2989L6.4185 9.98842C6.31487 10.1192 6.19013 10.2318 6.04942 10.3216L6.3183 10.7431ZM12.2752 14.1564L12.0903 13.6918C11.5485 13.9075 11.1807 14.0485 10.8798 14.2869L11.1903 14.6788L11.5008 15.0707C11.6597 14.9448 11.8619 14.859 12.46 14.621L12.2752 14.1564ZM10.3371 16.3034L10.8181 16.4399C10.9939 15.8206 11.0586 15.6107 11.1676 15.4398L10.7461 15.1709L10.3245 14.902C10.1181 15.2257 10.0153 15.6059 9.85612 16.1669L10.3371 16.3034ZM11.1903 14.6788L10.8798 14.2869C10.6618 14.4596 10.4741 14.6675 10.3245 14.902L10.7461 15.1709L11.1676 15.4398C11.2574 15.2991 11.37 15.1743 11.5008 15.0707L11.1903 14.6788ZM4.47555 13.8832L4.8291 13.5296C4.48539 13.1859 4.25396 12.9537 4.09959 12.7661C3.94401 12.5771 3.9237 12.4986 3.92035 12.4717L3.42418 12.5334L2.928 12.5952C2.96706 12.909 3.13612 13.1691 3.32747 13.4016C3.52002 13.6355 3.79307 13.9078 4.122 14.2367L4.47555 13.8832ZM5.1858 11.1521L5.04928 10.6711C4.60178 10.7981 4.23068 10.9028 3.94856 11.0133C3.6682 11.1232 3.39384 11.2679 3.20684 11.523L3.61007 11.8186L4.01329 12.1143C4.02935 12.0924 4.0853 12.0338 4.31326 11.9445C4.53946 11.8559 4.8547 11.7658 5.32232 11.6331L5.1858 11.1521ZM3.42418 12.5334L3.92035 12.4717C3.90459 12.345 3.93784 12.2172 4.01329 12.1143L3.61007 11.8186L3.20684 11.523C2.98048 11.8317 2.88073 12.2153 2.928 12.5952L3.42418 12.5334ZM7.60605 17.0137L7.25249 17.3672C7.58142 17.6961 7.85368 17.9692 8.08762 18.1617C8.32011 18.3531 8.58021 18.5222 8.89404 18.5612L8.95579 18.065L9.01754 17.5689C8.99059 17.5655 8.91214 17.5452 8.72311 17.3896C8.53554 17.2353 8.30331 17.0038 7.9596 16.6601L7.60605 17.0137ZM10.3371 16.3034L9.85612 16.1669C9.7234 16.6345 9.63334 16.9498 9.54475 17.176C9.45546 17.4039 9.39684 17.4599 9.37494 17.4759L9.67058 17.8791L9.96623 18.2824C10.2213 18.0954 10.3661 17.821 10.4759 17.5407C10.5864 17.2585 10.6911 16.8874 10.8181 16.4399L10.3371 16.3034ZM8.95579 18.065L8.89404 18.5612C9.27392 18.6085 9.65751 18.5087 9.96623 18.2824L9.67058 17.8791L9.37494 17.4759C9.27203 17.5514 9.14417 17.5846 9.01754 17.5689L8.95579 18.065ZM13.6318 8.22382L13.2782 8.57737C14.0524 9.35156 14.6004 9.90079 14.96 10.358C15.3174 10.8123 15.4264 11.1007 15.4262 11.3479L15.9262 11.3483L16.4262 11.3487C16.4267 10.7666 16.1535 10.2578 15.746 9.73971C15.3408 9.22449 14.7412 8.62616 13.9853 7.87027L13.6318 8.22382ZM12.4207 14.0985L12.6055 14.563C13.5988 14.1677 14.3861 13.8553 14.9621 13.5424C15.5412 13.2278 15.9934 12.8685 16.2232 12.3336L15.7638 12.1362L15.3044 11.9388C15.2068 12.166 14.9926 12.3878 14.4847 12.6637C13.9736 12.9414 13.253 13.2291 12.2358 13.6339L12.4207 14.0985ZM15.9262 11.3483L15.4262 11.3479C15.4261 11.5511 15.3846 11.7522 15.3044 11.9388L15.7638 12.1362L16.2232 12.3336C16.3569 12.0225 16.4259 11.6874 16.4262 11.3487L15.9262 11.3483ZM13.2654 7.85744L13.6189 7.50388C12.863 6.74799 12.2647 6.14846 11.7495 5.74319C11.2314 5.33569 10.7227 5.06252 10.1405 5.06299L10.1409 5.56299L10.1413 6.06299C10.3885 6.06279 10.6769 6.1718 11.1313 6.52917C11.5884 6.88878 12.1376 7.4368 12.9118 8.21099L13.2654 7.85744ZM7.39073 9.06855L7.85529 9.25345C8.26015 8.23619 8.54785 7.51562 8.82551 7.00452C9.10145 6.4966 9.32324 6.2824 9.55037 6.18481L9.35298 5.72542L9.1556 5.26603C8.62072 5.49585 8.26146 5.94798 7.94681 6.52715C7.63389 7.10315 7.32147 7.89044 6.92617 8.88366L7.39073 9.06855ZM10.1409 5.56299L10.1405 5.06299C9.80183 5.06326 9.46676 5.13234 9.1556 5.26603L9.35298 5.72542L9.55037 6.18481C9.73706 6.1046 9.9381 6.06315 10.1413 6.06299L10.1409 5.56299ZM3.3468 18.142L3.70036 18.4955L6.3941 15.8018L6.04054 15.4482L5.68699 15.0947L2.99325 17.7884L3.3468 18.142ZM22 8V7.5H17V8V8.5H22V8ZM22 12.5V12H18V12.5V13H22V12.5ZM22 17V16.5H13V17V17.5H22V17Z" fill="#424242"/>
</svg>
