<svg width="24" height="24" viewBox="0 0 24 24" fill="none" xmlns="http://www.w3.org/2000/svg">
<path d="M9.86548 2.00011L9.86572 1.54449V1.54449L9.86548 2.00011ZM13.8396 2.00213L13.8394 2.45775V2.45775L13.8396 2.00213ZM14.5227 16.0016L14.5225 16.4572V16.4572L14.5227 16.0016ZM9.21486 15.9989L9.21509 15.5432H9.21509L9.21486 15.9989ZM17.3538 7.45545L16.9389 7.26718V7.26718L17.3538 7.45545ZM16.5827 9.15487L16.9976 9.34315V9.34315L16.5827 9.15487ZM7.14275 9.14506L6.72941 9.33673V9.33674L7.14275 9.14506ZM6.36893 7.4763L6.78227 7.28463V7.28463L6.36893 7.4763ZM7.01681 12.2243L7.41302 12.4492V12.4492L7.01681 12.2243ZM7.6085 10.9388L7.1588 10.8656V10.8656L7.6085 10.9388ZM7.62745 10.4756L8.08163 10.4394V10.4394L7.62745 10.4756ZM16.1104 10.4852L16.5649 10.5179L16.5649 10.5179L16.1104 10.4852ZM16.7227 12.2192L16.3266 12.4444V12.4444L16.7227 12.2192ZM16.131 10.9364L15.6815 11.0104V11.0104L16.131 10.9364ZM6.34358 15.5802L6.02345 15.9044H6.02345L6.34358 15.5802ZM5.96268 14.9262L5.52271 15.0445H5.52271L5.96268 14.9262ZM17.41 15.581L17.0883 15.2583L17.0883 15.2583L17.41 15.581ZM17.7834 14.9389L17.3439 14.8188V14.8188L17.7834 14.9389ZM5.22219 2.88799L5.6062 3.13318H5.6062L5.22219 2.88799ZM11.3818 22.0002C11.382 22.2519 11.5861 22.4557 11.8377 22.4556C12.0893 22.4555 12.2932 22.2514 12.2931 21.9998L11.8375 22L11.3818 22.0002ZM12.29 16.0002C12.2899 15.7485 12.0858 15.5446 11.8342 15.5448C11.5825 15.5449 11.3787 15.749 11.3788 16.0006L11.8344 16.0004L12.29 16.0002ZM9.86548 2.00011L9.86525 2.45573L13.8394 2.45775L13.8396 2.00213L13.8398 1.54651L9.86572 1.54449L9.86548 2.00011ZM14.5227 16.0016L14.5229 15.5459L9.21509 15.5432L9.21486 15.9989L9.21463 16.4545L14.5225 16.4572L14.5227 16.0016ZM17.3538 7.45545L16.9389 7.26718L16.1678 8.9666L16.5827 9.15487L16.9976 9.34315L17.7687 7.64373L17.3538 7.45545ZM7.14275 9.14506L7.5561 8.95339L6.78227 7.28463L6.36893 7.4763L5.95558 7.66797L6.72941 9.33673L7.14275 9.14506ZM7.01681 12.2243L7.41302 12.4492C7.75352 11.8495 7.98643 11.4528 8.0582 11.0121L7.6085 10.9388L7.1588 10.8656C7.11949 11.1071 6.99496 11.34 6.62059 11.9993L7.01681 12.2243ZM7.14275 9.14506L6.72941 9.33674C7.04863 10.0251 7.1538 10.2678 7.17327 10.5119L7.62745 10.4756L8.08163 10.4394C8.04611 9.99424 7.84647 9.57959 7.5561 8.95339L7.14275 9.14506ZM7.6085 10.9388L8.0582 11.0121C8.08901 10.8228 8.09688 10.6305 8.08163 10.4394L7.62745 10.4756L7.17327 10.5119C7.1827 10.63 7.17784 10.7487 7.1588 10.8656L7.6085 10.9388ZM16.5827 9.15487L16.1678 8.9666C15.8835 9.59297 15.6879 10.008 15.656 10.4526L16.1104 10.4852L16.5649 10.5179C16.5824 10.2742 16.6851 10.0318 16.9976 9.34315L16.5827 9.15487ZM16.7227 12.2192L17.1188 11.9941C16.7448 11.3362 16.6203 11.1037 16.5806 10.8625L16.131 10.9364L15.6815 11.0104C15.7538 11.4502 15.9864 11.8459 16.3266 12.4444L16.7227 12.2192ZM16.1104 10.4852L15.656 10.4526C15.6426 10.6389 15.6512 10.8261 15.6815 11.0104L16.131 10.9364L16.5806 10.8625C16.5619 10.7486 16.5566 10.6329 16.5649 10.5179L16.1104 10.4852ZM9.21486 15.9989L9.21509 15.5432C8.38763 15.5428 7.80625 15.5418 7.37702 15.493C6.94683 15.4442 6.76427 15.3553 6.66371 15.256L6.34358 15.5802L6.02345 15.9044C6.34556 16.2225 6.78245 16.3426 7.27413 16.3985C7.76676 16.4544 8.40969 16.4541 9.21463 16.4545L9.21486 15.9989ZM7.01681 12.2243L6.62059 11.9993C6.22335 12.699 5.90542 13.2575 5.71076 13.7133C5.51647 14.1682 5.40507 14.6074 5.52271 15.0445L5.96268 14.9262L6.40265 14.8078C6.36598 14.6715 6.37882 14.4691 6.54877 14.0712C6.71834 13.6742 7.00464 13.1685 7.41302 12.4492L7.01681 12.2243ZM6.34358 15.5802L6.66371 15.256C6.53846 15.1324 6.44836 14.9776 6.40265 14.8078L5.96268 14.9262L5.52271 15.0445C5.61042 15.3705 5.78326 15.6673 6.02345 15.9044L6.34358 15.5802ZM14.5227 16.0016L14.5225 16.4572C15.3325 16.4576 15.9795 16.4586 16.475 16.4025C16.9695 16.3465 17.4089 16.2254 17.7317 15.9036L17.41 15.581L17.0883 15.2583C16.9879 15.3584 16.8051 15.448 16.3724 15.497C15.9407 15.546 15.3557 15.5464 14.5229 15.5459L14.5227 16.0016ZM16.7227 12.2192L16.3266 12.4444C16.7383 13.1686 17.027 13.6779 17.1977 14.0777C17.3689 14.4783 17.3814 14.6818 17.3439 14.8188L17.7834 14.9389L18.2229 15.059C18.3431 14.6195 18.2313 14.1775 18.0357 13.7197C17.8398 13.261 17.5193 12.6986 17.1188 11.9941L16.7227 12.2192ZM17.41 15.581L17.7317 15.9036C17.9663 15.6697 18.1356 15.3786 18.2229 15.059L17.7834 14.9389L17.3439 14.8188C17.2985 14.9851 17.2103 15.1366 17.0883 15.2583L17.41 15.581ZM13.8396 2.00213L13.8394 2.45775C15.203 2.45844 16.1737 2.46014 16.8779 2.56488C17.574 2.66844 17.8926 2.85712 18.0719 3.1354L18.4549 2.8886L18.8379 2.64179C18.4473 2.03567 17.8067 1.78179 17.0119 1.66356C16.2251 1.54652 15.1732 1.54719 13.8398 1.54651L13.8396 2.00213ZM17.3538 7.45545L17.7687 7.64373C18.3195 6.43004 18.7551 5.47293 18.9739 4.70842C19.1949 3.9361 19.2286 3.24799 18.8379 2.64179L18.4549 2.8886L18.0719 3.1354C18.2512 3.41362 18.2914 3.78146 18.0978 4.45772C17.9021 5.1418 17.5022 6.02591 16.9389 7.26718L17.3538 7.45545ZM9.86548 2.00011L9.86572 1.54449C8.52253 1.5438 7.46312 1.54206 6.67153 1.65907C5.87228 1.77722 5.22809 2.03211 4.83817 2.64279L5.22219 2.88799L5.6062 3.13318C5.78452 2.85391 6.10362 2.66417 6.80479 2.56052C7.51361 2.45574 8.49173 2.45503 9.86525 2.45573L9.86548 2.00011ZM6.36893 7.4763L6.78227 7.28463C6.20424 6.03809 5.79367 5.14984 5.5907 4.46229C5.38991 3.78211 5.42785 3.41252 5.6062 3.13318L5.22219 2.88799L4.83817 2.64279C4.44829 3.25341 4.48794 3.94518 4.71675 4.72028C4.94338 5.48801 5.3903 6.44893 5.95558 7.66797L6.36893 7.4763ZM11.8375 22L12.2931 21.9998L12.29 16.0002L11.8344 16.0004L11.3788 16.0006L11.3818 22.0002L11.8375 22Z" fill="#424242"/>
</svg>
