<svg width="24" height="24" viewBox="0 0 24 24" fill="none" xmlns="http://www.w3.org/2000/svg">
<path d="M15.5904 5.65518L15.9088 5.33714V5.33714L15.5904 5.65518ZM18.3645 8.43206L18.0461 8.75009V8.75009L18.3645 8.43206ZM9.06454 18.6861L8.74618 19.0041V19.0041L9.06454 18.6861ZM5.35952 14.9773L5.67788 14.6593V14.6593L5.35952 14.9773ZM17.0102 14.6949L16.852 14.2736V14.2736L17.0102 14.6949ZM15.2848 15.3431L15.4431 15.7644V15.7644L15.2848 15.3431ZM8.69898 8.7436L8.27644 8.58878V8.58878L8.69898 8.7436ZM9.32399 7.03773L9.74652 7.19254V7.19254L9.32399 7.03773ZM6.46054 10.8061L6.58014 11.2399H6.58014L6.46054 10.8061ZM7.7715 10.3216L7.50857 9.95642L7.50857 9.95642L7.7715 10.3216ZM8.10824 10.0113L8.45074 10.3032H8.45074L8.10824 10.0113ZM14.0259 15.9424L14.3205 16.2826L14.3205 16.2826L14.0259 15.9424ZM13.2425 17.581L12.8086 17.4617V17.4617L13.2425 17.581ZM13.7252 16.2719L13.3596 16.0096L13.3596 16.0096L13.7252 16.2719ZM3.64661 12.6797L3.19662 12.6825H3.19662L3.64661 12.6797ZM3.83741 11.9569L3.44746 11.7323H3.44746L3.83741 11.9569ZM11.3747 20.4088L11.3754 19.9588H11.3754L11.3747 20.4088ZM12.0839 20.2212L11.8609 19.8304H11.8609L12.0839 20.2212ZM11.7275 3.03245L11.8245 3.47189V3.47189L11.7275 3.03245ZM2.68164 20.682C2.50599 20.8578 2.50614 21.1427 2.68196 21.3184C2.85779 21.494 3.14271 21.4939 3.31836 21.318L2.68164 20.682ZM7.50626 17.1259C7.68191 16.95 7.68176 16.6651 7.50594 16.4895C7.33011 16.3138 7.04519 16.314 6.86954 16.4898L7.50626 17.1259ZM15.2721 5.97322L18.0461 8.75009L18.6828 8.11402L15.9088 5.33714L15.2721 5.97322ZM9.3829 18.3681L5.67788 14.6593L5.04116 15.2953L8.74618 19.0041L9.3829 18.3681ZM16.852 14.2736L15.1266 14.9219L15.4431 15.7644L17.1685 15.1161L16.852 14.2736ZM9.12151 8.89841L9.74652 7.19254L8.90146 6.88292L8.27644 8.58878L9.12151 8.89841ZM6.58014 11.2399C7.23677 11.0589 7.67647 10.9445 8.03442 10.6868L7.50857 9.95642C7.31247 10.0976 7.06288 10.1733 6.34093 10.3723L6.58014 11.2399ZM8.27644 8.58878C8.01861 9.2925 7.92259 9.53541 7.76574 9.71946L8.45074 10.3032C8.73681 9.96754 8.88698 9.53853 9.12151 8.89841L8.27644 8.58878ZM8.03442 10.6868C8.18811 10.5762 8.32789 10.4474 8.45074 10.3032L7.76574 9.71946C7.68984 9.80852 7.60349 9.88808 7.50857 9.95642L8.03442 10.6868ZM15.1266 14.9219C14.4906 15.1608 14.0641 15.314 13.7313 15.6023L14.3205 16.2826C14.5029 16.1247 14.744 16.0271 15.4431 15.7644L15.1266 14.9219ZM13.6764 17.7004C13.8747 16.9798 13.9501 16.7304 14.0908 16.5343L13.3596 16.0096C13.1029 16.3673 12.989 16.8061 12.8086 17.4617L13.6764 17.7004ZM13.7313 15.6023C13.5919 15.723 13.4671 15.8597 13.3596 16.0096L14.0908 16.5343C14.1573 16.4417 14.2344 16.3572 14.3205 16.2826L13.7313 15.6023ZM5.67788 14.6593C5.10028 14.0811 4.69495 13.6744 4.42925 13.3405C4.16295 13.006 4.09749 12.8164 4.09661 12.6769L3.19662 12.6825C3.19945 13.1296 3.4207 13.5186 3.72507 13.901C4.03002 14.2842 4.47929 14.7329 5.04116 15.2953L5.67788 14.6593ZM6.34093 10.3723C5.57487 10.5835 4.96275 10.7515 4.50849 10.9339C4.0551 11.1159 3.67062 11.3448 3.44746 11.7323L4.22736 12.1815C4.29692 12.0607 4.44721 11.9283 4.84379 11.7691C5.23951 11.6103 5.7926 11.4571 6.58014 11.2399L6.34093 10.3723ZM4.09661 12.6769C4.09551 12.503 4.14065 12.332 4.22736 12.1815L3.44746 11.7323C3.28108 12.0212 3.19452 12.3492 3.19662 12.6825L4.09661 12.6769ZM8.74618 19.0041C9.31161 19.5702 9.76276 20.0227 10.148 20.3296C10.5325 20.6358 10.924 20.8581 11.374 20.8588L11.3754 19.9588C11.2354 19.9586 11.0451 19.8935 10.7087 19.6256C10.3731 19.3582 9.96417 18.9499 9.3829 18.3681L8.74618 19.0041ZM12.8086 17.4617C12.5904 18.255 12.4363 18.8122 12.2764 19.2107C12.1161 19.6101 11.9827 19.7609 11.8609 19.8304L12.307 20.6121C12.6979 20.389 12.9284 20.0023 13.1116 19.5459C13.2951 19.0887 13.4641 18.4722 13.6764 17.7004L12.8086 17.4617ZM11.374 20.8588C11.7012 20.8593 12.0228 20.7742 12.307 20.612L11.8609 19.8304C11.713 19.9148 11.5456 19.9591 11.3754 19.9588L11.374 20.8588ZM18.0461 8.75009C18.9979 9.70289 19.6747 10.382 20.0933 10.9469C20.5072 11.5055 20.5979 11.8597 20.5288 12.1793L21.4085 12.3695C21.559 11.6734 21.2889 11.0488 20.8164 10.4111C20.3487 9.77987 19.6135 9.04568 18.6828 8.11402L18.0461 8.75009ZM17.1685 15.1161C18.4008 14.6531 19.3735 14.2889 20.0602 13.9078C20.7539 13.5228 21.2579 13.0657 21.4085 12.3695L20.5288 12.1793C20.4597 12.4988 20.2308 12.7837 19.6234 13.1209C19.0089 13.4619 18.1122 13.8001 16.852 14.2736L17.1685 15.1161ZM15.9088 5.33714C14.9712 4.3986 14.2325 3.65751 13.598 3.1864C12.9573 2.71073 12.3294 2.43885 11.6306 2.59302L11.8245 3.47189C12.144 3.40138 12.4994 3.49172 13.0615 3.90902C13.6297 4.33087 14.3133 5.01349 15.2721 5.97322L15.9088 5.33714ZM9.74652 7.19254C10.2134 5.91829 10.547 5.01121 10.8854 4.38929C11.2202 3.77403 11.5048 3.54241 11.8245 3.47189L11.6306 2.59302C10.9318 2.74718 10.4764 3.258 10.0949 3.95911C9.717 4.65355 9.35803 5.63677 8.90146 6.88292L9.74652 7.19254ZM3.31836 21.318L7.50626 17.1259L6.86954 16.4898L2.68164 20.682L3.31836 21.318Z" fill="#424242"/>
</svg>
