<svg width="24" height="24" viewBox="0 0 24 24" fill="none" xmlns="http://www.w3.org/2000/svg">
<path d="M10.5312 19.2911L10.1776 18.9376V18.9376L10.5312 19.2911ZM11.333 6.84476L11.6865 6.49121H11.6865L11.333 6.84476ZM10.2413 5.75308L9.88773 6.10664V6.10664L10.2413 5.75308ZM12.4246 3.56973L12.7782 3.21617V3.21617L12.4246 3.56973ZM13.5163 4.6614L13.1628 5.01496C13.2565 5.10873 13.3837 5.1614 13.5163 5.1614C13.6489 5.1614 13.7761 5.10873 13.8699 5.01496L13.5163 4.6614ZM14.9719 3.20583L14.6183 2.85228V2.85228L14.9719 3.20583ZM19.3386 10.4837L18.985 10.1301C18.7898 10.3254 18.7898 10.642 18.985 10.8372L19.3386 10.4837ZM20.4303 11.5754L20.0767 11.9289V11.9289L20.4303 11.5754ZM4.70889 13.4688L4.35534 13.1153V13.1153L4.70889 13.4688ZM2.45219 19.3645L2.80574 19.718H2.80574L2.45219 19.3645ZM3.0809 18.7357L2.72734 18.3822H2.72734L3.0809 18.7357ZM4.63554 21.5478L4.9891 21.9014H4.9891L4.63554 21.5478ZM5.26425 20.9191L4.9107 20.5655H4.9107L5.26425 20.9191ZM3.77862 16.7467L3.28168 16.8019L3.28168 16.8019L3.77862 16.7467ZM3.72581 16.2714L4.22275 16.2162V16.2162L3.72581 16.2714ZM7.25332 20.2214L7.1981 20.7183L7.1981 20.7183L7.25332 20.2214ZM7.72863 20.2742L7.78385 19.7772H7.78385L7.72863 20.2742ZM5.51488 20.6781L5.83847 21.0593V21.0593L5.51488 20.6781ZM6.90709 20.1898L6.92166 19.69H6.92166L6.90709 20.1898ZM3.88016 14.4259L3.43836 14.1918L3.43836 14.1918L3.88016 14.4259ZM3.67658 15.0063L3.18534 14.9131L3.18534 14.9131L3.67658 15.0063ZM3.32186 18.4851L2.94069 18.1615H2.94069L3.32186 18.4851ZM3.81022 17.0929L4.31001 17.0783V17.0783L3.81022 17.0929ZM9.57407 20.1198L9.8082 20.5616V20.5616L9.57407 20.1198ZM8.99371 20.3234L9.08687 20.8147H9.08687L8.99371 20.3234ZM13.0001 13.1153C12.8048 12.92 12.4883 12.92 12.293 13.1153C12.0977 13.3105 12.0977 13.6271 12.293 13.8224L13.0001 13.1153ZM12.1464 17.6758C12.3417 17.8711 12.6583 17.8711 12.8536 17.6758C13.0488 17.4806 13.0488 17.164 12.8536 16.9687L12.1464 17.6758ZM11.0001 15.1153C10.8048 14.92 10.4883 14.92 10.293 15.1153C10.0977 15.3105 10.0977 15.6271 10.293 15.8224L11.0001 15.1153ZM11.6865 6.49121L10.5948 5.39953L9.88773 6.10664L10.9794 7.19831L11.6865 6.49121ZM18.6005 13.4052L17.5088 12.3135L16.8017 13.0206L17.8934 14.1123L18.6005 13.4052ZM12.0711 3.92328L13.1628 5.01496L13.8699 4.30785L12.7782 3.21617L12.0711 3.92328ZM13.8699 5.01496L15.3254 3.55939L14.6183 2.85228L13.1628 4.30785L13.8699 5.01496ZM20.4406 8.67456L18.985 10.1301L19.6922 10.8372L21.1477 9.38167L20.4406 8.67456ZM10.9794 7.19831L16.8017 13.0206L17.5088 12.3135L11.6865 6.49121L10.9794 7.19831ZM5.06244 13.8224L11.6865 7.19831L10.9794 6.49121L4.35534 13.1153L5.06244 13.8224ZM2.80574 19.718L3.43445 19.0893L2.72734 18.3822L2.09863 19.0109L2.80574 19.718ZM4.9891 21.9014L5.61781 21.2727L4.9107 20.5655L4.28199 21.1943L4.9891 21.9014ZM4.27557 16.6915L4.22275 16.2162L3.22887 16.3266L3.28168 16.8019L4.27557 16.6915ZM7.1981 20.7183L7.67341 20.7711L7.78385 19.7772L7.30853 19.7244L7.1981 20.7183ZM5.61781 21.2727C5.74808 21.1424 5.79367 21.0973 5.83847 21.0593L5.19128 20.297C5.1081 20.3676 5.02927 20.447 4.9107 20.5655L5.61781 21.2727ZM7.30854 19.7244C7.14187 19.7059 7.03073 19.6932 6.92166 19.69L6.89252 20.6896C6.95126 20.6913 7.015 20.698 7.1981 20.7183L7.30854 19.7244ZM5.83847 21.0593C6.13207 20.8101 6.50755 20.6783 6.89252 20.6896L6.92166 19.69C6.28968 19.6716 5.67327 19.8878 5.19128 20.297L5.83847 21.0593ZM2.09863 21.9014C2.89681 22.6995 4.19092 22.6995 4.9891 21.9014L4.28199 21.1943C3.87434 21.6019 3.2134 21.6019 2.80574 21.1943L2.09863 21.9014ZM4.35534 13.1153C3.92124 13.5494 3.62649 13.8368 3.43836 14.1918L4.32195 14.6601C4.42329 14.4688 4.58454 14.3003 5.06244 13.8224L4.35534 13.1153ZM4.22275 16.2162C4.14812 15.5444 4.1275 15.3121 4.16782 15.0995L3.18534 14.9131C3.11048 15.3079 3.16107 15.7164 3.22887 16.3266L4.22275 16.2162ZM3.43836 14.1918C3.31837 14.4182 3.23308 14.6614 3.18534 14.9131L4.16782 15.0995C4.19691 14.9461 4.24886 14.798 4.32195 14.6601L3.43836 14.1918ZM20.4406 3.55939C21.8531 4.9719 21.8531 7.26205 20.4406 8.67456L21.1477 9.38167C22.9508 7.57863 22.9508 4.65532 21.1477 2.85228L20.4406 3.55939ZM15.3254 3.55939C16.738 2.14687 19.0281 2.14687 20.4406 3.55939L21.1477 2.85228C19.3447 1.04924 16.4214 1.04924 14.6183 2.85228L15.3254 3.55939ZM20.0767 13.4052C19.6691 13.8128 19.0081 13.8128 18.6005 13.4052L17.8934 14.1123C18.6915 14.9105 19.9856 14.9105 20.7838 14.1123L20.0767 13.4052ZM3.43445 19.0893C3.55302 18.9707 3.63241 18.8919 3.70302 18.8087L2.94069 18.1615C2.90265 18.2063 2.85761 18.2519 2.72734 18.3822L3.43445 19.0893ZM3.28168 16.8019C3.30203 16.985 3.30872 17.0487 3.31043 17.1075L4.31001 17.0783C4.30683 16.9693 4.29408 16.8581 4.27557 16.6915L3.28168 16.8019ZM3.70302 18.8087C4.1122 18.3267 4.32843 17.7103 4.31001 17.0783L3.31043 17.1075C3.32165 17.4924 3.18994 17.8679 2.94069 18.1615L3.70302 18.8087ZM10.5948 3.92328C11.0025 3.51563 11.6634 3.51563 12.0711 3.92328L12.7782 3.21617C11.98 2.41799 10.6859 2.41799 9.88773 3.21617L10.5948 3.92328ZM2.80574 21.1943C2.39809 20.7866 2.39809 20.1257 2.80574 19.718L2.09863 19.0109C1.30046 19.8091 1.30045 21.1032 2.09863 21.9014L2.80574 21.1943ZM10.5948 5.39953C10.1872 4.99187 10.1872 4.33094 10.5948 3.92328L9.88773 3.21617C9.08955 4.01435 9.08955 5.30846 9.88773 6.10664L10.5948 5.39953ZM20.7838 14.1123C21.582 13.3141 21.582 12.02 20.7838 11.2218L20.0767 11.9289C20.4844 12.3366 20.4844 12.9975 20.0767 13.4052L20.7838 14.1123ZM10.1776 18.9376C9.69972 19.4155 9.53116 19.5767 9.33994 19.678L9.8082 20.5616C10.1632 20.3735 10.4506 20.0788 10.8847 19.6447L10.1776 18.9376ZM7.67341 20.7711C8.28357 20.8389 8.69215 20.8895 9.08687 20.8147L8.90055 19.8322C8.68793 19.8725 8.45556 19.8519 7.78385 19.7772L7.67341 20.7711ZM9.33994 19.678C9.20202 19.7511 9.0539 19.8031 8.90055 19.8322L9.08687 20.8147C9.33863 20.7669 9.58178 20.6816 9.8082 20.5616L9.33994 19.678ZM18.985 10.8372L20.0767 11.9289L20.7838 11.2218L19.6922 10.1301L18.985 10.8372ZM10.8847 19.6447L14.8536 15.6758L14.1464 14.9687L10.1776 18.9376L10.8847 19.6447ZM14.8536 15.6758L17.5088 13.0206L16.8017 12.3135L14.1464 14.9687L14.8536 15.6758ZM14.8536 14.9687L13.0001 13.1153L12.293 13.8224L14.1464 15.6758L14.8536 14.9687ZM12.8536 16.9687L11.0001 15.1153L10.293 15.8224L12.1464 17.6758L12.8536 16.9687Z" fill="#424242"/>
</svg>
