<svg width="24" height="24" viewBox="0 0 24 24" fill="none" xmlns="http://www.w3.org/2000/svg">
<path d="M15.1007 16.5379L15.3243 16.9851H15.3243L15.1007 16.5379ZM10.5675 18.8045L10.3439 18.3573H10.3439L10.5675 18.8045ZM10.5675 5.19549L10.7911 4.74828V4.74828L10.5675 5.19549ZM15.1007 7.46209L14.8771 7.90931V7.90931L15.1007 7.46209ZM5.19549 13.4325L5.64271 13.6561V13.6561L5.19549 13.4325ZM5.63357 12.3942L5.14309 12.2971L5.14309 12.2971L5.63357 12.3942ZM5.19549 10.5675L5.64271 10.3439V10.3439L5.19549 10.5675ZM5.63357 11.6058L6.12405 11.5087L6.12405 11.5087L5.63357 11.6058ZM4.84668 3.04361L4.71872 2.56026V2.56026L4.84668 3.04361ZM3.04361 4.84668L2.56026 4.71872L2.56026 4.71872L3.04361 4.84668ZM4.84668 20.9564L4.97464 20.473H4.97464L4.84668 20.9564ZM3.04361 19.1533L2.56026 19.2813H2.56026L3.04361 19.1533ZM10.7278 11.4695C10.4517 11.4679 10.2266 11.6905 10.225 11.9667C10.2235 12.2428 10.4461 12.4679 10.7222 12.4694L10.7278 11.4695ZM16.2517 12.5001C16.5278 12.5016 16.7529 12.279 16.7544 12.0029C16.756 11.7267 16.5334 11.5016 16.2572 11.5001L16.2517 12.5001ZM14.8771 16.0907L10.3439 18.3573L10.7911 19.2517L15.3243 16.9851L14.8771 16.0907ZM10.3439 5.64271L14.8771 7.90931L15.3243 7.01488L10.7911 4.74828L10.3439 5.64271ZM5.64271 13.6561C5.88683 13.1679 6.05469 12.8416 6.12405 12.4913L5.14309 12.2971C5.1061 12.4839 5.01735 12.6708 4.74828 13.2089L5.64271 13.6561ZM4.74828 10.7911C5.01736 11.3292 5.1061 11.5161 5.14309 11.7029L6.12405 11.5087C6.05469 11.1585 5.88683 10.8321 5.64271 10.3439L4.74828 10.7911ZM6.12405 12.4913C6.18827 12.1669 6.18827 11.8331 6.12405 11.5087L5.14309 11.7029C5.18192 11.8991 5.18192 12.1009 5.14309 12.2971L6.12405 12.4913ZM10.7911 4.74828C9.20119 3.95333 7.981 3.3428 7.0429 2.96456C6.13197 2.59728 5.35847 2.39089 4.71872 2.56026L4.97464 3.52696C5.26137 3.45105 5.75017 3.52156 6.66896 3.89201C7.56058 4.25151 8.73755 4.83955 10.3439 5.64271L10.7911 4.74828ZM5.64271 10.3439C4.83955 8.73755 4.25151 7.56058 3.89201 6.66896C3.52156 5.75016 3.45105 5.26137 3.52696 4.97464L2.56026 4.71872C2.3909 5.35847 2.59728 6.13197 2.96456 7.0429C3.3428 7.981 3.95333 9.20119 4.74828 10.7911L5.64271 10.3439ZM4.71872 2.56026C3.66363 2.83959 2.83959 3.66363 2.56026 4.71872L3.52696 4.97464C3.7143 4.26699 4.26699 3.7143 4.97464 3.52696L4.71872 2.56026ZM10.3439 18.3573C8.73755 19.1605 7.56058 19.7485 6.66896 20.108C5.75017 20.4784 5.26137 20.5489 4.97464 20.473L4.71872 21.4397C5.35847 21.6091 6.13197 21.4027 7.0429 21.0354C7.981 20.6572 9.20119 20.0467 10.7911 19.2517L10.3439 18.3573ZM4.74828 13.2089C3.95333 14.7988 3.3428 16.019 2.96456 16.9571C2.59728 17.868 2.39089 18.6415 2.56026 19.2813L3.52696 19.0254C3.45105 18.7386 3.52156 18.2498 3.89201 17.331C4.25151 16.4394 4.83955 15.2625 5.64271 13.6561L4.74828 13.2089ZM4.97464 20.473C4.26699 20.2857 3.7143 19.733 3.52696 19.0254L2.56026 19.2813C2.83958 20.3364 3.66363 21.1604 4.71872 21.4397L4.97464 20.473ZM15.3243 16.9851C17.2891 16.0027 18.8146 15.2414 19.842 14.5244C20.8663 13.8094 21.5409 13.0396 21.5409 12H20.5409C20.5409 12.5283 20.2254 13.0373 19.2697 13.7043C18.317 14.3693 16.8723 15.0931 14.8771 16.0907L15.3243 16.9851ZM14.8771 7.90931C16.8724 8.90695 18.317 9.63072 19.2697 10.2957C20.2254 10.9627 20.5409 11.4718 20.5409 12H21.5409C21.5409 10.9604 20.8663 10.1906 19.842 9.47563C18.8146 8.75858 17.2891 7.9973 15.3243 7.01488L14.8771 7.90931ZM10.7222 12.4694L16.2517 12.5001L16.2572 11.5001L10.7278 11.4695L10.7222 12.4694Z" fill="#424242"/>
</svg>
