<svg width="24" height="24" viewBox="0 0 24 24" fill="none" xmlns="http://www.w3.org/2000/svg">
<path d="M20.8284 18.8285L20.4749 18.4749V18.4749L20.8284 18.8285ZM20.8284 5.17162L20.4749 5.52517V5.52517L20.8284 5.17162ZM15.0015 3.50098C14.7253 3.50017 14.5008 3.72337 14.5 3.99951C14.4992 4.27565 14.7224 4.50017 14.9985 4.50097L15 4.00098L15.0015 3.50098ZM9.00146 4.50097C9.27761 4.50017 9.50081 4.27565 9.5 3.99951C9.49919 3.72337 9.27468 3.50017 8.99854 3.50098L9 4.00098L9.00146 4.50097ZM11.5 5C11.5 5.27614 11.7239 5.5 12 5.5C12.2761 5.5 12.5 5.27614 12.5 5H12H11.5ZM12.5 3C12.5 2.72386 12.2761 2.5 12 2.5C11.7239 2.5 11.5 2.72386 11.5 3H12H12.5ZM8 10C7.72386 10 7.5 10.2239 7.5 10.5C7.5 10.7761 7.72386 11 8 11V10.5V10ZM16 11C16.2761 11 16.5 10.7761 16.5 10.5C16.5 10.2239 16.2761 10 16 10V10.5V11ZM8 13.5C7.72386 13.5 7.5 13.7239 7.5 14C7.5 14.2761 7.72386 14.5 8 14.5V14V13.5ZM13.5 14.5C13.7761 14.5 14 14.2761 14 14C14 13.7239 13.7761 13.5 13.5 13.5V14V14.5ZM14 20V19.5H10V20V20.5H14V20ZM10 20V19.5C8.10025 19.5 6.72573 19.499 5.67754 19.3581C4.64372 19.2191 4.00253 18.9523 3.52513 18.4749L3.17157 18.8285L2.81802 19.182C3.51219 19.8762 4.39959 20.1952 5.54429 20.3491C6.67461 20.5011 8.12852 20.5 10 20.5V20ZM2 12H1.5C1.5 13.8715 1.49894 15.3254 1.65091 16.4558C1.80481 17.6005 2.12385 18.4879 2.81802 19.182L3.17157 18.8285L3.52513 18.4749C3.04772 17.9975 2.78098 17.3563 2.64199 16.3225C2.50106 15.2743 2.5 13.8998 2.5 12H2ZM22 12H21.5C21.5 13.8998 21.4989 15.2743 21.358 16.3225C21.219 17.3563 20.9523 17.9975 20.4749 18.4749L20.8284 18.8285L21.182 19.182C21.8762 18.4879 22.1952 17.6005 22.3491 16.4558C22.5011 15.3254 22.5 13.8715 22.5 12H22ZM14 20V20.5C15.8715 20.5 17.3254 20.5011 18.4557 20.3491C19.6004 20.1952 20.4878 19.8762 21.182 19.182L20.8284 18.8285L20.4749 18.4749C19.9975 18.9523 19.3563 19.2191 18.3225 19.3581C17.2743 19.499 15.8998 19.5 14 19.5V20ZM22 12H22.5C22.5 10.1286 22.5011 8.67465 22.3491 7.54434C22.1952 6.39964 21.8762 5.51224 21.182 4.81807L20.8284 5.17162L20.4749 5.52517C20.9523 6.00257 21.219 6.64377 21.358 7.67758C21.4989 8.72578 21.5 10.1003 21.5 12H22ZM2 12H2.5C2.5 10.1003 2.50106 8.72578 2.64199 7.67758C2.78098 6.64377 3.04772 6.00257 3.52513 5.52517L3.17157 5.17162L2.81802 4.81807C2.12385 5.51224 1.80481 6.39964 1.65091 7.54434C1.49894 8.67465 1.5 10.1286 1.5 12H2ZM15 4.00098L14.9985 4.50097C16.5624 4.50555 17.7123 4.53343 18.5998 4.68401C19.4727 4.83212 20.041 5.09131 20.4749 5.52517L20.8284 5.17162L21.182 4.81807C20.5527 4.18883 19.764 3.86726 18.7671 3.6981C17.7846 3.53141 16.5519 3.50552 15.0015 3.50098L15 4.00098ZM9 4.00098L8.99854 3.50098C7.44808 3.50552 6.21537 3.53141 5.23294 3.6981C4.23597 3.86726 3.44725 4.18883 2.81802 4.81807L3.17157 5.17162L3.52513 5.52517C3.95898 5.09131 4.52733 4.83212 5.40022 4.68401C6.28766 4.53343 7.43762 4.50555 9.00146 4.50097L9 4.00098ZM12 5H12.5V3H12H11.5V5H12ZM8 10.5V11H16V10.5V10H8V10.5ZM8 14V14.5H13.5V14V13.5H8V14Z" fill="#424242"/>
</svg>
