<svg width="24" height="24" viewBox="0 0 24 24" fill="none" xmlns="http://www.w3.org/2000/svg">
<path d="M20 4.5C20.2761 4.5 20.5 4.27614 20.5 4C20.5 3.72386 20.2761 3.5 20 3.5V4V4.5ZM3 3.5C2.72386 3.5 2.5 3.72386 2.5 4C2.5 4.27614 2.72386 4.5 3 4.5V4V3.5ZM8 14.5C8.27614 14.5 8.5 14.2761 8.5 14C8.5 13.7239 8.27614 13.5 8 13.5V14V14.5ZM3 13.5C2.72386 13.5 2.5 13.7239 2.5 14C2.5 14.2761 2.72386 14.5 3 14.5V14V13.5ZM12 9.5C12.2761 9.5 12.5 9.27614 12.5 9C12.5 8.72386 12.2761 8.5 12 8.5V9V9.5ZM3 8.5C2.72386 8.5 2.5 8.72386 2.5 9C2.5 9.27614 2.72386 9.5 3 9.5V9V8.5ZM16.5 11C16.5 10.7239 16.2761 10.5 16 10.5C15.7239 10.5 15.5 10.7239 15.5 11H16H16.5ZM16.9205 8.95812L17.1369 9.40888V9.40888L16.9205 8.95812ZM18.675 8.11595L18.8914 8.56671V8.56671L18.675 8.11595ZM20.0795 11.0418L20.2958 11.4926V11.4926L20.0795 11.0418ZM18.325 11.884L18.5413 12.3348V12.3348L18.325 11.884ZM16.1911 11.9986L16.5955 11.7047V11.7047L16.1911 11.9986ZM16.8201 12.3944L16.91 11.9026V11.9026L16.8201 12.3944ZM20.9395 10.3134L20.4697 10.1421V10.1421L20.9395 10.3134ZM20.7155 10.6694L21.0732 11.0187V11.0187L20.7155 10.6694ZM20.1799 7.60553L20.2699 7.11369L20.1799 7.60553ZM20.8089 8.00132L21.2134 7.70738V7.70738L20.8089 8.00132ZM16.2845 9.33055L16.6423 9.67988H16.6423L16.2845 9.33055ZM16.0605 9.68654L16.5303 9.85787V9.85787L16.0605 9.68654ZM20 4V3.5H3V4V4.5H20V4ZM8 14V13.5H3V14V14.5H8V14ZM12 9V8.5H3V9V9.5H12V9ZM16 17.4286H15.5C15.5 18.586 14.5914 19.5 13.5 19.5V20V20.5C15.17 20.5 16.5 19.1115 16.5 17.4286H16ZM13.5 20V19.5C12.4086 19.5 11.5 18.586 11.5 17.4286H11H10.5C10.5 19.1115 11.83 20.5 13.5 20.5V20ZM11 17.4286H11.5C11.5 16.2712 12.4086 15.3571 13.5 15.3571V14.8571V14.3571C11.83 14.3571 10.5 15.7456 10.5 17.4286H11ZM13.5 14.8571V15.3571C14.5914 15.3571 15.5 16.2712 15.5 17.4286H16H16.5C16.5 15.7456 15.17 14.3571 13.5 14.3571V14.8571ZM16 17.4286H16.5V11H16H15.5V17.4286H16ZM16.9205 8.95812L17.1369 9.40888L18.8914 8.56671L18.675 8.11595L18.4587 7.66519L16.7042 8.50736L16.9205 8.95812ZM20.0795 11.0418L19.8631 10.5911L18.1086 11.4332L18.325 11.884L18.5413 12.3348L20.2958 11.4926L20.0795 11.0418ZM16 10.4211H15.5C15.5 10.8492 15.4995 11.206 15.5261 11.4871C15.5528 11.7682 15.6117 12.0519 15.7866 12.2926L16.1911 11.9986L16.5955 11.7047C16.5794 11.6824 16.5428 11.6156 16.5217 11.3927C16.5005 11.1699 16.5 10.8694 16.5 10.4211H16ZM18.325 11.884L18.1086 11.4332C17.7044 11.6272 17.4332 11.7568 17.2232 11.8342C17.0131 11.9116 16.9371 11.9075 16.91 11.9026L16.8201 12.3944L16.7301 12.8863C17.0227 12.9398 17.304 12.8701 17.569 12.7725C17.8339 12.6749 18.1554 12.52 18.5413 12.3348L18.325 11.884ZM16.1911 11.9986L15.7866 12.2926C16.0131 12.6043 16.351 12.8169 16.7301 12.8863L16.8201 12.3944L16.91 11.9026C16.7837 11.8795 16.671 11.8086 16.5955 11.7047L16.1911 11.9986ZM21 9.57889H20.5C20.5 9.99635 20.4928 10.0789 20.4697 10.1421L20.9395 10.3134L21.4092 10.4847C21.5072 10.2159 21.5 9.91947 21.5 9.57889H21ZM20.0795 11.0418L20.2958 11.4926C20.6029 11.3452 20.8733 11.2234 21.0732 11.0187L20.7155 10.6694L20.3577 10.3201C20.3108 10.3682 20.2394 10.4104 19.8631 10.5911L20.0795 11.0418ZM20.9395 10.3134L20.4697 10.1421C20.4454 10.2087 20.4073 10.2693 20.3577 10.3201L20.7155 10.6694L21.0732 11.0187C21.2218 10.8666 21.3363 10.6845 21.4092 10.4847L20.9395 10.3134ZM18.675 8.11595L18.8914 8.56671C19.2956 8.3727 19.5668 8.24312 19.7768 8.16575C19.9869 8.08835 20.0629 8.09242 20.09 8.09737L20.1799 7.60553L20.2699 7.11369C19.9773 7.06016 19.696 7.12981 19.431 7.22742C19.1661 7.32506 18.8446 7.47993 18.4587 7.66519L18.675 8.11595ZM21 9.57889H21.5C21.5 9.15077 21.5005 8.79399 21.4739 8.51284C21.4472 8.23177 21.3883 7.94803 21.2134 7.70738L20.8089 8.00132L20.4045 8.29526C20.4206 8.3175 20.4572 8.38432 20.4783 8.6072C20.4995 8.83 20.5 9.13056 20.5 9.57889H21ZM20.1799 7.60553L20.09 8.09737C20.2163 8.12048 20.329 8.19134 20.4045 8.29526L20.8089 8.00132L21.2134 7.70738C20.9869 7.39563 20.649 7.18303 20.2699 7.11369L20.1799 7.60553ZM16.9205 8.95812L16.7042 8.50736C16.3971 8.65474 16.1267 8.77649 15.9268 8.98122L16.2845 9.33055L16.6423 9.67988C16.6892 9.63178 16.7605 9.58952 17.1369 9.40888L16.9205 8.95812ZM16 10.4211H16.5C16.5 10.0036 16.5072 9.92102 16.5303 9.85787L16.0605 9.68654L15.5908 9.5152C15.4928 9.78403 15.5 10.0805 15.5 10.4211H16ZM16.2845 9.33055L15.9268 8.98122C15.7782 9.13338 15.6637 9.3154 15.5908 9.5152L16.0605 9.68654L16.5303 9.85787C16.5546 9.79127 16.5927 9.7306 16.6423 9.67988L16.2845 9.33055Z" fill="#424242"/>
</svg>
