<svg width="24" height="24" viewBox="0 0 24 24" fill="none" xmlns="http://www.w3.org/2000/svg">
<path d="M15 6.5C15.2761 6.5 15.5 6.27614 15.5 6C15.5 5.72386 15.2761 5.5 15 5.5V6V6.5ZM3 5.5C2.72386 5.5 2.5 5.72386 2.5 6C2.5 6.27614 2.72386 6.5 3 6.5V6V5.5ZM13 10.5C13.2761 10.5 13.5 10.2761 13.5 10C13.5 9.72386 13.2761 9.5 13 9.5V10V10.5ZM3 9.5C2.72386 9.5 2.5 9.72386 2.5 10C2.5 10.2761 2.72386 10.5 3 10.5V10V9.5ZM9 14.5C9.27614 14.5 9.5 14.2761 9.5 14C9.5 13.7239 9.27614 13.5 9 13.5V14V14.5ZM3 13.5C2.72386 13.5 2.5 13.7239 2.5 14C2.5 14.2761 2.72386 14.5 3 14.5V14V13.5ZM8 18.5C8.27614 18.5 8.5 18.2761 8.5 18C8.5 17.7239 8.27614 17.5 8 17.5V18V18.5ZM3 17.5C2.72386 17.5 2.5 17.7239 2.5 18C2.5 18.2761 2.72386 18.5 3 18.5V18V17.5ZM21 12.5C21.2761 12.5 21.5 12.2761 21.5 12C21.5 11.7239 21.2761 11.5 21 11.5V12V12.5ZM15 6V5.5H3V6V6.5H15V6ZM13 10V9.5H3V10V10.5H13V10ZM9 14V13.5H3V14V14.5H9V14ZM8 18V17.5H3V18V18.5H8V18ZM17 16.5H16.5C16.5 17.6046 15.6046 18.5 14.5 18.5V19V19.5C16.1569 19.5 17.5 18.1569 17.5 16.5H17ZM14.5 19V18.5C13.3954 18.5 12.5 17.6046 12.5 16.5H12H11.5C11.5 18.1569 12.8431 19.5 14.5 19.5V19ZM12 16.5H12.5C12.5 15.3954 13.3954 14.5 14.5 14.5V14V13.5C12.8431 13.5 11.5 14.8431 11.5 16.5H12ZM14.5 14V14.5C15.6046 14.5 16.5 15.3954 16.5 16.5H17H17.5C17.5 14.8431 16.1569 13.5 14.5 13.5V14ZM21 12V11.5C19.067 11.5 17.5 9.933 17.5 8H17H16.5C16.5 10.4853 18.5147 12.5 21 12.5V12ZM17 16.5H17.5V8H17H16.5V16.5H17Z" fill="#424242"/>
</svg>
