<svg width="24" height="24" viewBox="0 0 24 24" fill="none" xmlns="http://www.w3.org/2000/svg">
<path d="M16.5 10C16.5 9.72386 16.2761 9.5 16 9.5C15.7239 9.5 15.5 9.72386 15.5 10H16H16.5ZM16.9205 7.95812L17.1369 8.40888V8.40888L16.9205 7.95812ZM18.675 7.11595L18.8914 7.56671V7.56671L18.675 7.11595ZM20.0795 10.0418L20.2958 10.4926V10.4926L20.0795 10.0418ZM18.325 10.884L18.5413 11.3348V11.3348L18.325 10.884ZM16.1911 10.9986L16.5955 10.7047V10.7047L16.1911 10.9986ZM16.8201 11.3944L16.91 10.9026V10.9026L16.8201 11.3944ZM20.9395 9.31341L20.4697 9.14207V9.14207L20.9395 9.31341ZM20.7155 9.6694L21.0732 10.0187V10.0187L20.7155 9.6694ZM20.1799 6.60553L20.2699 6.11369L20.1799 6.60553ZM20.8089 7.00132L21.2134 6.70738V6.70738L20.8089 7.00132ZM16.2845 8.33055L16.6423 8.67988L16.6423 8.67988L16.2845 8.33055ZM16.0605 8.68654L16.5303 8.85787V8.85787L16.0605 8.68654ZM15 5.5C15.2761 5.5 15.5 5.27614 15.5 5C15.5 4.72386 15.2761 4.5 15 4.5V5V5.5ZM3 4.5C2.72386 4.5 2.5 4.72386 2.5 5C2.5 5.27614 2.72386 5.5 3 5.5V5V4.5ZM13 9.5C13.2761 9.5 13.5 9.27614 13.5 9C13.5 8.72386 13.2761 8.5 13 8.5V9V9.5ZM3 8.5C2.72386 8.5 2.5 8.72386 2.5 9C2.5 9.27614 2.72386 9.5 3 9.5V9V8.5ZM9 13.5C9.27614 13.5 9.5 13.2761 9.5 13C9.5 12.7239 9.27614 12.5 9 12.5V13V13.5ZM3 12.5C2.72386 12.5 2.5 12.7239 2.5 13C2.5 13.2761 2.72386 13.5 3 13.5V13V12.5ZM8 17.5C8.27614 17.5 8.5 17.2761 8.5 17C8.5 16.7239 8.27614 16.5 8 16.5V17V17.5ZM3 16.5C2.72386 16.5 2.5 16.7239 2.5 17C2.5 17.2761 2.72386 17.5 3 17.5V17V16.5ZM16 16.4286H15.5C15.5 17.586 14.5914 18.5 13.5 18.5V19V19.5C15.17 19.5 16.5 18.1115 16.5 16.4286H16ZM13.5 19V18.5C12.4086 18.5 11.5 17.586 11.5 16.4286H11H10.5C10.5 18.1115 11.83 19.5 13.5 19.5V19ZM11 16.4286H11.5C11.5 15.2712 12.4086 14.3571 13.5 14.3571V13.8571V13.3571C11.83 13.3571 10.5 14.7456 10.5 16.4286H11ZM13.5 13.8571V14.3571C14.5914 14.3571 15.5 15.2712 15.5 16.4286H16H16.5C16.5 14.7456 15.17 13.3571 13.5 13.3571V13.8571ZM16 16.4286H16.5V10H16H15.5V16.4286H16ZM16.9205 7.95812L17.1369 8.40888L18.8914 7.56671L18.675 7.11595L18.4587 6.66519L16.7042 7.50736L16.9205 7.95812ZM20.0795 10.0418L19.8631 9.59106L18.1086 10.4332L18.325 10.884L18.5413 11.3348L20.2958 10.4926L20.0795 10.0418ZM16 9.42106H15.5C15.5 9.84917 15.4995 10.206 15.5261 10.4871C15.5528 10.7682 15.6117 11.0519 15.7866 11.2926L16.1911 10.9986L16.5955 10.7047C16.5794 10.6824 16.5428 10.6156 16.5217 10.3927C16.5005 10.1699 16.5 9.86938 16.5 9.42106H16ZM18.325 10.884L18.1086 10.4332C17.7044 10.6272 17.4332 10.7568 17.2232 10.8342C17.0131 10.9116 16.9371 10.9075 16.91 10.9026L16.8201 11.3944L16.7301 11.8863C17.0227 11.9398 17.304 11.8701 17.569 11.7725C17.8339 11.6749 18.1554 11.52 18.5413 11.3348L18.325 10.884ZM16.1911 10.9986L15.7866 11.2926C16.0131 11.6043 16.351 11.8169 16.7301 11.8863L16.8201 11.3944L16.91 10.9026C16.7837 10.8795 16.671 10.8086 16.5955 10.7047L16.1911 10.9986ZM21 8.57889H20.5C20.5 8.99635 20.4928 9.07892 20.4697 9.14207L20.9395 9.31341L21.4092 9.48474C21.5072 9.21592 21.5 8.91947 21.5 8.57889H21ZM20.0795 10.0418L20.2958 10.4926C20.6029 10.3452 20.8733 10.2234 21.0732 10.0187L20.7155 9.6694L20.3577 9.32007C20.3108 9.36816 20.2394 9.41042 19.8631 9.59106L20.0795 10.0418ZM20.9395 9.31341L20.4697 9.14207C20.4454 9.20867 20.4073 9.26934 20.3577 9.32007L20.7155 9.6694L21.0732 10.0187C21.2218 9.86657 21.3363 9.68455 21.4092 9.48474L20.9395 9.31341ZM18.675 7.11595L18.8914 7.56671C19.2956 7.3727 19.5668 7.24313 19.7768 7.16575C19.9869 7.08835 20.0629 7.09242 20.09 7.09737L20.1799 6.60553L20.2699 6.11369C19.9773 6.06016 19.696 6.12981 19.431 6.22742C19.1661 6.32506 18.8446 6.47993 18.4587 6.66519L18.675 7.11595ZM21 8.57889H21.5C21.5 8.15077 21.5005 7.79399 21.4739 7.51284C21.4472 7.23177 21.3883 6.94803 21.2134 6.70738L20.8089 7.00132L20.4045 7.29526C20.4206 7.3175 20.4572 7.38432 20.4783 7.6072C20.4995 7.83 20.5 8.13056 20.5 8.57889H21ZM20.1799 6.60553L20.09 7.09737C20.2163 7.12048 20.329 7.19134 20.4045 7.29526L20.8089 7.00132L21.2134 6.70738C20.9869 6.39563 20.649 6.18303 20.2699 6.11369L20.1799 6.60553ZM16.9205 7.95812L16.7042 7.50736C16.3971 7.65474 16.1267 7.77649 15.9268 7.98122L16.2845 8.33055L16.6423 8.67988C16.6892 8.63178 16.7605 8.58952 17.1369 8.40888L16.9205 7.95812ZM16 9.42106H16.5C16.5 9.0036 16.5072 8.92102 16.5303 8.85787L16.0605 8.68654L15.5908 8.5152C15.4928 8.78403 15.5 9.08047 15.5 9.42106H16ZM16.2845 8.33055L15.9268 7.98122C15.7782 8.13338 15.6637 8.3154 15.5908 8.5152L16.0605 8.68654L16.5303 8.85787C16.5546 8.79127 16.5927 8.7306 16.6423 8.67988L16.2845 8.33055ZM15 5V4.5H3V5V5.5H15V5ZM13 9V8.5H3V9V9.5H13V9ZM9 13V12.5H3V13V13.5H9V13ZM8 17V16.5H3V17V17.5H8V17Z" fill="#424242"/>
</svg>
