<svg width="24" height="24" viewBox="0 0 24 24" fill="none" xmlns="http://www.w3.org/2000/svg">
<path d="M21 6H3M21 10H3M11 14H3M11 18H3M14.75 16.5C14.75 14.5903 14.75 13.6355 15.2858 13.1858C15.4199 13.0734 15.5725 12.9852 15.737 12.9254C16.3942 12.6861 17.2212 13.1636 18.875 14.1184C20.5288 15.0732 21.3558 15.5507 21.4772 16.2395C21.5076 16.4118 21.5076 16.5881 21.4772 16.7605C21.3558 17.4493 20.5288 17.9267 18.875 18.8815C17.2212 19.8364 16.3942 20.3138 15.737 20.0746C15.5725 20.0147 15.4199 19.9266 15.2858 19.8141C14.75 19.3645 14.75 18.4097 14.75 16.5Z" stroke="#424242" stroke-linecap="round"/>
</svg>
