<svg width="24" height="24" viewBox="0 0 24 24" fill="none" xmlns="http://www.w3.org/2000/svg">
<path d="M2.87868 17.1213L3.23223 16.7678H3.23223L2.87868 17.1213ZM21.1213 17.1213L21.4749 17.4749V17.4749L21.1213 17.1213ZM9 10.5C9.27614 10.5 9.5 10.2761 9.5 10C9.5 9.72386 9.27614 9.5 9 9.5V10.5ZM6 9.5C5.72386 9.5 5.5 9.72386 5.5 10C5.5 10.2761 5.72386 10.5 6 10.5V9.5ZM19 15.5C19.2761 15.5 19.5 15.2761 19.5 15C19.5 14.7239 19.2761 14.5 19 14.5V15.5ZM5 14.5C4.72386 14.5 4.5 14.7239 4.5 15C4.5 15.2761 4.72386 15.5 5 15.5V14.5ZM17.1213 2.87868L16.7678 3.23223V3.23223L17.1213 2.87868ZM6.87868 2.87868L7.23223 3.23223V3.23223L6.87868 2.87868ZM6.87868 21.1213L7.23223 20.7678V20.7678L6.87868 21.1213ZM18.5 15C18.5 14.7239 18.2761 14.5 18 14.5C17.7239 14.5 17.5 14.7239 17.5 15H18.5ZM6.5 15C6.5 14.7239 6.27614 14.5 6 14.5C5.72386 14.5 5.5 14.7239 5.5 15H6.5ZM8 6.5H16V5.5H8V6.5ZM1.5 12C1.5 13.4001 1.49894 14.5004 1.61429 15.3584C1.73158 16.2308 1.9774 16.9271 2.52513 17.4749L3.23223 16.7678C2.90128 16.4368 2.70776 15.9867 2.60538 15.2252C2.50106 14.4493 2.5 13.4283 2.5 12H1.5ZM21.5 12C21.5 13.4283 21.4989 14.4493 21.3946 15.2252C21.2922 15.9867 21.0987 16.4368 20.7678 16.7678L21.4749 17.4749C22.0226 16.9271 22.2684 16.2308 22.3857 15.3584C22.5011 14.5004 22.5 13.4001 22.5 12H21.5ZM16 6.5C17.4283 6.5 18.4493 6.50106 19.2252 6.60538C19.9867 6.70776 20.4368 6.90128 20.7678 7.23223L21.4749 6.52513C20.9272 5.9774 20.2308 5.73158 19.3584 5.61429C18.5004 5.49894 17.4001 5.5 16 5.5V6.5ZM22.5 12C22.5 10.5999 22.5011 9.49956 22.3857 8.64156C22.2684 7.76918 22.0226 7.07285 21.4749 6.52513L20.7678 7.23223C21.0987 7.56319 21.2922 8.01331 21.3946 8.77481C21.4989 9.55069 21.5 10.5717 21.5 12H22.5ZM8 5.5C6.59992 5.5 5.49956 5.49894 4.64156 5.61429C3.76917 5.73158 3.07285 5.9774 2.52513 6.52513L3.23223 7.23223C3.56319 6.90128 4.01331 6.70776 4.77481 6.60538C5.55069 6.50106 6.57165 6.5 8 6.5V5.5ZM2.5 12C2.5 10.5717 2.50106 9.55069 2.60538 8.77481C2.70776 8.01331 2.90128 7.56319 3.23223 7.23223L2.52513 6.52513C1.9774 7.07285 1.73158 7.76917 1.61429 8.64156C1.49894 9.49956 1.5 10.5999 1.5 12H2.5ZM6.01506 17.4829C4.45411 17.4359 3.71972 17.2553 3.23223 16.7678L2.52513 17.4749C3.32024 18.27 4.43899 18.4359 5.98494 18.4824L6.01506 17.4829ZM18.0151 18.4824C19.561 18.4359 20.6798 18.27 21.4749 17.4749L20.7678 16.7678C20.2803 17.2553 19.5459 17.4359 17.985 17.4829L18.0151 18.4824ZM9 9.5H6V10.5H9V9.5ZM19 14.5H5V15.5H19V14.5ZM17.5 16C17.5 17.4283 17.4989 18.4493 17.3946 19.2252C17.2922 19.9867 17.0987 20.4368 16.7678 20.7678L17.4749 21.4749C18.0226 20.9272 18.2684 20.2308 18.3857 19.3584C18.5011 18.5004 18.5 17.4001 18.5 16H17.5ZM12 22.5C13.4001 22.5 14.5004 22.5011 15.3584 22.3857C16.2308 22.2684 16.9272 22.0226 17.4749 21.4749L16.7678 20.7678C16.4368 21.0987 15.9867 21.2922 15.2252 21.3946C14.4493 21.4989 13.4283 21.5 12 21.5V22.5ZM12 2.5C13.4283 2.5 14.4493 2.50106 15.2252 2.60538C15.9867 2.70776 16.4368 2.90128 16.7678 3.23223L17.4749 2.52513C16.9271 1.9774 16.2308 1.73158 15.3584 1.61429C14.5004 1.49894 13.4001 1.5 12 1.5V2.5ZM12 1.5C10.5999 1.5 9.49956 1.49894 8.64156 1.61429C7.76917 1.73158 7.07285 1.9774 6.52513 2.52513L7.23223 3.23223C7.56319 2.90128 8.01331 2.70776 8.77481 2.60538C9.55069 2.50106 10.5717 2.5 12 2.5V1.5ZM5.5 16C5.5 17.4001 5.49894 18.5004 5.61429 19.3584C5.73158 20.2308 5.9774 20.9272 6.52513 21.4749L7.23223 20.7678C6.90128 20.4368 6.70776 19.9867 6.60538 19.2252C6.50106 18.4493 6.5 17.4283 6.5 16H5.5ZM12 21.5C10.5717 21.5 9.55069 21.4989 8.77481 21.3946C8.01331 21.2922 7.56319 21.0987 7.23223 20.7678L6.52513 21.4749C7.07285 22.0226 7.76918 22.2684 8.64156 22.3857C9.49956 22.5011 10.5999 22.5 12 22.5V21.5ZM18.4825 5.98494C18.4359 4.43899 18.27 3.32024 17.4749 2.52513L16.7678 3.23223C17.2553 3.71972 17.4359 4.45411 17.4829 6.01506L18.4825 5.98494ZM6.5171 6.01506C6.56413 4.45412 6.74474 3.71972 7.23223 3.23223L6.52513 2.52513C5.73001 3.32024 5.56413 4.43899 5.51755 5.98494L6.5171 6.01506ZM18.5 16V15H17.5V16H18.5ZM6.5 16V15H5.5V16H6.5ZM17.5 10C17.5 10.2761 17.2761 10.5 17 10.5V11.5C17.8284 11.5 18.5 10.8284 18.5 10H17.5ZM17 10.5C16.7239 10.5 16.5 10.2761 16.5 10H15.5C15.5 10.8284 16.1716 11.5 17 11.5V10.5ZM16.5 10C16.5 9.72386 16.7239 9.5 17 9.5V8.5C16.1716 8.5 15.5 9.17157 15.5 10H16.5ZM17 9.5C17.2761 9.5 17.5 9.72386 17.5 10H18.5C18.5 9.17157 17.8284 8.5 17 8.5V9.5Z" fill="#424242"/>
</svg>
