<svg width="24" height="24" viewBox="0 0 24 24" fill="none" xmlns="http://www.w3.org/2000/svg">
<path d="M12 11.9996L8.50099 9.16753L7.5 8.35735M7.0869 3.28972C9.28684 2.04857 11.9556 1.63489 14.5882 2.34029C19.9229 3.76971 23.0887 9.25308 21.6593 14.5877C20.2299 19.9224 14.7465 23.0882 9.41185 21.6588C4.07719 20.2294 0.911365 14.746 2.34078 9.41136C2.62413 8.35389 3.06678 7.38163 3.63599 6.5135C3.93869 6.05182 4.57285 5.98813 5.00197 6.33546L7.5 8.35735M7.5 8.35735C7.5 8.35735 5.5 10 6 13C6.30426 14.8256 7.76868 16.7586 10 17.5C13.0673 18.5191 16.3404 17.017 17.5 14C18.2689 11.9996 17.8892 9.41136 15.5 7.5C13.1108 5.58864 10.5 6 9 7" stroke="#424242" stroke-linecap="round"/>
</svg>
