<svg width="24" height="24" viewBox="0 0 24 24" fill="none" xmlns="http://www.w3.org/2000/svg">
<path d="M2 22C2 20.5858 2 19.8787 2.43934 19.4393C2.87868 19 3.58579 19 5 19C6.41421 19 7.12132 19 7.56066 19.4393C8 19.8787 8 20.5858 8 22V13C8 11.5858 8 10.8787 8.43934 10.4393C8.87868 10 9.58579 10 11 10H13C14.4142 10 15.1213 10 15.5607 10.4393C16 10.8787 16 11.5858 16 13V22V19C16 17.5858 16 16.8787 16.4393 16.4393C16.8787 16 17.5858 16 19 16C20.4142 16 21.1213 16 21.5607 16.4393C22 16.8787 22 17.5858 22 19V22M10.4028 3.68841L10.2119 3.73161C9.47396 3.89857 9.10501 3.98205 9.01723 4.26432C8.92945 4.54659 9.18097 4.84072 9.68403 5.42898L9.81418 5.58117C9.95713 5.74833 10.0286 5.83191 10.0608 5.93531C10.0929 6.03872 10.0821 6.15023 10.0605 6.37327L10.0408 6.57632C9.96476 7.36118 9.92674 7.75361 10.1565 7.92807C10.3864 8.10252 10.7318 7.94346 11.4227 7.62535L11.6014 7.54305C11.7978 7.45265 11.8959 7.40745 12 7.40745C12.1041 7.40745 12.2022 7.45265 12.3986 7.54305L12.5773 7.62535C13.2682 7.94346 13.6136 8.10252 13.8435 7.92807C14.0733 7.75361 14.0352 7.36118 13.9592 6.57632L13.9395 6.37327C13.9179 6.15023 13.9071 6.03872 13.9392 5.93531C13.9714 5.83191 14.0429 5.74833 14.1858 5.58117L14.316 5.42898C14.819 4.84072 15.0706 4.54659 14.9828 4.26432C14.895 3.98205 14.526 3.89857 13.7881 3.73161L13.5972 3.68841C13.3875 3.64097 13.2827 3.61725 13.1985 3.55334C13.1143 3.48944 13.0603 3.39258 12.9524 3.19887L12.8541 3.02251C12.4741 2.34084 12.2841 2 12 2C11.7159 2 11.5259 2.34084 11.1459 3.02251L11.0476 3.19887C10.9397 3.39258 10.8857 3.48944 10.8015 3.55334C10.7173 3.61725 10.6125 3.64097 10.4028 3.68841Z" stroke="#424242" stroke-linecap="round"/>
</svg>
