<svg width="24" height="24" viewBox="0 0 24 24" fill="none" xmlns="http://www.w3.org/2000/svg">
<path d="M22.1613 15.0806V15.5806H22.6613V15.0806H22.1613ZM2 15.0806H1.5V15.5806H2V15.0806ZM19.4906 8.37774C19.6859 8.18248 19.6859 7.8659 19.4906 7.67064C19.2954 7.47537 18.9788 7.47537 18.7835 7.67064L19.1371 8.02419L19.4906 8.37774ZM17.2714 9.18273C17.0762 9.378 17.0762 9.69458 17.2714 9.88984C17.4667 10.0851 17.7833 10.0851 17.9785 9.88984L17.625 9.53629L17.2714 9.18273ZM5.37774 7.67064C5.18248 7.47537 4.8659 7.47537 4.67064 7.67064C4.47537 7.8659 4.47537 8.18248 4.67064 8.37774L5.02419 8.02419L5.37774 7.67064ZM6.18273 9.88984C6.37799 10.0851 6.69458 10.0851 6.88984 9.88984C7.0851 9.69458 7.0851 9.37799 6.88984 9.18273L6.53629 9.53629L6.18273 9.88984ZM4.01613 15.5806C4.29227 15.5806 4.51613 15.3568 4.51613 15.0806C4.51613 14.8045 4.29227 14.5806 4.01613 14.5806V15.0806V15.5806ZM20.1449 14.5806C19.8688 14.5806 19.6449 14.8045 19.6449 15.0806C19.6449 15.3568 19.8688 15.5806 20.1449 15.5806V15.0806V14.5806ZM11.5806 7.01634C11.5806 7.29248 11.8045 7.51634 12.0806 7.51634C12.3568 7.51634 12.5806 7.29248 12.5806 7.01634H12.0806H11.5806ZM10.0363 12.7158L10.4576 12.9852V12.9852L10.0363 12.7158ZM14.125 12.7158L13.7037 12.9852V12.9852L14.125 12.7158ZM2 15.0806H2.5C2.5 9.7894 6.7894 5.5 12.0806 5.5V5V4.5C6.23711 4.5 1.5 9.23711 1.5 15.0806H2ZM12.0806 5V5.5C17.3719 5.5 21.6613 9.7894 21.6613 15.0806H22.1613H22.6613C22.6613 9.23711 17.9242 4.5 12.0806 4.5V5ZM19.1371 8.02419L18.7835 7.67064L17.2714 9.18273L17.625 9.53629L17.9785 9.88984L19.4906 8.37774L19.1371 8.02419ZM5.02419 8.02419L4.67064 8.37774L6.18273 9.88984L6.53629 9.53629L6.88984 9.18273L5.37774 7.67064L5.02419 8.02419ZM2 15.0806V15.5806H4.01613V15.0806V14.5806H2V15.0806ZM20.1449 15.0806V15.5806H22.1613V15.0806V14.5806H20.1449V15.0806ZM12.0806 7.01634H12.5806V5H12.0806H11.5806V7.01634H12.0806ZM15.1048 15.0806H14.6048C14.6048 16.4747 13.4747 17.6048 12.0806 17.6048V18.1048V18.6048C14.027 18.6048 15.6048 17.027 15.6048 15.0806H15.1048ZM12.0806 18.1048V17.6048C10.6866 17.6048 9.55644 16.4747 9.55644 15.0806H9.05644H8.55644C8.55644 17.027 10.1343 18.6048 12.0806 18.6048V18.1048ZM9.05644 15.0806H9.55644C9.55644 14.8645 9.63456 14.5599 9.80124 14.1782C9.96421 13.8049 10.1945 13.3967 10.4576 12.9852L10.0363 12.7158L9.61501 12.4465C9.33585 12.8832 9.07617 13.3397 8.88479 13.778C8.69711 14.2078 8.55644 14.6615 8.55644 15.0806H9.05644ZM14.125 12.7158L13.7037 12.9852C13.9668 13.3967 14.1971 13.8049 14.36 14.1782C14.5267 14.5599 14.6048 14.8645 14.6048 15.0806H15.1048H15.6048C15.6048 14.6615 15.4642 14.2078 15.2765 13.778C15.0851 13.3397 14.8254 12.8832 14.5463 12.4465L14.125 12.7158ZM10.0363 12.7158L10.4576 12.9852C10.8744 12.3332 11.1484 11.9088 11.4117 11.6362C11.6456 11.394 11.8309 11.3132 12.0806 11.3132V10.8132V10.3132C11.5024 10.3132 11.0709 10.5496 10.6924 10.9415C10.3432 11.3031 10.0091 11.8301 9.61501 12.4465L10.0363 12.7158ZM14.125 12.7158L14.5463 12.4465C14.1522 11.8301 13.8181 11.3031 13.4689 10.9415C13.0903 10.5496 12.6589 10.3132 12.0806 10.3132V10.8132V11.3132C12.3304 11.3132 12.5157 11.394 12.7496 11.6362C13.0128 11.9088 13.2869 12.3332 13.7037 12.9852L14.125 12.7158Z" fill="#424242"/>
</svg>
