<svg width="24" height="24" viewBox="0 0 24 24" fill="none" xmlns="http://www.w3.org/2000/svg">
<path d="M3.67981 11.3333H3.17981V11.3333H3.67981ZM3.67981 13L3.32765 13.3549C3.52259 13.5484 3.83703 13.5484 4.03197 13.3549L3.67981 13ZM5.71178 11.6883C5.90781 11.4938 5.90906 11.1772 5.71456 10.9812C5.52007 10.7851 5.20349 10.7839 5.00746 10.9784L5.71178 11.6883ZM2.35216 10.9784C2.15613 10.7839 1.83955 10.7851 1.64506 10.9812C1.45057 11.1772 1.45181 11.4938 1.64784 11.6883L2.35216 10.9784ZM18.8285 7.26186C18.9732 7.4971 19.2811 7.57057 19.5163 7.42594C19.7516 7.28132 19.825 6.97338 19.6804 6.73814L18.8285 7.26186ZM20.3139 11L20.6654 10.6444C20.4706 10.4519 20.1572 10.4519 19.9624 10.6444L20.3139 11ZM18.2762 12.3111C18.0798 12.5052 18.0779 12.8218 18.2721 13.0182C18.4662 13.2145 18.7828 13.2164 18.9791 13.0223L18.2762 12.3111ZM21.6486 13.0223C21.845 13.2164 22.1616 13.2145 22.3557 13.0182C22.5499 12.8218 22.548 12.5052 22.3516 12.3111L21.6486 13.0223ZM5.10519 16.7374C4.96016 16.5024 4.6521 16.4295 4.4171 16.5745C4.18211 16.7195 4.10917 17.0276 4.25419 17.2626L5.10519 16.7374ZM12.0789 2.5C7.16776 2.5 3.17981 6.45112 3.17981 11.3333H4.17981C4.17981 7.0108 7.71263 3.5 12.0789 3.5V2.5ZM3.17981 11.3333L3.17981 13H4.17981L4.17981 11.3333H3.17981ZM4.03197 13.3549L5.71178 11.6883L5.00746 10.9784L3.32765 12.6451L4.03197 13.3549ZM4.03197 12.6451L2.35216 10.9784L1.64784 11.6883L3.32765 13.3549L4.03197 12.6451ZM19.6804 6.73814C18.118 4.19664 15.2975 2.5 12.0789 2.5V3.5C14.9382 3.5 17.4417 5.00608 18.8285 7.26186L19.6804 6.73814ZM11.8827 21.5C16.8098 21.5 20.8139 17.5507 20.8139 12.6667H19.8139C19.8139 16.9874 16.2685 20.5 11.8827 20.5V21.5ZM20.8139 12.6667V11H19.8139V12.6667H20.8139ZM19.9624 10.6444L18.2762 12.3111L18.9791 13.0223L20.6654 11.3556L19.9624 10.6444ZM19.9624 11.3556L21.6486 13.0223L22.3516 12.3111L20.6654 10.6444L19.9624 11.3556ZM4.25419 17.2626C5.82268 19.8042 8.6534 21.5 11.8827 21.5V20.5C9.01087 20.5 6.49721 18.9931 5.10519 16.7374L4.25419 17.2626Z" fill="#424242"/>
</svg>
