<svg width="24" height="24" viewBox="0 0 24 24" fill="none" xmlns="http://www.w3.org/2000/svg">
<path d="M2.75 19.799L2.5 20.232L2.75 19.799ZM2.20096 19.25L1.76795 19.5L2.20096 19.25ZM6.79904 19.25L7.23205 19.5L6.79904 19.25ZM6.25 19.799L6.5 20.232L6.25 19.799ZM6.25 15.201L6.5 14.7679L6.25 15.201ZM6.79904 15.75L7.23205 15.5L6.79904 15.75ZM2.75 15.201L2.5 14.7679L2.75 15.201ZM2.20096 15.75L1.76795 15.5L2.20096 15.75ZM10.25 19.799L10 20.232L10.25 19.799ZM9.70096 19.25L9.26795 19.5L9.70096 19.25ZM14.299 19.25L14.7321 19.5L14.299 19.25ZM13.75 19.799L14 20.232L13.75 19.799ZM13.75 15.201L14 14.7679L13.75 15.201ZM14.299 15.75L14.7321 15.5L14.299 15.75ZM10.25 15.201L10 14.7679L10.25 15.201ZM9.70096 15.75L9.26795 15.5L9.70096 15.75ZM17.75 19.799L17.5 20.232L17.75 19.799ZM17.201 19.25L16.7679 19.5L17.201 19.25ZM21.799 19.25L22.232 19.5L21.799 19.25ZM21.25 19.799L21.5 20.232L21.25 19.799ZM21.25 15.201L21.5 14.7679L21.25 15.201ZM21.799 15.75L22.232 15.5L21.799 15.75ZM17.75 15.201L17.5 14.7679L17.75 15.201ZM17.201 15.75L16.7679 15.5L17.201 15.75ZM19.5 12L19.1464 12.3536C19.3417 12.5488 19.6583 12.5488 19.8536 12.3536L19.5 12ZM21.8536 10.3536C22.0488 10.1583 22.0488 9.84171 21.8536 9.64645C21.6583 9.45118 21.3417 9.45118 21.1464 9.64645L21.8536 10.3536ZM17.8536 9.64645C17.6583 9.45118 17.3417 9.45118 17.1464 9.64645C16.9512 9.84171 16.9512 10.1583 17.1464 10.3536L17.8536 9.64645ZM4.5 19.5C4.02349 19.5 3.69954 19.4995 3.45018 19.4769C3.2077 19.4549 3.08525 19.4152 3 19.366L2.5 20.232C2.76282 20.3838 3.04807 20.4446 3.35992 20.4728C3.66488 20.5005 4.04189 20.5 4.5 20.5V19.5ZM1.5 17.5C1.5 17.9581 1.49952 18.3351 1.52716 18.6401C1.55542 18.9519 1.61621 19.2372 1.76795 19.5L2.63397 19C2.58475 18.9147 2.54506 18.7923 2.52308 18.5498C2.50048 18.3005 2.5 17.9765 2.5 17.5H1.5ZM3 19.366C2.84798 19.2783 2.72174 19.152 2.63397 19L1.76795 19.5C1.94349 19.804 2.19596 20.0565 2.5 20.232L3 19.366ZM6.5 17.5C6.5 17.9765 6.49952 18.3005 6.47692 18.5498C6.45494 18.7923 6.41525 18.9147 6.36603 19L7.23205 19.5C7.38379 19.2372 7.44458 18.9519 7.47284 18.6401C7.50048 18.3351 7.5 17.9581 7.5 17.5H6.5ZM4.5 20.5C4.95811 20.5 5.33512 20.5005 5.64008 20.4728C5.95193 20.4446 6.23718 20.3838 6.5 20.232L6 19.366C5.91475 19.4152 5.7923 19.4549 5.54982 19.4769C5.30046 19.4995 4.97651 19.5 4.5 19.5V20.5ZM6.36603 19C6.27826 19.152 6.15202 19.2783 6 19.366L6.5 20.232C6.80404 20.0565 7.05651 19.804 7.23205 19.5L6.36603 19ZM4.5 15.5C4.97651 15.5 5.30046 15.5005 5.54982 15.5231C5.7923 15.5451 5.91475 15.5848 6 15.634L6.5 14.7679C6.23718 14.6162 5.95193 14.5554 5.64008 14.5272C5.33512 14.4995 4.95811 14.5 4.5 14.5V15.5ZM7.5 17.5C7.5 17.0419 7.50048 16.6649 7.47284 16.3599C7.44458 16.0481 7.38379 15.7628 7.23205 15.5L6.36603 16C6.41525 16.0853 6.45494 16.2077 6.47692 16.4502C6.49952 16.6995 6.5 17.0235 6.5 17.5H7.5ZM6 15.634C6.15202 15.7217 6.27826 15.848 6.36603 16L7.23205 15.5C7.05651 15.196 6.80404 14.9435 6.5 14.7679L6 15.634ZM4.5 14.5C4.04189 14.5 3.66488 14.4995 3.35992 14.5272C3.04807 14.5554 2.76282 14.6162 2.5 14.7679L3 15.634C3.08525 15.5848 3.2077 15.5451 3.45018 15.5231C3.69954 15.5005 4.02349 15.5 4.5 15.5V14.5ZM2.5 17.5C2.5 17.0235 2.50048 16.6995 2.52308 16.4502C2.54506 16.2077 2.58475 16.0853 2.63397 16L1.76795 15.5C1.61621 15.7628 1.55542 16.0481 1.52716 16.3599C1.49952 16.6649 1.5 17.0419 1.5 17.5H2.5ZM2.5 14.7679C2.19596 14.9435 1.94349 15.196 1.76795 15.5L2.63397 16C2.72174 15.848 2.84798 15.7217 3 15.634L2.5 14.7679ZM12 19.5C11.5235 19.5 11.1995 19.4995 10.9502 19.4769C10.7077 19.4549 10.5853 19.4152 10.5 19.366L10 20.232C10.2628 20.3838 10.5481 20.4446 10.8599 20.4728C11.1649 20.5005 11.5419 20.5 12 20.5V19.5ZM9 17.5C9 17.9581 8.99952 18.3351 9.02716 18.6401C9.05542 18.9519 9.11621 19.2372 9.26795 19.5L10.134 19C10.0848 18.9147 10.0451 18.7923 10.0231 18.5498C10.0005 18.3005 10 17.9765 10 17.5H9ZM10.5 19.366C10.348 19.2783 10.2217 19.152 10.134 19L9.26795 19.5C9.44349 19.804 9.69596 20.0565 10 20.232L10.5 19.366ZM14 17.5C14 17.9765 13.9995 18.3005 13.9769 18.5498C13.9549 18.7923 13.9152 18.9147 13.866 19L14.7321 19.5C14.8838 19.2372 14.9446 18.9519 14.9728 18.6401C15.0005 18.3351 15 17.9581 15 17.5H14ZM12 20.5C12.4581 20.5 12.8351 20.5005 13.1401 20.4728C13.4519 20.4446 13.7372 20.3838 14 20.232L13.5 19.366C13.4147 19.4152 13.2923 19.4549 13.0498 19.4769C12.8005 19.4995 12.4765 19.5 12 19.5V20.5ZM13.866 19C13.7783 19.152 13.652 19.2783 13.5 19.366L14 20.232C14.304 20.0565 14.5565 19.804 14.7321 19.5L13.866 19ZM12 15.5C12.4765 15.5 12.8005 15.5005 13.0498 15.5231C13.2923 15.5451 13.4147 15.5848 13.5 15.634L14 14.7679C13.7372 14.6162 13.4519 14.5554 13.1401 14.5272C12.8351 14.4995 12.4581 14.5 12 14.5V15.5ZM15 17.5C15 17.0419 15.0005 16.6649 14.9728 16.3599C14.9446 16.0481 14.8838 15.7628 14.7321 15.5L13.866 16C13.9152 16.0853 13.9549 16.2077 13.9769 16.4502C13.9995 16.6995 14 17.0235 14 17.5H15ZM13.5 15.634C13.652 15.7217 13.7783 15.848 13.866 16L14.7321 15.5C14.5565 15.196 14.304 14.9435 14 14.7679L13.5 15.634ZM12 14.5C11.5419 14.5 11.1649 14.4995 10.8599 14.5272C10.5481 14.5554 10.2628 14.6162 10 14.7679L10.5 15.634C10.5853 15.5848 10.7077 15.5451 10.9502 15.5231C11.1995 15.5005 11.5235 15.5 12 15.5V14.5ZM10 17.5C10 17.0235 10.0005 16.6995 10.0231 16.4502C10.0451 16.2077 10.0848 16.0853 10.134 16L9.26795 15.5C9.11621 15.7628 9.05542 16.0481 9.02716 16.3599C8.99952 16.6649 9 17.0419 9 17.5H10ZM10 14.7679C9.69596 14.9435 9.44349 15.196 9.26795 15.5L10.134 16C10.2217 15.848 10.348 15.7217 10.5 15.634L10 14.7679ZM19.5 19.5C19.0235 19.5 18.6995 19.4995 18.4502 19.4769C18.2077 19.4549 18.0853 19.4152 18 19.366L17.5 20.232C17.7628 20.3838 18.0481 20.4446 18.3599 20.4728C18.6649 20.5005 19.0419 20.5 19.5 20.5V19.5ZM16.5 17.5C16.5 17.9581 16.4995 18.3351 16.5272 18.6401C16.5554 18.9519 16.6162 19.2372 16.7679 19.5L17.634 19C17.5848 18.9147 17.5451 18.7923 17.5231 18.5498C17.5005 18.3005 17.5 17.9765 17.5 17.5H16.5ZM18 19.366C17.848 19.2783 17.7217 19.152 17.634 19L16.7679 19.5C16.9435 19.804 17.196 20.0565 17.5 20.232L18 19.366ZM21.5 17.5C21.5 17.9765 21.4995 18.3005 21.4769 18.5498C21.4549 18.7923 21.4152 18.9147 21.366 19L22.232 19.5C22.3838 19.2372 22.4446 18.9519 22.4728 18.6401C22.5005 18.3351 22.5 17.9581 22.5 17.5H21.5ZM19.5 20.5C19.9581 20.5 20.3351 20.5005 20.6401 20.4728C20.9519 20.4446 21.2372 20.3838 21.5 20.232L21 19.366C20.9147 19.4152 20.7923 19.4549 20.5498 19.4769C20.3005 19.4995 19.9765 19.5 19.5 19.5V20.5ZM21.366 19C21.2783 19.152 21.152 19.2783 21 19.366L21.5 20.232C21.804 20.0565 22.0565 19.804 22.232 19.5L21.366 19ZM19.5 15.5C19.9765 15.5 20.3005 15.5005 20.5498 15.5231C20.7923 15.5451 20.9147 15.5848 21 15.634L21.5 14.7679C21.2372 14.6162 20.9519 14.5554 20.6401 14.5272C20.3351 14.4995 19.9581 14.5 19.5 14.5V15.5ZM22.5 17.5C22.5 17.0419 22.5005 16.6649 22.4728 16.3599C22.4446 16.0481 22.3838 15.7628 22.232 15.5L21.366 16C21.4152 16.0853 21.4549 16.2077 21.4769 16.4502C21.4995 16.6995 21.5 17.0235 21.5 17.5H22.5ZM21 15.634C21.152 15.7217 21.2783 15.848 21.366 16L22.232 15.5C22.0565 15.196 21.804 14.9435 21.5 14.7679L21 15.634ZM19.5 14.5C19.0419 14.5 18.6649 14.4995 18.3599 14.5272C18.0481 14.5554 17.7628 14.6162 17.5 14.7679L18 15.634C18.0853 15.5848 18.2077 15.5451 18.4502 15.5231C18.6995 15.5005 19.0235 15.5 19.5 15.5V14.5ZM17.5 17.5C17.5 17.0235 17.5005 16.6995 17.5231 16.4502C17.5451 16.2077 17.5848 16.0853 17.634 16L16.7679 15.5C16.6162 15.7628 16.5554 16.0481 16.5272 16.3599C16.4995 16.6649 16.5 17.0419 16.5 17.5H17.5ZM17.5 14.7679C17.196 14.9435 16.9435 15.196 16.7679 15.5L17.634 16C17.7217 15.848 17.848 15.7217 18 15.634L17.5 14.7679ZM5 15V9H4V15H5ZM9.5 4.5H14.5V3.5H9.5V4.5ZM19 9V12H20V9H19ZM19.8536 12.3536L21.8536 10.3536L21.1464 9.64645L19.1464 11.6464L19.8536 12.3536ZM19.8536 11.6464L17.8536 9.64645L17.1464 10.3536L19.1464 12.3536L19.8536 11.6464ZM14.5 4.5C15.6926 4.5 16.5368 4.50106 17.1766 4.58707C17.8019 4.67115 18.1565 4.82805 18.4142 5.08579L19.1213 4.37868C18.6468 3.90418 18.046 3.69497 17.3098 3.59599C16.588 3.49894 15.6644 3.5 14.5 3.5V4.5ZM20 9C20 7.83562 20.0011 6.91204 19.904 6.1902C19.805 5.45397 19.5958 4.85318 19.1213 4.37868L18.4142 5.08579C18.6719 5.34352 18.8289 5.6981 18.9129 6.32344C18.9989 6.96317 19 7.80735 19 9H20ZM5 9C5 7.80735 5.00106 6.96317 5.08707 6.32344C5.17115 5.6981 5.32805 5.34352 5.58579 5.08579L4.87868 4.37868C4.40418 4.85318 4.19497 5.45397 4.09599 6.1902C3.99894 6.91204 4 7.83562 4 9H5ZM9.5 3.5C8.33562 3.5 7.41204 3.49894 6.6902 3.59599C5.95397 3.69497 5.35318 3.90418 4.87868 4.37868L5.58579 5.08579C5.84352 4.82805 6.1981 4.67115 6.82344 4.58707C7.46317 4.50106 8.30735 4.5 9.5 4.5V3.5Z" fill="#424242"/>
</svg>
