<svg width="24" height="24" viewBox="0 0 24 24" fill="none" xmlns="http://www.w3.org/2000/svg">
<path d="M12 2V10.4M12 10.4C12 11.2837 12.7164 12 13.6 12M12 10.4C12 11.2837 11.2837 12 10.4 12M7.25531 5.32895C10.5059 5.33173 10.207 9.75312 10.2059 11.5218C10.2036 13.7789 10.7576 18.3347 9.01675 20.0689C7.24197 21.8359 3.6952 22.7178 1.9232 21.2425C0.151197 19.7667 3.11786 5.32562 7.25531 5.32895ZM16.7574 5.33562C13.5068 5.33284 13.7985 9.75478 13.7969 11.5235C13.7952 13.7811 13.2334 18.3358 14.9721 20.0728C16.7435 21.8432 20.2892 22.73 22.0634 21.2581C23.8376 19.7856 20.8949 5.33896 16.7574 5.33562Z" stroke="#424242" stroke-linecap="round"/>
</svg>
