<svg width="24" height="24" viewBox="0 0 24 24" fill="none" xmlns="http://www.w3.org/2000/svg">
<path d="M7.5798 15.0077L7.93283 14.6536V14.6536L7.5798 15.0077ZM7.57981 9.53078L7.22678 9.17669V9.17669L7.57981 9.53078ZM14.4466 16.3769L14.0935 16.0229V16.0229L14.4466 16.3769ZM8.95316 16.3769L8.60014 16.731V16.731L8.95316 16.3769ZM11.6999 18.3133V18.8133V18.3133ZM20.2934 10.5476L20.6464 10.9017L20.2934 10.5476ZM13.4267 3.70146L13.7797 4.05555V4.05555L13.4267 3.70146ZM10.6795 13.9926C10.8751 13.7976 10.8756 13.481 10.6806 13.2855C10.4856 13.0899 10.169 13.0894 9.97349 13.2844L10.6795 13.9926ZM5.57332 11.5312L5.92688 11.1777L5.92634 11.1772L5.57332 11.5312ZM10.0549 7.21173C10.2871 7.36119 10.5965 7.2941 10.7459 7.06189C10.8954 6.82969 10.8283 6.5203 10.5961 6.37085L10.0549 7.21173ZM9.69627 6.38632L9.96687 5.96587V5.96587L9.69627 6.38632ZM7.12664 5.0678L7.19974 4.57317L7.12664 5.0678ZM2.22514 8.02324L2.57816 8.37733H2.57816L2.22514 8.02324ZM5.33941 5.29621L5.53103 5.75803V5.75803L5.33941 5.29621ZM2.86314 9.42603L2.67895 9.89087L2.67895 9.89087L2.86314 9.42603ZM2.98636 9.47534L3.17683 9.01304V9.01304L2.98636 9.47534ZM4.61259 10.5734L4.96561 10.2193V10.2193L4.61259 10.5734ZM4.51839 10.4801L4.17021 10.8389L4.51839 10.4801ZM2.48449 9.276L2.66868 8.81116L2.66868 8.81116L2.48449 9.276ZM12.5 18.5L12.1464 18.8536C12.1542 18.8613 12.1622 18.8688 12.1704 18.876L12.5 18.5ZM17.614 13.3677C17.4639 13.1359 17.1543 13.0697 16.9225 13.2198C16.6907 13.3699 16.6245 13.6795 16.7746 13.9113L17.614 13.3677ZM17.6005 14.2668L17.1808 14.5386H17.1808L17.6005 14.2668ZM18.923 16.8287L19.4175 16.7552V16.7552L18.923 16.8287ZM15.9586 21.7155L16.3117 22.0696V22.0696L15.9586 21.7155ZM18.6939 18.6106L19.1553 18.8032L18.6939 18.6106ZM14.749 21.5747L15.2135 21.3895H15.2135L14.749 21.5747ZM14.2748 20.4828L14.7132 20.2423L14.2748 20.4828ZM13.0229 18.9584L13.3759 18.6044L13.3646 18.5931L13.3525 18.5825L13.0229 18.9584ZM13.8408 19.8249L14.2343 19.5165L13.8408 19.8249ZM15.8746 21.7993L15.5216 21.4452V21.4453L15.8746 21.7993ZM5.74956 11.7075L6.21346 11.894L5.74956 11.7075ZM19.9404 10.1935L14.0935 16.0229L14.7996 16.731L20.6464 10.9017L19.9404 10.1935ZM9.30618 16.0229L7.93283 14.6536L7.22678 15.3618L8.60014 16.731L9.30618 16.0229ZM7.93283 9.88486L13.7797 4.05555L13.0736 3.34738L7.22678 9.17669L7.93283 9.88486ZM17.5467 2.5H18.1156V1.5H17.5467V2.5ZM21.5 5.87277V6.43993H22.5V5.87277H21.5ZM18.1156 2.5C19.0452 2.5 19.6923 2.50106 20.1803 2.56646C20.654 2.62996 20.9021 2.74578 21.0781 2.92124L21.7842 2.21307C21.3913 1.82138 20.8972 1.65362 20.3131 1.57533C19.7433 1.49894 19.0171 1.5 18.1156 1.5V2.5ZM22.5 5.87277C22.5 4.97413 22.5011 4.2497 22.4244 3.68121C22.3458 3.09819 22.1772 2.60497 21.7842 2.21307L21.0781 2.92124C21.2539 3.09649 21.3698 3.34327 21.4334 3.81485C21.4989 4.30098 21.5 4.94578 21.5 5.87277H22.5ZM7.93283 14.6536C7.2754 13.9982 6.81873 13.5414 6.52022 13.1513C6.23049 12.7727 6.13759 12.5165 6.13759 12.2692H5.13759C5.13759 12.824 5.3684 13.2916 5.72607 13.759C6.07497 14.2149 6.5894 14.7263 7.22678 15.3618L7.93283 14.6536ZM8.60014 16.731C9.23754 17.3665 9.75044 17.8794 10.2077 18.2272C10.6765 18.5838 11.1448 18.8133 11.6999 18.8133V17.8133C11.4504 17.8133 11.1928 17.7201 10.8131 17.4313C10.4218 17.1336 9.96358 16.6783 9.30618 16.0229L8.60014 16.731ZM20.6464 10.9017C21.4595 10.0911 21.9711 9.59354 22.24 8.94641L21.3165 8.56275C21.1418 8.98318 20.8114 9.32514 19.9404 10.1935L20.6464 10.9017ZM21.5 6.43993C21.5 7.66807 21.4911 8.14248 21.3165 8.56275L22.24 8.94641C22.5089 8.29912 22.5 7.58629 22.5 6.43993H21.5ZM13.7797 4.05555C14.6505 3.18732 14.9937 2.85761 15.4159 2.68324L15.0342 1.75896C14.3857 2.02678 13.8869 2.53659 13.0736 3.34738L13.7797 4.05555ZM17.5467 1.5C16.3966 1.5 15.6826 1.49119 15.0342 1.75896L15.4159 2.68324C15.8383 2.50881 16.3152 2.5 17.5467 2.5V1.5ZM8.6195 16.0464L10.6795 13.9926L9.97349 13.2844L7.91346 15.3382L8.6195 16.0464ZM10.5961 6.37085L9.96687 5.96587L9.42567 6.80676L10.0549 7.21173L10.5961 6.37085ZM9.96687 5.96587C9.34222 5.56384 8.85007 5.24667 8.42892 5.01973C8.00148 4.78941 7.61706 4.63485 7.19974 4.57317L7.05355 5.56243C7.31253 5.6007 7.58181 5.69921 7.95456 5.90006C8.33359 6.1043 8.7881 6.39642 9.42567 6.80676L9.96687 5.96587ZM2.57816 8.37733C3.14024 7.81694 3.74829 7.21086 4.29592 6.71129C4.5696 6.46163 4.82222 6.24408 5.04172 6.07489C5.26897 5.89974 5.43205 5.7991 5.53103 5.75803L5.14779 4.83438C4.9222 4.92798 4.67375 5.09595 4.43125 5.28285C4.18101 5.47573 3.90569 5.71369 3.62197 5.97251C3.0548 6.48991 2.43029 7.11268 1.87213 7.66915L2.57816 8.37733ZM7.19974 4.57317C6.51116 4.47141 5.80142 4.56318 5.14779 4.83438L5.53103 5.75803C6.02229 5.5542 6.54931 5.48791 7.05355 5.56243L7.19974 4.57317ZM2.3003 9.74083L2.67895 9.89087L3.04733 8.9612L2.66868 8.81116L2.3003 9.74083ZM4.25957 10.9275L5.2203 11.8853L5.92634 11.1772L4.96561 10.2193L4.25957 10.9275ZM2.67895 9.89087C2.74198 9.91585 2.76927 9.92667 2.79589 9.93764L3.17683 9.01304C3.14252 8.9989 3.10797 8.98522 3.04733 8.9612L2.67895 9.89087ZM4.96561 10.2193C4.91947 10.1733 4.89318 10.1471 4.86657 10.1213L4.17021 10.8389C4.19084 10.859 4.2116 10.8797 4.25957 10.9275L4.96561 10.2193ZM2.79589 9.93764C3.30734 10.1484 3.77375 10.4543 4.17021 10.8389L4.86657 10.1213C4.37896 9.64813 3.80548 9.27204 3.17683 9.01304L2.79589 9.93764ZM1.87213 7.66915C1.22616 8.31316 1.45362 9.40534 2.30031 9.74084L2.66868 8.81116C2.48945 8.74014 2.44348 8.51159 2.57816 8.37733L1.87213 7.66915ZM16.7746 13.9113L17.1808 14.5386L18.0202 13.9951L17.614 13.3677L16.7746 13.9113ZM15.6056 21.3615L15.5216 21.4452L16.2276 22.1534L16.3117 22.0696L15.6056 21.3615ZM17.1808 14.5386C17.5924 15.1743 17.8853 15.6273 18.0901 16.0051C18.2915 16.3767 18.3901 16.6447 18.4284 16.9023L19.4175 16.7552C19.3556 16.3385 19.2003 15.9548 18.9693 15.5286C18.7416 15.1086 18.4234 14.6178 18.0202 13.9951L17.1808 14.5386ZM16.3117 22.0696C16.8698 21.5131 17.4945 20.8905 18.0134 20.325C18.273 20.0422 18.5117 19.7676 18.7052 19.5181C18.8926 19.2764 19.0613 19.0285 19.1553 18.8032L18.2325 18.418C18.1914 18.5163 18.0906 18.6787 17.9149 18.9053C17.7453 19.1242 17.5271 19.376 17.2767 19.6489C16.7756 20.1948 16.1677 20.8011 15.6056 21.3615L16.3117 22.0696ZM18.4284 16.9023C18.503 17.4041 18.4367 17.9288 18.2325 18.418L19.1553 18.8032C19.4275 18.151 19.5197 17.4426 19.4175 16.7552L18.4284 16.9023ZM13.3525 18.5825L12.8296 18.124L12.1704 18.876L12.6932 19.3344L13.3525 18.5825ZM15.2135 21.3895C14.9966 20.8455 14.8738 20.535 14.7132 20.2423L13.8365 20.7232C13.9608 20.9499 14.0591 21.1942 14.2846 21.7598L15.2135 21.3895ZM12.6699 19.3125C13.1015 19.7429 13.2876 19.9297 13.4473 20.1333L14.2343 19.5165C14.0284 19.2537 13.7911 19.0183 13.3759 18.6044L12.6699 19.3125ZM14.7132 20.2423C14.5736 19.9878 14.4135 19.745 14.2343 19.5165L13.4473 20.1333C13.5928 20.3191 13.723 20.5164 13.8365 20.7232L14.7132 20.2423ZM16.8402 9.17669C16.2769 9.73835 15.3629 9.73835 14.7996 9.17669L14.0935 9.88486C15.0472 10.8356 16.5927 10.8356 17.5463 9.88486L16.8402 9.17669ZM14.7996 9.17669C14.2371 8.61587 14.2371 7.70722 14.7996 7.1464L14.0935 6.43823C13.1391 7.38982 13.1391 8.93327 14.0935 9.88486L14.7996 9.17669ZM14.7996 7.1464C15.3629 6.58475 16.2769 6.58475 16.8402 7.1464L17.5463 6.43823C16.5927 5.48747 15.0472 5.48747 14.0935 6.43823L14.7996 7.1464ZM16.8402 7.1464C17.4028 7.70722 17.4028 8.61587 16.8402 9.17669L17.5463 9.88486C18.5007 8.93327 18.5007 7.38982 17.5463 6.43823L16.8402 7.1464ZM15.5216 21.4453C15.4225 21.544 15.2576 21.5002 15.2135 21.3895L14.2846 21.7598C14.6005 22.5524 15.6319 22.7474 16.2276 22.1534L15.5216 21.4453ZM14.0935 16.0229C13.5845 16.5303 13.1927 16.9206 12.8538 17.2133C12.5141 17.5066 12.2634 17.6695 12.046 17.7496L12.3916 18.688C12.7774 18.5459 13.1362 18.2907 13.5074 17.9701C13.8795 17.6488 14.2999 17.2292 14.7996 16.731L14.0935 16.0229ZM12.046 17.7496C11.9273 17.7933 11.8156 17.8133 11.6999 17.8133V18.8133C11.9396 18.8133 12.1681 18.7703 12.3916 18.688L12.046 17.7496ZM12.8536 18.1464L12.5723 17.8652L11.8652 18.5723L12.1464 18.8536L12.8536 18.1464ZM7.22678 9.17669C6.73914 9.66287 6.32688 10.0735 6.00825 10.4372C5.69052 10.7998 5.43521 11.149 5.28566 11.5209L6.21346 11.894C6.30015 11.6784 6.46801 11.4298 6.76036 11.0962C7.05181 10.7636 7.43655 10.3797 7.93283 9.88486L7.22678 9.17669ZM5.28566 11.5209C5.18885 11.7617 5.13759 12.0084 5.13759 12.2692H6.13759C6.13759 12.1449 6.16098 12.0245 6.21346 11.894L5.28566 11.5209ZM5.21977 11.8848L5.39601 12.061L6.10311 11.3539L5.92688 11.1777L5.21977 11.8848Z" fill="#424242"/>
</svg>
