<svg width="24" height="24" viewBox="0 0 24 24" fill="none" xmlns="http://www.w3.org/2000/svg">
<path d="M20 19L20.3536 19.3536C20.5488 19.1583 20.5488 18.8417 20.3536 18.6464L20 19ZM18.3536 16.6464C18.1583 16.4512 17.8417 16.4512 17.6464 16.6464C17.4512 16.8417 17.4512 17.1583 17.6464 17.3536L18.3536 16.6464ZM17.6464 20.6464C17.4512 20.8417 17.4512 21.1583 17.6464 21.3536C17.8417 21.5488 18.1583 21.5488 18.3536 21.3536L17.6464 20.6464ZM20 18.5H7.5V19.5H20V18.5ZM7.5 12.5H16.5V11.5H7.5V12.5ZM16.5 4.5H8V5.5H16.5V4.5ZM20.3536 18.6464L18.3536 16.6464L17.6464 17.3536L19.6464 19.3536L20.3536 18.6464ZM19.6464 18.6464L17.6464 20.6464L18.3536 21.3536L20.3536 19.3536L19.6464 18.6464ZM20.5 8.5C20.5 6.29086 18.7091 4.5 16.5 4.5V5.5C18.1569 5.5 19.5 6.84315 19.5 8.5H20.5ZM16.5 12.5C18.7091 12.5 20.5 10.7091 20.5 8.5H19.5C19.5 10.1569 18.1569 11.5 16.5 11.5V12.5ZM4.5 15.5C4.5 13.8431 5.84315 12.5 7.5 12.5V11.5C5.29086 11.5 3.5 13.2909 3.5 15.5H4.5ZM7.5 18.5C5.84315 18.5 4.5 17.1569 4.5 15.5H3.5C3.5 17.7091 5.29086 19.5 7.5 19.5V18.5ZM7.5 5C7.5 5.82843 6.82843 6.5 6 6.5V7.5C7.38071 7.5 8.5 6.38071 8.5 5H7.5ZM6 6.5C5.17157 6.5 4.5 5.82843 4.5 5H3.5C3.5 6.38071 4.61929 7.5 6 7.5V6.5ZM4.5 5C4.5 4.17157 5.17157 3.5 6 3.5V2.5C4.61929 2.5 3.5 3.61929 3.5 5H4.5ZM6 3.5C6.82843 3.5 7.5 4.17157 7.5 5H8.5C8.5 3.61929 7.38071 2.5 6 2.5V3.5Z" fill="#424242"/>
</svg>
