<svg width="24" height="24" viewBox="0 0 24 24" fill="none" xmlns="http://www.w3.org/2000/svg">
<path d="M5.49167 19.9546L5.84522 19.6011V19.6011L5.49167 19.9546ZM19.9546 5.49167L19.6011 5.84522V5.84522L19.9546 5.49167ZM22 8.38426H21.5H22ZM12.7231 4.04537L12.3696 3.69182L12.7231 4.04537ZM18.5083 4.04537L18.8619 3.69182V3.69182L18.5083 4.04537ZM15.6157 2V1.5V2ZM4.04537 12.7231L4.39892 13.0767L4.04537 12.7231ZM4.04537 18.5083L3.69182 18.8619H3.69182L4.04537 18.5083ZM2 15.6157H1.5H2ZM8.81802 8.11091C8.62276 7.91565 8.30617 7.91565 8.11091 8.11091C7.91565 8.30617 7.91565 8.62276 8.11091 8.81802L8.81802 8.11091ZM9.52513 10.2322C9.72039 10.4275 10.037 10.4275 10.2322 10.2322C10.4275 10.037 10.4275 9.72039 10.2322 9.52513L9.52513 10.2322ZM13.0607 3.86827C12.8654 3.67301 12.5488 3.67301 12.3536 3.86827C12.1583 4.06353 12.1583 4.38012 12.3536 4.57538L13.0607 3.86827ZM13.7678 5.98959C13.963 6.18485 14.2796 6.18485 14.4749 5.98959C14.6701 5.79433 14.6701 5.47775 14.4749 5.28249L13.7678 5.98959ZM4.57538 12.3536C4.38012 12.1583 4.06353 12.1583 3.86827 12.3536C3.67301 12.5488 3.67301 12.8654 3.86827 13.0607L4.57538 12.3536ZM5.28249 14.4749C5.47775 14.6701 5.79433 14.6701 5.98959 14.4749C6.18485 14.2796 6.18485 13.963 5.98959 13.7678L5.28249 14.4749ZM6.6967 10.2322C6.50144 10.037 6.18485 10.037 5.98959 10.2322C5.79433 10.4275 5.79433 10.7441 5.98959 10.9393L6.6967 10.2322ZM8.11091 13.0607C8.30617 13.2559 8.62276 13.2559 8.81802 13.0607C9.01328 12.8654 9.01328 12.5488 8.81802 12.3536L8.11091 13.0607ZM10.9393 5.98959C10.7441 5.79433 10.4275 5.79433 10.2322 5.98959C10.037 6.18485 10.037 6.50144 10.2322 6.6967L10.9393 5.98959ZM12.3536 8.81802C12.5488 9.01328 12.8654 9.01328 13.0607 8.81802C13.2559 8.62276 13.2559 8.30617 13.0607 8.11091L12.3536 8.81802ZM4.39892 13.0767L13.0767 4.39892L12.3696 3.69182L3.69182 12.3696L4.39892 13.0767ZM18.1548 4.39892L19.6011 5.84522L20.3082 5.13811L18.8619 3.69182L18.1548 4.39892ZM19.6011 10.9233L10.9233 19.6011L11.6304 20.3082L20.3082 11.6304L19.6011 10.9233ZM5.84522 19.6011L4.39892 18.1548L3.69182 18.8619L5.13811 20.3082L5.84522 19.6011ZM10.9233 19.6011C10.2315 20.2929 9.74749 20.7754 9.33363 21.0911C8.93131 21.3981 8.65459 21.5 8.38426 21.5V22.5C8.96115 22.5 9.44894 22.261 9.94021 21.8862C10.4199 21.5201 10.9586 20.98 11.6304 20.3082L10.9233 19.6011ZM5.13811 20.3082C5.80991 20.98 6.34857 21.5201 6.82831 21.8862C7.31958 22.261 7.80737 22.5 8.38426 22.5V21.5C8.11393 21.5 7.83721 21.3981 7.43489 21.0911C7.02103 20.7754 6.53701 20.2929 5.84522 19.6011L5.13811 20.3082ZM19.6011 5.84522C20.2929 6.53701 20.7754 7.02103 21.0911 7.43489C21.3981 7.83721 21.5 8.11393 21.5 8.38426H22.5C22.5 7.80737 22.261 7.31958 21.8862 6.82831C21.5201 6.34857 20.98 5.80991 20.3082 5.13811L19.6011 5.84522ZM20.3082 11.6304C20.98 10.9586 21.5201 10.4199 21.8862 9.94021C22.261 9.44894 22.5 8.96115 22.5 8.38426H21.5C21.5 8.65459 21.3981 8.93131 21.0911 9.33363C20.7754 9.74749 20.2929 10.2315 19.6011 10.9233L20.3082 11.6304ZM13.0767 4.39892C13.7685 3.70714 14.2525 3.22462 14.6664 2.90885C15.0687 2.60189 15.3454 2.5 15.6157 2.5V1.5C15.0389 1.5 14.5511 1.739 14.0598 2.11383C13.5801 2.47986 13.0414 3.02002 12.3696 3.69182L13.0767 4.39892ZM18.8619 3.69182C18.1901 3.02002 17.6514 2.47986 17.1717 2.11383C16.6804 1.739 16.1926 1.5 15.6157 1.5V2.5C15.8861 2.5 16.1628 2.60189 16.5651 2.90885C16.979 3.22462 17.463 3.70714 18.1548 4.39892L18.8619 3.69182ZM3.69182 12.3696C3.02002 13.0414 2.47986 13.5801 2.11383 14.0598C1.739 14.5511 1.5 15.0389 1.5 15.6157H2.5C2.5 15.3454 2.60189 15.0687 2.90885 14.6664C3.22462 14.2525 3.70714 13.7685 4.39892 13.0767L3.69182 12.3696ZM4.39892 18.1548C3.70714 17.463 3.22462 16.979 2.90885 16.5651C2.60189 16.1628 2.5 15.8861 2.5 15.6157H1.5C1.5 16.1926 1.739 16.6804 2.11383 17.1717C2.47986 17.6514 3.02002 18.1901 3.69182 18.8619L4.39892 18.1548ZM8.11091 8.81802L9.52513 10.2322L10.2322 9.52513L8.81802 8.11091L8.11091 8.81802ZM12.3536 4.57538L13.7678 5.98959L14.4749 5.28249L13.0607 3.86827L12.3536 4.57538ZM3.86827 13.0607L5.28249 14.4749L5.98959 13.7678L4.57538 12.3536L3.86827 13.0607ZM5.98959 10.9393L8.11091 13.0607L8.81802 12.3536L6.6967 10.2322L5.98959 10.9393ZM10.2322 6.6967L12.3536 8.81802L13.0607 8.11091L10.9393 5.98959L10.2322 6.6967Z" fill="#424242"/>
</svg>
