<svg width="24" height="24" viewBox="0 0 24 24" fill="none" xmlns="http://www.w3.org/2000/svg">
<path d="M9.38411 17.3201C9.56089 17.108 9.53223 16.7927 9.32009 16.6159C9.10795 16.4391 8.79267 16.4678 8.61589 16.6799L9.38411 17.3201ZM7.99923 18.2009L7.61512 17.8808V17.8808L7.99923 18.2009ZM3 19.5C2.72386 19.5 2.5 19.7239 2.5 20C2.5 20.2761 2.72386 20.5 3 20.5V19.5ZM6.38945 19.764L6.17737 19.3112H6.17737L6.38945 19.764ZM5.43568 8.8206L5.18867 8.38587V8.38587L5.43568 8.8206ZM3.753 9.20159C3.5129 9.33801 3.42885 9.64323 3.56527 9.88333C3.70169 10.1234 4.00691 10.2075 4.247 10.0711L3.753 9.20159ZM15.7502 10.1253L15.3342 10.4027L15.3342 10.4027L15.7502 10.1253ZM15.8125 10.2188L16.2285 9.94146L16.2285 9.94146L15.8125 10.2188ZM10.9688 6.65365L11.0204 6.15632V6.15632L10.9688 6.65365ZM10.7398 6.63626L10.7176 7.13577H10.7176L10.7398 6.63626ZM10.1548 6.67356L10.0864 6.17826V6.17826L10.1548 6.67356ZM21 12.5C21.2761 12.5 21.5 12.2761 21.5 12C21.5 11.7238 21.2761 11.5 21 11.5V12.5ZM14.3905 8.81237C14.563 8.59675 14.5281 8.2821 14.3124 8.10958C14.0968 7.93707 13.7822 7.97201 13.6096 8.18763L14.3905 8.81237ZM11.7793 11.2756L11.3889 10.9632V10.9632L11.7793 11.2756ZM13.8997 21.9998C13.8997 22.276 14.1235 22.4998 14.3997 22.4998C14.6758 22.4998 14.8997 22.276 14.8997 21.9998H13.8997ZM12.3807 16.1066L12.6826 15.7081V15.7081L12.3807 16.1066ZM13.8755 17.4329L14.2881 17.1506V17.1506L13.8755 17.4329ZM14.2452 18.1767L13.7709 18.3351V18.3351L14.2452 18.1767ZM10.4579 13.413L10.9545 13.4712L10.4579 13.413ZM10.5756 14.3584L11.0428 14.1802V14.1802L10.5756 14.3584ZM20.5 4.5C20.5 5.60457 19.6046 6.5 18.5 6.5V7.5C20.1569 7.5 21.5 6.15685 21.5 4.5H20.5ZM18.5 6.5C17.3954 6.5 16.5 5.60457 16.5 4.5H15.5C15.5 6.15685 16.8431 7.5 18.5 7.5V6.5ZM16.5 4.5C16.5 3.39543 17.3954 2.5 18.5 2.5V1.5C16.8431 1.5 15.5 2.84315 15.5 4.5H16.5ZM18.5 2.5C19.6046 2.5 20.5 3.39543 20.5 4.5H21.5C21.5 2.84315 20.1569 1.5 18.5 1.5V2.5ZM8.61589 16.6799L7.61512 17.8808L8.38334 18.521L9.38411 17.3201L8.61589 16.6799ZM4.15813 19.5H3V20.5H4.15813V19.5ZM7.61512 17.8808C6.848 18.8014 6.55693 19.1334 6.17737 19.3112L6.60153 20.2168C7.22983 19.9225 7.67599 19.3698 8.38334 18.521L7.61512 17.8808ZM4.15813 20.5C5.26304 20.5 5.97323 20.511 6.60153 20.2168L6.17737 19.3112C5.79782 19.489 5.35641 19.5 4.15813 19.5V20.5ZM5.18867 8.38587L3.753 9.20159L4.247 10.0711L5.68268 9.25532L5.18867 8.38587ZM15.3342 10.4027L15.3965 10.4962L16.2285 9.94146L16.1662 9.84798L15.3342 10.4027ZM11.0204 6.15632C10.9227 6.14618 10.8368 6.14007 10.7619 6.13675L10.7176 7.13577C10.7721 7.13818 10.8383 7.1428 10.9172 7.15098L11.0204 6.15632ZM5.68268 9.25532C7.98266 7.94852 9.09888 7.32411 10.2232 7.16886L10.0864 6.17826C8.72625 6.36608 7.41528 7.12075 5.18867 8.38587L5.68268 9.25532ZM19.1407 12.5H21V11.5H19.1407V12.5ZM10.7619 6.13675C10.5214 6.12609 10.2907 6.15005 10.0864 6.17826L10.2232 7.16886C10.4065 7.14354 10.5672 7.1291 10.7176 7.13577L10.7619 6.13675ZM15.3965 10.4962C16.2311 11.748 17.6361 12.5 19.1407 12.5V11.5C17.9705 11.5 16.8777 10.9151 16.2285 9.94146L15.3965 10.4962ZM16.1662 9.84799C15.0016 8.10104 13.2897 6.39187 11.0204 6.15632L10.9172 7.15098C12.7331 7.33946 14.2206 8.7324 15.3342 10.4027L16.1662 9.84799ZM13.6096 8.18763L11.3889 10.9632L12.1698 11.5879L14.3905 8.81237L13.6096 8.18763ZM13.8997 20.1692V21.9998H14.8997V20.1692H13.8997ZM12.0787 16.5052C12.9186 17.1414 13.2441 17.3956 13.4629 17.7153L14.2881 17.1506C13.956 16.6652 13.4686 16.3035 12.6826 15.7081L12.0787 16.5052ZM14.8997 20.1692C14.8997 19.1831 14.9057 18.5762 14.7194 18.0183L13.7709 18.3351C13.8936 18.7026 13.8997 19.1155 13.8997 20.1692H14.8997ZM13.4629 17.7153C13.5938 17.9066 13.6975 18.1152 13.7709 18.3351L14.7194 18.0184C14.6166 17.7105 14.4714 17.4184 14.2881 17.1506L13.4629 17.7153ZM11.3889 10.9632C10.9768 11.4783 10.6451 11.892 10.4115 12.2492C10.1739 12.6126 10.0074 12.9612 9.96132 13.3548L10.9545 13.4712C10.9751 13.2956 11.0512 13.0982 11.2484 12.7965C11.4497 12.4887 11.7454 12.1183 12.1698 11.5879L11.3889 10.9632ZM12.6826 15.7081C12.1412 15.2979 11.7637 15.0113 11.4931 14.7622C11.2279 14.5181 11.1058 14.3454 11.0428 14.1802L10.1084 14.5365C10.2496 14.9068 10.4964 15.204 10.8159 15.498C11.13 15.7871 11.5529 16.1068 12.0787 16.5052L12.6826 15.7081ZM9.96132 13.3548C9.91445 13.7548 9.96491 14.1602 10.1084 14.5365L11.0428 14.1802C10.9567 13.9544 10.9264 13.7112 10.9545 13.4712L9.96132 13.3548Z" fill="#424242"/>
</svg>
