<svg width="24" height="24" viewBox="0 0 24 24" fill="none" xmlns="http://www.w3.org/2000/svg">
<path d="M7.83475 4.69706L7.79498 4.19864L7.83475 4.69706ZM8.41718 4.63393L8.51402 5.12446L8.41718 4.63393ZM9.78133 3.89076L10.1056 4.27132V4.27132L9.78133 3.89076ZM9.32485 4.25796L9.04647 3.84262V3.84262L9.32485 4.25796ZM4.69706 7.83475L4.19864 7.79498L4.69706 7.83475ZM4.89427 6.41893L4.42282 6.25241L4.89427 6.41893ZM6.41893 4.89427L6.25241 4.42282L6.41893 4.89427ZM3.89076 9.78133L4.27132 10.1056L3.89076 9.78133ZM4.25796 9.32485L3.84262 9.04647V9.04647L4.25796 9.32485ZM4.63393 8.41718L5.12446 8.51402L4.63393 8.41718ZM3.89076 14.2187L4.27132 13.8944H4.27132L3.89076 14.2187ZM3.02907 13.0781L3.48019 12.8625L3.02907 13.0781ZM3.02907 10.9219L3.48019 11.1375L3.02907 10.9219ZM4.69706 16.1653L4.19864 16.205L4.69706 16.1653ZM4.63393 15.5828L5.12446 15.486L4.63393 15.5828ZM4.25796 14.6752L3.84262 14.9535V14.9535L4.25796 14.6752ZM7.83475 19.303L7.87452 18.8046L7.83475 19.303ZM6.41893 19.1058L6.25241 19.5772L6.41893 19.1058ZM4.89427 17.5811L4.42282 17.7476L4.89427 17.5811ZM9.78133 20.1093L10.1056 19.7287V19.7287L9.78133 20.1093ZM9.32485 19.7421L9.04647 20.1574V20.1574L9.32485 19.7421ZM8.41718 19.3661L8.32033 19.8566L8.41718 19.3661ZM14.2187 20.1093L13.8944 19.7287L14.2187 20.1093ZM13.0781 20.971L12.8625 20.5198V20.5198L13.0781 20.971ZM10.9219 20.971L11.1375 20.5198V20.5198L10.9219 20.971ZM16.1653 19.303L16.1255 18.8046L16.1653 19.303ZM15.5828 19.3661L15.6797 19.8566L15.5828 19.3661ZM14.6752 19.7421L14.9536 20.1574V20.1574L14.6752 19.7421ZM19.303 16.1653L18.8046 16.1255L19.303 16.1653ZM19.1058 17.5811L19.5772 17.7476L19.1058 17.5811ZM17.5811 19.1058L17.7476 19.5772L17.5811 19.1058ZM20.1093 14.2187L19.7287 13.8944V13.8944L20.1093 14.2187ZM19.7421 14.6752L20.1574 14.9536V14.9536L19.7421 14.6752ZM19.3661 15.5828L19.8566 15.6797L19.3661 15.5828ZM20.1093 9.78133L19.7287 10.1056L20.1093 9.78133ZM20.971 10.9219L20.5198 11.1375V11.1375L20.971 10.9219ZM20.971 13.0781L20.5198 12.8625V12.8625L20.971 13.0781ZM19.303 7.83475L19.8014 7.79498L19.303 7.83475ZM19.3661 8.41718L19.8566 8.32033L19.3661 8.41718ZM19.7421 9.32485L20.1574 9.04647V9.04647L19.7421 9.32485ZM16.1653 4.69706L16.1255 5.19547L16.1653 4.69706ZM17.5811 4.89427L17.7476 4.42282L17.5811 4.89427ZM19.1058 6.41893L19.5772 6.25241L19.1058 6.41893ZM14.2187 3.89076L13.8944 4.27132L14.2187 3.89076ZM14.6752 4.25796L14.9535 3.84262V3.84262L14.6752 4.25796ZM15.5828 4.63393L15.486 5.12446L15.5828 4.63393ZM13.0781 3.02907L12.8625 3.48019L13.0781 3.02907ZM10.9219 3.02907L11.1375 3.48019L10.9219 3.02907ZM15.3536 9.35355C15.5488 9.15829 15.5488 8.84171 15.3536 8.64645C15.1583 8.45118 14.8417 8.45118 14.6464 8.64645L15.3536 9.35355ZM7.87452 5.19547C8.15724 5.17291 8.33765 5.15928 8.51402 5.12446L8.32033 4.1434C8.21363 4.16447 8.10011 4.17429 7.79498 4.19864L7.87452 5.19547ZM9.45702 3.5102C9.22404 3.70875 9.13683 3.78207 9.04647 3.84262L9.60323 4.6733C9.75257 4.57321 9.88977 4.45528 10.1056 4.27132L9.45702 3.5102ZM8.51402 5.12446C8.90336 5.0476 9.27358 4.89425 9.60323 4.6733L9.04647 3.84262C8.8267 3.98992 8.57989 4.09216 8.32033 4.1434L8.51402 5.12446ZM5.19547 7.87452C5.25682 7.10574 5.28405 6.8167 5.36573 6.58545L4.42282 6.25241C4.28687 6.63729 4.25516 7.08675 4.19864 7.79498L5.19547 7.87452ZM7.79498 4.19864C7.08675 4.25516 6.63729 4.28687 6.25241 4.42282L6.58545 5.36573C6.8167 5.28405 7.10574 5.25682 7.87452 5.19547L7.79498 4.19864ZM5.36573 6.58545C5.56706 6.01543 6.01543 5.56706 6.58545 5.36573L6.25241 4.42282C5.39737 4.72482 4.72482 5.39737 4.42282 6.25241L5.36573 6.58545ZM4.27132 10.1056C4.45528 9.88977 4.57321 9.75257 4.6733 9.60323L3.84262 9.04647C3.78207 9.13683 3.70875 9.22404 3.5102 9.45702L4.27132 10.1056ZM4.19864 7.79498C4.17429 8.10011 4.16447 8.21363 4.1434 8.32033L5.12446 8.51402C5.15928 8.33765 5.17291 8.15724 5.19547 7.87452L4.19864 7.79498ZM4.6733 9.60323C4.89425 9.27358 5.0476 8.90336 5.12446 8.51402L4.1434 8.32033C4.09216 8.57989 3.98992 8.8267 3.84262 9.04647L4.6733 9.60323ZM4.27132 13.8944C3.77109 13.3074 3.58595 13.0838 3.48019 12.8625L2.57795 13.2937C2.75398 13.662 3.04937 14.0022 3.5102 14.543L4.27132 13.8944ZM3.5102 9.45702C3.04937 9.99778 2.75398 10.338 2.57795 10.7063L3.48019 11.1375C3.58595 10.9163 3.77109 10.6926 4.27132 10.1056L3.5102 9.45702ZM3.48019 12.8625C3.21949 12.3171 3.21949 11.683 3.48019 11.1375L2.57795 10.7063C2.18691 11.5244 2.18691 12.4756 2.57795 13.2937L3.48019 12.8625ZM5.19547 16.1255C5.17291 15.8428 5.15928 15.6624 5.12446 15.486L4.1434 15.6797C4.16447 15.7864 4.17429 15.8999 4.19864 16.205L5.19547 16.1255ZM3.5102 14.543C3.70875 14.776 3.78207 14.8632 3.84262 14.9535L4.6733 14.3968C4.57321 14.2475 4.45528 14.1103 4.27132 13.8944L3.5102 14.543ZM5.12446 15.486C5.0476 15.0967 4.89425 14.7264 4.6733 14.3968L3.84262 14.9535C3.98992 15.1733 4.09216 15.4201 4.1434 15.6797L5.12446 15.486ZM7.87452 18.8046C7.10574 18.7432 6.8167 18.716 6.58545 18.6343L6.25241 19.5772C6.63729 19.7132 7.08675 19.7449 7.79498 19.8014L7.87452 18.8046ZM4.19864 16.205C4.25516 16.9133 4.28687 17.3627 4.42282 17.7476L5.36573 17.4146C5.28405 17.1833 5.25682 16.8943 5.19547 16.1255L4.19864 16.205ZM6.58545 18.6343C6.01543 18.433 5.56706 17.9846 5.36573 17.4146L4.42282 17.7476C4.72482 18.6027 5.39737 19.2752 6.25241 19.5772L6.58545 18.6343ZM10.1056 19.7287C9.88977 19.5447 9.75256 19.4268 9.60323 19.3267L9.04647 20.1574C9.13682 20.218 9.22404 20.2913 9.45702 20.4898L10.1056 19.7287ZM7.79498 19.8014C8.10011 19.8257 8.21363 19.8356 8.32033 19.8566L8.51402 18.8756C8.33766 18.8407 8.15725 18.8271 7.87452 18.8046L7.79498 19.8014ZM9.60323 19.3267C9.27358 19.1058 8.90336 18.9524 8.51402 18.8756L8.32033 19.8566C8.57989 19.9079 8.8267 20.0101 9.04647 20.1574L9.60323 19.3267ZM13.8944 19.7287C13.3074 20.2289 13.0838 20.4141 12.8625 20.5198L13.2937 21.4221C13.662 21.246 14.0022 20.9507 14.543 20.4898L13.8944 19.7287ZM9.45702 20.4898C9.99778 20.9507 10.338 21.246 10.7063 21.4221L11.1375 20.5198C10.9163 20.4141 10.6926 20.2289 10.1056 19.7287L9.45702 20.4898ZM12.8625 20.5198C12.3171 20.7805 11.683 20.7805 11.1375 20.5198L10.7063 21.4221C11.5244 21.8131 12.4756 21.8131 13.2937 21.4221L12.8625 20.5198ZM16.1255 18.8046C15.8428 18.8271 15.6624 18.8407 15.486 18.8756L15.6797 19.8566C15.7864 19.8356 15.8999 19.8257 16.205 19.8014L16.1255 18.8046ZM14.543 20.4898C14.776 20.2913 14.8632 20.218 14.9536 20.1574L14.3968 19.3267C14.2475 19.4268 14.1103 19.5447 13.8944 19.7287L14.543 20.4898ZM15.486 18.8756C15.0967 18.9524 14.7264 19.1058 14.3968 19.3267L14.9536 20.1574C15.1733 20.0101 15.4201 19.9079 15.6797 19.8566L15.486 18.8756ZM18.8046 16.1255C18.7432 16.8943 18.716 17.1833 18.6343 17.4146L19.5772 17.7476C19.7132 17.3627 19.7449 16.9133 19.8014 16.205L18.8046 16.1255ZM16.205 19.8014C16.9133 19.7449 17.3627 19.7132 17.7476 19.5772L17.4146 18.6343C17.1833 18.716 16.8943 18.7432 16.1255 18.8046L16.205 19.8014ZM18.6343 17.4146C18.433 17.9846 17.9846 18.433 17.4146 18.6343L17.7476 19.5772C18.6027 19.2752 19.2752 18.6027 19.5772 17.7476L18.6343 17.4146ZM19.7287 13.8944C19.5447 14.1103 19.4268 14.2475 19.3267 14.3968L20.1574 14.9536C20.218 14.8632 20.2913 14.776 20.4898 14.543L19.7287 13.8944ZM19.8014 16.205C19.8257 15.8999 19.8356 15.7864 19.8566 15.6797L18.8756 15.486C18.8407 15.6624 18.8271 15.8428 18.8046 16.1255L19.8014 16.205ZM19.3267 14.3968C19.1058 14.7264 18.9524 15.0967 18.8756 15.486L19.8566 15.6797C19.9079 15.4201 20.0101 15.1733 20.1574 14.9536L19.3267 14.3968ZM19.7287 10.1056C20.2289 10.6926 20.4141 10.9163 20.5198 11.1375L21.4221 10.7063C21.246 10.338 20.9507 9.99778 20.4898 9.45702L19.7287 10.1056ZM20.4898 14.543C20.9507 14.0022 21.246 13.662 21.4221 13.2937L20.5198 12.8625C20.4141 13.0838 20.2289 13.3074 19.7287 13.8944L20.4898 14.543ZM20.5198 11.1375C20.7805 11.683 20.7805 12.3171 20.5198 12.8625L21.4221 13.2937C21.8131 12.4756 21.8131 11.5244 21.4221 10.7063L20.5198 11.1375ZM18.8046 7.87452C18.8271 8.15725 18.8407 8.33766 18.8756 8.51402L19.8566 8.32033C19.8356 8.21363 19.8257 8.10011 19.8014 7.79498L18.8046 7.87452ZM20.4898 9.45702C20.2913 9.22404 20.218 9.13683 20.1574 9.04647L19.3267 9.60323C19.4268 9.75256 19.5447 9.88977 19.7287 10.1056L20.4898 9.45702ZM18.8756 8.51402C18.9524 8.90336 19.1058 9.27358 19.3267 9.60323L20.1574 9.04647C20.0101 8.8267 19.9079 8.57989 19.8566 8.32033L18.8756 8.51402ZM16.1255 5.19547C16.8943 5.25682 17.1833 5.28405 17.4146 5.36573L17.7476 4.42282C17.3627 4.28687 16.9133 4.25516 16.205 4.19864L16.1255 5.19547ZM19.8014 7.79498C19.7449 7.08675 19.7132 6.63729 19.5772 6.25241L18.6343 6.58545C18.716 6.8167 18.7432 7.10574 18.8046 7.87452L19.8014 7.79498ZM17.4146 5.36573C17.9846 5.56706 18.433 6.01543 18.6343 6.58545L19.5772 6.25241C19.2752 5.39737 18.6027 4.72482 17.7476 4.42282L17.4146 5.36573ZM13.8944 4.27132C14.1103 4.45528 14.2475 4.57321 14.3968 4.6733L14.9535 3.84262C14.8632 3.78207 14.776 3.70875 14.543 3.5102L13.8944 4.27132ZM16.205 4.19864C15.8999 4.17429 15.7864 4.16447 15.6797 4.1434L15.486 5.12446C15.6624 5.15928 15.8428 5.17291 16.1255 5.19547L16.205 4.19864ZM14.3968 4.6733C14.7264 4.89425 15.0967 5.0476 15.486 5.12446L15.6797 4.1434C15.4201 4.09216 15.1733 3.98992 14.9535 3.84262L14.3968 4.6733ZM14.543 3.5102C14.0022 3.04937 13.662 2.75398 13.2937 2.57795L12.8625 3.48019C13.0838 3.58595 13.3074 3.77109 13.8944 4.27132L14.543 3.5102ZM10.1056 4.27132C10.6926 3.77109 10.9163 3.58595 11.1375 3.48019L10.7063 2.57795C10.338 2.75398 9.99778 3.04937 9.45702 3.5102L10.1056 4.27132ZM13.2937 2.57795C12.4756 2.18691 11.5244 2.18691 10.7063 2.57795L11.1375 3.48019C11.683 3.21949 12.3171 3.21949 12.8625 3.48019L13.2937 2.57795ZM9.35355 15.3536L15.3536 9.35355L14.6464 8.64645L8.64645 14.6464L9.35355 15.3536ZM15 14.5C15 14.7761 14.7761 15 14.5 15V16C15.3284 16 16 15.3284 16 14.5H15ZM14.5 15C14.2239 15 14 14.7761 14 14.5H13C13 15.3284 13.6716 16 14.5 16V15ZM14 14.5C14 14.2239 14.2239 14 14.5 14V13C13.6716 13 13 13.6716 13 14.5H14ZM14.5 14C14.7761 14 15 14.2239 15 14.5H16C16 13.6716 15.3284 13 14.5 13V14ZM10 9.5C10 9.77614 9.77614 10 9.5 10V11C10.3284 11 11 10.3284 11 9.5H10ZM9.5 10C9.22386 10 9 9.77614 9 9.5H8C8 10.3284 8.67157 11 9.5 11V10ZM9 9.5C9 9.22386 9.22386 9 9.5 9V8C8.67157 8 8 8.67157 8 9.5H9ZM9.5 9C9.77614 9 10 9.22386 10 9.5H11C11 8.67157 10.3284 8 9.5 8V9Z" fill="#424242"/>
</svg>
