<svg width="24" height="24" viewBox="0 0 24 24" fill="none" xmlns="http://www.w3.org/2000/svg">
<path d="M3.46459 3.46398L3.81814 3.81753L3.81814 3.81753L3.46459 3.46398ZM20.5357 20.535L20.1821 20.1815V20.1815L20.5357 20.535ZM11.001 2.50009C11.2772 2.49959 11.5006 2.27533 11.5001 1.99919C11.4996 1.72305 11.2754 1.49959 10.9992 1.50009L11.001 2.50009ZM22.4995 13.0004C22.5 12.7243 22.2766 12.5 22.0004 12.4995C21.7243 12.499 21.5 12.7225 21.4995 12.9986L22.4995 13.0004ZM21.9999 2H22.4999C22.4999 1.72386 22.2761 1.5 21.9999 1.5V2ZM16.6562 1.5C16.3801 1.5 16.1562 1.72386 16.1562 2C16.1562 2.27614 16.3801 2.5 16.6562 2.5V1.5ZM21.4999 7.34375C21.4999 7.61989 21.7238 7.84375 21.9999 7.84375C22.2761 7.84375 22.4999 7.61989 22.4999 7.34375H21.4999ZM11.9999 12H11.4999C11.4999 12.2761 11.7238 12.5 11.9999 12.5V12ZM15.9999 12.5C16.2761 12.5 16.4999 12.2761 16.4999 12C16.4999 11.7239 16.2761 11.5 15.9999 11.5V12.5ZM12.4999 8C12.4999 7.72386 12.2761 7.5 11.9999 7.5C11.7238 7.5 11.4999 7.72386 11.4999 8H12.4999ZM2.50012 11.9995C2.50012 9.62835 2.50118 7.90029 2.67872 6.57978C2.85433 5.27365 3.19429 4.44138 3.81814 3.81753L3.11103 3.11042C2.27042 3.95104 1.87815 5.02952 1.68764 6.44653C1.49906 7.84916 1.50012 9.65662 1.50012 11.9995H2.50012ZM12.0001 21.4995C9.62896 21.4995 7.9009 21.4984 6.58039 21.3209C5.27426 21.1453 4.44199 20.8053 3.81814 20.1815L3.11103 20.8886C3.95165 21.7292 5.03013 22.1215 6.44714 22.312C7.84977 22.5006 9.65723 22.4995 12.0001 22.4995V21.4995ZM1.50012 11.9995C1.50012 14.3424 1.49906 16.1499 1.68764 17.5525C1.87815 18.9695 2.27042 20.048 3.11103 20.8886L3.81814 20.1815C3.19429 19.5576 2.85433 18.7254 2.67872 17.4192C2.50118 16.0987 2.50012 14.3707 2.50012 11.9995H1.50012ZM12.0001 22.4995C14.343 22.4995 16.1505 22.5006 17.5531 22.312C18.9701 22.1215 20.0486 21.7292 20.8892 20.8886L20.1821 20.1815C19.5583 20.8053 18.726 21.1453 17.4199 21.3209C16.0993 21.4984 14.3713 21.4995 12.0001 21.4995V22.4995ZM10.9992 1.50009C8.97994 1.50373 7.39434 1.52939 6.1407 1.73231C4.87244 1.9376 3.88948 2.33198 3.11103 3.11042L3.81814 3.81753C4.39672 3.23895 5.154 2.90504 6.30048 2.71946C7.46158 2.53152 8.96523 2.50376 11.001 2.50009L10.9992 1.50009ZM21.4995 12.9986C21.4959 15.0344 21.4681 16.5381 21.2802 17.6992C21.0946 18.8456 20.7607 19.6029 20.1821 20.1815L20.8892 20.8886C21.6677 20.1102 22.062 19.1272 22.2673 17.8589C22.4702 16.6053 22.4959 15.0197 22.4995 13.0004L21.4995 12.9986ZM21.9999 1.5H16.6562V2.5H21.9999V1.5ZM21.4999 2V7.34375H22.4999V2H21.4999ZM11.9999 12.5H15.9999V11.5H11.9999V12.5ZM12.4999 12V8H11.4999V12H12.4999ZM12.3535 12.3536L22.3535 2.35355L21.6464 1.64645L11.6464 11.6464L12.3535 12.3536Z" fill="#424242"/>
</svg>
