<svg width="24" height="24" viewBox="0 0 24 24" fill="none" xmlns="http://www.w3.org/2000/svg">
<path d="M10 22.5C10.2761 22.5 10.5 22.2761 10.5 22C10.5 21.7239 10.2761 21.5 10 21.5V22.5ZM2.5 15C2.5 14.7239 2.27614 14.5 2 14.5C1.72386 14.5 1.5 14.7239 1.5 15H2.5ZM22.5 15C22.5 14.7239 22.2761 14.5 22 14.5C21.7239 14.5 21.5 14.7239 21.5 15H22.5ZM14 21.5C13.7239 21.5 13.5 21.7239 13.5 22C13.5 22.2761 13.7239 22.5 14 22.5V21.5ZM14 1.5C13.7239 1.5 13.5 1.72386 13.5 2C13.5 2.27614 13.7239 2.5 14 2.5V1.5ZM21.5 9C21.5 9.27614 21.7239 9.5 22 9.5C22.2761 9.5 22.5 9.27614 22.5 9H21.5ZM10 2.5C10.2761 2.5 10.5 2.27614 10.5 2C10.5 1.72386 10.2761 1.5 10 1.5V2.5ZM1.5 9C1.5 9.27614 1.72386 9.5 2 9.5C2.27614 9.5 2.5 9.27614 2.5 9H1.5ZM2 11.5C1.72386 11.5 1.5 11.7239 1.5 12C1.5 12.2761 1.72386 12.5 2 12.5V11.5ZM22 12.5C22.2761 12.5 22.5 12.2761 22.5 12C22.5 11.7239 22.2761 11.5 22 11.5V12.5ZM10 21.5C8.10025 21.5 6.72573 21.4989 5.67754 21.358C4.64373 21.219 4.00253 20.9523 3.52513 20.4749L2.81802 21.182C3.51219 21.8762 4.39959 22.1952 5.54429 22.3491C6.6746 22.5011 8.12852 22.5 10 22.5V21.5ZM1.5 15C1.5 16.8633 1.49808 18.0821 1.65389 18.975C1.81966 19.925 2.16647 20.5304 2.81802 21.182L3.52513 20.4749C3.00511 19.9549 2.76613 19.5317 2.639 18.8031C2.50192 18.0175 2.5 16.9079 2.5 15H1.5ZM21.5 15C21.5 16.9079 21.4981 18.0175 21.361 18.8031C21.2339 19.5317 20.9949 19.9549 20.4749 20.4749L21.182 21.182C21.8335 20.5304 22.1803 19.925 22.3461 18.975C22.5019 18.0821 22.5 16.8633 22.5 15H21.5ZM14 22.5C15.8715 22.5 17.3254 22.5011 18.4557 22.3491C19.6004 22.1952 20.4878 21.8762 21.182 21.182L20.4749 20.4749C19.9975 20.9523 19.3563 21.219 18.3225 21.358C17.2743 21.4989 15.8998 21.5 14 21.5V22.5ZM14 2.5C15.8998 2.5 17.2743 2.50106 18.3225 2.64199C19.3563 2.78098 19.9975 3.04772 20.4749 3.52513L21.182 2.81802C20.4878 2.12385 19.6004 1.80481 18.4557 1.65091C17.3254 1.49894 15.8715 1.5 14 1.5V2.5ZM22.5 9C22.5 7.13669 22.5019 5.91788 22.3461 5.02496C22.1803 4.07499 21.8335 3.46957 21.182 2.81802L20.4749 3.52513C20.9949 4.04515 21.2339 4.46833 21.361 5.19686C21.4981 5.98245 21.5 7.09207 21.5 9H22.5ZM10 1.5C8.12852 1.5 6.67461 1.49894 5.54429 1.65091C4.39959 1.80481 3.51219 2.12385 2.81802 2.81802L3.52513 3.52513C4.00253 3.04772 4.64373 2.78098 5.67754 2.64199C6.72573 2.50106 8.10025 2.5 10 2.5V1.5ZM2.5 9C2.5 7.09207 2.50192 5.98245 2.639 5.19686C2.76613 4.46833 3.00511 4.04515 3.52513 3.52513L2.81802 2.81802C2.16647 3.46957 1.81966 4.07499 1.65389 5.02496C1.49808 5.91788 1.5 7.13669 1.5 9H2.5ZM2 12.5H22V11.5H2V12.5Z" fill="#424242"/>
</svg>
