<svg width="24" height="24" viewBox="0 0 24 24" fill="none" xmlns="http://www.w3.org/2000/svg">
<path d="M2.58151 19.8267L3.06452 19.9559V19.9559L2.58151 19.8267ZM3.17712 17.6006L2.69411 17.4714H2.69411L3.17712 17.6006ZM6.39939 20.8229L6.52862 21.3059H6.52862L6.39939 20.8229ZM4.17335 21.4185L4.04411 20.9355V20.9355L4.17335 21.4185ZM3.04346 16.4525L3.49102 16.2296V16.2296L3.04346 16.4525ZM7.54753 20.9565L7.32461 21.4041V21.4041L7.54753 20.9565ZM12 12.3077H11.5V12.5308L11.666 12.6798L12 12.3077ZM12.5 8C12.5 7.72386 12.2761 7.5 12 7.5C11.7239 7.5 11.5 7.72386 11.5 8H12.5ZM14.666 15.3721C14.8716 15.5566 15.1877 15.5395 15.3721 15.334C15.5566 15.1284 15.5395 14.8123 15.334 14.6279L14.666 15.3721ZM21.5 12C21.5 17.2467 17.2467 21.5 12 21.5V22.5C17.799 22.5 22.5 17.799 22.5 12H21.5ZM2.5 12C2.5 6.75329 6.75329 2.5 12 2.5V1.5C6.20101 1.5 1.5 6.20101 1.5 12H2.5ZM12 2.5C17.2467 2.5 21.5 6.75329 21.5 12H22.5C22.5 6.20101 17.799 1.5 12 1.5V2.5ZM3.06452 19.9559L3.66013 17.7298L2.69411 17.4714L2.0985 19.6974L3.06452 19.9559ZM6.27015 20.3399L4.04411 20.9355L4.30258 21.9015L6.52862 21.3059L6.27015 20.3399ZM3.49102 16.2296C2.85689 14.9564 2.5 13.5206 2.5 12H1.5C1.5 13.6788 1.89434 15.2669 2.5959 16.6754L3.49102 16.2296ZM12 21.5C10.4794 21.5 9.04359 21.1431 7.77045 20.509L7.32461 21.4041C8.73314 22.1057 10.3212 22.5 12 22.5V21.5ZM6.52862 21.3059C6.78007 21.2386 7.06234 21.2735 7.32461 21.4041L7.77045 20.509C7.32007 20.2847 6.7878 20.2014 6.27015 20.3399L6.52862 21.3059ZM3.66013 17.7298C3.79863 17.2122 3.71534 16.6799 3.49102 16.2296L2.5959 16.6754C2.72653 16.9377 2.76139 17.2199 2.69411 17.4714L3.66013 17.7298ZM2.0985 19.6974C1.7405 21.0354 2.96458 22.2595 4.30258 21.9015L4.04411 20.9355C3.44945 21.0946 2.90541 20.5506 3.06452 19.9559L2.0985 19.6974ZM12.5 12.3077V8H11.5V12.3077H12.5ZM11.666 12.6798L14.666 15.3721L15.334 14.6279L12.334 11.9356L11.666 12.6798Z" fill="#424242"/>
</svg>
