<svg width="24" height="24" viewBox="0 0 24 24" fill="none" xmlns="http://www.w3.org/2000/svg">
<path d="M8 20C8.27614 20 8.5 19.7761 8.5 19.5C8.5 19.2239 8.27614 19 8 19V20ZM8 5C8.27614 5 8.5 4.77614 8.5 4.5C8.5 4.22386 8.27614 4 8 4V5ZM14 16C14 16.2761 14.2239 16.5 14.5 16.5C14.7761 16.5 15 16.2761 15 16H14ZM14.5 8L14.8536 7.64645C14.6583 7.45118 14.3417 7.45118 14.1464 7.64645L14.5 8ZM16.6464 10.8536C16.8417 11.0488 17.1583 11.0488 17.3536 10.8536C17.5488 10.6583 17.5488 10.3417 17.3536 10.1464L16.6464 10.8536ZM11.6464 10.1464C11.4512 10.3417 11.4512 10.6583 11.6464 10.8536C11.8417 11.0488 12.1583 11.0488 12.3536 10.8536L11.6464 10.1464ZM14 2.5H15V1.5H14V2.5ZM20.5 8V16H21.5V8H20.5ZM15 21.5H14V22.5H15V21.5ZM8.5 16V8H7.5V16H8.5ZM14 21.5C12.5717 21.5 11.5507 21.4989 10.7748 21.3946C10.0133 21.2922 9.56319 21.0987 9.23223 20.7678L8.52513 21.4749C9.07285 22.0226 9.76918 22.2684 10.6416 22.3857C11.4996 22.5011 12.5999 22.5 14 22.5V21.5ZM7.5 16C7.5 17.4001 7.49894 18.5004 7.61429 19.3584C7.73158 20.2308 7.9774 20.9272 8.52513 21.4749L9.23223 20.7678C8.90128 20.4368 8.70776 19.9867 8.60538 19.2252C8.50106 18.4493 8.5 17.4283 8.5 16H7.5ZM20.5 16C20.5 17.4283 20.4989 18.4493 20.3946 19.2252C20.2922 19.9867 20.0987 20.4368 19.7678 20.7678L20.4749 21.4749C21.0226 20.9272 21.2684 20.2308 21.3857 19.3584C21.5011 18.5004 21.5 17.4001 21.5 16H20.5ZM15 22.5C16.4001 22.5 17.5004 22.5011 18.3584 22.3857C19.2308 22.2684 19.9271 22.0226 20.4749 21.4749L19.7678 20.7678C19.4368 21.0987 18.9867 21.2922 18.2252 21.3946C17.4493 21.4989 16.4283 21.5 15 21.5V22.5ZM15 2.5C16.4283 2.5 17.4493 2.50106 18.2252 2.60538C18.9867 2.70776 19.4368 2.90128 19.7678 3.23223L20.4749 2.52513C19.9271 1.9774 19.2308 1.73158 18.3584 1.61429C17.5004 1.49894 16.4001 1.5 15 1.5V2.5ZM21.5 8C21.5 6.59992 21.5011 5.49956 21.3857 4.64156C21.2684 3.76917 21.0226 3.07285 20.4749 2.52513L19.7678 3.23223C20.0987 3.56319 20.2922 4.01331 20.3946 4.77481C20.4989 5.55069 20.5 6.57165 20.5 8H21.5ZM14 1.5C12.5999 1.5 11.4996 1.49894 10.6416 1.61429C9.76917 1.73158 9.07285 1.9774 8.52513 2.52513L9.23223 3.23223C9.56319 2.90128 10.0133 2.70776 10.7748 2.60538C11.5507 2.50106 12.5717 2.5 14 2.5V1.5ZM8.5 8C8.5 6.57165 8.50106 5.55069 8.60538 4.77481C8.70776 4.01331 8.90128 3.56319 9.23223 3.23223L8.52513 2.52513C7.9774 3.07285 7.73158 3.76917 7.61429 4.64156C7.49894 5.49956 7.5 6.59992 7.5 8H8.5ZM2.5 9.5V14.5H3.5V9.5H2.5ZM2.5 14.5C2.5 15.6644 2.49894 16.588 2.59599 17.3098C2.69497 18.046 2.90418 18.6468 3.37868 19.1213L4.08579 18.4142C3.82805 18.1565 3.67115 17.8019 3.58707 17.1766C3.50106 16.5368 3.5 15.6926 3.5 14.5H2.5ZM8 19C6.80735 19 5.96317 18.9989 5.32344 18.9129C4.6981 18.8289 4.34352 18.6719 4.08579 18.4142L3.37868 19.1213C3.85318 19.5958 4.45397 19.805 5.1902 19.904C5.91204 20.0011 6.83562 20 8 20V19ZM3.5 9.5C3.5 8.30735 3.50106 7.46317 3.58707 6.82344C3.67115 6.1981 3.82805 5.84352 4.08579 5.58579L3.37868 4.87868C2.90418 5.35318 2.69497 5.95397 2.59599 6.6902C2.49894 7.41204 2.5 8.33562 2.5 9.5H3.5ZM8 4C6.83562 4 5.91204 3.99894 5.1902 4.09599C4.45397 4.19497 3.85318 4.40418 3.37868 4.87868L4.08579 5.58579C4.34352 5.32805 4.6981 5.17115 5.32344 5.08707C5.96317 5.00106 6.80735 5 8 5V4ZM15 16V8H14V16H15ZM14.1464 8.35355L16.6464 10.8536L17.3536 10.1464L14.8536 7.64645L14.1464 8.35355ZM14.1464 7.64645L11.6464 10.1464L12.3536 10.8536L14.8536 8.35355L14.1464 7.64645Z" fill="#424242"/>
</svg>
