<svg width="24" height="24" viewBox="0 0 24 24" fill="none" xmlns="http://www.w3.org/2000/svg">
<path d="M22 19.5C22.2761 19.5 22.5 19.2761 22.5 19C22.5 18.7239 22.2761 18.5 22 18.5V19V19.5ZM2 18.5C1.72386 18.5 1.5 18.7239 1.5 19C1.5 19.2761 1.72386 19.5 2 19.5V19V18.5ZM12.5 14C12.5 13.7239 12.2761 13.5 12 13.5C11.7239 13.5 11.5 13.7239 11.5 14H12H12.5ZM13 4.5C12.7239 4.5 12.5 4.72386 12.5 5C12.5 5.27614 12.7239 5.5 13 5.5V5V4.5ZM19 5.5C19.2761 5.5 19.5 5.27614 19.5 5C19.5 4.72386 19.2761 4.5 19 4.5V5V5.5ZM13 10.5C12.7239 10.5 12.5 10.7239 12.5 11C12.5 11.2761 12.7239 11.5 13 11.5V11V10.5ZM19 11.5C19.2761 11.5 19.5 11.2761 19.5 11C19.5 10.7239 19.2761 10.5 19 10.5V11V11.5ZM22 19V18.5H14V19V19.5H22V19ZM10 19V18.5H2V19V19.5H10V19ZM12 17H12.5V14H12H11.5V17H12ZM14 19H13.5C13.5 19.8284 12.8284 20.5 12 20.5V21V21.5C13.3807 21.5 14.5 20.3807 14.5 19H14ZM12 21V20.5C11.1716 20.5 10.5 19.8284 10.5 19H10H9.5C9.5 20.3807 10.6193 21.5 12 21.5V21ZM10 19H10.5C10.5 18.1716 11.1716 17.5 12 17.5V17V16.5C10.6193 16.5 9.5 17.6193 9.5 19H10ZM12 17V17.5C12.8284 17.5 13.5 18.1716 13.5 19H14H14.5C14.5 17.6193 13.3807 16.5 12 16.5V17ZM5 8V8.5H19V8V7.5H5V8ZM19 14V13.5H5V14V14.5H19V14ZM5 14V13.5C3.61929 13.5 2.5 12.3807 2.5 11H2H1.5C1.5 12.933 3.067 14.5 5 14.5V14ZM22 11H21.5C21.5 12.3807 20.3807 13.5 19 13.5V14V14.5C20.933 14.5 22.5 12.933 22.5 11H22ZM19 8V8.5C20.3807 8.5 21.5 9.61929 21.5 11H22H22.5C22.5 9.067 20.933 7.5 19 7.5V8ZM5 8V7.5C3.067 7.5 1.5 9.067 1.5 11H2H2.5C2.5 9.61929 3.61929 8.5 5 8.5V8ZM5 2V2.5H19V2V1.5H5V2ZM5 8V7.5C3.61929 7.5 2.5 6.38071 2.5 5H2H1.5C1.5 6.933 3.067 8.5 5 8.5V8ZM22 5H21.5C21.5 6.38071 20.3807 7.5 19 7.5V8V8.5C20.933 8.5 22.5 6.933 22.5 5H22ZM19 2V2.5C20.3807 2.5 21.5 3.61929 21.5 5H22H22.5C22.5 3.067 20.933 1.5 19 1.5V2ZM5 2V1.5C3.067 1.5 1.5 3.067 1.5 5H2H2.5C2.5 3.61929 3.61929 2.5 5 2.5V2ZM13 5V5.5H19V5V4.5H13V5ZM13 11V11.5H19V11V10.5H13V11ZM7 5H6.5C6.5 5.27614 6.27614 5.5 6 5.5V6V6.5C6.82843 6.5 7.5 5.82843 7.5 5H7ZM6 6V5.5C5.72386 5.5 5.5 5.27614 5.5 5H5H4.5C4.5 5.82843 5.17157 6.5 6 6.5V6ZM5 5H5.5C5.5 4.72386 5.72386 4.5 6 4.5V4V3.5C5.17157 3.5 4.5 4.17157 4.5 5H5ZM6 4V4.5C6.27614 4.5 6.5 4.72386 6.5 5H7H7.5C7.5 4.17157 6.82843 3.5 6 3.5V4ZM7 11H6.5C6.5 11.2761 6.27614 11.5 6 11.5V12V12.5C6.82843 12.5 7.5 11.8284 7.5 11H7ZM6 12V11.5C5.72386 11.5 5.5 11.2761 5.5 11H5H4.5C4.5 11.8284 5.17157 12.5 6 12.5V12ZM5 11H5.5C5.5 10.7239 5.72386 10.5 6 10.5V10V9.5C5.17157 9.5 4.5 10.1716 4.5 11H5ZM6 10V10.5C6.27614 10.5 6.5 10.7239 6.5 11H7H7.5C7.5 10.1716 6.82843 9.5 6 9.5V10Z" fill="#424242"/>
</svg>
