<svg width="24" height="24" viewBox="0 0 24 24" fill="none" xmlns="http://www.w3.org/2000/svg">
<path d="M11 5.5C10.7239 5.5 10.5 5.72386 10.5 6C10.5 6.27614 10.7239 6.5 11 6.5V6V5.5ZM18 6.5C18.2761 6.5 18.5 6.27614 18.5 6C18.5 5.72386 18.2761 5.5 18 5.5V6V6.5ZM6 5.5C5.72386 5.5 5.5 5.72386 5.5 6C5.5 6.27614 5.72386 6.5 6 6.5V6V5.5ZM8 6.5C8.27614 6.5 8.5 6.27614 8.5 6C8.5 5.72386 8.27614 5.5 8 5.5V6V6.5ZM11 16.5C10.7239 16.5 10.5 16.7239 10.5 17C10.5 17.2761 10.7239 17.5 11 17.5V17V16.5ZM18 17.5C18.2761 17.5 18.5 17.2761 18.5 17C18.5 16.7239 18.2761 16.5 18 16.5V17V17.5ZM6 16.5C5.72386 16.5 5.5 16.7239 5.5 17C5.5 17.2761 5.72386 17.5 6 17.5V17V16.5ZM8 17.5C8.27614 17.5 8.5 17.2761 8.5 17C8.5 16.7239 8.27614 16.5 8 16.5V17V17.5ZM6 13V13.5H18V13V12.5H6V13ZM18 21V20.5H6V21V21.5H18V21ZM6 21V20.5C5.04306 20.5 4.37565 20.4989 3.87208 20.4312C3.3829 20.3655 3.12385 20.2452 2.93934 20.0607L2.58579 20.4142L2.23223 20.7678C2.63351 21.169 3.13876 21.3416 3.73883 21.4223C4.32452 21.5011 5.07133 21.5 6 21.5V21ZM2 17H1.5C1.5 17.9287 1.49894 18.6755 1.57768 19.2612C1.65836 19.8612 1.83096 20.3665 2.23223 20.7678L2.58579 20.4142L2.93934 20.0607C2.75483 19.8762 2.63453 19.6171 2.56876 19.1279C2.50106 18.6244 2.5 17.9569 2.5 17H2ZM22 17H21.5C21.5 17.9569 21.4989 18.6244 21.4312 19.1279C21.3655 19.6171 21.2452 19.8762 21.0607 20.0607L21.4142 20.4142L21.7678 20.7678C22.169 20.3665 22.3416 19.8612 22.4223 19.2612C22.5011 18.6755 22.5 17.9287 22.5 17H22ZM18 21V21.5C18.9287 21.5 19.6755 21.5011 20.2612 21.4223C20.8612 21.3416 21.3665 21.169 21.7678 20.7678L21.4142 20.4142L21.0607 20.0607C20.8762 20.2452 20.6171 20.3655 20.1279 20.4312C19.6244 20.4989 18.9569 20.5 18 20.5V21ZM18 13V13.5C18.9569 13.5 19.6244 13.5011 20.1279 13.5688C20.6171 13.6345 20.8762 13.7548 21.0607 13.9393L21.4142 13.5858L21.7678 13.2322C21.3665 12.831 20.8612 12.6584 20.2612 12.5777C19.6755 12.4989 18.9287 12.5 18 12.5V13ZM22 17H22.5C22.5 16.0713 22.5011 15.3245 22.4223 14.7388C22.3416 14.1388 22.169 13.6335 21.7678 13.2322L21.4142 13.5858L21.0607 13.9393C21.2452 14.1238 21.3655 14.3829 21.4312 14.8721C21.4989 15.3756 21.5 16.0431 21.5 17H22ZM6 13V12.5C5.07133 12.5 4.32452 12.4989 3.73883 12.5777C3.13876 12.6584 2.63351 12.831 2.23223 13.2322L2.58579 13.5858L2.93934 13.9393C3.12385 13.7548 3.3829 13.6345 3.87208 13.5688C4.37565 13.5011 5.04306 13.5 6 13.5V13ZM2 17H2.5C2.5 16.0431 2.50106 15.3756 2.56876 14.8721C2.63453 14.3829 2.75483 14.1238 2.93934 13.9393L2.58579 13.5858L2.23223 13.2322C1.83096 13.6335 1.65836 14.1388 1.57768 14.7388C1.49894 15.3245 1.5 16.0713 1.5 17H2ZM6 2V2.5H18V2V1.5H6V2ZM18 10V9.5H6V10V10.5H18V10ZM6 10V9.5C5.04306 9.5 4.37565 9.49894 3.87208 9.43124C3.3829 9.36547 3.12385 9.24517 2.93934 9.06066L2.58579 9.41421L2.23223 9.76777C2.63351 10.169 3.13876 10.3416 3.73883 10.4223C4.32452 10.5011 5.07133 10.5 6 10.5V10ZM2 6H1.5C1.5 6.92867 1.49894 7.67548 1.57768 8.26117C1.65836 8.86124 1.83096 9.36649 2.23223 9.76777L2.58579 9.41421L2.93934 9.06066C2.75483 8.87615 2.63453 8.6171 2.56876 8.12792C2.50106 7.62435 2.5 6.95694 2.5 6H2ZM22 6H21.5C21.5 6.95694 21.4989 7.62435 21.4312 8.12792C21.3655 8.6171 21.2452 8.87615 21.0607 9.06066L21.4142 9.41421L21.7678 9.76777C22.169 9.36649 22.3416 8.86124 22.4223 8.26117C22.5011 7.67548 22.5 6.92867 22.5 6H22ZM18 10V10.5C18.9287 10.5 19.6755 10.5011 20.2612 10.4223C20.8612 10.3416 21.3665 10.169 21.7678 9.76777L21.4142 9.41421L21.0607 9.06066C20.8762 9.24517 20.6171 9.36547 20.1279 9.43124C19.6244 9.49894 18.9569 9.5 18 9.5V10ZM18 2V2.5C18.9569 2.5 19.6244 2.50106 20.1279 2.56876C20.6171 2.63453 20.8762 2.75483 21.0607 2.93934L21.4142 2.58579L21.7678 2.23223C21.3665 1.83096 20.8612 1.65836 20.2612 1.57768C19.6755 1.49894 18.9287 1.5 18 1.5V2ZM22 6H22.5C22.5 5.07133 22.5011 4.32452 22.4223 3.73883C22.3416 3.13876 22.169 2.63351 21.7678 2.23223L21.4142 2.58579L21.0607 2.93934C21.2452 3.12385 21.3655 3.3829 21.4312 3.87208C21.4989 4.37565 21.5 5.04306 21.5 6H22ZM6 2V1.5C5.07133 1.5 4.32452 1.49894 3.73883 1.57768C3.13876 1.65836 2.63351 1.83096 2.23223 2.23223L2.58579 2.58579L2.93934 2.93934C3.12385 2.75483 3.3829 2.63453 3.87208 2.56876C4.37565 2.50106 5.04306 2.5 6 2.5V2ZM2 6H2.5C2.5 5.04306 2.50106 4.37565 2.56876 3.87208C2.63453 3.3829 2.75483 3.12385 2.93934 2.93934L2.58579 2.58579L2.23223 2.23223C1.83096 2.63351 1.65836 3.13876 1.57768 3.73883C1.49894 4.32452 1.5 5.07133 1.5 6H2ZM11 6V6.5H18V6V5.5H11V6ZM6 6V6.5H8V6V5.5H6V6ZM11 17V17.5H18V17V16.5H11V17ZM6 17V17.5H8V17V16.5H6V17Z" fill="#424242"/>
</svg>
