<svg width="24" height="24" viewBox="0 0 24 24" fill="none" xmlns="http://www.w3.org/2000/svg">
<path d="M7.15692 4.20846L7.4117 4.63868V4.63868L7.15692 4.20846ZM7.15692 19.7915L6.90214 20.2218H6.90215L7.15692 19.7915ZM16.1569 20.1979L16.4117 20.6281V20.6281L16.1569 20.1979ZM7.84308 20.1979L8.09785 19.7677H8.09785L7.84308 20.1979ZM12 22V21.5V22ZM16.8431 19.7915L16.5883 19.3613V19.3613L16.8431 19.7915ZM16.8431 4.20846L16.5883 4.63868V4.63868L16.8431 4.20846ZM16.1569 3.80211L16.4117 3.37189V3.37189L16.1569 3.80211ZM7.84308 3.80211L7.5883 3.37189V3.37189L7.84308 3.80211ZM15.9021 4.23233L16.5883 4.63868L17.0979 3.77824L16.4117 3.37189L15.9021 4.23233ZM20.5 11.5937V12.4063H21.5V11.5937H20.5ZM16.5883 19.3613L15.9021 19.7677L16.4117 20.6281L17.0979 20.2218L16.5883 19.3613ZM8.09785 19.7677L7.4117 19.3613L6.90215 20.2218L7.5883 20.6281L8.09785 19.7677ZM3.5 12.4063V11.5937H2.5V12.4063H3.5ZM7.4117 4.63868L8.09785 4.23233L7.5883 3.37189L6.90214 3.77824L7.4117 4.63868ZM3.5 11.5937C3.5 10.3828 3.50053 9.50963 3.56732 8.81464C3.63311 8.13007 3.76045 7.65776 3.99264 7.24525L3.1212 6.75475C2.79647 7.33167 2.64535 7.95477 2.57191 8.71898C2.49947 9.47276 2.5 10.4017 2.5 11.5937H3.5ZM6.90214 3.77824C5.89621 4.37395 5.11028 4.83872 4.50884 5.28087C3.89816 5.72981 3.44631 6.17717 3.1212 6.75475L3.99264 7.24525C4.22446 6.8334 4.55824 6.4857 5.10116 6.08657C5.65331 5.68066 6.38892 5.24437 7.4117 4.63868L6.90214 3.77824ZM7.4117 19.3613C6.38892 18.7556 5.65331 18.3193 5.10116 17.9134C4.55824 17.5143 4.22446 17.1666 3.99264 16.7547L3.1212 17.2453C3.44631 17.8228 3.89816 18.2702 4.50884 18.7191C5.11028 19.1613 5.89621 19.626 6.90214 20.2218L7.4117 19.3613ZM2.5 12.4063C2.5 13.5983 2.49947 14.5272 2.57191 15.281C2.64535 16.0452 2.79647 16.6683 3.1212 17.2453L3.99264 16.7547C3.76045 16.3422 3.63311 15.8699 3.56732 15.1854C3.50053 14.4904 3.5 13.6172 3.5 12.4063H2.5ZM15.9021 19.7677C14.8793 20.3734 14.1432 20.8086 13.5247 21.096C12.9162 21.3788 12.4585 21.5 12 21.5V22.5C12.6554 22.5 13.2618 22.3209 13.9461 22.0029C14.6204 21.6896 15.4059 21.2238 16.4117 20.6281L15.9021 19.7677ZM7.5883 20.6281C8.59414 21.2238 9.37964 21.6896 10.0539 22.0029C10.7382 22.3209 11.3446 22.5 12 22.5V21.5C11.5415 21.5 11.0838 21.3788 10.4753 21.096C9.85677 20.8086 9.12073 20.3734 8.09785 19.7677L7.5883 20.6281ZM20.5 12.4063C20.5 13.6172 20.4995 14.4904 20.4327 15.1854C20.3669 15.8699 20.2395 16.3422 20.0074 16.7547L20.8788 17.2453C21.2035 16.6683 21.3546 16.0452 21.4281 15.281C21.5005 14.5272 21.5 13.5983 21.5 12.4063H20.5ZM17.0979 20.2218C18.1038 19.626 18.8897 19.1613 19.4912 18.7191C20.1018 18.2702 20.5537 17.8228 20.8788 17.2453L20.0074 16.7547C19.7755 17.1666 19.4418 17.5143 18.8988 17.9134C18.3467 18.3193 17.6111 18.7556 16.5883 19.3613L17.0979 20.2218ZM16.5883 4.63868C17.6111 5.24437 18.3467 5.68066 18.8988 6.08657C19.4418 6.4857 19.7755 6.8334 20.0074 7.24525L20.8788 6.75475C20.5537 6.17717 20.1018 5.72981 19.4912 5.28087C18.8897 4.83872 18.1038 4.37395 17.0979 3.77824L16.5883 4.63868ZM21.5 11.5937C21.5 10.4017 21.5005 9.47276 21.4281 8.71898C21.3546 7.95477 21.2035 7.33167 20.8788 6.75475L20.0074 7.24525C20.2395 7.65776 20.3669 8.13007 20.4327 8.81464C20.4995 9.50963 20.5 10.3828 20.5 11.5937H21.5ZM16.4117 3.37189C15.4059 2.77624 14.6204 2.31039 13.9461 1.99709C13.2618 1.67912 12.6554 1.5 12 1.5V2.5C12.4585 2.5 12.9162 2.62123 13.5247 2.90397C14.1432 3.19137 14.8793 3.62658 15.9021 4.23233L16.4117 3.37189ZM8.09785 4.23233C9.12073 3.62658 9.85677 3.19137 10.4753 2.90397C11.0838 2.62123 11.5415 2.5 12 2.5V1.5C11.3446 1.5 10.7382 1.67912 10.0539 1.99709C9.37964 2.31039 8.59414 2.77624 7.5883 3.37189L8.09785 4.23233ZM14.5 12C14.5 13.3807 13.3807 14.5 12 14.5V15.5C13.933 15.5 15.5 13.933 15.5 12H14.5ZM12 14.5C10.6193 14.5 9.5 13.3807 9.5 12H8.5C8.5 13.933 10.067 15.5 12 15.5V14.5ZM9.5 12C9.5 10.6193 10.6193 9.5 12 9.5V8.5C10.067 8.5 8.5 10.067 8.5 12H9.5ZM12 9.5C13.3807 9.5 14.5 10.6193 14.5 12H15.5C15.5 10.067 13.933 8.5 12 8.5V9.5Z" fill="#424242"/>
</svg>
