<svg width="24" height="24" viewBox="0 0 24 24" fill="none" xmlns="http://www.w3.org/2000/svg">
<path d="M4.70468 15.7248L5.19317 15.6182V15.6182L4.70468 15.7248ZM19.2953 15.7248L19.7838 15.8315V15.8315L19.2953 15.7248ZM4.35186 6.83677C4.16947 7.0441 4.18969 7.36004 4.39702 7.54243C4.60436 7.72482 4.92029 7.70461 5.10268 7.49727L4.35186 6.83677ZM9.64814 2.33025C9.83053 2.12292 9.81031 1.80698 9.60298 1.62459C9.39565 1.4422 9.07971 1.46241 8.89732 1.66975L9.64814 2.33025ZM18.8973 7.49727C19.0797 7.70461 19.3956 7.72482 19.603 7.54243C19.8103 7.36004 19.8305 7.0441 19.6481 6.83677L18.8973 7.49727ZM15.1027 1.66975C14.9203 1.46241 14.6044 1.4422 14.397 1.62459C14.1897 1.80698 14.1695 2.12292 14.3519 2.33025L15.1027 1.66975ZM9.77273 14.2495C9.77273 13.9733 9.54887 13.7495 9.27273 13.7495C8.99659 13.7495 8.77273 13.9733 8.77273 14.2495H9.77273ZM8.77273 17.3497C8.77273 17.6258 8.99659 17.8497 9.27273 17.8497C9.54887 17.8497 9.77273 17.6258 9.77273 17.3497H8.77273ZM15.2273 14.2495C15.2273 13.9733 15.0034 13.7495 14.7273 13.7495C14.4511 13.7495 14.2273 13.9733 14.2273 14.2495H15.2273ZM14.2273 17.3497C14.2273 17.6258 14.4511 17.8497 14.7273 17.8497C15.0034 17.8497 15.2273 17.6258 15.2273 17.3497H14.2273ZM3.81818 7.53234V8.03234H20.1818V7.53234V7.03234H3.81818V7.53234ZM20.1818 11.666V11.166H3.81818V11.666V12.166H20.1818V11.666ZM3.81818 11.666V11.166C3.14846 11.166 2.5 10.5266 2.5 9.59915H2H1.5C1.5 10.9546 2.4796 12.166 3.81818 12.166V11.666ZM22 9.59915H21.5C21.5 10.5266 20.8515 11.166 20.1818 11.166V11.666V12.166C21.5204 12.166 22.5 10.9546 22.5 9.59915H22ZM20.1818 7.53234V8.03234C20.8515 8.03234 21.5 8.67169 21.5 9.59915H22H22.5C22.5 8.24368 21.5204 7.03234 20.1818 7.03234V7.53234ZM3.81818 7.53234V7.03234C2.4796 7.03234 1.5 8.24368 1.5 9.59915H2H2.5C2.5 8.67169 3.14846 8.03234 3.81818 8.03234V7.53234ZM20.1818 11.666L19.6933 11.5593L18.8068 15.6181L19.2953 15.7248L19.7838 15.8315L20.6703 11.7726L20.1818 11.666ZM12.2369 22V21.5H11.7631V22V22.5H12.2369V22ZM4.70468 15.7248L5.19317 15.6182L4.30667 11.5593L3.81818 11.666L3.3297 11.7726L4.2162 15.8315L4.70468 15.7248ZM11.7631 22V21.5C10.3836 21.5 9.39916 21.4989 8.63435 21.3949C7.8879 21.2933 7.40594 21.0997 7.0112 20.7488L6.67899 21.1225L6.34678 21.4961C6.93912 22.0227 7.63354 22.2679 8.49954 22.3857C9.34719 22.5011 10.4112 22.5 11.7631 22.5V22ZM4.70468 15.7248L4.2162 15.8315C4.54291 17.3274 4.79579 18.4884 5.09418 19.3828C5.39536 20.2856 5.76057 20.975 6.34678 21.4961L6.67899 21.1225L7.0112 20.7488C6.61033 20.3924 6.31746 19.8897 6.04279 19.0664C5.76534 18.2347 5.5246 17.1357 5.19317 15.6182L4.70468 15.7248ZM19.2953 15.7248L18.8068 15.6181C18.4754 17.1357 18.2347 18.2347 17.9572 19.0664C17.6825 19.8897 17.3897 20.3924 16.9888 20.7488L17.321 21.1225L17.6532 21.4961C18.2394 20.975 18.6046 20.2856 18.9058 19.3828C19.2042 18.4884 19.4571 17.3274 19.7838 15.8315L19.2953 15.7248ZM12.2369 22V22.5C13.5888 22.5 14.6528 22.5011 15.5005 22.3857C16.3665 22.2679 17.0609 22.0227 17.6532 21.4961L17.321 21.1225L16.9888 20.7488C16.5941 21.0997 16.1121 21.2933 15.3656 21.3949C14.6008 21.4989 13.6164 21.5 12.2369 21.5V22ZM4.72727 7.16702L5.10268 7.49727L9.64814 2.33025L9.27273 2L8.89732 1.66975L4.35186 6.83677L4.72727 7.16702ZM19.2727 7.16702L19.6481 6.83677L15.1027 1.66975L14.7273 2L14.3519 2.33025L18.8973 7.49727L19.2727 7.16702ZM9.27273 14.2495H8.77273V17.3497H9.27273H9.77273V14.2495H9.27273ZM14.7273 14.2495H14.2273V17.3497H14.7273H15.2273V14.2495H14.7273Z" fill="#424242"/>
</svg>
