<svg width="24" height="24" viewBox="0 0 24 24" fill="none" xmlns="http://www.w3.org/2000/svg">
<path d="M2 16.5C1.72386 16.5 1.5 16.7239 1.5 17C1.5 17.2761 1.72386 17.5 2 17.5V16.5ZM10.7478 14.087L10.3191 13.8297V13.8297L10.7478 14.087ZM13.2522 9.91303L13.6809 10.1703V10.1703L13.2522 9.91303ZM22 7L22.3536 7.35355C22.5488 7.15829 22.5488 6.84171 22.3536 6.64645L22 7ZM19.6464 8.64645C19.4512 8.84171 19.4512 9.15829 19.6464 9.35355C19.8417 9.54882 20.1583 9.54882 20.3536 9.35355L19.6464 8.64645ZM20.3536 4.64645C20.1583 4.45118 19.8417 4.45118 19.6464 4.64645C19.4512 4.84171 19.4512 5.15829 19.6464 5.35355L20.3536 4.64645ZM15.2205 7.3894L14.9741 6.9543V6.9543L15.2205 7.3894ZM2 6.5C1.72386 6.5 1.5 6.72386 1.5 7C1.5 7.27614 1.72386 7.5 2 7.5V6.5ZM22 17L22.3536 17.3536C22.5488 17.1583 22.5488 16.8417 22.3536 16.6464L22 17ZM20.3536 14.6464C20.1583 14.4512 19.8417 14.4512 19.6464 14.6464C19.4512 14.8417 19.4512 15.1583 19.6464 15.3536L20.3536 14.6464ZM19.6464 18.6464C19.4512 18.8417 19.4512 19.1583 19.6464 19.3536C19.8417 19.5488 20.1583 19.5488 20.3536 19.3536L19.6464 18.6464ZM16.1254 16.9447L16.2209 16.4539V16.4539L16.1254 16.9447ZM14.2287 14.7428C14.0867 14.506 13.7795 14.4292 13.5428 14.5713C13.306 14.7133 13.2292 15.0205 13.3713 15.2572L14.2287 14.7428ZM14.4684 16.0065L14.8401 15.6721V15.6721L14.4684 16.0065ZM7.8746 7.05526L7.97013 6.56447V6.56447L7.8746 7.05526ZM9.77125 9.25725C9.91333 9.49404 10.2205 9.57082 10.4572 9.42875C10.694 9.28667 10.7708 8.97954 10.6287 8.74275L9.77125 9.25725ZM9.53163 7.99345L9.15993 8.32788V8.32788L9.53163 7.99345ZM2 17.5H5.60286V16.5H2V17.5ZM11.1766 14.3442L13.6809 10.1703L12.8234 9.65578L10.3191 13.8297L11.1766 14.3442ZM18.3971 7.5H22V6.5H18.3971V7.5ZM21.6464 6.64645L19.6464 8.64645L20.3536 9.35355L22.3536 7.35355L21.6464 6.64645ZM22.3536 6.64645L20.3536 4.64645L19.6464 5.35355L21.6464 7.35355L22.3536 6.64645ZM13.6809 10.1703C14.1127 9.45066 14.4188 8.94158 14.7004 8.5612C14.9756 8.18953 15.205 7.97275 15.4668 7.8245L14.9741 6.9543C14.5482 7.19545 14.2203 7.52908 13.8967 7.96616C13.5795 8.39454 13.2454 8.95258 12.8234 9.65578L13.6809 10.1703ZM18.3971 6.5C17.5771 6.5 16.9266 6.49946 16.3961 6.55102C15.8548 6.60363 15.4 6.71315 14.9741 6.9543L15.4668 7.8245C15.7287 7.67625 16.0326 7.59107 16.4929 7.54633C16.9639 7.50054 17.5579 7.5 18.3971 7.5V6.5ZM5.60286 17.5C6.42292 17.5 7.07337 17.5005 7.60388 17.449C8.14517 17.3964 8.59995 17.2869 9.02587 17.0457L8.53318 16.1755C8.27134 16.3237 7.96743 16.4089 7.50714 16.4537C7.03607 16.4995 6.44207 16.5 5.60286 16.5V17.5ZM10.3191 13.8297C9.8873 14.5493 9.58122 15.0584 9.2996 15.4388C9.02442 15.8105 8.79501 16.0273 8.53318 16.1755L9.02587 17.0457C9.4518 16.8045 9.77969 16.4709 10.1033 16.0338C10.4205 15.6055 10.7546 15.0474 11.1766 14.3442L10.3191 13.8297ZM2 7.5H6.66762V6.5H2V7.5ZM17.3324 17.5H22V16.5H17.3324V17.5ZM22.3536 16.6464L20.3536 14.6464L19.6464 15.3536L21.6464 17.3536L22.3536 16.6464ZM21.6464 16.6464L19.6464 18.6464L20.3536 19.3536L22.3536 17.3536L21.6464 16.6464ZM17.3324 16.5C16.6968 16.5 16.4463 16.4978 16.2209 16.4539L16.0299 17.4355C16.3723 17.5022 16.7372 17.5 17.3324 17.5V16.5ZM13.3713 15.2572C13.6775 15.7676 13.8633 16.0816 14.0967 16.341L14.8401 15.6721C14.6865 15.5014 14.5557 15.2878 14.2287 14.7428L13.3713 15.2572ZM16.2209 16.4539C15.688 16.3502 15.2032 16.0758 14.8401 15.6721L14.0967 16.341C14.6051 16.9061 15.2837 17.2903 16.0299 17.4355L16.2209 16.4539ZM6.66762 7.5C7.30321 7.5 7.55369 7.50218 7.77907 7.54605L7.97013 6.56447C7.62767 6.49782 7.26277 6.5 6.66762 6.5V7.5ZM10.6287 8.74275C10.3225 8.23241 10.1367 7.91839 9.90332 7.65903L9.15993 8.32788C9.3135 8.49857 9.44424 8.71223 9.77125 9.25725L10.6287 8.74275ZM7.77907 7.54605C8.31205 7.64979 8.79676 7.92423 9.15993 8.32788L9.90332 7.65903C9.39489 7.09392 8.71629 6.70971 7.97013 6.56447L7.77907 7.54605Z" fill="#424242"/>
</svg>
