<svg width="24" height="24" viewBox="0 0 24 24" fill="none" xmlns="http://www.w3.org/2000/svg">
<path d="M4.17157 19.8284L4.52513 19.4749H4.52513L4.17157 19.8284ZM19.8284 19.8284L19.4749 19.4749V19.4749L19.8284 19.8284ZM14 3.00093L14.0015 2.50093L14 3.00093ZM19.8284 4.17157L20.182 3.81802V3.81802L19.8284 4.17157ZM20.4914 9.00723C20.4954 9.28335 20.7224 9.50394 20.9985 9.49995C21.2747 9.49595 21.4953 9.26888 21.4913 8.99277L20.4914 9.00723ZM21.4913 15.0072C21.4953 14.7311 21.2747 14.504 20.9985 14.5C20.7224 14.496 20.4954 14.7166 20.4914 14.9927L21.4913 15.0072ZM23.3536 10.3536C23.5488 10.1583 23.5488 9.84172 23.3536 9.64646C23.1583 9.4512 22.8417 9.4512 22.6464 9.64646L23.3536 10.3536ZM18.6465 13.6464C18.4512 13.8417 18.4512 14.1583 18.6465 14.3536C18.8417 14.5488 19.1583 14.5488 19.3536 14.3536L18.6465 13.6464ZM19.3536 9.64645C19.1583 9.45118 18.8417 9.45118 18.6464 9.64645C18.4512 9.84171 18.4512 10.1583 18.6464 10.3536L19.3536 9.64645ZM22.6464 14.3535C22.8417 14.5488 23.1583 14.5488 23.3535 14.3535C23.5488 14.1583 23.5488 13.8417 23.3535 13.6464L22.6464 14.3535ZM11 3.5H13V2.5H11V3.5ZM13 20.5H11V21.5H13V20.5ZM3.5 13V11H2.5V13H3.5ZM11 20.5C9.10025 20.5 7.72573 20.4989 6.67754 20.358C5.64373 20.219 5.00253 19.9523 4.52513 19.4749L3.81802 20.182C4.51219 20.8762 5.39959 21.1952 6.54429 21.3491C7.67461 21.5011 9.12852 21.5 11 21.5V20.5ZM2.5 13C2.5 14.8715 2.49894 16.3254 2.65091 17.4557C2.80481 18.6004 3.12385 19.4878 3.81802 20.182L4.52513 19.4749C4.04772 18.9975 3.78098 18.3563 3.64199 17.3225C3.50106 16.2743 3.5 14.8998 3.5 13H2.5ZM13 21.5C13.349 21.5 13.6828 21.5 14.0015 21.4991L13.9985 20.4991C13.6816 20.5 13.3493 20.5 13 20.5V21.5ZM14.0015 21.4991C15.5519 21.4945 16.7846 21.4686 17.7671 21.3019C18.764 21.1328 19.5527 20.8112 20.182 20.182L19.4749 19.4749C19.041 19.9087 18.4727 20.1679 17.5998 20.316C16.7123 20.4666 15.5624 20.4945 13.9985 20.4991L14.0015 21.4991ZM13 3.5C13.3493 3.5 13.6816 3.5 13.9985 3.50093L14.0015 2.50093C13.6828 2.5 13.349 2.5 13 2.5V3.5ZM13.9985 3.50093C15.5624 3.5055 16.7123 3.53339 17.5998 3.68396C18.4727 3.83207 19.041 4.09127 19.4749 4.52513L20.182 3.81802C19.5527 3.18878 18.764 2.86722 17.7671 2.69805C16.7846 2.53136 15.5519 2.50547 14.0015 2.50093L13.9985 3.50093ZM11 2.5C9.12852 2.5 7.67461 2.49894 6.54429 2.65091C5.39959 2.80481 4.51219 3.12385 3.81802 3.81802L4.52513 4.52513C5.00253 4.04772 5.64373 3.78098 6.67754 3.64199C7.72573 3.50106 9.10025 3.5 11 3.5V2.5ZM3.5 11C3.5 9.10025 3.50106 7.72573 3.64199 6.67754C3.78098 5.64373 4.04772 5.00253 4.52513 4.52513L3.81802 3.81802C3.12385 4.51219 2.80481 5.39959 2.65091 6.54429C2.49894 7.6746 2.5 9.12852 2.5 11H3.5ZM14.5 20.9991L14.5 3.00093L13.5 3.00093L13.5 20.9991H14.5ZM21.4913 8.99277C21.4559 6.54793 21.2898 4.92587 20.182 3.81802L19.4749 4.52513C20.2532 5.30345 20.455 6.49293 20.4914 9.00723L21.4913 8.99277ZM20.4914 14.9927C20.455 17.507 20.2532 18.6965 19.4749 19.4749L20.182 20.182C21.2898 19.0741 21.4559 17.452 21.4913 15.0072L20.4914 14.9927ZM22.6464 9.64646L20.6465 11.6465L21.3536 12.3536L23.3536 10.3536L22.6464 9.64646ZM20.6465 11.6465L18.6465 13.6464L19.3536 14.3536L21.3536 12.3536L20.6465 11.6465ZM18.6464 10.3536L20.6465 12.3536L21.3536 11.6465L19.3536 9.64645L18.6464 10.3536ZM20.6465 12.3536L22.6464 14.3535L23.3535 13.6464L21.3536 11.6465L20.6465 12.3536Z" fill="#424242"/>
</svg>
