<svg width="24" height="24" viewBox="0 0 24 24" fill="none" xmlns="http://www.w3.org/2000/svg">
<path d="M19.5 22C19.5 22.2761 19.7239 22.5 20 22.5C20.2761 22.5 20.5 22.2761 20.5 22H19.5ZM3.5 22C3.5 22.2761 3.72386 22.5 4 22.5C4.27614 22.5 4.5 22.2761 4.5 22H3.5ZM14.4781 11.0365C14.2222 10.9329 13.9307 11.0564 13.8271 11.3124C13.7234 11.5684 13.847 11.8599 14.1029 11.9635L14.4781 11.0365ZM16.0363 13.8968C16.1399 14.1528 16.4314 14.2763 16.6874 14.1727C16.9433 14.0691 17.0669 13.7776 16.9632 13.5216L16.0363 13.8968ZM2 21.5C1.72386 21.5 1.5 21.7239 1.5 22C1.5 22.2761 1.72386 22.5 2 22.5V21.5ZM22 22.5C22.2761 22.5 22.5 22.2761 22.5 22C22.5 21.7239 22.2761 21.5 22 21.5V22.5ZM12.5 2C12.5 1.72386 12.2761 1.5 12 1.5C11.7239 1.5 11.5 1.72386 11.5 2H12.5ZM11.5 5C11.5 5.27614 11.7239 5.5 12 5.5C12.2761 5.5 12.5 5.27614 12.5 5H11.5ZM21.3536 6.35355C21.5488 6.15829 21.5488 5.84171 21.3536 5.64645C21.1583 5.45118 20.8417 5.45118 20.6464 5.64645L21.3536 6.35355ZM19.1464 7.14645C18.9512 7.34171 18.9512 7.65829 19.1464 7.85355C19.3417 8.04882 19.6583 8.04882 19.8536 7.85355L19.1464 7.14645ZM3.35355 5.64645C3.15829 5.45118 2.84171 5.45118 2.64645 5.64645C2.45118 5.84171 2.45118 6.15829 2.64645 6.35355L3.35355 5.64645ZM4.14645 7.85355C4.34171 8.04882 4.65829 8.04882 4.85355 7.85355C5.04882 7.65829 5.04882 7.34171 4.85355 7.14645L4.14645 7.85355ZM11.5 22C11.5 22.2761 11.7239 22.5 12 22.5C12.2761 22.5 12.5 22.2761 12.5 22H11.5ZM19.5 16V22H20.5V16H19.5ZM4.5 22V16H3.5V22H4.5ZM12 8.5C16.1421 8.5 19.5 11.8579 19.5 16H20.5C20.5 11.3056 16.6944 7.5 12 7.5V8.5ZM12 7.5C7.30558 7.5 3.5 11.3056 3.5 16H4.5C4.5 11.8579 7.85786 8.5 12 8.5V7.5ZM14.1029 11.9635C14.9801 12.3185 15.6812 13.0197 16.0363 13.8968L16.9632 13.5216C16.5065 12.3934 15.6063 11.4932 14.4781 11.0365L14.1029 11.9635ZM2 22.5H22V21.5H2V22.5ZM11.5 2V5H12.5V2H11.5ZM20.6464 5.64645L19.1464 7.14645L19.8536 7.85355L21.3536 6.35355L20.6464 5.64645ZM2.64645 6.35355L4.14645 7.85355L4.85355 7.14645L3.35355 5.64645L2.64645 6.35355ZM13 17.5C13 18.0523 12.5523 18.5 12 18.5V19.5C13.1046 19.5 14 18.6046 14 17.5H13ZM12 18.5C11.4477 18.5 11 18.0523 11 17.5H10C10 18.6046 10.8954 19.5 12 19.5V18.5ZM11 17.5C11 16.9477 11.4477 16.5 12 16.5V15.5C10.8954 15.5 10 16.3954 10 17.5H11ZM12 16.5C12.5523 16.5 13 16.9477 13 17.5H14C14 16.3954 13.1046 15.5 12 15.5V16.5ZM11.5 19V22H12.5V19H11.5Z" fill="#424242"/>
</svg>
