<svg width="24" height="24" viewBox="0 0 24 24" fill="none" xmlns="http://www.w3.org/2000/svg">
<path d="M6.87176 10.6656C6.6871 10.4603 6.37096 10.4436 6.16564 10.6282C5.96032 10.8129 5.94358 11.129 6.12824 11.3344L6.87176 10.6656ZM10.8718 11.3344C11.0564 11.129 11.0397 10.8129 10.8344 10.6282C10.629 10.4436 10.3129 10.4603 10.1282 10.6656L10.8718 11.3344ZM13.8718 10.6656C13.6871 10.4603 13.371 10.4436 13.1656 10.6282C12.9603 10.8129 12.9436 11.129 13.1282 11.3344L13.8718 10.6656ZM17.8718 11.3344C18.0564 11.129 18.0397 10.8129 17.8344 10.6282C17.629 10.4436 17.3129 10.4603 17.1282 10.6656L17.8718 11.3344ZM22.5 12C22.5 11.7239 22.2761 11.5 22 11.5C21.7239 11.5 21.5 11.7239 21.5 12H22.5ZM12 2.5C12.2761 2.5 12.5 2.27614 12.5 2C12.5 1.72386 12.2761 1.5 12 1.5V2.5ZM16.75 3.56699C16.5109 3.70506 16.4289 4.01085 16.567 4.25C16.7051 4.48915 17.0109 4.57108 17.25 4.43301L16.75 3.56699ZM20.4641 2L20.9471 2.12941C20.9994 1.93407 20.9289 1.72643 20.7685 1.60332C20.608 1.48021 20.3892 1.46587 20.2141 1.56699L20.4641 2ZM19 7.4641L18.517 7.33469C18.4647 7.53003 18.5352 7.73767 18.6956 7.86078C18.8561 7.98389 19.0749 7.99823 19.25 7.89711L19 7.4641ZM22.7141 5.89711C22.9532 5.75904 23.0352 5.45325 22.8971 5.2141C22.759 4.97496 22.4532 4.89302 22.2141 5.03109L22.7141 5.89711ZM14.298 5.06684C14.0589 4.92876 13.7531 5.0107 13.615 5.24985C13.477 5.48899 13.5589 5.79479 13.798 5.93286L14.298 5.06684ZM15.7801 6.49985L15.9095 6.98281C16.1048 6.93047 16.2494 6.76561 16.2758 6.56511C16.3022 6.36461 16.2052 6.16795 16.0301 6.06684L15.7801 6.49985ZM13.048 7.2319L12.9186 6.74894C12.7233 6.80128 12.5787 6.96614 12.5523 7.16664C12.5259 7.36714 12.6229 7.5638 12.798 7.66491L13.048 7.2319ZM14.5301 8.66491C14.7692 8.80298 15.075 8.72105 15.2131 8.4819C15.3512 8.24275 15.2692 7.93696 15.0301 7.79889L14.5301 8.66491ZM8.5 11.5C7.93382 11.5 7.37063 11.2203 6.87176 10.6656L6.12824 11.3344C6.7632 12.0403 7.57893 12.5 8.5 12.5V11.5ZM10.1282 10.6656C9.62937 11.2203 9.06618 11.5 8.5 11.5V12.5C9.42107 12.5 10.2368 12.0403 10.8718 11.3344L10.1282 10.6656ZM15.5 11.5C14.9338 11.5 14.3706 11.2203 13.8718 10.6656L13.1282 11.3344C13.7632 12.0403 14.5789 12.5 15.5 12.5V11.5ZM17.1282 10.6656C16.6294 11.2203 16.0662 11.5 15.5 11.5V12.5C16.4211 12.5 17.2368 12.0403 17.8718 11.3344L17.1282 10.6656ZM12.5 16C12.5 16.2761 12.2761 16.5 12 16.5V17.5C12.8284 17.5 13.5 16.8284 13.5 16H12.5ZM12 16.5C11.7239 16.5 11.5 16.2761 11.5 16H10.5C10.5 16.8284 11.1716 17.5 12 17.5V16.5ZM11.5 16C11.5 15.7239 11.7239 15.5 12 15.5V14.5C11.1716 14.5 10.5 15.1716 10.5 16H11.5ZM12 15.5C12.2761 15.5 12.5 15.7239 12.5 16H13.5C13.5 15.1716 12.8284 14.5 12 14.5V15.5ZM12 21.5C9.62884 21.5 7.90077 21.4989 6.58026 21.3214C5.27414 21.1458 4.44187 20.8058 3.81802 20.182L3.11091 20.8891C3.95153 21.7297 5.03 22.122 6.44702 22.3125C7.84965 22.5011 9.65711 22.5 12 22.5V21.5ZM1.5 12C1.5 14.3429 1.49894 16.1504 1.68752 17.553C1.87803 18.97 2.2703 20.0485 3.11091 20.8891L3.81802 20.182C3.19417 19.5581 2.8542 18.7259 2.6786 17.4197C2.50106 16.0992 2.5 14.3712 2.5 12H1.5ZM21.5 12C21.5 14.3712 21.4989 16.0992 21.3214 17.4197C21.1458 18.7259 20.8058 19.5581 20.182 20.182L20.8891 20.8891C21.7297 20.0485 22.122 18.97 22.3125 17.553C22.5011 16.1504 22.5 14.3429 22.5 12H21.5ZM12 22.5C14.3429 22.5 16.1504 22.5011 17.553 22.3125C18.97 22.122 20.0485 21.7297 20.8891 20.8891L20.182 20.182C19.5581 20.8058 18.7259 21.1458 17.4197 21.3214C16.0992 21.4989 14.3712 21.5 12 21.5V22.5ZM12 1.5C9.65711 1.5 7.84965 1.49894 6.44702 1.68752C5.03 1.87803 3.95153 2.2703 3.11091 3.11091L3.81802 3.81802C4.44187 3.19417 5.27414 2.8542 6.58026 2.6786C7.90077 2.50106 9.62884 2.5 12 2.5V1.5ZM2.5 12C2.5 9.62884 2.50106 7.90077 2.6786 6.58026C2.8542 5.27414 3.19417 4.44187 3.81802 3.81802L3.11091 3.11091C2.2703 3.95153 1.87803 5.03 1.68752 6.44702C1.49894 7.84965 1.5 9.65711 1.5 12H2.5ZM17.25 4.43301L20.7141 2.43301L20.2141 1.56699L16.75 3.56699L17.25 4.43301ZM19.9811 1.87059L18.517 7.33469L19.483 7.59351L20.9471 2.12941L19.9811 1.87059ZM19.25 7.89711L22.7141 5.89711L22.2141 5.03109L18.75 7.03109L19.25 7.89711ZM13.798 5.93286L15.5301 6.93286L16.0301 6.06684L14.298 5.06684L13.798 5.93286ZM15.6507 6.01689L12.9186 6.74894L13.1774 7.71486L15.9095 6.98281L15.6507 6.01689ZM12.798 7.66491L14.5301 8.66491L15.0301 7.79889L13.298 6.79889L12.798 7.66491Z" fill="#424242"/>
</svg>
