<svg width="24" height="24" viewBox="0 0 24 24" fill="none" xmlns="http://www.w3.org/2000/svg">
<path d="M2.5 6C2.5 5.72386 2.27614 5.5 2 5.5C1.72386 5.5 1.5 5.72386 1.5 6H2.5ZM1.5 18C1.5 18.2761 1.72386 18.5 2 18.5C2.27614 18.5 2.5 18.2761 2.5 18H1.5ZM21.5 18C21.5 18.2761 21.7239 18.5 22 18.5C22.2761 18.5 22.5 18.2761 22.5 18H21.5ZM11.5 16C11.5 16.2761 11.7239 16.5 12 16.5C12.2761 16.5 12.5 16.2761 12.5 16H11.5ZM13.3394 8.61223L13.1743 8.14029V8.14029L13.3394 8.61223ZM12.1122 9.83944L11.6403 9.6743V9.6743L12.1122 9.83944ZM21.7194 11.8486L22.1914 11.6835V11.6835L21.7194 11.8486ZM18.6514 8.78058L18.4863 9.25253V9.25253L18.6514 8.78058ZM2 15.5C1.72386 15.5 1.5 15.7239 1.5 16C1.5 16.2761 1.72386 16.5 2 16.5V15.5ZM22 16.5C22.2761 16.5 22.5 16.2761 22.5 16C22.5 15.7239 22.2761 15.5 22 15.5V16.5ZM1.5 6V18H2.5V6H1.5ZM21.5 15.6429V18H22.5V15.6429H21.5ZM11.5 11.3571V16H12.5V11.3571H11.5ZM14.8571 8C14.101 8 13.5954 7.99293 13.1743 8.14029L13.5046 9.08418C13.7249 9.00707 14.0173 9 14.8571 9V8ZM12.5 11.3571C12.5 10.5173 12.5071 10.2249 12.5842 10.0046L11.6403 9.6743C11.4929 10.0954 11.5 10.601 11.5 11.3571H12.5ZM13.1743 8.14029C12.4562 8.39157 11.8916 8.95619 11.6403 9.6743L12.5842 10.0046C12.7349 9.57371 13.0737 9.23494 13.5046 9.08418L13.1743 8.14029ZM22.5 15.6429C22.5 13.6898 22.5071 12.5857 22.1914 11.6835L21.2475 12.0137C21.4929 12.7152 21.5 13.6061 21.5 15.6429H22.5ZM14.8571 9C16.8939 9 17.7848 9.00707 18.4863 9.25253L18.8165 8.30864C17.9143 7.99293 16.8102 8 14.8571 8V9ZM22.1914 11.6835C21.6385 10.1036 20.3964 8.86146 18.8165 8.30864L18.4863 9.25253C19.7789 9.70483 20.7952 10.7211 21.2475 12.0137L22.1914 11.6835ZM2 16.5H22V15.5H2V16.5ZM9 11C9 12.1046 8.10457 13 7 13V14C8.65685 14 10 12.6569 10 11H9ZM7 13C5.89543 13 5 12.1046 5 11H4C4 12.6569 5.34315 14 7 14V13ZM5 11C5 9.89543 5.89543 9 7 9V8C5.34315 8 4 9.34315 4 11H5ZM7 9C8.10457 9 9 9.89543 9 11H10C10 9.34315 8.65685 8 7 8V9Z" fill="#424242"/>
</svg>
