<svg width="24" height="24" viewBox="0 0 24 24" fill="none" xmlns="http://www.w3.org/2000/svg">
<path d="M22.5 12C22.5 11.7239 22.2761 11.5 22 11.5C21.7239 11.5 21.5 11.7239 21.5 12H22.5ZM12 2.5C12.2761 2.5 12.5 2.27614 12.5 2C12.5 1.72386 12.2761 1.5 12 1.5V2.5ZM6.87176 10.6656C6.6871 10.4603 6.37096 10.4436 6.16564 10.6282C5.96032 10.8129 5.94358 11.129 6.12824 11.3344L6.87176 10.6656ZM10.8718 11.3344C11.0564 11.129 11.0397 10.8129 10.8344 10.6282C10.629 10.4436 10.3129 10.4603 10.1282 10.6656L10.8718 11.3344ZM13.8718 10.6656C13.6871 10.4603 13.371 10.4436 13.1656 10.6282C12.9603 10.8129 12.9436 11.129 13.1282 11.3344L13.8718 10.6656ZM17.8718 11.3344C18.0564 11.129 18.0397 10.8129 17.8344 10.6282C17.629 10.4436 17.3129 10.4603 17.1282 10.6656L17.8718 11.3344ZM16.75 3.56699C16.5109 3.70506 16.4289 4.01085 16.567 4.25C16.7051 4.48915 17.0109 4.57108 17.25 4.43301L16.75 3.56699ZM20.4641 2L20.9471 2.12941C20.9994 1.93407 20.9289 1.72643 20.7685 1.60332C20.608 1.48021 20.3892 1.46587 20.2141 1.56699L20.4641 2ZM19 7.4641L18.517 7.33469C18.4647 7.53003 18.5352 7.73767 18.6956 7.86078C18.8561 7.98389 19.0749 7.99823 19.25 7.89711L19 7.4641ZM22.7141 5.89711C22.9532 5.75904 23.0352 5.45325 22.8971 5.2141C22.759 4.97496 22.4532 4.89302 22.2141 5.03109L22.7141 5.89711ZM14.2979 5.06699C14.0587 4.92892 13.7529 5.01085 13.6148 5.25C13.4768 5.48915 13.5587 5.79494 13.7979 5.93301L14.2979 5.06699ZM15.7799 6.5L15.9093 6.98296C16.1047 6.93062 16.2492 6.76576 16.2756 6.56526C16.302 6.36476 16.205 6.1681 16.0299 6.06699L15.7799 6.5ZM13.0479 7.23205L12.9184 6.74909C12.7231 6.80143 12.5785 6.96629 12.5521 7.16679C12.5257 7.36729 12.6227 7.56395 12.7979 7.66506L13.0479 7.23205ZM14.5299 8.66506C14.769 8.80313 15.0748 8.7212 15.2129 8.48205C15.351 8.2429 15.269 7.93711 15.0299 7.79904L14.5299 8.66506ZM21.5 12C21.5 17.2467 17.2467 21.5 12 21.5V22.5C17.799 22.5 22.5 17.799 22.5 12H21.5ZM12 21.5C6.75329 21.5 2.5 17.2467 2.5 12H1.5C1.5 17.799 6.20101 22.5 12 22.5V21.5ZM2.5 12C2.5 6.75329 6.75329 2.5 12 2.5V1.5C6.20101 1.5 1.5 6.20101 1.5 12H2.5ZM8.5 11.5C7.93382 11.5 7.37063 11.2203 6.87176 10.6656L6.12824 11.3344C6.7632 12.0403 7.57893 12.5 8.5 12.5V11.5ZM10.1282 10.6656C9.62937 11.2203 9.06618 11.5 8.5 11.5V12.5C9.42107 12.5 10.2368 12.0403 10.8718 11.3344L10.1282 10.6656ZM15.5 11.5C14.9338 11.5 14.3706 11.2203 13.8718 10.6656L13.1282 11.3344C13.7632 12.0403 14.5789 12.5 15.5 12.5V11.5ZM17.1282 10.6656C16.6294 11.2203 16.0662 11.5 15.5 11.5V12.5C16.4211 12.5 17.2368 12.0403 17.8718 11.3344L17.1282 10.6656ZM12.5 16C12.5 16.2761 12.2761 16.5 12 16.5V17.5C12.8284 17.5 13.5 16.8284 13.5 16H12.5ZM12 16.5C11.7239 16.5 11.5 16.2761 11.5 16H10.5C10.5 16.8284 11.1716 17.5 12 17.5V16.5ZM11.5 16C11.5 15.7239 11.7239 15.5 12 15.5V14.5C11.1716 14.5 10.5 15.1716 10.5 16H11.5ZM12 15.5C12.2761 15.5 12.5 15.7239 12.5 16H13.5C13.5 15.1716 12.8284 14.5 12 14.5V15.5ZM17.25 4.43301L20.7141 2.43301L20.2141 1.56699L16.75 3.56699L17.25 4.43301ZM19.9811 1.87059L18.517 7.33469L19.483 7.59351L20.9471 2.12941L19.9811 1.87059ZM19.25 7.89711L22.7141 5.89711L22.2141 5.03109L18.75 7.03109L19.25 7.89711ZM13.7979 5.93301L15.5299 6.93301L16.0299 6.06699L14.2979 5.06699L13.7979 5.93301ZM15.6505 6.01704L12.9184 6.74909L13.1773 7.71501L15.9093 6.98296L15.6505 6.01704ZM12.7979 7.66506L14.5299 8.66506L15.0299 7.79904L13.2979 6.79904L12.7979 7.66506Z" fill="#424242"/>
</svg>
