<svg width="24" height="24" viewBox="0 0 24 24" fill="none" xmlns="http://www.w3.org/2000/svg">
<path d="M17.8284 20.8284L17.4749 20.4749V20.4749L17.8284 20.8284ZM17.8284 3.17157L17.4749 3.52513V3.52513L17.8284 3.17157ZM14 19.5C14.2761 19.5 14.5 19.2761 14.5 19C14.5 18.7239 14.2761 18.5 14 18.5V19.5ZM8 18.5C7.72386 18.5 7.5 18.7239 7.5 19C7.5 19.2761 7.72386 19.5 8 19.5V18.5ZM18.4914 8.00723C18.4954 8.28335 18.7224 8.50394 18.9985 8.49995C19.2747 8.49595 19.4953 8.26888 19.4913 7.99277L18.4914 8.00723ZM19.4913 16.0073C19.4953 15.7311 19.2747 15.5041 18.9985 15.5001C18.7224 15.4961 18.4954 15.7167 18.4914 15.9928L19.4913 16.0073ZM13.3767 12.6505C13.1951 12.4424 12.8792 12.421 12.6712 12.6026C12.4631 12.7842 12.4417 13.1001 12.6233 13.3081L13.3767 12.6505ZM14.734 14.9655L14.3573 15.2943C14.4523 15.4031 14.5896 15.4655 14.734 15.4655C14.8784 15.4655 15.0157 15.4031 15.1106 15.2943L14.734 14.9655ZM19.4456 10.3288C19.6272 10.1208 19.6058 9.80495 19.3978 9.62334C19.1897 9.44173 18.8739 9.46315 18.6923 9.67117L19.4456 10.3288ZM17.0985 15L16.7007 15.3029C16.7894 15.4194 16.9247 15.4912 17.0709 15.4992C17.2171 15.5073 17.3595 15.4509 17.4605 15.3448L17.0985 15ZM22.1897 10.3793C22.3802 10.1794 22.3724 9.86289 22.1725 9.67244C21.9725 9.482 21.656 9.48971 21.4656 9.68968L22.1897 10.3793ZM17.26 14.3867C17.0927 14.167 16.7789 14.1246 16.5592 14.2919C16.3395 14.4591 16.2971 14.7729 16.4644 14.9926L17.26 14.3867ZM3.5 14V10H2.5V14H3.5ZM11 21.5C9.10025 21.5 7.72573 21.4989 6.67754 21.358C5.64373 21.219 5.00253 20.9523 4.52513 20.4749L3.81802 21.182C4.51219 21.8762 5.39959 22.1952 6.54429 22.3491C7.67461 22.5011 9.12852 22.5 11 22.5V21.5ZM2.5 14C2.5 15.8715 2.49894 17.3254 2.65091 18.4557C2.80481 19.6004 3.12385 20.4878 3.81802 21.182L4.52513 20.4749C4.04772 19.9975 3.78098 19.3563 3.64199 18.3225C3.50106 17.2743 3.5 15.8998 3.5 14H2.5ZM11 22.5C12.8715 22.5 14.3254 22.5011 15.4557 22.3491C16.6004 22.1952 17.4878 21.8762 18.182 21.182L17.4749 20.4749C16.9975 20.9523 16.3563 21.219 15.3225 21.358C14.2743 21.4989 12.8998 21.5 11 21.5V22.5ZM11 2.5C12.8998 2.5 14.2743 2.50106 15.3225 2.64199C16.3563 2.78098 16.9975 3.04772 17.4749 3.52513L18.182 2.81802C17.4878 2.12385 16.6004 1.80481 15.4557 1.65091C14.3254 1.49894 12.8715 1.5 11 1.5V2.5ZM11 1.5C9.12852 1.5 7.67461 1.49894 6.54429 1.65091C5.39959 1.80481 4.51219 2.12385 3.81802 2.81802L4.52513 3.52513C5.00253 3.04772 5.64373 2.78098 6.67754 2.64199C7.72573 2.50106 9.10025 2.5 11 2.5V1.5ZM3.5 10C3.5 8.10025 3.50106 6.72573 3.64199 5.67754C3.78098 4.64373 4.04772 4.00253 4.52513 3.52513L3.81802 2.81802C3.12385 3.51219 2.80481 4.39959 2.65091 5.54429C2.49894 6.6746 2.5 8.12852 2.5 10H3.5ZM14 18.5H8V19.5H14V18.5ZM19.4913 7.99277C19.4559 5.54793 19.2898 3.92587 18.182 2.81802L17.4749 3.52513C18.2532 4.30345 18.455 5.49293 18.4914 8.00723L19.4913 7.99277ZM18.4914 15.9928C18.455 18.5071 18.2532 19.6966 17.4749 20.4749L18.182 21.182C19.2898 20.0741 19.4559 18.4521 19.4913 16.0073L18.4914 15.9928ZM12.6233 13.3081L14.3573 15.2943L15.1106 14.6367L13.3767 12.6505L12.6233 13.3081ZM15.1106 15.2943L19.4456 10.3288L18.6923 9.67117L14.3573 14.6367L15.1106 15.2943ZM17.4605 15.3448L22.1897 10.3793L21.4656 9.68968L16.7364 14.6552L17.4605 15.3448ZM16.4644 14.9926L16.7007 15.3029L17.4963 14.6971L17.26 14.3867L16.4644 14.9926Z" fill="#424242"/>
</svg>
