<svg width="24" height="24" viewBox="0 0 24 24" fill="none" xmlns="http://www.w3.org/2000/svg">
<path d="M17.8284 20.8284L17.4749 20.4749V20.4749L17.8284 20.8284ZM17.8284 3.17157L17.4749 3.52513V3.52513L17.8284 3.17157ZM14 19.5C14.2761 19.5 14.5 19.2761 14.5 19C14.5 18.7239 14.2761 18.5 14 18.5V19.5ZM8 18.5C7.72386 18.5 7.5 18.7239 7.5 19C7.5 19.2761 7.72386 19.5 8 19.5V18.5ZM18.4914 8.00723C18.4954 8.28335 18.7224 8.50394 18.9985 8.49995C19.2747 8.49595 19.4953 8.26888 19.4913 7.99277L18.4914 8.00723ZM19.4913 16.0073C19.4953 15.7311 19.2747 15.5041 18.9985 15.5001C18.7224 15.4961 18.4954 15.7167 18.4914 15.9928L19.4913 16.0073ZM22.3536 9.35358C22.5488 9.15832 22.5488 8.84173 22.3536 8.64647C22.1583 8.45121 21.8417 8.45121 21.6464 8.64647L22.3536 9.35358ZM15.6465 14.6464C15.4512 14.8417 15.4512 15.1583 15.6465 15.3536C15.8417 15.5488 16.1583 15.5488 16.3536 15.3536L15.6465 14.6464ZM16.3536 8.64645C16.1583 8.45118 15.8417 8.45118 15.6464 8.64645C15.4512 8.84171 15.4512 9.15829 15.6464 9.35355L16.3536 8.64645ZM21.6464 15.3535C21.8417 15.5488 22.1583 15.5488 22.3535 15.3535C22.5488 15.1583 22.5488 14.8417 22.3535 14.6464L21.6464 15.3535ZM3.5 14V10H2.5V14H3.5ZM11 21.5C9.10025 21.5 7.72573 21.4989 6.67754 21.358C5.64373 21.219 5.00253 20.9523 4.52513 20.4749L3.81802 21.182C4.51219 21.8762 5.39959 22.1952 6.54429 22.3491C7.67461 22.5011 9.12852 22.5 11 22.5V21.5ZM2.5 14C2.5 15.8715 2.49894 17.3254 2.65091 18.4557C2.80481 19.6004 3.12385 20.4878 3.81802 21.182L4.52513 20.4749C4.04772 19.9975 3.78098 19.3563 3.64199 18.3225C3.50106 17.2743 3.5 15.8998 3.5 14H2.5ZM11 22.5C12.8715 22.5 14.3254 22.5011 15.4557 22.3491C16.6004 22.1952 17.4878 21.8762 18.182 21.182L17.4749 20.4749C16.9975 20.9523 16.3563 21.219 15.3225 21.358C14.2743 21.4989 12.8998 21.5 11 21.5V22.5ZM11 2.5C12.8998 2.5 14.2743 2.50106 15.3225 2.64199C16.3563 2.78098 16.9975 3.04772 17.4749 3.52513L18.182 2.81802C17.4878 2.12385 16.6004 1.80481 15.4557 1.65091C14.3254 1.49894 12.8715 1.5 11 1.5V2.5ZM11 1.5C9.12852 1.5 7.67461 1.49894 6.54429 1.65091C5.39959 1.80481 4.51219 2.12385 3.81802 2.81802L4.52513 3.52513C5.00253 3.04772 5.64373 2.78098 6.67754 2.64199C7.72573 2.50106 9.10025 2.5 11 2.5V1.5ZM3.5 10C3.5 8.10025 3.50106 6.72573 3.64199 5.67754C3.78098 4.64373 4.04772 4.00253 4.52513 3.52513L3.81802 2.81802C3.12385 3.51219 2.80481 4.39959 2.65091 5.54429C2.49894 6.6746 2.5 8.12852 2.5 10H3.5ZM14 18.5H8V19.5H14V18.5ZM19.4913 7.99277C19.4559 5.54793 19.2898 3.92587 18.182 2.81802L17.4749 3.52513C18.2532 4.30345 18.455 5.49293 18.4914 8.00723L19.4913 7.99277ZM18.4914 15.9928C18.455 18.5071 18.2532 19.6966 17.4749 20.4749L18.182 21.182C19.2898 20.0741 19.4559 18.4521 19.4913 16.0073L18.4914 15.9928ZM21.6464 8.64647L18.6465 11.6465L19.3536 12.3536L22.3536 9.35358L21.6464 8.64647ZM18.6465 11.6465L15.6465 14.6464L16.3536 15.3536L19.3536 12.3536L18.6465 11.6465ZM15.6464 9.35355L18.6465 12.3536L19.3536 11.6465L16.3536 8.64645L15.6464 9.35355ZM18.6465 12.3536L21.6464 15.3535L22.3535 14.6464L19.3536 11.6465L18.6465 12.3536Z" fill="#424242"/>
</svg>
