<svg width="24" height="24" viewBox="0 0 24 24" fill="none" xmlns="http://www.w3.org/2000/svg">
<path d="M9.29774 15.5983C9.0759 15.4339 8.76275 15.4804 8.59832 15.7023C8.43388 15.9241 8.48041 16.2372 8.70226 16.4017L9.29774 15.5983ZM12 16.5C10.9976 16.5 10.0668 16.1683 9.29774 15.5983L8.70226 16.4017C9.63399 17.0923 10.7715 17.5 12 17.5V16.5ZM14.7023 15.5983C13.9332 16.1683 13.0024 16.5 12 16.5V17.5C13.2285 17.5 14.366 17.0923 15.2977 16.4017L14.7023 15.5983ZM15.5 10.5C15.5 10.8293 15.4101 11.1048 15.2911 11.2833C15.1697 11.4654 15.057 11.5 15 11.5V12.5C15.4953 12.5 15.8826 12.1988 16.1231 11.838C16.366 11.4737 16.5 10.9992 16.5 10.5H15.5ZM15 11.5C14.943 11.5 14.8303 11.4654 14.7089 11.2833C14.5899 11.1048 14.5 10.8293 14.5 10.5H13.5C13.5 10.9992 13.634 11.4737 13.8769 11.838C14.1174 12.1988 14.5047 12.5 15 12.5V11.5ZM14.5 10.5C14.5 10.1707 14.5899 9.89525 14.7089 9.71669C14.8303 9.53464 14.943 9.5 15 9.5V8.5C14.5047 8.5 14.1174 8.80115 13.8769 9.16199C13.634 9.52632 13.5 10.0008 13.5 10.5H14.5ZM15 9.5C15.057 9.5 15.1697 9.53464 15.2911 9.71669C15.4101 9.89525 15.5 10.1707 15.5 10.5H16.5C16.5 10.0008 16.366 9.52632 16.1231 9.16199C15.8826 8.80115 15.4953 8.5 15 8.5V9.5ZM9.5 10.5C9.5 10.8293 9.41012 11.1048 9.29108 11.2833C9.16971 11.4654 9.05695 11.5 9 11.5V12.5C9.49533 12.5 9.88257 12.1988 10.1231 11.838C10.366 11.4737 10.5 10.9992 10.5 10.5H9.5ZM9 11.5C8.94305 11.5 8.83029 11.4654 8.70892 11.2833C8.58988 11.1048 8.5 10.8293 8.5 10.5H7.5C7.5 10.9992 7.63398 11.4737 7.87687 11.838C8.11743 12.1988 8.50467 12.5 9 12.5V11.5ZM8.5 10.5C8.5 10.1707 8.58988 9.89525 8.70892 9.71669C8.83029 9.53464 8.94305 9.5 9 9.5V8.5C8.50467 8.5 8.11743 8.80115 7.87687 9.16199C7.63398 9.52632 7.5 10.0008 7.5 10.5H8.5ZM9 9.5C9.05695 9.5 9.16971 9.53464 9.29108 9.71669C9.41012 9.89525 9.5 10.1707 9.5 10.5H10.5C10.5 10.0008 10.366 9.52632 10.1231 9.16199C9.88257 8.80115 9.49533 8.5 9 8.5V9.5ZM12 21.5C9.62884 21.5 7.90077 21.4989 6.58026 21.3214C5.27414 21.1458 4.44187 20.8058 3.81802 20.182L3.11091 20.8891C3.95153 21.7297 5.03 22.122 6.44702 22.3125C7.84965 22.5011 9.65711 22.5 12 22.5V21.5ZM1.5 12C1.5 14.3429 1.49894 16.1504 1.68752 17.553C1.87803 18.97 2.2703 20.0485 3.11091 20.8891L3.81802 20.182C3.19417 19.5581 2.8542 18.7259 2.6786 17.4197C2.50106 16.0992 2.5 14.3712 2.5 12H1.5ZM21.5 12C21.5 14.3712 21.4989 16.0992 21.3214 17.4197C21.1458 18.7259 20.8058 19.5581 20.182 20.182L20.8891 20.8891C21.7297 20.0485 22.122 18.97 22.3125 17.553C22.5011 16.1504 22.5 14.3429 22.5 12H21.5ZM12 22.5C14.3429 22.5 16.1504 22.5011 17.553 22.3125C18.97 22.122 20.0485 21.7297 20.8891 20.8891L20.182 20.182C19.5581 20.8058 18.7259 21.1458 17.4197 21.3214C16.0992 21.4989 14.3712 21.5 12 21.5V22.5ZM12 2.5C14.3712 2.5 16.0992 2.50106 17.4197 2.6786C18.7259 2.8542 19.5581 3.19417 20.182 3.81802L20.8891 3.11091C20.0485 2.2703 18.97 1.87803 17.553 1.68752C16.1504 1.49894 14.3429 1.5 12 1.5V2.5ZM22.5 12C22.5 9.65711 22.5011 7.84965 22.3125 6.44702C22.122 5.03 21.7297 3.95153 20.8891 3.11091L20.182 3.81802C20.8058 4.44187 21.1458 5.27414 21.3214 6.58026C21.4989 7.90077 21.5 9.62884 21.5 12H22.5ZM12 1.5C9.65711 1.5 7.84965 1.49894 6.44702 1.68752C5.03 1.87803 3.95153 2.2703 3.11091 3.11091L3.81802 3.81802C4.44187 3.19417 5.27414 2.8542 6.58026 2.6786C7.90077 2.50106 9.62884 2.5 12 2.5V1.5ZM2.5 12C2.5 9.62884 2.50106 7.90077 2.6786 6.58026C2.8542 5.27414 3.19417 4.44187 3.81802 3.81802L3.11091 3.11091C2.2703 3.95153 1.87803 5.03 1.68752 6.44702C1.49894 7.84965 1.5 9.65711 1.5 12H2.5Z" fill="#424242"/>
</svg>
