<svg width="24" height="24" viewBox="0 0 24 24" fill="none" xmlns="http://www.w3.org/2000/svg">
<path d="M10 7.5C10.2761 7.5 10.5 7.27614 10.5 7C10.5 6.72386 10.2761 6.5 10 6.5V7V7.5ZM2 6.5C1.72386 6.5 1.5 6.72386 1.5 7C1.5 7.27614 1.72386 7.5 2 7.5V7V6.5ZM8 12.5C8.27614 12.5 8.5 12.2761 8.5 12C8.5 11.7239 8.27614 11.5 8 11.5V12V12.5ZM2 11.5C1.72386 11.5 1.5 11.7239 1.5 12C1.5 12.2761 1.72386 12.5 2 12.5V12V11.5ZM10 17.5C10.2761 17.5 10.5 17.2761 10.5 17C10.5 16.7239 10.2761 16.5 10 16.5V17V17.5ZM2 16.5C1.72386 16.5 1.5 16.7239 1.5 17C1.5 17.2761 1.72386 17.5 2 17.5V17V16.5ZM17 11.8462H16.5C16.5 11.9664 16.5434 12.0827 16.6222 12.1736L17 11.8462ZM17.5 10C17.5 9.72386 17.2761 9.5 17 9.5C16.7239 9.5 16.5 9.72386 16.5 10H17H17.5ZM17.6222 13.3275C17.803 13.5361 18.1188 13.5587 18.3275 13.3778C18.5361 13.197 18.5587 12.8812 18.3778 12.6725L18 13L17.6222 13.3275ZM10 7V6.5H2V7V7.5H10V7ZM8 12V11.5H2V12V12.5H8V12ZM10 17V16.5H2V17V17.5H10V17ZM22 12H21.5C21.5 14.4853 19.4853 16.5 17 16.5V17V17.5C20.0376 17.5 22.5 15.0376 22.5 12H22ZM17 17V16.5C14.5147 16.5 12.5 14.4853 12.5 12H12H11.5C11.5 15.0376 13.9624 17.5 17 17.5V17ZM12 12H12.5C12.5 9.51472 14.5147 7.5 17 7.5V7V6.5C13.9624 6.5 11.5 8.96243 11.5 12H12ZM17 7V7.5C19.4853 7.5 21.5 9.51472 21.5 12H22H22.5C22.5 8.96243 20.0376 6.5 17 6.5V7ZM17 11.8462H17.5V10H17H16.5V11.8462H17ZM17 11.8462L16.6222 12.1736L17.6222 13.3275L18 13L18.3778 12.6725L17.3778 11.5187L17 11.8462Z" fill="#424242"/>
</svg>
