<svg width="24" height="24" viewBox="0 0 24 24" fill="none" xmlns="http://www.w3.org/2000/svg">
<path d="M4 7.5C3.72386 7.5 3.5 7.72386 3.5 8C3.5 8.27614 3.72386 8.5 4 8.5V7.5ZM13 8.5C13.2761 8.5 13.5 8.27614 13.5 8C13.5 7.72386 13.2761 7.5 13 7.5V8.5ZM6 12.5C5.72386 12.5 5.5 12.7239 5.5 13C5.5 13.2761 5.72386 13.5 6 13.5V12.5ZM13 13.5C13.2761 13.5 13.5 13.2761 13.5 13C13.5 12.7239 13.2761 12.5 13 12.5V13.5ZM8 17.5C7.72386 17.5 7.5 17.7239 7.5 18C7.5 18.2761 7.72386 18.5 8 18.5V17.5ZM13 18.5C13.2761 18.5 13.5 18.2761 13.5 18C13.5 17.7239 13.2761 17.5 13 17.5V18.5ZM16.5 20C16.5 20.2761 16.7239 20.5 17 20.5C17.2761 20.5 17.5 20.2761 17.5 20H16.5ZM17 4L17.4 3.7C17.2709 3.52783 17.0461 3.4576 16.8419 3.52566C16.6377 3.59372 16.5 3.78478 16.5 4H17ZM19.6 8.3C19.7657 8.52091 20.0791 8.56569 20.3 8.4C20.5209 8.23431 20.5657 7.92091 20.4 7.7L19.6 8.3ZM4 8V8.5H13V8V7.5H4V8ZM6 13V13.5H13V13V12.5H6V13ZM8 18V18.5H13V18V17.5H8V18ZM17 20H17.5V4H17H16.5V20H17ZM17 4L16.6 4.3L19.6 8.3L20 8L20.4 7.7L17.4 3.7L17 4Z" fill="#424242"/>
</svg>
