<svg width="24" height="24" viewBox="0 0 24 24" fill="none" xmlns="http://www.w3.org/2000/svg">
<path d="M13 7.5C13.2761 7.5 13.5 7.27614 13.5 7C13.5 6.72386 13.2761 6.5 13 6.5V7V7.5ZM3 6.5C2.72386 6.5 2.5 6.72386 2.5 7C2.5 7.27614 2.72386 7.5 3 7.5V7V6.5ZM10 12.5C10.2761 12.5 10.5 12.2761 10.5 12C10.5 11.7239 10.2761 11.5 10 11.5V12V12.5ZM3 11.5C2.72386 11.5 2.5 11.7239 2.5 12C2.5 12.2761 2.72386 12.5 3 12.5V12V11.5ZM8 17.5C8.27614 17.5 8.5 17.2761 8.5 17C8.5 16.7239 8.27614 16.5 8 16.5V17V17.5ZM3 16.5C2.72386 16.5 2.5 16.7239 2.5 17C2.5 17.2761 2.72386 17.5 3 17.5V17V16.5ZM11.544 16.7948C11.4307 17.0466 11.543 17.3426 11.7948 17.456C12.0466 17.5693 12.3426 17.457 12.456 17.2052L12 17L11.544 16.7948ZM16.5 7L16.956 6.79482C16.8752 6.61539 16.6968 6.5 16.5 6.5C16.3032 6.5 16.1248 6.61539 16.044 6.79482L16.5 7ZM20.544 17.2052C20.6574 17.457 20.9534 17.5693 21.2052 17.456C21.457 17.3426 21.5693 17.0466 21.456 16.7948L21 17L20.544 17.2052ZM13 7V6.5H3V7V7.5H13V7ZM10 12V11.5H3V12V12.5H10V12ZM8 17V16.5H3V17V17.5H8V17ZM12 17L12.456 17.2052L14.0923 13.5688L13.6364 13.3636L13.1804 13.1585L11.544 16.7948L12 17ZM13.6364 13.3636L14.0923 13.5688L16.956 7.20518L16.5 7L16.044 6.79482L13.1804 13.1585L13.6364 13.3636ZM21 17L21.456 16.7948L19.8196 13.1585L19.3636 13.3636L18.9077 13.5688L20.544 17.2052L21 17ZM19.3636 13.3636L19.8196 13.1585L16.956 6.79482L16.5 7L16.044 7.20518L18.9077 13.5688L19.3636 13.3636ZM19.3636 13.3636V12.8636H13.6364V13.3636V13.8636H19.3636V13.3636Z" fill="#424242"/>
</svg>
