<svg width="24" height="24" viewBox="0 0 24 24" fill="none" xmlns="http://www.w3.org/2000/svg">
<path d="M4 15.5C3.72386 15.5 3.5 15.7239 3.5 16C3.5 16.2761 3.72386 16.5 4 16.5V15.5ZM13 16.5C13.2761 16.5 13.5 16.2761 13.5 16C13.5 15.7239 13.2761 15.5 13 15.5V16.5ZM6 10.5C5.72386 10.5 5.5 10.7239 5.5 11C5.5 11.2761 5.72386 11.5 6 11.5V10.5ZM13 11.5C13.2761 11.5 13.5 11.2761 13.5 11C13.5 10.7239 13.2761 10.5 13 10.5V11.5ZM8 5.5C7.72386 5.5 7.5 5.72386 7.5 6C7.5 6.27614 7.72386 6.5 8 6.5V5.5ZM13 6.5C13.2761 6.5 13.5 6.27614 13.5 6C13.5 5.72386 13.2761 5.5 13 5.5V6.5ZM17.5 4C17.5 3.72386 17.2761 3.5 17 3.5C16.7239 3.5 16.5 3.72386 16.5 4H17.5ZM17 20H16.5C16.5 20.2152 16.6377 20.4063 16.8419 20.4743C17.0461 20.5424 17.2709 20.4722 17.4 20.3L17 20ZM20.4 16.3C20.5657 16.0791 20.5209 15.7657 20.3 15.6C20.0791 15.4343 19.7657 15.4791 19.6 15.7L20.4 16.3ZM4 16V16.5H13V16V15.5H4V16ZM6 11V11.5H13V11V10.5H6V11ZM8 6V6.5H13V6V5.5H8V6ZM17 4H16.5V20H17H17.5V4H17ZM17 20L17.4 20.3L20.4 16.3L20 16L19.6 15.7L16.6 19.7L17 20Z" fill="#424242"/>
</svg>
