<svg width="24" height="24" viewBox="0 0 24 24" fill="none" xmlns="http://www.w3.org/2000/svg">
<path d="M15.3536 10.8536C15.5488 10.6583 15.5488 10.3417 15.3536 10.1464C15.1583 9.95118 14.8417 9.95118 14.6464 10.1464L15.3536 10.8536ZM12 13.5L11.6464 13.8536C11.8417 14.0488 12.1583 14.0488 12.3536 13.8536L12 13.5ZM9.35355 10.1464C9.15829 9.95118 8.84171 9.95118 8.64645 10.1464C8.45118 10.3417 8.45118 10.6583 8.64645 10.8536L9.35355 10.1464ZM14.6464 10.1464L11.6464 13.1464L12.3536 13.8536L15.3536 10.8536L14.6464 10.1464ZM12.3536 13.1464L9.35355 10.1464L8.64645 10.8536L11.6464 13.8536L12.3536 13.1464ZM12 21.5C9.62884 21.5 7.90077 21.4989 6.58026 21.3214C5.27414 21.1458 4.44187 20.8058 3.81802 20.182L3.11091 20.8891C3.95153 21.7297 5.03 22.122 6.44702 22.3125C7.84965 22.5011 9.65711 22.5 12 22.5V21.5ZM1.5 12C1.5 14.3429 1.49894 16.1504 1.68752 17.553C1.87803 18.97 2.2703 20.0485 3.11091 20.8891L3.81802 20.182C3.19417 19.5581 2.8542 18.7259 2.6786 17.4197C2.50106 16.0992 2.5 14.3712 2.5 12H1.5ZM21.5 12C21.5 14.3712 21.4989 16.0992 21.3214 17.4197C21.1458 18.7259 20.8058 19.5581 20.182 20.182L20.8891 20.8891C21.7297 20.0485 22.122 18.97 22.3125 17.553C22.5011 16.1504 22.5 14.3429 22.5 12H21.5ZM12 22.5C14.3429 22.5 16.1504 22.5011 17.553 22.3125C18.97 22.122 20.0485 21.7297 20.8891 20.8891L20.182 20.182C19.5581 20.8058 18.7259 21.1458 17.4197 21.3214C16.0992 21.4989 14.3712 21.5 12 21.5V22.5ZM12 2.5C14.3712 2.5 16.0992 2.50106 17.4197 2.6786C18.7259 2.8542 19.5581 3.19417 20.182 3.81802L20.8891 3.11091C20.0485 2.2703 18.97 1.87803 17.553 1.68752C16.1504 1.49894 14.3429 1.5 12 1.5V2.5ZM22.5 12C22.5 9.65711 22.5011 7.84965 22.3125 6.44702C22.122 5.03 21.7297 3.95153 20.8891 3.11091L20.182 3.81802C20.8058 4.44187 21.1458 5.27414 21.3214 6.58026C21.4989 7.90077 21.5 9.62884 21.5 12H22.5ZM12 1.5C9.65711 1.5 7.84965 1.49894 6.44702 1.68752C5.03 1.87803 3.95153 2.2703 3.11091 3.11091L3.81802 3.81802C4.44187 3.19417 5.27414 2.8542 6.58026 2.6786C7.90077 2.50106 9.62884 2.5 12 2.5V1.5ZM2.5 12C2.5 9.62884 2.50106 7.90077 2.6786 6.58026C2.8542 5.27414 3.19417 4.44187 3.81802 3.81802L3.11091 3.11091C2.2703 3.95153 1.87803 5.03 1.68752 6.44702C1.49894 7.84965 1.5 9.65711 1.5 12H2.5Z" fill="#424242"/>
</svg>
