<svg width="24" height="24" viewBox="0 0 24 24" fill="none" xmlns="http://www.w3.org/2000/svg">
<path d="M20.5355 20.5355L20.182 20.182V20.182L20.5355 20.5355ZM11.3535 13.3536C11.5488 13.1583 11.5488 12.8417 11.3535 12.6464C11.1583 12.4512 10.8417 12.4512 10.6464 12.6464L11.3535 13.3536ZM2.99997 21H2.49997C2.49997 21.2761 2.72383 21.5 2.99997 21.5V21ZM8.99997 21.5C9.27611 21.5 9.49997 21.2761 9.49997 21C9.49997 20.7239 9.27611 20.5 8.99997 20.5V21.5ZM3.49997 15C3.49997 14.7239 3.27611 14.5 2.99997 14.5C2.72383 14.5 2.49997 14.7239 2.49997 15H3.49997ZM21.5 12C21.5 14.3712 21.4989 16.0992 21.3214 17.4197C21.1458 18.7259 20.8058 19.5581 20.182 20.182L20.8891 20.8891C21.7297 20.0485 22.1219 18.97 22.3125 17.553C22.501 16.1504 22.5 14.3429 22.5 12H21.5ZM12 2.5C14.3711 2.5 16.0992 2.50106 17.4197 2.6786C18.7258 2.8542 19.5581 3.19417 20.182 3.81802L20.8891 3.11091C20.0484 2.2703 18.97 1.87803 17.553 1.68752C16.1503 1.49894 14.3429 1.5 12 1.5V2.5ZM22.5 12C22.5 9.65711 22.501 7.84965 22.3125 6.44702C22.1219 5.03 21.7297 3.95153 20.8891 3.11091L20.182 3.81802C20.8058 4.44187 21.1458 5.27414 21.3214 6.58026C21.4989 7.90077 21.5 9.62884 21.5 12H22.5ZM12 1.5C9.65708 1.5 7.84962 1.49894 6.44699 1.68752C5.02997 1.87803 3.9515 2.2703 3.11088 3.11091L3.81799 3.81802C4.44184 3.19417 5.27411 2.8542 6.58024 2.6786C7.90074 2.50106 9.62881 2.5 12 2.5V1.5ZM13.0009 22.4994C15.0202 22.4958 16.6057 22.4701 17.8594 22.2672C19.1277 22.0619 20.1106 21.6675 20.8891 20.8891L20.182 20.182C19.6034 20.7606 18.8461 21.0945 17.6996 21.2801C16.5385 21.468 15.0349 21.4958 12.9991 21.4994L13.0009 22.4994ZM2.50055 11.0009C2.50422 8.96511 2.53198 7.46146 2.71992 6.30036C2.9055 5.15388 3.23941 4.3966 3.81799 3.81802L3.11088 3.11091C2.33244 3.88936 1.93806 4.87232 1.73277 6.14058C1.52985 7.39422 1.50419 8.97982 1.50055 10.9991L2.50055 11.0009ZM10.6464 12.6464L2.64642 20.6464L3.35352 21.3536L11.3535 13.3536L10.6464 12.6464ZM2.99997 21.5H8.99997V20.5H2.99997V21.5ZM3.49997 21V15H2.49997V21H3.49997Z" fill="#424242"/>
</svg>
