<svg width="24" height="24" viewBox="0 0 24 24" fill="none" xmlns="http://www.w3.org/2000/svg">
<path d="M21.3536 3.35355C21.5488 3.15829 21.5488 2.84171 21.3536 2.64645C21.1583 2.45118 20.8417 2.45118 20.6464 2.64645L21.3536 3.35355ZM12 12H11.5C11.5 12.2761 11.7239 12.5 12 12.5V12ZM17.3438 12.5C17.6199 12.5 17.8438 12.2761 17.8438 12C17.8438 11.7239 17.6199 11.5 17.3438 11.5V12.5ZM12.5 6.65625C12.5 6.38011 12.2761 6.15625 12 6.15625C11.7239 6.15625 11.5 6.38011 11.5 6.65625H12.5ZM22.5 12C22.5 11.7239 22.2761 11.5 22 11.5C21.7239 11.5 21.5 11.7239 21.5 12H22.5ZM12 2.5C12.2761 2.5 12.5 2.27614 12.5 2C12.5 1.72386 12.2761 1.5 12 1.5V2.5ZM20.6464 2.64645L11.6464 11.6464L12.3536 12.3536L21.3536 3.35355L20.6464 2.64645ZM12 12.5H17.3438V11.5H12V12.5ZM12.5 12V6.65625H11.5V12H12.5ZM12 21.5C9.62884 21.5 7.90077 21.4989 6.58026 21.3214C5.27414 21.1458 4.44187 20.8058 3.81802 20.182L3.11091 20.8891C3.95153 21.7297 5.03 22.122 6.44702 22.3125C7.84965 22.5011 9.65711 22.5 12 22.5V21.5ZM1.5 12C1.5 14.3429 1.49894 16.1504 1.68752 17.553C1.87803 18.97 2.2703 20.0485 3.11091 20.8891L3.81802 20.182C3.19417 19.5581 2.8542 18.7259 2.6786 17.4197C2.50106 16.0992 2.5 14.3712 2.5 12H1.5ZM21.5 12C21.5 14.3712 21.4989 16.0992 21.3214 17.4197C21.1458 18.7259 20.8058 19.5581 20.182 20.182L20.8891 20.8891C21.7297 20.0485 22.122 18.97 22.3125 17.553C22.5011 16.1504 22.5 14.3429 22.5 12H21.5ZM12 22.5C14.3429 22.5 16.1504 22.5011 17.553 22.3125C18.97 22.122 20.0485 21.7297 20.8891 20.8891L20.182 20.182C19.5581 20.8058 18.7259 21.1458 17.4197 21.3214C16.0992 21.4989 14.3712 21.5 12 21.5V22.5ZM12 1.5C9.65711 1.5 7.84965 1.49894 6.44702 1.68752C5.03 1.87803 3.95153 2.2703 3.11091 3.11091L3.81802 3.81802C4.44187 3.19417 5.27414 2.8542 6.58026 2.6786C7.90077 2.50106 9.62884 2.5 12 2.5V1.5ZM2.5 12C2.5 9.62884 2.50106 7.90077 2.6786 6.58026C2.8542 5.27414 3.19417 4.44187 3.81802 3.81802L3.11091 3.11091C2.2703 3.95153 1.87803 5.03 1.68752 6.44702C1.49894 7.84965 1.5 9.65711 1.5 12H2.5Z" fill="#424242"/>
</svg>
