<svg width="24" height="24" viewBox="0 0 24 24" fill="none" xmlns="http://www.w3.org/2000/svg">
<path d="M12.6464 10.6464C12.4512 10.8417 12.4512 11.1583 12.6464 11.3536C12.8417 11.5488 13.1583 11.5488 13.3536 11.3536L12.6464 10.6464ZM22 2H22.5C22.5 1.72386 22.2761 1.5 22 1.5V2ZM16.6562 1.5C16.3801 1.5 16.1562 1.72386 16.1562 2C16.1562 2.27614 16.3801 2.5 16.6562 2.5V1.5ZM21.5 7.34375C21.5 7.61989 21.7239 7.84375 22 7.84375C22.2761 7.84375 22.5 7.61989 22.5 7.34375H21.5ZM22.5 12C22.5 11.7239 22.2761 11.5 22 11.5C21.7239 11.5 21.5 11.7239 21.5 12H22.5ZM12 2.5C12.2761 2.5 12.5 2.27614 12.5 2C12.5 1.72386 12.2761 1.5 12 1.5V2.5ZM13.3536 11.3536L22.3536 2.35355L21.6464 1.64645L12.6464 10.6464L13.3536 11.3536ZM22 1.5H16.6562V2.5H22V1.5ZM21.5 2V7.34375H22.5V2H21.5ZM12 21.5C9.62884 21.5 7.90077 21.4989 6.58026 21.3214C5.27414 21.1458 4.44187 20.8058 3.81802 20.182L3.11091 20.8891C3.95153 21.7297 5.03 22.122 6.44702 22.3125C7.84965 22.5011 9.65711 22.5 12 22.5V21.5ZM1.5 12C1.5 14.3429 1.49894 16.1504 1.68752 17.553C1.87803 18.97 2.2703 20.0485 3.11091 20.8891L3.81802 20.182C3.19417 19.5581 2.8542 18.7259 2.6786 17.4197C2.50106 16.0992 2.5 14.3712 2.5 12H1.5ZM21.5 12C21.5 14.3712 21.4989 16.0992 21.3214 17.4197C21.1458 18.7259 20.8058 19.5581 20.182 20.182L20.8891 20.8891C21.7297 20.0485 22.122 18.97 22.3125 17.553C22.5011 16.1504 22.5 14.3429 22.5 12H21.5ZM12 22.5C14.3429 22.5 16.1504 22.5011 17.553 22.3125C18.97 22.122 20.0485 21.7297 20.8891 20.8891L20.182 20.182C19.5581 20.8058 18.7259 21.1458 17.4197 21.3214C16.0992 21.4989 14.3712 21.5 12 21.5V22.5ZM12 1.5C9.65711 1.5 7.84965 1.49894 6.44702 1.68752C5.03 1.87803 3.95153 2.2703 3.11091 3.11091L3.81802 3.81802C4.44187 3.19417 5.27414 2.8542 6.58026 2.6786C7.90077 2.50106 9.62884 2.5 12 2.5V1.5ZM2.5 12C2.5 9.62884 2.50106 7.90077 2.6786 6.58026C2.8542 5.27414 3.19417 4.44187 3.81802 3.81802L3.11091 3.11091C2.2703 3.95153 1.87803 5.03 1.68752 6.44702C1.49894 7.84965 1.5 9.65711 1.5 12H2.5Z" fill="#424242"/>
</svg>
