<svg width="24" height="24" viewBox="0 0 24 24" fill="none" xmlns="http://www.w3.org/2000/svg">
<path d="M17 10.5C17.2761 10.5 17.5 10.2761 17.5 10C17.5 9.72386 17.2761 9.5 17 9.5V10.5ZM7 10L6.67123 9.62329C6.5142 9.76033 6.45865 9.98041 6.53184 10.1756C6.60502 10.3707 6.79158 10.5 7 10.5V10ZM10.7663 7.37671C10.9743 7.19514 10.9958 6.87929 10.8142 6.67123C10.6326 6.46318 10.3168 6.44171 10.1087 6.62329L10.7663 7.37671ZM7 13.5C6.72386 13.5 6.5 13.7239 6.5 14C6.5 14.2761 6.72386 14.5 7 14.5V13.5ZM17 14L17.3288 14.3767C17.4858 14.2397 17.5413 14.0196 17.4682 13.8244C17.395 13.6293 17.2084 13.5 17 13.5V14ZM13.2337 16.6233C13.0257 16.8049 13.0042 17.1207 13.1858 17.3288C13.3674 17.5368 13.6832 17.5583 13.8913 17.3767L13.2337 16.6233ZM12 21.5C9.62884 21.5 7.90077 21.4989 6.58026 21.3214C5.27414 21.1458 4.44187 20.8058 3.81802 20.182L3.11091 20.8891C3.95153 21.7297 5.03 22.122 6.44702 22.3125C7.84965 22.5011 9.65711 22.5 12 22.5V21.5ZM1.5 12C1.5 14.3429 1.49894 16.1504 1.68752 17.553C1.87803 18.97 2.2703 20.0485 3.11091 20.8891L3.81802 20.182C3.19417 19.5581 2.8542 18.7259 2.6786 17.4197C2.50106 16.0992 2.5 14.3712 2.5 12H1.5ZM21.5 12C21.5 14.3712 21.4989 16.0992 21.3214 17.4197C21.1458 18.7259 20.8058 19.5581 20.182 20.182L20.8891 20.8891C21.7297 20.0485 22.122 18.97 22.3125 17.553C22.5011 16.1504 22.5 14.3429 22.5 12H21.5ZM12 22.5C14.3429 22.5 16.1504 22.5011 17.553 22.3125C18.97 22.122 20.0485 21.7297 20.8891 20.8891L20.182 20.182C19.5581 20.8058 18.7259 21.1458 17.4197 21.3214C16.0992 21.4989 14.3712 21.5 12 21.5V22.5ZM12 2.5C14.3712 2.5 16.0992 2.50106 17.4197 2.6786C18.7259 2.8542 19.5581 3.19417 20.182 3.81802L20.8891 3.11091C20.0485 2.2703 18.97 1.87803 17.553 1.68752C16.1504 1.49894 14.3429 1.5 12 1.5V2.5ZM22.5 12C22.5 9.65711 22.5011 7.84965 22.3125 6.44702C22.122 5.03 21.7297 3.95153 20.8891 3.11091L20.182 3.81802C20.8058 4.44187 21.1458 5.27414 21.3214 6.58026C21.4989 7.90077 21.5 9.62884 21.5 12H22.5ZM12 1.5C9.65711 1.5 7.84965 1.49894 6.44702 1.68752C5.03 1.87803 3.95153 2.2703 3.11091 3.11091L3.81802 3.81802C4.44187 3.19417 5.27414 2.8542 6.58026 2.6786C7.90077 2.50106 9.62884 2.5 12 2.5V1.5ZM2.5 12C2.5 9.62884 2.50106 7.90077 2.6786 6.58026C2.8542 5.27414 3.19417 4.44187 3.81802 3.81802L3.11091 3.11091C2.2703 3.95153 1.87803 5.03 1.68752 6.44702C1.49894 7.84965 1.5 9.65711 1.5 12H2.5ZM17 9.5H7V10.5H17V9.5ZM7.32877 10.3767L10.7663 7.37671L10.1087 6.62329L6.67123 9.62329L7.32877 10.3767ZM7 14.5L17 14.5V13.5L7 13.5V14.5ZM16.6712 13.6233L13.2337 16.6233L13.8913 17.3767L17.3288 14.3767L16.6712 13.6233Z" fill="#424242"/>
</svg>
