<svg width="24" height="24" viewBox="0 0 24 24" fill="none" xmlns="http://www.w3.org/2000/svg">
<path d="M20.5355 20.5355L20.182 20.182V20.182L20.5355 20.5355ZM2.64645 20.6464C2.45119 20.8417 2.45119 21.1583 2.64645 21.3536C2.84171 21.5488 3.15829 21.5488 3.35355 21.3536L2.64645 20.6464ZM11 13H11.5C11.5 12.7239 11.2761 12.5 11 12.5V13ZM5 12.5C4.72386 12.5 4.5 12.7239 4.5 13C4.5 13.2761 4.72386 13.5 5 13.5V12.5ZM10.5 19C10.5 19.2761 10.7239 19.5 11 19.5C11.2761 19.5 11.5 19.2761 11.5 19H10.5ZM21.5 12C21.5 14.3712 21.4989 16.0992 21.3214 17.4197C21.1458 18.7259 20.8058 19.5581 20.182 20.182L20.8891 20.8891C21.7297 20.0485 22.122 18.97 22.3125 17.553C22.5011 16.1504 22.5 14.3429 22.5 12H21.5ZM12 2.5C14.3712 2.5 16.0992 2.50106 17.4197 2.6786C18.7259 2.8542 19.5581 3.19417 20.182 3.81802L20.8891 3.11091C20.0485 2.2703 18.97 1.87803 17.553 1.68752C16.1504 1.49894 14.3429 1.5 12 1.5V2.5ZM22.5 12C22.5 9.65711 22.5011 7.84965 22.3125 6.44702C22.122 5.03 21.7297 3.95153 20.8891 3.11091L20.182 3.81802C20.8058 4.44187 21.1458 5.27414 21.3214 6.58026C21.4989 7.90077 21.5 9.62884 21.5 12H22.5ZM12 1.5C9.65711 1.5 7.84965 1.49894 6.44702 1.68752C5.03 1.87803 3.95153 2.2703 3.11091 3.11091L3.81802 3.81802C4.44187 3.19417 5.27414 2.8542 6.58027 2.6786C7.90078 2.50106 9.62884 2.5 12 2.5V1.5ZM13.0009 22.4994C15.0202 22.4958 16.6058 22.4701 17.8594 22.2672C19.1277 22.0619 20.1106 21.6675 20.8891 20.8891L20.182 20.182C19.6034 20.7606 18.8461 21.0945 17.6996 21.2801C16.5385 21.468 15.0349 21.4958 12.9991 21.4994L13.0009 22.4994ZM2.50058 11.0009C2.50425 8.96511 2.53201 7.46146 2.71995 6.30036C2.90553 5.15388 3.23944 4.3966 3.81802 3.81802L3.11091 3.11091C2.33247 3.88936 1.93809 4.87232 1.7328 6.14058C1.52988 7.39422 1.50422 8.97982 1.50058 10.9991L2.50058 11.0009ZM3.35355 21.3536L11.3536 13.3536L10.6464 12.6464L2.64645 20.6464L3.35355 21.3536ZM11 12.5H5V13.5H11V12.5ZM10.5 13V19H11.5V13H10.5Z" fill="#424242"/>
</svg>
