<svg width="24" height="24" viewBox="0 0 24 24" fill="none" xmlns="http://www.w3.org/2000/svg">
<path d="M16.0378 4C17.6762 4 19.0238 5.38 19.0238 7.08C19.0238 8.78 17.6859 10.15 16.0378 10.15M20.6331 18.74C22 18.12 22 17.08 22 15.91C22 14.19 19.8187 12.75 16.9685 12.49M12.5 16.5H15M13.6335 7C13.6335 9.21 11.8982 11 9.7557 11C7.61319 11 5.87785 9.21 5.87785 7C5.87785 4.79 7.61319 3 9.7557 3C11.8982 3 13.6335 4.79 13.6335 7ZM17.5114 16.5C17.5114 18.99 17.5114 21 9.7557 21C2 21 2 18.99 2 16.5C2 14.831 3.55925 13.3777 5.87785 12.6007C7.01844 12.2185 8.3428 15.5 9.7557 15.5C11.1686 15.5 12.4929 12.2185 13.6335 12.6007C15.9521 13.3777 17.5114 14.831 17.5114 16.5Z" stroke="#424242" stroke-linecap="round" stroke-linejoin="round"/>
</svg>
