<svg width="24" height="24" viewBox="0 0 24 24" fill="none" xmlns="http://www.w3.org/2000/svg">
<path d="M12.4647 8.62652L12.3176 9.10441V9.10441L12.4647 8.62652ZM14.3238 8.39368L14.5786 8.8239V8.8239L14.3238 8.39368ZM9.00976 11.2596L8.51834 11.3518V11.3518L9.00976 11.2596ZM12.032 8.49339L12.1791 8.01551V8.01551L12.032 8.49339ZM8.67158 13.5669L8.26595 13.2746H8.26595L8.67158 13.5669ZM9.09451 11.7111L9.58593 11.6189V11.6189L9.09451 11.7111ZM9.95303 17.6161L9.90746 18.114H9.90746L9.95303 17.6161ZM8.39716 13.9477L8.80279 14.24H8.80279L8.39716 13.9477ZM12.0043 18.5717L12.4112 18.2812L12.4112 18.2812L12.0043 18.5717ZM10.4065 17.6576L10.4521 17.1597V17.1597L10.4065 17.6576ZM16.2512 18.4412L15.7968 18.2326V18.2326L16.2512 18.4412ZM12.2673 18.9402L11.8604 19.2307L11.8604 19.2307L12.2673 18.9402ZM17.8571 16.7245L18.0223 17.1964V17.1964L17.8571 16.7245ZM16.4467 18.0153L16.9011 18.224V18.224L16.4467 18.0153ZM19.2003 12.5946L19.5381 12.2259V12.2259L19.2003 12.5946ZM18.2941 16.5714L18.1288 16.0995V16.0995L18.2941 16.5714ZM18.1416 10.578L18.6416 10.5856V10.5856L18.1416 10.578ZM18.8677 12.2899L18.5299 12.6586V12.6586L18.8677 12.2899ZM18.1486 10.115L17.6487 10.1074V10.1074L18.1486 10.115ZM14.7249 8.15612L14.4701 7.7259V7.7259L14.7249 8.15612ZM11.1464 4.85355C11.3417 5.04882 11.6583 5.04882 11.8536 4.85355C12.0488 4.65829 12.0488 4.34171 11.8536 4.14645L11.1464 4.85355ZM9.85355 2.14645C9.65829 1.95118 9.34171 1.95118 9.14645 2.14645C8.95118 2.34171 8.95118 2.65829 9.14645 2.85355L9.85355 2.14645ZM13.1464 6.85355C13.3417 7.04882 13.6583 7.04882 13.8536 6.85355C14.0488 6.65829 14.0488 6.34171 13.8536 6.14645L13.1464 6.85355ZM13.3536 5.64645C13.1583 5.45118 12.8417 5.45118 12.6464 5.64645C12.4512 5.84171 12.4512 6.15829 12.6464 6.35355L13.3536 5.64645ZM6.14645 6.85355C6.34171 7.04882 6.65829 7.04882 6.85355 6.85355C7.04882 6.65829 7.04882 6.34171 6.85355 6.14645L6.14645 6.85355ZM4.35355 3.64645C4.15829 3.45118 3.84171 3.45118 3.64645 3.64645C3.45118 3.84171 3.45118 4.15829 3.64645 4.35355L4.35355 3.64645ZM5.64645 12.3536C5.84171 12.5488 6.15829 12.5488 6.35355 12.3536C6.54882 12.1583 6.54882 11.8417 6.35355 11.6464L5.64645 12.3536ZM4.85355 10.1464C4.65829 9.95118 4.34171 9.95118 4.14645 10.1464C3.95118 10.3417 3.95118 10.6583 4.14645 10.8536L4.85355 10.1464ZM2.14645 8.85355C2.34171 9.04882 2.65829 9.04882 2.85355 8.85355C3.04882 8.65829 3.04882 8.34171 2.85355 8.14645L2.14645 8.85355ZM2.35355 7.64645C2.15829 7.45118 1.84171 7.45118 1.64645 7.64645C1.45118 7.84171 1.45118 8.15829 1.64645 8.35355L2.35355 7.64645ZM17.6487 10.1074L17.6417 10.5704L18.6416 10.5856L18.6486 10.1226L17.6487 10.1074ZM18.5299 12.6586L18.8626 12.9633L19.5381 12.2259L19.2054 11.9212L18.5299 12.6586ZM18.1288 16.0995L17.6918 16.2526L18.0223 17.1964L18.4593 17.0433L18.1288 16.0995ZM15.9923 17.8067L15.7968 18.2326L16.7055 18.6499L16.9011 18.224L15.9923 17.8067ZM12.6743 18.6497L12.4112 18.2812L11.5973 18.8623L11.8604 19.2307L12.6743 18.6497ZM10.4521 17.1597L9.9986 17.1182L9.90746 18.114L10.361 18.1555L10.4521 17.1597ZM8.80279 14.24L9.07721 13.8593L8.26595 13.2746L7.99153 13.6553L8.80279 14.24ZM9.58593 11.6189L9.50118 11.1673L8.51834 11.3518L8.60309 11.8033L9.58593 11.6189ZM11.885 8.97128L12.3176 9.10441L12.6117 8.14864L12.1791 8.01551L11.885 8.97128ZM14.5786 8.8239L14.9797 8.58634L14.4701 7.7259L14.069 7.96346L14.5786 8.8239ZM12.3176 9.10441C12.7512 9.23782 13.1084 9.35842 13.4823 9.3116L13.358 8.31935C13.2465 8.33332 13.1286 8.30769 12.6117 8.14864L12.3176 9.10441ZM14.069 7.96346C13.5904 8.24688 13.4732 8.30492 13.358 8.31935L13.4823 9.3116C13.8525 9.26523 14.1759 9.06234 14.5786 8.8239L14.069 7.96346ZM9.50118 11.1673C9.33432 10.2783 9.221 9.66731 9.2037 9.21925C9.18668 8.77828 9.26992 8.63152 9.35859 8.55035L8.68343 7.81268C8.26951 8.19154 8.18334 8.71112 8.20445 9.25783C8.22528 9.79745 8.35763 10.4955 8.51834 11.3518L9.50118 11.1673ZM12.1791 8.01551C11.3594 7.76329 10.6888 7.55543 10.1611 7.47736C9.62397 7.3979 9.10009 7.43133 8.68343 7.81268L9.35859 8.55035C9.44454 8.47169 9.59004 8.40376 10.0147 8.46659C10.4488 8.53082 11.0323 8.70891 11.885 8.97128L12.1791 8.01551ZM9.07721 13.8593C9.35387 13.4754 9.58339 13.1728 9.66643 12.8084L8.69143 12.5862C8.66404 12.7064 8.59214 12.822 8.26595 13.2746L9.07721 13.8593ZM8.60309 11.8033C8.70391 12.3405 8.71824 12.4686 8.69143 12.5862L9.66643 12.8084C9.75004 12.4415 9.67128 12.0736 9.58593 11.6189L8.60309 11.8033ZM9.99861 17.1182C9.10477 17.0364 8.49339 16.979 8.06861 16.874C7.64921 16.7703 7.56129 16.6554 7.52513 16.5701L6.60451 16.9606C6.82709 17.4854 7.30679 17.7157 7.82856 17.8447C8.34496 17.9724 9.04831 18.0354 9.90746 18.114L9.99861 17.1182ZM7.99153 13.6553C7.47066 14.3781 7.04671 14.9642 6.79334 15.4475C6.53967 15.9315 6.38533 16.4438 6.60451 16.9606L7.52513 16.5701C7.48557 16.4769 7.46703 16.3163 7.67904 15.9118C7.89135 15.5068 8.26294 14.9891 8.80279 14.24L7.99153 13.6553ZM12.4112 18.2812C12.1489 17.9138 11.9365 17.5978 11.6106 17.4114L11.114 18.2793C11.2053 18.3316 11.2818 18.4202 11.5973 18.8623L12.4112 18.2812ZM10.361 18.1555C10.9049 18.2053 11.022 18.2267 11.114 18.2793L11.6106 17.4114C11.2855 17.2253 10.9045 17.2011 10.4521 17.1597L10.361 18.1555ZM15.7968 18.2326C15.4121 19.0704 15.1455 19.6481 14.8977 20.0328C14.6509 20.416 14.4995 20.484 14.3928 20.4974L14.517 21.4896C15.0728 21.42 15.4417 21.035 15.7384 20.5743C16.0341 20.1152 16.3344 19.4582 16.7055 18.6499L15.7968 18.2326ZM11.8604 19.2307C12.3585 19.9285 12.7656 20.5013 13.1359 20.8811C13.5114 21.2662 13.9517 21.5604 14.517 21.4896L14.3928 20.4974C14.2955 20.5095 14.1505 20.4892 13.8519 20.183C13.5482 19.8715 13.1928 19.3761 12.6743 18.6497L11.8604 19.2307ZM17.6918 16.2526C17.2511 16.4069 16.8926 16.5226 16.6154 16.7763L17.2906 17.514C17.3816 17.4306 17.5031 17.3782 18.0223 17.1964L17.6918 16.2526ZM16.9011 18.224C17.1333 17.7182 17.1985 17.5983 17.2906 17.514L16.6154 16.7763C16.3393 17.029 16.1896 17.3769 15.9923 17.8067L16.9011 18.224ZM18.8626 12.9633C19.5184 13.5641 19.9654 13.9754 20.2381 14.3153C20.5048 14.6477 20.5157 14.8029 20.4909 14.9117L21.4659 15.1339C21.5918 14.5813 21.3566 14.1114 21.0181 13.6895C20.6856 13.2751 20.1681 12.8031 19.5381 12.2259L18.8626 12.9633ZM18.4593 17.0433C19.2884 16.753 19.9636 16.5179 20.4447 16.2664C20.9306 16.0124 21.3415 15.6799 21.4659 15.1339L20.4909 14.9117C20.4646 15.0269 20.3778 15.173 19.9815 15.3801C19.5804 15.5898 18.9889 15.7983 18.1288 16.0995L18.4593 17.0433ZM17.6417 10.5704C17.6346 11.0341 17.6187 11.416 17.7645 11.7596L18.6851 11.3691C18.6413 11.2658 18.6331 11.1391 18.6416 10.5856L17.6417 10.5704ZM19.2054 11.9212C18.8072 11.5565 18.7276 11.4694 18.6851 11.3691L17.7645 11.7596C17.9115 12.1063 18.1973 12.3539 18.5299 12.6586L19.2054 11.9212ZM18.6486 10.1226C18.6619 9.24453 18.6741 8.52882 18.6038 7.99536C18.5333 7.46047 18.3612 6.95249 17.8684 6.67053L17.3718 7.53851C17.4483 7.58231 17.5542 7.68464 17.6124 8.12609C17.6708 8.56897 17.6626 9.19559 17.6487 10.1074L18.6486 10.1226ZM14.9797 8.58634C15.7693 8.11875 16.3136 7.79789 16.7307 7.62619C17.1476 7.45463 17.2935 7.4937 17.3718 7.53851L17.8684 6.67053C17.3773 6.38958 16.8509 6.49534 16.3501 6.70145C15.8497 6.90743 15.2311 7.27525 14.4701 7.7259L14.9797 8.58634ZM11.8536 4.14645L9.85355 2.14645L9.14645 2.85355L11.1464 4.85355L11.8536 4.14645ZM13.8536 6.14645L13.3536 5.64645L12.6464 6.35355L13.1464 6.85355L13.8536 6.14645ZM6.85355 6.14645L4.35355 3.64645L3.64645 4.35355L6.14645 6.85355L6.85355 6.14645ZM6.35355 11.6464L4.85355 10.1464L4.14645 10.8536L5.64645 12.3536L6.35355 11.6464ZM2.85355 8.14645L2.35355 7.64645L1.64645 8.35355L2.14645 8.85355L2.85355 8.14645Z" fill="#424242"/>
</svg>
