<svg width="24" height="24" viewBox="0 0 24 24" fill="none" xmlns="http://www.w3.org/2000/svg">
<path d="M9.33794 9.81402L9.44828 10.3017V10.3017L9.33794 9.81402ZM10.4127 8.99812L9.97601 8.75467H9.976L10.4127 8.99812ZM8.14005 12.715L7.76005 13.0399H7.76005L8.14005 12.715ZM9.01977 9.88601L8.90943 9.39834V9.39834L9.01977 9.88601ZM8.76749 14.2888L9.26516 14.337V14.337L8.76749 14.2888ZM8.35696 12.9686L8.73696 12.6436H8.73696L8.35696 12.9686ZM11.0378 16.3756L11.247 16.8298V16.8298L11.0378 16.3756ZM8.7347 14.6272L8.23703 14.579V14.579L8.7347 14.6272ZM12.6643 16.2384L12.8734 15.7842H12.8734L12.6643 16.2384ZM11.3357 16.2384L11.1266 15.7842V15.7842L11.3357 16.2384ZM12 16.0124V15.5124V16.0124ZM15.2653 14.6272L15.763 14.579V14.579L15.2653 14.6272ZM12.9622 16.3756L12.753 16.8298H12.753L12.9622 16.3756ZM15.643 12.9686L15.263 12.6436H15.263L15.643 12.9686ZM15.2325 14.2888L14.7348 14.337V14.337L15.2325 14.2888ZM14.9802 9.88601L15.0906 9.39834V9.39834L14.9802 9.88601ZM15.86 12.715L16.24 13.0399H16.24L15.86 12.715ZM13.5873 8.99812L13.1505 9.24157V9.24157L13.5873 8.99812ZM14.6621 9.81402L14.5517 10.3017V10.3017L14.6621 9.81402ZM13.4234 8.70419L13.8601 8.46074V8.46074L13.4234 8.70419ZM10.5766 8.70419L11.0133 8.94764V8.94764L10.5766 8.70419ZM12.5 2C12.5 1.72386 12.2761 1.5 12 1.5C11.7239 1.5 11.5 1.72386 11.5 2H12.5ZM11.5 4C11.5 4.27614 11.7239 4.5 12 4.5C12.2761 4.5 12.5 4.27614 12.5 4H11.5ZM12.5 20C12.5 19.7239 12.2761 19.5 12 19.5C11.7239 19.5 11.5 19.7239 11.5 20H12.5ZM11.5 22C11.5 22.2761 11.7239 22.5 12 22.5C12.2761 22.5 12.5 22.2761 12.5 22H11.5ZM2 11.5C1.72386 11.5 1.5 11.7239 1.5 12C1.5 12.2761 1.72386 12.5 2 12.5V11.5ZM4 12.5C4.27614 12.5 4.5 12.2761 4.5 12C4.5 11.7239 4.27614 11.5 4 11.5V12.5ZM20 11.5C19.7239 11.5 19.5 11.7239 19.5 12C19.5 12.2761 19.7239 12.5 20 12.5V11.5ZM22 12.5C22.2761 12.5 22.5 12.2761 22.5 12C22.5 11.7239 22.2761 11.5 22 11.5V12.5ZM5.64655 17.6463C5.45128 17.8416 5.45128 18.1582 5.64655 18.3535C5.84181 18.5487 6.15839 18.5487 6.35365 18.3535L5.64655 17.6463ZM6.6967 18.0104C6.89196 17.8151 6.89196 17.4986 6.6967 17.3033C6.50144 17.108 6.18485 17.108 5.98959 17.3033L6.6967 18.0104ZM17.3033 5.98959C17.108 6.18485 17.108 6.50144 17.3033 6.6967C17.4986 6.89196 17.8151 6.89196 18.0104 6.6967L17.3033 5.98959ZM18.3537 6.35344C18.5489 6.15817 18.5489 5.84159 18.3537 5.64633C18.1584 5.45107 17.8418 5.45107 17.6466 5.64633L18.3537 6.35344ZM17.6463 18.3537C17.8416 18.5489 18.1582 18.5489 18.3534 18.3537C18.5487 18.1584 18.5487 17.8418 18.3534 17.6466L17.6463 18.3537ZM18.0104 17.3035C17.8151 17.1083 17.4985 17.1083 17.3033 17.3035C17.108 17.4988 17.108 17.8154 17.3033 18.0106L18.0104 17.3035ZM5.98971 6.69682C6.18497 6.89208 6.50155 6.89208 6.69682 6.69682C6.89208 6.50155 6.89208 6.18497 6.69682 5.98971L5.98971 6.69682ZM6.35355 5.64645C6.15829 5.45118 5.84171 5.45118 5.64645 5.64645C5.45118 5.84171 5.45118 6.15829 5.64645 6.35355L6.35355 5.64645ZM12.9867 8.94764L13.1505 9.24157L14.024 8.75467L13.8601 8.46074L12.9867 8.94764ZM14.5517 10.3017L14.8699 10.3737L15.0906 9.39834L14.7724 9.32635L14.5517 10.3017ZM15.48 12.39L15.263 12.6436L16.023 13.2936L16.24 13.0399L15.48 12.39ZM14.7348 14.337L14.7676 14.6754L15.763 14.579L15.7302 14.2406L14.7348 14.337ZM13.1713 15.9214L12.8734 15.7842L12.4551 16.6926L12.753 16.8298L13.1713 15.9214ZM11.1266 15.7842L10.8287 15.9214L11.247 16.8298L11.5449 16.6926L11.1266 15.7842ZM9.23237 14.6754L9.26516 14.337L8.26982 14.2406L8.23703 14.579L9.23237 14.6754ZM8.73696 12.6436L8.52005 12.39L7.76005 13.0399L7.97696 13.2936L8.73696 12.6436ZM9.13011 10.3737L9.44828 10.3017L9.2276 9.32635L8.90943 9.39834L9.13011 10.3737ZM10.8495 9.24157L11.0133 8.94764L10.1399 8.46074L9.97601 8.75467L10.8495 9.24157ZM9.44828 10.3017C9.75479 10.2323 10.0582 10.1743 10.3048 9.98715L9.70015 9.19066C9.66609 9.21651 9.62006 9.23755 9.2276 9.32635L9.44828 10.3017ZM9.976 8.75467C9.7743 9.1165 9.73735 9.16242 9.70015 9.19066L10.3048 9.98715C10.5482 9.80237 10.6912 9.52543 10.8495 9.24157L9.976 8.75467ZM8.52005 12.39C8.0901 11.8872 7.80537 11.5523 7.63825 11.2868C7.47452 11.0267 7.49823 10.9478 7.50616 10.9223L6.55126 10.6254C6.41289 11.0703 6.57306 11.4718 6.79197 11.8195C7.00748 12.1619 7.35157 12.5623 7.76005 13.0399L8.52005 12.39ZM8.90943 9.39834C8.31149 9.53363 7.80471 9.64683 7.43459 9.79269C7.05505 9.94226 6.69133 10.175 6.55126 10.6254L7.50616 10.9223C7.51239 10.9023 7.52928 10.8302 7.80123 10.723C8.08261 10.6122 8.4982 10.5167 9.13011 10.3737L8.90943 9.39834ZM9.26516 14.337C9.29714 14.007 9.33592 13.7015 9.24538 13.4104L8.29048 13.7073C8.30713 13.7608 8.30989 13.8271 8.26982 14.2406L9.26516 14.337ZM7.97696 13.2936C8.24221 13.6037 8.2745 13.6559 8.29048 13.7073L9.24538 13.4104C9.15418 13.1171 8.94822 12.8907 8.73696 12.6436L7.97696 13.2936ZM10.8287 15.9214C10.237 16.1939 9.84679 16.372 9.5568 16.455C9.27323 16.5363 9.23173 16.4833 9.2299 16.4819L8.62525 17.2784C9.00643 17.5677 9.44431 17.5275 9.83225 17.4164C10.2138 17.307 10.6872 17.0875 11.247 16.8298L10.8287 15.9214ZM8.23703 14.579C8.17521 15.217 8.12232 15.7501 8.14047 16.1574C8.15865 16.5656 8.25224 16.9952 8.62525 17.2784L9.2299 16.4819C9.2199 16.4743 9.15367 16.4315 9.13948 16.1129C9.12525 15.7935 9.16743 15.3455 9.23237 14.6754L8.23703 14.579ZM12.8734 15.7842C12.5881 15.6529 12.3087 15.5124 12 15.5124V16.5124C12.0381 16.5124 12.086 16.5226 12.4551 16.6926L12.8734 15.7842ZM11.5449 16.6926C11.914 16.5226 11.9619 16.5124 12 16.5124V15.5124C11.6913 15.5124 11.4119 15.6529 11.1266 15.7842L11.5449 16.6926ZM14.7676 14.6754C14.8326 15.3455 14.8748 15.7935 14.8605 16.1129C14.8463 16.4315 14.7801 16.4743 14.7701 16.4819L15.3747 17.2784C15.7478 16.9952 15.8413 16.5656 15.8595 16.1574C15.8777 15.7501 15.8248 15.217 15.763 14.579L14.7676 14.6754ZM12.753 16.8298C13.3128 17.0875 13.7862 17.307 14.1678 17.4164C14.5557 17.5275 14.9936 17.5677 15.3747 17.2784L14.7701 16.4819C14.7683 16.4833 14.7268 16.5363 14.4432 16.455C14.1532 16.372 13.763 16.1939 13.1713 15.9214L12.753 16.8298ZM15.263 12.6436C15.0518 12.8907 14.8458 13.1171 14.7546 13.4104L15.7095 13.7073C15.7255 13.6559 15.7578 13.6037 16.023 13.2936L15.263 12.6436ZM15.7302 14.2406C15.6901 13.8271 15.6929 13.7608 15.7095 13.7073L14.7546 13.4104C14.6641 13.7015 14.7029 14.007 14.7348 14.337L15.7302 14.2406ZM14.8699 10.3737C15.5018 10.5167 15.9174 10.6122 16.1988 10.723C16.4707 10.8302 16.4876 10.9023 16.4938 10.9223L17.4487 10.6254C17.3087 10.175 16.945 9.94226 16.5654 9.79269C16.1953 9.64683 15.6885 9.53363 15.0906 9.39834L14.8699 10.3737ZM16.24 13.0399C16.6484 12.5623 16.9925 12.1619 17.208 11.8195C17.4269 11.4718 17.5871 11.0703 17.4487 10.6254L16.4938 10.9223C16.5018 10.9478 16.5255 11.0267 16.3618 11.2868C16.1946 11.5523 15.9099 11.8872 15.48 12.39L16.24 13.0399ZM13.1505 9.24157C13.3088 9.52543 13.4518 9.80237 13.6952 9.98715L14.2999 9.19066C14.2626 9.16242 14.2257 9.1165 14.024 8.75467L13.1505 9.24157ZM14.7724 9.32635C14.3799 9.23755 14.3339 9.21651 14.2999 9.19066L13.6952 9.98715C13.9418 10.1743 14.2452 10.2323 14.5517 10.3017L14.7724 9.32635ZM13.8601 8.46074C13.5516 7.90729 13.2938 7.44202 13.0487 7.12205C12.8034 6.80175 12.4765 6.5 12 6.5V7.5C12.0083 7.5 12.0215 7.49962 12.0551 7.52211C12.0976 7.55056 12.1628 7.60991 12.2548 7.73004C12.4448 7.97813 12.6619 8.36496 12.9867 8.94764L13.8601 8.46074ZM11.0133 8.94764C11.3381 8.36496 11.5552 7.97813 11.7452 7.73004C11.8372 7.60991 11.9024 7.55056 11.9449 7.52211C11.9785 7.49962 11.9917 7.5 12 7.5V6.5C11.5235 6.5 11.1966 6.80175 10.9513 7.12205C10.7062 7.44202 10.4484 7.90729 10.1399 8.46074L11.0133 8.94764ZM11.5 2V4H12.5V2H11.5ZM11.5 20V22H12.5V20H11.5ZM2 12.5H4V11.5H2V12.5ZM20 12.5H22V11.5H20V12.5ZM6.35365 18.3535L6.6967 18.0104L5.98959 17.3033L5.64655 17.6463L6.35365 18.3535ZM18.0104 6.6967L18.3537 6.35344L17.6466 5.64633L17.3033 5.98959L18.0104 6.6967ZM18.3534 17.6466L18.0104 17.3035L17.3033 18.0106L17.6463 18.3537L18.3534 17.6466ZM6.69682 5.98971L6.35355 5.64645L5.64645 6.35355L5.98971 6.69682L6.69682 5.98971Z" fill="#424242"/>
</svg>
