<svg width="24" height="24" viewBox="0 0 24 24" fill="none" xmlns="http://www.w3.org/2000/svg">
<path d="M21.2424 13.7083L20.8888 13.3547V13.3547L21.2424 13.7083ZM13.7083 21.2424L13.3547 20.8888V20.8888L13.7083 21.2424ZM12 17.5C12.2761 17.5 12.5 17.2761 12.5 17C12.5 16.7239 12.2761 16.5 12 16.5V17.5ZM9.29774 15.5983C9.0759 15.4339 8.76275 15.4804 8.59832 15.7023C8.43388 15.9241 8.48041 16.2372 8.70226 16.4017L9.29774 15.5983ZM12.3928 16.688L12.8648 16.8532L12.3928 16.688ZM16.688 12.3928L16.8532 12.8648L16.688 12.3928ZM12 21.5C6.75329 21.5 2.5 17.2467 2.5 12H1.5C1.5 17.799 6.20101 22.5 12 22.5V21.5ZM2.5 12C2.5 6.75329 6.75329 2.5 12 2.5V1.5C6.20101 1.5 1.5 6.20101 1.5 12H2.5ZM12 2.5C17.2467 2.5 21.5 6.75329 21.5 12H22.5C22.5 6.20101 17.799 1.5 12 1.5V2.5ZM20.8888 13.3547L13.3547 20.8888L14.0618 21.5959L21.5959 14.0618L20.8888 13.3547ZM12 22.5C12.8054 22.5 13.5294 22.1283 14.0618 21.5959L13.3547 20.8888C12.9711 21.2724 12.49 21.5 12 21.5V22.5ZM21.5 12C21.5 12.49 21.2724 12.9711 20.8888 13.3547L21.5959 14.0618C22.1283 13.5294 22.5 12.8054 22.5 12H21.5ZM12 16.5C10.9976 16.5 10.0668 16.1683 9.29774 15.5983L8.70226 16.4017C9.63399 17.0923 10.7715 17.5 12 17.5V16.5ZM15.5 10.5C15.5 10.8293 15.4101 11.1048 15.2911 11.2833C15.1697 11.4654 15.057 11.5 15 11.5V12.5C15.4953 12.5 15.8826 12.1988 16.1231 11.838C16.366 11.4737 16.5 10.9992 16.5 10.5H15.5ZM15 11.5C14.943 11.5 14.8303 11.4654 14.7089 11.2833C14.5899 11.1048 14.5 10.8293 14.5 10.5H13.5C13.5 10.9992 13.634 11.4737 13.8769 11.838C14.1174 12.1988 14.5047 12.5 15 12.5V11.5ZM14.5 10.5C14.5 10.1707 14.5899 9.89525 14.7089 9.71669C14.8303 9.53464 14.943 9.5 15 9.5V8.5C14.5047 8.5 14.1174 8.80115 13.8769 9.16199C13.634 9.52632 13.5 10.0008 13.5 10.5H14.5ZM15 9.5C15.057 9.5 15.1697 9.53464 15.2911 9.71669C15.4101 9.89525 15.5 10.1707 15.5 10.5H16.5C16.5 10.0008 16.366 9.52632 16.1231 9.16199C15.8826 8.80115 15.4953 8.5 15 8.5V9.5ZM9.5 10.5C9.5 10.8293 9.41012 11.1048 9.29108 11.2833C9.16971 11.4654 9.05695 11.5 9 11.5V12.5C9.49533 12.5 9.88257 12.1988 10.1231 11.838C10.366 11.4737 10.5 10.9992 10.5 10.5H9.5ZM9 11.5C8.94305 11.5 8.83029 11.4654 8.70892 11.2833C8.58988 11.1048 8.5 10.8293 8.5 10.5H7.5C7.5 10.9992 7.63398 11.4737 7.87687 11.838C8.11743 12.1988 8.50467 12.5 9 12.5V11.5ZM8.5 10.5C8.5 10.1707 8.58988 9.89525 8.70892 9.71669C8.83029 9.53464 8.94305 9.5 9 9.5V8.5C8.50467 8.5 8.11743 8.80115 7.87687 9.16199C7.63398 9.52632 7.5 10.0008 7.5 10.5H8.5ZM9 9.5C9.05695 9.5 9.16971 9.53464 9.29108 9.71669C9.41012 9.89525 9.5 10.1707 9.5 10.5H10.5C10.5 10.0008 10.366 9.52632 10.1231 9.16199C9.88257 8.80115 9.49533 8.5 9 8.5V9.5ZM12.5 22C12.5 19.1653 12.5071 17.8754 12.8648 16.8532L11.9209 16.5229C11.4929 17.7459 11.5 19.2489 11.5 22H12.5ZM22 11.5C19.2489 11.5 17.7459 11.4929 16.5229 11.9209L16.8532 12.8648C17.8754 12.5071 19.1653 12.5 22 12.5V11.5ZM12.8648 16.8532C13.5181 14.9861 14.9861 13.5181 16.8532 12.8648L16.5229 11.9209C14.3686 12.6747 12.6747 14.3686 11.9209 16.5229L12.8648 16.8532Z" fill="#424242"/>
</svg>
