<svg width="24" height="24" viewBox="0 0 24 24" fill="none" xmlns="http://www.w3.org/2000/svg">
<path d="M21.2424 13.7083L20.8888 13.3547V13.3547L21.2424 13.7083ZM13.7083 21.2424L13.3547 20.8888V20.8888L13.7083 21.2424ZM12.355 16.5258C12.627 16.4782 12.8089 16.2191 12.7614 15.9471C12.7138 15.6751 12.4547 15.4931 12.1827 15.5407L12.355 16.5258ZM9.03416 15.4481C8.7663 15.381 8.49474 15.5437 8.4276 15.8115C8.36046 16.0794 8.52318 16.351 8.79104 16.4181L9.03416 15.4481ZM12.3928 16.688L12.8648 16.8532L12.3928 16.688ZM16.688 12.3928L16.8532 12.8648L16.688 12.3928ZM12 21.5C6.75329 21.5 2.5 17.2467 2.5 12H1.5C1.5 17.799 6.20101 22.5 12 22.5V21.5ZM2.5 12C2.5 6.75329 6.75329 2.5 12 2.5V1.5C6.20101 1.5 1.5 6.20101 1.5 12H2.5ZM12 2.5C17.2467 2.5 21.5 6.75329 21.5 12H22.5C22.5 6.20101 17.799 1.5 12 1.5V2.5ZM20.8888 13.3547L13.3547 20.8888L14.0618 21.5959L21.5959 14.0618L20.8888 13.3547ZM12 22.5C12.8054 22.5 13.5294 22.1283 14.0618 21.5959L13.3547 20.8888C12.9711 21.2724 12.49 21.5 12 21.5V22.5ZM21.5 12C21.5 12.49 21.2724 12.9711 20.8888 13.3547L21.5959 14.0618C22.1283 13.5294 22.5 12.8054 22.5 12H21.5ZM12.1827 15.5407C11.0754 15.7345 9.99788 15.6897 9.03416 15.4481L8.79104 16.4181C9.89549 16.6949 11.1147 16.7428 12.355 16.5258L12.1827 15.5407ZM14.9924 9.64513C15.0776 9.96318 15.0621 10.2525 14.9933 10.4558C14.9232 10.6631 14.8233 10.7257 14.7682 10.7405L15.0271 11.7064C15.5055 11.5782 15.8016 11.1871 15.9406 10.7763C16.0809 10.3615 16.0875 9.86846 15.9583 9.38631L14.9924 9.64513ZM14.7682 10.7405C14.7132 10.7552 14.5954 10.7509 14.431 10.6065C14.2698 10.4648 14.1117 10.222 14.0265 9.90395L13.0605 10.1628C13.1897 10.6449 13.442 11.0686 13.7709 11.3576C14.0966 11.6439 14.5486 11.8346 15.0271 11.7064L14.7682 10.7405ZM14.0265 9.90395C13.9412 9.5859 13.9568 9.29655 14.0255 9.09326C14.0956 8.886 14.1956 8.82336 14.2506 8.80862L13.9918 7.84269C13.5133 7.97089 13.2172 8.36201 13.0783 8.77281C12.9379 9.18759 12.9313 9.68062 13.0605 10.1628L14.0265 9.90395ZM14.2506 8.80862C14.3056 8.79388 14.4235 8.79815 14.5879 8.94259C14.7491 9.08425 14.9072 9.32708 14.9924 9.64513L15.9583 9.38631C15.8291 8.90416 15.5769 8.48049 15.248 8.19144C14.9222 7.90515 14.4702 7.71449 13.9918 7.84269L14.2506 8.80862ZM9.19698 11.1981C9.2822 11.5162 9.26669 11.8055 9.19792 12.0088C9.1278 12.2161 9.02785 12.2787 8.97284 12.2934L9.23166 13.2594C9.71011 13.1312 10.0062 12.7401 10.1452 12.3293C10.2855 11.9145 10.2921 11.4214 10.1629 10.9393L9.19698 11.1981ZM8.97284 12.2934C8.91783 12.3082 8.79994 12.3039 8.63559 12.1595C8.47439 12.0178 8.31628 11.775 8.23105 11.4569L7.26513 11.7157C7.39432 12.1979 7.64655 12.6216 7.97546 12.9106C8.30121 13.1969 8.7532 13.3876 9.23166 13.2594L8.97284 12.2934ZM8.23105 11.4569C8.14583 11.1389 8.16135 10.8495 8.23012 10.6462C8.30023 10.439 8.40019 10.3763 8.4552 10.3616L8.19638 9.39567C7.71792 9.52387 7.42182 9.91499 7.28285 10.3258C7.14254 10.7406 7.13594 11.2336 7.26513 11.7157L8.23105 11.4569ZM8.4552 10.3616C8.51021 10.3469 8.62809 10.3511 8.79245 10.4956C8.95364 10.6372 9.11176 10.8801 9.19698 11.1981L10.1629 10.9393C10.0337 10.4571 9.78149 10.0335 9.45258 9.74441C9.12682 9.45813 8.67484 9.26747 8.19638 9.39567L8.4552 10.3616ZM12.5 22C12.5 19.1653 12.5071 17.8754 12.8648 16.8532L11.9209 16.5229C11.4929 17.7459 11.5 19.2489 11.5 22H12.5ZM22 11.5C19.2489 11.5 17.7459 11.4929 16.5229 11.9209L16.8532 12.8648C17.8754 12.5071 19.1653 12.5 22 12.5V11.5ZM12.8648 16.8532C13.5181 14.9861 14.9861 13.5181 16.8532 12.8648L16.5229 11.9209C14.3686 12.6747 12.6747 14.3686 11.9209 16.5229L12.8648 16.8532Z" fill="#424242"/>
</svg>
