<svg width="24" height="24" viewBox="0 0 24 24" fill="none" xmlns="http://www.w3.org/2000/svg">
<path d="M5 22L8.84856 20.6272C9.30437 20.4646 9.68576 20.1423 9.92204 19.7199L12.6343 14.8717C12.8012 14.5733 12.8889 14.2371 12.8889 13.8953V11.2748C12.8889 10.1979 11.7878 9.47189 10.798 9.89609L8.34221 10.9486C7.35935 11.3698 7.12031 12.6548 7.88594 13.4013L8.5 14M19 22V16.7679C19 15.5353 17.8958 14.5961 16.6792 14.7938L15.6667 14.9583M17 4.5C17 5.88071 15.8807 7 14.5 7C13.1193 7 12 5.88071 12 4.5C12 3.11929 13.1193 2 14.5 2C15.8807 2 17 3.11929 17 4.5Z" stroke="#424242" stroke-linecap="round" stroke-linejoin="round"/>
</svg>
