<svg width="24" height="24" viewBox="0 0 24 24" fill="none" xmlns="http://www.w3.org/2000/svg">
<path d="M8 5C8 6.65685 6.65685 8 5 8M8 5C8 3.34315 6.65685 2 5 2C3.34315 2 2 3.34315 2 5C2 6.65685 3.34315 8 5 8M8 5H16M5 8V16M19 8C20.6569 8 22 6.65685 22 5C22 3.34315 20.6569 2 19 2C17.3431 2 16 3.34315 16 5M19 8C17.3431 8 16 6.65685 16 5M19 8V16M8 19C8 20.6569 6.65685 22 5 22C3.34315 22 2 20.6569 2 19C2 17.3431 3.34315 16 5 16M8 19C8 17.3431 6.65685 16 5 16M8 19H16M16 19C16 20.6569 17.3431 22 19 22C20.6569 22 22 20.6569 22 19C22 17.3431 20.6569 16 19 16M16 19C16 17.3431 17.3431 16 19 16" stroke="#424242" stroke-linecap="round"/>
</svg>
