<svg width="24" height="24" viewBox="0 0 24 24" fill="none" xmlns="http://www.w3.org/2000/svg">
<path d="M10 16.5C10.2761 16.5 10.5 16.2761 10.5 16C10.5 15.7239 10.2761 15.5 10 15.5V16.5ZM6 15.5C5.72386 15.5 5.5 15.7239 5.5 16C5.5 16.2761 5.72386 16.5 6 16.5V15.5ZM14 12.5C13.7239 12.5 13.5 12.7239 13.5 13C13.5 13.2761 13.7239 13.5 14 13.5V12.5ZM18 13.5C18.2761 13.5 18.5 13.2761 18.5 13C18.5 12.7239 18.2761 12.5 18 12.5V13.5ZM14 16.5C14.2761 16.5 14.5 16.2761 14.5 16C14.5 15.7239 14.2761 15.5 14 15.5V16.5ZM12.5 15.5C12.2239 15.5 12 15.7239 12 16C12 16.2761 12.2239 16.5 12.5 16.5V15.5ZM9.5 12.5C9.22386 12.5 9 12.7239 9 13C9 13.2761 9.22386 13.5 9.5 13.5V12.5ZM11.5 13.5C11.7761 13.5 12 13.2761 12 13C12 12.7239 11.7761 12.5 11.5 12.5V13.5ZM18 16.5C18.2761 16.5 18.5 16.2761 18.5 16C18.5 15.7239 18.2761 15.5 18 15.5V16.5ZM16.5 15.5C16.2239 15.5 16 15.7239 16 16C16 16.2761 16.2239 16.5 16.5 16.5V15.5ZM6 12.5C5.72386 12.5 5.5 12.7239 5.5 13C5.5 13.2761 5.72386 13.5 6 13.5V12.5ZM7 13.5C7.27614 13.5 7.5 13.2761 7.5 13C7.5 12.7239 7.27614 12.5 7 12.5V13.5ZM10 4.5H14V3.5H10V4.5ZM14 19.5H10V20.5H14V19.5ZM10 19.5C8.10025 19.5 6.72573 19.4989 5.67754 19.358C4.64373 19.219 4.00253 18.9523 3.52513 18.4749L2.81802 19.182C3.51219 19.8762 4.39959 20.1952 5.54429 20.3491C6.6746 20.5011 8.12852 20.5 10 20.5V19.5ZM1.5 12C1.5 13.8715 1.49894 15.3254 1.65091 16.4557C1.80481 17.6004 2.12385 18.4878 2.81802 19.182L3.52513 18.4749C3.04772 17.9975 2.78098 17.3563 2.64199 16.3225C2.50106 15.2743 2.5 13.8998 2.5 12H1.5ZM21.5 12C21.5 13.8998 21.4989 15.2743 21.358 16.3225C21.219 17.3563 20.9523 17.9975 20.4749 18.4749L21.182 19.182C21.8762 18.4878 22.1952 17.6004 22.3491 16.4557C22.5011 15.3254 22.5 13.8715 22.5 12H21.5ZM14 20.5C15.8715 20.5 17.3254 20.5011 18.4557 20.3491C19.6004 20.1952 20.4878 19.8762 21.182 19.182L20.4749 18.4749C19.9975 18.9523 19.3563 19.219 18.3225 19.358C17.2743 19.4989 15.8998 19.5 14 19.5V20.5ZM14 4.5C15.8998 4.5 17.2743 4.50106 18.3225 4.64199C19.3563 4.78098 19.9975 5.04772 20.4749 5.52513L21.182 4.81802C20.4878 4.12385 19.6004 3.80481 18.4557 3.65091C17.3254 3.49894 15.8715 3.5 14 3.5V4.5ZM22.5 12C22.5 10.1285 22.5011 8.67461 22.3491 7.54429C22.1952 6.39959 21.8762 5.51219 21.182 4.81802L20.4749 5.52513C20.9523 6.00253 21.219 6.64373 21.358 7.67754C21.4989 8.72573 21.5 10.1002 21.5 12H22.5ZM10 3.5C8.12852 3.5 6.67461 3.49894 5.54429 3.65091C4.39959 3.80481 3.51219 4.12385 2.81802 4.81802L3.52513 5.52513C4.00253 5.04772 4.64373 4.78098 5.67754 4.64199C6.72573 4.50106 8.10025 4.5 10 4.5V3.5ZM2.5 12C2.5 10.1002 2.50106 8.72573 2.64199 7.67754C2.78098 6.64373 3.04772 6.00253 3.52513 5.52513L2.81802 4.81802C2.12385 5.51219 1.80481 6.39959 1.65091 7.54429C1.49894 8.67461 1.5 10.1285 1.5 12H2.5ZM10 15.5H6V16.5H10V15.5ZM14 13.5H18V12.5H14V13.5ZM14 15.5H12.5V16.5H14V15.5ZM9.5 13.5H11.5V12.5H9.5V13.5ZM18 15.5H16.5V16.5H18V15.5ZM6 13.5H7V12.5H6V13.5Z" fill="#424242"/>
</svg>
