<svg width="24" height="24" viewBox="0 0 24 24" fill="none" xmlns="http://www.w3.org/2000/svg">
<path d="M8 21.5C7.72386 21.5 7.5 21.7239 7.5 22C7.5 22.2761 7.72386 22.5 8 22.5V21.5ZM16 22.5C16.2761 22.5 16.5 22.2761 16.5 22C16.5 21.7239 16.2761 21.5 16 21.5V22.5ZM5 18.5C4.72386 18.5 4.5 18.7239 4.5 19C4.5 19.2761 4.72386 19.5 5 19.5V18.5ZM19 19.5C19.2761 19.5 19.5 19.2761 19.5 19C19.5 18.7239 19.2761 18.5 19 18.5V19.5ZM2 15.5C1.72386 15.5 1.5 15.7239 1.5 16C1.5 16.2761 1.72386 16.5 2 16.5V15.5ZM22 16.5C22.2761 16.5 22.5 16.2761 22.5 16C22.5 15.7239 22.2761 15.5 22 15.5V16.5ZM16.5 15.9687V16.4687H16.7256L16.8749 16.2996L16.5 15.9687ZM7.5 15.9687L7.12513 16.2996L7.27441 16.4687H7.5V15.9687ZM12 10L12.3536 9.64645C12.1583 9.45118 11.8417 9.45118 11.6464 9.64645L12 10ZM13.6464 12.3536C13.8417 12.5488 14.1583 12.5488 14.3536 12.3536C14.5488 12.1583 14.5488 11.8417 14.3536 11.6464L13.6464 12.3536ZM9.64645 11.6464C9.45118 11.8417 9.45118 12.1583 9.64645 12.3536C9.84171 12.5488 10.1583 12.5488 10.3536 12.3536L9.64645 11.6464ZM12.5 2C12.5 1.72386 12.2761 1.5 12 1.5C11.7239 1.5 11.5 1.72386 11.5 2H12.5ZM11.5 3C11.5 3.27614 11.7239 3.5 12 3.5C12.2761 3.5 12.5 3.27614 12.5 3H11.5ZM22 12.5C22.2761 12.5 22.5 12.2761 22.5 12C22.5 11.7239 22.2761 11.5 22 11.5V12.5ZM21 11.5C20.7239 11.5 20.5 11.7239 20.5 12C20.5 12.2761 20.7239 12.5 21 12.5V11.5ZM3 12.5C3.27614 12.5 3.5 12.2761 3.5 12C3.5 11.7239 3.27614 11.5 3 11.5V12.5ZM2 11.5C1.72386 11.5 1.5 11.7239 1.5 12C1.5 12.2761 1.72386 12.5 2 12.5V11.5ZM19.4244 5.28275C19.6196 5.08749 19.6196 4.77091 19.4244 4.57565C19.2291 4.38038 18.9125 4.38038 18.7172 4.57565L19.4244 5.28275ZM18.3244 4.96848C18.1291 5.16374 18.1291 5.48033 18.3244 5.67559C18.5197 5.87085 18.8363 5.87085 19.0315 5.67559L18.3244 4.96848ZM4.96822 5.67533C5.16349 5.87059 5.48007 5.87059 5.67533 5.67533C5.87059 5.48007 5.87059 5.16349 5.67533 4.96822L4.96822 5.67533ZM5.28249 4.57539C5.08723 4.38012 4.77065 4.38012 4.57539 4.57539C4.38012 4.77065 4.38012 5.08723 4.57539 5.28249L5.28249 4.57539ZM8 22.5H16V21.5H8V22.5ZM5 19.5H19V18.5H5V19.5ZM2 16.5H22V15.5H2V16.5ZM6.5 12C6.5 8.96243 8.96243 6.5 12 6.5V5.5C8.41015 5.5 5.5 8.41015 5.5 12H6.5ZM12 6.5C15.0376 6.5 17.5 8.96243 17.5 12H18.5C18.5 8.41015 15.5899 5.5 12 5.5V6.5ZM17.5 12C17.5 13.3952 16.9811 14.668 16.1251 15.6379L16.8749 16.2996C17.8859 15.1541 18.5 13.6481 18.5 12H17.5ZM7.87487 15.6379C7.01885 14.668 6.5 13.3952 6.5 12H5.5C5.5 13.6481 6.11406 15.1541 7.12513 16.2996L7.87487 15.6379ZM16.5 15.4687H7.5V16.4687H16.5V15.4687ZM12.5 16V10H11.5V16H12.5ZM11.6464 10.3536L13.6464 12.3536L14.3536 11.6464L12.3536 9.64645L11.6464 10.3536ZM11.6464 9.64645L9.64645 11.6464L10.3536 12.3536L12.3536 10.3536L11.6464 9.64645ZM11.5 2V3H12.5V2H11.5ZM22 11.5H21V12.5H22V11.5ZM3 11.5H2V12.5H3V11.5ZM18.7172 4.57565L18.3244 4.96848L19.0315 5.67559L19.4244 5.28275L18.7172 4.57565ZM5.67533 4.96822L5.28249 4.57539L4.57539 5.28249L4.96822 5.67533L5.67533 4.96822Z" fill="#424242"/>
</svg>
