<svg width="24" height="24" viewBox="0 0 24 24" fill="none" xmlns="http://www.w3.org/2000/svg">
<path d="M19.6667 9.5C19.6667 5.35786 16.3088 2 12.1667 2C8.02453 2 4.66667 5.35786 4.66667 9.5M13.8333 20.3333H14.6667C17.4281 20.3333 19.6667 18.0948 19.6667 15.3333M13.8333 20.3333C13.8333 21.2538 13.0871 22 12.1667 22C11.2462 22 10.5 21.2538 10.5 20.3333C10.5 19.4129 11.2462 18.6667 12.1667 18.6667C13.0871 18.6667 13.8333 19.4129 13.8333 20.3333ZM5.08333 15.3333C3.93274 15.3333 3 14.4006 3 13.25V11.5833C3 10.4327 3.93274 9.5 5.08333 9.5C6.23393 9.5 7.16667 10.4327 7.16667 11.5833V13.25C7.16667 14.4006 6.23393 15.3333 5.08333 15.3333ZM19.25 15.3333C18.0994 15.3333 17.1667 14.4006 17.1667 13.25V11.5833C17.1667 10.4327 18.0994 9.5 19.25 9.5C20.4006 9.5 21.3333 10.4327 21.3333 11.5833V13.25C21.3333 14.4006 20.4006 15.3333 19.25 15.3333Z" stroke="#424242" stroke-linecap="round"/>
</svg>
