<svg width="24" height="24" viewBox="0 0 24 24" fill="none" xmlns="http://www.w3.org/2000/svg">
<path d="M6.18182 10.5455L6.53537 10.899V10.899L6.18182 10.5455ZM13.4545 17.8182L13.8081 18.1717V18.1717L13.4545 17.8182ZM17.7374 9.0101L17.3838 9.36365V9.36365L17.7374 9.0101ZM19.0239 10.5692L19.4937 10.3982L19.0239 10.5692ZM17.7374 13.5354L17.3838 13.1818V13.1818L17.7374 13.5354ZM19.0239 11.9763L19.4937 12.1473L19.0239 11.9763ZM14.9899 6.26263L15.3435 5.90907L14.9899 6.26263ZM13.4308 4.97611L13.2598 5.44595L13.4308 4.97611ZM10.4646 6.26263L10.8182 6.61618V6.61618L10.4646 6.26263ZM12.0237 4.97611L12.1947 5.44595L12.0237 4.97611ZM16.0101 7.28281C15.8148 7.47807 15.8148 7.79465 16.0101 7.98992C16.2053 8.18518 16.5219 8.18518 16.7172 7.98992L16.0101 7.28281ZM19.6464 7.26264C19.8417 7.45791 20.1583 7.45791 20.3536 7.26264C20.5488 7.06738 20.5488 6.7508 20.3536 6.55554L19.6464 7.26264ZM17.4445 3.64645C17.2492 3.45118 16.9326 3.45118 16.7374 3.64645C16.5421 3.84171 16.5421 4.15829 16.7374 4.35355L17.4445 3.64645ZM3.64645 19.6464C3.45118 19.8417 3.45118 20.1583 3.64645 20.3536C3.84171 20.5488 4.15829 20.5488 4.35355 20.3536L3.64645 19.6464ZM16.7374 14.5354C16.9326 14.7306 17.2492 14.7306 17.4445 14.5354C17.6397 14.3401 17.6397 14.0235 17.4445 13.8283L16.7374 14.5354ZM10.1717 6.55554C9.97647 6.36027 9.65989 6.36027 9.46463 6.55554C9.26937 6.7508 9.26937 7.06738 9.46463 7.26264L10.1717 6.55554ZM14.5555 16.7172C14.7508 16.9125 15.0674 16.9125 15.2626 16.7172C15.4579 16.5219 15.4579 16.2053 15.2626 16.0101L14.5555 16.7172ZM12.3773 13.1247C12.182 12.9295 11.8654 12.9295 11.6702 13.1247C11.4749 13.32 11.4749 13.6366 11.6702 13.8318L12.3773 13.1247ZM12.9192 18.3536C13.1144 18.5488 13.431 18.5488 13.6263 18.3536C13.8215 18.1583 13.8215 17.8417 13.6263 17.6464L12.9192 18.3536ZM11.9803 16.0005C11.7851 15.8053 11.4685 15.8053 11.2732 16.0005C11.078 16.1958 11.078 16.5124 11.2732 16.7076L11.9803 16.0005ZM14.6363 6.61618L17.3838 9.36365L18.0909 8.65655L15.3435 5.90907L14.6363 6.61618ZM17.3838 13.1818L13.101 17.4646L13.8081 18.1717L18.0909 13.8889L17.3838 13.1818ZM6.53537 10.899L10.8182 6.61618L10.1111 5.90907L5.82827 10.1919L6.53537 10.899ZM6.53537 17.4646C4.72233 15.6516 4.72233 12.7121 6.53537 10.899L5.82827 10.1919C3.6247 12.3955 3.62469 15.9682 5.82826 18.1717L6.53537 17.4646ZM13.101 17.4646C11.2879 19.2777 8.34842 19.2777 6.53537 17.4646L5.82826 18.1717C8.03183 20.3753 11.6045 20.3753 13.8081 18.1717L13.101 17.4646ZM17.3838 9.36365C17.7661 9.74589 18.0328 10.0131 18.2255 10.2374C18.4149 10.4578 18.5053 10.6062 18.554 10.7402L19.4937 10.3982C19.3865 10.1036 19.2105 9.84937 18.984 9.58573C18.7609 9.32605 18.4624 9.02801 18.0909 8.65655L17.3838 9.36365ZM18.0909 13.8889C18.4624 13.5174 18.7609 13.2194 18.984 12.9597C19.2105 12.6961 19.3865 12.4419 19.4937 12.1473L18.554 11.8053C18.5053 11.9392 18.4149 12.0877 18.2255 12.308C18.0328 12.5323 17.7661 12.7996 17.3838 13.1818L18.0909 13.8889ZM18.554 10.7402C18.6792 11.0842 18.6792 11.4613 18.554 11.8053L19.4937 12.1473C19.6993 11.5824 19.6993 10.9631 19.4937 10.3982L18.554 10.7402ZM15.3435 5.90907C14.972 5.53761 14.674 5.2391 14.4143 5.01598C14.1506 4.78945 13.8964 4.61348 13.6018 4.50626L13.2598 5.44595C13.3938 5.49471 13.5422 5.58515 13.7626 5.77446C13.9869 5.96718 14.2541 6.23394 14.6363 6.61618L15.3435 5.90907ZM10.8182 6.61618C11.2004 6.23394 11.4677 5.96718 11.692 5.77446C11.9123 5.58515 12.0608 5.49471 12.1947 5.44595L11.8527 4.50626C11.5581 4.61348 11.3039 4.78945 11.0403 5.01598C10.7806 5.2391 10.4826 5.53761 10.1111 5.90907L10.8182 6.61618ZM13.6018 4.50626C13.0369 4.30065 12.4176 4.30065 11.8527 4.50626L12.1947 5.44595C12.5387 5.32075 12.9158 5.32075 13.2598 5.44595L13.6018 4.50626ZM16.7172 7.98992L18.899 5.8081L18.1919 5.10099L16.0101 7.28281L16.7172 7.98992ZM18.1919 5.8081L19.6464 7.26264L20.3536 6.55554L18.899 5.10099L18.1919 5.8081ZM18.899 5.10099L17.4445 3.64645L16.7374 4.35355L18.1919 5.8081L18.899 5.10099ZM5.82826 17.4646L3.64645 19.6464L4.35355 20.3536L6.53537 18.1717L5.82826 17.4646ZM17.4445 13.8283L10.1717 6.55554L9.46463 7.26264L16.7374 14.5354L17.4445 13.8283ZM15.2626 16.0101L12.3773 13.1247L11.6702 13.8318L14.5555 16.7172L15.2626 16.0101ZM13.6263 17.6464L11.9803 16.0005L11.2732 16.7076L12.9192 18.3536L13.6263 17.6464Z" fill="#424242"/>
</svg>
