<svg width="24" height="24" viewBox="0 0 24 24" fill="none" xmlns="http://www.w3.org/2000/svg">
<path d="M2.5 8.05555H21.5M2 14.9167H22M12 8.41666V22M10 22C9.82952 22 9.66289 22 9.5 21.9999C7.79954 21.9986 6.50725 21.9843 5.5 21.82C4.46945 21.6519 3.73727 21.3268 3.17157 20.6983C2 19.3965 2 17.3014 2 13.1111V10.8889C2 6.69863 2 4.6035 3.17157 3.30175C4.34315 2 6.22876 2 10 2H14C17.7712 2 19.6569 2 20.8284 3.30175C22 4.6035 22 6.69863 22 10.8889V13.1111C22 17.3014 22 19.3965 20.8284 20.6983C20.0948 21.5134 19.0812 21.8181 17.5 21.932C16.556 22 15.4098 22 14 22H10Z" stroke="#424242" stroke-linecap="round" stroke-linejoin="round"/>
</svg>
