<svg width="24" height="24" viewBox="0 0 24 24" fill="none" xmlns="http://www.w3.org/2000/svg">
<path d="M14 20V20.5V20.5V20ZM14 4V3.5V4ZM10 4V4.5V4ZM10 20V19.5V19.5V20ZM15 17.5C15.2761 17.5 15.5 17.2761 15.5 17C15.5 16.7239 15.2761 16.5 15 16.5V17V17.5ZM9 16.5C8.72386 16.5 8.5 16.7239 8.5 17C8.5 17.2761 8.72386 17.5 9 17.5V17V16.5ZM10 4V4.5L14 4.5V4V3.5L10 3.5V4ZM14 20V19.5H10V20V20.5H14V20ZM22 12H21.5C21.5 13.8998 21.4989 15.2743 21.358 16.3225C21.219 17.3563 20.9523 17.9975 20.4749 18.4749L20.8284 18.8284L21.182 19.182C21.8762 18.4878 22.1952 17.6004 22.3491 16.4557C22.5011 15.3254 22.5 13.8715 22.5 12H22ZM14 20V20.5C15.8715 20.5 17.3254 20.5011 18.4557 20.3491C19.6004 20.1952 20.4878 19.8762 21.182 19.182L20.8284 18.8284L20.4749 18.4749C19.9975 18.9523 19.3563 19.219 18.3225 19.358C17.2743 19.4989 15.8998 19.5 14 19.5V20ZM14 4V4.5C15.8998 4.5 17.2743 4.50106 18.3225 4.64199C19.3563 4.78098 19.9975 5.04772 20.4749 5.52513L20.8284 5.17157L21.182 4.81802C20.4878 4.12385 19.6004 3.80481 18.4557 3.65091C17.3254 3.49894 15.8715 3.5 14 3.5V4ZM22 12H22.5C22.5 10.1285 22.5011 8.6746 22.3491 7.54429C22.1952 6.39959 21.8762 5.51219 21.182 4.81802L20.8284 5.17157L20.4749 5.52513C20.9523 6.00253 21.219 6.64372 21.358 7.67754C21.4989 8.72573 21.5 10.1002 21.5 12H22ZM2 12H2.5C2.5 10.1002 2.50106 8.72573 2.64199 7.67754C2.78098 6.64373 3.04772 6.00253 3.52513 5.52513L3.17157 5.17157L2.81802 4.81802C2.12385 5.51219 1.80481 6.39959 1.65091 7.54429C1.49894 8.67461 1.5 10.1285 1.5 12H2ZM10 4V3.5C8.12852 3.5 6.67461 3.49894 5.54429 3.65091C4.39959 3.80481 3.51219 4.12385 2.81802 4.81802L3.17157 5.17157L3.52513 5.52513C4.00253 5.04772 4.64372 4.78098 5.67754 4.64199C6.72573 4.50106 8.10025 4.5 10 4.5V4ZM2 12H1.5C1.5 13.8715 1.49894 15.3254 1.65091 16.4557C1.80481 17.6004 2.12385 18.4878 2.81802 19.182L3.17157 18.8284L3.52513 18.4749C3.04772 17.9975 2.78098 17.3563 2.64199 16.3225C2.50106 15.2743 2.5 13.8998 2.5 12H2ZM10 20V19.5C8.10025 19.5 6.72573 19.4989 5.67754 19.358C4.64373 19.219 4.00253 18.9523 3.52513 18.4749L3.17157 18.8284L2.81802 19.182C3.51219 19.8762 4.39959 20.1952 5.54429 20.3491C6.67461 20.5011 8.12852 20.5 10 20.5V20ZM15 17V16.5H9V17V17.5H15V17Z" fill="#424242"/>
</svg>
