<svg width="24" height="24" viewBox="0 0 24 24" fill="none" xmlns="http://www.w3.org/2000/svg">
<path d="M5 12.5C5.27614 12.5 5.5 12.2761 5.5 12C5.5 11.7239 5.27614 11.5 5 11.5V12V12.5ZM19 11.5C18.7239 11.5 18.5 11.7239 18.5 12C18.5 12.2761 18.7239 12.5 19 12.5V12V11.5ZM12.5 19C12.5 18.7239 12.2761 18.5 12 18.5C11.7239 18.5 11.5 18.7239 11.5 19H12H12.5ZM11.5 5C11.5 5.27614 11.7239 5.5 12 5.5C12.2761 5.5 12.5 5.27614 12.5 5H12H11.5ZM10 11.5C9.72386 11.5 9.5 11.7239 9.5 12C9.5 12.2761 9.72386 12.5 10 12.5V12V11.5ZM14 12.5C14.2761 12.5 14.5 12.2761 14.5 12C14.5 11.7239 14.2761 11.5 14 11.5V12V12.5ZM11.5 14C11.5 14.2761 11.7239 14.5 12 14.5C12.2761 14.5 12.5 14.2761 12.5 14H12H11.5ZM12.5 10C12.5 9.72386 12.2761 9.5 12 9.5C11.7239 9.5 11.5 9.72386 11.5 10H12H12.5ZM22 12H21.5C21.5 17.2467 17.2467 21.5 12 21.5V22V22.5C17.799 22.5 22.5 17.799 22.5 12H22ZM12 22V21.5C6.75329 21.5 2.5 17.2467 2.5 12H2H1.5C1.5 17.799 6.20101 22.5 12 22.5V22ZM2 12H2.5C2.5 6.75329 6.75329 2.5 12 2.5V2V1.5C6.20101 1.5 1.5 6.20101 1.5 12H2ZM12 2V2.5C17.2467 2.5 21.5 6.75329 21.5 12H22H22.5C22.5 6.20101 17.799 1.5 12 1.5V2ZM2 12V12.5H5V12V11.5H2V12ZM19 12V12.5H22V12V11.5H19V12ZM12 22H12.5V19H12H11.5V22H12ZM12 5H12.5V2H12H11.5V5H12ZM12 12V11.5H10V12V12.5H12V12ZM14 12V11.5H12V12V12.5H14V12ZM12 12H11.5V14H12H12.5V12H12ZM12 10H11.5V12H12H12.5V10H12Z" fill="#424242"/>
</svg>
