<svg width="24" height="24" viewBox="0 0 24 24" fill="none" xmlns="http://www.w3.org/2000/svg">
<path d="M3.46447 20.5355L3.11091 20.8891H3.11091L3.46447 20.5355ZM20.5355 3.46447L20.8891 3.11091V3.11091L20.5355 3.46447ZM6.36207 15.4552C6.17163 15.2552 5.85514 15.2475 5.65517 15.4379C5.45521 15.6284 5.44749 15.9449 5.63793 16.1448L6.36207 15.4552ZM7.14286 17L6.78079 17.3448C6.87516 17.4439 7.00602 17.5 7.14286 17.5C7.2797 17.5 7.41055 17.4439 7.50493 17.3448L7.14286 17ZM10.3621 14.3448C10.5525 14.1449 10.5448 13.8284 10.3448 13.6379C10.1449 13.4475 9.82837 13.4552 9.63793 13.6552L10.3621 14.3448ZM6.36207 8.45517C6.17163 8.25521 5.85514 8.24749 5.65517 8.43793C5.45521 8.62837 5.44749 8.94486 5.63793 9.14483L6.36207 8.45517ZM7.14286 10L6.78079 10.3448C6.87516 10.4439 7.00602 10.5 7.14286 10.5C7.2797 10.5 7.41055 10.4439 7.50493 10.3448L7.14286 10ZM10.3621 7.34483C10.5525 7.14486 10.5448 6.82837 10.3448 6.63793C10.1449 6.44749 9.82837 6.45521 9.63793 6.65517L10.3621 7.34483ZM21.48 9.01143C21.4864 9.2875 21.7153 9.50618 21.9913 9.49987C22.2674 9.49356 22.4861 9.26464 22.4798 8.98857L21.48 9.01143ZM8.98857 22.4798C9.26464 22.4861 9.49356 22.2674 9.49987 21.9913C9.50618 21.7153 9.2875 21.4864 9.01143 21.48L8.98857 22.4798ZM19.0189 12C18.7428 12 18.5189 12.2239 18.5189 12.5C18.5189 12.7761 18.7428 13 19.0189 13V12ZM19.0189 15.075C18.7428 15.075 18.5189 15.2989 18.5189 15.575C18.5189 15.8511 18.7428 16.075 19.0189 16.075V15.075ZM21.11 19.4146C20.8585 19.5287 20.7471 19.825 20.8612 20.0765C20.9752 20.328 21.2716 20.4394 21.5231 20.3253L21.11 19.4146ZM19.5297 16.2471C19.2547 16.222 19.0114 16.4246 18.9863 16.6996C18.9612 16.9746 19.1638 17.2178 19.4388 17.2429L19.5297 16.2471ZM1.5 12C1.5 14.3429 1.49894 16.1504 1.68752 17.553C1.87803 18.97 2.2703 20.0485 3.11091 20.8891L3.81802 20.182C3.19417 19.5581 2.8542 18.7259 2.6786 17.4197C2.50106 16.0992 2.5 14.3712 2.5 12H1.5ZM12 2.5C14.3712 2.5 16.0992 2.50106 17.4197 2.6786C18.7259 2.8542 19.5581 3.19417 20.182 3.81802L20.8891 3.11091C20.0485 2.2703 18.97 1.87803 17.553 1.68752C16.1504 1.49894 14.3429 1.5 12 1.5V2.5ZM12 1.5C9.65711 1.5 7.84965 1.49894 6.44702 1.68752C5.03 1.87803 3.95153 2.2703 3.11091 3.11091L3.81802 3.81802C4.44187 3.19417 5.27414 2.8542 6.58026 2.6786C7.90077 2.50106 9.62884 2.5 12 2.5V1.5ZM2.5 12C2.5 9.62884 2.50106 7.90077 2.6786 6.58026C2.8542 5.27414 3.19417 4.44187 3.81802 3.81802L3.11091 3.11091C2.2703 3.95153 1.87803 5.03 1.68752 6.44702C1.49894 7.84965 1.5 9.65711 1.5 12H2.5ZM5.63793 16.1448L6.78079 17.3448L7.50493 16.6552L6.36207 15.4552L5.63793 16.1448ZM7.50493 17.3448L10.3621 14.3448L9.63793 13.6552L6.78079 16.6552L7.50493 17.3448ZM5.63793 9.14483L6.78079 10.3448L7.50493 9.65517L6.36207 8.45517L5.63793 9.14483ZM7.50493 10.3448L10.3621 7.34483L9.63793 6.65517L6.78079 9.65517L7.50493 10.3448ZM22.4798 8.98857C22.4164 6.21574 22.1616 4.38341 20.8891 3.11091L20.182 3.81802C21.1374 4.7734 21.4158 6.20175 21.48 9.01143L22.4798 8.98857ZM9.01143 21.48C6.20175 21.4158 4.7734 21.1374 3.81802 20.182L3.11091 20.8891C4.38341 22.1616 6.21574 22.4164 8.98857 22.4798L9.01143 21.48ZM19.0189 13C19.5485 13 20.0119 13.4525 20.0119 14.04H21.0119C21.0119 12.9275 20.1277 12 19.0189 12V13ZM20.0119 14.04C20.0119 14.6264 19.5544 15.075 19.0189 15.075V16.075C20.1315 16.075 21.0119 15.1536 21.0119 14.04H20.0119ZM21.5231 20.3253C21.978 20.119 22.2515 19.813 22.386 19.4321C22.5054 19.0941 22.5 18.7261 22.5 18.455H21.5C21.5 18.7689 21.4946 18.9534 21.4431 19.0991C21.4068 19.202 21.3385 19.311 21.11 19.4146L21.5231 20.3253ZM22.5 18.455C22.5 17.7965 22.0836 17.2671 21.5559 16.9116C21.0217 16.5517 20.3079 16.3181 19.5297 16.2471L19.4388 17.2429C20.0857 17.3019 20.6297 17.4933 20.9971 17.7409C21.3711 17.9929 21.5 18.2535 21.5 18.455H22.5ZM17.3168 14C17.3168 14.8436 16.6585 15.5 15.8778 15.5V16.5C17.2397 16.5 18.3168 15.3664 18.3168 14H17.3168ZM15.8778 15.5C15.0972 15.5 14.4389 14.8436 14.4389 14H13.4389C13.4389 15.3664 14.5159 16.5 15.8778 16.5V15.5ZM14.4389 14C14.4389 13.1564 15.0972 12.5 15.8778 12.5V11.5C14.5159 11.5 13.4389 12.6336 13.4389 14H14.4389ZM15.8778 12.5C16.6585 12.5 17.3168 13.1564 17.3168 14H18.3168C18.3168 12.6336 17.2397 11.5 15.8778 11.5V12.5ZM19.2557 19.75C19.2557 20.4179 19.2287 20.7246 18.9495 20.9589C18.7935 21.0898 18.5181 21.2297 18.0177 21.334C17.519 21.438 16.8296 21.5 15.8778 21.5V22.5C16.865 22.5 17.6298 22.4364 18.2218 22.313C18.812 22.19 19.2637 22.0008 19.5924 21.7248C20.2827 21.1454 20.2557 20.3271 20.2557 19.75H19.2557ZM15.8778 21.5C14.9261 21.5 14.2367 21.438 13.738 21.334C13.2376 21.2297 12.9622 21.0898 12.8062 20.9589C12.527 20.7246 12.5 20.4179 12.5 19.75H11.5C11.5 20.3271 11.473 21.1454 12.1633 21.7248C12.492 22.0008 12.9437 22.19 13.5339 22.313C14.1259 22.4364 14.8907 22.5 15.8778 22.5V21.5ZM12.5 19.75C12.5 19.3803 12.7613 18.9531 13.3863 18.5907C13.9989 18.2354 14.8785 18 15.8778 18V17C14.7347 17 13.6754 17.2671 12.8847 17.7256C12.1064 18.1769 11.5 18.8747 11.5 19.75H12.5ZM15.8778 18C16.8772 18 17.7568 18.2354 18.3694 18.5907C18.9944 18.9531 19.2557 19.3803 19.2557 19.75H20.2557C20.2557 18.8747 19.6493 18.1769 18.871 17.7256C18.0803 17.2671 17.021 17 15.8778 17V18Z" fill="#424242"/>
</svg>
