<svg width="24" height="24" viewBox="0 0 24 24" fill="none" xmlns="http://www.w3.org/2000/svg">
<path d="M6.36207 15.4552C6.17163 15.2552 5.85514 15.2475 5.65517 15.4379C5.45521 15.6284 5.44749 15.9449 5.63793 16.1448L6.36207 15.4552ZM7.14286 17L6.78079 17.3448C6.87516 17.4439 7.00602 17.5 7.14286 17.5C7.2797 17.5 7.41055 17.4439 7.50493 17.3448L7.14286 17ZM10.3621 14.3448C10.5525 14.1449 10.5448 13.8284 10.3448 13.6379C10.1449 13.4475 9.82837 13.4552 9.63793 13.6552L10.3621 14.3448ZM6.36207 8.45517C6.17163 8.25521 5.85514 8.24749 5.65517 8.43793C5.45521 8.62837 5.44749 8.94486 5.63793 9.14483L6.36207 8.45517ZM7.14286 10L6.78079 10.3448C6.87516 10.4439 7.00602 10.5 7.14286 10.5C7.2797 10.5 7.41055 10.4439 7.50493 10.3448L7.14286 10ZM10.3621 7.34483C10.5525 7.14486 10.5448 6.82837 10.3448 6.63793C10.1449 6.44749 9.82837 6.45521 9.63793 6.65517L10.3621 7.34483ZM13 8.5C12.7239 8.5 12.5 8.72386 12.5 9C12.5 9.27614 12.7239 9.5 13 9.5V8.5ZM18 9.5C18.2761 9.5 18.5 9.27614 18.5 9C18.5 8.72386 18.2761 8.5 18 8.5V9.5ZM13 15.5C12.7239 15.5 12.5 15.7239 12.5 16C12.5 16.2761 12.7239 16.5 13 16.5V15.5ZM18 16.5C18.2761 16.5 18.5 16.2761 18.5 16C18.5 15.7239 18.2761 15.5 18 15.5V16.5ZM12 21.5C9.62884 21.5 7.90077 21.4989 6.58026 21.3214C5.27414 21.1458 4.44187 20.8058 3.81802 20.182L3.11091 20.8891C3.95153 21.7297 5.03 22.122 6.44702 22.3125C7.84965 22.5011 9.65711 22.5 12 22.5V21.5ZM1.5 12C1.5 14.3429 1.49894 16.1504 1.68752 17.553C1.87803 18.97 2.2703 20.0485 3.11091 20.8891L3.81802 20.182C3.19417 19.5581 2.8542 18.7259 2.6786 17.4197C2.50106 16.0992 2.5 14.3712 2.5 12H1.5ZM21.5 12C21.5 14.3712 21.4989 16.0992 21.3214 17.4197C21.1458 18.7259 20.8058 19.5581 20.182 20.182L20.8891 20.8891C21.7297 20.0485 22.122 18.97 22.3125 17.553C22.5011 16.1504 22.5 14.3429 22.5 12H21.5ZM12 22.5C14.3429 22.5 16.1504 22.5011 17.553 22.3125C18.97 22.122 20.0485 21.7297 20.8891 20.8891L20.182 20.182C19.5581 20.8058 18.7259 21.1458 17.4197 21.3214C16.0992 21.4989 14.3712 21.5 12 21.5V22.5ZM12 2.5C14.3712 2.5 16.0992 2.50106 17.4197 2.6786C18.7259 2.8542 19.5581 3.19417 20.182 3.81802L20.8891 3.11091C20.0485 2.2703 18.97 1.87803 17.553 1.68752C16.1504 1.49894 14.3429 1.5 12 1.5V2.5ZM22.5 12C22.5 9.65711 22.5011 7.84965 22.3125 6.44702C22.122 5.03 21.7297 3.95153 20.8891 3.11091L20.182 3.81802C20.8058 4.44187 21.1458 5.27414 21.3214 6.58026C21.4989 7.90077 21.5 9.62884 21.5 12H22.5ZM12 1.5C9.65711 1.5 7.84965 1.49894 6.44702 1.68752C5.03 1.87803 3.95153 2.2703 3.11091 3.11091L3.81802 3.81802C4.44187 3.19417 5.27414 2.8542 6.58026 2.6786C7.90077 2.50106 9.62884 2.5 12 2.5V1.5ZM2.5 12C2.5 9.62884 2.50106 7.90077 2.6786 6.58026C2.8542 5.27414 3.19417 4.44187 3.81802 3.81802L3.11091 3.11091C2.2703 3.95153 1.87803 5.03 1.68752 6.44702C1.49894 7.84965 1.5 9.65711 1.5 12H2.5ZM5.63793 16.1448L6.78079 17.3448L7.50493 16.6552L6.36207 15.4552L5.63793 16.1448ZM7.50493 17.3448L10.3621 14.3448L9.63793 13.6552L6.78079 16.6552L7.50493 17.3448ZM5.63793 9.14483L6.78079 10.3448L7.50493 9.65517L6.36207 8.45517L5.63793 9.14483ZM7.50493 10.3448L10.3621 7.34483L9.63793 6.65517L6.78079 9.65517L7.50493 10.3448ZM13 9.5H18V8.5H13V9.5ZM13 16.5H18V15.5H13V16.5Z" fill="#424242"/>
</svg>
