<svg width="24" height="24" viewBox="0 0 24 24" fill="none" xmlns="http://www.w3.org/2000/svg">
<path d="M11.6643 8.75249L11.9964 8.37874L11.9964 8.37874L11.6643 8.75249ZM11.5 10.425C11.5 10.7011 11.7239 10.925 12 10.925C12.2761 10.925 12.5 10.7011 12.5 10.425H11.5ZM11.7475 8.83575L12.1213 8.50362L12.1213 8.50362L11.7475 8.83575ZM6.33575 8.75249L6.00362 8.37874V8.37874L6.33575 8.75249ZM5.5 10.425C5.5 10.7011 5.72386 10.925 6 10.925C6.27614 10.925 6.5 10.7011 6.5 10.425H5.5ZM6.25249 8.83575L5.87874 8.50362V8.50362L6.25249 8.83575ZM7 15C6.72386 15 6.5 15.2239 6.5 15.5C6.5 15.7761 6.72386 16 7 16V15ZM11 16C11.2761 16 11.5 15.7761 11.5 15.5C11.5 15.2239 11.2761 15 11 15V16ZM10 4.5H14V3.5H10V4.5ZM14 19.5H10V20.5H14V19.5ZM10 19.5C8.10025 19.5 6.72573 19.4989 5.67754 19.358C4.64373 19.219 4.00253 18.9523 3.52513 18.4749L2.81802 19.182C3.51219 19.8762 4.39959 20.1952 5.54429 20.3491C6.6746 20.5011 8.12852 20.5 10 20.5V19.5ZM1.5 12C1.5 13.8715 1.49894 15.3254 1.65091 16.4557C1.80481 17.6004 2.12385 18.4878 2.81802 19.182L3.52513 18.4749C3.04772 17.9975 2.78098 17.3563 2.64199 16.3225C2.50106 15.2743 2.5 13.8998 2.5 12H1.5ZM21.5 12C21.5 13.8998 21.4989 15.2743 21.358 16.3225C21.219 17.3563 20.9523 17.9975 20.4749 18.4749L21.182 19.182C21.8762 18.4878 22.1952 17.6004 22.3491 16.4557C22.5011 15.3254 22.5 13.8715 22.5 12H21.5ZM14 20.5C15.8715 20.5 17.3254 20.5011 18.4557 20.3491C19.6004 20.1952 20.4878 19.8762 21.182 19.182L20.4749 18.4749C19.9975 18.9523 19.3563 19.219 18.3225 19.358C17.2743 19.4989 15.8998 19.5 14 19.5V20.5ZM14 4.5C15.8998 4.5 17.2743 4.50106 18.3225 4.64199C19.3563 4.78098 19.9975 5.04772 20.4749 5.52513L21.182 4.81802C20.4878 4.12385 19.6004 3.80481 18.4557 3.65091C17.3254 3.49894 15.8715 3.5 14 3.5V4.5ZM22.5 12C22.5 10.1285 22.5011 8.67461 22.3491 7.54429C22.1952 6.39959 21.8762 5.51219 21.182 4.81802L20.4749 5.52513C20.9523 6.00253 21.219 6.64373 21.358 7.67754C21.4989 8.72573 21.5 10.1002 21.5 12H22.5ZM10 3.5C8.12852 3.5 6.67461 3.49894 5.54429 3.65091C4.39959 3.80481 3.51219 4.12385 2.81802 4.81802L3.52513 5.52513C4.00253 5.04772 4.64373 4.78098 5.67754 4.64199C6.72573 4.50106 8.10025 4.5 10 4.5V3.5ZM2.5 12C2.5 10.1002 2.50106 8.72573 2.64199 7.67754C2.78098 6.64373 3.04772 6.00253 3.52513 5.52513L2.81802 4.81802C2.12385 5.51219 1.80481 6.39959 1.65091 7.54429C1.49894 8.67461 1.5 10.1285 1.5 12H2.5ZM7.925 9H9V8H7.925V9ZM9 9H10.075V8H9V9ZM9.5 15.5V8.5H8.5V15.5H9.5ZM10.075 9C10.523 9 10.8126 9.00091 11.0275 9.02772C11.2301 9.05299 11.2962 9.09428 11.3321 9.12625L11.9964 8.37874C11.7482 8.15821 11.4547 8.07326 11.1512 8.03541C10.8601 7.99909 10.497 8 10.075 8V9ZM12.5 10.425C12.5 10.003 12.5009 9.63994 12.4646 9.34876C12.4267 9.0453 12.3418 8.75179 12.1213 8.50362L11.3738 9.16787C11.4057 9.20384 11.447 9.26992 11.4723 9.47253C11.4991 9.68743 11.5 9.97697 11.5 10.425H12.5ZM11.3321 9.12625C11.3468 9.13929 11.3607 9.15319 11.3738 9.16787L12.1213 8.50362C12.0821 8.45957 12.0404 8.41787 11.9964 8.37874L11.3321 9.12625ZM7.925 8C7.50296 8 7.13993 7.99909 6.84876 8.03541C6.5453 8.07326 6.25179 8.15821 6.00362 8.37874L6.66787 9.12625C6.70385 9.09428 6.76992 9.05299 6.97253 9.02772C7.18743 9.00091 7.47696 9 7.925 9V8ZM6.5 10.425C6.5 9.97697 6.50091 9.68743 6.52772 9.47253C6.55299 9.26992 6.59428 9.20384 6.62625 9.16787L5.87874 8.50362C5.65821 8.75179 5.57326 9.0453 5.53541 9.34876C5.49909 9.63994 5.5 10.003 5.5 10.425H6.5ZM6.00362 8.37874C5.95958 8.41788 5.91788 8.45958 5.87874 8.50362L6.62625 9.16787C6.63929 9.15319 6.65319 9.13929 6.66787 9.12625L6.00362 8.37874ZM7 16H9V15H7V16ZM9 16H11V15H9V16Z" fill="#424242"/>
</svg>
