<svg width="24" height="24" viewBox="0 0 24 24" fill="none" xmlns="http://www.w3.org/2000/svg">
<path d="M11.5 21C11.5 21.2761 11.7239 21.5 12 21.5C12.2761 21.5 12.5 21.2761 12.5 21H11.5ZM19.5 7.95C19.5 8.22614 19.7239 8.45 20 8.45C20.2761 8.45 20.5 8.22614 20.5 7.95H19.5ZM3.5 7.95C3.5 8.22614 3.72386 8.45 4 8.45C4.27614 8.45 4.5 8.22614 4.5 7.95H3.5ZM19.4142 3.58579L19.7678 3.23223L19.7678 3.23223L19.4142 3.58579ZM7 20.5C6.72386 20.5 6.5 20.7239 6.5 21C6.5 21.2761 6.72386 21.5 7 21.5V20.5ZM17 21.5C17.2761 21.5 17.5 21.2761 17.5 21C17.5 20.7239 17.2761 20.5 17 20.5V21.5ZM8 3.5H12V2.5H8V3.5ZM12 3.5H16V2.5H12V3.5ZM12.5 21V3H11.5V21H12.5ZM19.5 7V7.95H20.5V7H19.5ZM3.5 7V7.95H4.5V7H3.5ZM16 3.5C16.9569 3.5 17.6244 3.50106 18.1279 3.56876C18.6171 3.63453 18.8762 3.75483 19.0607 3.93934L19.7678 3.23223C19.3665 2.83096 18.8612 2.65836 18.2612 2.57768C17.6755 2.49894 16.9287 2.5 16 2.5V3.5ZM20.5 7C20.5 6.07133 20.5011 5.32452 20.4223 4.73883C20.3416 4.13876 20.169 3.63351 19.7678 3.23223L19.0607 3.93934C19.2452 4.12385 19.3655 4.3829 19.4312 4.87208C19.4989 5.37565 19.5 6.04306 19.5 7H20.5ZM8 2.5C7.07133 2.5 6.32452 2.49894 5.73883 2.57768C5.13876 2.65836 4.63351 2.83096 4.23223 3.23223L4.93934 3.93934C5.12385 3.75483 5.3829 3.63453 5.87208 3.56876C6.37565 3.50106 7.04306 3.5 8 3.5V2.5ZM4.5 7C4.5 6.04306 4.50106 5.37565 4.56876 4.87208C4.63453 4.3829 4.75483 4.12385 4.93934 3.93934L4.23223 3.23223C3.83096 3.63351 3.65836 4.13876 3.57768 4.73883C3.49894 5.32452 3.5 6.07133 3.5 7H4.5ZM7 21.5H17V20.5H7V21.5Z" fill="#424242"/>
</svg>
