<svg width="24" height="24" viewBox="0 0 24 24" fill="none" xmlns="http://www.w3.org/2000/svg">
<path d="M3.15525 18.8284L3.50847 18.4745H3.50847L3.15525 18.8284ZM20.8448 18.8284L20.4915 18.4745V18.4745L20.8448 18.8284ZM20.8448 5.17157L21.198 4.81769V4.81769L20.8448 5.17157ZM3.15525 5.17157L3.50847 5.52545V5.52545L3.15525 5.17157ZM2.49076 10.0652L2.61726 9.58144H2.61726L2.49076 10.0652ZM2.00016 9.49444L2.5 9.50724V9.50724L2.00016 9.49444ZM2.49076 13.9348L2.36426 13.4511H2.36426L2.49076 13.9348ZM2.00016 14.5056L1.50033 14.5184L2.00016 14.5056ZM21.5092 10.0652L21.3827 9.58144H21.3827L21.5092 10.0652ZM21.9998 9.49444L22.4997 9.48164V9.48164L21.9998 9.49444ZM21.5092 13.9348L21.6357 13.4511V13.4511L21.5092 13.9348ZM21.9998 14.5056L22.4997 14.5184V14.5184L21.9998 14.5056ZM10.4028 10.6884L10.5131 11.1761L10.5131 11.1761L10.4028 10.6884ZM11.0476 10.1989L10.6109 9.95542L10.6109 9.95542L11.0476 10.1989ZM9.68403 12.429L9.30403 12.7539V12.7539L9.68403 12.429ZM10.2119 10.7316L10.1015 10.2439L10.1015 10.2439L10.2119 10.7316ZM10.0605 13.3733L9.56283 13.325V13.325L10.0605 13.3733ZM9.81418 12.5812L10.1942 12.2562V12.2562L9.81418 12.5812ZM11.4227 14.6254L11.6318 15.0795H11.6318L11.4227 14.6254ZM10.0408 13.5763L10.5385 13.6245V13.6245L10.0408 13.5763ZM12.3986 14.5431L12.6077 14.0889L12.6077 14.0889L12.3986 14.5431ZM11.6014 14.5431L11.3923 14.0889H11.3923L11.6014 14.5431ZM12 14.4075V13.9075V14.4075ZM13.9592 13.5763L13.4615 13.6245V13.6245L13.9592 13.5763ZM12.5773 14.6254L12.3682 15.0795L12.3682 15.0795L12.5773 14.6254ZM14.1858 12.5812L13.8058 12.2562L13.8058 12.2562L14.1858 12.5812ZM13.9395 13.3733L14.4372 13.325V13.325L13.9395 13.3733ZM13.7881 10.7316L13.8985 10.2439L13.8985 10.2439L13.7881 10.7316ZM14.316 12.429L14.696 12.7539L14.696 12.7539L14.316 12.429ZM12.9524 10.1989L13.3891 9.95542L13.3891 9.95542L12.9524 10.1989ZM13.5972 10.6884L13.4869 11.1761L13.4869 11.1761L13.5972 10.6884ZM12.8541 10.0225L12.4173 10.266L12.4173 10.266L12.8541 10.0225ZM11.1459 10.0225L11.5827 10.266L11.5827 10.266L11.1459 10.0225ZM12 9V8.5V9ZM9.9963 4.5H14.0037V3.5H9.9963V4.5ZM14.0037 19.5H9.9963V20.5H14.0037V19.5ZM9.9963 19.5C8.09309 19.5 6.71588 19.4989 5.6656 19.358C4.62961 19.219 3.98692 18.9521 3.50847 18.4745L2.80202 19.1823C3.49731 19.8763 4.38605 20.1952 5.53259 20.3491C6.66485 20.5011 8.1213 20.5 9.9963 20.5V19.5ZM14.0037 20.5C15.8787 20.5 17.3351 20.5011 18.4674 20.3491C19.6139 20.1952 20.5027 19.8763 21.198 19.1823L20.4915 18.4745C20.0131 18.9521 19.3704 19.219 18.3344 19.358C17.2841 19.4989 15.9069 19.5 14.0037 19.5V20.5ZM14.0037 4.5C15.9069 4.5 17.2841 4.50106 18.3344 4.642C19.3704 4.78103 20.0131 5.04789 20.4915 5.52545L21.198 4.81769C20.5027 4.12369 19.6139 3.80475 18.4674 3.65089C17.3351 3.49894 15.8787 3.5 14.0037 3.5V4.5ZM9.9963 3.5C8.12131 3.5 6.66485 3.49894 5.53259 3.65089C4.38605 3.80475 3.49731 4.12369 2.80202 4.81769L3.50847 5.52545C3.98692 5.04789 4.62961 4.78103 5.6656 4.642C6.71588 4.50106 8.09309 4.5 9.9963 4.5V3.5ZM2.36426 10.5489C3.01022 10.7178 3.48521 11.3046 3.48521 12H4.48521C4.48521 10.8375 3.69126 9.8623 2.61726 9.58144L2.36426 10.5489ZM2.5 9.50724C2.5559 7.32452 2.78688 6.24571 3.50847 5.52545L2.80202 4.81769C1.76634 5.85146 1.55551 7.32692 1.50033 9.48164L2.5 9.50724ZM3.48521 12C3.48521 12.6954 3.01022 13.2822 2.36426 13.4511L2.61726 14.4186C3.69126 14.1377 4.48521 13.1625 4.48521 12H3.48521ZM1.50033 14.5184C1.55551 16.6731 1.76634 18.1485 2.80202 19.1823L3.50847 18.4745C2.78688 17.7543 2.5559 16.6755 2.5 14.4928L1.50033 14.5184ZM20.5148 12C20.5148 11.3046 20.9898 10.7178 21.6357 10.5489L21.3827 9.58144C20.3087 9.8623 19.5148 10.8375 19.5148 12H20.5148ZM22.4997 9.48164C22.4445 7.32692 22.2337 5.85146 21.198 4.81769L20.4915 5.52545C21.2131 6.24571 21.4441 7.32452 21.5 9.50724L22.4997 9.48164ZM21.6357 13.4511C20.9898 13.2822 20.5148 12.6954 20.5148 12H19.5148C19.5148 13.1625 20.3087 14.1377 21.3827 14.4186L21.6357 13.4511ZM21.5 14.4928C21.4441 16.6755 21.2131 17.7543 20.4915 18.4745L21.198 19.1823C22.2337 18.1485 22.4445 16.6731 22.4997 14.5184L21.5 14.4928ZM21.3827 14.4186C21.4304 14.431 21.4678 14.4561 21.4878 14.4782C21.5052 14.4973 21.4998 14.5015 21.5 14.4928L22.4997 14.5184C22.5146 13.9348 22.0502 13.5595 21.6357 13.4511L21.3827 14.4186ZM21.6357 10.5489C22.0502 10.4405 22.5146 10.0652 22.4997 9.48164L21.5 9.50724C21.4998 9.4985 21.5052 9.50268 21.4878 9.52183C21.4678 9.54395 21.4304 9.56898 21.3827 9.58144L21.6357 10.5489ZM2.36426 13.4511C1.94977 13.5595 1.48538 13.9348 1.50033 14.5184L2.5 14.4928C2.50022 14.5015 2.4948 14.4973 2.51216 14.4782C2.53221 14.4561 2.56963 14.431 2.61727 14.4186L2.36426 13.4511ZM2.61726 9.58144C2.56963 9.56898 2.53221 9.54395 2.51216 9.52183C2.4948 9.50268 2.50022 9.4985 2.5 9.50724L1.50033 9.48164C1.48538 10.0652 1.94977 10.4405 2.36426 10.5489L2.61726 9.58144ZM12.4173 10.266L12.5156 10.4423L13.3891 9.95542L13.2908 9.77906L12.4173 10.266ZM13.4869 11.1761L13.6778 11.2193L13.8985 10.2439L13.7076 10.2007L13.4869 11.1761ZM13.936 12.104L13.8058 12.2562L14.5658 12.9061L14.696 12.7539L13.936 12.104ZM13.4418 13.4215L13.4615 13.6245L14.4569 13.5281L14.4372 13.325L13.4418 13.4215ZM12.7864 14.1712L12.6077 14.0889L12.1894 14.9972L12.3682 15.0795L12.7864 14.1712ZM11.3923 14.0889L11.2136 14.1712L11.6318 15.0795L11.8106 14.9972L11.3923 14.0889ZM10.5385 13.6245L10.5582 13.4215L9.56283 13.325L9.54315 13.5281L10.5385 13.6245ZM10.1942 12.2562L10.064 12.104L9.30403 12.7539L9.43418 12.9061L10.1942 12.2562ZM10.3222 11.2193L10.5131 11.1761L10.2924 10.2007L10.1015 10.2439L10.3222 11.2193ZM11.4844 10.4423L11.5827 10.266L10.7092 9.77906L10.6109 9.95542L11.4844 10.4423ZM10.5131 11.1761C10.6798 11.1384 10.9134 11.0961 11.1038 10.9516L10.4992 10.1551C10.5178 10.1409 10.5284 10.1409 10.4988 10.1502C10.4602 10.1624 10.4051 10.1753 10.2924 10.2007L10.5131 11.1761ZM10.6109 9.95542C10.5532 10.0589 10.5235 10.1116 10.4993 10.1479C10.4797 10.1774 10.4812 10.1687 10.4992 10.1551L11.1038 10.9516C11.2911 10.8094 11.3981 10.597 11.4844 10.4423L10.6109 9.95542ZM10.064 12.104C9.80177 11.7973 9.6428 11.6094 9.5522 11.4655C9.46501 11.327 9.516 11.3442 9.49467 11.4128L8.53978 11.1158C8.43067 11.4667 8.56354 11.7721 8.70593 11.9983C8.84491 12.2191 9.06324 12.4724 9.30403 12.7539L10.064 12.104ZM10.1015 10.2439C9.74956 10.3236 9.42725 10.395 9.18742 10.4895C8.93818 10.5878 8.65058 10.7595 8.53978 11.1158L9.49467 11.4128C9.47165 11.4868 9.41242 11.4757 9.55407 11.4199C9.70514 11.3604 9.93626 11.3066 10.3222 11.2193L10.1015 10.2439ZM10.5582 13.4215C10.5757 13.2402 10.6073 13.0091 10.5382 12.7868L9.58331 13.0838C9.57801 13.0667 9.58164 13.0624 9.58089 13.0994C9.57998 13.1445 9.57435 13.2062 9.56283 13.325L10.5582 13.4215ZM9.43418 12.9061C9.5106 12.9955 9.54907 13.041 9.57452 13.0761C9.59473 13.1039 9.58876 13.1013 9.58331 13.0838L10.5382 12.7868C10.4684 12.5625 10.3101 12.3918 10.1942 12.2562L9.43418 12.9061ZM11.2136 14.1712C10.8522 14.3376 10.6347 14.4362 10.479 14.4808C10.3297 14.5235 10.3841 14.4731 10.4589 14.5298L9.85422 15.3263C10.1588 15.5575 10.5008 15.5148 10.7544 15.4421C11.0016 15.3712 11.3023 15.2312 11.6318 15.0795L11.2136 14.1712ZM9.54315 13.5281C9.50668 13.9045 9.47281 14.2413 9.48448 14.5033C9.49619 14.7662 9.55781 15.1013 9.85422 15.3263L10.4589 14.5298C10.5255 14.5804 10.4912 14.632 10.4835 14.4588C10.4757 14.2848 10.4989 14.033 10.5385 13.6245L9.54315 13.5281ZM12.6077 14.0889C12.4533 14.0178 12.2393 13.9075 12 13.9075V14.9075C11.9738 14.9075 11.9638 14.9003 11.9937 14.9112C12.0319 14.9251 12.084 14.9487 12.1894 14.9972L12.6077 14.0889ZM11.8106 14.9972C11.916 14.9487 11.9681 14.9251 12.0063 14.9112C12.0362 14.9003 12.0262 14.9075 12 14.9075V13.9075C11.7607 13.9075 11.5467 14.0178 11.3923 14.0889L11.8106 14.9972ZM13.4615 13.6245C13.5011 14.033 13.5243 14.2848 13.5165 14.4588C13.5088 14.632 13.4745 14.5804 13.5411 14.5298L14.1458 15.3263C14.4422 15.1013 14.5038 14.7662 14.5155 14.5033C14.5272 14.2413 14.4933 13.9045 14.4569 13.5281L13.4615 13.6245ZM12.3682 15.0795C12.6977 15.2312 12.9984 15.3712 13.2456 15.4421C13.4992 15.5148 13.8412 15.5575 14.1458 15.3263L13.5411 14.5298C13.6159 14.4731 13.6703 14.5235 13.521 14.4808C13.3653 14.4362 13.1478 14.3376 12.7864 14.1712L12.3682 15.0795ZM13.8058 12.2562C13.6899 12.3918 13.5316 12.5625 13.4618 12.7868L14.4167 13.0838C14.4112 13.1013 14.4053 13.1039 14.4255 13.0761C14.4509 13.041 14.4894 12.9955 14.5658 12.9061L13.8058 12.2562ZM14.4372 13.325C14.4257 13.2062 14.42 13.1445 14.4191 13.0994C14.4184 13.0624 14.422 13.0667 14.4167 13.0838L13.4618 12.7868C13.3927 13.0091 13.4243 13.2402 13.4418 13.4215L14.4372 13.325ZM13.6778 11.2193C14.0637 11.3066 14.2949 11.3604 14.4459 11.4199C14.5876 11.4757 14.5284 11.4868 14.5053 11.4128L15.4602 11.1158C15.3494 10.7595 15.0618 10.5878 14.8126 10.4895C14.5728 10.395 14.2504 10.3236 13.8985 10.2439L13.6778 11.2193ZM14.696 12.7539C14.9368 12.4724 15.1551 12.2191 15.2941 11.9983C15.4365 11.7721 15.5693 11.4667 15.4602 11.1158L14.5053 11.4128C14.484 11.3442 14.535 11.327 14.4478 11.4655C14.3572 11.6094 14.1982 11.7973 13.936 12.104L14.696 12.7539ZM12.5156 10.4423C12.6019 10.5971 12.7089 10.8094 12.8962 10.9516L13.5008 10.1551C13.5188 10.1687 13.5203 10.1774 13.5007 10.1479C13.4765 10.1116 13.4468 10.0589 13.3891 9.95542L12.5156 10.4423ZM13.7076 10.2007C13.5949 10.1753 13.5398 10.1624 13.5012 10.1502C13.4716 10.1409 13.4822 10.1409 13.5008 10.1551L12.8962 10.9516C13.0866 11.0961 13.3202 11.1384 13.4869 11.1761L13.7076 10.2007ZM13.2908 9.77906C13.1089 9.45284 12.9461 9.15799 12.788 8.95163C12.6297 8.74494 12.3818 8.5 12 8.5V9.5C11.9022 9.5 11.8913 9.42548 11.9941 9.55963C12.0971 9.6941 12.2192 9.91051 12.4173 10.266L13.2908 9.77906ZM11.5827 10.266C11.7808 9.91051 11.9029 9.6941 12.0059 9.55963C12.1087 9.42548 12.0978 9.5 12 9.5V8.5C11.6182 8.5 11.3703 8.74494 11.212 8.95163C11.0539 9.15799 10.8911 9.45284 10.7092 9.77906L11.5827 10.266Z" fill="#424242"/>
</svg>
