<svg width="24" height="24" viewBox="0 0 24 24" fill="none" xmlns="http://www.w3.org/2000/svg">
<path d="M15.8891 15.8891C15.6938 16.0843 15.6938 16.4009 15.8891 16.5962C16.0843 16.7915 16.4009 16.7915 16.5962 16.5962L15.8891 15.8891ZM7.40381 16.5962C7.59907 16.7915 7.91565 16.7915 8.11091 16.5962C8.30617 16.4009 8.30617 16.0843 8.11091 15.8891L7.40381 16.5962ZM4.57538 19.4246C4.77064 19.6199 5.08722 19.6199 5.28249 19.4246C5.47775 19.2294 5.47775 18.9128 5.28249 18.7175L4.57538 19.4246ZM18.7175 18.7175C18.5223 18.9128 18.5223 19.2294 18.7175 19.4246C18.9128 19.6199 19.2294 19.6199 19.4246 19.4246L18.7175 18.7175ZM7.14161 21.2301L7.5781 20.9862L7.14161 21.2301ZM9.88736 17.3441L10.2245 17.7134V17.7134L9.88736 17.3441ZM7.04832 21.0245L7.51945 20.8571L7.04832 21.0245ZM14.1126 17.3441L14.4497 16.9748V16.9748L14.1126 17.3441ZM16.9517 21.0245L16.4806 20.8571L16.9517 21.0245ZM16.8584 21.2301L16.4219 20.9862L16.8584 21.2301ZM12.0813 16.002L12.1053 15.5025L12.0813 16.002ZM11.9187 16.002L11.8947 15.5025L11.9187 16.002ZM6.5 12C6.5 8.96243 8.96243 6.5 12 6.5V5.5C8.41015 5.5 5.5 8.41015 5.5 12H6.5ZM12 6.5C15.0376 6.5 17.5 8.96243 17.5 12H18.5C18.5 8.41015 15.5899 5.5 12 5.5V6.5ZM17.5 12C17.5 13.5189 16.8849 14.8932 15.8891 15.8891L16.5962 16.5962C17.7719 15.4205 18.5 13.7948 18.5 12H17.5ZM8.11091 15.8891C7.11506 14.8932 6.5 13.5189 6.5 12H5.5C5.5 13.7948 6.22808 15.4205 7.40381 16.5962L8.11091 15.8891ZM2.5 12C2.5 6.75329 6.75329 2.5 12 2.5V1.5C6.20101 1.5 1.5 6.20101 1.5 12H2.5ZM12 2.5C17.2467 2.5 21.5 6.75329 21.5 12H22.5C22.5 6.20101 17.799 1.5 12 1.5V2.5ZM5.28249 18.7175C3.56278 16.9978 2.5 14.6235 2.5 12H1.5C1.5 14.8994 2.6758 17.525 4.57538 19.4246L5.28249 18.7175ZM21.5 12C21.5 14.6235 20.4372 16.9978 18.7175 18.7175L19.4246 19.4246C21.3242 17.525 22.5 14.8994 22.5 12H21.5ZM13.5 12C13.5 12.8284 12.8284 13.5 12 13.5V14.5C13.3807 14.5 14.5 13.3807 14.5 12H13.5ZM12 13.5C11.1716 13.5 10.5 12.8284 10.5 12H9.5C9.5 13.3807 10.6193 14.5 12 14.5V13.5ZM10.5 12C10.5 11.1716 11.1716 10.5 12 10.5V9.5C10.6193 9.5 9.5 10.6193 9.5 12H10.5ZM12 10.5C12.8284 10.5 13.5 11.1716 13.5 12H14.5C14.5 10.6193 13.3807 9.5 12 9.5V10.5ZM12 21.5C10.5096 21.5 9.43964 21.4991 8.68538 21.4074C7.9005 21.312 7.66275 21.1377 7.5781 20.9862L6.70512 21.474C7.05062 22.0924 7.76598 22.303 8.56472 22.4001C9.39407 22.5009 10.5382 22.5 12 22.5V21.5ZM9.55026 16.9748C8.51832 17.9168 7.70441 18.6583 7.19223 19.2695C6.6991 19.8579 6.33197 20.5021 6.5772 21.192L7.51945 20.8571C7.47247 20.7249 7.48111 20.4817 7.95868 19.9118C8.41719 19.3647 9.1689 18.6769 10.2245 17.7134L9.55026 16.9748ZM7.5781 20.9862C7.55464 20.9442 7.53508 20.901 7.51945 20.8571L6.5772 21.192C6.6118 21.2893 6.65462 21.3836 6.70512 21.474L7.5781 20.9862ZM13.7755 17.7134C14.8311 18.6769 15.5828 19.3647 16.0413 19.9118C16.5189 20.4817 16.5275 20.7249 16.4806 20.8571L17.4228 21.192C17.668 20.5021 17.3009 19.8579 16.8078 19.2695C16.2956 18.6583 15.4817 17.9168 14.4497 16.9748L13.7755 17.7134ZM12 22.5C13.4618 22.5 14.6059 22.5009 15.4353 22.4001C16.234 22.303 16.9494 22.0924 17.2949 21.474L16.4219 20.9862C16.3373 21.1377 16.0995 21.312 15.3146 21.4074C14.5604 21.4991 13.4904 21.5 12 21.5V22.5ZM16.4806 20.8571C16.4649 20.901 16.4454 20.9442 16.4219 20.9862L17.2949 21.474C17.3454 21.3836 17.3882 21.2893 17.4228 21.192L16.4806 20.8571ZM14.4497 16.9748C13.9794 16.5455 13.5934 16.1919 13.2485 15.9474C12.892 15.6947 12.5323 15.5231 12.1053 15.5025L12.0573 16.5014C12.2226 16.5093 12.3988 16.5709 12.6701 16.7632C12.9529 16.9637 13.2865 17.2669 13.7755 17.7134L14.4497 16.9748ZM10.2245 17.7134C10.7135 17.2669 11.0471 16.9637 11.3299 16.7632C11.6012 16.5709 11.7774 16.5093 11.9427 16.5014L11.8947 15.5025C11.4677 15.5231 11.108 15.6947 10.7515 15.9474C10.4066 16.1919 10.0206 16.5455 9.55026 16.9748L10.2245 17.7134ZM12.1053 15.5025C12.0352 15.4992 11.9648 15.4992 11.8947 15.5025L11.9427 16.5014C11.9809 16.4995 12.0191 16.4995 12.0573 16.5014L12.1053 15.5025Z" fill="#424242"/>
</svg>
