<svg width="24" height="24" viewBox="0 0 24 24" fill="none" xmlns="http://www.w3.org/2000/svg">
<path d="M19.4985 4.65001C19.3052 4.45282 18.9886 4.44967 18.7914 4.64298C18.5942 4.83629 18.5911 5.15286 18.7844 5.35005L19.4985 4.65001ZM4.64998 19.4985C4.84717 19.6918 5.16374 19.6887 5.35705 19.4915C5.55036 19.2943 5.54722 18.9777 5.35002 18.7844L4.64998 19.4985ZM18.7243 18.7108C18.5292 18.9063 18.5295 19.2228 18.725 19.4179C18.9204 19.613 19.237 19.6127 19.4321 19.4172L18.7243 18.7108ZM5.28923 5.27578C5.48469 5.08071 5.485 4.76413 5.28993 4.56867C5.09487 4.37322 4.77829 4.3729 4.58283 4.56797L5.28923 5.27578ZM16.6305 7.68265C16.4309 7.49177 16.1144 7.49881 15.9235 7.69836C15.7327 7.89792 15.7397 8.21442 15.9393 8.4053L16.6305 7.68265ZM7.46163 16.3681C7.66493 16.555 7.98123 16.5417 8.16811 16.3384C8.35499 16.1351 8.34167 15.8188 8.13837 15.6319L7.46163 16.3681ZM15.9045 15.592C15.7033 15.7811 15.6934 16.0975 15.8825 16.2988C16.0716 16.5 16.388 16.5099 16.5893 16.3208L15.9045 15.592ZM8.10326 8.36508C8.30489 8.17639 8.31538 7.85999 8.12669 7.65836C7.93801 7.45673 7.6216 7.44624 7.41998 7.63492L8.10326 8.36508ZM18.7844 5.35005C20.4647 7.06413 21.5 9.41068 21.5 12H22.5C22.5 9.13848 21.3546 6.54344 19.4985 4.65001L18.7844 5.35005ZM5.35002 18.7844C3.59064 17.0597 2.5 14.6577 2.5 12H1.5C1.5 14.9372 2.70664 17.5934 4.64998 19.4985L5.35002 18.7844ZM21.5 12C21.5 14.6201 20.44 16.9916 18.7243 18.7108L19.4321 19.4172C21.3273 17.5182 22.5 14.8956 22.5 12H21.5ZM2.5 12C2.5 9.37312 3.56555 6.99602 5.28923 5.27578L4.58283 4.56797C2.67888 6.46813 1.5 9.09688 1.5 12H2.5ZM15.9393 8.4053C16.9094 9.33321 17.5 10.5957 17.5 11.9822H18.5C18.5 10.302 17.7823 8.78433 16.6305 7.68265L15.9393 8.4053ZM8.13837 15.6319C7.12219 14.6978 6.5 13.4051 6.5 11.9822H5.5C5.5 13.7069 6.25618 15.26 7.46163 16.3681L8.13837 15.6319ZM17.5 11.9822C17.5 13.3851 16.8953 14.6612 15.9045 15.592L16.5893 16.3208C17.7651 15.2161 18.5 13.6824 18.5 11.9822H17.5ZM6.5 11.9822C6.5 10.5757 7.10789 9.29655 8.10326 8.36508L7.41998 7.63492C6.23877 8.74031 5.5 10.2775 5.5 11.9822H6.5ZM13.5 12C13.5 12.8284 12.8284 13.5 12 13.5V14.5C13.3807 14.5 14.5 13.3807 14.5 12H13.5ZM12 13.5C11.1716 13.5 10.5 12.8284 10.5 12H9.5C9.5 13.3807 10.6193 14.5 12 14.5V13.5ZM10.5 12C10.5 11.1716 11.1716 10.5 12 10.5V9.5C10.6193 9.5 9.5 10.6193 9.5 12H10.5ZM12 10.5C12.8284 10.5 13.5 11.1716 13.5 12H14.5C14.5 10.6193 13.3807 9.5 12 9.5V10.5Z" fill="#424242"/>
</svg>
