<svg width="24" height="24" viewBox="0 0 24 24" fill="none" xmlns="http://www.w3.org/2000/svg">
<path d="M10.8855 8.11449L11.239 8.46804V8.46804L10.8855 8.11449ZM9.2315 9.76847L8.87794 9.41491V9.41491L9.2315 9.76847ZM9.33793 12.1149L9.01784 12.499V12.499L9.33793 12.1149ZM10.3344 12.9453L10.6544 12.5611V12.5611L10.3344 12.9453ZM10.5 16C10.5 16.2761 10.7239 16.5 11 16.5C11.2761 16.5 11.5 16.2761 11.5 16H10.5ZM6.60752 6.68277L6.87252 7.10676V7.10676L6.60752 6.68277ZM4.235 7.57596C4.00083 7.72232 3.92965 8.03079 4.076 8.26496C4.22236 8.49913 4.53083 8.57032 4.765 8.42396L4.235 7.57596ZM10.5513 6.37908L10.3543 6.83865V6.83865L10.5513 6.37908ZM7.35355 14.3536C7.54882 14.1583 7.54882 13.8417 7.35355 13.6464C7.15829 13.4512 6.84171 13.4512 6.64645 13.6464L7.35355 14.3536ZM6.67157 14.3284L6.31802 13.9749V13.9749L6.67157 14.3284ZM3 15C2.72386 15 2.5 15.2239 2.5 15.5C2.5 15.7761 2.72386 16 3 16V15ZM5.43694 15.3478L5.2456 14.8858H5.2456L5.43694 15.3478ZM12.5 9.5C12.2239 9.5 12 9.72386 12 10C12 10.2761 12.2239 10.5 12.5 10.5V9.5ZM15.5 10.5C15.7761 10.5 16 10.2761 16 10C16 9.72386 15.7761 9.5 15.5 9.5V10.5ZM2.89949 19.8426L2.8133 19.3501H2.8133L2.89949 19.8426ZM19.0559 17.0152L18.9697 16.5227V16.5227L19.0559 17.0152ZM17.5055 17.4258C17.4646 17.6989 17.6527 17.9535 17.9258 17.9945C18.1989 18.0354 18.4535 17.8473 18.4945 17.5742L17.5055 17.4258ZM19.2916 8.88902L18.7972 8.81485V8.81485L19.2916 8.88902ZM20.8773 7.22454L20.9753 7.71483V7.71483L20.8773 7.22454ZM22.0981 7.49029C22.3688 7.43613 22.5444 7.17272 22.4903 6.90194C22.4361 6.63116 22.1727 6.45555 21.9019 6.50971L22.0981 7.49029ZM16.5 4C16.5 4.82843 15.8284 5.5 15 5.5V6.5C16.3807 6.5 17.5 5.38071 17.5 4H16.5ZM15 5.5C14.1716 5.5 13.5 4.82843 13.5 4H12.5C12.5 5.38071 13.6193 6.5 15 6.5V5.5ZM13.5 4C13.5 3.17157 14.1716 2.5 15 2.5V1.5C13.6193 1.5 12.5 2.61929 12.5 4H13.5ZM15 2.5C15.8284 2.5 16.5 3.17157 16.5 4H17.5C17.5 2.61929 16.3807 1.5 15 1.5V2.5ZM10.5319 7.76094L8.87794 9.41491L9.58505 10.122L11.239 8.46804L10.5319 7.76094ZM9.01784 12.499L10.0143 13.3294L10.6544 12.5611L9.65803 11.7308L9.01784 12.499ZM10.5 14.3664V16H11.5V14.3664H10.5ZM6.34252 6.25877L4.235 7.57596L4.765 8.42396L6.87252 7.10676L6.34252 6.25877ZM10.7482 5.9195C9.31271 5.30428 7.66691 5.43102 6.34252 6.25877L6.87252 7.10676C7.91917 6.4526 9.21983 6.35245 10.3543 6.83865L10.7482 5.9195ZM10.0143 13.3294C10.322 13.5859 10.5 13.9658 10.5 14.3664H11.5C11.5 13.669 11.1902 13.0076 10.6544 12.5611L10.0143 13.3294ZM8.87794 9.41491C8.00873 10.2841 8.0735 11.7121 9.01784 12.499L9.65803 11.7308C9.16543 11.3203 9.13164 10.5754 9.58505 10.122L8.87794 9.41491ZM11.239 8.46804C12.023 7.68408 11.7673 6.35624 10.7482 5.9195L10.3543 6.83865C10.7231 6.9967 10.8156 7.47723 10.5319 7.76094L11.239 8.46804ZM6.64645 13.6464L6.31802 13.9749L7.02513 14.682L7.35355 14.3536L6.64645 13.6464ZM3.84315 15H3V16H3.84315V15ZM6.31802 13.9749C5.71111 14.5818 5.49989 14.7805 5.2456 14.8858L5.62828 15.8097C6.10908 15.6105 6.47592 15.2312 7.02513 14.682L6.31802 13.9749ZM3.84315 16C4.61985 16 5.14749 16.0089 5.62828 15.8097L5.2456 14.8858C4.99131 14.9911 4.70144 15 3.84315 15V16ZM12.5 10.5H15.5V9.5H12.5V10.5ZM3.08684 22.5H19.4888V21.5H3.08684V22.5ZM2.98568 20.3351L19.1421 17.5077L18.9697 16.5227L2.8133 19.3501L2.98568 20.3351ZM2.5 20.9131C2.5 20.6281 2.70487 20.3842 2.98568 20.3351L2.8133 19.3501C2.05399 19.4829 1.5 20.1423 1.5 20.9131H2.5ZM22.5 19.4888C22.5 17.6182 20.8124 16.2002 18.9697 16.5227L19.1421 17.5077C20.3728 17.2923 21.5 18.2394 21.5 19.4888H22.5ZM19.4888 22.5C21.1518 22.5 22.5 21.1518 22.5 19.4888H21.5C21.5 20.5995 20.5996 21.5 19.4888 21.5V22.5ZM3.08684 21.5C2.76274 21.5 2.5 21.2372 2.5 20.9131H1.5C1.5 21.7895 2.21045 22.5 3.08684 22.5V21.5ZM18.4945 17.5742L19.7861 8.96319L18.7972 8.81485L17.5055 17.4258L18.4945 17.5742ZM20.9753 7.71483L22.0981 7.49029L21.9019 6.50971L20.7792 6.73425L20.9753 7.71483ZM19.7861 8.96319C19.8381 8.61632 19.8718 8.3971 19.9153 8.23403C19.9555 8.08319 19.9924 8.02979 20.0227 7.99798L19.2987 7.30823C19.111 7.50525 19.0137 7.73412 18.9491 7.97619C18.8878 8.20602 18.8459 8.49034 18.7972 8.81485L19.7861 8.96319ZM20.7792 6.73425C20.4575 6.79861 20.1755 6.85425 19.9489 6.92666C19.7103 7.00292 19.4864 7.1112 19.2987 7.30823L20.0227 7.99798C20.053 7.96616 20.1046 7.92673 20.2533 7.87921C20.4141 7.82783 20.6314 7.78362 20.9753 7.71483L20.7792 6.73425Z" fill="#424242"/>
</svg>
