<svg width="24" height="24" viewBox="0 0 24 24" fill="none" xmlns="http://www.w3.org/2000/svg">
<path d="M20.6464 21.3536C20.8417 21.5488 21.1583 21.5488 21.3536 21.3536C21.5488 21.1583 21.5488 20.8417 21.3536 20.6464L20.6464 21.3536ZM8.87896 11.3294C8.69708 11.1216 8.3812 11.1006 8.17341 11.2825C7.96562 11.4643 7.94462 11.7802 8.12649 11.988L8.87896 11.3294ZM10.0807 13.4614L9.70443 13.7907V13.7907L10.0807 13.4614ZM11.55 13.5L11.9084 13.8486V13.8486L11.55 13.5ZM15.8212 9.82548C16.0137 9.62753 16.0093 9.31097 15.8113 9.11845C15.6134 8.92592 15.2968 8.93032 15.1043 9.12828L15.8212 9.82548ZM19.6 11.55C19.6 15.9959 15.9959 19.6 11.55 19.6V20.6C16.5482 20.6 20.6 16.5482 20.6 11.55H19.6ZM11.55 19.6C7.10411 19.6 3.5 15.9959 3.5 11.55H2.5C2.5 16.5482 6.55182 20.6 11.55 20.6V19.6ZM3.5 11.55C3.5 7.10411 7.10411 3.5 11.55 3.5V2.5C6.55182 2.5 2.5 6.55182 2.5 11.55H3.5ZM11.55 3.5C15.9959 3.5 19.6 7.10411 19.6 11.55H20.6C20.6 6.55182 16.5482 2.5 11.55 2.5V3.5ZM17.4964 18.2036L20.6464 21.3536L21.3536 20.6464L18.2036 17.4964L17.4964 18.2036ZM8.12649 11.988L9.70443 13.7907L10.4569 13.1321L8.87896 11.3294L8.12649 11.988ZM11.9084 13.8486L15.8212 9.82548L15.1043 9.12828L11.1916 13.1514L11.9084 13.8486ZM9.70443 13.7907C10.2813 14.4498 11.2978 14.4765 11.9084 13.8486L11.1916 13.1514C10.988 13.3607 10.6492 13.3518 10.4569 13.1321L9.70443 13.7907Z" fill="#424242"/>
</svg>
