<svg width="24" height="24" viewBox="0 0 24 24" fill="none" xmlns="http://www.w3.org/2000/svg">
<path d="M8.5 19C8.5 18.7239 8.27614 18.5 8 18.5C7.72386 18.5 7.5 18.7239 7.5 19H8.5ZM16.4171 12.0512C16.4454 12.3259 16.691 12.5257 16.9657 12.4974C17.2404 12.4691 17.4402 12.2235 17.4119 11.9488L16.4171 12.0512ZM6.58857 11.9488C6.56028 12.2235 6.76004 12.4691 7.03473 12.4974C7.30942 12.5257 7.55502 12.3259 7.58331 12.0512L6.58857 11.9488ZM11.5 12V20H12.5V12H11.5ZM8.5 20V19H7.5V20H8.5ZM12 12.5H21.5238V11.5H12V12.5ZM12.4762 1.5H11.5238V2.5H12.4762V1.5ZM2.47619 12.5H12V11.5H2.47619V12.5ZM1.5 11.5238C1.5 12.0629 1.93706 12.5 2.47619 12.5V11.5C2.48934 11.5 2.5 11.5107 2.5 11.5238H1.5ZM22.5 11.5238C22.5 5.98781 18.0122 1.5 12.4762 1.5V2.5C17.4599 2.5 21.5 6.5401 21.5 11.5238H22.5ZM21.5238 12.5C22.0629 12.5 22.5 12.0629 22.5 11.5238H21.5C21.5 11.5107 21.5107 11.5 21.5238 11.5V12.5ZM10 21.5C9.17157 21.5 8.5 20.8284 8.5 20H7.5C7.5 21.3807 8.61929 22.5 10 22.5V21.5ZM11.5238 1.5C5.98781 1.5 1.5 5.98781 1.5 11.5238H2.5C2.5 6.5401 6.5401 2.5 11.5238 2.5V1.5ZM11.5 20C11.5 20.8284 10.8284 21.5 10 21.5V22.5C11.3807 22.5 12.5 21.3807 12.5 20H11.5ZM12.0002 2.5C12.6947 2.5 13.2999 2.84911 13.8443 3.50156C14.3945 4.16091 14.8474 5.09247 15.2131 6.14709C15.9432 8.25245 16.2787 10.7062 16.4171 12.0512L17.4119 11.9488C17.2712 10.5825 16.9266 8.03629 16.1579 5.81946C15.7742 4.71299 15.273 3.65291 14.6121 2.8609C13.9455 2.06199 13.0829 1.5 12.0002 1.5V2.5ZM7.58331 12.0512C7.7218 10.7062 8.05729 8.25245 8.78737 6.14709C9.15309 5.09247 9.60599 4.16091 10.1561 3.50156C10.7005 2.84911 11.3058 2.5 12.0002 2.5V1.5C10.9176 1.5 10.0549 2.06199 9.38832 2.8609C8.72747 3.65291 8.22626 4.71299 7.84257 5.81946C7.07383 8.03629 6.72924 10.5825 6.58857 11.9488L7.58331 12.0512Z" fill="#424242"/>
</svg>
