<svg width="24" height="24" viewBox="0 0 24 24" fill="none" xmlns="http://www.w3.org/2000/svg">
<path d="M5.35355 4.64645C5.15829 4.45118 4.84171 4.45118 4.64645 4.64645C4.45118 4.84171 4.45118 5.15829 4.64645 5.35355L5.35355 4.64645ZM17.6464 18.3536C17.8417 18.5488 18.1583 18.5488 18.3536 18.3536C18.5488 18.1583 18.5488 17.8417 18.3536 17.6464L17.6464 18.3536ZM15.9894 4.9502L16.3431 4.59683V4.59683L15.9894 4.9502ZM19.0716 8.03562L19.4254 7.68225V7.68225L19.0716 8.03562ZM8.73837 19.429L8.38464 19.7824H8.38464L8.73837 19.429ZM4.62169 15.3081L4.97542 14.9547H4.97542L4.62169 15.3081ZM5.84504 10.6735L5.97793 11.1555H5.97793L5.84504 10.6735ZM7.30167 10.1351L7.00953 9.72935L7.00953 9.72935L7.30167 10.1351ZM8.05637 10.1147C8.23549 9.90452 8.21031 9.58894 8.00013 9.40983C7.78996 9.23071 7.47438 9.25589 7.29527 9.46607L8.05637 10.1147ZM13.3806 18.2012L13.8627 18.3338V18.3338L13.3806 18.2012ZM13.9169 16.7466L14.3231 17.0381V17.0381L13.9169 16.7466ZM14.5783 16.7585C14.7871 16.5777 14.8098 16.2619 14.629 16.0532C14.4482 15.8444 14.1324 15.8217 13.9237 16.0025L14.5783 16.7585ZM2.71846 12.7552L2.21847 12.7584V12.7584L2.71846 12.7552ZM2.93045 11.9521L3.36374 12.2016V12.2016L2.93045 11.9521ZM11.3052 21.3431L11.306 20.8431H11.306L11.3052 21.3431ZM12.0933 21.1347L11.8454 20.7004H11.8454L12.0933 21.1347ZM21.9652 12.3049L22.4539 12.4106V12.4106L21.9652 12.3049ZM17.3911 14.5262C17.1326 14.6234 17.0018 14.9117 17.0989 15.1702C17.196 15.4287 17.4843 15.5595 17.7428 15.4624L17.3911 14.5262ZM11.6973 2.03606L11.805 2.52432V2.52432L11.6973 2.03606ZM8.55717 6.31435C8.46217 6.57364 8.59535 6.86084 8.85464 6.95584C9.11393 7.05084 9.40113 6.91766 9.49613 6.65838L8.55717 6.31435ZM1.64627 21.6466C1.4511 21.842 1.45127 22.1586 1.64663 22.3537C1.84199 22.5489 2.15857 22.5487 2.35373 22.3534L1.64627 21.6466ZM7.00696 17.6954C7.20212 17.5 7.20196 17.1835 7.0066 16.9883C6.81124 16.7931 6.49465 16.7933 6.29949 16.9887L7.00696 17.6954ZM4.64645 5.35355L17.6464 18.3536L18.3536 17.6464L5.35355 4.64645L4.64645 5.35355ZM15.6356 5.30357L18.7179 8.38899L19.4254 7.68225L16.3431 4.59683L15.6356 5.30357ZM9.09211 19.0756L4.97542 14.9547L4.26795 15.6615L8.38464 19.7824L9.09211 19.0756ZM5.97793 11.1555C6.70751 10.9543 7.19608 10.8272 7.5938 10.5409L7.00953 9.72935C6.79164 9.88622 6.5143 9.97029 5.71215 10.1914L5.97793 11.1555ZM7.5938 10.5409C7.76457 10.418 7.91988 10.2749 8.05637 10.1147L7.29527 9.46607C7.21093 9.56502 7.11499 9.65342 7.00953 9.72935L7.5938 10.5409ZM13.8627 18.3338C14.083 17.5331 14.1668 17.256 14.3231 17.0381L13.5107 16.4551C13.2255 16.8525 13.0989 17.3401 12.8985 18.0685L13.8627 18.3338ZM13.9237 16.0025C13.7688 16.1367 13.6301 16.2886 13.5107 16.4551L14.3231 17.0381C14.397 16.9352 14.4826 16.8413 14.5783 16.7585L13.9237 16.0025ZM4.97542 14.9547C4.33365 14.3123 3.88328 13.8604 3.58805 13.4895C3.29217 13.1177 3.21943 12.9071 3.21845 12.7521L2.21847 12.7584C2.22161 13.2551 2.46745 13.6873 2.80563 14.1122C3.14446 14.5379 3.64365 15.0366 4.26795 15.6615L4.97542 14.9547ZM5.71215 10.1914C4.86096 10.4261 4.18084 10.6128 3.6761 10.8155C3.17233 11.0177 2.74513 11.272 2.49717 11.7025L3.36374 12.2016C3.44102 12.0674 3.60801 11.9204 4.04866 11.7435C4.48835 11.5669 5.10289 11.3967 5.97793 11.1555L5.71215 10.1914ZM3.21845 12.7521C3.21723 12.5589 3.26739 12.3689 3.36374 12.2016L2.49717 11.7025C2.31231 12.0235 2.21613 12.3879 2.21847 12.7584L3.21845 12.7521ZM8.38464 19.7824C9.0129 20.4113 9.51417 20.9142 9.94222 21.2551C10.3694 21.5953 10.8044 21.8424 11.3045 21.8431L11.306 20.8431C11.1504 20.8429 10.939 20.7706 10.5652 20.4729C10.1923 20.1758 9.73796 19.7221 9.09211 19.0756L8.38464 19.7824ZM12.8985 18.0685C12.656 18.95 12.4848 19.5692 12.3071 20.0119C12.129 20.4556 11.9808 20.6232 11.8454 20.7004L12.3411 21.5689C12.7754 21.3211 13.0316 20.8914 13.2351 20.3844C13.439 19.8763 13.6267 19.1913 13.8627 18.3338L12.8985 18.0685ZM11.3045 21.8431C11.668 21.8437 12.0253 21.7491 12.3411 21.5689L11.8454 20.7004C11.6811 20.7942 11.4951 20.8434 11.306 20.8431L11.3045 21.8431ZM18.7179 8.38899C19.7755 9.44765 20.5275 10.2023 20.9926 10.8299C21.4524 11.4505 21.5532 11.8441 21.4765 12.1992L22.4539 12.4106C22.6211 11.6372 22.321 10.9431 21.796 10.2346C21.2763 9.53319 20.4595 8.71742 19.4254 7.68225L18.7179 8.38899ZM17.7428 15.4624C19.112 14.9479 20.1927 14.5433 20.9557 14.1198C21.7265 13.692 22.2866 13.1841 22.4539 12.4106L21.4765 12.1992C21.3997 12.5543 21.1454 12.8708 20.4704 13.2454C19.7877 13.6244 18.7914 14.0001 17.3911 14.5262L17.7428 15.4624ZM16.3431 4.59683C15.3013 3.554 14.4806 2.73057 13.7755 2.20711C13.0637 1.67859 12.366 1.3765 11.5895 1.5478L11.805 2.52432C12.1601 2.44598 12.5549 2.54636 13.1794 3.01002C13.8108 3.47875 14.5703 4.23721 15.6356 5.30357L16.3431 4.59683ZM9.49613 6.65838C10.0149 5.24255 10.3856 4.23468 10.7616 3.54366C11.1336 2.86004 11.4498 2.60268 11.805 2.52432L11.5895 1.5478C10.8132 1.71909 10.3071 2.28666 9.88321 3.06568C9.46333 3.83729 9.06448 4.92975 8.55717 6.31435L9.49613 6.65838ZM2.35373 22.3534L7.00696 17.6954L6.29949 16.9887L1.64627 21.6466L2.35373 22.3534Z" fill="#424242"/>
</svg>
