<svg width="24" height="24" viewBox="0 0 24 24" fill="none" xmlns="http://www.w3.org/2000/svg">
<path d="M11.5 16C11.5 16.2761 11.7239 16.5 12 16.5C12.2761 16.5 12.5 16.2761 12.5 16H11.5ZM12 3L12.369 2.66262C12.2743 2.55901 12.1404 2.5 12 2.5C11.8596 2.5 11.7257 2.55901 11.631 2.66262L12 3ZM15.631 7.71238C15.8173 7.91619 16.1336 7.93035 16.3374 7.74401C16.5412 7.55768 16.5553 7.24142 16.369 7.03762L15.631 7.71238ZM7.63099 7.03762C7.44465 7.24142 7.45881 7.55768 7.66262 7.74401C7.86642 7.93035 8.18268 7.91619 8.36901 7.71238L7.63099 7.03762ZM15 20.5H9V21.5H15V20.5ZM9 20.5C7.57165 20.5 6.55069 20.4989 5.77481 20.3946C5.01331 20.2922 4.56319 20.0987 4.23223 19.7678L3.52513 20.4749C4.07285 21.0226 4.76917 21.2684 5.64156 21.3857C6.49956 21.5011 7.59992 21.5 9 21.5V20.5ZM2.5 15C2.5 16.4001 2.49894 17.5004 2.61429 18.3584C2.73158 19.2308 2.9774 19.9271 3.52513 20.4749L4.23223 19.7678C3.90128 19.4368 3.70776 18.9867 3.60538 18.2252C3.50106 17.4493 3.5 16.4283 3.5 15H2.5ZM20.5 15C20.5 16.4283 20.4989 17.4493 20.3946 18.2252C20.2922 18.9867 20.0987 19.4368 19.7678 19.7678L20.4749 20.4749C21.0226 19.9271 21.2684 19.2308 21.3857 18.3584C21.5011 17.5004 21.5 16.4001 21.5 15H20.5ZM15 21.5C16.4001 21.5 17.5004 21.5011 18.3584 21.3857C19.2308 21.2684 19.9272 21.0226 20.4749 20.4749L19.7678 19.7678C19.4368 20.0987 18.9867 20.2922 18.2252 20.3946C17.4493 20.4989 16.4283 20.5 15 20.5V21.5ZM12.5 16V3H11.5V16H12.5ZM11.631 3.33738L15.631 7.71238L16.369 7.03762L12.369 2.66262L11.631 3.33738ZM11.631 2.66262L7.63099 7.03762L8.36901 7.71238L12.369 3.33738L11.631 2.66262Z" fill="#424242"/>
</svg>
