<svg width="24" height="24" viewBox="0 0 24 24" fill="none" xmlns="http://www.w3.org/2000/svg">
<path d="M12 2L12.416 1.72265C12.3233 1.58355 12.1672 1.5 12 1.5C11.8328 1.5 11.6767 1.58355 11.584 1.72265L12 2ZM13.584 5.27735C13.7372 5.50711 14.0476 5.5692 14.2774 5.41603C14.5071 5.26285 14.5692 4.95241 14.416 4.72265L13.584 5.27735ZM9.58397 4.72265C9.4308 4.95241 9.49289 5.26285 9.72265 5.41603C9.95241 5.5692 10.2628 5.50711 10.416 5.27735L9.58397 4.72265ZM10.6325 12.5442L10.7906 12.0698V12.0698L10.6325 12.5442ZM7.36754 11.4558L7.20943 11.9302H7.20943L7.36754 11.4558ZM13.3675 15.5442L13.2094 15.0698H13.2094L13.3675 15.5442ZM16.6325 14.4558L16.7906 14.9302H16.7906L16.6325 14.4558ZM13.5 20C13.5 20.8284 12.8284 21.5 12 21.5V22.5C13.3807 22.5 14.5 21.3807 14.5 20H13.5ZM12 21.5C11.1716 21.5 10.5 20.8284 10.5 20H9.5C9.5 21.3807 10.6193 22.5 12 22.5V21.5ZM10.5 20C10.5 19.1716 11.1716 18.5 12 18.5V17.5C10.6193 17.5 9.5 18.6193 9.5 20H10.5ZM12 18.5C12.8284 18.5 13.5 19.1716 13.5 20H14.5C14.5 18.6193 13.3807 17.5 12 17.5V18.5ZM6.5 6C6.5 6.27614 6.27614 6.5 6 6.5V7.5C6.82843 7.5 7.5 6.82843 7.5 6H6.5ZM6 6.5C5.72386 6.5 5.5 6.27614 5.5 6H4.5C4.5 6.82843 5.17157 7.5 6 7.5V6.5ZM5.5 6C5.5 5.72386 5.72386 5.5 6 5.5V4.5C5.17157 4.5 4.5 5.17157 4.5 6H5.5ZM6 5.5C6.27614 5.5 6.5 5.72386 6.5 6H7.5C7.5 5.17157 6.82843 4.5 6 4.5V5.5ZM11.584 2.27735L13.584 5.27735L14.416 4.72265L12.416 1.72265L11.584 2.27735ZM11.584 1.72265L9.58397 4.72265L10.416 5.27735L12.416 2.27735L11.584 1.72265ZM12.5 18V15H11.5V18H12.5ZM12.5 15V2H11.5V15H12.5ZM10.7906 12.0698L7.52566 10.9815L7.20943 11.9302L10.4743 13.0185L10.7906 12.0698ZM6.5 9.55848V7H5.5V9.55848H6.5ZM11.5 14.4415V15H12.5V14.4415H11.5ZM7.52566 10.9815C6.91315 10.7773 6.5 10.2041 6.5 9.55848H5.5C5.5 10.6346 6.18858 11.5899 7.20943 11.9302L7.52566 10.9815ZM10.4743 13.0185C11.0869 13.2227 11.5 13.7959 11.5 14.4415H12.5C12.5 13.3654 11.8114 12.4101 10.7906 12.0698L10.4743 13.0185ZM13.5257 16.0185L16.7906 14.9302L16.4743 13.9815L13.2094 15.0698L13.5257 16.0185ZM18.5 12.5585V10H17.5V12.5585H18.5ZM11.5 17.4415V18H12.5V17.4415H11.5ZM16.7906 14.9302C17.8114 14.5899 18.5 13.6346 18.5 12.5585H17.5C17.5 13.2041 17.0869 13.7773 16.4743 13.9815L16.7906 14.9302ZM13.2094 15.0698C12.1886 15.4101 11.5 16.3654 11.5 17.4415H12.5C12.5 16.7959 12.9131 16.2227 13.5257 16.0185L13.2094 15.0698ZM18 9.5C17.7502 9.5 17.6131 9.49894 17.518 9.48615C17.4373 9.4753 17.4648 9.46484 17.5 9.5L16.7929 10.2071C16.9745 10.3887 17.1931 10.4515 17.3847 10.4772C17.562 10.5011 17.7784 10.5 18 10.5V9.5ZM16.5 9C16.5 9.22157 16.4989 9.43804 16.5228 9.61526C16.5485 9.80686 16.6113 10.0255 16.7929 10.2071L17.5 9.5C17.5352 9.53516 17.5247 9.56273 17.5138 9.48201C17.5011 9.38692 17.5 9.24984 17.5 9H16.5ZM18.5 9C18.5 9.24984 18.4989 9.38692 18.4862 9.48201C18.4753 9.56273 18.4648 9.53516 18.5 9.5L19.2071 10.2071C19.3887 10.0255 19.4515 9.80686 19.4772 9.61526C19.5011 9.43804 19.5 9.22157 19.5 9H18.5ZM18 10.5C18.2216 10.5 18.438 10.5011 18.6153 10.4772C18.8069 10.4515 19.0255 10.3887 19.2071 10.2071L18.5 9.5C18.5352 9.46484 18.5627 9.4753 18.482 9.48615C18.3869 9.49894 18.2498 9.5 18 9.5V10.5ZM18 8.5C18.2498 8.5 18.3869 8.50106 18.482 8.51385C18.5627 8.5247 18.5352 8.53516 18.5 8.5L19.2071 7.79289C19.0255 7.61129 18.8069 7.54852 18.6153 7.52276C18.438 7.49894 18.2216 7.5 18 7.5V8.5ZM19.5 9C19.5 8.77843 19.5011 8.56196 19.4772 8.38474C19.4515 8.19314 19.3887 7.9745 19.2071 7.79289L18.5 8.5C18.4648 8.46484 18.4753 8.43727 18.4862 8.51799C18.4989 8.61308 18.5 8.75016 18.5 9H19.5ZM18 7.5C17.7784 7.5 17.562 7.49894 17.3847 7.52276C17.1931 7.54852 16.9745 7.61129 16.7929 7.79289L17.5 8.5C17.4648 8.53516 17.4373 8.5247 17.518 8.51385C17.6131 8.50106 17.7502 8.5 18 8.5V7.5ZM17.5 9C17.5 8.75016 17.5011 8.61308 17.5138 8.51799C17.5247 8.43727 17.5352 8.46484 17.5 8.5L16.7929 7.79289C16.6113 7.9745 16.5485 8.19314 16.5228 8.38474C16.4989 8.56196 16.5 8.77843 16.5 9H17.5Z" fill="#424242"/>
</svg>
