<svg width="24" height="24" viewBox="0 0 24 24" fill="none" xmlns="http://www.w3.org/2000/svg">
<path d="M19 12.5C19.2761 12.5 19.5 12.2761 19.5 12C19.5 11.7239 19.2761 11.5 19 11.5V12.5ZM15 11.5C14.7239 11.5 14.5 11.7239 14.5 12C14.5 12.2761 14.7239 12.5 15 12.5V11.5ZM19 9.5C19.2761 9.5 19.5 9.27614 19.5 9C19.5 8.72386 19.2761 8.5 19 8.5V9.5ZM14 8.5C13.7239 8.5 13.5 8.72386 13.5 9C13.5 9.27614 13.7239 9.5 14 9.5V8.5ZM19 15.5C19.2761 15.5 19.5 15.2761 19.5 15C19.5 14.7239 19.2761 14.5 19 14.5V15.5ZM16 14.5C15.7239 14.5 15.5 14.7239 15.5 15C15.5 15.2761 15.7239 15.5 16 15.5V14.5ZM10.5 9C10.5 9.82843 9.82843 10.5 9 10.5V11.5C10.3807 11.5 11.5 10.3807 11.5 9H10.5ZM9 10.5C8.17157 10.5 7.5 9.82843 7.5 9H6.5C6.5 10.3807 7.61929 11.5 9 11.5V10.5ZM7.5 9C7.5 8.17157 8.17157 7.5 9 7.5V6.5C7.61929 6.5 6.5 7.61929 6.5 9H7.5ZM9 7.5C9.82843 7.5 10.5 8.17157 10.5 9H11.5C11.5 7.61929 10.3807 6.5 9 6.5V7.5ZM12.5 15C12.5 15.5871 12.4743 15.8155 12.2068 16.0092C12.0421 16.1284 11.7496 16.2562 11.224 16.3507C10.7021 16.4446 9.98481 16.5 9 16.5V17.5C10.0152 17.5 10.7979 17.4435 11.401 17.3349C12.0004 17.2271 12.4579 17.0619 12.7932 16.8192C13.5257 16.289 13.5 15.5175 13.5 15H12.5ZM9 16.5C8.01519 16.5 7.29786 16.4446 6.77604 16.3507C6.2504 16.2562 5.95788 16.1284 5.79318 16.0092C5.52566 15.8155 5.5 15.5871 5.5 15H4.5C4.5 15.5175 4.47434 16.289 5.20682 16.8192C5.54212 17.0619 5.9996 17.2271 6.59896 17.3349C7.20214 17.4435 7.98481 17.5 9 17.5V16.5ZM5.5 15C5.5 14.7391 5.72447 14.3684 6.39518 14.033C7.03598 13.7126 7.95622 13.5 9 13.5V12.5C7.83464 12.5 6.75488 12.7351 5.94797 13.1386C5.17096 13.5271 4.5 14.1563 4.5 15H5.5ZM9 13.5C10.0438 13.5 10.964 13.7126 11.6048 14.033C12.2755 14.3684 12.5 14.7391 12.5 15H13.5C13.5 14.1563 12.829 13.5271 12.052 13.1386C11.2451 12.7351 10.1654 12.5 9 12.5V13.5ZM10 4.5H14V3.5H10V4.5ZM14 19.5H10V20.5H14V19.5ZM10 19.5C8.10025 19.5 6.72573 19.4989 5.67754 19.358C4.64373 19.219 4.00253 18.9523 3.52513 18.4749L2.81802 19.182C3.51219 19.8762 4.39959 20.1952 5.54429 20.3491C6.6746 20.5011 8.12852 20.5 10 20.5V19.5ZM1.5 12C1.5 13.8715 1.49894 15.3254 1.65091 16.4557C1.80481 17.6004 2.12385 18.4878 2.81802 19.182L3.52513 18.4749C3.04772 17.9975 2.78098 17.3563 2.64199 16.3225C2.50106 15.2743 2.5 13.8998 2.5 12H1.5ZM21.5 12C21.5 13.8998 21.4989 15.2743 21.358 16.3225C21.219 17.3563 20.9523 17.9975 20.4749 18.4749L21.182 19.182C21.8762 18.4878 22.1952 17.6004 22.3491 16.4557C22.5011 15.3254 22.5 13.8715 22.5 12H21.5ZM14 20.5C15.8715 20.5 17.3254 20.5011 18.4557 20.3491C19.6004 20.1952 20.4878 19.8762 21.182 19.182L20.4749 18.4749C19.9975 18.9523 19.3563 19.219 18.3225 19.358C17.2743 19.4989 15.8998 19.5 14 19.5V20.5ZM14 4.5C15.8998 4.5 17.2743 4.50106 18.3225 4.64199C19.3563 4.78098 19.9975 5.04772 20.4749 5.52513L21.182 4.81802C20.4878 4.12385 19.6004 3.80481 18.4557 3.65091C17.3254 3.49894 15.8715 3.5 14 3.5V4.5ZM22.5 12C22.5 10.1285 22.5011 8.67461 22.3491 7.54429C22.1952 6.39959 21.8762 5.51219 21.182 4.81802L20.4749 5.52513C20.9523 6.00253 21.219 6.64373 21.358 7.67754C21.4989 8.72573 21.5 10.1002 21.5 12H22.5ZM10 3.5C8.12852 3.5 6.67461 3.49894 5.54429 3.65091C4.39959 3.80481 3.51219 4.12385 2.81802 4.81802L3.52513 5.52513C4.00253 5.04772 4.64373 4.78098 5.67754 4.64199C6.72573 4.50106 8.10025 4.5 10 4.5V3.5ZM2.5 12C2.5 10.1002 2.50106 8.72573 2.64199 7.67754C2.78098 6.64373 3.04772 6.00253 3.52513 5.52513L2.81802 4.81802C2.12385 5.51219 1.80481 6.39959 1.65091 7.54429C1.49894 8.67461 1.5 10.1285 1.5 12H2.5ZM19 11.5H15V12.5H19V11.5ZM19 8.5H14V9.5H19V8.5ZM19 14.5H16V15.5H19V14.5Z" fill="#424242"/>
</svg>
