<svg width="24" height="24" viewBox="0 0 24 24" fill="none" xmlns="http://www.w3.org/2000/svg">
<path d="M15.1715 18.8284L14.818 19.1819L15.1715 18.8284ZM20.8284 13.1715L21.1819 12.818L20.8284 13.1715ZM15.5 6C15.5 7.933 13.933 9.5 12 9.5V10.5C14.4853 10.5 16.5 8.48528 16.5 6H15.5ZM12 9.5C10.067 9.5 8.5 7.933 8.5 6H7.5C7.5 8.48528 9.51472 10.5 12 10.5V9.5ZM8.5 6C8.5 4.067 10.067 2.5 12 2.5V1.5C9.51472 1.5 7.5 3.51472 7.5 6H8.5ZM12 2.5C13.933 2.5 15.5 4.067 15.5 6H16.5C16.5 3.51472 14.4853 1.5 12 1.5V2.5ZM12 21.5C10.0172 21.5 8.55383 21.3748 7.47419 21.1563C6.39235 20.9373 5.72941 20.6312 5.31573 20.2943C4.52688 19.6519 4.5 18.7861 4.5 17.5H3.5C3.5 18.6992 3.47312 20.0834 4.68427 21.0697C5.27059 21.5471 6.10765 21.9 7.27581 22.1364C8.44617 22.3733 9.98282 22.5 12 22.5V21.5ZM4.5 17.5C4.5 16.5182 5.21273 15.5276 6.58828 14.7538C7.94815 13.9889 9.86047 13.5 12 13.5V12.5C9.72125 12.5 7.63357 13.0185 6.09802 13.8822C4.57813 14.7372 3.5 15.9965 3.5 17.5H4.5ZM12 13.5C13.0248 13.5 14.0002 13.6123 14.889 13.8146L15.111 12.8396C14.1469 12.6201 13.097 12.5 12 12.5V13.5ZM19.3306 19.3473C19.147 19.9198 18.7447 20.442 17.6835 20.8371C16.5877 21.245 14.8275 21.5 12 21.5V22.5C14.86 22.5 16.7655 22.2459 18.0324 21.7742C19.3339 21.2897 19.9913 20.5619 20.2829 19.6527L19.3306 19.3473ZM21.5 16C21.5 17.933 19.933 19.5 18 19.5V20.5C20.4853 20.5 22.5 18.4853 22.5 16H21.5ZM14.5 16C14.5 14.067 16.067 12.5 18 12.5V11.5C15.5147 11.5 13.5 13.5147 13.5 16H14.5ZM18 19.5C17.0333 19.5 16.159 19.1088 15.5251 18.4748L14.818 19.1819C15.6318 19.9958 16.7575 20.5 18 20.5V19.5ZM15.5251 18.4748C14.8912 17.8409 14.5 16.9666 14.5 16H13.5C13.5 17.2425 14.0042 18.3681 14.818 19.1819L15.5251 18.4748ZM15.5251 19.1819L21.1819 13.5251L20.4748 12.818L14.818 18.4748L15.5251 19.1819ZM18 12.5C18.9666 12.5 19.8409 12.8912 20.4748 13.5251L21.1819 12.818C20.3681 12.0042 19.2425 11.5 18 11.5V12.5ZM20.4748 13.5251C21.1088 14.159 21.5 15.0333 21.5 16H22.5C22.5 14.7575 21.9958 13.6318 21.1819 12.818L20.4748 13.5251Z" fill="#424242"/>
</svg>
