<svg width="24" height="24" viewBox="0 0 24 24" fill="none" xmlns="http://www.w3.org/2000/svg">
<path d="M18.0885 12.5385L18.3919 12.141V12.141L18.0885 12.5385ZM19 8.64354L18.6454 8.99606C18.7393 9.09046 18.8669 9.14354 19 9.14354C19.1331 9.14354 19.2607 9.09046 19.3546 8.99606L19 8.64354ZM19.9115 12.5385L19.6081 12.141V12.141L19.9115 12.5385ZM13.5 6C13.5 7.933 11.933 9.5 10 9.5V10.5C12.4853 10.5 14.5 8.48528 14.5 6H13.5ZM10 9.5C8.067 9.5 6.5 7.933 6.5 6H5.5C5.5 8.48528 7.51472 10.5 10 10.5V9.5ZM6.5 6C6.5 4.067 8.067 2.5 10 2.5V1.5C7.51472 1.5 5.5 3.51472 5.5 6H6.5ZM10 2.5C11.933 2.5 13.5 4.067 13.5 6H14.5C14.5 3.51472 12.4853 1.5 10 1.5V2.5ZM17.5 17.5C17.5 18.7861 17.4731 19.6519 16.6843 20.2943C16.2706 20.6312 15.6077 20.9373 14.5258 21.1563C13.4462 21.3748 11.9828 21.5 10 21.5V22.5C12.0172 22.5 13.5538 22.3733 14.7242 22.1364C15.8923 21.9 16.7294 21.5471 17.3157 21.0697C18.5269 20.0834 18.5 18.6992 18.5 17.5H17.5ZM10 21.5C8.01718 21.5 6.55383 21.3748 5.47419 21.1563C4.39235 20.9373 3.72941 20.6312 3.31573 20.2943C2.52688 19.6519 2.5 18.7861 2.5 17.5H1.5C1.5 18.6992 1.47312 20.0834 2.68427 21.0697C3.27059 21.5471 4.10765 21.9 5.27581 22.1364C6.44617 22.3733 7.98282 22.5 10 22.5V21.5ZM2.5 17.5C2.5 16.5182 3.21273 15.5276 4.58828 14.7538C5.94815 13.9889 7.86047 13.5 10 13.5V12.5C7.72125 12.5 5.63357 13.0185 4.09802 13.8822C2.57813 14.7372 1.5 15.9965 1.5 17.5H2.5ZM10 13.5C12.1395 13.5 14.0518 13.9889 15.4117 14.7538C16.7873 15.5276 17.5 16.5182 17.5 17.5H18.5C18.5 15.9965 17.4219 14.7372 15.902 13.8822C14.3664 13.0185 12.2787 12.5 10 12.5V13.5ZM18.3919 12.141C17.9205 11.7812 17.4543 11.4643 17.0817 11.0581C16.7263 10.6706 16.5 10.2445 16.5 9.69973H15.5C15.5 10.5674 15.8766 11.2237 16.3448 11.7341C16.7958 12.2257 17.3739 12.622 17.7852 12.9359L18.3919 12.141ZM16.5 9.69973C16.5 9.18968 16.7974 8.76646 17.1961 8.59001C17.5674 8.42572 18.0999 8.44736 18.6454 8.99606L19.3546 8.29102C18.5501 7.48185 17.5827 7.32538 16.7914 7.67555C16.0276 8.01356 15.5 8.79737 15.5 9.69973H16.5ZM17.7852 12.9359C17.9364 13.0513 18.1161 13.1882 18.3024 13.2936C18.4888 13.399 18.7271 13.5 19 13.5V12.5C18.9729 12.5 18.9112 12.489 18.7948 12.4232C18.6781 12.3572 18.5521 12.2633 18.3919 12.141L17.7852 12.9359ZM20.2148 12.9359C20.6261 12.622 21.2042 12.2257 21.6552 11.7341C22.1234 11.2237 22.5 10.5674 22.5 9.69973H21.5C21.5 10.2445 21.2737 10.6706 20.9183 11.0581C20.5457 11.4643 20.0795 11.7812 19.6081 12.141L20.2148 12.9359ZM22.5 9.69973C22.5 8.79737 21.9724 8.01356 21.2086 7.67555C20.4173 7.32538 19.4499 7.48185 18.6454 8.29102L19.3546 8.99606C19.9001 8.44736 20.4326 8.42572 20.8039 8.59001C21.2026 8.76646 21.5 9.18968 21.5 9.69973H22.5ZM19.6081 12.141C19.4479 12.2633 19.3219 12.3572 19.2052 12.4232C19.0888 12.489 19.0271 12.5 19 12.5V13.5C19.2729 13.5 19.5112 13.399 19.6976 13.2936C19.8839 13.1882 20.0636 13.0513 20.2148 12.9359L19.6081 12.141Z" fill="#424242"/>
</svg>
