<svg width="24" height="24" viewBox="0 0 24 24" fill="none" xmlns="http://www.w3.org/2000/svg">
<path d="M22 8.6V9.1C22.2022 9.1 22.3846 8.97818 22.4619 8.79134C22.5393 8.6045 22.4966 8.38945 22.3536 8.24645L22 8.6ZM20.7536 6.64645C20.5583 6.45118 20.2417 6.45118 20.0464 6.64645C19.8512 6.84171 19.8512 7.15829 20.0464 7.35355L20.7536 6.64645ZM17.6 8.1C17.3239 8.1 17.1 8.32386 17.1 8.6C17.1 8.87614 17.3239 9.1 17.6 9.1V8.1ZM16 10.8V10.3C15.7978 10.3 15.6155 10.4218 15.5381 10.6087C15.4607 10.7955 15.5034 11.0106 15.6464 11.1536L16 10.8ZM17.2464 12.7536C17.4417 12.9488 17.7583 12.9488 17.9536 12.7536C18.1488 12.5583 18.1488 12.2417 17.9536 12.0464L17.2464 12.7536ZM20.4 11.3C20.6761 11.3 20.9 11.0761 20.9 10.8C20.9 10.5239 20.6761 10.3 20.4 10.3V11.3ZM22.3536 8.24645L20.7536 6.64645L20.0464 7.35355L21.6464 8.95355L22.3536 8.24645ZM17.6 9.1L22 9.1V8.1L17.6 8.1V9.1ZM15.6464 11.1536L17.2464 12.7536L17.9536 12.0464L16.3536 10.4464L15.6464 11.1536ZM20.4 10.3L16 10.3V11.3L20.4 11.3V10.3ZM12.8 6.6C12.8 8.31208 11.4121 9.7 9.7 9.7V10.7C11.9644 10.7 13.8 8.86437 13.8 6.6H12.8ZM9.7 9.7C7.98792 9.7 6.6 8.31208 6.6 6.6H5.6C5.6 8.86437 7.43563 10.7 9.7 10.7V9.7ZM6.6 6.6C6.6 4.88792 7.98792 3.5 9.7 3.5V2.5C7.43563 2.5 5.6 4.33563 5.6 6.6H6.6ZM9.7 3.5C11.4121 3.5 12.8 4.88792 12.8 6.6H13.8C13.8 4.33563 11.9644 2.5 9.7 2.5V3.5ZM16.4 16.95C16.4 18.1118 16.3731 18.8651 15.6843 19.4261C15.3206 19.7222 14.7327 19.9955 13.7633 20.1917C12.7962 20.3874 11.4828 20.5 9.7 20.5V21.5C11.5172 21.5 12.9038 21.3859 13.9617 21.1718C15.0173 20.9581 15.7794 20.6382 16.3157 20.2015C17.4269 19.2966 17.4 18.0249 17.4 16.95H16.4ZM9.7 20.5C7.91718 20.5 6.60383 20.3874 5.63669 20.1917C4.66735 19.9955 4.07941 19.7222 3.71573 19.4261C3.02688 18.8651 3 18.1118 3 16.95H2C2 18.0249 1.97312 19.2966 3.08427 20.2015C3.62059 20.6382 4.38265 20.9581 5.43831 21.1718C6.49617 21.3859 7.88282 21.5 9.7 21.5V20.5ZM3 16.95C3 16.0925 3.62319 15.2143 4.85396 14.522C6.06907 13.8385 7.78138 13.4 9.7 13.4V12.4C7.64217 12.4 5.75448 12.8681 4.3637 13.6504C2.98859 14.4239 2 15.5708 2 16.95H3ZM9.7 13.4C11.6186 13.4 13.3309 13.8385 14.546 14.522C15.7768 15.2143 16.4 16.0925 16.4 16.95H17.4C17.4 15.5708 16.4114 14.4239 15.0363 13.6504C13.6455 12.8681 11.7578 12.4 9.7 12.4V13.4Z" fill="#424242"/>
</svg>
