<svg width="24" height="24" viewBox="0 0 24 24" fill="none" xmlns="http://www.w3.org/2000/svg">
<path d="M19.5034 21.5584C19.5357 21.8327 19.7842 22.0288 20.0584 21.9966C20.3327 21.9643 20.5288 21.7158 20.4966 21.4416L19.5034 21.5584ZM19.3505 15.9794L19.8471 15.921V15.921L19.3505 15.9794ZM2.48507 5.87873C2.4181 5.61083 2.14663 5.44795 1.87873 5.51493C1.61083 5.5819 1.44795 5.85337 1.51493 6.12127L2.48507 5.87873ZM2.38197 7.52786L2.86704 7.4066V7.4066L2.38197 7.52786ZM8 13.5H16V12.5H8V13.5ZM15.5 13V18H16.5V13H15.5ZM8.5 18V13H7.5V18H8.5ZM18.8539 16.0379L19.5034 21.5584L20.4966 21.4416L19.8471 15.921L18.8539 16.0379ZM16 13.5C17.4572 13.5 18.6837 14.5907 18.8539 16.0379L19.8471 15.921C19.6176 13.9702 17.9643 12.5 16 12.5V13.5ZM12 21.5C11.0431 21.5 10.3756 21.4989 9.87208 21.4312C9.3829 21.3655 9.12385 21.2452 8.93934 21.0607L8.23223 21.7678C8.63351 22.169 9.13876 22.3416 9.73883 22.4223C10.3245 22.5011 11.0713 22.5 12 22.5V21.5ZM7.5 18C7.5 18.9287 7.49894 19.6755 7.57768 20.2612C7.65836 20.8612 7.83095 21.3665 8.23223 21.7678L8.93934 21.0607C8.75483 20.8762 8.63453 20.6171 8.56876 20.1279C8.50106 19.6244 8.5 18.9569 8.5 18H7.5ZM15.5 18C15.5 18.9569 15.4989 19.6244 15.4312 20.1279C15.3655 20.6171 15.2452 20.8761 15.0607 21.0607L15.7678 21.7678C16.169 21.3665 16.3416 20.8612 16.4223 20.2612C16.5011 19.6755 16.5 18.9287 16.5 18H15.5ZM12 22.5C12.9287 22.5 13.6755 22.5011 14.2612 22.4223C14.8612 22.3416 15.3665 22.169 15.7678 21.7678L15.0607 21.0607C14.8761 21.2452 14.6171 21.3655 14.1279 21.4312C13.6244 21.4989 12.9569 21.5 12 21.5V22.5ZM2.86704 7.4066L2.48507 5.87873L1.51493 6.12127L1.8969 7.64913L2.86704 7.4066ZM8.10847 12.5119C5.53544 11.9401 3.50631 9.96368 2.86704 7.4066L1.8969 7.64913C2.62803 10.5737 4.94876 12.8341 7.89153 13.4881L8.10847 12.5119ZM15.5 6C15.5 7.933 13.933 9.5 12 9.5V10.5C14.4853 10.5 16.5 8.48528 16.5 6H15.5ZM12 9.5C10.067 9.5 8.5 7.933 8.5 6H7.5C7.5 8.48528 9.51472 10.5 12 10.5V9.5ZM8.5 6C8.5 4.067 10.067 2.5 12 2.5V1.5C9.51472 1.5 7.5 3.51472 7.5 6H8.5ZM12 2.5C13.933 2.5 15.5 4.067 15.5 6H16.5C16.5 3.51472 14.4853 1.5 12 1.5V2.5Z" fill="#424242"/>
</svg>
