<svg width="24" height="24" viewBox="0 0 24 24" fill="none" xmlns="http://www.w3.org/2000/svg">
<path d="M19.8284 9.48988L20.083 9.9202V9.9202L19.8284 9.48988ZM16.5 7.875C16.5 8.15114 16.7239 8.375 17 8.375C17.2761 8.375 17.5 8.15114 17.5 7.875H16.5ZM18.375 11.3273C18.375 11.6035 18.5989 11.8273 18.875 11.8273C19.1511 11.8273 19.375 11.6035 19.375 11.3273H18.375ZM19.375 12.9505C19.375 12.6743 19.1511 12.4505 18.875 12.4505C18.5989 12.4505 18.375 12.6743 18.375 12.9505H19.375ZM18.375 13C18.375 13.2761 18.5989 13.5 18.875 13.5C19.1511 13.5 19.375 13.2761 19.375 13H18.375ZM13.5 6C13.5 7.933 11.933 9.5 10 9.5V10.5C12.4853 10.5 14.5 8.48528 14.5 6H13.5ZM10 9.5C8.067 9.5 6.5 7.933 6.5 6H5.5C5.5 8.48528 7.51472 10.5 10 10.5V9.5ZM6.5 6C6.5 4.067 8.067 2.5 10 2.5V1.5C7.51472 1.5 5.5 3.51472 5.5 6H6.5ZM10 2.5C11.933 2.5 13.5 4.067 13.5 6H14.5C14.5 3.51472 12.4853 1.5 10 1.5V2.5ZM17.5 17.5C17.5 18.7861 17.4731 19.6519 16.6843 20.2943C16.2706 20.6312 15.6077 20.9373 14.5258 21.1563C13.4462 21.3748 11.9828 21.5 10 21.5V22.5C12.0172 22.5 13.5538 22.3733 14.7242 22.1364C15.8923 21.9 16.7294 21.5471 17.3157 21.0697C18.5269 20.0834 18.5 18.6992 18.5 17.5H17.5ZM10 21.5C8.01718 21.5 6.55383 21.3748 5.47419 21.1563C4.39235 20.9373 3.72941 20.6312 3.31573 20.2943C2.52688 19.6519 2.5 18.7861 2.5 17.5H1.5C1.5 18.6992 1.47312 20.0834 2.68427 21.0697C3.27059 21.5471 4.10765 21.9 5.27581 22.1364C6.44617 22.3733 7.98282 22.5 10 22.5V21.5ZM2.5 17.5C2.5 16.5182 3.21273 15.5276 4.58828 14.7538C5.94815 13.9889 7.86047 13.5 10 13.5V12.5C7.72125 12.5 5.63357 13.0185 4.09802 13.8822C2.57813 14.7372 1.5 15.9965 1.5 17.5H2.5ZM10 13.5C12.1395 13.5 14.0518 13.9889 15.4117 14.7538C16.7873 15.5276 17.5 16.5182 17.5 17.5H18.5C18.5 15.9965 17.4219 14.7372 15.902 13.8822C14.3664 13.0185 12.2787 12.5 10 12.5V13.5ZM20.25 7.875C20.25 8.37852 19.9796 8.81942 19.5738 9.05955L20.083 9.9202C20.7804 9.50754 21.25 8.74637 21.25 7.875H20.25ZM17.5 7.875C17.5 7.11561 18.1156 6.5 18.875 6.5V5.5C17.5633 5.5 16.5 6.56332 16.5 7.875H17.5ZM18.875 6.5C19.6344 6.5 20.25 7.11561 20.25 7.875H21.25C21.25 6.56332 20.1867 5.5 18.875 5.5V6.5ZM18.375 10.75V11.3273H19.375V10.75H18.375ZM19.5738 9.05955C19.3088 9.2163 19.0199 9.4265 18.7922 9.69477C18.5625 9.96547 18.375 10.3207 18.375 10.75H19.375C19.375 10.627 19.4265 10.4928 19.5547 10.3418C19.6849 10.1884 19.8726 10.0447 20.083 9.9202L19.5738 9.05955ZM18.375 12.9505V13H19.375V12.9505H18.375Z" fill="#424242"/>
</svg>
