<svg width="24" height="24" viewBox="0 0 24 24" fill="none" xmlns="http://www.w3.org/2000/svg">
<path d="M19.5034 21.5584C19.5357 21.8327 19.7842 22.0288 20.0584 21.9966C20.3327 21.9643 20.5288 21.7158 20.4966 21.4416L19.5034 21.5584ZM3.50342 21.4416C3.47116 21.7158 3.66733 21.9643 3.94158 21.9966C4.21583 22.0288 4.46431 21.8327 4.49658 21.5584L3.50342 21.4416ZM4.64948 15.9795L5.14605 16.0379V16.0379L4.64948 15.9795ZM19.3505 15.9795L19.8471 15.921V15.921L19.3505 15.9795ZM8 13.5H16V12.5H8V13.5ZM15.5 13V18H16.5V13H15.5ZM8.5 18V13H7.5V18H8.5ZM18.8539 16.0379L19.5034 21.5584L20.4966 21.4416L19.8471 15.921L18.8539 16.0379ZM4.1529 15.921L3.50342 21.4416L4.49658 21.5584L5.14605 16.0379L4.1529 15.921ZM8 12.5C6.03574 12.5 4.38241 13.9702 4.1529 15.921L5.14605 16.0379C5.31631 14.5907 6.54282 13.5 8 13.5V12.5ZM16 13.5C17.4572 13.5 18.6837 14.5907 18.8539 16.0379L19.8471 15.921C19.6176 13.9702 17.9643 12.5 16 12.5V13.5ZM12 21.5C11.0431 21.5 10.3756 21.4989 9.87208 21.4312C9.3829 21.3655 9.12385 21.2452 8.93934 21.0607L8.23223 21.7678C8.63351 22.169 9.13876 22.3416 9.73883 22.4223C10.3245 22.5011 11.0713 22.5 12 22.5V21.5ZM7.5 18C7.5 18.9287 7.49894 19.6755 7.57768 20.2612C7.65836 20.8612 7.83096 21.3665 8.23223 21.7678L8.93934 21.0607C8.75483 20.8762 8.63453 20.6171 8.56876 20.1279C8.50106 19.6244 8.5 18.9569 8.5 18H7.5ZM15.5 18C15.5 18.9569 15.4989 19.6244 15.4312 20.1279C15.3655 20.6171 15.2452 20.8762 15.0607 21.0607L15.7678 21.7678C16.169 21.3665 16.3416 20.8612 16.4223 20.2612C16.5011 19.6755 16.5 18.9287 16.5 18H15.5ZM12 22.5C12.9287 22.5 13.6755 22.5011 14.2612 22.4223C14.8612 22.3416 15.3665 22.169 15.7678 21.7678L15.0607 21.0607C14.8762 21.2452 14.6171 21.3655 14.1279 21.4312C13.6244 21.4989 12.9569 21.5 12 21.5V22.5ZM15.5 6C15.5 7.933 13.933 9.5 12 9.5V10.5C14.4853 10.5 16.5 8.48528 16.5 6H15.5ZM12 9.5C10.067 9.5 8.5 7.933 8.5 6H7.5C7.5 8.48528 9.51472 10.5 12 10.5V9.5ZM8.5 6C8.5 4.067 10.067 2.5 12 2.5V1.5C9.51472 1.5 7.5 3.51472 7.5 6H8.5ZM12 2.5C13.933 2.5 15.5 4.067 15.5 6H16.5C16.5 3.51472 14.4853 1.5 12 1.5V2.5Z" fill="#424242"/>
</svg>
