<svg width="24" height="24" viewBox="0 0 24 24" fill="none" xmlns="http://www.w3.org/2000/svg">
<path d="M17 9.50019L16.7764 9.05298L16.5 9.19118V9.50019H17ZM17 14.5002H16.5V14.8092L16.7764 14.9474L17 14.5002ZM17.6584 14.8294L17.4348 15.2766V15.2766L17.6584 14.8294ZM17.6584 9.17101L17.882 9.61823H17.882L17.6584 9.17101ZM3.46243 19.092L3.14523 19.4785L3.46243 19.092ZM2.90796 18.5376L2.52145 18.8548L2.90796 18.5376ZM16.092 18.5376L16.4785 18.8548L16.092 18.5376ZM15.5376 19.092L15.8548 19.4785L15.5376 19.092ZM15.5376 4.90796L15.8548 4.52145L15.5376 4.90796ZM16.092 5.46243L16.4785 5.14523L16.092 5.46243ZM3.46243 4.90796L3.14523 4.52145L3.46243 4.90796ZM2.90796 5.46243L2.52145 5.14523L2.90796 5.46243ZM17.2236 9.94741L17.882 9.61823L17.4348 8.7238L16.7764 9.05298L17.2236 9.94741ZM21.5 11.8543V12.1461H22.5V11.8543H21.5ZM17.882 14.3822L17.2236 14.053L16.7764 14.9474L17.4348 15.2766L17.882 14.3822ZM17.5 14.5002V9.50019H16.5V14.5002H17.5ZM21.5 12.1461C21.5 13.2506 21.4987 14.0217 21.4165 14.5751C21.3354 15.1212 21.1937 15.32 21.0257 15.4238L21.5515 16.2744C22.0949 15.9386 22.3089 15.3736 22.4057 14.722C22.5013 14.0777 22.5 13.2171 22.5 12.1461H21.5ZM17.4348 15.2766C18.3927 15.7556 19.1618 16.1416 19.7809 16.3442C20.407 16.549 21.008 16.6103 21.5515 16.2744L21.0257 15.4238C20.8578 15.5276 20.6166 15.5655 20.0919 15.3938C19.5602 15.2198 18.8699 14.8761 17.882 14.3822L17.4348 15.2766ZM17.882 9.61823C18.8699 9.12427 19.5602 8.7806 20.0919 8.60662C20.6166 8.43493 20.8578 8.47278 21.0257 8.57659L21.5515 7.72594C21.008 7.39009 20.407 7.45134 19.7809 7.6562C19.1618 7.85878 18.3927 8.24481 17.4348 8.7238L17.882 9.61823ZM22.5 11.8543C22.5 10.7832 22.5013 9.9227 22.4057 9.27838C22.3089 8.62676 22.0949 8.0618 21.5515 7.72594L21.0257 8.57659C21.1937 8.68041 21.3354 8.87917 21.4165 9.42526C21.4987 9.97864 21.5 10.7498 21.5 11.8543H22.5ZM13.2071 7.79289C13.5976 8.18342 13.5976 8.81658 13.2071 9.20711L13.9142 9.91421C14.6953 9.13316 14.6953 7.86684 13.9142 7.08579L13.2071 7.79289ZM13.2071 9.20711C12.8166 9.59763 12.1834 9.59763 11.7929 9.20711L11.0858 9.91421C11.8668 10.6953 13.1332 10.6953 13.9142 9.91421L13.2071 9.20711ZM11.7929 9.20711C11.4024 8.81658 11.4024 8.18342 11.7929 7.79289L11.0858 7.08579C10.3047 7.86684 10.3047 9.13316 11.0858 9.91421L11.7929 9.20711ZM11.7929 7.79289C12.1834 7.40237 12.8166 7.40237 13.2071 7.79289L13.9142 7.08579C13.1332 6.30474 11.8668 6.30474 11.0858 7.08579L11.7929 7.79289ZM16.5 11.5V12.5H17.5V11.5H16.5ZM2.5 12.5V11.5H1.5V12.5H2.5ZM9.5 19.5C7.84401 19.5 6.64598 19.4992 5.72198 19.39C4.80902 19.282 4.22895 19.0743 3.77962 18.7055L3.14523 19.4785C3.80225 20.0178 4.59723 20.264 5.6046 20.383C6.60093 20.5008 7.86851 20.5 9.5 20.5V19.5ZM1.5 12.5C1.5 14.1315 1.49918 15.3991 1.61695 16.3954C1.73603 17.4028 1.98225 18.1977 2.52145 18.8548L3.29446 18.2204C2.92571 17.771 2.71795 17.191 2.61004 16.278C2.50082 15.354 2.5 14.156 2.5 12.5H1.5ZM3.77962 18.7055C3.6024 18.5601 3.4399 18.3976 3.29446 18.2204L2.52145 18.8548C2.70845 19.0826 2.91738 19.2916 3.14523 19.4785L3.77962 18.7055ZM16.5 12.5C16.5 14.156 16.4992 15.354 16.39 16.278C16.282 17.191 16.0743 17.771 15.7055 18.2204L16.4785 18.8548C17.0178 18.1977 17.264 17.4028 17.383 16.3954C17.5008 15.3991 17.5 14.1315 17.5 12.5H16.5ZM9.5 20.5C11.1315 20.5 12.3991 20.5008 13.3954 20.383C14.4028 20.264 15.1977 20.0178 15.8548 19.4785L15.2204 18.7055C14.771 19.0743 14.191 19.282 13.278 19.39C12.354 19.4992 11.156 19.5 9.5 19.5V20.5ZM15.7055 18.2204C15.5601 18.3976 15.3976 18.5601 15.2204 18.7055L15.8548 19.4785C16.0826 19.2916 16.2916 19.0826 16.4785 18.8548L15.7055 18.2204ZM9.5 4.5C11.156 4.5 12.354 4.50082 13.278 4.61004C14.191 4.71795 14.771 4.92571 15.2204 5.29446L15.8548 4.52145C15.1977 3.98225 14.4028 3.73603 13.3954 3.61695C12.3991 3.49918 11.1315 3.5 9.5 3.5V4.5ZM17.5 11.5C17.5 9.86851 17.5008 8.60093 17.383 7.6046C17.264 6.59723 17.0178 5.80225 16.4785 5.14523L15.7055 5.77962C16.0743 6.22895 16.282 6.80902 16.39 7.72198C16.4992 8.64598 16.5 9.84401 16.5 11.5H17.5ZM15.2204 5.29446C15.3976 5.4399 15.5601 5.6024 15.7055 5.77962L16.4785 5.14523C16.2916 4.91738 16.0826 4.70845 15.8548 4.52145L15.2204 5.29446ZM9.5 3.5C7.86851 3.5 6.60093 3.49918 5.6046 3.61695C4.59723 3.73603 3.80225 3.98225 3.14523 4.52145L3.77962 5.29446C4.22895 4.92571 4.80902 4.71795 5.72198 4.61004C6.64598 4.50082 7.84401 4.5 9.5 4.5V3.5ZM2.5 11.5C2.5 9.84401 2.50082 8.64598 2.61004 7.72198C2.71795 6.80902 2.92571 6.22895 3.29446 5.77962L2.52145 5.14523C1.98225 5.80225 1.73603 6.59723 1.61695 7.6046C1.49918 8.60093 1.5 9.86851 1.5 11.5H2.5ZM3.14523 4.52145C2.91738 4.70845 2.70845 4.91738 2.52145 5.14523L3.29446 5.77962C3.4399 5.6024 3.6024 5.4399 3.77962 5.29446L3.14523 4.52145Z" fill="#424242"/>
</svg>
