<svg width="24" height="24" viewBox="0 0 24 24" fill="none" xmlns="http://www.w3.org/2000/svg">
<path d="M2 5.5C1.72386 5.5 1.5 5.72386 1.5 6C1.5 6.27614 1.72386 6.5 2 6.5V6V5.5ZM22 6.5C22.2761 6.5 22.5 6.27614 22.5 6C22.5 5.72386 22.2761 5.5 22 5.5V6V6.5ZM2 9.5C1.72386 9.5 1.5 9.72386 1.5 10C1.5 10.2761 1.72386 10.5 2 10.5V10V9.5ZM9.5 10.5C9.77614 10.5 10 10.2761 10 10C10 9.72386 9.77614 9.5 9.5 9.5V10V10.5ZM2 13.5C1.72386 13.5 1.5 13.7239 1.5 14C1.5 14.2761 1.72386 14.5 2 14.5V14V13.5ZM9.5 14.5C9.77614 14.5 10 14.2761 10 14C10 13.7239 9.77614 13.5 9.5 13.5V14V14.5ZM2 17.5C1.72386 17.5 1.5 17.7239 1.5 18C1.5 18.2761 1.72386 18.5 2 18.5V18V17.5ZM9.5 18.5C9.77614 18.5 10 18.2761 10 18C10 17.7239 9.77614 17.5 9.5 17.5V18V18.5ZM21.3626 12.3522L20.9663 12.6571V12.6571L21.3626 12.3522ZM21.3626 15.6478L20.9663 15.3429V15.3429L21.3626 15.6478ZM22 14H21.5H22ZM12.6374 12.3522L13.0337 12.6571V12.6571L12.6374 12.3522ZM12.6374 15.6478L13.0337 15.3429V15.3429L12.6374 15.6478ZM2 6V6.5H22V6V5.5H2V6ZM2 10V10.5H9.5V10V9.5H2V10ZM2 14V14.5H9.5V14V13.5H2V14ZM2 18V18.5H9.5V18V17.5H2V18ZM12.6374 12.3522L13.0337 12.6571C13.8371 11.6134 15.1306 10.5 17 10.5V10V9.5C14.6876 9.5 13.1349 10.8862 12.2412 12.0472L12.6374 12.3522ZM17 10V10.5C18.8694 10.5 20.1629 11.6134 20.9663 12.6571L21.3626 12.3522L21.7588 12.0472C20.8651 10.8862 19.3124 9.5 17 9.5V10ZM21.3626 15.6478L20.9663 15.3429C20.1629 16.3866 18.8694 17.5 17 17.5V18V18.5C19.3124 18.5 20.8651 17.1138 21.7588 15.9528L21.3626 15.6478ZM17 18V17.5C15.1306 17.5 13.8371 16.3866 13.0337 15.3429L12.6374 15.6478L12.2412 15.9528C13.1349 17.1138 14.6876 18.5 17 18.5V18ZM21.3626 12.3522L20.9663 12.6571C21.1879 12.945 21.306 13.103 21.3833 13.2778C21.4531 13.4359 21.5 13.6359 21.5 14H22H22.5C22.5 13.5444 22.4406 13.1965 22.298 12.8737C22.1628 12.5675 21.9622 12.3114 21.7588 12.0472L21.3626 12.3522ZM21.3626 15.6478L21.7588 15.9528C21.9622 15.6886 22.1628 15.4325 22.298 15.1263C22.4406 14.8035 22.5 14.4556 22.5 14H22H21.5C21.5 14.3641 21.4531 14.5641 21.3833 14.7222C21.306 14.897 21.1879 15.055 20.9663 15.3429L21.3626 15.6478ZM12.6374 12.3522L12.2412 12.0472C12.0378 12.3114 11.8372 12.5675 11.702 12.8737C11.5594 13.1965 11.5 13.5444 11.5 14H12H12.5C12.5 13.6359 12.5469 13.4359 12.6167 13.2778C12.694 13.103 12.8121 12.945 13.0337 12.6571L12.6374 12.3522ZM12.6374 15.6478L13.0337 15.3429C12.8121 15.055 12.694 14.897 12.6167 14.7222C12.5469 14.5641 12.5 14.3641 12.5 14H12H11.5C11.5 14.4556 11.5594 14.8035 11.702 15.1263C11.8372 15.4325 12.0378 15.6886 12.2412 15.9528L12.6374 15.6478ZM18.5 14H18C18 14.5523 17.5523 15 17 15V15.5V16C18.1046 16 19 15.1046 19 14H18.5ZM17 15.5V15C16.4477 15 16 14.5523 16 14H15.5H15C15 15.1046 15.8954 16 17 16V15.5ZM15.5 14H16C16 13.4477 16.4477 13 17 13V12.5V12C15.8954 12 15 12.8954 15 14H15.5ZM17 12.5V13C17.5523 13 18 13.4477 18 14H18.5H19C19 12.8954 18.1046 12 17 12V12.5Z" fill="#424242"/>
</svg>
