<svg width="24" height="24" viewBox="0 0 24 24" fill="none" xmlns="http://www.w3.org/2000/svg">
<path d="M8.59932 6.22002L8.32409 5.80259L8.32409 5.80259L8.59932 6.22002ZM8.81825 6.07566L9.09348 6.4931L9.09348 6.4931L8.81825 6.07566ZM1.53479 13.0282L2.03386 12.9978V12.9978L1.53479 13.0282ZM1.53479 10.9714L2.03386 11.0018V11.0018L1.53479 10.9714ZM16 11.9998C16 11.7236 15.7761 11.4998 15.5 11.4998C15.2239 11.4998 15 11.7236 15 11.9998H16ZM15.4127 14.6052L15.9122 14.6284V14.6284L15.4127 14.6052ZM7.0162 6.95791L6.93295 6.46489V6.46489L7.0162 6.95791ZM7.72795 6.74438L7.52607 6.28695V6.28695L7.72795 6.74438ZM3.33988 16.7225L3.54983 16.2687H3.54983L3.33988 16.7225ZM1.95854 15.4228L1.51837 15.66H1.51837L1.95854 15.4228ZM14.2797 19.7797L14.5672 20.1888H14.5672L14.2797 19.7797ZM13.7001 20.0747L13.5386 19.6015H13.5386L13.7001 20.0747ZM13.7001 3.92487L13.5386 4.39808V4.39808L13.7001 3.92487ZM14.2797 4.21984L14.5672 3.81075V3.81075L14.2797 4.21984ZM3.33988 7.27707L3.54983 7.73086V7.73086L3.33988 7.27707ZM1.95854 8.57679L1.51837 8.33962H1.51837L1.95854 8.57679ZM9.77405 17.9543C9.54308 17.803 9.23315 17.8675 9.08179 18.0985C8.93044 18.3295 8.99498 18.6394 9.22595 18.7907L9.77405 17.9543ZM19.6159 17.6799C19.4391 17.892 19.4678 18.2073 19.6799 18.3841C19.892 18.5609 20.2073 18.5322 20.3841 18.32L19.6159 17.6799ZM21.0287 6.79437C20.9151 6.54266 20.619 6.43067 20.3673 6.54424C20.1156 6.65781 20.0036 6.95392 20.1171 7.20563L21.0287 6.79437ZM17.5629 14.7572C17.4288 14.9986 17.5158 15.303 17.7572 15.4371C17.9986 15.5712 18.303 15.4842 18.4371 15.2428L17.5629 14.7572ZM18.806 9.89836C18.7499 9.62798 18.4852 9.45431 18.2148 9.51044C17.9444 9.56657 17.7708 9.83126 17.8269 10.1016L18.806 9.89836ZM22.3536 2.35355C22.5488 2.15829 22.5488 1.84171 22.3536 1.64645C22.1583 1.45118 21.8417 1.45118 21.6464 1.64645L22.3536 2.35355ZM1.64645 21.6464C1.45118 21.8417 1.45118 22.1583 1.64645 22.3536C1.84171 22.5488 2.15829 22.5488 2.35355 22.3536L1.64645 21.6464ZM8.87455 6.63745L9.09348 6.4931L8.54303 5.65823L8.32409 5.80259L8.87455 6.63745ZM2.03386 12.9978C2.0125 12.6473 2 12.3094 2 11.9998H1C1 12.335 1.01349 12.6939 1.03572 13.0586L2.03386 12.9978ZM2 11.9998C2 11.6902 2.0125 11.3523 2.03386 11.0018L1.03572 10.941C1.01349 11.3057 1 11.6646 1 11.9998H2ZM15 11.9998C15 12.5183 14.9652 13.4632 14.9133 14.582L15.9122 14.6284C15.964 13.5127 16 12.5451 16 11.9998H15ZM6.00008 7.49979C6.49586 7.49979 6.80061 7.50139 7.09946 7.45093L6.93295 6.46489C6.73577 6.49818 6.52845 6.49979 6.00008 6.49979V7.49979ZM8.32409 5.80259C7.88298 6.09343 7.70901 6.20621 7.52607 6.28695L7.92983 7.20182C8.2071 7.07944 8.46065 6.91035 8.87455 6.63745L8.32409 5.80259ZM7.09946 7.45093C7.3855 7.40262 7.66443 7.31894 7.92983 7.20182L7.52607 6.28695C7.3365 6.37061 7.13726 6.43038 6.93295 6.46489L7.09946 7.45093ZM6.00008 17.4998C6.52845 17.4998 6.73577 17.5014 6.93294 17.5347L7.09946 16.5486C6.80061 16.4982 6.49586 16.4998 6.00008 16.4998V17.4998ZM6.00008 16.4998C4.57966 16.4998 4.02581 16.4889 3.54983 16.2687L3.12993 17.1763C3.85261 17.5106 4.67268 17.4998 6.00008 17.4998V16.4998ZM1.03572 13.0586C1.10715 14.2306 1.14183 14.9611 1.51837 15.66L2.39871 15.1856C2.14878 14.7218 2.10979 14.2435 2.03386 12.9978L1.03572 13.0586ZM3.54983 16.2687C3.1004 16.0608 2.63361 15.6216 2.39871 15.1856L1.51837 15.66C1.85585 16.2863 2.4842 16.8775 3.12993 17.1763L3.54983 16.2687ZM14.9133 14.582C14.8425 16.1054 14.7907 17.1972 14.6476 17.9922C14.5048 18.7849 14.2904 19.1611 13.9922 19.3707L14.5672 20.1888C15.1917 19.7499 15.4737 19.0475 15.6317 18.1694C15.7894 17.2936 15.8428 16.1224 15.9122 14.6284L14.9133 14.582ZM13.8615 20.5479C14.111 20.4628 14.3515 20.3404 14.5672 20.1888L13.9922 19.3707C13.854 19.4678 13.6984 19.547 13.5386 19.6015L13.8615 20.5479ZM9.09348 6.4931C10.3772 5.6467 11.2984 5.04052 12.031 4.68466C12.7622 4.32944 13.1946 4.28068 13.5386 4.39808L13.8615 3.45167C13.1382 3.20482 12.4011 3.39312 11.594 3.78518C10.7883 4.17661 9.8023 4.82794 8.54303 5.65823L9.09348 6.4931ZM13.5386 4.39808C13.6984 4.45261 13.854 4.53183 13.9922 4.62892L14.5672 3.81075C14.3515 3.65919 14.111 3.5368 13.8615 3.45167L13.5386 4.39808ZM6.00008 6.49979C4.67268 6.49979 3.85261 6.48893 3.12993 6.82329L3.54983 7.73086C4.02581 7.51064 4.57966 7.49979 6.00008 7.49979V6.49979ZM2.03386 11.0018C2.10979 9.75608 2.14878 9.27781 2.39871 8.81395L1.51837 8.33962C1.14183 9.03846 1.10715 9.76902 1.03572 10.941L2.03386 11.0018ZM3.12993 6.82329C2.4842 7.12204 1.85585 7.71326 1.51837 8.33962L2.39871 8.81395C2.63361 8.378 3.1004 7.93879 3.54983 7.73086L3.12993 6.82329ZM9.22595 18.7907C10.2681 19.4736 11.1106 20.0056 11.8216 20.3201C12.5387 20.6374 13.2056 20.7717 13.8615 20.5479L13.5386 19.6015C13.2271 19.7078 12.8427 19.6784 12.2261 19.4056C11.6032 19.1301 10.8295 18.6459 9.77405 17.9543L9.22595 18.7907ZM15.8734 8.55212C15.8126 7.32102 15.7469 6.33634 15.5827 5.58275C15.4169 4.82176 15.1327 4.20816 14.5672 3.81075L13.9922 4.62892C14.262 4.81852 14.4637 5.14441 14.6056 5.79565C14.7491 6.4543 14.813 7.35458 14.8746 8.60145L15.8734 8.55212ZM21 12C21 14.0389 20.6362 15.478 20.2833 16.3955C20.1067 16.8548 19.9321 17.1851 19.8056 17.3958C19.7424 17.5012 19.6911 17.5768 19.6576 17.6238C19.6408 17.6473 19.6285 17.6636 19.6213 17.6729C19.6177 17.6775 19.6154 17.6804 19.6145 17.6816C19.614 17.6822 19.6139 17.6823 19.6141 17.682C19.6142 17.6819 19.6144 17.6816 19.6147 17.6813C19.6149 17.6811 19.615 17.6809 19.6152 17.6806C19.6153 17.6805 19.6155 17.6803 19.6155 17.6803C19.6157 17.6801 19.6159 17.6799 20 18C20.3841 18.32 20.3843 18.3198 20.3845 18.3196C20.3846 18.3195 20.3848 18.3193 20.3849 18.3191C20.3852 18.3188 20.3855 18.3184 20.3858 18.318C20.3865 18.3172 20.3872 18.3163 20.3881 18.3153C20.3897 18.3132 20.3918 18.3107 20.3941 18.3078C20.3989 18.3018 20.405 18.2941 20.4124 18.2846C20.4272 18.2654 20.4471 18.239 20.4713 18.205C20.5198 18.1371 20.5857 18.0393 20.6631 17.9103C20.8179 17.6523 21.0183 17.2701 21.2167 16.7544C21.6138 15.7219 22 14.161 22 12H21ZM20.1171 7.20563C20.5118 8.08024 21 9.63794 21 12H22C22 9.49521 21.4812 7.7974 21.0287 6.79437L20.1171 7.20563ZM18 12C18 13.0099 17.8798 13.7181 17.7657 14.1633C17.7085 14.3861 17.6528 14.5437 17.6139 14.6409C17.5944 14.6895 17.5792 14.7231 17.5701 14.7423C17.5655 14.7518 17.5625 14.7578 17.5612 14.7603C17.5606 14.7615 17.5604 14.7619 17.5606 14.7613C17.5608 14.7611 17.561 14.7606 17.5614 14.7599C17.5616 14.7596 17.5618 14.7592 17.5621 14.7587C17.5622 14.7585 17.5623 14.7582 17.5625 14.758C17.5625 14.7579 17.5627 14.7577 17.5627 14.7576C17.5628 14.7574 17.5629 14.7572 18 15C18.4371 15.2428 18.4372 15.2426 18.4373 15.2424C18.4374 15.2423 18.4375 15.2421 18.4376 15.2419C18.4377 15.2416 18.4379 15.2413 18.4381 15.241C18.4385 15.2403 18.4389 15.2396 18.4393 15.2388C18.4402 15.2372 18.4411 15.2354 18.4422 15.2334C18.4444 15.2293 18.447 15.2243 18.45 15.2185C18.4561 15.2067 18.4638 15.1913 18.4729 15.1722C18.4911 15.1339 18.5149 15.0808 18.5424 15.0123C18.5972 14.8751 18.6665 14.6764 18.7343 14.4117C18.8702 13.8819 19 13.0901 19 12H18ZM17.8269 10.1016C17.919 10.5452 18 11.1709 18 12H19C19 11.1053 18.9125 10.4115 18.806 9.89836L17.8269 10.1016ZM21.6464 1.64645L1.64645 21.6464L2.35355 22.3536L22.3536 2.35355L21.6464 1.64645Z" fill="#424242"/>
</svg>
