<svg width="24" height="24" viewBox="0 0 24 24" fill="none" xmlns="http://www.w3.org/2000/svg">
<path d="M7.0162 6.95791L7.09946 7.45093L7.0162 6.95791ZM8.59932 6.22002L8.32409 5.80259L8.32409 5.80259L8.59932 6.22002ZM7.72795 6.74438L7.92983 7.20182L7.72795 6.74438ZM8.59932 17.7796L8.32409 18.197L8.32409 18.197L8.59932 17.7796ZM7.72795 17.2552L7.92983 16.7978L7.72795 17.2552ZM7.0162 17.0417L7.09946 16.5486L7.0162 17.0417ZM3.33988 16.7225L3.12993 17.1763L3.33988 16.7225ZM1.53479 13.0282L1.03572 13.0586L1.53479 13.0282ZM1.95854 15.4228L2.39871 15.1856L1.95854 15.4228ZM8.81825 17.9239L9.09348 17.5065L9.09348 17.5065L8.81825 17.9239ZM13.7001 20.0747L13.5386 19.6015L13.7001 20.0747ZM15.4127 14.6052L15.9122 14.6284L15.4127 14.6052ZM14.2797 19.7797L14.5672 20.1888L14.2797 19.7797ZM8.81825 6.07566L9.09348 6.4931L9.09348 6.4931L8.81825 6.07566ZM13.7001 3.92487L13.5386 4.39808L13.7001 3.92487ZM15.4127 9.3944L14.9133 9.41761L15.4127 9.3944ZM14.2797 4.21984L14.5672 3.81075L14.2797 4.21984ZM3.33988 7.27707L3.12993 6.82329L3.33988 7.27707ZM1.53479 10.9714L1.03572 10.941L1.53479 10.9714ZM1.95854 8.57679L2.39871 8.81395L1.95854 8.57679ZM20.3841 5.67991C20.2073 5.46777 19.892 5.43911 19.6799 5.61589C19.4678 5.79267 19.4391 6.10795 19.6159 6.32009L20.3841 5.67991ZM19.6159 17.6799C19.4391 17.892 19.4678 18.2073 19.6799 18.3841C19.892 18.5609 20.2073 18.5322 20.3841 18.3201L19.6159 17.6799ZM18.4371 8.75718C18.303 8.51579 17.9986 8.42881 17.7572 8.56292C17.5158 8.69703 17.4288 9.00143 17.5629 9.24282L18.4371 8.75718ZM17.5629 14.7572C17.4288 14.9986 17.5158 15.303 17.7572 15.4371C17.9986 15.5712 18.303 15.4842 18.4371 15.2428L17.5629 14.7572ZM9.09348 17.5065L8.87455 17.3621L8.32409 18.197L8.54303 18.3413L9.09348 17.5065ZM8.87455 6.63745L9.09348 6.4931L8.54303 5.65823L8.32409 5.80259L8.87455 6.63745ZM2.03386 12.9978C2.0125 12.6473 2 12.3094 2 11.9998H1C1 12.335 1.01349 12.6939 1.03572 13.0586L2.03386 12.9978ZM2 11.9998C2 11.6902 2.0125 11.3523 2.03386 11.0018L1.03572 10.941C1.01349 11.3057 1 11.6646 1 11.9998H2ZM14.9133 9.41761C14.9652 10.5364 15 11.4813 15 11.9998H16C16 11.4545 15.964 10.4869 15.9122 9.37119L14.9133 9.41761ZM15 11.9998C15 12.5183 14.9652 13.4632 14.9133 14.582L15.9122 14.6284C15.964 13.5127 16 12.5451 16 11.9998H15ZM6.00008 7.49979C6.49586 7.49979 6.80061 7.50139 7.09946 7.45093L6.93295 6.46489C6.73577 6.49818 6.52845 6.49979 6.00008 6.49979V7.49979ZM8.32409 5.80259C7.88297 6.09343 7.70901 6.20621 7.52607 6.28695L7.92983 7.20182C8.20711 7.07944 8.46065 6.91035 8.87455 6.63745L8.32409 5.80259ZM7.09946 7.45093C7.3855 7.40262 7.66443 7.31894 7.92983 7.20182L7.52607 6.28695C7.3365 6.37061 7.13726 6.43038 6.93295 6.46489L7.09946 7.45093ZM8.87455 17.3621C8.46065 17.0892 8.20711 16.9201 7.92983 16.7978L7.52607 17.7126C7.70901 17.7934 7.88297 17.9061 8.32409 18.197L8.87455 17.3621ZM6.00008 17.4998C6.52845 17.4998 6.73577 17.5014 6.93295 17.5347L7.09946 16.5486C6.80061 16.4982 6.49586 16.4998 6.00008 16.4998V17.4998ZM7.92983 16.7978C7.66443 16.6806 7.3855 16.597 7.09946 16.5486L6.93295 17.5347C7.13726 17.5692 7.3365 17.629 7.52607 17.7126L7.92983 16.7978ZM6.00008 16.4998C4.57966 16.4998 4.02581 16.4889 3.54983 16.2687L3.12993 17.1763C3.85261 17.5106 4.67267 17.4998 6.00008 17.4998V16.4998ZM1.03572 13.0586C1.10715 14.2306 1.14183 14.9611 1.51837 15.66L2.39871 15.1856C2.14878 14.7218 2.10979 14.2435 2.03386 12.9978L1.03572 13.0586ZM3.54983 16.2687C3.1004 16.0608 2.63361 15.6216 2.39871 15.1856L1.51837 15.66C1.85585 16.2863 2.4842 16.8775 3.12993 17.1763L3.54983 16.2687ZM8.54302 18.3413C9.8023 19.1716 10.7883 19.823 11.594 20.2144C12.4011 20.6065 13.1382 20.7948 13.8615 20.5479L13.5386 19.6015C13.1946 19.7189 12.7622 19.6701 12.031 19.3149C11.2984 18.9591 10.3772 18.3529 9.09348 17.5065L8.54302 18.3413ZM14.9133 14.582C14.8425 16.1054 14.7907 17.1972 14.6476 17.9922C14.5048 18.7849 14.2904 19.1611 13.9922 19.3707L14.5672 20.1888C15.1917 19.7499 15.4737 19.0475 15.6317 18.1694C15.7894 17.2936 15.8428 16.1224 15.9122 14.6284L14.9133 14.582ZM13.8615 20.5479C14.111 20.4628 14.3515 20.3404 14.5672 20.1888L13.9922 19.3707C13.854 19.4678 13.6984 19.547 13.5386 19.6015L13.8615 20.5479ZM9.09348 6.4931C10.3772 5.6467 11.2984 5.04052 12.031 4.68466C12.7622 4.32944 13.1946 4.28068 13.5386 4.39808L13.8615 3.45167C13.1382 3.20482 12.4011 3.39312 11.594 3.78518C10.7883 4.17661 9.8023 4.82794 8.54303 5.65823L9.09348 6.4931ZM15.9122 9.37119C15.8428 7.87719 15.7894 6.70593 15.6317 5.83017C15.4737 4.95207 15.1917 4.24963 14.5672 3.81075L13.9922 4.62892C14.2904 4.83849 14.5048 5.21463 14.6476 6.00735C14.7907 6.80241 14.8425 7.89421 14.9133 9.41761L15.9122 9.37119ZM13.5386 4.39808C13.6984 4.45261 13.854 4.53183 13.9922 4.62892L14.5672 3.81075C14.3515 3.65919 14.111 3.5368 13.8615 3.45167L13.5386 4.39808ZM6.00008 6.49979C4.67268 6.49979 3.85261 6.48893 3.12993 6.82329L3.54983 7.73086C4.02581 7.51064 4.57966 7.49979 6.00008 7.49979V6.49979ZM2.03386 11.0018C2.10979 9.75608 2.14878 9.27781 2.39871 8.81395L1.51837 8.33962C1.14183 9.03846 1.10715 9.76902 1.03572 10.941L2.03386 11.0018ZM3.12993 6.82329C2.4842 7.12204 1.85585 7.71326 1.51837 8.33962L2.39871 8.81395C2.63361 8.378 3.1004 7.9388 3.54983 7.73086L3.12993 6.82329ZM20 6C19.6159 6.32009 19.6157 6.31988 19.6155 6.31968C19.6155 6.31962 19.6153 6.31943 19.6152 6.31931C19.615 6.31908 19.6149 6.31887 19.6147 6.31869C19.6144 6.31833 19.6142 6.31808 19.6141 6.31794C19.6139 6.31765 19.614 6.3178 19.6145 6.31838C19.6154 6.31954 19.6177 6.32243 19.6213 6.32708C19.6285 6.33638 19.6408 6.35269 19.6576 6.37617C19.6911 6.42311 19.7424 6.49871 19.8056 6.60412C19.9321 6.81487 20.1067 7.14518 20.2833 7.60449C20.6362 8.52191 21 9.96104 21 12H22C22 9.83895 21.6138 8.27809 21.2167 7.24551C21.0183 6.72982 20.8179 6.34763 20.6631 6.08963C20.5857 5.96066 20.5198 5.86283 20.4713 5.79493C20.4471 5.76098 20.4272 5.73452 20.4124 5.7154C20.405 5.70584 20.3989 5.69811 20.3941 5.69221C20.3918 5.68925 20.3897 5.68675 20.3881 5.6847C20.3872 5.68368 20.3865 5.68277 20.3858 5.68197C20.3855 5.68157 20.3852 5.6812 20.3849 5.68085C20.3848 5.68068 20.3846 5.68044 20.3845 5.68036C20.3843 5.68013 20.3841 5.67991 20 6ZM21 12C21 14.039 20.6362 15.4781 20.2833 16.3955C20.1067 16.8548 19.9321 17.1851 19.8056 17.3959C19.7424 17.5013 19.6911 17.5769 19.6576 17.6238C19.6408 17.6473 19.6285 17.6636 19.6213 17.6729C19.6177 17.6776 19.6154 17.6805 19.6145 17.6816C19.614 17.6822 19.6139 17.6823 19.6141 17.6821C19.6142 17.6819 19.6144 17.6817 19.6147 17.6813C19.6149 17.6811 19.615 17.6809 19.6152 17.6807C19.6153 17.6806 19.6155 17.6804 19.6155 17.6803C19.6157 17.6801 19.6159 17.6799 20 18C20.3841 18.3201 20.3843 18.3199 20.3845 18.3196C20.3846 18.3196 20.3848 18.3193 20.3849 18.3191C20.3852 18.3188 20.3855 18.3184 20.3858 18.318C20.3865 18.3172 20.3872 18.3163 20.3881 18.3153C20.3897 18.3132 20.3918 18.3107 20.3941 18.3078C20.3989 18.3019 20.405 18.2942 20.4124 18.2846C20.4272 18.2655 20.4471 18.239 20.4713 18.2051C20.5198 18.1372 20.5857 18.0393 20.6631 17.9104C20.8179 17.6524 21.0183 17.2702 21.2167 16.7545C21.6138 15.7219 22 14.161 22 12H21ZM18 9C17.5629 9.24282 17.5628 9.24261 17.5627 9.24241C17.5627 9.24235 17.5625 9.24214 17.5625 9.24202C17.5623 9.24176 17.5622 9.24152 17.5621 9.24129C17.5618 9.24084 17.5616 9.24043 17.5614 9.24009C17.561 9.23939 17.5608 9.23891 17.5606 9.23865C17.5604 9.23813 17.5606 9.23848 17.5612 9.23971C17.5625 9.24217 17.5655 9.24815 17.5701 9.25774C17.5792 9.27691 17.5944 9.31051 17.6139 9.35913C17.6528 9.45634 17.7085 9.61392 17.7657 9.83669C17.8798 10.2819 18 10.9901 18 12H19C19 10.9099 18.8702 10.1181 18.7343 9.58831C18.6665 9.32358 18.5972 9.12491 18.5424 8.98774C18.5149 8.91918 18.4911 8.86606 18.4729 8.82781C18.4638 8.80868 18.4561 8.79328 18.45 8.78153C18.447 8.77566 18.4444 8.7707 18.4422 8.76664C18.4411 8.76461 18.4402 8.76281 18.4393 8.76123C18.4389 8.76045 18.4385 8.75971 18.4381 8.75904C18.4379 8.7587 18.4377 8.75838 18.4376 8.75807C18.4375 8.75791 18.4374 8.75769 18.4373 8.75761C18.4372 8.75739 18.4371 8.75718 18 9ZM18 12C18 13.0099 17.8798 13.7181 17.7657 14.1633C17.7085 14.3861 17.6528 14.5437 17.6139 14.6409C17.5944 14.6895 17.5792 14.7231 17.5701 14.7423C17.5655 14.7518 17.5625 14.7578 17.5612 14.7603C17.5606 14.7615 17.5604 14.7619 17.5606 14.7613C17.5608 14.7611 17.561 14.7606 17.5614 14.7599C17.5616 14.7596 17.5618 14.7592 17.5621 14.7587C17.5622 14.7585 17.5623 14.7582 17.5625 14.758C17.5625 14.7579 17.5627 14.7577 17.5627 14.7576C17.5628 14.7574 17.5629 14.7572 18 15C18.4371 15.2428 18.4372 15.2426 18.4373 15.2424C18.4374 15.2423 18.4375 15.2421 18.4376 15.2419C18.4377 15.2416 18.4379 15.2413 18.4381 15.241C18.4385 15.2403 18.4389 15.2396 18.4393 15.2388C18.4402 15.2372 18.4411 15.2354 18.4422 15.2334C18.4444 15.2293 18.447 15.2243 18.45 15.2185C18.4561 15.2067 18.4638 15.1913 18.4729 15.1722C18.4911 15.1339 18.5149 15.0808 18.5424 15.0123C18.5972 14.8751 18.6665 14.6764 18.7343 14.4117C18.8702 13.8819 19 13.0901 19 12H18Z" fill="#424242"/>
</svg>
