<svg width="24" height="24" viewBox="0 0 24 24" fill="none" xmlns="http://www.w3.org/2000/svg">
<path d="M5.03479 10.9716C5.10847 9.7628 5.14531 9.15838 5.45854 8.57703C5.74473 8.04588 6.2923 7.53066 6.83988 7.27732C7.43921 7.00003 8.12617 7.00003 9.50008 7.00003C10.0122 7.00003 10.2682 7.00003 10.5162 6.95815C10.7614 6.91675 11.0005 6.84502 11.2279 6.74463C11.4581 6.64307 11.6718 6.50214 12.0993 6.22026L12.3183 6.07591C14.8612 4.39922 16.1327 3.56088 17.2001 3.92511C17.4047 3.99495 17.6028 4.09575 17.7797 4.22008C18.7024 4.86853 18.7725 6.37724 18.9127 9.39465C18.9646 10.5119 19 11.4681 19 12C19 12.5319 18.9646 13.4882 18.9127 14.6054C18.7725 17.6228 18.7024 19.1315 17.7797 19.78C17.6028 19.9043 17.4047 20.0051 17.2001 20.0749C16.1327 20.4392 14.8612 19.6008 12.3183 17.9242L12.0993 17.7798C11.6718 17.4979 11.4581 17.357 11.2279 17.2554C11.0005 17.155 10.7614 17.0833 10.5162 17.0419C10.2682 17 10.0122 17 9.50008 17C8.12617 17 7.43921 17 6.83988 16.7227C6.2923 16.4694 5.74473 15.9542 5.45854 15.423C5.14531 14.8417 5.10847 14.2373 5.03479 13.0284C5.01299 12.6708 5 12.3224 5 12C5 11.6776 5.01299 11.3292 5.03479 10.9716Z" stroke="#424242"/>
</svg>
