<svg width="24" height="24" viewBox="0 0 24 24" fill="none" xmlns="http://www.w3.org/2000/svg">
<path d="M20.4599 2.19619C20.5683 1.94219 20.4502 1.64845 20.1962 1.5401C19.9422 1.43175 19.6484 1.54981 19.5401 1.80381L20.4599 2.19619ZM19 13.8912L18.5626 14.1334V14.1334L19 13.8912ZM21.1457 17.7543L21.6061 17.5593L21.1457 17.7543ZM21.5 22C21.5 22.2761 21.7239 22.5 22 22.5C22.2761 22.5 22.5 22.2761 22.5 22H21.5ZM6 10.5714H6.5V10.5714H6ZM4.4599 1.80381C4.35155 1.54981 4.05781 1.43175 3.80381 1.5401C3.54981 1.64845 3.43175 1.94219 3.5401 2.19619L4.4599 1.80381ZM5.00001 13.8912L5.43739 14.1334H5.43739L5.00001 13.8912ZM2.85426 17.7543L2.39387 17.5593H2.39387L2.85426 17.7543ZM1.5 22C1.5 22.2761 1.72386 22.5 2 22.5C2.27614 22.5 2.5 22.2761 2.5 22H1.5ZM6 12.5C5.72386 12.5 5.5 12.7239 5.5 13C5.5 13.2761 5.72386 13.5 6 13.5V12.5ZM18 13.5C18.2761 13.5 18.5 13.2761 18.5 13C18.5 12.7239 18.2761 12.5 18 12.5V13.5ZM6 10.5C5.72386 10.5 5.5 10.7239 5.5 11C5.5 11.2761 5.72386 11.5 6 11.5V10.5ZM18 11.5C18.2761 11.5 18.5 11.2761 18.5 11C18.5 10.7239 18.2761 10.5 18 10.5V11.5ZM18.5 10.5714C18.5 8.70285 18.9836 6.61516 19.4787 4.97398C19.7249 4.1578 19.9712 3.46096 20.1557 2.96873C20.2479 2.72275 20.3245 2.52822 20.3779 2.39584C20.4045 2.32965 20.4253 2.27903 20.4393 2.2453C20.4463 2.22844 20.4516 2.2158 20.4551 2.20756C20.4568 2.20344 20.4581 2.20042 20.4589 2.19852C20.4593 2.19756 20.4596 2.19689 20.4598 2.1965C20.4599 2.19631 20.4599 2.19619 20.4599 2.19613C20.4599 2.19611 20.4599 2.19612 20.4599 2.19611C20.4599 2.19614 20.4599 2.19619 20 2C19.5401 1.80381 19.5401 1.8039 19.54 1.804C19.54 1.80406 19.5399 1.80418 19.5399 1.8043C19.5398 1.80453 19.5397 1.80483 19.5395 1.80521C19.5392 1.80596 19.5387 1.80699 19.5382 1.80831C19.5371 1.81094 19.5355 1.81471 19.5334 1.81957C19.5293 1.82931 19.5234 1.84348 19.5157 1.8619C19.5005 1.89875 19.4783 1.95264 19.4503 2.02224C19.3942 2.16142 19.3146 2.36351 19.2193 2.61774C19.0288 3.12593 18.7751 3.84387 18.5213 4.68517C18.0164 6.35895 17.5 8.55696 17.5 10.5714H18.5ZM17.5 10.5714C17.5 11.9376 17.9712 13.0658 18.5626 14.1334L19.4374 13.6489C18.8808 12.6442 18.5 11.6918 18.5 10.5714H17.5ZM18.5626 14.1334C19.2627 15.3973 20.0681 16.4923 20.6853 17.9494L21.6061 17.5593C20.9661 16.0485 20.0584 14.7699 19.4374 13.6489L18.5626 14.1334ZM20.6853 17.9494C21.1614 19.0731 21.5 20.3717 21.5 22H22.5C22.5 20.2218 22.1279 18.7909 21.6061 17.5593L20.6853 17.9494ZM6.5 10.5714C6.5 8.55696 5.98361 6.35895 5.47869 4.68517C5.2249 3.84387 4.97118 3.12593 4.78069 2.61774C4.68539 2.36351 4.60579 2.16142 4.54973 2.02224C4.5217 1.95264 4.49955 1.89875 4.48425 1.8619C4.4766 1.84348 4.47067 1.82931 4.46657 1.81957C4.46452 1.81471 4.46293 1.81094 4.46181 1.80831C4.46126 1.80699 4.46082 1.80596 4.4605 1.80521C4.46034 1.80483 4.46021 1.80453 4.46011 1.8043C4.46006 1.80418 4.46001 1.80406 4.45998 1.804C4.45994 1.8039 4.4599 1.80381 4 2C3.5401 2.19619 3.54008 2.19614 3.54006 2.19611C3.54007 2.19612 3.54006 2.19611 3.54007 2.19613C3.5401 2.19619 3.54015 2.19631 3.54023 2.1965C3.5404 2.19689 3.54068 2.19756 3.54109 2.19852C3.54189 2.20042 3.54317 2.20344 3.5449 2.20756C3.54837 2.2158 3.55367 2.22844 3.56067 2.2453C3.57467 2.27903 3.59549 2.32965 3.62214 2.39584C3.67546 2.52822 3.75211 2.72275 3.84431 2.96873C4.02882 3.46096 4.27509 4.1578 4.52131 4.97398C5.01639 6.61516 5.5 8.70286 5.5 10.5714H6.5ZM5.5 10.5714C5.5 11.6918 5.11917 12.6442 4.56264 13.6489L5.43739 14.1334C6.0288 13.0658 6.5 11.9376 6.5 10.5714H5.5ZM4.56264 13.6489C3.94162 14.7699 3.0339 16.0485 2.39387 17.5593L3.31465 17.9494C3.93192 16.4923 4.73727 15.3973 5.43739 14.1334L4.56264 13.6489ZM2.39387 17.5593C1.87212 18.7909 1.5 20.2218 1.5 22H2.5C2.5 20.3717 2.83862 19.0731 3.31465 17.9494L2.39387 17.5593ZM6 13.5H18V12.5H6V13.5ZM6 11.5H18V10.5H6V11.5Z" fill="#424242"/>
</svg>
