<svg width="24" height="24" viewBox="0 0 24 24" fill="none" xmlns="http://www.w3.org/2000/svg">
<path d="M10.3413 11.5869L10.8388 11.6367V11.6367L10.3413 11.5869ZM11.8255 17.904L11.4022 18.1701V18.1701L11.8255 17.904ZM13.9771 22.2661C14.124 22.4999 14.4327 22.5703 14.6665 22.4233C14.9003 22.2763 14.9707 21.9677 14.8237 21.7339L13.9771 22.2661ZM6.30394 13.1323L6.79203 13.2407V13.2407L6.30394 13.1323ZM5.51191 14.3915C5.452 14.6611 5.62197 14.9282 5.89153 14.9881C6.1611 15.048 6.42819 14.878 6.48809 14.6085L5.51191 14.3915ZM17.2702 13.2433L17.112 12.7689V12.7689L17.2702 13.2433ZM18.1581 13.4743C18.4201 13.387 18.5617 13.1039 18.4743 12.8419C18.387 12.5799 18.1039 12.4383 17.8419 12.5257L18.1581 13.4743ZM12.5815 10.0051L12.5457 10.5038V10.5038L12.5815 10.0051ZM14.4196 11.6785L13.9346 11.7998L13.9346 11.7998L14.4196 11.6785ZM14.3391 11.3774L13.8639 11.5331L13.8639 11.5331L14.3391 11.3774ZM7.35289 10.4399L7.66575 10.8299V10.8299L7.35289 10.4399ZM14.5269 12.0752L14.9993 11.9113V11.9113L14.5269 12.0752ZM16.8779 13.3657L16.7625 12.8792L16.7625 12.8792L16.8779 13.3657ZM9.41603 17.7774C9.5692 17.5476 9.50711 17.2372 9.27735 17.084C9.04759 16.9308 8.73715 16.9929 8.58397 17.2226L9.41603 17.7774ZM5.58397 21.7227C5.4308 21.9524 5.49289 22.2628 5.72265 22.416C5.95241 22.5692 6.26285 22.5071 6.41603 22.2773L5.58397 21.7227ZM13.5 4.5C13.5 5.60457 12.6046 6.5 11.5 6.5V7.5C13.1569 7.5 14.5 6.15685 14.5 4.5H13.5ZM11.5 6.5C10.3954 6.5 9.5 5.60457 9.5 4.5H8.5C8.5 6.15685 9.84315 7.5 11.5 7.5V6.5ZM9.5 4.5C9.5 3.39543 10.3954 2.5 11.5 2.5V1.5C9.84315 1.5 8.5 2.84315 8.5 4.5H9.5ZM11.5 2.5C12.6046 2.5 13.5 3.39543 13.5 4.5H14.5C14.5 2.84315 13.1569 1.5 11.5 1.5V2.5ZM10.0025 9.95025L9.84379 11.5371L10.8388 11.6367L10.9975 10.0498L10.0025 9.95025ZM11.4022 18.1701L13.9771 22.2661L14.8237 21.7339L12.2488 17.6379L11.4022 18.1701ZM10.5 9.5H10.2087V10.5H10.5V9.5ZM5.81584 13.0238L5.51191 14.3915L6.48809 14.6085L6.79203 13.2407L5.81584 13.0238ZM10.5 10.5H12.2698V9.5H10.5V10.5ZM17.4283 13.7176L18.1581 13.4743L17.8419 12.5257L17.112 12.7689L17.4283 13.7176ZM12.2698 10.5C12.438 10.5 12.4965 10.5003 12.5457 10.5038L12.6172 9.5064C12.5236 9.49969 12.422 9.5 12.2698 9.5V10.5ZM14.9047 11.5572C14.8678 11.4097 14.8435 11.311 14.8142 11.2218L13.8639 11.5331C13.8793 11.5799 13.8938 11.6366 13.9346 11.7998L14.9047 11.5572ZM12.5457 10.5038C13.1533 10.5474 13.6743 10.9541 13.8639 11.5331L14.8142 11.2218C14.4982 10.2569 13.6299 9.57901 12.6172 9.5064L12.5457 10.5038ZM10.2087 9.5C9.45195 9.5 8.83954 9.49914 8.34935 9.55863C7.84564 9.61976 7.41395 9.74994 7.04002 10.0499L7.66575 10.8299C7.84023 10.69 8.06731 10.6002 8.46983 10.5513C8.88588 10.5009 9.42716 10.5 10.2087 10.5V9.5ZM6.79203 13.2407C6.96157 12.4778 7.07983 11.9496 7.21937 11.5544C7.35437 11.1721 7.49127 10.9699 7.66575 10.8299L7.04002 10.0499C6.6661 10.3498 6.44537 10.743 6.27643 11.2215C6.11202 11.6871 5.98 12.2851 5.81584 13.0238L6.79203 13.2407ZM13.9346 11.7998C13.984 11.9974 14.0162 12.1286 14.0546 12.239L14.9993 11.9113C14.9793 11.8536 14.9595 11.7764 14.9047 11.5572L13.9346 11.7998ZM17.112 12.7689C16.8978 12.8404 16.822 12.8651 16.7625 12.8792L16.9932 13.8522C17.107 13.8252 17.235 13.7821 17.4283 13.7176L17.112 12.7689ZM14.0546 12.239C14.4751 13.4512 15.7449 14.1482 16.9932 13.8522L16.7625 12.8792C16.0135 13.0568 15.2516 12.6386 14.9993 11.9113L14.0546 12.239ZM9.84379 11.5371C9.67803 13.1948 9.57749 14.1375 9.79164 15.049L10.7651 14.8202C10.5979 14.1085 10.6664 13.3605 10.8388 11.6367L9.84379 11.5371ZM12.2488 17.6379C11.3268 16.1712 10.9323 15.5319 10.7651 14.8202L9.79164 15.049C10.0058 15.9604 10.5156 16.7597 11.4022 18.1701L12.2488 17.6379ZM8.58397 17.2226L5.58397 21.7227L6.41603 22.2773L9.41603 17.7774L8.58397 17.2226Z" fill="#424242"/>
</svg>
