<svg width="24" height="24" viewBox="0 0 24 24" fill="none" xmlns="http://www.w3.org/2000/svg">
<path d="M6.5 15C6.5 15.2761 6.72386 15.5 7 15.5C7.27614 15.5 7.5 15.2761 7.5 15H6.5ZM7.5 9C7.5 8.72386 7.27614 8.5 7 8.5C6.72386 8.5 6.5 8.72386 6.5 9H7.5ZM20.9935 14.9979L21.0239 15.4969V15.4969L20.9935 14.9979ZM21.9977 14.0654L22.4965 14.1006V14.1006L21.9977 14.0654ZM20.9935 9.00214L20.9631 9.50122V9.50122L20.9935 9.00214ZM21.9977 9.9346L22.4965 9.89939V9.89939L21.9977 9.9346ZM19.8284 18.8284L20.182 19.182V19.182L19.8284 18.8284ZM19.8284 5.17157L20.182 4.81802V4.81802L19.8284 5.17157ZM3.17157 5.17157L2.81802 4.81802L3.17157 5.17157ZM3.17157 18.8284L3.52513 18.4749V18.4749L3.17157 18.8284ZM17.9912 11.5C17.7151 11.5 17.4912 11.7239 17.4912 12C17.4912 12.2761 17.7151 12.5 17.9912 12.5V11.5ZM18.0002 12.5C18.2764 12.5 18.5002 12.2761 18.5002 12C18.5002 11.7239 18.2764 11.5 18.0002 11.5V12.5ZM7.5 15V9H6.5V15H7.5ZM18.2308 9.5H20.8333V8.5H18.2308V9.5ZM20.8333 14.5H18.2308V15.5H20.8333V14.5ZM21.5 10.0833V13.9167H22.5V10.0833H21.5ZM18.2308 14.5C16.6871 14.5 15.5 13.3465 15.5 12H14.5C14.5 13.9672 16.2059 15.5 18.2308 15.5V14.5ZM20.8333 15.5C20.9093 15.5 20.9697 15.5002 21.0239 15.4969L20.9631 14.4988C20.947 14.4998 20.924 14.5 20.8333 14.5V15.5ZM21.5 13.9167C21.5 14.0026 21.4997 14.0195 21.4989 14.0302L22.4965 14.1006C22.5003 14.0459 22.5 13.9855 22.5 13.9167H21.5ZM21.0239 15.4969C21.7846 15.4506 22.4415 14.8795 22.4965 14.1006L21.4989 14.0302C21.4832 14.2528 21.281 14.4794 20.9631 14.4988L21.0239 15.4969ZM20.8333 9.5C20.924 9.5 20.947 9.50023 20.9631 9.50122L21.0239 8.50306C20.9697 8.49977 20.9093 8.5 20.8333 8.5V9.5ZM22.5 10.0833C22.5 10.0145 22.5003 9.95407 22.4965 9.89939L21.4989 9.9698C21.4997 9.98046 21.5 9.99743 21.5 10.0833H22.5ZM20.9631 9.50122C21.281 9.52056 21.4832 9.7472 21.4989 9.9698L22.4965 9.89939C22.4415 9.12048 21.7846 8.54936 21.0239 8.50306L20.9631 9.50122ZM18.2308 8.5C16.2059 8.5 14.5 10.0328 14.5 12H15.5C15.5 10.6535 16.6871 9.5 18.2308 9.5V8.5ZM10 4.5H13V3.5H10V4.5ZM13 19.5H10V20.5H13V19.5ZM13 20.5C14.8715 20.5 16.3254 20.5011 17.4557 20.3491C18.6004 20.1952 19.4878 19.8762 20.182 19.182L19.4749 18.4749C18.9975 18.9523 18.3563 19.219 17.3225 19.358C16.2743 19.4989 14.8998 19.5 13 19.5V20.5ZM13 4.5C14.8998 4.5 16.2743 4.50106 17.3225 4.64199C18.3563 4.78098 18.9975 5.04772 19.4749 5.52513L20.182 4.81802C19.4878 4.12385 18.6004 3.80481 17.4557 3.65091C16.3254 3.49894 14.8715 3.5 13 3.5V4.5ZM2.5 12C2.5 10.1002 2.50106 8.72573 2.64199 7.67754C2.78098 6.64373 3.04772 6.00253 3.52513 5.52513L2.81802 4.81802C2.12385 5.51219 1.80481 6.39959 1.65091 7.54429C1.49894 8.67461 1.5 10.1285 1.5 12H2.5ZM10 3.5C8.12852 3.5 6.6746 3.49894 5.54429 3.65091C4.39959 3.80481 3.51219 4.12385 2.81802 4.81802L3.52513 5.52513C4.00253 5.04772 4.64372 4.78098 5.67754 4.64199C6.72573 4.50106 8.10025 4.5 10 4.5V3.5ZM1.5 12C1.5 13.8715 1.49894 15.3254 1.65091 16.4557C1.80481 17.6004 2.12385 18.4878 2.81802 19.182L3.52513 18.4749C3.04772 17.9975 2.78098 17.3563 2.64199 16.3225C2.50106 15.2743 2.5 13.8998 2.5 12H1.5ZM10 19.5C8.10025 19.5 6.72573 19.4989 5.67754 19.358C4.64373 19.219 4.00253 18.9523 3.52513 18.4749L2.81802 19.182C3.51219 19.8762 4.39959 20.1952 5.54429 20.3491C6.67461 20.5011 8.12852 20.5 10 20.5V19.5ZM21.4646 8.97925C21.3866 7.10086 21.1373 5.77331 20.182 4.81802L19.4749 5.52513C20.1359 6.18618 20.388 7.15454 20.4655 9.02075L21.4646 8.97925ZM20.4655 14.9793C20.388 16.8455 20.1359 17.8138 19.4749 18.4749L20.182 19.182C21.1373 18.2267 21.3866 16.8991 21.4646 15.0208L20.4655 14.9793ZM17.9912 12.5H18.0002V11.5H17.9912V12.5Z" fill="#424242"/>
</svg>
