<svg width="24" height="24" viewBox="0 0 24 24" fill="none" xmlns="http://www.w3.org/2000/svg">
<path d="M6.77772 18.3259L7.0555 17.9101L6.77772 18.3259ZM5.67412 17.2223L6.08986 16.9445L5.67412 17.2223ZM18.3259 17.2223L17.9101 16.9445L18.3259 17.2223ZM17.2223 18.3259L16.9445 17.9101L17.2223 18.3259ZM17.2223 5.67412L16.9445 6.08986L17.2223 5.67412ZM18.3259 6.77772L17.9101 7.0555L18.3259 6.77772ZM6.77772 5.67412L7.0555 6.08986L6.77772 5.67412ZM5.67412 6.77772L6.08986 7.0555L5.67412 6.77772ZM12 12.0769H11.5V12.2898L11.6534 12.4373L12 12.0769ZM12.5 8.99998C12.5 8.72384 12.2761 8.49998 12 8.49998C11.7239 8.49998 11.5 8.72384 11.5 8.99998H12.5ZM13.6534 14.3604C13.8525 14.5518 14.169 14.5456 14.3604 14.3465C14.5518 14.1475 14.5456 13.831 14.3466 13.6396L13.6534 14.3604ZM16.696 5.13228L17.1841 5.02381V5.02381L16.696 5.13228ZM16.2896 5.60846C16.3495 5.87803 16.6166 6.048 16.8862 5.98809C17.1558 5.92819 17.3257 5.6611 17.2658 5.39154L16.2896 5.60846ZM6.73407 5.39153C6.67417 5.6611 6.84414 5.92819 7.1137 5.98809C7.38327 6.048 7.65036 5.87803 7.71026 5.60847L6.73407 5.39153ZM7.30388 5.13228L7.79198 5.24074V5.24074L7.30388 5.13228ZM15.6471 2.43992L15.9599 2.0499V2.0499L15.6471 2.43992ZM8.35283 2.43992L8.6657 2.82994H8.6657L8.35283 2.43992ZM16.696 18.8677L17.1841 18.9762V18.9762L16.696 18.8677ZM17.2658 18.6085C17.3257 18.3389 17.1558 18.0718 16.8862 18.0119C16.6166 17.952 16.3495 18.122 16.2896 18.3915L17.2658 18.6085ZM7.71026 18.3915C7.65036 18.122 7.38327 17.952 7.1137 18.0119C6.84414 18.0718 6.67417 18.3389 6.73407 18.6085L7.71026 18.3915ZM7.30388 18.8677L7.79198 18.7593H7.79198L7.30388 18.8677ZM15.6471 21.5601L15.9599 21.9501V21.9501L15.6471 21.5601ZM8.35283 21.5601L8.6657 21.1701H8.6657L8.35283 21.5601ZM12 18.5C10.5851 18.5 9.56162 18.4994 8.76445 18.4183C7.97564 18.3381 7.4641 18.1832 7.0555 17.9101L6.49993 18.7416C7.10023 19.1427 7.79537 19.3249 8.66325 19.4132C9.52277 19.5006 10.6059 19.5 12 19.5V18.5ZM4.5 12C4.5 13.3941 4.4994 14.4772 4.58683 15.3368C4.67512 16.2046 4.85728 16.8998 5.25839 17.5001L6.08986 16.9445C5.81684 16.5359 5.66194 16.0244 5.5817 15.2355C5.5006 14.4384 5.5 13.4149 5.5 12H4.5ZM7.0555 17.9101C6.67334 17.6548 6.34521 17.3267 6.08986 16.9445L5.25839 17.5001C5.5867 17.9914 6.00858 18.4133 6.49993 18.7416L7.0555 17.9101ZM18.5 12C18.5 13.4149 18.4994 14.4384 18.4183 15.2355C18.3381 16.0244 18.1832 16.5359 17.9101 16.9445L18.7416 17.5001C19.1427 16.8998 19.3249 16.2046 19.4132 15.3368C19.5006 14.4772 19.5 13.3941 19.5 12H18.5ZM12 19.5C13.3941 19.5 14.4772 19.5006 15.3368 19.4132C16.2046 19.3249 16.8998 19.1427 17.5001 18.7416L16.9445 17.9101C16.5359 18.1832 16.0244 18.3381 15.2355 18.4183C14.4384 18.4994 13.4149 18.5 12 18.5V19.5ZM17.9101 16.9445C17.6548 17.3267 17.3267 17.6548 16.9445 17.9101L17.5001 18.7416C17.9914 18.4133 18.4133 17.9914 18.7416 17.5001L17.9101 16.9445ZM12 5.5C13.4149 5.5 14.4384 5.5006 15.2355 5.5817C16.0244 5.66194 16.5359 5.81684 16.9445 6.08986L17.5001 5.25839C16.8998 4.85728 16.2046 4.67512 15.3368 4.58683C14.4772 4.4994 13.3941 4.5 12 4.5V5.5ZM19.5 12C19.5 10.6059 19.5006 9.52277 19.4132 8.66325C19.3249 7.79537 19.1427 7.10023 18.7416 6.49993L17.9101 7.0555C18.1832 7.4641 18.3381 7.97564 18.4183 8.76445C18.4994 9.56162 18.5 10.5851 18.5 12H19.5ZM16.9445 6.08986C17.3267 6.34521 17.6548 6.67334 17.9101 7.0555L18.7416 6.49993C18.4133 6.00858 17.9914 5.5867 17.5001 5.25839L16.9445 6.08986ZM12 4.5C10.6059 4.5 9.52277 4.4994 8.66325 4.58683C7.79537 4.67512 7.10023 4.85728 6.49993 5.25839L7.0555 6.08986C7.4641 5.81684 7.97564 5.66194 8.76445 5.5817C9.56162 5.5006 10.5851 5.5 12 5.5V4.5ZM5.5 12C5.5 10.5851 5.5006 9.56162 5.5817 8.76445C5.66194 7.97564 5.81684 7.4641 6.08986 7.0555L5.25839 6.49993C4.85728 7.10023 4.67512 7.79537 4.58683 8.66325C4.4994 9.52277 4.5 10.6059 4.5 12H5.5ZM6.49993 5.25839C6.00858 5.5867 5.5867 6.00858 5.25839 6.49993L6.08986 7.0555C6.34521 6.67334 6.67334 6.34521 7.0555 6.08986L6.49993 5.25839ZM12.5 12.0769V8.99998H11.5V12.0769H12.5ZM11.6534 12.4373L13.6534 14.3604L14.3466 13.6396L12.3466 11.7165L11.6534 12.4373ZM11.2086 2.5H12.7913V1.5H11.2086V2.5ZM16.2079 5.24074L16.2896 5.60846L17.2658 5.39154L17.1841 5.02381L16.2079 5.24074ZM7.71026 5.60847L7.79198 5.24074L6.81579 5.02381L6.73407 5.39153L7.71026 5.60847ZM12.7913 2.5C13.5728 2.5 14.1141 2.50086 14.5301 2.55135C14.9326 2.6002 15.1597 2.68997 15.3342 2.82994L15.9599 2.0499C15.586 1.74994 15.1543 1.61976 14.6506 1.55863C14.1604 1.49914 13.548 1.5 12.7913 1.5V2.5ZM17.1841 5.02381C17.0199 4.2851 16.8879 3.68709 16.7235 3.22148C16.5546 2.74302 16.3338 2.34985 15.9599 2.0499L15.3342 2.82994C15.5087 2.9699 15.6456 3.1721 15.7806 3.55443C15.9201 3.94962 16.0384 4.47783 16.2079 5.24074L17.1841 5.02381ZM11.2086 1.5C10.4519 1.5 9.83949 1.49914 9.3493 1.55863C8.84558 1.61976 8.4139 1.74994 8.03997 2.0499L8.6657 2.82994C8.84018 2.68997 9.06726 2.6002 9.46978 2.55135C9.88582 2.50086 10.4271 2.5 11.2086 2.5V1.5ZM7.79198 5.24074C7.96151 4.47783 8.07977 3.94962 8.21931 3.55443C8.35432 3.1721 8.49122 2.9699 8.6657 2.82994L8.03997 2.0499C7.66605 2.34985 7.44532 2.74301 7.27637 3.22148C7.11196 3.68708 6.97995 4.2851 6.81579 5.02381L7.79198 5.24074ZM11.2086 22.5H12.7913V21.5H11.2086V22.5ZM17.1841 18.9762L17.2658 18.6085L16.2896 18.3915L16.2079 18.7593L17.1841 18.9762ZM6.73407 18.6085L6.81579 18.9762L7.79198 18.7593L7.71026 18.3915L6.73407 18.6085ZM12.7913 22.5C13.548 22.5 14.1604 22.5009 14.6506 22.4414C15.1543 22.3802 15.586 22.2501 15.9599 21.9501L15.3342 21.1701C15.1597 21.31 14.9326 21.3998 14.5301 21.4487C14.1141 21.4991 13.5728 21.5 12.7913 21.5V22.5ZM16.2079 18.7593C16.0384 19.5222 15.9201 20.0504 15.7806 20.4456C15.6456 20.8279 15.5087 21.0301 15.3342 21.1701L15.9599 21.9501C16.3338 21.6502 16.5546 21.257 16.7235 20.7785C16.8879 20.3129 17.0199 19.7149 17.1841 18.9762L16.2079 18.7593ZM11.2086 21.5C10.4271 21.5 9.88582 21.4991 9.46978 21.4487C9.06726 21.3998 8.84018 21.31 8.6657 21.1701L8.03997 21.9501C8.4139 22.2501 8.84558 22.3802 9.3493 22.4414C9.83949 22.5009 10.4519 22.5 11.2086 22.5V21.5ZM6.81579 18.9762C6.97995 19.7149 7.11196 20.3129 7.27637 20.7785C7.44532 21.257 7.66605 21.6502 8.03997 21.9501L8.6657 21.1701C8.49122 21.0301 8.35432 20.8279 8.21931 20.4456C8.07977 20.0504 7.96151 19.5222 7.79198 18.7593L6.81579 18.9762Z" fill="#424242"/>
</svg>
