<svg width="24" height="24" viewBox="0 0 24 24" fill="none" xmlns="http://www.w3.org/2000/svg">
<path d="M16.6961 5.13228L16.208 5.24074V5.24074L16.6961 5.13228ZM7.30394 5.13228L6.81584 5.02381V5.02381L7.30394 5.13228ZM15.6471 2.43992L15.96 2.0499V2.0499L15.6471 2.43992ZM8.35289 2.43992L8.66575 2.82994V2.82994L8.35289 2.43992ZM16.6961 18.8677L16.208 18.7593V18.7593L16.6961 18.8677ZM7.30394 18.8677L7.79203 18.7593L7.30394 18.8677ZM15.6471 21.5601L15.96 21.9501V21.9501L15.6471 21.5601ZM8.35289 21.5601L8.66575 21.1701V21.1701L8.35289 21.5601ZM12 12H11.5C11.5 12.136 11.5554 12.2661 11.6534 12.3604L12 12ZM12.5 8.92308C12.5 8.64693 12.2761 8.42308 12 8.42308C11.7239 8.42308 11.5 8.64693 11.5 8.92308H12.5ZM13.6534 14.2835C13.8525 14.4749 14.169 14.4687 14.3604 14.2696C14.5518 14.0706 14.5456 13.7541 14.3466 13.5627L13.6534 14.2835ZM11.2087 2.5H12.7913V1.5H11.2087V2.5ZM16.208 5.24074L16.5119 6.60847L17.4881 6.39153L17.1842 5.02381L16.208 5.24074ZM7.48809 6.60847L7.79203 5.24074L6.81584 5.02381L6.51191 6.39153L7.48809 6.60847ZM12.7913 2.5C13.5728 2.5 14.1141 2.50086 14.5302 2.55135C14.9327 2.6002 15.1598 2.68997 15.3342 2.82994L15.96 2.0499C15.5861 1.74994 15.1544 1.61976 14.6506 1.55863C14.1605 1.49914 13.548 1.5 12.7913 1.5V2.5ZM17.1842 5.02381C17.02 4.2851 16.888 3.68709 16.7236 3.22148C16.5546 2.74301 16.3339 2.34985 15.96 2.0499L15.3342 2.82994C15.5087 2.9699 15.6456 3.1721 15.7806 3.55443C15.9202 3.94962 16.0384 4.47783 16.208 5.24074L17.1842 5.02381ZM11.2087 1.5C10.452 1.5 9.83954 1.49914 9.34935 1.55863C8.84564 1.61976 8.41395 1.74994 8.04002 2.0499L8.66575 2.82994C8.84023 2.68997 9.06732 2.6002 9.46983 2.55135C9.88588 2.50086 10.4272 2.5 11.2087 2.5V1.5ZM7.79203 5.24074C7.96157 4.47783 8.07983 3.94962 8.21937 3.55443C8.35437 3.1721 8.49127 2.9699 8.66575 2.82994L8.04002 2.0499C7.6661 2.34985 7.44537 2.74301 7.27643 3.22148C7.11202 3.68708 6.98 4.2851 6.81584 5.02381L7.79203 5.24074ZM11.2087 22.5H12.7913V21.5H11.2087V22.5ZM17.1842 18.9762L17.4881 17.6085L16.5119 17.3915L16.208 18.7593L17.1842 18.9762ZM6.51191 17.6085L6.81584 18.9762L7.79203 18.7593L7.48809 17.3915L6.51191 17.6085ZM12.7913 22.5C13.548 22.5 14.1605 22.5009 14.6506 22.4414C15.1544 22.3802 15.5861 22.2501 15.96 21.9501L15.3342 21.1701C15.1598 21.31 14.9327 21.3998 14.5302 21.4487C14.1141 21.4991 13.5728 21.5 12.7913 21.5V22.5ZM16.208 18.7593C16.0384 19.5222 15.9202 20.0504 15.7806 20.4456C15.6456 20.8279 15.5087 21.0301 15.3342 21.1701L15.96 21.9501C16.3339 21.6502 16.5546 21.257 16.7236 20.7785C16.888 20.3129 17.02 19.7149 17.1842 18.9762L16.208 18.7593ZM11.2087 21.5C10.4272 21.5 9.88588 21.4991 9.46983 21.4487C9.06732 21.3998 8.84023 21.31 8.66575 21.1701L8.04002 21.9501C8.41395 22.2501 8.84564 22.3802 9.34935 22.4414C9.83954 22.5009 10.452 22.5 11.2087 22.5V21.5ZM6.81584 18.9762C6.98 19.7149 7.11202 20.3129 7.27643 20.7785C7.44537 21.257 7.6661 21.6502 8.04002 21.9501L8.66575 21.1701C8.49127 21.0301 8.35437 20.8279 8.21937 20.4456C8.07983 20.0504 7.96157 19.5222 7.79203 18.7593L6.81584 18.9762ZM19 12C19 15.866 15.866 19 12 19V20C16.4183 20 20 16.4183 20 12H19ZM12 19C8.13401 19 5 15.866 5 12H4C4 16.4183 7.58172 20 12 20V19ZM5 12C5 8.13401 8.13401 5 12 5V4C7.58172 4 4 7.58172 4 12H5ZM12 5C15.866 5 19 8.13401 19 12H20C20 7.58172 16.4183 4 12 4V5ZM12.5 12V8.92308H11.5V12H12.5ZM11.6534 12.3604L13.6534 14.2835L14.3466 13.5627L12.3466 11.6396L11.6534 12.3604Z" fill="#424242"/>
</svg>
