<svg width="24" height="24" viewBox="0 0 24 24" fill="none" xmlns="http://www.w3.org/2000/svg">
<path d="M8 17.5C7.72386 17.5 7.5 17.7239 7.5 18C7.5 18.2761 7.72386 18.5 8 18.5V17.5ZM16 18.5C16.2761 18.5 16.5 18.2761 16.5 18C16.5 17.7239 16.2761 17.5 16 17.5V18.5ZM17.0774 8.3072L16.6131 8.1215V8.1215L17.0774 8.3072ZM16.4117 9.97127L16.876 10.157V10.157L16.4117 9.97127ZM7.58866 9.97127L8.0529 9.78558V9.78558L7.58866 9.97127ZM6.92303 8.3072L6.4588 8.49289L6.4588 8.49289L6.92303 8.3072ZM15.5492 5.59163L15.467 6.08483H15.467L15.5492 5.59163ZM15.1238 5.52072L15.206 5.02753H15.206L15.1238 5.52072ZM8.87663 5.52072L8.79443 5.02753H8.79443L8.87663 5.52072ZM8.45119 5.59163L8.53339 6.08483H8.53339L8.45119 5.59163ZM14.9252 10.7314L14.8039 11.2164V11.2164L14.9252 10.7314ZM9.07523 10.7314L9.1965 11.2164V11.2164L9.07523 10.7314ZM9.70869 10.0978C9.80188 10.3577 10.0881 10.4929 10.3481 10.3997C10.608 10.3065 10.7432 10.0203 10.65 9.76031L9.70869 10.0978ZM9.97506 7.87765C9.88187 7.61771 9.5956 7.48253 9.33566 7.57572C9.07571 7.66891 8.94054 7.95518 9.03373 8.21513L9.97506 7.87765ZM11 2.5H13V1.5H11V2.5ZM20.5 10V14H21.5V10H20.5ZM13 21.5H11V22.5H13V21.5ZM3.5 14V10H2.5V14H3.5ZM11 21.5C9.10025 21.5 7.72573 21.4989 6.67754 21.358C5.64373 21.219 5.00253 20.9523 4.52513 20.4749L3.81802 21.182C4.51219 21.8762 5.39959 22.1952 6.54429 22.3491C7.6746 22.5011 9.12852 22.5 11 22.5V21.5ZM2.5 14C2.5 15.8715 2.49894 17.3254 2.65091 18.4557C2.80481 19.6004 3.12385 20.4878 3.81802 21.182L4.52513 20.4749C4.04772 19.9975 3.78098 19.3563 3.64199 18.3225C3.50106 17.2743 3.5 15.8998 3.5 14H2.5ZM20.5 14C20.5 15.8998 20.4989 17.2743 20.358 18.3225C20.219 19.3563 19.9523 19.9975 19.4749 20.4749L20.182 21.182C20.8762 20.4878 21.1952 19.6004 21.3491 18.4557C21.5011 17.3254 21.5 15.8715 21.5 14H20.5ZM13 22.5C14.8715 22.5 16.3254 22.5011 17.4557 22.3491C18.6004 22.1952 19.4878 21.8762 20.182 21.182L19.4749 20.4749C18.9975 20.9523 18.3563 21.219 17.3225 21.358C16.2743 21.4989 14.8998 21.5 13 21.5V22.5ZM13 2.5C14.8998 2.5 16.2743 2.50106 17.3225 2.64199C18.3563 2.78098 18.9975 3.04772 19.4749 3.52513L20.182 2.81802C19.4878 2.12385 18.6004 1.80481 17.4557 1.65091C16.3254 1.49894 14.8715 1.5 13 1.5V2.5ZM21.5 10C21.5 8.12852 21.5011 6.67461 21.3491 5.54429C21.1952 4.39959 20.8762 3.51219 20.182 2.81802L19.4749 3.52513C19.9523 4.00253 20.219 4.64373 20.358 5.67754C20.4989 6.72573 20.5 8.10025 20.5 10H21.5ZM11 1.5C9.12852 1.5 7.67461 1.49894 6.54429 1.65091C5.39959 1.80481 4.51219 2.12385 3.81802 2.81802L4.52513 3.52513C5.00253 3.04772 5.64373 2.78098 6.67754 2.64199C7.72573 2.50106 9.10025 2.5 11 2.5V1.5ZM3.5 10C3.5 8.10025 3.50106 6.72573 3.64199 5.67754C3.78098 4.64373 4.04772 4.00253 4.52513 3.52513L3.81802 2.81802C3.12385 3.51219 2.80481 4.39959 2.65091 5.54429C2.49894 6.6746 2.5 8.12852 2.5 10H3.5ZM8 18.5H16V17.5H8V18.5ZM16.6131 8.1215L15.9475 9.78557L16.876 10.157L17.5416 8.49289L16.6131 8.1215ZM8.0529 9.78558L7.38727 8.1215L6.4588 8.49289L7.12443 10.157L8.0529 9.78558ZM15.6314 5.09843L15.206 5.02753L15.0416 6.01392L15.467 6.08483L15.6314 5.09843ZM8.79443 5.02753L8.36899 5.09843L8.53339 6.08483L8.95883 6.01392L8.79443 5.02753ZM15.206 5.02753C13.0834 4.67377 10.917 4.67377 8.79443 5.02753L8.95882 6.01392C10.9725 5.6783 13.0279 5.6783 15.0416 6.01392L15.206 5.02753ZM15.0464 10.2463C13.0464 9.74628 10.954 9.74628 8.95396 10.2463L9.1965 11.2164C11.0373 10.7562 12.9631 10.7562 14.8039 11.2164L15.0464 10.2463ZM7.12443 10.157C7.45306 10.9785 8.33806 11.4311 9.1965 11.2164L8.95396 10.2463C8.58066 10.3396 8.19581 10.1428 8.0529 9.78558L7.12443 10.157ZM15.9475 9.78557C15.8046 10.1428 15.4198 10.3396 15.0464 10.2463L14.8039 11.2164C15.6624 11.4311 16.5474 10.9785 16.876 10.157L15.9475 9.78557ZM7.38727 8.1215C7.03164 7.23241 7.58883 6.24225 8.53339 6.08483L8.36899 5.09843C6.79473 5.36081 5.86607 7.01107 6.4588 8.49289L7.38727 8.1215ZM17.5416 8.49289C18.1343 7.01107 17.2057 5.36081 15.6314 5.09843L15.467 6.08483C16.4116 6.24225 16.9688 7.23241 16.6131 8.1215L17.5416 8.49289ZM10.65 9.76031L9.97506 7.87765L9.03373 8.21513L9.70869 10.0978L10.65 9.76031Z" fill="#424242"/>
</svg>
