<svg width="24" height="24" viewBox="0 0 24 24" fill="none" xmlns="http://www.w3.org/2000/svg">
<path d="M14.5 6C14.2239 6 14 6.22386 14 6.5C14 6.77614 14.2239 7 14.5 7V6ZM20.5 7C20.7761 7 21 6.77614 21 6.5C21 6.22386 20.7761 6 20.5 6V7ZM17 9.5C17 9.77614 17.2239 10 17.5 10C17.7761 10 18 9.77614 18 9.5H17ZM18 3.5C18 3.22386 17.7761 3 17.5 3C17.2239 3 17 3.22386 17 3.5H18ZM14.5 7H17.5V6H14.5V7ZM17.5 7H20.5V6H17.5V7ZM18 9.5V6.5H17V9.5H18ZM18 6.5V3.5H17V6.5H18ZM6.5 10C5.54306 10 4.87565 9.99894 4.37208 9.93124C3.8829 9.86547 3.62385 9.74517 3.43934 9.56066L2.73223 10.2678C3.13351 10.669 3.63876 10.8416 4.23883 10.9223C4.82452 11.0011 5.57133 11 6.5 11V10ZM2 6.5C2 7.42867 1.99894 8.17548 2.07768 8.76117C2.15836 9.36124 2.33096 9.86649 2.73223 10.2678L3.43934 9.56066C3.25483 9.37615 3.13453 9.1171 3.06876 8.62792C3.00106 8.12435 3 7.45694 3 6.5H2ZM10 6.5C10 7.45694 9.99894 8.12435 9.93124 8.62792C9.86547 9.1171 9.74517 9.37615 9.56066 9.56066L10.2678 10.2678C10.669 9.86649 10.8416 9.36124 10.9223 8.76117C11.0011 8.17548 11 7.42867 11 6.5H10ZM6.5 11C7.42867 11 8.17548 11.0011 8.76117 10.9223C9.36124 10.8416 9.86649 10.669 10.2678 10.2678L9.56066 9.56066C9.37615 9.74517 9.1171 9.86547 8.62792 9.93124C8.12435 9.99894 7.45694 10 6.5 10V11ZM6.5 3C7.45694 3 8.12435 3.00106 8.62792 3.06876C9.1171 3.13453 9.37615 3.25483 9.56066 3.43934L10.2678 2.73223C9.86649 2.33096 9.36124 2.15836 8.76117 2.07768C8.17548 1.99894 7.42867 2 6.5 2V3ZM11 6.5C11 5.57133 11.0011 4.82452 10.9223 4.23883C10.8416 3.63876 10.669 3.13351 10.2678 2.73223L9.56066 3.43934C9.74517 3.62385 9.86547 3.8829 9.93124 4.37208C9.99894 4.87565 10 5.54306 10 6.5H11ZM6.5 2C5.57133 2 4.82452 1.99894 4.23883 2.07768C3.63876 2.15836 3.13351 2.33096 2.73223 2.73223L3.43934 3.43934C3.62385 3.25483 3.8829 3.13453 4.37208 3.06876C4.87565 3.00106 5.54306 3 6.5 3V2ZM3 6.5C3 5.54306 3.00106 4.87565 3.06876 4.37208C3.13453 3.8829 3.25483 3.62385 3.43934 3.43934L2.73223 2.73223C2.33096 3.13351 2.15836 3.63876 2.07768 4.23883C1.99894 4.82452 2 5.57133 2 6.5H3ZM17.5 21C16.5431 21 15.8756 20.9989 15.3721 20.9312C14.8829 20.8655 14.6238 20.7452 14.4393 20.5607L13.7322 21.2678C14.1335 21.669 14.6388 21.8416 15.2388 21.9223C15.8245 22.0011 16.5713 22 17.5 22V21ZM13 17.5C13 18.4287 12.9989 19.1755 13.0777 19.7612C13.1584 20.3612 13.331 20.8665 13.7322 21.2678L14.4393 20.5607C14.2548 20.3762 14.1345 20.1171 14.0688 19.6279C14.0011 19.1244 14 18.4569 14 17.5H13ZM21 17.5C21 18.4569 20.9989 19.1244 20.9312 19.6279C20.8655 20.1171 20.7452 20.3762 20.5607 20.5607L21.2678 21.2678C21.669 20.8665 21.8416 20.3612 21.9223 19.7612C22.0011 19.1755 22 18.4287 22 17.5H21ZM17.5 22C18.4287 22 19.1755 22.0011 19.7612 21.9223C20.3612 21.8416 20.8665 21.669 21.2678 21.2678L20.5607 20.5607C20.3762 20.7452 20.1171 20.8655 19.6279 20.9312C19.1244 20.9989 18.4569 21 17.5 21V22ZM17.5 14C18.4569 14 19.1244 14.0011 19.6279 14.0688C20.1171 14.1345 20.3762 14.2548 20.5607 14.4393L21.2678 13.7322C20.8665 13.331 20.3612 13.1584 19.7612 13.0777C19.1755 12.9989 18.4287 13 17.5 13V14ZM22 17.5C22 16.5713 22.0011 15.8245 21.9223 15.2388C21.8416 14.6388 21.669 14.1335 21.2678 13.7322L20.5607 14.4393C20.7452 14.6238 20.8655 14.8829 20.9312 15.3721C20.9989 15.8756 21 16.5431 21 17.5H22ZM17.5 13C16.5713 13 15.8245 12.9989 15.2388 13.0777C14.6388 13.1584 14.1335 13.331 13.7322 13.7322L14.4393 14.4393C14.6238 14.2548 14.8829 14.1345 15.3721 14.0688C15.8756 14.0011 16.5431 14 17.5 14V13ZM14 17.5C14 16.5431 14.0011 15.8756 14.0688 15.3721C14.1345 14.8829 14.2548 14.6238 14.4393 14.4393L13.7322 13.7322C13.331 14.1335 13.1584 14.6388 13.0777 15.2388C12.9989 15.8245 13 16.5713 13 17.5H14ZM6.5 21C5.54306 21 4.87565 20.9989 4.37208 20.9312C3.8829 20.8655 3.62385 20.7452 3.43934 20.5607L2.73223 21.2678C3.13351 21.669 3.63876 21.8416 4.23883 21.9223C4.82452 22.0011 5.57133 22 6.5 22V21ZM2 17.5C2 18.4287 1.99894 19.1755 2.07768 19.7612C2.15836 20.3612 2.33096 20.8665 2.73223 21.2678L3.43934 20.5607C3.25483 20.3762 3.13453 20.1171 3.06876 19.6279C3.00106 19.1244 3 18.4569 3 17.5H2ZM10 17.5C10 18.4569 9.99894 19.1244 9.93124 19.6279C9.86547 20.1171 9.74517 20.3762 9.56066 20.5607L10.2678 21.2678C10.669 20.8665 10.8416 20.3612 10.9223 19.7612C11.0011 19.1755 11 18.4287 11 17.5H10ZM6.5 22C7.42867 22 8.17548 22.0011 8.76117 21.9223C9.36124 21.8416 9.86649 21.669 10.2678 21.2678L9.56066 20.5607C9.37615 20.7452 9.1171 20.8655 8.62792 20.9312C8.12435 20.9989 7.45694 21 6.5 21V22ZM6.5 14C7.45694 14 8.12435 14.0011 8.62792 14.0688C9.1171 14.1345 9.37615 14.2548 9.56066 14.4393L10.2678 13.7322C9.86649 13.331 9.36124 13.1584 8.76117 13.0777C8.17548 12.9989 7.42867 13 6.5 13V14ZM11 17.5C11 16.5713 11.0011 15.8245 10.9223 15.2388C10.8416 14.6388 10.669 14.1335 10.2678 13.7322L9.56066 14.4393C9.74517 14.6238 9.86547 14.8829 9.93124 15.3721C9.99894 15.8756 10 16.5431 10 17.5H11ZM6.5 13C5.57133 13 4.82452 12.9989 4.23883 13.0777C3.63876 13.1584 3.13351 13.331 2.73223 13.7322L3.43934 14.4393C3.62385 14.2548 3.8829 14.1345 4.37208 14.0688C4.87565 14.0011 5.54306 14 6.5 14V13ZM3 17.5C3 16.5431 3.00106 15.8756 3.06876 15.3721C3.13453 14.8829 3.25483 14.6238 3.43934 14.4393L2.73223 13.7322C2.33096 14.1335 2.15836 14.6388 2.07768 15.2388C1.99894 15.8245 2 16.5713 2 17.5H3Z" fill="#424242"/>
</svg>
