<svg width="24" height="24" viewBox="0 0 24 24" fill="none" xmlns="http://www.w3.org/2000/svg">
<path d="M3.23463 9.15224L3.04329 8.6903V8.6903L3.23463 9.15224ZM2.15224 10.2346L1.6903 10.0433H1.6903L2.15224 10.2346ZM21.8478 10.2346L22.3097 10.0433V10.0433L21.8478 10.2346ZM20.7654 9.15224L20.574 9.61418V9.61418L20.7654 9.15224ZM20.7654 14.8478L20.574 14.3858V14.3858L20.7654 14.8478ZM21.8478 13.7654L22.3097 13.9567V13.9567L21.8478 13.7654ZM3.23463 14.8478L3.04329 15.3097V15.3097L3.23463 14.8478ZM2.15224 13.7654L1.6903 13.9567H1.6903L2.15224 13.7654ZM3.23463 3.15224L3.42597 3.61418V3.61418L3.23463 3.15224ZM2.15224 4.23463L2.61418 4.42598V4.42597L2.15224 4.23463ZM21.8478 4.23463L21.3858 4.42597V4.42597L21.8478 4.23463ZM20.7654 3.15224L20.574 3.61418V3.61418L20.7654 3.15224ZM20.7654 8.84776L20.574 8.38582V8.38582L20.7654 8.84776ZM21.8478 7.76537L22.3097 7.95671V7.95671L21.8478 7.76537ZM3.23463 8.84776L3.04329 9.3097V9.3097L3.23463 8.84776ZM2.15224 7.76537L1.6903 7.95671H1.6903L2.15224 7.76537ZM3.23463 15.1522L3.04329 14.6903V14.6903L3.23463 15.1522ZM2.15224 16.2346L1.6903 16.0433H1.6903L2.15224 16.2346ZM21.8478 16.2346L22.3097 16.0433V16.0433L21.8478 16.2346ZM20.7654 15.1522L20.574 15.6142V15.6142L20.7654 15.1522ZM20.7654 20.8478L20.574 20.3858V20.3858L20.7654 20.8478ZM21.8478 19.7654L21.3858 19.574V19.574L21.8478 19.7654ZM3.23463 20.8478L3.04329 21.3097V21.3097L3.23463 20.8478ZM2.15224 19.7654L2.61418 19.574H2.61418L2.15224 19.7654ZM17.8478 3.23463L18.3097 3.04329L18.3097 3.04329L17.8478 3.23463ZM16.7654 2.15224L16.9567 1.6903V1.6903L16.7654 2.15224ZM16.7654 21.8478L16.574 21.3858V21.3858L16.7654 21.8478ZM17.8478 20.7654L18.3097 20.9567H18.3097L17.8478 20.7654ZM12 19H11.5V19H12ZM12.1522 20.7654L11.6903 20.9567V20.9567L12.1522 20.7654ZM13.2346 21.8478L13.426 21.3858V21.3858L13.2346 21.8478ZM12.1522 3.23463L11.6903 3.04329V3.04329L12.1522 3.23463ZM13.2346 2.15224L13.0433 1.6903V1.6903L13.2346 2.15224ZM12.2679 3L12.701 3.24999V3.24999L12.2679 3ZM18 15H17.5V15H18ZM12 15H12.5V15H12ZM12.2679 21L12.701 20.75L12.701 20.75L12.2679 21ZM17.7321 21L17.299 20.75L17.299 20.75L17.7321 21ZM15.5 11C15.5 10.7239 15.2761 10.5 15 10.5C14.7239 10.5 14.5 10.7239 14.5 11H15.5ZM14.5 13C14.5 13.2761 14.7239 13.5 15 13.5C15.2761 13.5 15.5 13.2761 15.5 13H14.5ZM5 8.5C4.5409 8.5 4.17153 8.49973 3.87165 8.52019C3.56728 8.54096 3.29814 8.58474 3.04329 8.6903L3.42597 9.61418C3.53867 9.5675 3.68627 9.53516 3.93972 9.51787C4.19767 9.50027 4.52722 9.5 5 9.5V8.5ZM2.5 12C2.5 11.5272 2.50027 11.1977 2.51787 10.9397C2.53516 10.6863 2.5675 10.5387 2.61418 10.426L1.6903 10.0433C1.58474 10.2981 1.54096 10.5673 1.52019 10.8717C1.49973 11.1715 1.5 11.5409 1.5 12H2.5ZM3.04329 8.6903C2.43072 8.94404 1.94404 9.43072 1.6903 10.0433L2.61418 10.426C2.76642 10.0584 3.05843 9.76642 3.42597 9.61418L3.04329 8.6903ZM22.5 12C22.5 11.5409 22.5003 11.1715 22.4798 10.8717C22.459 10.5673 22.4153 10.2981 22.3097 10.0433L21.3858 10.426C21.4325 10.5387 21.4648 10.6863 21.4821 10.9397C21.4997 11.1977 21.5 11.5272 21.5 12H22.5ZM19 9.5C19.4728 9.5 19.8023 9.50027 20.0603 9.51787C20.3137 9.53516 20.4613 9.5675 20.574 9.61418L20.9567 8.6903C20.7019 8.58474 20.4327 8.54096 20.1283 8.52019C19.8285 8.49973 19.4591 8.5 19 8.5V9.5ZM22.3097 10.0433C22.056 9.43072 21.5693 8.94404 20.9567 8.6903L20.574 9.61418C20.9416 9.76642 21.2336 10.0584 21.3858 10.426L22.3097 10.0433ZM19 15.5C19.4591 15.5 19.8285 15.5003 20.1283 15.4798C20.4327 15.459 20.7019 15.4153 20.9567 15.3097L20.574 14.3858C20.4613 14.4325 20.3137 14.4648 20.0603 14.4821C19.8023 14.4997 19.4728 14.5 19 14.5V15.5ZM21.5 12C21.5 12.4728 21.4997 12.8023 21.4821 13.0603C21.4648 13.3137 21.4325 13.4613 21.3858 13.574L22.3097 13.9567C22.4153 13.7019 22.459 13.4327 22.4798 13.1283C22.5003 12.8285 22.5 12.4591 22.5 12H21.5ZM20.9567 15.3097C21.5693 15.056 22.056 14.5693 22.3097 13.9567L21.3858 13.574C21.2336 13.9416 20.9416 14.2336 20.574 14.3858L20.9567 15.3097ZM5 14.5C4.52722 14.5 4.19767 14.4997 3.93972 14.4821C3.68627 14.4648 3.53867 14.4325 3.42597 14.3858L3.04329 15.3097C3.29814 15.4153 3.56728 15.459 3.87165 15.4798C4.17153 15.5003 4.5409 15.5 5 15.5V14.5ZM1.5 12C1.5 12.4591 1.49973 12.8285 1.52019 13.1283C1.54096 13.4327 1.58474 13.7019 1.6903 13.9567L2.61418 13.574C2.5675 13.4613 2.53516 13.3137 2.51787 13.0603C2.50027 12.8023 2.5 12.4728 2.5 12H1.5ZM3.42597 14.3858C3.05843 14.2336 2.76642 13.9416 2.61418 13.574L1.6903 13.9567C1.94404 14.5693 2.43072 15.056 3.04329 15.3097L3.42597 14.3858ZM5 2.5C4.5409 2.5 4.17153 2.49973 3.87165 2.52019C3.56728 2.54096 3.29814 2.58474 3.04329 2.6903L3.42597 3.61418C3.53867 3.5675 3.68627 3.53516 3.93972 3.51787C4.19767 3.50027 4.52722 3.5 5 3.5V2.5ZM2.5 6C2.5 5.52722 2.50027 5.19767 2.51787 4.93972C2.53516 4.68627 2.5675 4.53867 2.61418 4.42598L1.6903 4.04329C1.58474 4.29814 1.54096 4.56728 1.52019 4.87165C1.49973 5.17153 1.5 5.5409 1.5 6H2.5ZM3.04329 2.6903C2.43072 2.94404 1.94404 3.43072 1.6903 4.04329L2.61418 4.42597C2.76642 4.05843 3.05843 3.76642 3.42597 3.61418L3.04329 2.6903ZM22.5 6C22.5 5.5409 22.5003 5.17153 22.4798 4.87165C22.459 4.56728 22.4153 4.29814 22.3097 4.04329L21.3858 4.42597C21.4325 4.53867 21.4648 4.68627 21.4821 4.93972C21.4997 5.19767 21.5 5.52722 21.5 6H22.5ZM19 3.5C19.4728 3.5 19.8023 3.50027 20.0603 3.51787C20.3137 3.53516 20.4613 3.5675 20.574 3.61418L20.9567 2.6903C20.7019 2.58474 20.4327 2.54096 20.1283 2.52019C19.8285 2.49973 19.4591 2.5 19 2.5V3.5ZM22.3097 4.04329C22.056 3.43072 21.5693 2.94404 20.9567 2.6903L20.574 3.61418C20.9416 3.76642 21.2336 4.05843 21.3858 4.42597L22.3097 4.04329ZM19 9.5C19.4591 9.5 19.8285 9.50027 20.1283 9.47981C20.4327 9.45904 20.7019 9.41526 20.9567 9.3097L20.574 8.38582C20.4613 8.4325 20.3137 8.46484 20.0603 8.48213C19.8023 8.49973 19.4728 8.5 19 8.5V9.5ZM21.5 6C21.5 6.47278 21.4997 6.80233 21.4821 7.06028C21.4648 7.31373 21.4325 7.46133 21.3858 7.57403L22.3097 7.95671C22.4153 7.70186 22.459 7.43272 22.4798 7.12835C22.5003 6.82847 22.5 6.4591 22.5 6H21.5ZM20.9567 9.3097C21.5693 9.05596 22.056 8.56928 22.3097 7.95671L21.3858 7.57403C21.2336 7.94157 20.9416 8.23358 20.574 8.38582L20.9567 9.3097ZM5 8.5C4.52722 8.5 4.19767 8.49973 3.93972 8.48213C3.68627 8.46484 3.53867 8.4325 3.42597 8.38582L3.04329 9.3097C3.29814 9.41526 3.56728 9.45904 3.87165 9.47981C4.17153 9.50027 4.5409 9.5 5 9.5V8.5ZM1.5 6C1.5 6.4591 1.49973 6.82847 1.52019 7.12835C1.54096 7.43272 1.58474 7.70186 1.6903 7.95671L2.61418 7.57403C2.5675 7.46133 2.53516 7.31373 2.51787 7.06028C2.50027 6.80233 2.5 6.47278 2.5 6H1.5ZM3.42597 8.38582C3.05843 8.23358 2.76642 7.94157 2.61418 7.57403L1.6903 7.95671C1.94404 8.56928 2.43072 9.05596 3.04329 9.3097L3.42597 8.38582ZM5 14.5C4.5409 14.5 4.17153 14.4997 3.87165 14.5202C3.56728 14.541 3.29814 14.5847 3.04329 14.6903L3.42597 15.6142C3.53867 15.5675 3.68627 15.5352 3.93972 15.5179C4.19767 15.5003 4.52722 15.5 5 15.5V14.5ZM2.5 18C2.5 17.5272 2.50027 17.1977 2.51787 16.9397C2.53516 16.6863 2.5675 16.5387 2.61418 16.426L1.6903 16.0433C1.58474 16.2981 1.54096 16.5673 1.52019 16.8717C1.49973 17.1715 1.5 17.5409 1.5 18H2.5ZM3.04329 14.6903C2.43072 14.944 1.94404 15.4307 1.6903 16.0433L2.61418 16.426C2.76642 16.0584 3.05843 15.7664 3.42597 15.6142L3.04329 14.6903ZM22.5 18C22.5 17.5409 22.5003 17.1715 22.4798 16.8717C22.459 16.5673 22.4153 16.2981 22.3097 16.0433L21.3858 16.426C21.4325 16.5387 21.4648 16.6863 21.4821 16.9397C21.4997 17.1977 21.5 17.5272 21.5 18H22.5ZM19 15.5C19.4728 15.5 19.8023 15.5003 20.0603 15.5179C20.3137 15.5352 20.4613 15.5675 20.574 15.6142L20.9567 14.6903C20.7019 14.5847 20.4327 14.541 20.1283 14.5202C19.8285 14.4997 19.4591 14.5 19 14.5V15.5ZM22.3097 16.0433C22.056 15.4307 21.5693 14.944 20.9567 14.6903L20.574 15.6142C20.9416 15.7664 21.2336 16.0584 21.3858 16.426L22.3097 16.0433ZM19 21.5C19.4591 21.5 19.8285 21.5003 20.1283 21.4798C20.4327 21.459 20.7019 21.4153 20.9567 21.3097L20.574 20.3858C20.4613 20.4325 20.3137 20.4648 20.0603 20.4821C19.8023 20.4997 19.4728 20.5 19 20.5V21.5ZM21.5 18C21.5 18.4728 21.4997 18.8023 21.4821 19.0603C21.4648 19.3137 21.4325 19.4613 21.3858 19.574L22.3097 19.9567C22.4153 19.7019 22.459 19.4327 22.4798 19.1283C22.5003 18.8285 22.5 18.4591 22.5 18H21.5ZM20.9567 21.3097C21.5693 21.056 22.056 20.5693 22.3097 19.9567L21.3858 19.574C21.2336 19.9416 20.9416 20.2336 20.574 20.3858L20.9567 21.3097ZM5 20.5C4.52722 20.5 4.19767 20.4997 3.93972 20.4821C3.68627 20.4648 3.53867 20.4325 3.42597 20.3858L3.04329 21.3097C3.29814 21.4153 3.56728 21.459 3.87165 21.4798C4.17153 21.5003 4.5409 21.5 5 21.5V20.5ZM1.5 18C1.5 18.4591 1.49973 18.8285 1.52019 19.1283C1.54096 19.4327 1.58474 19.7019 1.6903 19.9567L2.61418 19.574C2.5675 19.4613 2.53516 19.3137 2.51787 19.0603C2.50027 18.8023 2.5 18.4728 2.5 18H1.5ZM3.42597 20.3858C3.05843 20.2336 2.76642 19.9416 2.61418 19.574L1.6903 19.9567C1.94404 20.5693 2.43072 21.056 3.04329 21.3097L3.42597 20.3858ZM18.5 5C18.5 4.5409 18.5003 4.17153 18.4798 3.87165C18.459 3.56728 18.4153 3.29814 18.3097 3.04329L17.3858 3.42597C17.4325 3.53867 17.4648 3.68627 17.4821 3.93972C17.4997 4.19767 17.5 4.52722 17.5 5H18.5ZM15 2.5C15.4728 2.5 15.8023 2.50027 16.0603 2.51787C16.3137 2.53516 16.4613 2.5675 16.574 2.61418L16.9567 1.6903C16.7019 1.58474 16.4327 1.54096 16.1283 1.52019C15.8285 1.49973 15.4591 1.5 15 1.5V2.5ZM15 22.5C15.4591 22.5 15.8285 22.5003 16.1283 22.4798C16.4327 22.459 16.7019 22.4153 16.9567 22.3097L16.574 21.3858C16.4613 21.4325 16.3137 21.4648 16.0603 21.4821C15.8023 21.4997 15.4728 21.5 15 21.5V22.5ZM17.5 19C17.5 19.4728 17.4997 19.8023 17.4821 20.0603C17.4648 20.3137 17.4325 20.4613 17.3858 20.574L18.3097 20.9567C18.4153 20.7019 18.459 20.4327 18.4798 20.1283C18.5003 19.8285 18.5 19.4591 18.5 19H17.5ZM11.5 19C11.5 19.4591 11.4997 19.8285 11.5202 20.1283C11.541 20.4327 11.5847 20.7019 11.6903 20.9567L12.6142 20.574C12.5675 20.4613 12.5352 20.3137 12.5179 20.0603C12.5003 19.8023 12.5 19.4728 12.5 19H11.5ZM15 21.5C14.5272 21.5 14.1977 21.4997 13.9397 21.4821C13.6863 21.4648 13.5387 21.4325 13.426 21.3858L13.0433 22.3097C13.2981 22.4153 13.5673 22.459 13.8717 22.4798C14.1715 22.5003 14.5409 22.5 15 22.5V21.5ZM12.5 5C12.5 4.52722 12.5003 4.19767 12.5179 3.93972C12.5352 3.68627 12.5675 3.53867 12.6142 3.42597L11.6903 3.04329C11.5847 3.29814 11.541 3.56728 11.5202 3.87165C11.4997 4.17153 11.5 4.5409 11.5 5H12.5ZM15 1.5C14.5409 1.5 14.1715 1.49973 13.8717 1.52019C13.5673 1.54096 13.2981 1.58474 13.0433 1.6903L13.426 2.61418C13.5387 2.5675 13.6863 2.53516 13.9397 2.51787C14.1977 2.50027 14.5272 2.5 15 2.5V1.5ZM12.6142 3.42598C12.6394 3.36513 12.6684 3.30637 12.701 3.24999L11.8349 2.75001C11.7806 2.84402 11.7323 2.94194 11.6903 3.04329L12.6142 3.42598ZM12.701 3.24999C12.8651 2.9656 13.1193 2.74122 13.426 2.61418L13.0433 1.6903C12.5321 1.90205 12.1086 2.27603 11.8349 2.75001L12.701 3.24999ZM12.2679 2.5H5V3.5H12.2679V2.5ZM19 2.5H17.7321V3.5H19V2.5ZM18.3097 3.04329C18.2677 2.94194 18.2194 2.84402 18.1651 2.75001L17.299 3.24999C17.3316 3.30637 17.3606 3.36513 17.3858 3.42598L18.3097 3.04329ZM18.1651 2.75001C17.8914 2.27603 17.4679 1.90205 16.9567 1.6903L16.574 2.61418C16.8807 2.74122 17.1349 2.9656 17.299 3.24999L18.1651 2.75001ZM18.5 9V5H17.5V9H18.5ZM18 9.5H19V8.5H18V9.5ZM5 9.5H12V8.5H5V9.5ZM11.5 5V9H12.5V5H11.5ZM18.5 19V15H17.5V19H18.5ZM18.5 15L18.5 9H17.5L17.5 15H18.5ZM19 14.5H18V15.5H19V14.5ZM12 14.5H5V15.5H12V14.5ZM11.5 9V15H12.5V9H11.5ZM11.5 15L11.5 19H12.5L12.5 15H11.5ZM11.6903 20.9567C11.7323 21.0581 11.7806 21.156 11.8349 21.25L12.701 20.75C12.6684 20.6936 12.6394 20.6349 12.6142 20.574L11.6903 20.9567ZM11.8349 21.25C12.1086 21.724 12.5321 22.0979 13.0433 22.3097L13.426 21.3858C13.1193 21.2588 12.8651 21.0344 12.701 20.75L11.8349 21.25ZM5 21.5H12.2679V20.5H5V21.5ZM17.7321 21.5H19V20.5H17.7321V21.5ZM16.9567 22.3097C17.4679 22.0979 17.8914 21.724 18.1651 21.25L17.299 20.75C17.1349 21.0344 16.8807 21.2588 16.574 21.3858L16.9567 22.3097ZM18.1651 21.25C18.2193 21.156 18.2677 21.0581 18.3097 20.9567L17.3858 20.574C17.3606 20.6349 17.3316 20.6936 17.299 20.75L18.1651 21.25ZM14.5 11V13H15.5V11H14.5Z" fill="#424242"/>
</svg>
