<svg width="24" height="24" viewBox="0 0 24 24" fill="none" xmlns="http://www.w3.org/2000/svg">
<path d="M9.5 18C9.22386 18 9 18.2239 9 18.5C9 18.7761 9.22386 19 9.5 19V18ZM14.5 19C14.7761 19 15 18.7761 15 18.5C15 18.2239 14.7761 18 14.5 18V19ZM11.5 22C11.5 22.2762 11.7239 22.5 12 22.5C12.2762 22.5 12.5 22.2761 12.5 22L11.5 22ZM11.4997 16V18.5H12.4997V16H11.4997ZM11.9997 18H9.5V19H11.9997V18ZM14.5 18H11.9997V19H14.5V18ZM11.4997 18.5L11.5 22L12.5 22L12.4997 18.5L11.4997 18.5ZM18.5 9C18.5 12.5898 15.5896 15.5 11.9997 15.5V16.5C16.1419 16.5 19.5 13.1422 19.5 9H18.5ZM11.9997 15.5C8.40991 15.5 5.5 12.5899 5.5 9H4.5C4.5 13.1421 7.85758 16.5 11.9997 16.5V15.5ZM5.5 9C5.5 5.41015 8.41015 2.5 12 2.5V1.5C7.85786 1.5 4.5 4.85786 4.5 9H5.5ZM12 2.5C15.5899 2.5 18.5 5.41015 18.5 9H19.5C19.5 4.85786 16.1421 1.5 12 1.5V2.5Z" fill="#424242"/>
</svg>
