<svg width="24" height="24" viewBox="0 0 24 24" fill="none" xmlns="http://www.w3.org/2000/svg">
<path d="M15.9342 14.4501L15.4417 14.3643V14.3643L15.9342 14.4501ZM15.3873 17.5884L14.8947 17.5026V17.5026L15.3873 17.5884ZM5.05254 20.8285L4.55442 20.8719V20.8719L5.05254 20.8285ZM4.42295 13.6034L4.92106 13.56V13.56L4.42295 13.6034ZM10.5232 9.0934L11.0165 9.17485V9.17485L10.5232 9.0934ZM10.0095 12.2046L10.5028 12.2861V12.2861L10.0095 12.2046ZM4.86678 12.5211L4.54183 12.1411L4.54183 12.1411L4.86678 12.5211ZM5.98208 11.5675L6.30702 11.9475L6.30702 11.9475L5.98208 11.5675ZM7.82795 8.75673L7.3442 8.63027V8.63027L7.82795 8.75673ZM8.19671 7.34607L8.68046 7.47253L8.68046 7.47253L8.19671 7.34607ZM9.49426 6.66489L9.64612 6.18851L9.64612 6.18851L9.49426 6.66489ZM9.60664 6.70071L9.45478 7.17709L9.45478 7.17709L9.60664 6.70071ZM7.31934 10.0482L7.7596 10.2852V10.2852L7.31934 10.0482ZM10.4532 7.57502L9.9695 7.70148V7.70148L10.4532 7.57502ZM8.72418 6.71723L8.50849 6.26614V6.26614L8.72418 6.71723ZM2.75318 21.5929L2.25506 21.6363V21.6363L2.75318 21.5929ZM2 12.9494L2.49811 12.906C2.47487 12.6393 2.24572 12.4382 1.97828 12.4499C1.71084 12.4615 1.5 12.6817 1.5 12.9494H2ZM18.7914 11.0126L18.5925 10.5538L18.7914 11.0126ZM16.8365 11.0126L16.6377 11.4713L16.8365 11.0126ZM19.5512 2.4619L19.712 1.98847L19.712 1.98847L19.5512 2.4619ZM16.3431 2.37141L16.5039 2.84484V2.84484L16.3431 2.37141ZM19.2848 2.37141L19.124 2.84484V2.84484L19.2848 2.37141ZM16.0767 2.4619L15.9159 1.98847L15.9159 1.98847L16.0767 2.4619ZM17.1452 6.17186C16.9605 5.96658 16.6444 5.9499 16.4391 6.1346C16.2338 6.31931 16.2171 6.63545 16.4019 6.84073L17.1452 6.17186ZM17.438 7.24476L17.0663 7.57919L17.438 7.99228L17.8097 7.57919L17.438 7.24476ZM19.4708 5.73304C19.6555 5.52776 19.6388 5.21162 19.4336 5.02691C19.2283 4.84221 18.9121 4.85889 18.7274 5.06416L19.4708 5.73304ZM15.4417 14.3643L14.8947 17.5026L15.8799 17.6743L16.4268 14.536L15.4417 14.3643ZM9.94183 21.5H6.33825V22.5H9.94183V21.5ZM5.55065 20.7851L4.92106 13.56L3.92484 13.6468L4.55442 20.8719L5.55065 20.7851ZM14.8947 17.5026C14.4955 19.7934 12.4135 21.5 9.94183 21.5V22.5C12.8675 22.5 15.3918 20.4749 15.8799 17.6743L14.8947 17.5026ZM10.0299 9.01195L9.51619 12.1231L10.5028 12.2861L11.0165 9.17485L10.0299 9.01195ZM5.19172 12.9012L6.30702 11.9475L5.65713 11.1874L4.54183 12.1411L5.19172 12.9012ZM8.31169 8.88318L8.68046 7.47253L7.71297 7.21961L7.3442 8.63027L8.31169 8.88318ZM9.3424 7.14127L9.45478 7.17709L9.7585 6.22433L9.64612 6.18851L9.3424 7.14127ZM7.7596 10.2852C7.99862 9.84115 8.18421 9.37083 8.31169 8.88318L7.3442 8.63027C7.23702 9.0403 7.08078 9.43647 6.87908 9.81117L7.7596 10.2852ZM9.45478 7.17709C9.719 7.26132 9.90746 7.46416 9.9695 7.70148L10.937 7.44856C10.7843 6.86452 10.3341 6.40783 9.7585 6.22433L9.45478 7.17709ZM8.68046 7.47253C8.71323 7.34716 8.80411 7.23323 8.93988 7.16831L8.50849 6.26614C8.11751 6.4531 7.82303 6.79858 7.71297 7.21961L8.68046 7.47253ZM8.93988 7.16831C9.06377 7.10907 9.20929 7.09884 9.3424 7.14127L9.64612 6.18851C9.27164 6.06913 8.86315 6.09655 8.50849 6.26614L8.93988 7.16831ZM10.6463 13.4494H14.6626V12.4494H10.6463V13.4494ZM3.25129 21.5495L2.49811 12.906L1.50189 12.9928L2.25506 21.6363L3.25129 21.5495ZM2.5 21.6252V12.9494H1.5V21.6252H2.5ZM2.25506 21.6363C2.24838 21.5595 2.30876 21.5 2.37729 21.5V22.5C2.88825 22.5 3.29613 22.0641 3.25129 21.5495L2.25506 21.6363ZM11.0165 9.17485C11.1114 8.60019 11.0843 8.01216 10.937 7.44856L9.9695 7.70148C10.0814 8.12938 10.1019 8.57573 10.0299 9.01195L11.0165 9.17485ZM6.33825 21.5C5.92526 21.5 5.58565 21.1868 5.55065 20.7851L4.55442 20.8719C4.63492 21.7957 5.41205 22.5 6.33825 22.5V21.5ZM6.30702 11.9475C6.83259 11.4981 7.39124 10.9695 7.7596 10.2852L6.87908 9.81117C6.60348 10.3231 6.1665 10.7519 5.65713 11.1874L6.30702 11.9475ZM16.4268 14.536C16.6174 13.4424 15.7699 12.4494 14.6626 12.4494V13.4494C15.1568 13.4494 15.5243 13.8902 15.4417 14.3643L16.4268 14.536ZM2.37729 21.5C2.44195 21.5 2.5 21.5529 2.5 21.6252H1.5C1.5 22.1114 1.89589 22.5 2.37729 22.5V21.5ZM9.51619 12.1231C9.40084 12.8218 9.94345 13.4494 10.6463 13.4494V12.4494C10.553 12.4494 10.4893 12.3679 10.5028 12.2861L9.51619 12.1231ZM4.92106 13.56C4.89936 13.3109 4.9994 13.0656 5.19172 12.9012L4.54183 12.1411C4.10523 12.5145 3.87498 13.0746 3.92484 13.6468L4.92106 13.56ZM21.5 5.88461C21.5 5.88505 21.5 5.88548 21.5 5.88592C21.5 5.88635 21.5 5.88679 21.5 5.88722C21.5 5.88766 21.5 5.8881 21.5 5.88853C21.5 5.88897 21.5 5.8894 21.5 5.88984C21.5 5.89027 21.5 5.89071 21.5 5.89115C21.5 5.89158 21.5 5.89202 21.5 5.89246C21.5 5.89289 21.5 5.89333 21.5 5.89376C21.5 5.8942 21.5 5.89464 21.5 5.89507C21.5 5.89551 21.5 5.89595 21.5 5.89638C21.5 5.89682 21.5 5.89726 21.5 5.89769C21.5 5.89813 21.5 5.89857 21.5 5.899C21.5 5.89944 21.5 5.89988 21.5 5.90032C21.5 5.90075 21.5 5.90119 21.5 5.90163C21.5 5.90206 21.5 5.9025 21.5 5.90294C21.5 5.90338 21.5 5.90381 21.5 5.90425C21.5 5.90469 21.5 5.90513 21.5 5.90556C21.5 5.906 21.5 5.90644 21.5 5.90688C21.5 5.90732 21.5 5.90775 21.5 5.90819C21.5 5.90863 21.5 5.90907 21.5 5.90951C21.5 5.90994 21.5 5.91038 21.5 5.91082C21.5 5.91126 21.5 5.9117 21.5 5.91214C21.5 5.91257 21.5 5.91301 21.5 5.91345C21.5 5.91389 21.5 5.91433 21.5 5.91477C21.5 5.91521 21.5 5.91564 21.5 5.91608C21.5 5.91652 21.5 5.91696 21.5 5.9174C21.5 5.91784 21.5 5.91828 21.5 5.91872C21.5 5.91916 21.5 5.9196 21.5 5.92003C21.5 5.92047 21.5 5.92091 21.5 5.92135C21.5 5.92179 21.5 5.92223 21.5 5.92267C21.5 5.92311 21.5 5.92355 21.5 5.92399C21.5 5.92443 21.5 5.92487 21.5 5.92531C21.5 5.92575 21.5 5.92619 21.5 5.92663C21.5 5.92707 21.5 5.92751 21.5 5.92795C21.5 5.92839 21.5 5.92883 21.5 5.92927C21.5 5.92971 21.5 5.93015 21.5 5.93059C21.5 5.93103 21.5 5.93147 21.5 5.93191C21.5 5.93235 21.5 5.93279 21.5 5.93323C21.5 5.93367 21.5 5.93412 21.5 5.93456C21.5 5.935 21.5 5.93544 21.5 5.93588C21.5 5.93632 21.5 5.93676 21.5 5.9372C21.5 5.93764 21.5 5.93808 21.5 5.93853C21.5 5.93897 21.5 5.93941 21.5 5.93985C21.5 5.94029 21.5 5.94073 21.5 5.94117C21.5 5.94162 21.5 5.94206 21.5 5.9425C21.5 5.94294 21.5 5.94338 21.5 5.94383C21.5 5.94427 21.5 5.94471 21.5 5.94515C21.5 5.94559 21.5 5.94604 21.5 5.94648C21.5 5.94692 21.5 5.94736 21.5 5.9478C21.5 5.94825 21.5 5.94869 21.5 5.94913C21.5 5.94957 21.5 5.95002 21.5 5.95046C21.5 5.9509 21.5 5.95134 21.5 5.95179C21.5 5.95223 21.5 5.95267 21.5 5.95312C21.5 5.95356 21.5 5.954 21.5 5.95444C21.5 5.95489 21.5 5.95533 21.5 5.95577C21.5 5.95622 21.5 5.95666 21.5 5.9571C21.5 5.95755 21.5 5.95799 21.5 5.95843C21.5 5.95888 21.5 5.95932 21.5 5.95976C21.5 5.96021 21.5 5.96065 21.5 5.9611C21.5 5.96154 21.5 5.96198 21.5 5.96243C21.5 5.96287 21.5 5.96331 21.5 5.96376C21.5 5.9642 21.5 5.96465 21.5 5.96509C21.5 5.96553 21.5 5.96598 21.5 5.96642C21.5 5.96687 21.5 5.96731 21.5 5.96776C21.5 5.9682 21.5 5.96865 21.5 5.96909C21.5 5.96954 21.5 5.96998 21.5 5.97042C21.5 5.97087 21.5 5.97131 21.5 5.97176C21.5 5.9722 21.5 5.97265 21.5 5.97309C21.5 5.97354 21.5 5.97398 21.5 5.97443C21.5 5.97487 21.5 5.97532 21.5 5.97577C21.5 5.97621 21.5 5.97666 21.5 5.9771C21.5 5.97755 21.5 5.97799 21.5 5.97844C21.5 5.97888 21.5 5.97933 21.5 5.97978C21.5 5.98022 21.5 5.98067 21.5 5.98111C21.5 5.98156 21.5 5.98201 21.5 5.98245C21.5 5.9829 21.5 5.98334 21.5 5.98379C21.5 5.98424 21.5 5.98468 21.5 5.98513C21.5 5.98557 21.5 5.98602 21.5 5.98647C21.5 5.98691 21.5 5.98736 21.5 5.98781C21.5 5.98825 21.5 5.9887 21.5 5.98915C21.5 5.98959 21.5 5.99004 21.5 5.99049C21.5 5.99094 21.5 5.99138 21.5 5.99183C21.5 5.99228 21.5 5.99272 21.5 5.99317C21.5 5.99362 21.5 5.99407 21.5 5.99451C21.5 5.99496 21.5 5.99541 21.5 5.99586C21.5 5.9963 21.5 5.99675 21.5 5.9972C21.5 5.99765 21.5 5.99809 21.5 5.99854C21.5 5.99899 21.5 5.99944 21.5 5.99989C21.5 6.00033 21.5 6.00078 21.5 6.00123C21.5 6.00168 21.5 6.00213 21.5 6.00257C21.5 6.00302 21.5 6.00347 21.5 6.00392C21.5 6.00437 21.5 6.00482 21.5 6.00526C21.5 6.00571 21.5 6.00616 21.5 6.00661C21.5 6.00706 21.5 6.00751 21.5 6.00796C21.5 6.00841 21.5 6.00885 21.5 6.0093C21.5 6.00975 21.5 6.0102 21.5 6.01065C21.5 6.0111 21.5 6.01155 21.5 6.012C21.5 6.01245 21.5 6.0129 21.5 6.01335C21.5 6.0138 21.5 6.01425 21.5 6.01469C21.5 6.01514 21.5 6.01559 21.5 6.01604C21.5 6.01649 21.5 6.01694 21.5 6.01739C21.5 6.01784 21.5 6.01829 21.5 6.01874C21.5 6.01919 21.5 6.01964 21.5 6.02009C21.5 6.02054 21.5 6.02099 21.5 6.02144C21.5 6.02189 21.5 6.02234 21.5 6.02279C21.5 6.02325 21.5 6.0237 21.5 6.02415C21.5 6.0246 21.5 6.02505 21.5 6.0255C21.5 6.02595 21.5 6.0264 21.5 6.02685C21.5 6.0273 21.5 6.02775 21.5 6.0282C21.5 6.02865 21.5 6.02911 21.5 6.02956C21.5 6.03001 21.5 6.03046 21.5 6.03091C21.5 6.03136 21.5 6.03181 21.5 6.03226C21.5 6.03272 21.5 6.03317 21.5 6.03362C21.5 6.03407 21.5 6.03452 21.5 6.03497C21.5 6.03543 21.5 6.03588 21.5 6.03633C21.5 6.03678 21.5 6.03723 21.5 6.03769C21.5 6.03814 21.5 6.03859 21.5 6.03904C21.5 6.03949 21.5 6.03995 21.5 6.0404C21.5 6.04085 21.5 6.0413 21.5 6.04176C21.5 6.04221 21.5 6.04266 21.5 6.04311C21.5 6.04357 21.5 6.04402 21.5 6.04447C21.5 6.04493 21.5 6.04538 21.5 6.04583C21.5 6.04628 21.5 6.04674 21.5 6.04719C21.5 6.04764 21.5 6.0481 21.5 6.04855C21.5 6.049 21.5 6.04946 21.5 6.04991C21.5 6.05036 21.5 6.05082 21.5 6.05127C21.5 6.05172 21.5 6.05218 21.5 6.05263C21.5 6.05308 21.5 6.05354 21.5 6.05399C21.5 6.05445 21.5 6.0549 21.5 6.05535C21.5 6.05581 21.5 6.05626 21.5 6.05672C21.5 6.05717 21.5 6.05762 21.5 6.05808C21.5 6.05853 21.5 6.05899 21.5 6.05944C21.5 6.0599 21.5 6.06035 21.5 6.0608C21.5 6.06126 21.5 6.06171 21.5 6.06217C21.5 6.06262 21.5 6.06308 21.5 6.06353C21.5 6.06399 21.5 6.06444 21.5 6.0649C21.5 6.06535 21.5 6.06581 21.5 6.06626C21.5 6.06672 21.5 6.06717 21.5 6.06763C21.5 6.06808 21.5 6.06854 21.5 6.06899C21.5 6.06945 21.5 6.06991 21.5 6.07036C21.5 6.07082 21.5 6.07127 21.5 6.07173C21.5 6.07218 21.5 6.07264 21.5 6.07309C21.5 6.07355 21.5 6.07401 21.5 6.07446C21.5 6.07492 21.5 6.07538 21.5 6.07583C21.5 6.07629 21.5 6.07674 21.5 6.0772C21.5 6.07766 21.5 6.07811 21.5 6.07857C21.5 6.07903 21.5 6.07948 21.5 6.07994C21.5 6.0804 21.5 6.08085 21.5 6.08131C21.5 6.08177 21.5 6.08222 21.5 6.08268C21.5 6.08314 21.5 6.08359 21.5 6.08405C21.5 6.08451 21.5 6.08496 21.5 6.08542C21.5 6.08588 21.5 6.08634 21.5 6.08679C21.5 6.08725 21.5 6.08771 21.5 6.08817C21.5 6.08862 21.5 6.08908 21.5 6.08954C21.5 6.09 21.5 6.09045 21.5 6.09091C21.5 6.09137 21.5 6.09183 21.5 6.09228C21.5 6.09274 21.5 6.0932 21.5 6.09366C21.5 6.09412 21.5 6.09457 21.5 6.09503C21.5 6.09549 21.5 6.09595 21.5 6.09641C21.5 6.09687 21.5 6.09732 21.5 6.09778C21.5 6.09824 21.5 6.0987 21.5 6.09916C21.5 6.09962 21.5 6.10008 21.5 6.10054C21.5 6.10099 21.5 6.10145 21.5 6.10191C21.5 6.10237 21.5 6.10283 21.5 6.10329C21.5 6.10375 21.5 6.10421 21.5 6.10467C21.5 6.10513 21.5 6.10559 21.5 6.10604C21.5 6.1065 21.5 6.10696 21.5 6.10742C21.5 6.10788 21.5 6.10834 21.5 6.1088C21.5 6.10926 21.5 6.10972 21.5 6.11018C21.5 6.11064 21.5 6.1111 21.5 6.11156C21.5 6.11202 21.5 6.11248 21.5 6.11294C21.5 6.1134 21.5 6.11386 21.5 6.11432C21.5 6.11478 21.5 6.11524 21.5 6.1157C21.5 6.11616 21.5 6.11662 21.5 6.11708C21.5 6.11755 21.5 6.11801 21.5 6.11847C21.5 6.11893 21.5 6.11939 21.5 6.11985C21.5 6.12031 21.5 6.12077 21.5 6.12123C21.5 6.12169 21.5 6.12215 21.5 6.12261C21.5 6.12308 21.5 6.12354 21.5 6.124C21.5 6.12446 21.5 6.12492 21.5 6.12538C21.5 6.12584 21.5 6.12631 21.5 6.12677C21.5 6.12723 21.5 6.12769 21.5 6.12815C21.5 6.12861 21.5 6.12908 21.5 6.12954C21.5 6.13 21.5 6.13046 21.5 6.13092C21.5 6.13139 21.5 6.13185 21.5 6.13231C21.5 6.13277 21.5 6.13323 21.5 6.1337C21.5 6.13416 21.5 6.13462 21.5 6.13508C21.5 6.13555 21.5 6.13601 21.5 6.13647C21.5 6.13693 21.5 6.1374 21.5 6.13786C21.5 6.13832 21.5 6.13879 21.5 6.13925C21.5 6.13971 21.5 6.14017 21.5 6.14064C21.5 6.1411 21.5 6.14156 21.5 6.14203C21.5 6.14249 21.5 6.14295 21.5 6.14342C21.5 6.14388 21.5 6.14434 21.5 6.14481C21.5 6.14527 21.5 6.14573 21.5 6.1462C21.5 6.14666 21.5 6.14713 21.5 6.14759C21.5 6.14805 21.5 6.14852 21.5 6.14898C21.5 6.14945 21.5 6.14991 21.5 6.15037C21.5 6.15084 21.5 6.1513 21.5 6.15177C21.5 6.15223 21.5 6.1527 21.5 6.15316C21.5 6.15362 21.5 6.15409 21.5 6.15455C21.5 6.15502 21.5 6.15548 21.5 6.15595C21.5 6.15641 21.5 6.15688 21.5 6.15734C21.5 6.15781 21.5 6.15827 21.5 6.15874C21.5 6.1592 21.5 6.15967 21.5 6.16013C21.5 6.1606 21.5 6.16106 21.5 6.16153C21.5 6.16199 21.5 6.16246 21.5 6.16292C21.5 6.16339 21.5 6.16385 21.5 6.16432C21.5 6.16479 21.5 6.16525 21.5 6.16572C21.5 6.16618 21.5 6.16665 21.5 6.16711C21.5 6.16758 21.5 6.16805 21.5 6.16851C21.5 6.16898 21.5 6.16944 21.5 6.16991C21.5 6.17038 21.5 6.17084 21.5 6.17131C21.5 6.17178 21.5 6.17224 21.5 6.17271C21.5 6.17318 21.5 6.17364 21.5 6.17411C21.5 6.17458 21.5 6.17504 21.5 6.17551C21.5 6.17598 21.5 6.17644 21.5 6.17691C21.5 6.17738 21.5 6.17784 21.5 6.17831C21.5 6.17878 21.5 6.17924 21.5 6.17971C21.5 6.18018 21.5 6.18065 21.5 6.18111C21.5 6.18158 21.5 6.18205 21.5 6.18252C21.5 6.18298 21.5 6.18345 21.5 6.18392C21.5 6.18439 21.5 6.18485 21.5 6.18532C21.5 6.18579 21.5 6.18626 21.5 6.18673C21.5 6.18719 21.5 6.18766 21.5 6.18813C21.5 6.1886 21.5 6.18907 21.5 6.18954C21.5 6.19 21.5 6.19047 21.5 6.19094C21.5 6.19141 21.5 6.19188 21.5 6.19235C21.5 6.19281 21.5 6.19328 21.5 6.19375C21.5 6.19422 21.5 6.19469 21.5 6.19516C21.5 6.19563 21.5 6.1961 21.5 6.19657C21.5 6.19703 21.5 6.1975 21.5 6.19797C21.5 6.19844 21.5 6.19891 21.5 6.19938C21.5 6.19985 21.5 6.20032 21.5 6.20079C21.5 6.20126 21.5 6.20173 21.5 6.2022C21.5 6.20267 21.5 6.20314 21.5 6.20361C21.5 6.20408 21.5 6.20455 21.5 6.20502C21.5 6.20549 21.5 6.20596 21.5 6.20643C21.5 6.2069 21.5 6.20737 21.5 6.20784C21.5 6.20831 21.5 6.20878 21.5 6.20925C21.5 6.20972 21.5 6.21019 21.5 6.21066C21.5 6.21113 21.5 6.2116 21.5 6.21207C21.5 6.21254 21.5 6.21301 21.5 6.21348C21.5 6.21395 21.5 6.21442 21.5 6.2149C21.5 6.21537 21.5 6.21584 21.5 6.21631C21.5 6.21678 21.5 6.21725 21.5 6.21772C21.5 6.21819 21.5 6.21866 21.5 6.21914C21.5 6.21961 21.5 6.22008 21.5 6.22055C21.5 6.22102 21.5 6.22149 21.5 6.22197C21.5 6.22244 21.5 6.22291 21.5 6.22338C21.5 6.22385 21.5 6.22432 21.5 6.2248C21.5 6.22527 21.5 6.22574 21.5 6.22621C21.5 6.22669 21.5 6.22716 21.5 6.22763C21.5 6.2281 21.5 6.22857 21.5 6.22905C21.5 6.22952 21.5 6.22999 21.5 6.23046C21.5 6.23094 21.5 6.23141 21.5 6.23188C21.5 6.23236 21.5 6.23283 21.5 6.2333C21.5 6.23377 21.5 6.23425 21.5 6.23472C21.5 6.23519 21.5 6.23567 21.5 6.23614C21.5 6.23661 21.5 6.23709 21.5 6.23756C21.5 6.23803 21.5 6.23851 21.5 6.23898C21.5 6.23945 21.5 6.23993 21.5 6.2404C21.5 6.24087 21.5 6.24135 21.5 6.24182C21.5 6.2423 21.5 6.24277 21.5 6.24324C21.5 6.24372 21.5 6.24419 21.5 6.24467C21.5 6.24514 21.5 6.24561 21.5 6.24609C21.5 6.24656 21.5 6.24704 21.5 6.24751C21.5 6.24799 21.5 6.24846 21.5 6.24893C21.5 6.24941 21.5 6.24988 21.5 6.25036C21.5 6.25083 21.5 6.25131 21.5 6.25178C21.5 6.25226 21.5 6.25273 21.5 6.25321C21.5 6.25368 21.5 6.25416 21.5 6.25463C21.5 6.25511 21.5 6.25558 21.5 6.25606C21.5 6.25653 21.5 6.25701 21.5 6.25748C21.5 6.25796 21.5 6.25844 21.5 6.25891C21.5 6.25939 21.5 6.25986 21.5 6.26034C21.5 6.26081 21.5 6.26129 21.5 6.26177C21.5 6.26224 21.5 6.26272 21.5 6.26319C21.5 6.26367 21.5 6.26415 21.5 6.26462C21.5 6.2651 21.5 6.26557 21.5 6.26605C21.5 6.26653 21.5 6.267 21.5 6.26748C21.5 6.26796 21.5 6.26843 21.5 6.26891C21.5 6.26939 21.5 6.26986 21.5 6.27034C21.5 6.27082 21.5 6.27129 21.5 6.27177C21.5 6.27225 21.5 6.27272 21.5 6.2732C21.5 6.27368 21.5 6.27416 21.5 6.27463C21.5 6.27511 21.5 6.27559 21.5 6.27607C21.5 6.27654 21.5 6.27702 21.5 6.2775C21.5 6.27798 21.5 6.27845 21.5 6.27893C21.5 6.27941 21.5 6.27989 21.5 6.28036C21.5 6.28084 21.5 6.28132 21.5 6.2818C21.5 6.28228 21.5 6.28275 21.5 6.28323C21.5 6.28371 21.5 6.28419 21.5 6.28467C21.5 6.28515 21.5 6.28562 21.5 6.2861C21.5 6.28658 21.5 6.28706 21.5 6.28754C21.5 6.28802 21.5 6.2885 21.5 6.28897C21.5 6.28945 21.5 6.28993 21.5 6.29041C21.5 6.29089 21.5 6.29137 21.5 6.29185C21.5 6.29233 21.5 6.29281 21.5 6.29328C21.5 6.29376 21.5 6.29424 21.5 6.29472C21.5 6.2952 21.5 6.29568 21.5 6.29616C21.5 6.29664 21.5 6.29712 21.5 6.2976C21.5 6.29808 21.5 6.29856 21.5 6.29904C21.5 6.29952 21.5 6.3 21.5 6.30048C21.5 6.30096 21.5 6.30144 21.5 6.30192C21.5 6.3024 21.5 6.30288 21.5 6.30336C21.5 6.30384 21.5 6.30432 21.5 6.3048C21.5 6.30528 21.5 6.30576 21.5 6.30624C21.5 6.30672 21.5 6.3072 21.5 6.30768C21.5 6.30816 21.5 6.30865 21.5 6.30913C21.5 6.30961 21.5 6.31009 21.5 6.31057C21.5 6.31105 21.5 6.31153 21.5 6.31201C21.5 6.31249 21.5 6.31297 21.5 6.31346C21.5 6.31394 21.5 6.31442 21.5 6.3149C21.5 6.31538 21.5 6.31586 21.5 6.31634C21.5 6.31683 21.5 6.31731 21.5 6.31779C21.5 6.31827 21.5 6.31875 21.5 6.31924C21.5 6.31972 21.5 6.3202 21.5 6.32068C21.5 6.32116 21.5 6.32165 21.5 6.32213C21.5 6.32261 21.5 6.32309 21.5 6.32358C21.5 6.32406 21.5 6.32454 21.5 6.32502C21.5 6.3255 21.5 6.32599 21.5 6.32647C21.5 6.32695 21.5 6.32744 21.5 6.32792C21.5 6.3284 21.5 6.32888 21.5 6.32937C21.5 6.32985 21.5 6.33033 21.5 6.33082C21.5 6.3313 21.5 6.33178 21.5 6.33227C21.5 6.33275 21.5 6.33323 21.5 6.33372C21.5 6.3342 21.5 6.33468 21.5 6.33517C21.5 6.33565 21.5 6.33613 21.5 6.33662C21.5 6.3371 21.5 6.33759 21.5 6.33807C21.5 6.33855 21.5 6.33904 21.5 6.33952C21.5 6.34 21.5 6.34049 21.5 6.34097C21.5 6.34146 21.5 6.34194 21.5 6.34243C21.5 6.34291 21.5 6.34339 21.5 6.34388C21.5 6.34436 21.5 6.34485 21.5 6.34533C21.5 6.34582 21.5 6.3463 21.5 6.34679C21.5 6.34727 21.5 6.34776 21.5 6.34824C21.5 6.34873 21.5 6.34921 21.5 6.3497C21.5 6.35018 21.5 6.35067 21.5 6.35115C21.5 6.35164 21.5 6.35212 21.5 6.35261C21.5 6.35309 21.5 6.35358 21.5 6.35406C21.5 6.35455 21.5 6.35504 21.5 6.35552C21.5 6.35601 21.5 6.35649 21.5 6.35698C21.5 6.35747 21.5 6.35795 21.5 6.35844C21.5 6.35892 21.5 6.35941 21.5 6.3599C21.5 6.36038 21.5 6.36087 21.5 6.36135C21.5 6.36184 21.5 6.36233 21.5 6.36281C21.5 6.3633 21.5 6.36379 21.5 6.36427C21.5 6.36476 21.5 6.36525 21.5 6.36573C21.5 6.36622 21.5 6.36671 21.5 6.36719C21.5 6.36768 21.5 6.36817 21.5 6.36865C21.5 6.36914 21.5 6.36963 21.5 6.37012C21.5 6.3706 21.5 6.37109 21.5 6.37158C21.5 6.37207 21.5 6.37255 21.5 6.37304C21.5 6.37353 21.5 6.37402 21.5 6.3745C21.5 6.37499 21.5 6.37548 21.5 6.37597C21.5 6.37645 21.5 6.37694 21.5 6.37743C21.5 6.37792 21.5 6.37841 21.5 6.37889C21.5 6.37938 21.5 6.37987 21.5 6.38036C21.5 6.38085 21.5 6.38134 21.5 6.38182C21.5 6.38231 21.5 6.3828 21.5 6.38329C21.5 6.38378 21.5 6.38427 21.5 6.38476C21.5 6.38524 21.5 6.38573 21.5 6.38622C21.5 6.38671 21.5 6.3872 21.5 6.38769C21.5 6.38818 21.5 6.38867 21.5 6.38916C21.5 6.38965 21.5 6.39013 21.5 6.39062C21.5 6.39111 21.5 6.3916 21.5 6.39209C21.5 6.39258 21.5 6.39307 21.5 6.39356C21.5 6.39405 21.5 6.39454 21.5 6.39503C21.5 6.39552 21.5 6.39601 21.5 6.3965C21.5 6.39699 21.5 6.39748 21.5 6.39797C21.5 6.39846 21.5 6.39895 21.5 6.39944C21.5 6.39993 21.5 6.40042 21.5 6.40091C21.5 6.4014 21.5 6.40189 21.5 6.40238C21.5 6.40287 21.5 6.40336 21.5 6.40386C21.5 6.40435 21.5 6.40484 21.5 6.40533C21.5 6.40582 21.5 6.40631 21.5 6.4068C21.5 6.40729 21.5 6.40778 21.5 6.40827C21.5 6.40876 21.5 6.40926 21.5 6.40975C21.5 6.41024 21.5 6.41073 21.5 6.41122C21.5 6.41171 21.5 6.4122 21.5 6.4127C21.5 6.41319 21.5 6.41368 21.5 6.41417C21.5 6.41466 21.5 6.41516 21.5 6.41565C21.5 6.41614 21.5 6.41663 21.5 6.41712C21.5 6.41762 21.5 6.41811 21.5 6.4186C21.5 6.41909 21.5 6.41958 21.5 6.42008C21.5 6.42057 21.5 6.42106 21.5 6.42155C21.5 6.42205 21.5 6.42254 21.5 6.42303C21.5 6.42352 21.5 6.42402 21.5 6.42451C21.5 6.425 21.5 6.4255 21.5 6.42599C21.5 6.42648 21.5 6.42698 21.5 6.42747C21.5 6.42796 21.5 6.42845 21.5 6.42895C21.5 6.42944 21.5 6.42993 21.5 6.43043C21.5 6.43092 21.5 6.43142 21.5 6.43191C21.5 6.4324 21.5 6.4329 21.5 6.43339C21.5 6.43388 21.5 6.43438 21.5 6.43487C21.5 6.43537 21.5 6.43586 21.5 6.43635C21.5 6.43685 21.5 6.43734 21.5 6.43784C21.5 6.43833 21.5 6.43882 21.5 6.43932C21.5 6.43981 21.5 6.44031 21.5 6.4408C21.5 6.4413 21.5 6.44179 21.5 6.44229C21.5 6.44278 21.5 6.44328 21.5 6.44377C21.5 6.44427 21.5 6.44476 21.5 6.44526C21.5 6.44575 21.5 6.44625 21.5 6.44674C21.5 6.44724 21.5 6.44773 21.5 6.44823C21.5 6.44872 21.5 6.44922 21.5 6.44971C21.5 6.45021 21.5 6.4507 21.5 6.4512C21.5 6.45169 21.5 6.45219 21.5 6.45269C21.5 6.45318 21.5 6.45368 21.5 6.45417C21.5 6.45467 21.5 6.45517 21.5 6.45566C21.5 6.45616 21.5 6.45665 21.5 6.45715C21.5 6.45765 21.5 6.45814 21.5 6.45864C21.5 6.45914 21.5 6.45963 21.5 6.46013C21.5 6.46063 21.5 6.46112 21.5 6.46162C21.5 6.46211 21.5 6.46261 21.5 6.46311C21.5 6.46361 21.5 6.4641 21.5 6.4646C21.5 6.4651 21.5 6.46559 21.5 6.46609C21.5 6.46659 21.5 6.46708 21.5 6.46758C21.5 6.46808 21.5 6.46858 21.5 6.46907C21.5 6.46957 21.5 6.47007 21.5 6.47057C21.5 6.47106 21.5 6.47156 21.5 6.47206C21.5 6.47256 21.5 6.47306 21.5 6.47355C21.5 6.47405 21.5 6.47455 21.5 6.47505C21.5 6.47555 21.5 6.47604 21.5 6.47654C21.5 6.47704 21.5 6.47754 21.5 6.47804C21.5 6.47854 21.5 6.47903 21.5 6.47953C21.5 6.48003 21.5 6.48053 21.5 6.48103C21.5 6.48153 21.5 6.48203 21.5 6.48252C21.5 6.48302 21.5 6.48352 21.5 6.48402C21.5 6.48452 21.5 6.48502 21.5 6.48552C21.5 6.48602 21.5 6.48652 21.5 6.48702C21.5 6.48751 21.5 6.48801 21.5 6.48851C21.5 6.48901 21.5 6.48951 21.5 6.49001C21.5 6.49051 21.5 6.49101 21.5 6.49151C21.5 6.49201 21.5 6.49251 21.5 6.49301C21.5 6.49351 21.5 6.49401 21.5 6.49451C21.5 6.49501 21.5 6.49551 21.5 6.49601C21.5 6.49651 21.5 6.49701 21.5 6.49751C21.5 6.49801 21.5 6.49851 21.5 6.49901C21.5 6.49951 21.5 6.50001 21.5 6.50051C21.5 6.50102 21.5 6.50152 21.5 6.50202C21.5 6.50252 21.5 6.50302 21.5 6.50352C21.5 6.50402 21.5 6.50452 21.5 6.50502C21.5 6.50552 21.5 6.50603 21.5 6.50653C21.5 6.50703 21.5 6.50753 21.5 6.50803C21.5 6.50853 21.5 6.50903 21.5 6.50954C21.5 6.51004 21.5 6.51054 21.5 6.51104C21.5 6.51154 21.5 6.51204 21.5 6.51255C21.5 6.51305 21.5 6.51355 21.5 6.51405C21.5 6.51455 21.5 6.51506 21.5 6.51556C21.5 6.51606 21.5 6.51656 21.5 6.51707C21.5 6.51757 21.5 6.51807 21.5 6.51857C21.5 6.51907 21.5 6.51958 21.5 6.52008C21.5 6.52058 21.5 6.52109 21.5 6.52159C21.5 6.52209 21.5 6.52259 21.5 6.5231C21.5 6.5236 21.5 6.5241 21.5 6.52461C21.5 6.52511 21.5 6.52561 21.5 6.52612C21.5 6.52662 21.5 6.52712 21.5 6.52763C21.5 6.52813 21.5 6.52863 21.5 6.52914C21.5 6.52964 21.5 6.53014 21.5 6.53065C21.5 6.53115 21.5 6.53166 21.5 6.53216C21.5 6.53266 21.5 6.53317 21.5 6.53367C21.5 6.53418 21.5 6.53468 21.5 6.53518C21.5 6.53569 21.5 6.53619 21.5 6.5367C21.5 6.5372 21.5 6.53771 21.5 6.53821C21.5 6.53871 21.5 6.53922 21.5 6.53972C21.5 6.54023 21.5 6.54073 21.5 6.54124C21.5 6.54174 21.5 6.54225 21.5 6.54275C21.5 6.54326 21.5 6.54376 21.5 6.54427C21.5 6.54477 21.5 6.54528 21.5 6.54578C21.5 6.54629 21.5 6.54679 21.5 6.5473C21.5 6.54781 21.5 6.54831 21.5 6.54882C21.5 6.54932 21.5 6.54983 21.5 6.55033C21.5 6.55084 21.5 6.55134 21.5 6.55185C21.5 6.55236 21.5 6.55286 21.5 6.55337C21.5 6.55387 21.5 6.55438 21.5 6.55489C21.5 6.55539 21.5 6.5559 21.5 6.55641C21.5 6.55691 21.5 6.55742 21.5 6.55793C21.5 6.55843 21.5 6.55894 21.5 6.55945C21.5 6.55995 21.5 6.56046 21.5 6.56097C21.5 6.56147 21.5 6.56198 21.5 6.56249C21.5 6.56299 21.5 6.5635 21.5 6.56401C21.5 6.56452 21.5 6.56502 21.5 6.56553C21.5 6.56604 21.5 6.56654 21.5 6.56705C21.5 6.56756 21.5 6.56807 21.5 6.56857C21.5 6.56908 21.5 6.56959 21.5 6.5701C21.5 6.57061 21.5 6.57111 21.5 6.57162C21.5 6.57213 21.5 6.57264 21.5 6.57314C21.5 6.57365 21.5 6.57416 21.5 6.57467C21.5 6.57518 21.5 6.57569 21.5 6.57619C21.5 6.5767 21.5 6.57721 21.5 6.57772C21.5 6.57823 21.5 6.57874 21.5 6.57925C21.5 6.57975 21.5 6.58026 21.5 6.58077C21.5 6.58128 21.5 6.58179 21.5 6.5823C21.5 6.58281 21.5 6.58332 21.5 6.58383C21.5 6.58434 21.5 6.58484 21.5 6.58535C21.5 6.58586 21.5 6.58637 21.5 6.58688C21.5 6.58739 21.5 6.5879 21.5 6.58841C21.5 6.58892 21.5 6.58943 21.5 6.58994C21.5 6.59045 21.5 6.59096 21.5 6.59147C21.5 6.59198 21.5 6.59249 21.5 6.593C21.5 6.59351 21.5 6.59402 21.5 6.59453C21.5 6.59504 21.5 6.59555 21.5 6.59606C21.5 6.59657 21.5 6.59708 21.5 6.59759C21.5 6.5981 21.5 6.59861 21.5 6.59912C21.5 6.59964 21.5 6.60015 21.5 6.60066C21.5 6.60117 21.5 6.60168 21.5 6.60219C21.5 6.6027 21.5 6.60321 21.5 6.60372C21.5 6.60423 21.5 6.60475 21.5 6.60526C21.5 6.60577 21.5 6.60628 21.5 6.60679C21.5 6.6073 21.5 6.60781 21.5 6.60833C21.5 6.60884 21.5 6.60935 21.5 6.60986C21.5 6.61037 21.5 6.61089 21.5 6.6114H22.5C22.5 6.61089 22.5 6.61037 22.5 6.60986C22.5 6.60935 22.5 6.60884 22.5 6.60833C22.5 6.60781 22.5 6.6073 22.5 6.60679C22.5 6.60628 22.5 6.60577 22.5 6.60526C22.5 6.60475 22.5 6.60423 22.5 6.60372C22.5 6.60321 22.5 6.6027 22.5 6.60219C22.5 6.60168 22.5 6.60117 22.5 6.60066C22.5 6.60015 22.5 6.59964 22.5 6.59912C22.5 6.59861 22.5 6.5981 22.5 6.59759C22.5 6.59708 22.5 6.59657 22.5 6.59606C22.5 6.59555 22.5 6.59504 22.5 6.59453C22.5 6.59402 22.5 6.59351 22.5 6.593C22.5 6.59249 22.5 6.59198 22.5 6.59147C22.5 6.59096 22.5 6.59045 22.5 6.58994C22.5 6.58943 22.5 6.58892 22.5 6.58841C22.5 6.5879 22.5 6.58739 22.5 6.58688C22.5 6.58637 22.5 6.58586 22.5 6.58535C22.5 6.58484 22.5 6.58434 22.5 6.58383C22.5 6.58332 22.5 6.58281 22.5 6.5823C22.5 6.58179 22.5 6.58128 22.5 6.58077C22.5 6.58026 22.5 6.57975 22.5 6.57925C22.5 6.57874 22.5 6.57823 22.5 6.57772C22.5 6.57721 22.5 6.5767 22.5 6.57619C22.5 6.57569 22.5 6.57518 22.5 6.57467C22.5 6.57416 22.5 6.57365 22.5 6.57314C22.5 6.57264 22.5 6.57213 22.5 6.57162C22.5 6.57111 22.5 6.57061 22.5 6.5701C22.5 6.56959 22.5 6.56908 22.5 6.56857C22.5 6.56807 22.5 6.56756 22.5 6.56705C22.5 6.56654 22.5 6.56604 22.5 6.56553C22.5 6.56502 22.5 6.56452 22.5 6.56401C22.5 6.5635 22.5 6.56299 22.5 6.56249C22.5 6.56198 22.5 6.56147 22.5 6.56097C22.5 6.56046 22.5 6.55995 22.5 6.55945C22.5 6.55894 22.5 6.55843 22.5 6.55793C22.5 6.55742 22.5 6.55691 22.5 6.55641C22.5 6.5559 22.5 6.55539 22.5 6.55489C22.5 6.55438 22.5 6.55387 22.5 6.55337C22.5 6.55286 22.5 6.55236 22.5 6.55185C22.5 6.55134 22.5 6.55084 22.5 6.55033C22.5 6.54983 22.5 6.54932 22.5 6.54882C22.5 6.54831 22.5 6.54781 22.5 6.5473C22.5 6.54679 22.5 6.54629 22.5 6.54578C22.5 6.54528 22.5 6.54477 22.5 6.54427C22.5 6.54376 22.5 6.54326 22.5 6.54275C22.5 6.54225 22.5 6.54174 22.5 6.54124C22.5 6.54073 22.5 6.54023 22.5 6.53972C22.5 6.53922 22.5 6.53871 22.5 6.53821C22.5 6.53771 22.5 6.5372 22.5 6.5367C22.5 6.53619 22.5 6.53569 22.5 6.53518C22.5 6.53468 22.5 6.53418 22.5 6.53367C22.5 6.53317 22.5 6.53266 22.5 6.53216C22.5 6.53166 22.5 6.53115 22.5 6.53065C22.5 6.53014 22.5 6.52964 22.5 6.52914C22.5 6.52863 22.5 6.52813 22.5 6.52763C22.5 6.52712 22.5 6.52662 22.5 6.52612C22.5 6.52561 22.5 6.52511 22.5 6.52461C22.5 6.5241 22.5 6.5236 22.5 6.5231C22.5 6.52259 22.5 6.52209 22.5 6.52159C22.5 6.52109 22.5 6.52058 22.5 6.52008C22.5 6.51958 22.5 6.51907 22.5 6.51857C22.5 6.51807 22.5 6.51757 22.5 6.51707C22.5 6.51656 22.5 6.51606 22.5 6.51556C22.5 6.51506 22.5 6.51455 22.5 6.51405C22.5 6.51355 22.5 6.51305 22.5 6.51255C22.5 6.51204 22.5 6.51154 22.5 6.51104C22.5 6.51054 22.5 6.51004 22.5 6.50954C22.5 6.50903 22.5 6.50853 22.5 6.50803C22.5 6.50753 22.5 6.50703 22.5 6.50653C22.5 6.50603 22.5 6.50552 22.5 6.50502C22.5 6.50452 22.5 6.50402 22.5 6.50352C22.5 6.50302 22.5 6.50252 22.5 6.50202C22.5 6.50152 22.5 6.50102 22.5 6.50051C22.5 6.50001 22.5 6.49951 22.5 6.49901C22.5 6.49851 22.5 6.49801 22.5 6.49751C22.5 6.49701 22.5 6.49651 22.5 6.49601C22.5 6.49551 22.5 6.49501 22.5 6.49451C22.5 6.49401 22.5 6.49351 22.5 6.49301C22.5 6.49251 22.5 6.49201 22.5 6.49151C22.5 6.49101 22.5 6.49051 22.5 6.49001C22.5 6.48951 22.5 6.48901 22.5 6.48851C22.5 6.48801 22.5 6.48751 22.5 6.48702C22.5 6.48652 22.5 6.48602 22.5 6.48552C22.5 6.48502 22.5 6.48452 22.5 6.48402C22.5 6.48352 22.5 6.48302 22.5 6.48252C22.5 6.48203 22.5 6.48153 22.5 6.48103C22.5 6.48053 22.5 6.48003 22.5 6.47953C22.5 6.47903 22.5 6.47854 22.5 6.47804C22.5 6.47754 22.5 6.47704 22.5 6.47654C22.5 6.47604 22.5 6.47555 22.5 6.47505C22.5 6.47455 22.5 6.47405 22.5 6.47355C22.5 6.47306 22.5 6.47256 22.5 6.47206C22.5 6.47156 22.5 6.47106 22.5 6.47057C22.5 6.47007 22.5 6.46957 22.5 6.46907C22.5 6.46858 22.5 6.46808 22.5 6.46758C22.5 6.46708 22.5 6.46659 22.5 6.46609C22.5 6.46559 22.5 6.4651 22.5 6.4646C22.5 6.4641 22.5 6.46361 22.5 6.46311C22.5 6.46261 22.5 6.46211 22.5 6.46162C22.5 6.46112 22.5 6.46063 22.5 6.46013C22.5 6.45963 22.5 6.45914 22.5 6.45864C22.5 6.45814 22.5 6.45765 22.5 6.45715C22.5 6.45665 22.5 6.45616 22.5 6.45566C22.5 6.45517 22.5 6.45467 22.5 6.45417C22.5 6.45368 22.5 6.45318 22.5 6.45269C22.5 6.45219 22.5 6.45169 22.5 6.4512C22.5 6.4507 22.5 6.45021 22.5 6.44971C22.5 6.44922 22.5 6.44872 22.5 6.44823C22.5 6.44773 22.5 6.44724 22.5 6.44674C22.5 6.44625 22.5 6.44575 22.5 6.44526C22.5 6.44476 22.5 6.44427 22.5 6.44377C22.5 6.44328 22.5 6.44278 22.5 6.44229C22.5 6.44179 22.5 6.4413 22.5 6.4408C22.5 6.44031 22.5 6.43981 22.5 6.43932C22.5 6.43882 22.5 6.43833 22.5 6.43784C22.5 6.43734 22.5 6.43685 22.5 6.43635C22.5 6.43586 22.5 6.43537 22.5 6.43487C22.5 6.43438 22.5 6.43388 22.5 6.43339C22.5 6.4329 22.5 6.4324 22.5 6.43191C22.5 6.43142 22.5 6.43092 22.5 6.43043C22.5 6.42993 22.5 6.42944 22.5 6.42895C22.5 6.42845 22.5 6.42796 22.5 6.42747C22.5 6.42698 22.5 6.42648 22.5 6.42599C22.5 6.4255 22.5 6.425 22.5 6.42451C22.5 6.42402 22.5 6.42352 22.5 6.42303C22.5 6.42254 22.5 6.42205 22.5 6.42155C22.5 6.42106 22.5 6.42057 22.5 6.42008C22.5 6.41958 22.5 6.41909 22.5 6.4186C22.5 6.41811 22.5 6.41762 22.5 6.41712C22.5 6.41663 22.5 6.41614 22.5 6.41565C22.5 6.41516 22.5 6.41466 22.5 6.41417C22.5 6.41368 22.5 6.41319 22.5 6.4127C22.5 6.4122 22.5 6.41171 22.5 6.41122C22.5 6.41073 22.5 6.41024 22.5 6.40975C22.5 6.40926 22.5 6.40876 22.5 6.40827C22.5 6.40778 22.5 6.40729 22.5 6.4068C22.5 6.40631 22.5 6.40582 22.5 6.40533C22.5 6.40484 22.5 6.40435 22.5 6.40386C22.5 6.40336 22.5 6.40287 22.5 6.40238C22.5 6.40189 22.5 6.4014 22.5 6.40091C22.5 6.40042 22.5 6.39993 22.5 6.39944C22.5 6.39895 22.5 6.39846 22.5 6.39797C22.5 6.39748 22.5 6.39699 22.5 6.3965C22.5 6.39601 22.5 6.39552 22.5 6.39503C22.5 6.39454 22.5 6.39405 22.5 6.39356C22.5 6.39307 22.5 6.39258 22.5 6.39209C22.5 6.3916 22.5 6.39111 22.5 6.39062C22.5 6.39013 22.5 6.38965 22.5 6.38916C22.5 6.38867 22.5 6.38818 22.5 6.38769C22.5 6.3872 22.5 6.38671 22.5 6.38622C22.5 6.38573 22.5 6.38524 22.5 6.38476C22.5 6.38427 22.5 6.38378 22.5 6.38329C22.5 6.3828 22.5 6.38231 22.5 6.38182C22.5 6.38134 22.5 6.38085 22.5 6.38036C22.5 6.37987 22.5 6.37938 22.5 6.37889C22.5 6.37841 22.5 6.37792 22.5 6.37743C22.5 6.37694 22.5 6.37645 22.5 6.37597C22.5 6.37548 22.5 6.37499 22.5 6.3745C22.5 6.37402 22.5 6.37353 22.5 6.37304C22.5 6.37255 22.5 6.37207 22.5 6.37158C22.5 6.37109 22.5 6.3706 22.5 6.37012C22.5 6.36963 22.5 6.36914 22.5 6.36865C22.5 6.36817 22.5 6.36768 22.5 6.36719C22.5 6.36671 22.5 6.36622 22.5 6.36573C22.5 6.36525 22.5 6.36476 22.5 6.36427C22.5 6.36379 22.5 6.3633 22.5 6.36281C22.5 6.36233 22.5 6.36184 22.5 6.36135C22.5 6.36087 22.5 6.36038 22.5 6.3599C22.5 6.35941 22.5 6.35892 22.5 6.35844C22.5 6.35795 22.5 6.35747 22.5 6.35698C22.5 6.35649 22.5 6.35601 22.5 6.35552C22.5 6.35504 22.5 6.35455 22.5 6.35406C22.5 6.35358 22.5 6.35309 22.5 6.35261C22.5 6.35212 22.5 6.35164 22.5 6.35115C22.5 6.35067 22.5 6.35018 22.5 6.3497C22.5 6.34921 22.5 6.34873 22.5 6.34824C22.5 6.34776 22.5 6.34727 22.5 6.34679C22.5 6.3463 22.5 6.34582 22.5 6.34533C22.5 6.34485 22.5 6.34436 22.5 6.34388C22.5 6.34339 22.5 6.34291 22.5 6.34243C22.5 6.34194 22.5 6.34146 22.5 6.34097C22.5 6.34049 22.5 6.34 22.5 6.33952C22.5 6.33904 22.5 6.33855 22.5 6.33807C22.5 6.33759 22.5 6.3371 22.5 6.33662C22.5 6.33613 22.5 6.33565 22.5 6.33517C22.5 6.33468 22.5 6.3342 22.5 6.33372C22.5 6.33323 22.5 6.33275 22.5 6.33227C22.5 6.33178 22.5 6.3313 22.5 6.33082C22.5 6.33033 22.5 6.32985 22.5 6.32937C22.5 6.32888 22.5 6.3284 22.5 6.32792C22.5 6.32744 22.5 6.32695 22.5 6.32647C22.5 6.32599 22.5 6.3255 22.5 6.32502C22.5 6.32454 22.5 6.32406 22.5 6.32358C22.5 6.32309 22.5 6.32261 22.5 6.32213C22.5 6.32165 22.5 6.32116 22.5 6.32068C22.5 6.3202 22.5 6.31972 22.5 6.31924C22.5 6.31875 22.5 6.31827 22.5 6.31779C22.5 6.31731 22.5 6.31683 22.5 6.31634C22.5 6.31586 22.5 6.31538 22.5 6.3149C22.5 6.31442 22.5 6.31394 22.5 6.31346C22.5 6.31297 22.5 6.31249 22.5 6.31201C22.5 6.31153 22.5 6.31105 22.5 6.31057C22.5 6.31009 22.5 6.30961 22.5 6.30913C22.5 6.30865 22.5 6.30816 22.5 6.30768C22.5 6.3072 22.5 6.30672 22.5 6.30624C22.5 6.30576 22.5 6.30528 22.5 6.3048C22.5 6.30432 22.5 6.30384 22.5 6.30336C22.5 6.30288 22.5 6.3024 22.5 6.30192C22.5 6.30144 22.5 6.30096 22.5 6.30048C22.5 6.3 22.5 6.29952 22.5 6.29904C22.5 6.29856 22.5 6.29808 22.5 6.2976C22.5 6.29712 22.5 6.29664 22.5 6.29616C22.5 6.29568 22.5 6.2952 22.5 6.29472C22.5 6.29424 22.5 6.29376 22.5 6.29328C22.5 6.29281 22.5 6.29233 22.5 6.29185C22.5 6.29137 22.5 6.29089 22.5 6.29041C22.5 6.28993 22.5 6.28945 22.5 6.28897C22.5 6.2885 22.5 6.28802 22.5 6.28754C22.5 6.28706 22.5 6.28658 22.5 6.2861C22.5 6.28562 22.5 6.28515 22.5 6.28467C22.5 6.28419 22.5 6.28371 22.5 6.28323C22.5 6.28275 22.5 6.28228 22.5 6.2818C22.5 6.28132 22.5 6.28084 22.5 6.28036C22.5 6.27989 22.5 6.27941 22.5 6.27893C22.5 6.27845 22.5 6.27798 22.5 6.2775C22.5 6.27702 22.5 6.27654 22.5 6.27607C22.5 6.27559 22.5 6.27511 22.5 6.27463C22.5 6.27416 22.5 6.27368 22.5 6.2732C22.5 6.27272 22.5 6.27225 22.5 6.27177C22.5 6.27129 22.5 6.27082 22.5 6.27034C22.5 6.26986 22.5 6.26939 22.5 6.26891C22.5 6.26843 22.5 6.26796 22.5 6.26748C22.5 6.267 22.5 6.26653 22.5 6.26605C22.5 6.26557 22.5 6.2651 22.5 6.26462C22.5 6.26415 22.5 6.26367 22.5 6.26319C22.5 6.26272 22.5 6.26224 22.5 6.26177C22.5 6.26129 22.5 6.26081 22.5 6.26034C22.5 6.25986 22.5 6.25939 22.5 6.25891C22.5 6.25844 22.5 6.25796 22.5 6.25748C22.5 6.25701 22.5 6.25653 22.5 6.25606C22.5 6.25558 22.5 6.25511 22.5 6.25463C22.5 6.25416 22.5 6.25368 22.5 6.25321C22.5 6.25273 22.5 6.25226 22.5 6.25178C22.5 6.25131 22.5 6.25083 22.5 6.25036C22.5 6.24988 22.5 6.24941 22.5 6.24893C22.5 6.24846 22.5 6.24799 22.5 6.24751C22.5 6.24704 22.5 6.24656 22.5 6.24609C22.5 6.24561 22.5 6.24514 22.5 6.24467C22.5 6.24419 22.5 6.24372 22.5 6.24324C22.5 6.24277 22.5 6.2423 22.5 6.24182C22.5 6.24135 22.5 6.24087 22.5 6.2404C22.5 6.23993 22.5 6.23945 22.5 6.23898C22.5 6.23851 22.5 6.23803 22.5 6.23756C22.5 6.23709 22.5 6.23661 22.5 6.23614C22.5 6.23567 22.5 6.23519 22.5 6.23472C22.5 6.23425 22.5 6.23377 22.5 6.2333C22.5 6.23283 22.5 6.23236 22.5 6.23188C22.5 6.23141 22.5 6.23094 22.5 6.23046C22.5 6.22999 22.5 6.22952 22.5 6.22905C22.5 6.22857 22.5 6.2281 22.5 6.22763C22.5 6.22716 22.5 6.22669 22.5 6.22621C22.5 6.22574 22.5 6.22527 22.5 6.2248C22.5 6.22432 22.5 6.22385 22.5 6.22338C22.5 6.22291 22.5 6.22244 22.5 6.22197C22.5 6.22149 22.5 6.22102 22.5 6.22055C22.5 6.22008 22.5 6.21961 22.5 6.21914C22.5 6.21866 22.5 6.21819 22.5 6.21772C22.5 6.21725 22.5 6.21678 22.5 6.21631C22.5 6.21584 22.5 6.21537 22.5 6.2149C22.5 6.21442 22.5 6.21395 22.5 6.21348C22.5 6.21301 22.5 6.21254 22.5 6.21207C22.5 6.2116 22.5 6.21113 22.5 6.21066C22.5 6.21019 22.5 6.20972 22.5 6.20925C22.5 6.20878 22.5 6.20831 22.5 6.20784C22.5 6.20737 22.5 6.2069 22.5 6.20643C22.5 6.20596 22.5 6.20549 22.5 6.20502C22.5 6.20455 22.5 6.20408 22.5 6.20361C22.5 6.20314 22.5 6.20267 22.5 6.2022C22.5 6.20173 22.5 6.20126 22.5 6.20079C22.5 6.20032 22.5 6.19985 22.5 6.19938C22.5 6.19891 22.5 6.19844 22.5 6.19797C22.5 6.1975 22.5 6.19703 22.5 6.19657C22.5 6.1961 22.5 6.19563 22.5 6.19516C22.5 6.19469 22.5 6.19422 22.5 6.19375C22.5 6.19328 22.5 6.19281 22.5 6.19235C22.5 6.19188 22.5 6.19141 22.5 6.19094C22.5 6.19047 22.5 6.19 22.5 6.18954C22.5 6.18907 22.5 6.1886 22.5 6.18813C22.5 6.18766 22.5 6.18719 22.5 6.18673C22.5 6.18626 22.5 6.18579 22.5 6.18532C22.5 6.18485 22.5 6.18439 22.5 6.18392C22.5 6.18345 22.5 6.18298 22.5 6.18252C22.5 6.18205 22.5 6.18158 22.5 6.18111C22.5 6.18065 22.5 6.18018 22.5 6.17971C22.5 6.17924 22.5 6.17878 22.5 6.17831C22.5 6.17784 22.5 6.17738 22.5 6.17691C22.5 6.17644 22.5 6.17598 22.5 6.17551C22.5 6.17504 22.5 6.17458 22.5 6.17411C22.5 6.17364 22.5 6.17318 22.5 6.17271C22.5 6.17224 22.5 6.17178 22.5 6.17131C22.5 6.17084 22.5 6.17038 22.5 6.16991C22.5 6.16944 22.5 6.16898 22.5 6.16851C22.5 6.16805 22.5 6.16758 22.5 6.16711C22.5 6.16665 22.5 6.16618 22.5 6.16572C22.5 6.16525 22.5 6.16479 22.5 6.16432C22.5 6.16385 22.5 6.16339 22.5 6.16292C22.5 6.16246 22.5 6.16199 22.5 6.16153C22.5 6.16106 22.5 6.1606 22.5 6.16013C22.5 6.15967 22.5 6.1592 22.5 6.15874C22.5 6.15827 22.5 6.15781 22.5 6.15734C22.5 6.15688 22.5 6.15641 22.5 6.15595C22.5 6.15548 22.5 6.15502 22.5 6.15455C22.5 6.15409 22.5 6.15362 22.5 6.15316C22.5 6.1527 22.5 6.15223 22.5 6.15177C22.5 6.1513 22.5 6.15084 22.5 6.15037C22.5 6.14991 22.5 6.14945 22.5 6.14898C22.5 6.14852 22.5 6.14805 22.5 6.14759C22.5 6.14713 22.5 6.14666 22.5 6.1462C22.5 6.14573 22.5 6.14527 22.5 6.14481C22.5 6.14434 22.5 6.14388 22.5 6.14342C22.5 6.14295 22.5 6.14249 22.5 6.14203C22.5 6.14156 22.5 6.1411 22.5 6.14064C22.5 6.14017 22.5 6.13971 22.5 6.13925C22.5 6.13879 22.5 6.13832 22.5 6.13786C22.5 6.1374 22.5 6.13693 22.5 6.13647C22.5 6.13601 22.5 6.13555 22.5 6.13508C22.5 6.13462 22.5 6.13416 22.5 6.1337C22.5 6.13323 22.5 6.13277 22.5 6.13231C22.5 6.13185 22.5 6.13139 22.5 6.13092C22.5 6.13046 22.5 6.13 22.5 6.12954C22.5 6.12908 22.5 6.12861 22.5 6.12815C22.5 6.12769 22.5 6.12723 22.5 6.12677C22.5 6.12631 22.5 6.12584 22.5 6.12538C22.5 6.12492 22.5 6.12446 22.5 6.124C22.5 6.12354 22.5 6.12308 22.5 6.12261C22.5 6.12215 22.5 6.12169 22.5 6.12123C22.5 6.12077 22.5 6.12031 22.5 6.11985C22.5 6.11939 22.5 6.11893 22.5 6.11847C22.5 6.11801 22.5 6.11755 22.5 6.11708C22.5 6.11662 22.5 6.11616 22.5 6.1157C22.5 6.11524 22.5 6.11478 22.5 6.11432C22.5 6.11386 22.5 6.1134 22.5 6.11294C22.5 6.11248 22.5 6.11202 22.5 6.11156C22.5 6.1111 22.5 6.11064 22.5 6.11018C22.5 6.10972 22.5 6.10926 22.5 6.1088C22.5 6.10834 22.5 6.10788 22.5 6.10742C22.5 6.10696 22.5 6.1065 22.5 6.10604C22.5 6.10559 22.5 6.10513 22.5 6.10467C22.5 6.10421 22.5 6.10375 22.5 6.10329C22.5 6.10283 22.5 6.10237 22.5 6.10191C22.5 6.10145 22.5 6.10099 22.5 6.10054C22.5 6.10008 22.5 6.09962 22.5 6.09916C22.5 6.0987 22.5 6.09824 22.5 6.09778C22.5 6.09732 22.5 6.09687 22.5 6.09641C22.5 6.09595 22.5 6.09549 22.5 6.09503C22.5 6.09457 22.5 6.09412 22.5 6.09366C22.5 6.0932 22.5 6.09274 22.5 6.09228C22.5 6.09183 22.5 6.09137 22.5 6.09091C22.5 6.09045 22.5 6.09 22.5 6.08954C22.5 6.08908 22.5 6.08862 22.5 6.08817C22.5 6.08771 22.5 6.08725 22.5 6.08679C22.5 6.08634 22.5 6.08588 22.5 6.08542C22.5 6.08496 22.5 6.08451 22.5 6.08405C22.5 6.08359 22.5 6.08314 22.5 6.08268C22.5 6.08222 22.5 6.08177 22.5 6.08131C22.5 6.08085 22.5 6.0804 22.5 6.07994C22.5 6.07948 22.5 6.07903 22.5 6.07857C22.5 6.07811 22.5 6.07766 22.5 6.0772C22.5 6.07674 22.5 6.07629 22.5 6.07583C22.5 6.07538 22.5 6.07492 22.5 6.07446C22.5 6.07401 22.5 6.07355 22.5 6.07309C22.5 6.07264 22.5 6.07218 22.5 6.07173C22.5 6.07127 22.5 6.07082 22.5 6.07036C22.5 6.06991 22.5 6.06945 22.5 6.06899C22.5 6.06854 22.5 6.06808 22.5 6.06763C22.5 6.06717 22.5 6.06672 22.5 6.06626C22.5 6.06581 22.5 6.06535 22.5 6.0649C22.5 6.06444 22.5 6.06399 22.5 6.06353C22.5 6.06308 22.5 6.06262 22.5 6.06217C22.5 6.06171 22.5 6.06126 22.5 6.0608C22.5 6.06035 22.5 6.0599 22.5 6.05944C22.5 6.05899 22.5 6.05853 22.5 6.05808C22.5 6.05762 22.5 6.05717 22.5 6.05672C22.5 6.05626 22.5 6.05581 22.5 6.05535C22.5 6.0549 22.5 6.05445 22.5 6.05399C22.5 6.05354 22.5 6.05308 22.5 6.05263C22.5 6.05218 22.5 6.05172 22.5 6.05127C22.5 6.05082 22.5 6.05036 22.5 6.04991C22.5 6.04946 22.5 6.049 22.5 6.04855C22.5 6.0481 22.5 6.04764 22.5 6.04719C22.5 6.04674 22.5 6.04628 22.5 6.04583C22.5 6.04538 22.5 6.04493 22.5 6.04447C22.5 6.04402 22.5 6.04357 22.5 6.04311C22.5 6.04266 22.5 6.04221 22.5 6.04176C22.5 6.0413 22.5 6.04085 22.5 6.0404C22.5 6.03995 22.5 6.03949 22.5 6.03904C22.5 6.03859 22.5 6.03814 22.5 6.03769C22.5 6.03723 22.5 6.03678 22.5 6.03633C22.5 6.03588 22.5 6.03543 22.5 6.03497C22.5 6.03452 22.5 6.03407 22.5 6.03362C22.5 6.03317 22.5 6.03272 22.5 6.03226C22.5 6.03181 22.5 6.03136 22.5 6.03091C22.5 6.03046 22.5 6.03001 22.5 6.02956C22.5 6.02911 22.5 6.02865 22.5 6.0282C22.5 6.02775 22.5 6.0273 22.5 6.02685C22.5 6.0264 22.5 6.02595 22.5 6.0255C22.5 6.02505 22.5 6.0246 22.5 6.02415C22.5 6.0237 22.5 6.02325 22.5 6.02279C22.5 6.02234 22.5 6.02189 22.5 6.02144C22.5 6.02099 22.5 6.02054 22.5 6.02009C22.5 6.01964 22.5 6.01919 22.5 6.01874C22.5 6.01829 22.5 6.01784 22.5 6.01739C22.5 6.01694 22.5 6.01649 22.5 6.01604C22.5 6.01559 22.5 6.01514 22.5 6.01469C22.5 6.01425 22.5 6.0138 22.5 6.01335C22.5 6.0129 22.5 6.01245 22.5 6.012C22.5 6.01155 22.5 6.0111 22.5 6.01065C22.5 6.0102 22.5 6.00975 22.5 6.0093C22.5 6.00885 22.5 6.00841 22.5 6.00796C22.5 6.00751 22.5 6.00706 22.5 6.00661C22.5 6.00616 22.5 6.00571 22.5 6.00526C22.5 6.00482 22.5 6.00437 22.5 6.00392C22.5 6.00347 22.5 6.00302 22.5 6.00257C22.5 6.00213 22.5 6.00168 22.5 6.00123C22.5 6.00078 22.5 6.00033 22.5 5.99989C22.5 5.99944 22.5 5.99899 22.5 5.99854C22.5 5.99809 22.5 5.99765 22.5 5.9972C22.5 5.99675 22.5 5.9963 22.5 5.99586C22.5 5.99541 22.5 5.99496 22.5 5.99451C22.5 5.99407 22.5 5.99362 22.5 5.99317C22.5 5.99272 22.5 5.99228 22.5 5.99183C22.5 5.99138 22.5 5.99094 22.5 5.99049C22.5 5.99004 22.5 5.98959 22.5 5.98915C22.5 5.9887 22.5 5.98825 22.5 5.98781C22.5 5.98736 22.5 5.98691 22.5 5.98647C22.5 5.98602 22.5 5.98557 22.5 5.98513C22.5 5.98468 22.5 5.98424 22.5 5.98379C22.5 5.98334 22.5 5.9829 22.5 5.98245C22.5 5.98201 22.5 5.98156 22.5 5.98111C22.5 5.98067 22.5 5.98022 22.5 5.97978C22.5 5.97933 22.5 5.97888 22.5 5.97844C22.5 5.97799 22.5 5.97755 22.5 5.9771C22.5 5.97666 22.5 5.97621 22.5 5.97577C22.5 5.97532 22.5 5.97487 22.5 5.97443C22.5 5.97398 22.5 5.97354 22.5 5.97309C22.5 5.97265 22.5 5.9722 22.5 5.97176C22.5 5.97131 22.5 5.97087 22.5 5.97042C22.5 5.96998 22.5 5.96954 22.5 5.96909C22.5 5.96865 22.5 5.9682 22.5 5.96776C22.5 5.96731 22.5 5.96687 22.5 5.96642C22.5 5.96598 22.5 5.96553 22.5 5.96509C22.5 5.96465 22.5 5.9642 22.5 5.96376C22.5 5.96331 22.5 5.96287 22.5 5.96243C22.5 5.96198 22.5 5.96154 22.5 5.9611C22.5 5.96065 22.5 5.96021 22.5 5.95976C22.5 5.95932 22.5 5.95888 22.5 5.95843C22.5 5.95799 22.5 5.95755 22.5 5.9571C22.5 5.95666 22.5 5.95622 22.5 5.95577C22.5 5.95533 22.5 5.95489 22.5 5.95444C22.5 5.954 22.5 5.95356 22.5 5.95312C22.5 5.95267 22.5 5.95223 22.5 5.95179C22.5 5.95134 22.5 5.9509 22.5 5.95046C22.5 5.95002 22.5 5.94957 22.5 5.94913C22.5 5.94869 22.5 5.94825 22.5 5.9478C22.5 5.94736 22.5 5.94692 22.5 5.94648C22.5 5.94604 22.5 5.94559 22.5 5.94515C22.5 5.94471 22.5 5.94427 22.5 5.94383C22.5 5.94338 22.5 5.94294 22.5 5.9425C22.5 5.94206 22.5 5.94162 22.5 5.94117C22.5 5.94073 22.5 5.94029 22.5 5.93985C22.5 5.93941 22.5 5.93897 22.5 5.93853C22.5 5.93808 22.5 5.93764 22.5 5.9372C22.5 5.93676 22.5 5.93632 22.5 5.93588C22.5 5.93544 22.5 5.935 22.5 5.93456C22.5 5.93412 22.5 5.93367 22.5 5.93323C22.5 5.93279 22.5 5.93235 22.5 5.93191C22.5 5.93147 22.5 5.93103 22.5 5.93059C22.5 5.93015 22.5 5.92971 22.5 5.92927C22.5 5.92883 22.5 5.92839 22.5 5.92795C22.5 5.92751 22.5 5.92707 22.5 5.92663C22.5 5.92619 22.5 5.92575 22.5 5.92531C22.5 5.92487 22.5 5.92443 22.5 5.92399C22.5 5.92355 22.5 5.92311 22.5 5.92267C22.5 5.92223 22.5 5.92179 22.5 5.92135C22.5 5.92091 22.5 5.92047 22.5 5.92003C22.5 5.9196 22.5 5.91916 22.5 5.91872C22.5 5.91828 22.5 5.91784 22.5 5.9174C22.5 5.91696 22.5 5.91652 22.5 5.91608C22.5 5.91564 22.5 5.91521 22.5 5.91477C22.5 5.91433 22.5 5.91389 22.5 5.91345C22.5 5.91301 22.5 5.91257 22.5 5.91214C22.5 5.9117 22.5 5.91126 22.5 5.91082C22.5 5.91038 22.5 5.90994 22.5 5.90951C22.5 5.90907 22.5 5.90863 22.5 5.90819C22.5 5.90775 22.5 5.90732 22.5 5.90688C22.5 5.90644 22.5 5.906 22.5 5.90556C22.5 5.90513 22.5 5.90469 22.5 5.90425C22.5 5.90381 22.5 5.90338 22.5 5.90294C22.5 5.9025 22.5 5.90206 22.5 5.90163C22.5 5.90119 22.5 5.90075 22.5 5.90032C22.5 5.89988 22.5 5.89944 22.5 5.899C22.5 5.89857 22.5 5.89813 22.5 5.89769C22.5 5.89726 22.5 5.89682 22.5 5.89638C22.5 5.89595 22.5 5.89551 22.5 5.89507C22.5 5.89464 22.5 5.8942 22.5 5.89376C22.5 5.89333 22.5 5.89289 22.5 5.89246C22.5 5.89202 22.5 5.89158 22.5 5.89115C22.5 5.89071 22.5 5.89027 22.5 5.88984C22.5 5.8894 22.5 5.88897 22.5 5.88853C22.5 5.8881 22.5 5.88766 22.5 5.88722C22.5 5.88679 22.5 5.88635 22.5 5.88592C22.5 5.88548 22.5 5.88505 22.5 5.88461H21.5ZM21.5 6.6114C21.5 8.90283 19.7775 10.0402 18.5925 10.5538L18.9902 11.4713C20.2793 10.9126 22.5 9.52434 22.5 6.6114H21.5ZM17.0354 10.5538C15.8505 10.0402 14.1279 8.90283 14.1279 6.6114H13.1279C13.1279 9.52434 15.3486 10.9126 16.6377 11.4713L17.0354 10.5538ZM14.1279 6.6114C14.1279 6.61089 14.1279 6.61037 14.1279 6.60986C14.1279 6.60935 14.1279 6.60884 14.1279 6.60833C14.1279 6.60781 14.1279 6.6073 14.1279 6.60679C14.1279 6.60628 14.1279 6.60577 14.1279 6.60526C14.1279 6.60475 14.1279 6.60423 14.1279 6.60372C14.1279 6.60321 14.1279 6.6027 14.1279 6.60219C14.1279 6.60168 14.1279 6.60117 14.1279 6.60066C14.1279 6.60015 14.1279 6.59964 14.1279 6.59912C14.1279 6.59861 14.1279 6.5981 14.1279 6.59759C14.1279 6.59708 14.1279 6.59657 14.1279 6.59606C14.1279 6.59555 14.1279 6.59504 14.1279 6.59453C14.1279 6.59402 14.1279 6.59351 14.1279 6.593C14.1279 6.59249 14.1279 6.59198 14.1279 6.59147C14.1279 6.59096 14.1279 6.59045 14.1279 6.58994C14.1279 6.58943 14.1279 6.58892 14.1279 6.58841C14.1279 6.5879 14.1279 6.58739 14.1279 6.58688C14.1279 6.58637 14.1279 6.58586 14.1279 6.58535C14.1279 6.58484 14.1279 6.58434 14.1279 6.58383C14.1279 6.58332 14.1279 6.58281 14.1279 6.5823C14.1279 6.58179 14.1279 6.58128 14.1279 6.58077C14.1279 6.58026 14.1279 6.57975 14.1279 6.57925C14.1279 6.57874 14.1279 6.57823 14.1279 6.57772C14.1279 6.57721 14.1279 6.5767 14.1279 6.57619C14.1279 6.57569 14.1279 6.57518 14.1279 6.57467C14.1279 6.57416 14.1279 6.57365 14.1279 6.57314C14.1279 6.57264 14.1279 6.57213 14.1279 6.57162C14.1279 6.57111 14.1279 6.57061 14.1279 6.5701C14.1279 6.56959 14.1279 6.56908 14.1279 6.56857C14.1279 6.56807 14.1279 6.56756 14.1279 6.56705C14.1279 6.56654 14.1279 6.56604 14.1279 6.56553C14.1279 6.56502 14.1279 6.56452 14.1279 6.56401C14.1279 6.5635 14.1279 6.56299 14.1279 6.56249C14.1279 6.56198 14.1279 6.56147 14.1279 6.56097C14.1279 6.56046 14.1279 6.55995 14.1279 6.55945C14.1279 6.55894 14.1279 6.55843 14.1279 6.55793C14.1279 6.55742 14.1279 6.55691 14.1279 6.55641C14.1279 6.5559 14.1279 6.55539 14.1279 6.55489C14.1279 6.55438 14.1279 6.55387 14.1279 6.55337C14.1279 6.55286 14.1279 6.55236 14.1279 6.55185C14.1279 6.55134 14.1279 6.55084 14.1279 6.55033C14.1279 6.54983 14.1279 6.54932 14.1279 6.54882C14.1279 6.54831 14.1279 6.54781 14.1279 6.5473C14.1279 6.54679 14.1279 6.54629 14.1279 6.54578C14.1279 6.54528 14.1279 6.54477 14.1279 6.54427C14.1279 6.54376 14.1279 6.54326 14.1279 6.54275C14.1279 6.54225 14.1279 6.54174 14.1279 6.54124C14.1279 6.54073 14.1279 6.54023 14.1279 6.53972C14.1279 6.53922 14.1279 6.53871 14.1279 6.53821C14.1279 6.53771 14.1279 6.5372 14.1279 6.5367C14.1279 6.53619 14.1279 6.53569 14.1279 6.53518C14.1279 6.53468 14.1279 6.53418 14.1279 6.53367C14.1279 6.53317 14.1279 6.53266 14.1279 6.53216C14.1279 6.53166 14.1279 6.53115 14.1279 6.53065C14.1279 6.53014 14.1279 6.52964 14.1279 6.52914C14.1279 6.52863 14.1279 6.52813 14.1279 6.52763C14.1279 6.52712 14.1279 6.52662 14.1279 6.52612C14.1279 6.52561 14.1279 6.52511 14.1279 6.52461C14.1279 6.5241 14.1279 6.5236 14.1279 6.5231C14.1279 6.52259 14.1279 6.52209 14.1279 6.52159C14.1279 6.52109 14.1279 6.52058 14.1279 6.52008C14.1279 6.51958 14.1279 6.51907 14.1279 6.51857C14.1279 6.51807 14.1279 6.51757 14.1279 6.51707C14.1279 6.51656 14.1279 6.51606 14.1279 6.51556C14.1279 6.51506 14.1279 6.51455 14.1279 6.51405C14.1279 6.51355 14.1279 6.51305 14.1279 6.51255C14.1279 6.51204 14.1279 6.51154 14.1279 6.51104C14.1279 6.51054 14.1279 6.51004 14.1279 6.50954C14.1279 6.50903 14.1279 6.50853 14.1279 6.50803C14.1279 6.50753 14.1279 6.50703 14.1279 6.50653C14.1279 6.50603 14.1279 6.50552 14.1279 6.50502C14.1279 6.50452 14.1279 6.50402 14.1279 6.50352C14.1279 6.50302 14.1279 6.50252 14.1279 6.50202C14.1279 6.50152 14.1279 6.50102 14.1279 6.50051C14.1279 6.50001 14.1279 6.49951 14.1279 6.49901C14.1279 6.49851 14.1279 6.49801 14.1279 6.49751C14.1279 6.49701 14.1279 6.49651 14.1279 6.49601C14.1279 6.49551 14.1279 6.49501 14.1279 6.49451C14.1279 6.49401 14.1279 6.49351 14.1279 6.49301C14.1279 6.49251 14.1279 6.49201 14.1279 6.49151C14.1279 6.49101 14.1279 6.49051 14.1279 6.49001C14.1279 6.48951 14.1279 6.48901 14.1279 6.48851C14.1279 6.48801 14.1279 6.48751 14.1279 6.48702C14.1279 6.48652 14.1279 6.48602 14.1279 6.48552C14.1279 6.48502 14.1279 6.48452 14.1279 6.48402C14.1279 6.48352 14.1279 6.48302 14.1279 6.48252C14.1279 6.48203 14.1279 6.48153 14.1279 6.48103C14.1279 6.48053 14.1279 6.48003 14.1279 6.47953C14.1279 6.47903 14.1279 6.47854 14.1279 6.47804C14.1279 6.47754 14.1279 6.47704 14.1279 6.47654C14.1279 6.47604 14.1279 6.47555 14.1279 6.47505C14.1279 6.47455 14.1279 6.47405 14.1279 6.47355C14.1279 6.47306 14.1279 6.47256 14.1279 6.47206C14.1279 6.47156 14.1279 6.47106 14.1279 6.47057C14.1279 6.47007 14.1279 6.46957 14.1279 6.46907C14.1279 6.46858 14.1279 6.46808 14.1279 6.46758C14.1279 6.46708 14.1279 6.46659 14.1279 6.46609C14.1279 6.46559 14.1279 6.4651 14.1279 6.4646C14.1279 6.4641 14.1279 6.46361 14.1279 6.46311C14.1279 6.46261 14.1279 6.46211 14.1279 6.46162C14.1279 6.46112 14.1279 6.46063 14.1279 6.46013C14.1279 6.45963 14.1279 6.45914 14.1279 6.45864C14.1279 6.45814 14.1279 6.45765 14.1279 6.45715C14.1279 6.45665 14.1279 6.45616 14.1279 6.45566C14.1279 6.45517 14.1279 6.45467 14.1279 6.45417C14.1279 6.45368 14.1279 6.45318 14.1279 6.45269C14.1279 6.45219 14.1279 6.45169 14.1279 6.4512C14.1279 6.4507 14.1279 6.45021 14.1279 6.44971C14.1279 6.44922 14.1279 6.44872 14.1279 6.44823C14.1279 6.44773 14.1279 6.44724 14.1279 6.44674C14.1279 6.44625 14.1279 6.44575 14.1279 6.44526C14.1279 6.44476 14.1279 6.44427 14.1279 6.44377C14.1279 6.44328 14.1279 6.44278 14.1279 6.44229C14.1279 6.44179 14.1279 6.4413 14.1279 6.4408C14.1279 6.44031 14.1279 6.43981 14.1279 6.43932C14.1279 6.43882 14.1279 6.43833 14.1279 6.43784C14.1279 6.43734 14.1279 6.43685 14.1279 6.43635C14.1279 6.43586 14.1279 6.43537 14.1279 6.43487C14.1279 6.43438 14.1279 6.43388 14.1279 6.43339C14.1279 6.4329 14.1279 6.4324 14.1279 6.43191C14.1279 6.43142 14.1279 6.43092 14.1279 6.43043C14.1279 6.42993 14.1279 6.42944 14.1279 6.42895C14.1279 6.42845 14.1279 6.42796 14.1279 6.42747C14.1279 6.42698 14.1279 6.42648 14.1279 6.42599C14.1279 6.4255 14.1279 6.425 14.1279 6.42451C14.1279 6.42402 14.1279 6.42352 14.1279 6.42303C14.1279 6.42254 14.1279 6.42205 14.1279 6.42155C14.1279 6.42106 14.1279 6.42057 14.1279 6.42008C14.1279 6.41958 14.1279 6.41909 14.1279 6.4186C14.1279 6.41811 14.1279 6.41762 14.1279 6.41712C14.1279 6.41663 14.1279 6.41614 14.1279 6.41565C14.1279 6.41516 14.1279 6.41466 14.1279 6.41417C14.1279 6.41368 14.1279 6.41319 14.1279 6.4127C14.1279 6.4122 14.1279 6.41171 14.1279 6.41122C14.1279 6.41073 14.1279 6.41024 14.1279 6.40975C14.1279 6.40926 14.1279 6.40876 14.1279 6.40827C14.1279 6.40778 14.1279 6.40729 14.1279 6.4068C14.1279 6.40631 14.1279 6.40582 14.1279 6.40533C14.1279 6.40484 14.1279 6.40435 14.1279 6.40386C14.1279 6.40336 14.1279 6.40287 14.1279 6.40238C14.1279 6.40189 14.1279 6.4014 14.1279 6.40091C14.1279 6.40042 14.1279 6.39993 14.1279 6.39944C14.1279 6.39895 14.1279 6.39846 14.1279 6.39797C14.1279 6.39748 14.1279 6.39699 14.1279 6.3965C14.1279 6.39601 14.1279 6.39552 14.1279 6.39503C14.1279 6.39454 14.1279 6.39405 14.1279 6.39356C14.1279 6.39307 14.1279 6.39258 14.1279 6.39209C14.1279 6.3916 14.1279 6.39111 14.1279 6.39062C14.1279 6.39013 14.1279 6.38965 14.1279 6.38916C14.1279 6.38867 14.1279 6.38818 14.1279 6.38769C14.1279 6.3872 14.1279 6.38671 14.1279 6.38622C14.1279 6.38573 14.1279 6.38524 14.1279 6.38476C14.1279 6.38427 14.1279 6.38378 14.1279 6.38329C14.1279 6.3828 14.1279 6.38231 14.1279 6.38182C14.1279 6.38134 14.1279 6.38085 14.1279 6.38036C14.1279 6.37987 14.1279 6.37938 14.1279 6.37889C14.1279 6.37841 14.1279 6.37792 14.1279 6.37743C14.1279 6.37694 14.1279 6.37645 14.1279 6.37597C14.1279 6.37548 14.1279 6.37499 14.1279 6.3745C14.1279 6.37402 14.1279 6.37353 14.1279 6.37304C14.1279 6.37255 14.1279 6.37207 14.1279 6.37158C14.1279 6.37109 14.1279 6.3706 14.1279 6.37012C14.1279 6.36963 14.1279 6.36914 14.1279 6.36865C14.1279 6.36817 14.1279 6.36768 14.1279 6.36719C14.1279 6.36671 14.1279 6.36622 14.1279 6.36573C14.1279 6.36525 14.1279 6.36476 14.1279 6.36427C14.1279 6.36379 14.1279 6.3633 14.1279 6.36281C14.1279 6.36233 14.1279 6.36184 14.1279 6.36135C14.1279 6.36087 14.1279 6.36038 14.1279 6.3599C14.1279 6.35941 14.1279 6.35892 14.1279 6.35844C14.1279 6.35795 14.1279 6.35747 14.1279 6.35698C14.1279 6.35649 14.1279 6.35601 14.1279 6.35552C14.1279 6.35504 14.1279 6.35455 14.1279 6.35406C14.1279 6.35358 14.1279 6.35309 14.1279 6.35261C14.1279 6.35212 14.1279 6.35164 14.1279 6.35115C14.1279 6.35067 14.1279 6.35018 14.1279 6.3497C14.1279 6.34921 14.1279 6.34873 14.1279 6.34824C14.1279 6.34776 14.1279 6.34727 14.1279 6.34679C14.1279 6.3463 14.1279 6.34582 14.1279 6.34533C14.1279 6.34485 14.1279 6.34436 14.1279 6.34388C14.1279 6.34339 14.1279 6.34291 14.1279 6.34243C14.1279 6.34194 14.1279 6.34146 14.1279 6.34097C14.1279 6.34049 14.1279 6.34 14.1279 6.33952C14.1279 6.33904 14.1279 6.33855 14.1279 6.33807C14.1279 6.33758 14.1279 6.3371 14.1279 6.33662C14.1279 6.33613 14.1279 6.33565 14.1279 6.33517C14.1279 6.33468 14.1279 6.3342 14.1279 6.33372C14.1279 6.33323 14.1279 6.33275 14.1279 6.33227C14.1279 6.33178 14.1279 6.3313 14.1279 6.33082C14.1279 6.33033 14.1279 6.32985 14.1279 6.32937C14.1279 6.32888 14.1279 6.3284 14.1279 6.32792C14.1279 6.32744 14.1279 6.32695 14.1279 6.32647C14.1279 6.32599 14.1279 6.3255 14.1279 6.32502C14.1279 6.32454 14.1279 6.32406 14.1279 6.32358C14.1279 6.32309 14.1279 6.32261 14.1279 6.32213C14.1279 6.32165 14.1279 6.32116 14.1279 6.32068C14.1279 6.3202 14.1279 6.31972 14.1279 6.31924C14.1279 6.31875 14.1279 6.31827 14.1279 6.31779C14.1279 6.31731 14.1279 6.31683 14.1279 6.31634C14.1279 6.31586 14.1279 6.31538 14.1279 6.3149C14.1279 6.31442 14.1279 6.31394 14.1279 6.31346C14.1279 6.31297 14.1279 6.31249 14.1279 6.31201C14.1279 6.31153 14.1279 6.31105 14.1279 6.31057C14.1279 6.31009 14.1279 6.30961 14.1279 6.30913C14.1279 6.30865 14.1279 6.30816 14.1279 6.30768C14.1279 6.3072 14.1279 6.30672 14.1279 6.30624C14.1279 6.30576 14.1279 6.30528 14.1279 6.3048C14.1279 6.30432 14.1279 6.30384 14.1279 6.30336C14.1279 6.30288 14.1279 6.3024 14.1279 6.30192C14.1279 6.30144 14.1279 6.30096 14.1279 6.30048C14.1279 6.3 14.1279 6.29952 14.1279 6.29904C14.1279 6.29856 14.1279 6.29808 14.1279 6.2976C14.1279 6.29712 14.1279 6.29664 14.1279 6.29616C14.1279 6.29568 14.1279 6.2952 14.1279 6.29472C14.1279 6.29424 14.1279 6.29376 14.1279 6.29328C14.1279 6.29281 14.1279 6.29233 14.1279 6.29185C14.1279 6.29137 14.1279 6.29089 14.1279 6.29041C14.1279 6.28993 14.1279 6.28945 14.1279 6.28897C14.1279 6.2885 14.1279 6.28802 14.1279 6.28754C14.1279 6.28706 14.1279 6.28658 14.1279 6.2861C14.1279 6.28562 14.1279 6.28515 14.1279 6.28467C14.1279 6.28419 14.1279 6.28371 14.1279 6.28323C14.1279 6.28275 14.1279 6.28228 14.1279 6.2818C14.1279 6.28132 14.1279 6.28084 14.1279 6.28036C14.1279 6.27989 14.1279 6.27941 14.1279 6.27893C14.1279 6.27845 14.1279 6.27798 14.1279 6.2775C14.1279 6.27702 14.1279 6.27654 14.1279 6.27607C14.1279 6.27559 14.1279 6.27511 14.1279 6.27463C14.1279 6.27416 14.1279 6.27368 14.1279 6.2732C14.1279 6.27272 14.1279 6.27225 14.1279 6.27177C14.1279 6.27129 14.1279 6.27082 14.1279 6.27034C14.1279 6.26986 14.1279 6.26939 14.1279 6.26891C14.1279 6.26843 14.1279 6.26796 14.1279 6.26748C14.1279 6.267 14.1279 6.26653 14.1279 6.26605C14.1279 6.26557 14.1279 6.2651 14.1279 6.26462C14.1279 6.26415 14.1279 6.26367 14.1279 6.26319C14.1279 6.26272 14.1279 6.26224 14.1279 6.26177C14.1279 6.26129 14.1279 6.26081 14.1279 6.26034C14.1279 6.25986 14.1279 6.25939 14.1279 6.25891C14.1279 6.25844 14.1279 6.25796 14.1279 6.25748C14.1279 6.25701 14.1279 6.25653 14.1279 6.25606C14.1279 6.25558 14.1279 6.25511 14.1279 6.25463C14.1279 6.25416 14.1279 6.25368 14.1279 6.25321C14.1279 6.25273 14.1279 6.25226 14.1279 6.25178C14.1279 6.25131 14.1279 6.25083 14.1279 6.25036C14.1279 6.24988 14.1279 6.24941 14.1279 6.24893C14.1279 6.24846 14.1279 6.24799 14.1279 6.24751C14.1279 6.24704 14.1279 6.24656 14.1279 6.24609C14.1279 6.24561 14.1279 6.24514 14.1279 6.24467C14.1279 6.24419 14.1279 6.24372 14.1279 6.24324C14.1279 6.24277 14.1279 6.2423 14.1279 6.24182C14.1279 6.24135 14.1279 6.24087 14.1279 6.2404C14.1279 6.23993 14.1279 6.23945 14.1279 6.23898C14.1279 6.23851 14.1279 6.23803 14.1279 6.23756C14.1279 6.23709 14.1279 6.23661 14.1279 6.23614C14.1279 6.23567 14.1279 6.23519 14.1279 6.23472C14.1279 6.23425 14.1279 6.23377 14.1279 6.2333C14.1279 6.23283 14.1279 6.23236 14.1279 6.23188C14.1279 6.23141 14.1279 6.23094 14.1279 6.23046C14.1279 6.22999 14.1279 6.22952 14.1279 6.22905C14.1279 6.22857 14.1279 6.2281 14.1279 6.22763C14.1279 6.22716 14.1279 6.22669 14.1279 6.22621C14.1279 6.22574 14.1279 6.22527 14.1279 6.2248C14.1279 6.22432 14.1279 6.22385 14.1279 6.22338C14.1279 6.22291 14.1279 6.22244 14.1279 6.22197C14.1279 6.22149 14.1279 6.22102 14.1279 6.22055C14.1279 6.22008 14.1279 6.21961 14.1279 6.21914C14.1279 6.21866 14.1279 6.21819 14.1279 6.21772C14.1279 6.21725 14.1279 6.21678 14.1279 6.21631C14.1279 6.21584 14.1279 6.21537 14.1279 6.2149C14.1279 6.21442 14.1279 6.21395 14.1279 6.21348C14.1279 6.21301 14.1279 6.21254 14.1279 6.21207C14.1279 6.2116 14.1279 6.21113 14.1279 6.21066C14.1279 6.21019 14.1279 6.20972 14.1279 6.20925C14.1279 6.20878 14.1279 6.20831 14.1279 6.20784C14.1279 6.20737 14.1279 6.2069 14.1279 6.20643C14.1279 6.20596 14.1279 6.20549 14.1279 6.20502C14.1279 6.20455 14.1279 6.20408 14.1279 6.20361C14.1279 6.20314 14.1279 6.20267 14.1279 6.2022C14.1279 6.20173 14.1279 6.20126 14.1279 6.20079C14.1279 6.20032 14.1279 6.19985 14.1279 6.19938C14.1279 6.19891 14.1279 6.19844 14.1279 6.19797C14.1279 6.1975 14.1279 6.19703 14.1279 6.19657C14.1279 6.1961 14.1279 6.19563 14.1279 6.19516C14.1279 6.19469 14.1279 6.19422 14.1279 6.19375C14.1279 6.19328 14.1279 6.19281 14.1279 6.19235C14.1279 6.19188 14.1279 6.19141 14.1279 6.19094C14.1279 6.19047 14.1279 6.19 14.1279 6.18954C14.1279 6.18907 14.1279 6.1886 14.1279 6.18813C14.1279 6.18766 14.1279 6.18719 14.1279 6.18673C14.1279 6.18626 14.1279 6.18579 14.1279 6.18532C14.1279 6.18485 14.1279 6.18439 14.1279 6.18392C14.1279 6.18345 14.1279 6.18298 14.1279 6.18252C14.1279 6.18205 14.1279 6.18158 14.1279 6.18111C14.1279 6.18065 14.1279 6.18018 14.1279 6.17971C14.1279 6.17924 14.1279 6.17878 14.1279 6.17831C14.1279 6.17784 14.1279 6.17738 14.1279 6.17691C14.1279 6.17644 14.1279 6.17598 14.1279 6.17551C14.1279 6.17504 14.1279 6.17458 14.1279 6.17411C14.1279 6.17364 14.1279 6.17318 14.1279 6.17271C14.1279 6.17224 14.1279 6.17178 14.1279 6.17131C14.1279 6.17084 14.1279 6.17038 14.1279 6.16991C14.1279 6.16944 14.1279 6.16898 14.1279 6.16851C14.1279 6.16805 14.1279 6.16758 14.1279 6.16711C14.1279 6.16665 14.1279 6.16618 14.1279 6.16572C14.1279 6.16525 14.1279 6.16479 14.1279 6.16432C14.1279 6.16385 14.1279 6.16339 14.1279 6.16292C14.1279 6.16246 14.1279 6.16199 14.1279 6.16153C14.1279 6.16106 14.1279 6.1606 14.1279 6.16013C14.1279 6.15967 14.1279 6.1592 14.1279 6.15874C14.1279 6.15827 14.1279 6.15781 14.1279 6.15734C14.1279 6.15688 14.1279 6.15641 14.1279 6.15595C14.1279 6.15548 14.1279 6.15502 14.1279 6.15455C14.1279 6.15409 14.1279 6.15362 14.1279 6.15316C14.1279 6.1527 14.1279 6.15223 14.1279 6.15177C14.1279 6.1513 14.1279 6.15084 14.1279 6.15037C14.1279 6.14991 14.1279 6.14945 14.1279 6.14898C14.1279 6.14852 14.1279 6.14805 14.1279 6.14759C14.1279 6.14713 14.1279 6.14666 14.1279 6.1462C14.1279 6.14573 14.1279 6.14527 14.1279 6.14481C14.1279 6.14434 14.1279 6.14388 14.1279 6.14342C14.1279 6.14295 14.1279 6.14249 14.1279 6.14203C14.1279 6.14156 14.1279 6.1411 14.1279 6.14064C14.1279 6.14017 14.1279 6.13971 14.1279 6.13925C14.1279 6.13879 14.1279 6.13832 14.1279 6.13786C14.1279 6.1374 14.1279 6.13693 14.1279 6.13647C14.1279 6.13601 14.1279 6.13555 14.1279 6.13508C14.1279 6.13462 14.1279 6.13416 14.1279 6.1337C14.1279 6.13323 14.1279 6.13277 14.1279 6.13231C14.1279 6.13185 14.1279 6.13139 14.1279 6.13092C14.1279 6.13046 14.1279 6.13 14.1279 6.12954C14.1279 6.12908 14.1279 6.12861 14.1279 6.12815C14.1279 6.12769 14.1279 6.12723 14.1279 6.12677C14.1279 6.12631 14.1279 6.12584 14.1279 6.12538C14.1279 6.12492 14.1279 6.12446 14.1279 6.124C14.1279 6.12354 14.1279 6.12308 14.1279 6.12261C14.1279 6.12215 14.1279 6.12169 14.1279 6.12123C14.1279 6.12077 14.1279 6.12031 14.1279 6.11985C14.1279 6.11939 14.1279 6.11893 14.1279 6.11847C14.1279 6.11801 14.1279 6.11755 14.1279 6.11708C14.1279 6.11662 14.1279 6.11616 14.1279 6.1157C14.1279 6.11524 14.1279 6.11478 14.1279 6.11432C14.1279 6.11386 14.1279 6.1134 14.1279 6.11294C14.1279 6.11248 14.1279 6.11202 14.1279 6.11156C14.1279 6.1111 14.1279 6.11064 14.1279 6.11018C14.1279 6.10972 14.1279 6.10926 14.1279 6.1088C14.1279 6.10834 14.1279 6.10788 14.1279 6.10742C14.1279 6.10696 14.1279 6.1065 14.1279 6.10604C14.1279 6.10559 14.1279 6.10513 14.1279 6.10467C14.1279 6.10421 14.1279 6.10375 14.1279 6.10329C14.1279 6.10283 14.1279 6.10237 14.1279 6.10191C14.1279 6.10145 14.1279 6.10099 14.1279 6.10054C14.1279 6.10008 14.1279 6.09962 14.1279 6.09916C14.1279 6.0987 14.1279 6.09824 14.1279 6.09778C14.1279 6.09732 14.1279 6.09687 14.1279 6.09641C14.1279 6.09595 14.1279 6.09549 14.1279 6.09503C14.1279 6.09457 14.1279 6.09412 14.1279 6.09366C14.1279 6.0932 14.1279 6.09274 14.1279 6.09228C14.1279 6.09183 14.1279 6.09137 14.1279 6.09091C14.1279 6.09045 14.1279 6.09 14.1279 6.08954C14.1279 6.08908 14.1279 6.08862 14.1279 6.08817C14.1279 6.08771 14.1279 6.08725 14.1279 6.08679C14.1279 6.08634 14.1279 6.08588 14.1279 6.08542C14.1279 6.08496 14.1279 6.08451 14.1279 6.08405C14.1279 6.08359 14.1279 6.08314 14.1279 6.08268C14.1279 6.08222 14.1279 6.08177 14.1279 6.08131C14.1279 6.08085 14.1279 6.0804 14.1279 6.07994C14.1279 6.07948 14.1279 6.07903 14.1279 6.07857C14.1279 6.07811 14.1279 6.07766 14.1279 6.0772C14.1279 6.07674 14.1279 6.07629 14.1279 6.07583C14.1279 6.07538 14.1279 6.07492 14.1279 6.07446C14.1279 6.07401 14.1279 6.07355 14.1279 6.07309C14.1279 6.07264 14.1279 6.07218 14.1279 6.07173C14.1279 6.07127 14.1279 6.07082 14.1279 6.07036C14.1279 6.06991 14.1279 6.06945 14.1279 6.06899C14.1279 6.06854 14.1279 6.06808 14.1279 6.06763C14.1279 6.06717 14.1279 6.06672 14.1279 6.06626C14.1279 6.06581 14.1279 6.06535 14.1279 6.0649C14.1279 6.06444 14.1279 6.06399 14.1279 6.06353C14.1279 6.06308 14.1279 6.06262 14.1279 6.06217C14.1279 6.06171 14.1279 6.06126 14.1279 6.0608C14.1279 6.06035 14.1279 6.0599 14.1279 6.05944C14.1279 6.05899 14.1279 6.05853 14.1279 6.05808C14.1279 6.05762 14.1279 6.05717 14.1279 6.05672C14.1279 6.05626 14.1279 6.05581 14.1279 6.05535C14.1279 6.0549 14.1279 6.05445 14.1279 6.05399C14.1279 6.05354 14.1279 6.05308 14.1279 6.05263C14.1279 6.05218 14.1279 6.05172 14.1279 6.05127C14.1279 6.05082 14.1279 6.05036 14.1279 6.04991C14.1279 6.04946 14.1279 6.049 14.1279 6.04855C14.1279 6.0481 14.1279 6.04764 14.1279 6.04719C14.1279 6.04674 14.1279 6.04628 14.1279 6.04583C14.1279 6.04538 14.1279 6.04493 14.1279 6.04447C14.1279 6.04402 14.1279 6.04357 14.1279 6.04311C14.1279 6.04266 14.1279 6.04221 14.1279 6.04176C14.1279 6.0413 14.1279 6.04085 14.1279 6.0404C14.1279 6.03995 14.1279 6.03949 14.1279 6.03904C14.1279 6.03859 14.1279 6.03814 14.1279 6.03769C14.1279 6.03723 14.1279 6.03678 14.1279 6.03633C14.1279 6.03588 14.1279 6.03543 14.1279 6.03497C14.1279 6.03452 14.1279 6.03407 14.1279 6.03362C14.1279 6.03317 14.1279 6.03272 14.1279 6.03226C14.1279 6.03181 14.1279 6.03136 14.1279 6.03091C14.1279 6.03046 14.1279 6.03001 14.1279 6.02956C14.1279 6.02911 14.1279 6.02865 14.1279 6.0282C14.1279 6.02775 14.1279 6.0273 14.1279 6.02685C14.1279 6.0264 14.1279 6.02595 14.1279 6.0255C14.1279 6.02505 14.1279 6.0246 14.1279 6.02415C14.1279 6.0237 14.1279 6.02325 14.1279 6.02279C14.1279 6.02234 14.1279 6.02189 14.1279 6.02144C14.1279 6.02099 14.1279 6.02054 14.1279 6.02009C14.1279 6.01964 14.1279 6.01919 14.1279 6.01874C14.1279 6.01829 14.1279 6.01784 14.1279 6.01739C14.1279 6.01694 14.1279 6.01649 14.1279 6.01604C14.1279 6.01559 14.1279 6.01514 14.1279 6.01469C14.1279 6.01425 14.1279 6.0138 14.1279 6.01335C14.1279 6.0129 14.1279 6.01245 14.1279 6.012C14.1279 6.01155 14.1279 6.0111 14.1279 6.01065C14.1279 6.0102 14.1279 6.00975 14.1279 6.0093C14.1279 6.00885 14.1279 6.00841 14.1279 6.00796C14.1279 6.00751 14.1279 6.00706 14.1279 6.00661C14.1279 6.00616 14.1279 6.00571 14.1279 6.00526C14.1279 6.00482 14.1279 6.00437 14.1279 6.00392C14.1279 6.00347 14.1279 6.00302 14.1279 6.00257C14.1279 6.00213 14.1279 6.00168 14.1279 6.00123C14.1279 6.00078 14.1279 6.00033 14.1279 5.99989C14.1279 5.99944 14.1279 5.99899 14.1279 5.99854C14.1279 5.99809 14.1279 5.99765 14.1279 5.9972C14.1279 5.99675 14.1279 5.9963 14.1279 5.99586C14.1279 5.99541 14.1279 5.99496 14.1279 5.99451C14.1279 5.99407 14.1279 5.99362 14.1279 5.99317C14.1279 5.99272 14.1279 5.99228 14.1279 5.99183C14.1279 5.99138 14.1279 5.99094 14.1279 5.99049C14.1279 5.99004 14.1279 5.98959 14.1279 5.98915C14.1279 5.9887 14.1279 5.98825 14.1279 5.98781C14.1279 5.98736 14.1279 5.98691 14.1279 5.98647C14.1279 5.98602 14.1279 5.98557 14.1279 5.98513C14.1279 5.98468 14.1279 5.98424 14.1279 5.98379C14.1279 5.98334 14.1279 5.9829 14.1279 5.98245C14.1279 5.98201 14.1279 5.98156 14.1279 5.98111C14.1279 5.98067 14.1279 5.98022 14.1279 5.97978C14.1279 5.97933 14.1279 5.97888 14.1279 5.97844C14.1279 5.97799 14.1279 5.97755 14.1279 5.9771C14.1279 5.97666 14.1279 5.97621 14.1279 5.97577C14.1279 5.97532 14.1279 5.97487 14.1279 5.97443C14.1279 5.97398 14.1279 5.97354 14.1279 5.97309C14.1279 5.97265 14.1279 5.9722 14.1279 5.97176C14.1279 5.97131 14.1279 5.97087 14.1279 5.97042C14.1279 5.96998 14.1279 5.96954 14.1279 5.96909C14.1279 5.96865 14.1279 5.9682 14.1279 5.96776C14.1279 5.96731 14.1279 5.96687 14.1279 5.96642C14.1279 5.96598 14.1279 5.96553 14.1279 5.96509C14.1279 5.96465 14.1279 5.9642 14.1279 5.96376C14.1279 5.96331 14.1279 5.96287 14.1279 5.96243C14.1279 5.96198 14.1279 5.96154 14.1279 5.9611C14.1279 5.96065 14.1279 5.96021 14.1279 5.95976C14.1279 5.95932 14.1279 5.95888 14.1279 5.95843C14.1279 5.95799 14.1279 5.95755 14.1279 5.9571C14.1279 5.95666 14.1279 5.95622 14.1279 5.95577C14.1279 5.95533 14.1279 5.95489 14.1279 5.95444C14.1279 5.954 14.1279 5.95356 14.1279 5.95312C14.1279 5.95267 14.1279 5.95223 14.1279 5.95179C14.1279 5.95134 14.1279 5.9509 14.1279 5.95046C14.1279 5.95002 14.1279 5.94957 14.1279 5.94913C14.1279 5.94869 14.1279 5.94825 14.1279 5.9478C14.1279 5.94736 14.1279 5.94692 14.1279 5.94648C14.1279 5.94604 14.1279 5.94559 14.1279 5.94515C14.1279 5.94471 14.1279 5.94427 14.1279 5.94383C14.1279 5.94338 14.1279 5.94294 14.1279 5.9425C14.1279 5.94206 14.1279 5.94162 14.1279 5.94117C14.1279 5.94073 14.1279 5.94029 14.1279 5.93985C14.1279 5.93941 14.1279 5.93897 14.1279 5.93853C14.1279 5.93808 14.1279 5.93764 14.1279 5.9372C14.1279 5.93676 14.1279 5.93632 14.1279 5.93588C14.1279 5.93544 14.1279 5.935 14.1279 5.93456C14.1279 5.93412 14.1279 5.93367 14.1279 5.93323C14.1279 5.93279 14.1279 5.93235 14.1279 5.93191C14.1279 5.93147 14.1279 5.93103 14.1279 5.93059C14.1279 5.93015 14.1279 5.92971 14.1279 5.92927C14.1279 5.92883 14.1279 5.92839 14.1279 5.92795C14.1279 5.92751 14.1279 5.92707 14.1279 5.92663C14.1279 5.92619 14.1279 5.92575 14.1279 5.92531C14.1279 5.92487 14.1279 5.92443 14.1279 5.92399C14.1279 5.92355 14.1279 5.92311 14.1279 5.92267C14.1279 5.92223 14.1279 5.92179 14.1279 5.92135C14.1279 5.92091 14.1279 5.92047 14.1279 5.92003C14.1279 5.9196 14.1279 5.91916 14.1279 5.91872C14.1279 5.91828 14.1279 5.91784 14.1279 5.9174C14.1279 5.91696 14.1279 5.91652 14.1279 5.91608C14.1279 5.91564 14.1279 5.91521 14.1279 5.91477C14.1279 5.91433 14.1279 5.91389 14.1279 5.91345C14.1279 5.91301 14.1279 5.91257 14.1279 5.91214C14.1279 5.9117 14.1279 5.91126 14.1279 5.91082C14.1279 5.91038 14.1279 5.90994 14.1279 5.90951C14.1279 5.90907 14.1279 5.90863 14.1279 5.90819C14.1279 5.90775 14.1279 5.90732 14.1279 5.90688C14.1279 5.90644 14.1279 5.906 14.1279 5.90556C14.1279 5.90513 14.1279 5.90469 14.1279 5.90425C14.1279 5.90381 14.1279 5.90338 14.1279 5.90294C14.1279 5.9025 14.1279 5.90206 14.1279 5.90163C14.1279 5.90119 14.1279 5.90075 14.1279 5.90032C14.1279 5.89988 14.1279 5.89944 14.1279 5.899C14.1279 5.89857 14.1279 5.89813 14.1279 5.89769C14.1279 5.89726 14.1279 5.89682 14.1279 5.89638C14.1279 5.89595 14.1279 5.89551 14.1279 5.89507C14.1279 5.89464 14.1279 5.8942 14.1279 5.89376C14.1279 5.89333 14.1279 5.89289 14.1279 5.89246C14.1279 5.89202 14.1279 5.89158 14.1279 5.89115C14.1279 5.89071 14.1279 5.89027 14.1279 5.88984C14.1279 5.8894 14.1279 5.88897 14.1279 5.88853C14.1279 5.8881 14.1279 5.88766 14.1279 5.88722C14.1279 5.88679 14.1279 5.88635 14.1279 5.88592C14.1279 5.88548 14.1279 5.88505 14.1279 5.88461H13.1279C13.1279 5.88505 13.1279 5.88548 13.1279 5.88592C13.1279 5.88635 13.1279 5.88679 13.1279 5.88722C13.1279 5.88766 13.1279 5.8881 13.1279 5.88853C13.1279 5.88897 13.1279 5.8894 13.1279 5.88984C13.1279 5.89027 13.1279 5.89071 13.1279 5.89115C13.1279 5.89158 13.1279 5.89202 13.1279 5.89246C13.1279 5.89289 13.1279 5.89333 13.1279 5.89376C13.1279 5.8942 13.1279 5.89464 13.1279 5.89507C13.1279 5.89551 13.1279 5.89595 13.1279 5.89638C13.1279 5.89682 13.1279 5.89726 13.1279 5.89769C13.1279 5.89813 13.1279 5.89857 13.1279 5.899C13.1279 5.89944 13.1279 5.89988 13.1279 5.90032C13.1279 5.90075 13.1279 5.90119 13.1279 5.90163C13.1279 5.90206 13.1279 5.9025 13.1279 5.90294C13.1279 5.90338 13.1279 5.90381 13.1279 5.90425C13.1279 5.90469 13.1279 5.90513 13.1279 5.90556C13.1279 5.906 13.1279 5.90644 13.1279 5.90688C13.1279 5.90732 13.1279 5.90775 13.1279 5.90819C13.1279 5.90863 13.1279 5.90907 13.1279 5.90951C13.1279 5.90994 13.1279 5.91038 13.1279 5.91082C13.1279 5.91126 13.1279 5.9117 13.1279 5.91214C13.1279 5.91257 13.1279 5.91301 13.1279 5.91345C13.1279 5.91389 13.1279 5.91433 13.1279 5.91477C13.1279 5.91521 13.1279 5.91564 13.1279 5.91608C13.1279 5.91652 13.1279 5.91696 13.1279 5.9174C13.1279 5.91784 13.1279 5.91828 13.1279 5.91872C13.1279 5.91916 13.1279 5.9196 13.1279 5.92003C13.1279 5.92047 13.1279 5.92091 13.1279 5.92135C13.1279 5.92179 13.1279 5.92223 13.1279 5.92267C13.1279 5.92311 13.1279 5.92355 13.1279 5.92399C13.1279 5.92443 13.1279 5.92487 13.1279 5.92531C13.1279 5.92575 13.1279 5.92619 13.1279 5.92663C13.1279 5.92707 13.1279 5.92751 13.1279 5.92795C13.1279 5.92839 13.1279 5.92883 13.1279 5.92927C13.1279 5.92971 13.1279 5.93015 13.1279 5.93059C13.1279 5.93103 13.1279 5.93147 13.1279 5.93191C13.1279 5.93235 13.1279 5.93279 13.1279 5.93323C13.1279 5.93367 13.1279 5.93412 13.1279 5.93456C13.1279 5.935 13.1279 5.93544 13.1279 5.93588C13.1279 5.93632 13.1279 5.93676 13.1279 5.9372C13.1279 5.93764 13.1279 5.93808 13.1279 5.93853C13.1279 5.93897 13.1279 5.93941 13.1279 5.93985C13.1279 5.94029 13.1279 5.94073 13.1279 5.94117C13.1279 5.94162 13.1279 5.94206 13.1279 5.9425C13.1279 5.94294 13.1279 5.94338 13.1279 5.94383C13.1279 5.94427 13.1279 5.94471 13.1279 5.94515C13.1279 5.94559 13.1279 5.94604 13.1279 5.94648C13.1279 5.94692 13.1279 5.94736 13.1279 5.9478C13.1279 5.94825 13.1279 5.94869 13.1279 5.94913C13.1279 5.94957 13.1279 5.95002 13.1279 5.95046C13.1279 5.9509 13.1279 5.95134 13.1279 5.95179C13.1279 5.95223 13.1279 5.95267 13.1279 5.95312C13.1279 5.95356 13.1279 5.954 13.1279 5.95444C13.1279 5.95489 13.1279 5.95533 13.1279 5.95577C13.1279 5.95622 13.1279 5.95666 13.1279 5.9571C13.1279 5.95755 13.1279 5.95799 13.1279 5.95843C13.1279 5.95888 13.1279 5.95932 13.1279 5.95976C13.1279 5.96021 13.1279 5.96065 13.1279 5.9611C13.1279 5.96154 13.1279 5.96198 13.1279 5.96243C13.1279 5.96287 13.1279 5.96331 13.1279 5.96376C13.1279 5.9642 13.1279 5.96465 13.1279 5.96509C13.1279 5.96553 13.1279 5.96598 13.1279 5.96642C13.1279 5.96687 13.1279 5.96731 13.1279 5.96776C13.1279 5.9682 13.1279 5.96865 13.1279 5.96909C13.1279 5.96954 13.1279 5.96998 13.1279 5.97042C13.1279 5.97087 13.1279 5.97131 13.1279 5.97176C13.1279 5.9722 13.1279 5.97265 13.1279 5.97309C13.1279 5.97354 13.1279 5.97398 13.1279 5.97443C13.1279 5.97487 13.1279 5.97532 13.1279 5.97577C13.1279 5.97621 13.1279 5.97666 13.1279 5.9771C13.1279 5.97755 13.1279 5.97799 13.1279 5.97844C13.1279 5.97888 13.1279 5.97933 13.1279 5.97978C13.1279 5.98022 13.1279 5.98067 13.1279 5.98111C13.1279 5.98156 13.1279 5.98201 13.1279 5.98245C13.1279 5.9829 13.1279 5.98334 13.1279 5.98379C13.1279 5.98424 13.1279 5.98468 13.1279 5.98513C13.1279 5.98557 13.1279 5.98602 13.1279 5.98647C13.1279 5.98691 13.1279 5.98736 13.1279 5.98781C13.1279 5.98825 13.1279 5.9887 13.1279 5.98915C13.1279 5.98959 13.1279 5.99004 13.1279 5.99049C13.1279 5.99094 13.1279 5.99138 13.1279 5.99183C13.1279 5.99228 13.1279 5.99272 13.1279 5.99317C13.1279 5.99362 13.1279 5.99407 13.1279 5.99451C13.1279 5.99496 13.1279 5.99541 13.1279 5.99586C13.1279 5.9963 13.1279 5.99675 13.1279 5.9972C13.1279 5.99765 13.1279 5.99809 13.1279 5.99854C13.1279 5.99899 13.1279 5.99944 13.1279 5.99989C13.1279 6.00033 13.1279 6.00078 13.1279 6.00123C13.1279 6.00168 13.1279 6.00213 13.1279 6.00257C13.1279 6.00302 13.1279 6.00347 13.1279 6.00392C13.1279 6.00437 13.1279 6.00482 13.1279 6.00526C13.1279 6.00571 13.1279 6.00616 13.1279 6.00661C13.1279 6.00706 13.1279 6.00751 13.1279 6.00796C13.1279 6.00841 13.1279 6.00885 13.1279 6.0093C13.1279 6.00975 13.1279 6.0102 13.1279 6.01065C13.1279 6.0111 13.1279 6.01155 13.1279 6.012C13.1279 6.01245 13.1279 6.0129 13.1279 6.01335C13.1279 6.0138 13.1279 6.01425 13.1279 6.01469C13.1279 6.01514 13.1279 6.01559 13.1279 6.01604C13.1279 6.01649 13.1279 6.01694 13.1279 6.01739C13.1279 6.01784 13.1279 6.01829 13.1279 6.01874C13.1279 6.01919 13.1279 6.01964 13.1279 6.02009C13.1279 6.02054 13.1279 6.02099 13.1279 6.02144C13.1279 6.02189 13.1279 6.02234 13.1279 6.02279C13.1279 6.02325 13.1279 6.0237 13.1279 6.02415C13.1279 6.0246 13.1279 6.02505 13.1279 6.0255C13.1279 6.02595 13.1279 6.0264 13.1279 6.02685C13.1279 6.0273 13.1279 6.02775 13.1279 6.0282C13.1279 6.02865 13.1279 6.02911 13.1279 6.02956C13.1279 6.03001 13.1279 6.03046 13.1279 6.03091C13.1279 6.03136 13.1279 6.03181 13.1279 6.03226C13.1279 6.03272 13.1279 6.03317 13.1279 6.03362C13.1279 6.03407 13.1279 6.03452 13.1279 6.03497C13.1279 6.03543 13.1279 6.03588 13.1279 6.03633C13.1279 6.03678 13.1279 6.03723 13.1279 6.03769C13.1279 6.03814 13.1279 6.03859 13.1279 6.03904C13.1279 6.03949 13.1279 6.03995 13.1279 6.0404C13.1279 6.04085 13.1279 6.0413 13.1279 6.04176C13.1279 6.04221 13.1279 6.04266 13.1279 6.04311C13.1279 6.04357 13.1279 6.04402 13.1279 6.04447C13.1279 6.04493 13.1279 6.04538 13.1279 6.04583C13.1279 6.04628 13.1279 6.04674 13.1279 6.04719C13.1279 6.04764 13.1279 6.0481 13.1279 6.04855C13.1279 6.049 13.1279 6.04946 13.1279 6.04991C13.1279 6.05036 13.1279 6.05082 13.1279 6.05127C13.1279 6.05172 13.1279 6.05218 13.1279 6.05263C13.1279 6.05308 13.1279 6.05354 13.1279 6.05399C13.1279 6.05445 13.1279 6.0549 13.1279 6.05535C13.1279 6.05581 13.1279 6.05626 13.1279 6.05672C13.1279 6.05717 13.1279 6.05762 13.1279 6.05808C13.1279 6.05853 13.1279 6.05899 13.1279 6.05944C13.1279 6.0599 13.1279 6.06035 13.1279 6.0608C13.1279 6.06126 13.1279 6.06171 13.1279 6.06217C13.1279 6.06262 13.1279 6.06308 13.1279 6.06353C13.1279 6.06399 13.1279 6.06444 13.1279 6.0649C13.1279 6.06535 13.1279 6.06581 13.1279 6.06626C13.1279 6.06672 13.1279 6.06717 13.1279 6.06763C13.1279 6.06808 13.1279 6.06854 13.1279 6.06899C13.1279 6.06945 13.1279 6.06991 13.1279 6.07036C13.1279 6.07082 13.1279 6.07127 13.1279 6.07173C13.1279 6.07218 13.1279 6.07264 13.1279 6.07309C13.1279 6.07355 13.1279 6.07401 13.1279 6.07446C13.1279 6.07492 13.1279 6.07538 13.1279 6.07583C13.1279 6.07629 13.1279 6.07674 13.1279 6.0772C13.1279 6.07766 13.1279 6.07811 13.1279 6.07857C13.1279 6.07903 13.1279 6.07948 13.1279 6.07994C13.1279 6.0804 13.1279 6.08085 13.1279 6.08131C13.1279 6.08177 13.1279 6.08222 13.1279 6.08268C13.1279 6.08314 13.1279 6.08359 13.1279 6.08405C13.1279 6.08451 13.1279 6.08496 13.1279 6.08542C13.1279 6.08588 13.1279 6.08634 13.1279 6.08679C13.1279 6.08725 13.1279 6.08771 13.1279 6.08817C13.1279 6.08862 13.1279 6.08908 13.1279 6.08954C13.1279 6.09 13.1279 6.09045 13.1279 6.09091C13.1279 6.09137 13.1279 6.09183 13.1279 6.09228C13.1279 6.09274 13.1279 6.0932 13.1279 6.09366C13.1279 6.09412 13.1279 6.09457 13.1279 6.09503C13.1279 6.09549 13.1279 6.09595 13.1279 6.09641C13.1279 6.09687 13.1279 6.09732 13.1279 6.09778C13.1279 6.09824 13.1279 6.0987 13.1279 6.09916C13.1279 6.09962 13.1279 6.10008 13.1279 6.10054C13.1279 6.10099 13.1279 6.10145 13.1279 6.10191C13.1279 6.10237 13.1279 6.10283 13.1279 6.10329C13.1279 6.10375 13.1279 6.10421 13.1279 6.10467C13.1279 6.10513 13.1279 6.10559 13.1279 6.10604C13.1279 6.1065 13.1279 6.10696 13.1279 6.10742C13.1279 6.10788 13.1279 6.10834 13.1279 6.1088C13.1279 6.10926 13.1279 6.10972 13.1279 6.11018C13.1279 6.11064 13.1279 6.1111 13.1279 6.11156C13.1279 6.11202 13.1279 6.11248 13.1279 6.11294C13.1279 6.1134 13.1279 6.11386 13.1279 6.11432C13.1279 6.11478 13.1279 6.11524 13.1279 6.1157C13.1279 6.11616 13.1279 6.11662 13.1279 6.11708C13.1279 6.11755 13.1279 6.11801 13.1279 6.11847C13.1279 6.11893 13.1279 6.11939 13.1279 6.11985C13.1279 6.12031 13.1279 6.12077 13.1279 6.12123C13.1279 6.12169 13.1279 6.12215 13.1279 6.12261C13.1279 6.12308 13.1279 6.12354 13.1279 6.124C13.1279 6.12446 13.1279 6.12492 13.1279 6.12538C13.1279 6.12584 13.1279 6.12631 13.1279 6.12677C13.1279 6.12723 13.1279 6.12769 13.1279 6.12815C13.1279 6.12861 13.1279 6.12908 13.1279 6.12954C13.1279 6.13 13.1279 6.13046 13.1279 6.13092C13.1279 6.13139 13.1279 6.13185 13.1279 6.13231C13.1279 6.13277 13.1279 6.13323 13.1279 6.1337C13.1279 6.13416 13.1279 6.13462 13.1279 6.13508C13.1279 6.13555 13.1279 6.13601 13.1279 6.13647C13.1279 6.13693 13.1279 6.1374 13.1279 6.13786C13.1279 6.13832 13.1279 6.13879 13.1279 6.13925C13.1279 6.13971 13.1279 6.14017 13.1279 6.14064C13.1279 6.1411 13.1279 6.14156 13.1279 6.14203C13.1279 6.14249 13.1279 6.14295 13.1279 6.14342C13.1279 6.14388 13.1279 6.14434 13.1279 6.14481C13.1279 6.14527 13.1279 6.14573 13.1279 6.1462C13.1279 6.14666 13.1279 6.14713 13.1279 6.14759C13.1279 6.14805 13.1279 6.14852 13.1279 6.14898C13.1279 6.14945 13.1279 6.14991 13.1279 6.15037C13.1279 6.15084 13.1279 6.1513 13.1279 6.15177C13.1279 6.15223 13.1279 6.1527 13.1279 6.15316C13.1279 6.15362 13.1279 6.15409 13.1279 6.15455C13.1279 6.15502 13.1279 6.15548 13.1279 6.15595C13.1279 6.15641 13.1279 6.15688 13.1279 6.15734C13.1279 6.15781 13.1279 6.15827 13.1279 6.15874C13.1279 6.1592 13.1279 6.15967 13.1279 6.16013C13.1279 6.1606 13.1279 6.16106 13.1279 6.16153C13.1279 6.16199 13.1279 6.16246 13.1279 6.16292C13.1279 6.16339 13.1279 6.16385 13.1279 6.16432C13.1279 6.16479 13.1279 6.16525 13.1279 6.16572C13.1279 6.16618 13.1279 6.16665 13.1279 6.16711C13.1279 6.16758 13.1279 6.16805 13.1279 6.16851C13.1279 6.16898 13.1279 6.16944 13.1279 6.16991C13.1279 6.17038 13.1279 6.17084 13.1279 6.17131C13.1279 6.17178 13.1279 6.17224 13.1279 6.17271C13.1279 6.17318 13.1279 6.17364 13.1279 6.17411C13.1279 6.17458 13.1279 6.17504 13.1279 6.17551C13.1279 6.17598 13.1279 6.17644 13.1279 6.17691C13.1279 6.17738 13.1279 6.17784 13.1279 6.17831C13.1279 6.17878 13.1279 6.17924 13.1279 6.17971C13.1279 6.18018 13.1279 6.18065 13.1279 6.18111C13.1279 6.18158 13.1279 6.18205 13.1279 6.18252C13.1279 6.18298 13.1279 6.18345 13.1279 6.18392C13.1279 6.18439 13.1279 6.18485 13.1279 6.18532C13.1279 6.18579 13.1279 6.18626 13.1279 6.18673C13.1279 6.18719 13.1279 6.18766 13.1279 6.18813C13.1279 6.1886 13.1279 6.18907 13.1279 6.18954C13.1279 6.19 13.1279 6.19047 13.1279 6.19094C13.1279 6.19141 13.1279 6.19188 13.1279 6.19235C13.1279 6.19281 13.1279 6.19328 13.1279 6.19375C13.1279 6.19422 13.1279 6.19469 13.1279 6.19516C13.1279 6.19563 13.1279 6.1961 13.1279 6.19657C13.1279 6.19703 13.1279 6.1975 13.1279 6.19797C13.1279 6.19844 13.1279 6.19891 13.1279 6.19938C13.1279 6.19985 13.1279 6.20032 13.1279 6.20079C13.1279 6.20126 13.1279 6.20173 13.1279 6.2022C13.1279 6.20267 13.1279 6.20314 13.1279 6.20361C13.1279 6.20408 13.1279 6.20455 13.1279 6.20502C13.1279 6.20549 13.1279 6.20596 13.1279 6.20643C13.1279 6.2069 13.1279 6.20737 13.1279 6.20784C13.1279 6.20831 13.1279 6.20878 13.1279 6.20925C13.1279 6.20972 13.1279 6.21019 13.1279 6.21066C13.1279 6.21113 13.1279 6.2116 13.1279 6.21207C13.1279 6.21254 13.1279 6.21301 13.1279 6.21348C13.1279 6.21395 13.1279 6.21442 13.1279 6.2149C13.1279 6.21537 13.1279 6.21584 13.1279 6.21631C13.1279 6.21678 13.1279 6.21725 13.1279 6.21772C13.1279 6.21819 13.1279 6.21866 13.1279 6.21914C13.1279 6.21961 13.1279 6.22008 13.1279 6.22055C13.1279 6.22102 13.1279 6.22149 13.1279 6.22197C13.1279 6.22244 13.1279 6.22291 13.1279 6.22338C13.1279 6.22385 13.1279 6.22432 13.1279 6.2248C13.1279 6.22527 13.1279 6.22574 13.1279 6.22621C13.1279 6.22669 13.1279 6.22716 13.1279 6.22763C13.1279 6.2281 13.1279 6.22857 13.1279 6.22905C13.1279 6.22952 13.1279 6.22999 13.1279 6.23046C13.1279 6.23094 13.1279 6.23141 13.1279 6.23188C13.1279 6.23236 13.1279 6.23283 13.1279 6.2333C13.1279 6.23377 13.1279 6.23425 13.1279 6.23472C13.1279 6.23519 13.1279 6.23567 13.1279 6.23614C13.1279 6.23661 13.1279 6.23709 13.1279 6.23756C13.1279 6.23803 13.1279 6.23851 13.1279 6.23898C13.1279 6.23945 13.1279 6.23993 13.1279 6.2404C13.1279 6.24087 13.1279 6.24135 13.1279 6.24182C13.1279 6.2423 13.1279 6.24277 13.1279 6.24324C13.1279 6.24372 13.1279 6.24419 13.1279 6.24467C13.1279 6.24514 13.1279 6.24561 13.1279 6.24609C13.1279 6.24656 13.1279 6.24704 13.1279 6.24751C13.1279 6.24799 13.1279 6.24846 13.1279 6.24893C13.1279 6.24941 13.1279 6.24988 13.1279 6.25036C13.1279 6.25083 13.1279 6.25131 13.1279 6.25178C13.1279 6.25226 13.1279 6.25273 13.1279 6.25321C13.1279 6.25368 13.1279 6.25416 13.1279 6.25463C13.1279 6.25511 13.1279 6.25558 13.1279 6.25606C13.1279 6.25653 13.1279 6.25701 13.1279 6.25748C13.1279 6.25796 13.1279 6.25844 13.1279 6.25891C13.1279 6.25939 13.1279 6.25986 13.1279 6.26034C13.1279 6.26081 13.1279 6.26129 13.1279 6.26177C13.1279 6.26224 13.1279 6.26272 13.1279 6.26319C13.1279 6.26367 13.1279 6.26415 13.1279 6.26462C13.1279 6.2651 13.1279 6.26557 13.1279 6.26605C13.1279 6.26653 13.1279 6.267 13.1279 6.26748C13.1279 6.26796 13.1279 6.26843 13.1279 6.26891C13.1279 6.26939 13.1279 6.26986 13.1279 6.27034C13.1279 6.27082 13.1279 6.27129 13.1279 6.27177C13.1279 6.27225 13.1279 6.27272 13.1279 6.2732C13.1279 6.27368 13.1279 6.27416 13.1279 6.27463C13.1279 6.27511 13.1279 6.27559 13.1279 6.27607C13.1279 6.27654 13.1279 6.27702 13.1279 6.2775C13.1279 6.27798 13.1279 6.27845 13.1279 6.27893C13.1279 6.27941 13.1279 6.27989 13.1279 6.28036C13.1279 6.28084 13.1279 6.28132 13.1279 6.2818C13.1279 6.28228 13.1279 6.28275 13.1279 6.28323C13.1279 6.28371 13.1279 6.28419 13.1279 6.28467C13.1279 6.28515 13.1279 6.28562 13.1279 6.2861C13.1279 6.28658 13.1279 6.28706 13.1279 6.28754C13.1279 6.28802 13.1279 6.2885 13.1279 6.28897C13.1279 6.28945 13.1279 6.28993 13.1279 6.29041C13.1279 6.29089 13.1279 6.29137 13.1279 6.29185C13.1279 6.29233 13.1279 6.29281 13.1279 6.29328C13.1279 6.29376 13.1279 6.29424 13.1279 6.29472C13.1279 6.2952 13.1279 6.29568 13.1279 6.29616C13.1279 6.29664 13.1279 6.29712 13.1279 6.2976C13.1279 6.29808 13.1279 6.29856 13.1279 6.29904C13.1279 6.29952 13.1279 6.3 13.1279 6.30048C13.1279 6.30096 13.1279 6.30144 13.1279 6.30192C13.1279 6.3024 13.1279 6.30288 13.1279 6.30336C13.1279 6.30384 13.1279 6.30432 13.1279 6.3048C13.1279 6.30528 13.1279 6.30576 13.1279 6.30624C13.1279 6.30672 13.1279 6.3072 13.1279 6.30768C13.1279 6.30816 13.1279 6.30865 13.1279 6.30913C13.1279 6.30961 13.1279 6.31009 13.1279 6.31057C13.1279 6.31105 13.1279 6.31153 13.1279 6.31201C13.1279 6.31249 13.1279 6.31297 13.1279 6.31346C13.1279 6.31394 13.1279 6.31442 13.1279 6.3149C13.1279 6.31538 13.1279 6.31586 13.1279 6.31634C13.1279 6.31683 13.1279 6.31731 13.1279 6.31779C13.1279 6.31827 13.1279 6.31875 13.1279 6.31924C13.1279 6.31972 13.1279 6.3202 13.1279 6.32068C13.1279 6.32116 13.1279 6.32165 13.1279 6.32213C13.1279 6.32261 13.1279 6.32309 13.1279 6.32358C13.1279 6.32406 13.1279 6.32454 13.1279 6.32502C13.1279 6.3255 13.1279 6.32599 13.1279 6.32647C13.1279 6.32695 13.1279 6.32744 13.1279 6.32792C13.1279 6.3284 13.1279 6.32888 13.1279 6.32937C13.1279 6.32985 13.1279 6.33033 13.1279 6.33082C13.1279 6.3313 13.1279 6.33178 13.1279 6.33227C13.1279 6.33275 13.1279 6.33323 13.1279 6.33372C13.1279 6.3342 13.1279 6.33468 13.1279 6.33517C13.1279 6.33565 13.1279 6.33613 13.1279 6.33662C13.1279 6.3371 13.1279 6.33758 13.1279 6.33807C13.1279 6.33855 13.1279 6.33904 13.1279 6.33952C13.1279 6.34 13.1279 6.34049 13.1279 6.34097C13.1279 6.34146 13.1279 6.34194 13.1279 6.34243C13.1279 6.34291 13.1279 6.34339 13.1279 6.34388C13.1279 6.34436 13.1279 6.34485 13.1279 6.34533C13.1279 6.34582 13.1279 6.3463 13.1279 6.34679C13.1279 6.34727 13.1279 6.34776 13.1279 6.34824C13.1279 6.34873 13.1279 6.34921 13.1279 6.3497C13.1279 6.35018 13.1279 6.35067 13.1279 6.35115C13.1279 6.35164 13.1279 6.35212 13.1279 6.35261C13.1279 6.35309 13.1279 6.35358 13.1279 6.35406C13.1279 6.35455 13.1279 6.35504 13.1279 6.35552C13.1279 6.35601 13.1279 6.35649 13.1279 6.35698C13.1279 6.35747 13.1279 6.35795 13.1279 6.35844C13.1279 6.35892 13.1279 6.35941 13.1279 6.3599C13.1279 6.36038 13.1279 6.36087 13.1279 6.36135C13.1279 6.36184 13.1279 6.36233 13.1279 6.36281C13.1279 6.3633 13.1279 6.36379 13.1279 6.36427C13.1279 6.36476 13.1279 6.36525 13.1279 6.36573C13.1279 6.36622 13.1279 6.36671 13.1279 6.36719C13.1279 6.36768 13.1279 6.36817 13.1279 6.36865C13.1279 6.36914 13.1279 6.36963 13.1279 6.37012C13.1279 6.3706 13.1279 6.37109 13.1279 6.37158C13.1279 6.37207 13.1279 6.37255 13.1279 6.37304C13.1279 6.37353 13.1279 6.37402 13.1279 6.3745C13.1279 6.37499 13.1279 6.37548 13.1279 6.37597C13.1279 6.37645 13.1279 6.37694 13.1279 6.37743C13.1279 6.37792 13.1279 6.37841 13.1279 6.37889C13.1279 6.37938 13.1279 6.37987 13.1279 6.38036C13.1279 6.38085 13.1279 6.38134 13.1279 6.38182C13.1279 6.38231 13.1279 6.3828 13.1279 6.38329C13.1279 6.38378 13.1279 6.38427 13.1279 6.38476C13.1279 6.38524 13.1279 6.38573 13.1279 6.38622C13.1279 6.38671 13.1279 6.3872 13.1279 6.38769C13.1279 6.38818 13.1279 6.38867 13.1279 6.38916C13.1279 6.38965 13.1279 6.39013 13.1279 6.39062C13.1279 6.39111 13.1279 6.3916 13.1279 6.39209C13.1279 6.39258 13.1279 6.39307 13.1279 6.39356C13.1279 6.39405 13.1279 6.39454 13.1279 6.39503C13.1279 6.39552 13.1279 6.39601 13.1279 6.3965C13.1279 6.39699 13.1279 6.39748 13.1279 6.39797C13.1279 6.39846 13.1279 6.39895 13.1279 6.39944C13.1279 6.39993 13.1279 6.40042 13.1279 6.40091C13.1279 6.4014 13.1279 6.40189 13.1279 6.40238C13.1279 6.40287 13.1279 6.40336 13.1279 6.40386C13.1279 6.40435 13.1279 6.40484 13.1279 6.40533C13.1279 6.40582 13.1279 6.40631 13.1279 6.4068C13.1279 6.40729 13.1279 6.40778 13.1279 6.40827C13.1279 6.40876 13.1279 6.40926 13.1279 6.40975C13.1279 6.41024 13.1279 6.41073 13.1279 6.41122C13.1279 6.41171 13.1279 6.4122 13.1279 6.4127C13.1279 6.41319 13.1279 6.41368 13.1279 6.41417C13.1279 6.41466 13.1279 6.41516 13.1279 6.41565C13.1279 6.41614 13.1279 6.41663 13.1279 6.41712C13.1279 6.41762 13.1279 6.41811 13.1279 6.4186C13.1279 6.41909 13.1279 6.41958 13.1279 6.42008C13.1279 6.42057 13.1279 6.42106 13.1279 6.42155C13.1279 6.42205 13.1279 6.42254 13.1279 6.42303C13.1279 6.42352 13.1279 6.42402 13.1279 6.42451C13.1279 6.425 13.1279 6.4255 13.1279 6.42599C13.1279 6.42648 13.1279 6.42698 13.1279 6.42747C13.1279 6.42796 13.1279 6.42845 13.1279 6.42895C13.1279 6.42944 13.1279 6.42993 13.1279 6.43043C13.1279 6.43092 13.1279 6.43142 13.1279 6.43191C13.1279 6.4324 13.1279 6.4329 13.1279 6.43339C13.1279 6.43388 13.1279 6.43438 13.1279 6.43487C13.1279 6.43537 13.1279 6.43586 13.1279 6.43635C13.1279 6.43685 13.1279 6.43734 13.1279 6.43784C13.1279 6.43833 13.1279 6.43882 13.1279 6.43932C13.1279 6.43981 13.1279 6.44031 13.1279 6.4408C13.1279 6.4413 13.1279 6.44179 13.1279 6.44229C13.1279 6.44278 13.1279 6.44328 13.1279 6.44377C13.1279 6.44427 13.1279 6.44476 13.1279 6.44526C13.1279 6.44575 13.1279 6.44625 13.1279 6.44674C13.1279 6.44724 13.1279 6.44773 13.1279 6.44823C13.1279 6.44872 13.1279 6.44922 13.1279 6.44971C13.1279 6.45021 13.1279 6.4507 13.1279 6.4512C13.1279 6.45169 13.1279 6.45219 13.1279 6.45269C13.1279 6.45318 13.1279 6.45368 13.1279 6.45417C13.1279 6.45467 13.1279 6.45517 13.1279 6.45566C13.1279 6.45616 13.1279 6.45665 13.1279 6.45715C13.1279 6.45765 13.1279 6.45814 13.1279 6.45864C13.1279 6.45914 13.1279 6.45963 13.1279 6.46013C13.1279 6.46063 13.1279 6.46112 13.1279 6.46162C13.1279 6.46211 13.1279 6.46261 13.1279 6.46311C13.1279 6.46361 13.1279 6.4641 13.1279 6.4646C13.1279 6.4651 13.1279 6.46559 13.1279 6.46609C13.1279 6.46659 13.1279 6.46708 13.1279 6.46758C13.1279 6.46808 13.1279 6.46858 13.1279 6.46907C13.1279 6.46957 13.1279 6.47007 13.1279 6.47057C13.1279 6.47106 13.1279 6.47156 13.1279 6.47206C13.1279 6.47256 13.1279 6.47306 13.1279 6.47355C13.1279 6.47405 13.1279 6.47455 13.1279 6.47505C13.1279 6.47555 13.1279 6.47604 13.1279 6.47654C13.1279 6.47704 13.1279 6.47754 13.1279 6.47804C13.1279 6.47854 13.1279 6.47903 13.1279 6.47953C13.1279 6.48003 13.1279 6.48053 13.1279 6.48103C13.1279 6.48153 13.1279 6.48203 13.1279 6.48252C13.1279 6.48302 13.1279 6.48352 13.1279 6.48402C13.1279 6.48452 13.1279 6.48502 13.1279 6.48552C13.1279 6.48602 13.1279 6.48652 13.1279 6.48702C13.1279 6.48751 13.1279 6.48801 13.1279 6.48851C13.1279 6.48901 13.1279 6.48951 13.1279 6.49001C13.1279 6.49051 13.1279 6.49101 13.1279 6.49151C13.1279 6.49201 13.1279 6.49251 13.1279 6.49301C13.1279 6.49351 13.1279 6.49401 13.1279 6.49451C13.1279 6.49501 13.1279 6.49551 13.1279 6.49601C13.1279 6.49651 13.1279 6.49701 13.1279 6.49751C13.1279 6.49801 13.1279 6.49851 13.1279 6.49901C13.1279 6.49951 13.1279 6.50001 13.1279 6.50051C13.1279 6.50102 13.1279 6.50152 13.1279 6.50202C13.1279 6.50252 13.1279 6.50302 13.1279 6.50352C13.1279 6.50402 13.1279 6.50452 13.1279 6.50502C13.1279 6.50552 13.1279 6.50603 13.1279 6.50653C13.1279 6.50703 13.1279 6.50753 13.1279 6.50803C13.1279 6.50853 13.1279 6.50903 13.1279 6.50954C13.1279 6.51004 13.1279 6.51054 13.1279 6.51104C13.1279 6.51154 13.1279 6.51204 13.1279 6.51255C13.1279 6.51305 13.1279 6.51355 13.1279 6.51405C13.1279 6.51455 13.1279 6.51506 13.1279 6.51556C13.1279 6.51606 13.1279 6.51656 13.1279 6.51707C13.1279 6.51757 13.1279 6.51807 13.1279 6.51857C13.1279 6.51907 13.1279 6.51958 13.1279 6.52008C13.1279 6.52058 13.1279 6.52109 13.1279 6.52159C13.1279 6.52209 13.1279 6.52259 13.1279 6.5231C13.1279 6.5236 13.1279 6.5241 13.1279 6.52461C13.1279 6.52511 13.1279 6.52561 13.1279 6.52612C13.1279 6.52662 13.1279 6.52712 13.1279 6.52763C13.1279 6.52813 13.1279 6.52863 13.1279 6.52914C13.1279 6.52964 13.1279 6.53014 13.1279 6.53065C13.1279 6.53115 13.1279 6.53166 13.1279 6.53216C13.1279 6.53266 13.1279 6.53317 13.1279 6.53367C13.1279 6.53418 13.1279 6.53468 13.1279 6.53518C13.1279 6.53569 13.1279 6.53619 13.1279 6.5367C13.1279 6.5372 13.1279 6.53771 13.1279 6.53821C13.1279 6.53871 13.1279 6.53922 13.1279 6.53972C13.1279 6.54023 13.1279 6.54073 13.1279 6.54124C13.1279 6.54174 13.1279 6.54225 13.1279 6.54275C13.1279 6.54326 13.1279 6.54376 13.1279 6.54427C13.1279 6.54477 13.1279 6.54528 13.1279 6.54578C13.1279 6.54629 13.1279 6.54679 13.1279 6.5473C13.1279 6.54781 13.1279 6.54831 13.1279 6.54882C13.1279 6.54932 13.1279 6.54983 13.1279 6.55033C13.1279 6.55084 13.1279 6.55134 13.1279 6.55185C13.1279 6.55236 13.1279 6.55286 13.1279 6.55337C13.1279 6.55387 13.1279 6.55438 13.1279 6.55489C13.1279 6.55539 13.1279 6.5559 13.1279 6.55641C13.1279 6.55691 13.1279 6.55742 13.1279 6.55793C13.1279 6.55843 13.1279 6.55894 13.1279 6.55945C13.1279 6.55995 13.1279 6.56046 13.1279 6.56097C13.1279 6.56147 13.1279 6.56198 13.1279 6.56249C13.1279 6.56299 13.1279 6.5635 13.1279 6.56401C13.1279 6.56452 13.1279 6.56502 13.1279 6.56553C13.1279 6.56604 13.1279 6.56654 13.1279 6.56705C13.1279 6.56756 13.1279 6.56807 13.1279 6.56857C13.1279 6.56908 13.1279 6.56959 13.1279 6.5701C13.1279 6.57061 13.1279 6.57111 13.1279 6.57162C13.1279 6.57213 13.1279 6.57264 13.1279 6.57314C13.1279 6.57365 13.1279 6.57416 13.1279 6.57467C13.1279 6.57518 13.1279 6.57569 13.1279 6.57619C13.1279 6.5767 13.1279 6.57721 13.1279 6.57772C13.1279 6.57823 13.1279 6.57874 13.1279 6.57925C13.1279 6.57975 13.1279 6.58026 13.1279 6.58077C13.1279 6.58128 13.1279 6.58179 13.1279 6.5823C13.1279 6.58281 13.1279 6.58332 13.1279 6.58383C13.1279 6.58434 13.1279 6.58484 13.1279 6.58535C13.1279 6.58586 13.1279 6.58637 13.1279 6.58688C13.1279 6.58739 13.1279 6.5879 13.1279 6.58841C13.1279 6.58892 13.1279 6.58943 13.1279 6.58994C13.1279 6.59045 13.1279 6.59096 13.1279 6.59147C13.1279 6.59198 13.1279 6.59249 13.1279 6.593C13.1279 6.59351 13.1279 6.59402 13.1279 6.59453C13.1279 6.59504 13.1279 6.59555 13.1279 6.59606C13.1279 6.59657 13.1279 6.59708 13.1279 6.59759C13.1279 6.5981 13.1279 6.59861 13.1279 6.59912C13.1279 6.59964 13.1279 6.60015 13.1279 6.60066C13.1279 6.60117 13.1279 6.60168 13.1279 6.60219C13.1279 6.6027 13.1279 6.60321 13.1279 6.60372C13.1279 6.60423 13.1279 6.60475 13.1279 6.60526C13.1279 6.60577 13.1279 6.60628 13.1279 6.60679C13.1279 6.6073 13.1279 6.60781 13.1279 6.60833C13.1279 6.60884 13.1279 6.60935 13.1279 6.60986C13.1279 6.61037 13.1279 6.61089 13.1279 6.6114H14.1279ZM16.2375 2.93534L16.5039 2.84484L16.1823 1.89797L15.9159 1.98847L16.2375 2.93534ZM19.124 2.84484L19.3904 2.93534L19.712 1.98847L19.4456 1.89797L19.124 2.84484ZM18.5925 10.5538C18.4176 10.6296 18.3289 10.6669 18.2315 10.6916C18.1411 10.7146 18.0248 10.7308 17.814 10.7308V11.7308C18.0772 11.7308 18.2818 11.7106 18.4777 11.6608C18.6666 11.6129 18.8296 11.541 18.9902 11.4713L18.5925 10.5538ZM16.6377 11.4713C16.7984 11.541 16.9613 11.6129 17.1502 11.6608C17.3461 11.7106 17.5507 11.7308 17.814 11.7308V10.7308C17.6031 10.7308 17.4868 10.7146 17.3964 10.6916C17.299 10.6669 17.2103 10.6296 17.0354 10.5538L16.6377 11.4713ZM22.5 5.88461C22.5 5.15311 22.5002 4.58297 22.4773 4.1659C22.4658 3.95689 22.4478 3.76915 22.4167 3.6092C22.3873 3.45743 22.3375 3.28223 22.2326 3.13392L21.4162 3.71138C21.3991 3.68719 21.4152 3.69732 21.4351 3.79985C21.4534 3.8942 21.4683 4.02971 21.4788 4.22069C21.4998 4.60359 21.5 5.1403 21.5 5.88461H22.5ZM19.3904 2.93534C20.0958 3.17493 20.604 3.34777 20.9594 3.49105C21.1367 3.56251 21.2596 3.62023 21.3421 3.66781C21.432 3.71961 21.4345 3.73732 21.4162 3.71138L22.2326 3.13392C22.1265 2.98386 21.9757 2.87879 21.8414 2.80139C21.6998 2.71978 21.5276 2.64189 21.3333 2.56357C20.9456 2.40728 20.405 2.22387 19.712 1.98847L19.3904 2.93534ZM16.5039 2.84484C17.2641 2.58662 17.5382 2.5 17.814 2.5V1.5C17.3349 1.5 16.88 1.66098 16.1823 1.89797L16.5039 2.84484ZM19.4456 1.89797C18.7479 1.66099 18.293 1.5 17.814 1.5V2.5C18.0897 2.5 18.3638 2.58662 19.124 2.84484L19.4456 1.89797ZM14.1279 5.88461C14.1279 5.1403 14.1281 4.60359 14.1491 4.22069C14.1596 4.02971 14.1745 3.89419 14.1928 3.79984C14.2127 3.69732 14.2288 3.68719 14.2117 3.71138L13.3953 3.13392C13.2904 3.28223 13.2406 3.45743 13.2112 3.60921C13.1801 3.76915 13.1621 3.95689 13.1506 4.1659C13.1277 4.58297 13.1279 5.15311 13.1279 5.88461H14.1279ZM15.9159 1.98847C15.2229 2.22387 14.6823 2.40728 14.2946 2.56357C14.1003 2.64189 13.9281 2.71978 13.7865 2.80139C13.6521 2.87879 13.5014 2.98386 13.3953 3.13392L14.2117 3.71138C14.1934 3.73732 14.1959 3.71961 14.2858 3.66781C14.3683 3.62023 14.4912 3.56251 14.6685 3.49105C15.0239 3.34777 15.5321 3.17493 16.2375 2.93534L15.9159 1.98847ZM16.4019 6.84073L17.0663 7.57919L17.8097 6.91032L17.1452 6.17186L16.4019 6.84073ZM17.8097 7.57919L19.4708 5.73304L18.7274 5.06416L17.0663 6.91032L17.8097 7.57919Z" fill="#424242"/>
</svg>
