<svg width="24" height="24" viewBox="0 0 24 24" fill="none" xmlns="http://www.w3.org/2000/svg">
<path d="M11 2.5H13V1.5H11V2.5ZM20.5 10V14H21.5V10H20.5ZM13 21.5H11V22.5H13V21.5ZM3.5 14V10H2.5V14H3.5ZM11 21.5C9.10025 21.5 7.72573 21.4989 6.67754 21.358C5.64373 21.219 5.00253 20.9523 4.52513 20.4749L3.81802 21.182C4.51219 21.8762 5.39959 22.1952 6.54429 22.3491C7.6746 22.5011 9.12852 22.5 11 22.5V21.5ZM2.5 14C2.5 15.8715 2.49894 17.3254 2.65091 18.4557C2.80481 19.6004 3.12385 20.4878 3.81802 21.182L4.52513 20.4749C4.04772 19.9975 3.78098 19.3563 3.64199 18.3225C3.50106 17.2743 3.5 15.8998 3.5 14H2.5ZM20.5 14C20.5 15.8998 20.4989 17.2743 20.358 18.3225C20.219 19.3563 19.9523 19.9975 19.4749 20.4749L20.182 21.182C20.8762 20.4878 21.1952 19.6004 21.3491 18.4557C21.5011 17.3254 21.5 15.8715 21.5 14H20.5ZM13 22.5C14.8715 22.5 16.3254 22.5011 17.4557 22.3491C18.6004 22.1952 19.4878 21.8762 20.182 21.182L19.4749 20.4749C18.9975 20.9523 18.3563 21.219 17.3225 21.358C16.2743 21.4989 14.8998 21.5 13 21.5V22.5ZM13 2.5C14.8998 2.5 16.2743 2.50106 17.3225 2.64199C18.3563 2.78098 18.9975 3.04772 19.4749 3.52513L20.182 2.81802C19.4878 2.12385 18.6004 1.80481 17.4557 1.65091C16.3254 1.49894 14.8715 1.5 13 1.5V2.5ZM21.5 10C21.5 8.12852 21.5011 6.67461 21.3491 5.54429C21.1952 4.39959 20.8762 3.51219 20.182 2.81802L19.4749 3.52513C19.9523 4.00253 20.219 4.64373 20.358 5.67754C20.4989 6.72573 20.5 8.10025 20.5 10H21.5ZM11 1.5C9.12852 1.5 7.67461 1.49894 6.54429 1.65091C5.39959 1.80481 4.51219 2.12385 3.81802 2.81802L4.52513 3.52513C5.00253 3.04772 5.64373 2.78098 6.67754 2.64199C7.72573 2.50106 9.10025 2.5 11 2.5V1.5ZM3.5 10C3.5 8.10025 3.50106 6.72573 3.64199 5.67754C3.78098 4.64373 4.04772 4.00253 4.52513 3.52513L3.81802 2.81802C3.12385 3.51219 2.80481 4.39959 2.65091 5.54429C2.49894 6.6746 2.5 8.12852 2.5 10H3.5ZM9 15.375V15.5H10V15.375H9ZM15 15.5V15.375H14V15.5H15ZM13.625 14H10.375V15H13.625V14ZM15 15.375C15 14.6156 14.3844 14 13.625 14V15C13.8321 15 14 15.1679 14 15.375H15ZM12 18.5C13.6569 18.5 15 17.1569 15 15.5H14C14 16.6046 13.1046 17.5 12 17.5V18.5ZM9 15.5C9 17.1569 10.3431 18.5 12 18.5V17.5C10.8954 17.5 10 16.6046 10 15.5H9ZM10 15.375C10 15.1679 10.1679 15 10.375 15V14C9.61561 14 9 14.6156 9 15.375H10ZM10.5 2.5H11V1.5H10.5V2.5ZM11.5 3V3.5H12.5V3H11.5ZM11 4H10.5V5H11V4ZM10 3.5V3H9V3.5H10ZM10.5 4C10.2502 4 10.1131 3.99894 10.018 3.98615C9.93728 3.9753 9.96484 3.96484 10 4L9.29289 4.70711C9.4745 4.88871 9.69314 4.95148 9.88474 4.97724C10.062 5.00106 10.2784 5 10.5 5V4ZM9 3.5C9 3.72157 8.99894 3.93804 9.02276 4.11526C9.04852 4.30686 9.11129 4.5255 9.29289 4.70711L10 4C10.0352 4.03516 10.0247 4.06272 10.0138 3.98201C10.0011 3.88692 10 3.74984 10 3.5H9ZM11.5 3.5C11.5 3.74984 11.4989 3.88692 11.4862 3.98201C11.4753 4.06273 11.4648 4.03516 11.5 4L12.2071 4.70711C12.3887 4.5255 12.4515 4.30686 12.4772 4.11526C12.5011 3.93804 12.5 3.72157 12.5 3.5H11.5ZM11 5C11.2216 5 11.438 5.00106 11.6153 4.97724C11.8069 4.95148 12.0255 4.88871 12.2071 4.70711L11.5 4C11.5352 3.96484 11.5627 3.9753 11.482 3.98615C11.3869 3.99894 11.2498 4 11 4V5ZM11 2.5C11.2498 2.5 11.3869 2.50106 11.482 2.51385C11.5627 2.5247 11.5352 2.53516 11.5 2.5L12.2071 1.79289C12.0255 1.61129 11.8069 1.54852 11.6153 1.52276C11.438 1.49894 11.2216 1.5 11 1.5V2.5ZM12.5 3C12.5 2.77843 12.5011 2.56196 12.4772 2.38474C12.4515 2.19314 12.3887 1.9745 12.2071 1.79289L11.5 2.5C11.4648 2.46484 11.4753 2.43727 11.4862 2.51799C11.4989 2.61308 11.5 2.75016 11.5 3H12.5ZM10.5 1.5C10.2784 1.5 10.062 1.49894 9.88474 1.52276C9.69314 1.54852 9.4745 1.61129 9.29289 1.79289L10 2.5C9.96484 2.53516 9.93728 2.5247 10.018 2.51385C10.1131 2.50106 10.2502 2.5 10.5 2.5V1.5ZM10 3C10 2.75016 10.0011 2.61308 10.0138 2.51799C10.0247 2.43728 10.0352 2.46484 10 2.5L9.29289 1.79289C9.11129 1.9745 9.04852 2.19314 9.02276 2.38474C8.99894 2.56196 9 2.77843 9 3H10ZM10.5 7.5H11V6.5H10.5V7.5ZM11.5 8V8.5H12.5V8H11.5ZM11 9H10.5V10H11V9ZM10 8.5V8H9V8.5H10ZM10.5 9C10.2502 9 10.1131 8.99894 10.018 8.98615C9.93728 8.9753 9.96484 8.96484 10 9L9.29289 9.70711C9.4745 9.88871 9.69314 9.95148 9.88474 9.97724C10.062 10.0011 10.2784 10 10.5 10V9ZM9 8.5C9 8.72157 8.99894 8.93804 9.02276 9.11526C9.04852 9.30686 9.11129 9.5255 9.29289 9.70711L10 9C10.0352 9.03516 10.0247 9.06272 10.0138 8.98201C10.0011 8.88692 10 8.74984 10 8.5H9ZM11.5 8.5C11.5 8.74984 11.4989 8.88692 11.4862 8.98201C11.4753 9.06273 11.4648 9.03516 11.5 9L12.2071 9.70711C12.3887 9.5255 12.4515 9.30686 12.4772 9.11526C12.5011 8.93804 12.5 8.72157 12.5 8.5H11.5ZM11 10C11.2216 10 11.438 10.0011 11.6153 9.97724C11.8069 9.95148 12.0255 9.88871 12.2071 9.70711L11.5 9C11.5352 8.96484 11.5627 8.9753 11.482 8.98615C11.3869 8.99894 11.2498 9 11 9V10ZM11 7.5C11.2498 7.5 11.3869 7.50106 11.482 7.51385C11.5627 7.5247 11.5352 7.53516 11.5 7.5L12.2071 6.79289C12.0255 6.61129 11.8069 6.54852 11.6153 6.52276C11.438 6.49894 11.2216 6.5 11 6.5V7.5ZM12.5 8C12.5 7.77843 12.5011 7.56196 12.4772 7.38474C12.4515 7.19314 12.3887 6.9745 12.2071 6.79289L11.5 7.5C11.4648 7.46484 11.4753 7.43727 11.4862 7.51799C11.4989 7.61308 11.5 7.75016 11.5 8H12.5ZM10.5 6.5C10.2784 6.5 10.062 6.49894 9.88474 6.52276C9.69314 6.54852 9.4745 6.61129 9.29289 6.79289L10 7.5C9.96484 7.53516 9.93728 7.5247 10.018 7.51385C10.1131 7.50106 10.2502 7.5 10.5 7.5V6.5ZM10 8C10 7.75016 10.0011 7.61308 10.0138 7.51799C10.0247 7.43728 10.0352 7.46484 10 7.5L9.29289 6.79289C9.11129 6.9745 9.04852 7.19314 9.02276 7.38474C8.99894 7.56196 9 7.77843 9 8H10ZM13 5H13.5V4H13V5ZM14 5.5V6H15V5.5H14ZM13.5 6.5H13V7.5H13.5V6.5ZM12.5 6V5.5H11.5V6H12.5ZM13 6.5C12.7502 6.5 12.6131 6.49894 12.518 6.48615C12.4373 6.4753 12.4648 6.46484 12.5 6.5L11.7929 7.20711C11.9745 7.38871 12.1931 7.45148 12.3847 7.47724C12.562 7.50106 12.7784 7.5 13 7.5V6.5ZM11.5 6C11.5 6.22157 11.4989 6.43804 11.5228 6.61526C11.5485 6.80686 11.6113 7.0255 11.7929 7.20711L12.5 6.5C12.5352 6.53516 12.5247 6.56273 12.5138 6.48201C12.5011 6.38692 12.5 6.24984 12.5 6H11.5ZM14 6C14 6.24984 13.9989 6.38692 13.9862 6.48201C13.9753 6.56273 13.9648 6.53516 14 6.5L14.7071 7.20711C14.8887 7.0255 14.9515 6.80686 14.9772 6.61526C15.0011 6.43804 15 6.22157 15 6H14ZM13.5 7.5C13.7216 7.5 13.938 7.50106 14.1153 7.47724C14.3069 7.45148 14.5255 7.38871 14.7071 7.20711L14 6.5C14.0352 6.46484 14.0627 6.4753 13.982 6.48615C13.8869 6.49894 13.7498 6.5 13.5 6.5V7.5ZM13.5 5C13.7498 5 13.8869 5.00106 13.982 5.01385C14.0627 5.0247 14.0352 5.03516 14 5L14.7071 4.29289C14.5255 4.11129 14.3069 4.04852 14.1153 4.02276C13.938 3.99894 13.7216 4 13.5 4V5ZM15 5.5C15 5.27843 15.0011 5.06196 14.9772 4.88474C14.9515 4.69314 14.8887 4.4745 14.7071 4.29289L14 5C13.9648 4.96484 13.9753 4.93727 13.9862 5.01799C13.9989 5.11308 14 5.25016 14 5.5H15ZM13 4C12.7784 4 12.562 3.99894 12.3847 4.02276C12.1931 4.04852 11.9745 4.11129 11.7929 4.29289L12.5 5C12.4648 5.03516 12.4373 5.0247 12.518 5.01385C12.6131 5.00106 12.7502 5 13 5V4ZM12.5 5.5C12.5 5.25016 12.5011 5.11308 12.5138 5.01799C12.5247 4.93727 12.5352 4.96484 12.5 5L11.7929 4.29289C11.6113 4.4745 11.5485 4.69314 11.5228 4.88474C11.4989 5.06196 11.5 5.27843 11.5 5.5H12.5ZM13 10H13.5V9H13V10ZM14 10.5V11H15V10.5H14ZM13.5 11.5H13V12.5H13.5V11.5ZM12.5 11V10.5H11.5V11H12.5ZM13 11.5C12.7502 11.5 12.6131 11.4989 12.518 11.4862C12.4373 11.4753 12.4648 11.4648 12.5 11.5L11.7929 12.2071C11.9745 12.3887 12.1931 12.4515 12.3847 12.4772C12.562 12.5011 12.7784 12.5 13 12.5V11.5ZM11.5 11C11.5 11.2216 11.4989 11.438 11.5228 11.6153C11.5485 11.8069 11.6113 12.0255 11.7929 12.2071L12.5 11.5C12.5352 11.5352 12.5247 11.5627 12.5138 11.482C12.5011 11.3869 12.5 11.2498 12.5 11H11.5ZM14 11C14 11.2498 13.9989 11.3869 13.9862 11.482C13.9753 11.5627 13.9648 11.5352 14 11.5L14.7071 12.2071C14.8887 12.0255 14.9515 11.8069 14.9772 11.6153C15.0011 11.438 15 11.2216 15 11H14ZM13.5 12.5C13.7216 12.5 13.938 12.5011 14.1153 12.4772C14.3069 12.4515 14.5255 12.3887 14.7071 12.2071L14 11.5C14.0352 11.4648 14.0627 11.4753 13.982 11.4862C13.8869 11.4989 13.7498 11.5 13.5 11.5V12.5ZM13.5 10C13.7498 10 13.8869 10.0011 13.982 10.0138C14.0627 10.0247 14.0352 10.0352 14 10L14.7071 9.29289C14.5255 9.11129 14.3069 9.04852 14.1153 9.02276C13.938 8.99894 13.7216 9 13.5 9V10ZM15 10.5C15 10.2784 15.0011 10.062 14.9772 9.88474C14.9515 9.69314 14.8887 9.4745 14.7071 9.29289L14 10C13.9648 9.96484 13.9753 9.93727 13.9862 10.018C13.9989 10.1131 14 10.2502 14 10.5H15ZM13 9C12.7784 9 12.562 8.99894 12.3847 9.02276C12.1931 9.04852 11.9745 9.11129 11.7929 9.29289L12.5 10C12.4648 10.0352 12.4373 10.0247 12.518 10.0138C12.6131 10.0011 12.7502 10 13 10V9ZM12.5 10.5C12.5 10.2502 12.5011 10.1131 12.5138 10.018C12.5247 9.93727 12.5352 9.96484 12.5 10L11.7929 9.29289C11.6113 9.4745 11.5485 9.69314 11.5228 9.88474C11.4989 10.062 11.5 10.2784 11.5 10.5H12.5Z" fill="#424242"/>
</svg>
