<svg width="21" height="23" viewBox="0 0 21 23" fill="none" xmlns="http://www.w3.org/2000/svg">
<path d="M18 13.5C18 13.7761 18.2239 14 18.5 14C18.7761 14 19 13.7761 19 13.5H18.5H18ZM11 21C11.2761 21 11.5 20.7761 11.5 20.5C11.5 20.2239 11.2761 20 11 20V20.5V21ZM17.6213 3.37868L17.2678 3.73223L17.6213 3.37868ZM1.37868 3.37868L1.02513 3.02513H1.02513L1.37868 3.37868ZM8 12C7.72386 12 7.5 12.2239 7.5 12.5C7.5 12.7761 7.72386 13 8 13V12.5V12ZM12.5 13C12.7761 13 13 12.7761 13 12.5C13 12.2239 12.7761 12 12.5 12V12.5V13ZM4.5 12C4.22386 12 4 12.2239 4 12.5C4 12.7761 4.22386 13 4.5 13V12.5V12ZM5 13C5.27614 13 5.5 12.7761 5.5 12.5C5.5 12.2239 5.27614 12 5 12V12.5V13ZM4.5 8.5C4.22386 8.5 4 8.72386 4 9C4 9.27614 4.22386 9.5 4.5 9.5V9V8.5ZM5 9.5C5.27614 9.5 5.5 9.27614 5.5 9C5.5 8.72386 5.27614 8.5 5 8.5V9V9.5ZM4.5 15.5C4.22386 15.5 4 15.7239 4 16C4 16.2761 4.22386 16.5 4.5 16.5V16V15.5ZM5 16.5C5.27614 16.5 5.5 16.2761 5.5 16C5.5 15.7239 5.27614 15.5 5 15.5V16V16.5ZM8 8.5C7.72386 8.5 7.5 8.72386 7.5 9C7.5 9.27614 7.72386 9.5 8 9.5V9V8.5ZM14.5 9.5C14.7761 9.5 15 9.27614 15 9C15 8.72386 14.7761 8.5 14.5 8.5V9V9.5ZM8 15.5C7.72386 15.5 7.5 15.7239 7.5 16C7.5 16.2761 7.72386 16.5 8 16.5V16V15.5ZM10 16.5C10.2761 16.5 10.5 16.2761 10.5 16C10.5 15.7239 10.2761 15.5 10 15.5V16V16.5ZM15.1555 21L15.509 20.6465L15.1555 21ZM19 17.1555L19.3535 16.802L19 17.1555ZM16.437 14.5925L16.0834 14.946L16.437 14.5925ZM12.5924 18.437L12.2389 18.7906L12.5924 18.437ZM18.214 15.941C18.251 15.6673 18.0591 15.4155 17.7855 15.3785C17.5118 15.3415 17.26 15.5334 17.223 15.807L17.7185 15.874L18.214 15.941ZM16.2674 18.2677L15.9139 17.9141L16.2674 18.2677ZM13.8432 19.3082C13.5737 19.3681 13.4037 19.6352 13.4636 19.9047C13.5235 20.1743 13.7906 20.3443 14.0602 20.2844L13.9517 19.7963L13.8432 19.3082ZM18.5 8.5H18V13.5H18.5H19V8.5H18.5ZM11 20.5V20H6.5V20.5V21H11V20.5ZM0.5 14.5H1V8.5H0.5H0V14.5H0.5ZM6.5 20.5V20C5.07165 20 4.05069 19.9989 3.27481 19.8946C2.51331 19.7922 2.06319 19.5987 1.73223 19.2678L1.37868 19.6213L1.02513 19.9749C1.57285 20.5226 2.26917 20.7684 3.14156 20.8857C3.99956 21.0011 5.09992 21 6.5 21V20.5ZM0.5 14.5H0C0 15.9001 -0.00106186 17.0004 0.114294 17.8584C0.231583 18.7308 0.477402 19.4272 1.02513 19.9749L1.37868 19.6213L1.73223 19.2678C1.40128 18.9368 1.20776 18.4867 1.10538 17.7252C1.00106 16.9493 1 15.9283 1 14.5H0.5ZM18.5 8.5H19C19 7.09992 19.0011 5.99956 18.8857 5.14156C18.7684 4.26917 18.5226 3.57285 17.9749 3.02513L17.6213 3.37868L17.2678 3.73223C17.5987 4.06319 17.7922 4.51331 17.8946 5.27481C17.9989 6.05069 18 7.07165 18 8.5H18.5ZM0.5 8.5H1C1 7.07165 1.00106 6.05069 1.10538 5.27481C1.20776 4.51331 1.40128 4.06319 1.73223 3.73223L1.37868 3.37868L1.02513 3.02513C0.477402 3.57285 0.231583 4.26917 0.114294 5.14156C-0.00106186 5.99956 0 7.09992 0 8.5H0.5ZM13.5 2.50174L13.4972 3.00173C14.5887 3.00781 15.3849 3.03578 15.9978 3.14838C16.5965 3.25835 16.9774 3.44187 17.2678 3.73223L17.6213 3.37868L17.9749 3.02513C17.4969 2.54711 16.9046 2.29821 16.1785 2.16483C15.4666 2.03408 14.5863 2.00778 13.5028 2.00175L13.5 2.50174ZM5.5 2.50174L5.49722 2.00175C4.41369 2.00778 3.53336 2.03408 2.82152 2.16483C2.09538 2.29821 1.50314 2.54711 1.02513 3.02513L1.37868 3.37868L1.73223 3.73223C2.0226 3.44187 2.40351 3.25835 3.00218 3.14838C3.61515 3.03578 4.41128 3.00781 5.50278 3.00173L5.5 2.50174ZM8 12.5V13H12.5V12.5V12H8V12.5ZM4.5 12.5V13H5V12.5V12H4.5V12.5ZM4.5 9V9.5H5V9V8.5H4.5V9ZM4.5 16V16.5H5V16V15.5H4.5V16ZM8 9V9.5H14.5V9V8.5H8V9ZM8 16V16.5H10V16V15.5H8V16ZM7 0.5V1H12V0.5V0H7V0.5ZM13.5 2H13V3H13.5H14V2H13.5ZM12 4.5V4H7V4.5V5H12V4.5ZM5.5 3H6V2H5.5H5V3H5.5ZM7 4.5V4C6.44772 4 6 3.55228 6 3H5.5H5C5 4.10457 5.89543 5 7 5V4.5ZM13.5 3H13C13 3.55228 12.5523 4 12 4V4.5V5C13.1046 5 14 4.10457 14 3H13.5ZM12 0.5V1C12.5523 1 13 1.44772 13 2H13.5H14C14 0.895431 13.1046 0 12 0V0.5ZM7 0.5V0C5.89543 0 5 0.895431 5 2H5.5H6C6 1.44772 6.44772 1 7 1V0.5ZM16.437 14.5925L16.0834 14.946L18.6464 17.5091L19 17.1555L19.3535 16.802L16.7905 14.2389L16.437 14.5925ZM15.1555 21L15.509 20.6465L12.946 18.0835L12.5924 18.437L12.2389 18.7906L14.8019 21.3536L15.1555 21ZM19 21L18.6464 20.6465C17.7801 21.5129 16.3754 21.5129 15.509 20.6465L15.1555 21L14.8019 21.3536C16.0588 22.6105 18.0966 22.6105 19.3535 21.3536L19 21ZM19 17.1555L18.6464 17.5091C19.5128 18.3754 19.5128 19.7801 18.6464 20.6465L19 21L19.3535 21.3536C20.6104 20.0967 20.6104 18.0589 19.3535 16.802L19 17.1555ZM12.5924 14.5925L12.946 14.946C13.8124 14.0797 15.217 14.0797 16.0834 14.946L16.437 14.5925L16.7905 14.2389C15.5336 12.982 13.4958 12.982 12.2389 14.2389L12.5924 14.5925ZM12.5924 14.5925L12.2389 14.2389C10.982 15.4958 10.982 17.5337 12.2389 18.7906L12.5924 18.437L12.946 18.0835C12.0796 17.2171 12.0796 15.8124 12.946 14.946L12.5924 14.5925ZM17.7185 15.874C17.223 15.807 17.223 15.8068 17.2231 15.8065C17.2231 15.8065 17.2231 15.8062 17.2231 15.8061C17.2232 15.8058 17.2232 15.8055 17.2232 15.8052C17.2233 15.8047 17.2234 15.8043 17.2234 15.8039C17.2235 15.8031 17.2236 15.8025 17.2237 15.8022C17.2238 15.8017 17.2237 15.8021 17.2234 15.8036C17.223 15.8064 17.2218 15.8132 17.2196 15.8238C17.2153 15.8449 17.2072 15.881 17.1935 15.9303C17.1659 16.029 17.1156 16.1811 17.0274 16.3734C16.8514 16.7571 16.5221 17.3058 15.9139 17.9141L16.2674 18.2677L16.621 18.6212C17.3165 17.9257 17.7127 17.2777 17.9363 16.7904C18.0478 16.5473 18.1159 16.3454 18.1567 16.199C18.1771 16.1258 18.1907 16.0666 18.1996 16.023C18.204 16.0012 18.2073 15.9833 18.2096 15.9696C18.2107 15.9627 18.2117 15.9569 18.2124 15.9521C18.2127 15.9497 18.213 15.9476 18.2133 15.9457C18.2134 15.9448 18.2136 15.9439 18.2137 15.9432C18.2137 15.9428 18.2138 15.9424 18.2138 15.942C18.2139 15.9418 18.2139 15.9416 18.2139 15.9415C18.2139 15.9412 18.214 15.941 17.7185 15.874ZM16.2674 18.2677L15.9139 17.9141C15.2982 18.5298 14.76 18.8822 14.3876 19.0785C14.201 19.1768 14.0552 19.2364 13.961 19.2703C13.9138 19.2872 13.8795 19.2978 13.8595 19.3036C13.8494 19.3064 13.8429 19.3081 13.8402 19.3088C13.8388 19.3092 13.8383 19.3093 13.8388 19.3092C13.8391 19.3091 13.8396 19.309 13.8403 19.3088C13.8407 19.3087 13.8411 19.3086 13.8416 19.3085C13.8418 19.3085 13.8421 19.3084 13.8424 19.3084C13.8425 19.3083 13.8427 19.3083 13.8428 19.3083C13.843 19.3082 13.8432 19.3082 13.9517 19.7963C14.0602 20.2844 14.0604 20.2843 14.0606 20.2843C14.0607 20.2842 14.0609 20.2842 14.0611 20.2841C14.0614 20.2841 14.0618 20.284 14.0622 20.2839C14.0629 20.2837 14.0637 20.2836 14.0645 20.2834C14.0663 20.283 14.0682 20.2825 14.0704 20.282C14.0748 20.2809 14.0802 20.2796 14.0866 20.278C14.0993 20.2748 14.1158 20.2704 14.136 20.2646C14.1764 20.2529 14.2313 20.2357 14.2994 20.2112C14.4357 20.1622 14.6243 20.0841 14.8537 19.9632C15.3132 19.7211 15.9329 19.3093 16.621 18.6212L16.2674 18.2677Z" fill="#424242"/>
</svg>
