<svg width="21" height="21" viewBox="0 0 21 21" fill="none" xmlns="http://www.w3.org/2000/svg">
<path d="M14.5378 1.5C16.1762 1.5 17.5238 2.88 17.5238 4.58C17.5238 6.28 16.1859 7.65 14.5378 7.65M19.1331 16.24C20.5 15.62 20.5 14.58 20.5 13.41C20.5 11.69 18.3187 10.25 15.4685 9.99M12.1335 4.5C12.1335 6.71 10.3982 8.5 8.2557 8.5C6.11319 8.5 4.37785 6.71 4.37785 4.5C4.37785 2.29 6.11319 0.5 8.2557 0.5C10.3982 0.5 12.1335 2.29 12.1335 4.5ZM16.0114 16C16.0114 18.49 16.0114 20.5 8.2557 20.5C0.5 20.5 0.5 18.49 0.5 16C0.5 13.51 3.97067 11.5 8.2557 11.5C12.5407 11.5 16.0114 13.51 16.0114 16Z" stroke="#424242" stroke-linecap="round" stroke-linejoin="round"/>
</svg>
