<svg width="32" height="32" viewBox="0 0 32 32" fill="none" xmlns="http://www.w3.org/2000/svg">
<path d="M16 29.3334H22.6667V8.00002C22.6667 5.48586 22.6667 4.22878 21.8856 3.44774C21.1046 2.66669 19.8475 2.66669 17.3333 2.66669H14.6667C12.1525 2.66669 10.8954 2.66669 10.1144 3.44774C9.33334 4.22878 9.33334 5.48586 9.33334 8.00002V29.3334H16Z" fill="#B8B8B8"/>
<path d="M29.3333 30.0834C29.7475 30.0834 30.0833 29.7476 30.0833 29.3334C30.0833 28.9191 29.7475 28.5834 29.3333 28.5834V29.3334V30.0834ZM2.66667 28.5834C2.25246 28.5834 1.91667 28.9191 1.91667 29.3334C1.91667 29.7476 2.25246 30.0834 2.66667 30.0834V29.3334V28.5834ZM26.8149 7.1161L27.2315 6.4925L27.2315 6.4925L26.8149 7.1161ZM27.5506 7.85183L26.927 8.26851L26.927 8.26851L27.5506 7.85183ZM5.18515 7.1161L4.76847 6.4925L4.76847 6.4925L5.18515 7.1161ZM4.44942 7.85183L5.07302 8.26851L5.07302 8.26851L4.44942 7.85183ZM16.75 25.3334C16.75 24.9191 16.4142 24.5834 16 24.5834C15.5858 24.5834 15.25 24.9191 15.25 25.3334H16H16.75ZM15.25 16C15.25 16.4142 15.5858 16.75 16 16.75C16.4142 16.75 16.75 16.4142 16.75 16H16H15.25ZM16.75 10.6667C16.75 10.2525 16.4142 9.91669 16 9.91669C15.5858 9.91669 15.25 10.2525 15.25 10.6667H16H16.75ZM18.6667 14.0834C19.0809 14.0834 19.4167 13.7476 19.4167 13.3334C19.4167 12.9191 19.0809 12.5834 18.6667 12.5834V13.3334V14.0834ZM13.3333 12.5834C12.9191 12.5834 12.5833 12.9191 12.5833 13.3334C12.5833 13.7476 12.9191 14.0834 13.3333 14.0834V13.3334V12.5834ZM29.3333 29.3334V28.5834H28V29.3334V30.0834H29.3333V29.3334ZM28 29.3334V28.5834H22.6667V29.3334V30.0834H28V29.3334ZM22.6667 29.3334V28.5834H16V29.3334V30.0834H22.6667V29.3334ZM16 29.3334V28.5834H9.33334V29.3334V30.0834H16V29.3334ZM9.33334 29.3334V28.5834H4.00001V29.3334V30.0834H9.33334V29.3334ZM4.00001 29.3334V28.5834H2.66667V29.3334V30.0834H4.00001V29.3334ZM14.6667 2.66669V3.41669H17.3333V2.66669V1.91669H14.6667V2.66669ZM22.6667 8.00002H21.9167V29.3334H22.6667H23.4167V8.00002H22.6667ZM9.33334 29.3334H10.0833V8.00002H9.33334H8.58334V29.3334H9.33334ZM17.3333 2.66669V3.41669C18.6116 3.41669 19.4949 3.41828 20.1595 3.50763C20.8025 3.59408 21.1273 3.75012 21.3553 3.97807L21.8856 3.44774L22.416 2.91741C21.8629 2.3643 21.1687 2.12982 20.3593 2.02101C19.5716 1.91509 18.5692 1.91669 17.3333 1.91669V2.66669ZM22.6667 8.00002H23.4167C23.4167 6.76414 23.4183 5.76179 23.3124 4.97403C23.2035 4.16469 22.9691 3.47051 22.416 2.91741L21.8856 3.44774L21.3553 3.97807C21.5832 4.20601 21.7393 4.53089 21.8257 5.1739C21.9151 5.83848 21.9167 6.72174 21.9167 8.00002H22.6667ZM14.6667 2.66669V1.91669C13.4308 1.91669 12.4284 1.91509 11.6407 2.02101C10.8313 2.12982 10.1372 2.3643 9.58406 2.91741L10.1144 3.44774L10.6447 3.97807C10.8727 3.75012 11.1975 3.59408 11.8405 3.50763C12.5051 3.41828 13.3884 3.41669 14.6667 3.41669V2.66669ZM9.33334 8.00002H10.0833C10.0833 6.72174 10.0849 5.83848 10.1743 5.1739C10.2607 4.53089 10.4168 4.20601 10.6447 3.97807L10.1144 3.44774L9.58406 2.91741C9.03096 3.47051 8.79647 4.16469 8.68766 4.97403C8.58174 5.76179 8.58334 6.76414 8.58334 8.00002H9.33334ZM28 11.3334H27.25V29.3334H28H28.75V11.3334H28ZM23.3333 6.66669V7.41669C24.2853 7.41669 24.9427 7.41759 25.4482 7.46901C25.9411 7.51916 26.2057 7.61106 26.3982 7.7397L26.8149 7.1161L27.2315 6.4925C26.7515 6.17173 26.2115 6.03892 25.6 5.97671C25.001 5.91578 24.254 5.91669 23.3333 5.91669V6.66669ZM28 11.3334H28.75C28.75 10.4127 28.7509 9.66568 28.69 9.06668C28.6278 8.45515 28.495 7.91523 28.1742 7.43515L27.5506 7.85183L26.927 8.26851C27.0556 8.46104 27.1475 8.72556 27.1977 9.21849C27.2491 9.72395 27.25 10.3814 27.25 11.3334H28ZM26.8149 7.1161L26.3982 7.7397C26.6075 7.87954 26.7871 8.05923 26.927 8.26851L27.5506 7.85183L28.1742 7.43516C27.9249 7.06209 27.6046 6.74177 27.2315 6.4925L26.8149 7.1161ZM4.00001 11.3334H3.25001V29.3334H4.00001H4.75001V11.3334H4.00001ZM8.66667 6.66669V5.91669C7.74597 5.91669 6.99899 5.91578 6.4 5.97671C5.78847 6.03892 5.24854 6.17173 4.76847 6.4925L5.18515 7.1161L5.60183 7.7397C5.79435 7.61106 6.05888 7.51916 6.55181 7.46901C7.05727 7.41759 7.71475 7.41669 8.66667 7.41669V6.66669ZM4.00001 11.3334H4.75001C4.75001 10.3814 4.75091 9.72395 4.80233 9.21849C4.85248 8.72556 4.94438 8.46104 5.07302 8.26851L4.44942 7.85183L3.82582 7.43516C3.50504 7.91523 3.37224 8.45515 3.31003 9.06668C3.2491 9.66568 3.25001 10.4127 3.25001 11.3334H4.00001ZM5.18515 7.1161L4.76847 6.4925C4.39541 6.74177 4.07509 7.06209 3.82582 7.43516L4.44942 7.85183L5.07302 8.26851C5.21286 8.05923 5.39255 7.87954 5.60183 7.7397L5.18515 7.1161ZM16 29.3334H16.75V25.3334H16H15.25V29.3334H16ZM16 16H16.75V13.3334H16H15.25V16H16ZM16 13.3334H16.75V10.6667H16H15.25V13.3334H16ZM18.6667 13.3334V12.5834H16V13.3334V14.0834H18.6667V13.3334ZM16 13.3334V12.5834H13.3333V13.3334V14.0834H16V13.3334Z" fill="#626060"/>
</svg>
