<svg width="32" height="32" viewBox="0 0 32 32" fill="none" xmlns="http://www.w3.org/2000/svg">
<path d="M20 12C20 14.2092 18.2091 16 16 16C13.7909 16 12 14.2092 12 12C12 9.79088 13.7909 8.00002 16 8.00002C18.2091 8.00002 20 9.79088 20 12Z" fill="#96BFFF"/>
<path d="M29.3333 16C29.3333 23.3638 23.3638 29.3334 16 29.3334C8.63621 29.3334 2.66667 23.3638 2.66667 16C2.66667 8.63622 8.63621 2.66669 16 2.66669C23.3638 2.66669 29.3333 8.63622 29.3333 16Z" fill="#96BFFF"/>
<path d="M23.9589 26.6667C23.7467 22.8114 22.5663 20 16 20C9.43368 20 8.25328 22.8114 8.04109 26.6667M20 12C20 14.2092 18.2091 16 16 16C13.7909 16 12 14.2092 12 12C12 9.79088 13.7909 8.00002 16 8.00002C18.2091 8.00002 20 9.79088 20 12ZM29.3333 16C29.3333 23.3638 23.3638 29.3334 16 29.3334C8.63621 29.3334 2.66667 23.3638 2.66667 16C2.66667 8.63622 8.63621 2.66669 16 2.66669C23.3638 2.66669 29.3333 8.63622 29.3333 16Z" stroke="#0D47A1" stroke-width="1.5" stroke-linecap="round"/>
</svg>
