<svg width="24" height="24" viewBox="0 0 24 24" fill="none" xmlns="http://www.w3.org/2000/svg">
<path d="M8.85355 12.1464C8.65829 11.9512 8.34171 11.9512 8.14645 12.1464C7.95118 12.3417 7.95118 12.6583 8.14645 12.8536L8.5 12.5L8.85355 12.1464ZM10.5 14.5L10.1464 14.8536C10.3417 15.0488 10.6583 15.0488 10.8536 14.8536L10.5 14.5ZM15.8536 9.85355C16.0488 9.65829 16.0488 9.34171 15.8536 9.14645C15.6583 8.95118 15.3417 8.95118 15.1464 9.14645L15.5 9.5L15.8536 9.85355ZM22 12H21.5C21.5 17.2467 17.2467 21.5 12 21.5V22V22.5C17.799 22.5 22.5 17.799 22.5 12H22ZM12 22V21.5C6.75329 21.5 2.5 17.2467 2.5 12H2H1.5C1.5 17.799 6.20101 22.5 12 22.5V22ZM2 12H2.5C2.5 6.75329 6.75329 2.5 12 2.5V2V1.5C6.20101 1.5 1.5 6.20101 1.5 12H2ZM12 2V2.5C17.2467 2.5 21.5 6.75329 21.5 12H22H22.5C22.5 6.20101 17.799 1.5 12 1.5V2ZM8.5 12.5L8.14645 12.8536L10.1464 14.8536L10.5 14.5L10.8536 14.1464L8.85355 12.1464L8.5 12.5ZM10.5 14.5L10.8536 14.8536L15.8536 9.85355L15.5 9.5L15.1464 9.14645L10.1464 14.1464L10.5 14.5Z" fill="#424242"/>
</svg>
