<svg width="32" height="32" viewBox="0 0 32 32" fill="none" xmlns="http://www.w3.org/2000/svg">
<path d="M14.5209 18.5939C15.3732 17.8675 16.6268 17.8675 17.4791 18.5939C17.8444 18.9051 18.2985 19.0932 18.7768 19.1314C19.8931 19.2205 20.7796 20.1069 20.8686 21.2232C20.9068 21.7015 21.0949 22.1557 21.4062 22.5209C22.1325 23.3732 22.1325 24.6268 21.4062 25.4791C21.0949 25.8444 20.9068 26.2985 20.8686 26.7769C20.7796 27.8932 19.8931 28.7796 18.7768 28.8687C18.2985 28.9068 17.8444 29.0949 17.4791 29.4062C16.6268 30.1325 15.3732 30.1325 14.5209 29.4062C14.1556 29.0949 13.7015 28.9068 13.2232 28.8687C12.1069 28.7796 11.2205 27.8932 11.1314 26.7769C11.0932 26.2985 10.9051 25.8444 10.5938 25.4791C9.86749 24.6268 9.86749 23.3732 10.5938 22.5209C10.9051 22.1557 11.0932 21.7015 11.1314 21.2232C11.2205 20.1069 12.1069 19.2205 13.2232 19.1314C13.7015 19.0932 14.1556 18.9051 14.5209 18.5939Z" fill="#B8B8B8"/>
<path d="M28.1618 22.8284L27.6314 22.2981L27.6314 22.2981L28.1618 22.8284ZM28.1618 3.83826L28.6921 3.30793L28.6921 3.30793L28.1618 3.83826ZM3.83824 3.83826L3.30791 3.30793L3.30791 3.30793L3.83824 3.83826ZM3.83825 22.8284L4.36858 22.2981L4.36857 22.2981L3.83825 22.8284ZM23.0929 23.9943L23.0952 24.7443L23.1008 24.7443L23.0929 23.9943ZM12 7.25002C11.5858 7.25002 11.25 7.58581 11.25 8.00002C11.25 8.41423 11.5858 8.75002 12 8.75002V8.00002V7.25002ZM20 8.75002C20.4142 8.75002 20.75 8.41423 20.75 8.00002C20.75 7.58581 20.4142 7.25002 20 7.25002V8.00002V8.75002ZM9.33334 11.9167C8.91913 11.9167 8.58334 12.2525 8.58334 12.6667C8.58334 13.0809 8.91913 13.4167 9.33334 13.4167V12.6667V11.9167ZM22.6667 13.4167C23.0809 13.4167 23.4167 13.0809 23.4167 12.6667C23.4167 12.2525 23.0809 11.9167 22.6667 11.9167V12.6667V13.4167ZM13.2232 19.1314L13.2828 19.879L13.2232 19.1314ZM14.5209 18.5939L14.0344 18.023L14.5209 18.5939ZM11.1314 21.2232L11.879 21.2828L11.1314 21.2232ZM10.5938 22.5209L10.023 22.0344L10.5938 22.5209ZM10.5938 25.4791L10.023 25.9656L10.5938 25.4791ZM11.1314 26.7769L10.3837 26.8365L11.1314 26.7769ZM13.2232 28.8687L13.2828 28.121L13.2232 28.8687ZM14.5209 29.4062L15.0073 28.8354L15.0073 28.8354L14.5209 29.4062ZM17.4791 29.4062L16.9927 28.8354L16.9927 28.8354L17.4791 29.4062ZM18.7768 28.8687L18.7172 28.121L18.7768 28.8687ZM20.8686 26.7769L20.121 26.7172L20.8686 26.7769ZM21.4062 25.4791L20.8353 24.9927L20.8353 24.9927L21.4062 25.4791ZM21.4062 22.5209L20.8353 23.0074L20.8353 23.0074L21.4062 22.5209ZM20.8686 21.2232L20.121 21.2828L20.8686 21.2232ZM18.7768 19.1314L18.8365 18.3838L18.7768 19.1314ZM17.4791 18.5939L17.9656 18.023L17.4791 18.5939ZM14.5117 23.7184C14.2089 23.4358 13.7343 23.4521 13.4517 23.7549C13.1691 24.0578 13.1855 24.5324 13.4883 24.815L14 24.2667L14.5117 23.7184ZM15.1429 25.3334L14.6311 25.8816C14.9193 26.1506 15.3664 26.1506 15.6546 25.8816L15.1429 25.3334ZM18.5117 23.215C18.8146 22.9324 18.8309 22.4578 18.5483 22.1549C18.2657 21.8521 17.7911 21.8358 17.4883 22.1184L18 22.6667L18.5117 23.215ZM2.66667 16H3.41667V10.6667H2.66667H1.91667V16H2.66667ZM10.6667 2.66669V3.41669H21.3333V2.66669V1.91669H10.6667V2.66669ZM29.3333 10.6667H28.5833V16H29.3333H30.0833V10.6667H29.3333ZM29.3333 16H28.5833C28.5833 17.9068 28.5817 19.2615 28.4436 20.2892C28.3083 21.2953 28.0546 21.8749 27.6314 22.2981L28.1618 22.8284L28.6921 23.3588C29.4405 22.6104 29.7726 21.6615 29.9302 20.489C30.0849 19.3382 30.0833 17.8644 30.0833 16H29.3333ZM21.3333 2.66669V3.41669C23.2402 3.41669 24.5948 3.41828 25.6225 3.55645C26.6286 3.69171 27.2082 3.94538 27.6314 4.36859L28.1618 3.83826L28.6921 3.30793C27.9437 2.55957 26.9948 2.22745 25.8224 2.06982C24.6715 1.91509 23.1978 1.91669 21.3333 1.91669V2.66669ZM29.3333 10.6667H30.0833C30.0833 8.80227 30.0849 7.32851 29.9302 6.17766C29.7726 5.00524 29.4405 4.05629 28.6921 3.30793L28.1618 3.83826L27.6314 4.36859C28.0546 4.7918 28.3083 5.37145 28.4436 6.37753C28.5817 7.4052 28.5833 8.75987 28.5833 10.6667H29.3333ZM2.66667 10.6667H3.41667C3.41667 8.75987 3.41826 7.4052 3.55643 6.37754C3.6917 5.37145 3.94536 4.7918 4.36857 4.36859L3.83824 3.83826L3.30791 3.30793C2.55955 4.05629 2.22743 5.00524 2.06981 6.17766C1.91508 7.32851 1.91667 8.80227 1.91667 10.6667H2.66667ZM10.6667 2.66669V1.91669C8.80226 1.91669 7.32849 1.91509 6.17765 2.06982C5.00523 2.22745 4.05628 2.55957 3.30791 3.30793L3.83824 3.83826L4.36857 4.36859C4.79178 3.94538 5.37143 3.69171 6.37752 3.55645C7.40518 3.41828 8.75985 3.41669 10.6667 3.41669V2.66669ZM2.66667 16H1.91667C1.91667 17.8644 1.91508 19.3382 2.06981 20.489C2.22743 21.6615 2.55955 22.6104 3.30792 23.3588L3.83825 22.8284L4.36857 22.2981C3.94537 21.8749 3.6917 21.2953 3.55643 20.2892C3.41826 19.2615 3.41667 17.9068 3.41667 16H2.66667ZM23.0929 23.9943L23.1008 24.7443C24.4153 24.7303 25.5039 24.6829 26.3983 24.5008C27.3132 24.3145 28.0725 23.9783 28.6921 23.3588L28.1618 22.8284L27.6314 22.2981C27.2778 22.6517 26.8177 22.8846 26.099 23.0309C25.3597 23.1815 24.4004 23.2304 23.0849 23.2444L23.0929 23.9943ZM9.33334 23.9977L9.33751 23.2477C7.88151 23.2396 6.82702 23.2022 6.01797 23.0536C5.23036 22.9089 4.74009 22.6696 4.36858 22.2981L3.83825 22.8284L3.30791 23.3588C3.96091 24.0118 4.76817 24.3491 5.74697 24.5289C6.70433 24.7047 7.88513 24.7397 9.32916 24.7477L9.33334 23.9977ZM23.0929 23.9943L23.0906 23.2443L21.9977 23.2477L22 23.9977L22.0023 24.7477L23.0952 24.7443L23.0929 23.9943ZM12 8.00002V8.75002H20V8.00002V7.25002H12V8.00002ZM9.33334 12.6667V13.4167H22.6667V12.6667V11.9167H9.33334V12.6667ZM13.2232 19.1314L13.2828 19.879C13.9185 19.8283 14.522 19.5783 15.0073 19.1647L14.5209 18.5939L14.0344 18.023C13.7893 18.2319 13.4845 18.3581 13.1635 18.3838L13.2232 19.1314ZM11.1314 21.2232L11.879 21.2828C11.9388 20.5337 12.5337 19.9388 13.2828 19.879L13.2232 19.1314L13.1635 18.3838C11.6801 18.5021 10.5021 19.6801 10.3837 21.1635L11.1314 21.2232ZM10.5938 22.5209L11.1647 23.0074C11.5783 22.522 11.8283 21.9185 11.879 21.2828L11.1314 21.2232L10.3837 21.1635C10.3581 21.4845 10.2319 21.7893 10.023 22.0344L10.5938 22.5209ZM10.5938 25.4791L11.1647 24.9927C10.6772 24.4207 10.6772 23.5794 11.1647 23.0074L10.5938 22.5209L10.023 22.0344C9.05777 23.1671 9.05777 24.833 10.023 25.9656L10.5938 25.4791ZM11.1314 26.7769L11.879 26.7172C11.8283 26.0815 11.5783 25.478 11.1647 24.9927L10.5938 25.4791L10.023 25.9656C10.2319 26.2107 10.3581 26.5155 10.3837 26.8365L11.1314 26.7769ZM13.2232 28.8687L13.2828 28.121C12.5337 28.0612 11.9388 27.4664 11.879 26.7172L11.1314 26.7769L10.3837 26.8365C10.5021 28.3199 11.6801 29.4979 13.1635 29.6163L13.2232 28.8687ZM14.5209 29.4062L15.0073 28.8354C14.522 28.4217 13.9185 28.1718 13.2828 28.121L13.2232 28.8687L13.1635 29.6163C13.4845 29.6419 13.7893 29.7681 14.0344 29.977L14.5209 29.4062ZM17.4791 29.4062L16.9927 28.8354C16.4207 29.3228 15.5794 29.3228 15.0073 28.8354L14.5209 29.4062L14.0344 29.977C15.1671 30.9423 16.8329 30.9423 17.9656 29.977L17.4791 29.4062ZM18.7768 28.8687L18.7172 28.121C18.0815 28.1718 17.478 28.4217 16.9927 28.8354L17.4791 29.4062L17.9656 29.977C18.2107 29.7681 18.5155 29.6419 18.8365 29.6163L18.7768 28.8687ZM20.8686 26.7769L20.121 26.7172C20.0612 27.4664 19.4663 28.0612 18.7172 28.121L18.7768 28.8687L18.8365 29.6163C20.3199 29.4979 21.4979 28.3199 21.6163 26.8365L20.8686 26.7769ZM21.4062 25.4791L20.8353 24.9927C20.4217 25.478 20.1717 26.0815 20.121 26.7172L20.8686 26.7769L21.6163 26.8365C21.6419 26.5155 21.7681 26.2107 21.977 25.9656L21.4062 25.4791ZM21.4062 22.5209L20.8353 23.0074C21.3228 23.5794 21.3228 24.4207 20.8353 24.9927L21.4062 25.4791L21.977 25.9656C22.9422 24.833 22.9422 23.1671 21.977 22.0344L21.4062 22.5209ZM20.8686 21.2232L20.121 21.2828C20.1717 21.9185 20.4217 22.522 20.8353 23.0074L21.4062 22.5209L21.977 22.0344C21.7681 21.7893 21.6419 21.4846 21.6163 21.1635L20.8686 21.2232ZM18.7768 19.1314L18.7172 19.879C19.4663 19.9388 20.0612 20.5337 20.121 21.2828L20.8686 21.2232L21.6163 21.1635C21.4979 19.6801 20.3199 18.5021 18.8365 18.3838L18.7768 19.1314ZM17.4791 18.5939L16.9927 19.1647C17.478 19.5783 18.0815 19.8283 18.7172 19.879L18.7768 19.1314L18.8365 18.3838C18.5155 18.3581 18.2107 18.2319 17.9656 18.023L17.4791 18.5939ZM17.4791 18.5939L17.9656 18.023C16.8329 17.0578 15.1671 17.0578 14.0344 18.023L14.5209 18.5939L15.0073 19.1647C15.5794 18.6772 16.4207 18.6772 16.9927 19.1647L17.4791 18.5939ZM14 24.2667L13.4883 24.815L14.6311 25.8816L15.1429 25.3334L15.6546 24.7851L14.5117 23.7184L14 24.2667ZM15.1429 25.3334L15.6546 25.8816L18.5117 23.215L18 22.6667L17.4883 22.1184L14.6311 24.7851L15.1429 25.3334Z" fill="#626060"/>
</svg>
