<svg width="32" height="32" viewBox="0 0 32 32" fill="none" xmlns="http://www.w3.org/2000/svg">
<path d="M2.66667 16C2.66667 10.9717 2.66667 8.45757 4.22877 6.89547C5.79087 5.33337 8.30502 5.33337 13.3333 5.33337H18.6667C23.695 5.33337 26.2091 5.33337 27.7712 6.89547C29.3333 8.45757 29.3333 10.9717 29.3333 16C29.3333 21.0284 29.3333 23.5425 27.7712 25.1046C26.2091 26.6667 23.695 26.6667 18.6667 26.6667H13.3333C8.30502 26.6667 5.79087 26.6667 4.22877 25.1046C2.66667 23.5425 2.66667 21.0284 2.66667 16Z" fill="#B8B8B8"/>
<path d="M13.3333 22.0834C13.7476 22.0834 14.0833 21.7476 14.0833 21.3334C14.0833 20.9192 13.7476 20.5834 13.3333 20.5834V21.3334V22.0834ZM8.00001 20.5834C7.58579 20.5834 7.25001 20.9192 7.25001 21.3334C7.25001 21.7476 7.58579 22.0834 8.00001 22.0834V21.3334V20.5834ZM18.6667 22.0834C19.0809 22.0834 19.4167 21.7476 19.4167 21.3334C19.4167 20.9192 19.0809 20.5834 18.6667 20.5834V21.3334V22.0834ZM16.6667 20.5834C16.2525 20.5834 15.9167 20.9192 15.9167 21.3334C15.9167 21.7476 16.2525 22.0834 16.6667 22.0834V21.3334V20.5834ZM2.66667 12.5834C2.25246 12.5834 1.91667 12.9192 1.91667 13.3334C1.91667 13.7476 2.25246 14.0834 2.66667 14.0834V13.3334V12.5834ZM29.3333 14.0834C29.7476 14.0834 30.0833 13.7476 30.0833 13.3334C30.0833 12.9192 29.7476 12.5834 29.3333 12.5834V13.3334V14.0834ZM13.3333 5.33337V6.08337H18.6667V5.33337V4.58337H13.3333V5.33337ZM18.6667 26.6667V25.9167H13.3333V26.6667V27.4167H18.6667V26.6667ZM13.3333 26.6667V25.9167C10.798 25.9167 8.97191 25.9151 7.58116 25.7281C6.21198 25.5441 5.37757 25.1928 4.7591 24.5743L4.22877 25.1046L3.69844 25.6349C4.64206 26.5786 5.84578 27.0083 7.38129 27.2148C8.89522 27.4183 10.8404 27.4167 13.3333 27.4167V26.6667ZM2.66667 16H1.91667C1.91667 18.493 1.91508 20.4382 2.11862 21.9521C2.32507 23.4876 2.75481 24.6913 3.69844 25.6349L4.22877 25.1046L4.7591 24.5743C4.14063 23.9558 3.78933 23.1214 3.60525 21.7522C3.41826 20.3615 3.41667 18.5354 3.41667 16H2.66667ZM29.3333 16H28.5833C28.5833 18.5354 28.5817 20.3615 28.3948 21.7522C28.2107 23.1214 27.8594 23.9558 27.2409 24.5743L27.7712 25.1046L28.3016 25.6349C29.2452 24.6913 29.6749 23.4876 29.8814 21.9521C30.0849 20.4382 30.0833 18.493 30.0833 16H29.3333ZM18.6667 26.6667V27.4167C21.1596 27.4167 23.1048 27.4183 24.6187 27.2148C26.1542 27.0083 27.3579 26.5786 28.3016 25.6349L27.7712 25.1046L27.2409 24.5743C26.6224 25.1928 25.788 25.5441 24.4189 25.7281C23.0281 25.9151 21.202 25.9167 18.6667 25.9167V26.6667ZM18.6667 5.33337V6.08337C21.202 6.08337 23.0281 6.08497 24.4189 6.27195C25.788 6.45603 26.6224 6.80733 27.2409 7.4258L27.7712 6.89547L28.3016 6.36514C27.3579 5.42152 26.1542 4.99177 24.6187 4.78532C23.1048 4.58178 21.1596 4.58337 18.6667 4.58337V5.33337ZM29.3333 16H30.0833C30.0833 13.5071 30.0849 11.5619 29.8814 10.048C29.6749 8.51248 29.2452 7.30877 28.3016 6.36514L27.7712 6.89547L27.2409 7.4258C27.8594 8.04427 28.2107 8.87869 28.3948 10.2479C28.5817 11.6386 28.5833 13.4647 28.5833 16H29.3333ZM13.3333 5.33337V4.58337C10.8404 4.58337 8.89522 4.58178 7.38129 4.78532C5.84578 4.99177 4.64206 5.42152 3.69844 6.36514L4.22877 6.89547L4.7591 7.4258C5.37757 6.80733 6.21198 6.45603 7.58116 6.27195C8.97191 6.08497 10.798 6.08337 13.3333 6.08337V5.33337ZM2.66667 16H3.41667C3.41667 13.4647 3.41826 11.6386 3.60525 10.2479C3.78933 8.87869 4.14063 8.04427 4.7591 7.4258L4.22877 6.89547L3.69844 6.36514C2.75481 7.30877 2.32507 8.51248 2.11862 10.048C1.91508 11.5619 1.91667 13.5071 1.91667 16H2.66667ZM13.3333 21.3334V20.5834H8.00001V21.3334V22.0834H13.3333V21.3334ZM18.6667 21.3334V20.5834H16.6667V21.3334V22.0834H18.6667V21.3334ZM2.66667 13.3334V14.0834H29.3333V13.3334V12.5834H2.66667V13.3334Z" fill="#626060"/>
</svg>
