<svg width="40" height="40" viewBox="0 0 40 40" fill="none" xmlns="http://www.w3.org/2000/svg">
<rect x="0.25" y="0.25" width="39.5" height="39.5" rx="19.75" stroke="#D6D6D6" stroke-opacity="0.3" stroke-width="0.5"/>
<path d="M18.4817 8.48443C19.1572 7.27256 19.495 6.66663 20 6.66663C20.505 6.66663 20.8428 7.27256 21.5183 8.48443L21.6931 8.79795C21.8851 9.14232 21.981 9.31451 22.1307 9.42812C22.2804 9.54173 22.4668 9.58391 22.8395 9.66825L23.1789 9.74504C24.4907 10.0419 25.1467 10.1903 25.3027 10.6921C25.4588 11.1939 25.0116 11.7168 24.1173 12.7626L23.8859 13.0331C23.6318 13.3303 23.5047 13.4789 23.4475 13.6627C23.3904 13.8466 23.4096 14.0448 23.448 14.4413L23.483 14.8023C23.6182 16.1976 23.6858 16.8953 23.2773 17.2054C22.8687 17.5156 22.2546 17.2328 21.0263 16.6673L20.7085 16.5209C20.3595 16.3602 20.185 16.2799 20 16.2799C19.815 16.2799 19.6405 16.3602 19.2915 16.5209L18.9737 16.6672C17.7454 17.2328 17.1313 17.5155 16.7228 17.2054C16.3142 16.8953 16.3818 16.1976 16.517 14.8023L16.552 14.4413C16.5904 14.0448 16.6096 13.8466 16.5525 13.6627C16.4953 13.4789 16.3682 13.3303 16.1141 13.0331L15.8827 12.7626C14.9884 11.7168 14.5412 11.1939 14.6973 10.6921C14.8533 10.1903 15.5093 10.0419 16.8211 9.74504L17.1605 9.66825C17.5333 9.58391 17.7196 9.54173 17.8693 9.42812C18.019 9.31451 18.115 9.14232 18.3069 8.79795L18.4817 8.48443Z" fill="#B8B8B8"/>
<path d="M29.9075 14.2422C30.2453 13.6363 30.4142 13.3333 30.6667 13.3333C30.9192 13.3333 31.0881 13.6363 31.4258 14.2422L31.5132 14.399C31.6092 14.5711 31.6572 14.6572 31.732 14.714C31.8068 14.7708 31.9 14.7919 32.0864 14.8341L32.2561 14.8725C32.912 15.0209 33.24 15.0951 33.318 15.346C33.3961 15.5969 33.1725 15.8584 32.7253 16.3813L32.6096 16.5166C32.4826 16.6651 32.419 16.7394 32.3904 16.8313C32.3619 16.9233 32.3715 17.0224 32.3907 17.2206L32.4082 17.4011C32.4758 18.0988 32.5096 18.4476 32.3053 18.6027C32.101 18.7578 31.794 18.6164 31.1798 18.3336L31.0209 18.2604C30.8464 18.1801 30.7592 18.1399 30.6667 18.1399C30.5742 18.1399 30.4869 18.1801 30.3124 18.2604L30.1535 18.3336C29.5394 18.6164 29.2323 18.7578 29.028 18.6027C28.8238 18.4476 28.8576 18.0988 28.9252 17.4011L28.9427 17.2206C28.9619 17.0224 28.9715 16.9233 28.9429 16.8313C28.9143 16.7394 28.8508 16.6651 28.7237 16.5166L28.608 16.3813C28.1609 15.8584 27.9373 15.5969 28.0153 15.346C28.0933 15.0951 28.4213 15.0209 29.0772 14.8725L29.2469 14.8341C29.4333 14.7919 29.5265 14.7708 29.6013 14.714C29.6762 14.6572 29.7241 14.5711 29.8201 14.399L29.9075 14.2422Z" fill="#B8B8B8"/>
<path d="M8.57418 14.2422C8.91196 13.6363 9.08084 13.3333 9.33334 13.3333C9.58583 13.3333 9.75472 13.6363 10.0925 14.2422L10.1799 14.399C10.2759 14.5711 10.3239 14.6572 10.3987 14.714C10.4735 14.7708 10.5667 14.7919 10.7531 14.8341L10.9228 14.8725C11.5787 15.0209 11.9067 15.0951 11.9847 15.346C12.0627 15.5969 11.8391 15.8584 11.392 16.3813L11.2763 16.5166C11.1492 16.6651 11.0857 16.7394 11.0571 16.8313C11.0285 16.9233 11.0381 17.0224 11.0573 17.2206L11.0748 17.4011C11.1424 18.0988 11.1762 18.4476 10.972 18.6027C10.7677 18.7578 10.4606 18.6164 9.84649 18.3336L9.68761 18.2604C9.51309 18.1801 9.42583 18.1399 9.33334 18.1399C9.24084 18.1399 9.15359 18.1801 8.97907 18.2604L8.82018 18.3336C8.20605 18.6164 7.89899 18.7578 7.69471 18.6027C7.49044 18.4476 7.52424 18.0988 7.59184 17.4011L7.60933 17.2206C7.62855 17.0224 7.63815 16.9233 7.60957 16.8313C7.58099 16.7394 7.51745 16.6651 7.39038 16.5166L7.2747 16.3813C6.82754 15.8584 6.60396 15.5969 6.68198 15.346C6.76001 15.0951 7.08797 15.0209 7.74388 14.8725L7.91357 14.8341C8.09997 14.7919 8.19316 14.7708 8.26799 14.714C8.34282 14.6572 8.39081 14.5711 8.4868 14.399L8.57418 14.2422Z" fill="#B8B8B8"/>
<path d="M23.5685 27.3562C23.5204 27.3618 23.4717 27.3671 23.4224 27.3722C23.4711 27.3722 23.5198 27.3666 23.5685 27.3562Z" fill="#B8B8B8"/>
<path d="M6.66667 24.6666C6.66667 23.5621 7.5621 22.6666 8.66667 22.6666C9.77124 22.6666 10.6667 23.5621 10.6667 24.6666V31.3333C10.6667 32.4379 9.77124 33.3333 8.66667 33.3333C7.5621 33.3333 6.66667 32.4379 6.66667 31.3333V24.6666Z" fill="#B8B8B8"/>
<path d="M10.6667 31.1845H13.6799C15.0277 31.1845 16.39 31.3249 17.7018 31.5951C20.0221 32.0732 22.4651 32.1311 24.8093 31.7516C25.9651 31.5645 27.1014 31.2785 28.13 30.782C29.0585 30.3338 30.1959 29.7021 30.9599 28.9945C31.7228 28.2879 32.5173 27.1315 33.0812 26.2276C33.5648 25.4525 33.3309 24.5015 32.566 23.924C31.7164 23.2825 30.4556 23.2826 29.6062 23.9243L27.1966 25.7445C26.2627 26.45 25.2426 27.0993 24.0274 27.2932C23.8813 27.3165 23.7282 27.3377 23.5685 27.3562M23.5685 27.3562C23.5204 27.3618 23.4717 27.3671 23.4224 27.3722M23.5685 27.3562C23.7629 27.3146 23.9559 27.1947 24.137 27.0366C24.9946 26.2881 25.0489 25.0266 24.3047 24.1908C24.1321 23.9969 23.9301 23.8351 23.7054 23.7012C19.9756 21.4766 14.1726 23.1709 10.6667 25.6572M23.5685 27.3562C23.5198 27.3666 23.4711 27.3722 23.4224 27.3722M23.4224 27.3722C22.7246 27.4438 21.9082 27.4623 21.0024 27.3768M17.1605 9.66825L16.8211 9.74504C15.5093 10.0419 14.8533 10.1903 14.6973 10.6921C14.5412 11.1939 14.9884 11.7168 15.8827 12.7626L16.1141 13.0331C16.3682 13.3303 16.4953 13.4789 16.5525 13.6627C16.6096 13.8466 16.5904 14.0448 16.552 14.4413L16.517 14.8023C16.3818 16.1976 16.3142 16.8953 16.7228 17.2054C17.1313 17.5155 17.7454 17.2328 18.9737 16.6672L19.2915 16.5209C19.6405 16.3602 19.815 16.2799 20 16.2799C20.185 16.2799 20.3595 16.3602 20.7085 16.5209L21.0263 16.6673C22.2546 17.2328 22.8687 17.5156 23.2773 17.2054C23.6858 16.8953 23.6182 16.1976 23.483 14.8023L23.448 14.4413C23.4096 14.0448 23.3904 13.8466 23.4475 13.6627C23.5047 13.4789 23.6318 13.3303 23.8859 13.0331L24.1173 12.7626C25.0116 11.7168 25.4588 11.1939 25.3027 10.6921C25.1467 10.1903 24.4907 10.0419 23.1789 9.74504L22.8395 9.66825C22.4668 9.58391 22.2804 9.54173 22.1307 9.42812C21.981 9.31451 21.8851 9.14232 21.6931 8.79795L21.5183 8.48443C20.8428 7.27256 20.505 6.66663 20 6.66663C19.495 6.66663 19.1572 7.27256 18.4817 8.48443L18.3069 8.79795C18.115 9.14232 18.019 9.31451 17.8693 9.42812C17.7196 9.54173 17.5333 9.58391 17.1605 9.66825ZM29.2469 14.8341L29.0772 14.8725C28.4213 15.0209 28.0933 15.0951 28.0153 15.346C27.9373 15.5969 28.1609 15.8584 28.608 16.3813L28.7237 16.5166C28.8508 16.6651 28.9143 16.7394 28.9429 16.8313C28.9715 16.9233 28.9619 17.0224 28.9427 17.2206L28.9252 17.4011C28.8576 18.0988 28.8238 18.4476 29.028 18.6027C29.2323 18.7578 29.5394 18.6164 30.1535 18.3336L30.3124 18.2604C30.4869 18.1801 30.5742 18.1399 30.6667 18.1399C30.7592 18.1399 30.8464 18.1801 31.0209 18.2604L31.1798 18.3336C31.794 18.6164 32.101 18.7578 32.3053 18.6027C32.5096 18.4476 32.4758 18.0988 32.4082 17.4011L32.3907 17.2206C32.3715 17.0224 32.3619 16.9233 32.3904 16.8313C32.419 16.7394 32.4826 16.6651 32.6096 16.5166L32.7253 16.3813C33.1725 15.8584 33.3961 15.5969 33.318 15.346C33.24 15.0951 32.912 15.0209 32.2561 14.8725L32.0864 14.8341C31.9 14.7919 31.8068 14.7708 31.732 14.714C31.6572 14.6572 31.6092 14.5711 31.5132 14.399L31.4258 14.2422C31.0881 13.6363 30.9192 13.3333 30.6667 13.3333C30.4142 13.3333 30.2453 13.6363 29.9075 14.2422L29.8201 14.399C29.7241 14.5711 29.6762 14.6572 29.6013 14.714C29.5265 14.7708 29.4333 14.7919 29.2469 14.8341ZM7.91357 14.8341L7.74388 14.8725C7.08797 15.0209 6.76001 15.0951 6.68198 15.346C6.60396 15.5969 6.82754 15.8584 7.2747 16.3813L7.39038 16.5166C7.51745 16.6651 7.58099 16.7394 7.60957 16.8313C7.63815 16.9233 7.62855 17.0224 7.60933 17.2206L7.59184 17.4011C7.52424 18.0988 7.49044 18.4476 7.69471 18.6027C7.89899 18.7578 8.20605 18.6164 8.82018 18.3336L8.97907 18.2604C9.15359 18.1801 9.24084 18.1399 9.33334 18.1399C9.42583 18.1399 9.51309 18.1801 9.68761 18.2604L9.84649 18.3336C10.4606 18.6164 10.7677 18.7578 10.972 18.6027C11.1762 18.4476 11.1424 18.0988 11.0748 17.4011L11.0573 17.2206C11.0381 17.0224 11.0285 16.9233 11.0571 16.8313C11.0857 16.7394 11.1492 16.6651 11.2763 16.5166L11.392 16.3813C11.8391 15.8584 12.0627 15.5969 11.9847 15.346C11.9067 15.0951 11.5787 15.0209 10.9228 14.8725L10.7531 14.8341C10.5667 14.7919 10.4735 14.7708 10.3987 14.714C10.3239 14.6572 10.2759 14.5711 10.1799 14.399L10.0925 14.2422C9.75472 13.6363 9.58583 13.3333 9.33334 13.3333C9.08084 13.3333 8.91196 13.6363 8.57418 14.2422L8.4868 14.399C8.39081 14.5711 8.34282 14.6572 8.26799 14.714C8.19316 14.7708 8.09997 14.7919 7.91357 14.8341ZM8.66667 33.3333C7.5621 33.3333 6.66667 32.4379 6.66667 31.3333V24.6666C6.66667 23.5621 7.5621 22.6666 8.66667 22.6666C9.77124 22.6666 10.6667 23.5621 10.6667 24.6666V31.3333C10.6667 32.4379 9.77124 33.3333 8.66667 33.3333Z" stroke="#626060" stroke-width="1.5" stroke-linecap="round"/>
</svg>
