<svg width="16" height="16" viewBox="0 0 16 16" fill="none" xmlns="http://www.w3.org/2000/svg">
<path d="M13.6667 4.5C13.9428 4.5 14.1667 4.27614 14.1667 4C14.1667 3.72386 13.9428 3.5 13.6667 3.5V4V4.5ZM2.33331 3.5C2.05717 3.5 1.83331 3.72386 1.83331 4C1.83331 4.27614 2.05717 4.5 2.33331 4.5V4V3.5ZM12.2488 10.2661L11.7499 10.2328V10.2328L12.2488 10.2661ZM13.0543 5.69993C13.0727 5.4244 12.8642 5.18614 12.5887 5.16777C12.3132 5.14941 12.0749 5.35788 12.0565 5.63341L12.5554 5.66667L13.0543 5.69993ZM3.94321 5.63341C3.92484 5.35788 3.68659 5.14941 3.41106 5.16777C3.13553 5.18614 2.92705 5.4244 2.94542 5.69993L3.44432 5.66667L3.94321 5.63341ZM3.75094 10.2661L3.25205 10.2993L3.75094 10.2661ZM4.50461 13.4605L4.8462 13.0954V13.0954L4.50461 13.4605ZM10.2857 2.85714L10.76 2.69903V2.69903L10.2857 2.85714ZM10.3504 3.05132L9.87608 3.20943L9.87608 3.20943L10.3504 3.05132ZM5.64954 3.05132L5.1752 2.8932L5.1752 2.8932L5.64954 3.05132ZM5.71427 2.85714L5.23992 2.69903V2.69903L5.71427 2.85714ZM5.62612 3.12021L6.09631 3.29029L6.09631 3.29029L5.62612 3.12021ZM4.33331 3.5C4.05717 3.5 3.83331 3.72386 3.83331 4C3.83331 4.27614 4.05717 4.5 4.33331 4.5V4V3.5ZM4.40608 3.99957L4.41874 4.49941L4.41875 4.49941L4.40608 3.99957ZM10.3738 3.12021L10.844 2.95013L10.844 2.95012L10.3738 3.12021ZM11.6666 4.5C11.9428 4.5 12.1666 4.27614 12.1666 4C12.1666 3.72386 11.9428 3.5 11.6666 3.5V4V4.5ZM11.5939 3.99957L11.5812 4.49941L11.5812 4.49941L11.5939 3.99957ZM9.43691 2.01251L9.51575 1.51877V1.51877L9.43691 2.01251ZM10.1662 2.53813L10.6096 2.3072L10.6096 2.3072L10.1662 2.53813ZM6.56305 2.01251L6.48421 1.51877V1.51877L6.56305 2.01251ZM5.83379 2.53813L5.39031 2.3072L5.39031 2.3072L5.83379 2.53813ZM13.6667 4V3.5H2.33331V4V4.5H13.6667V4ZM7.74208 14V14.5H8.25766V14V13.5H7.74208V14ZM12.2488 10.2661L12.7477 10.2993L13.0543 5.69993L12.5554 5.66667L12.0565 5.63341L11.7499 10.2328L12.2488 10.2661ZM3.44432 5.66667L2.94542 5.69993L3.25205 10.2993L3.75094 10.2661L4.24984 10.2328L3.94321 5.63341L3.44432 5.66667ZM8.25766 14V14.5C9.13097 14.5 9.8347 14.501 10.3902 14.4283C10.96 14.3538 11.4423 14.1946 11.8367 13.8256L11.4951 13.4605L11.1535 13.0954C10.9713 13.2659 10.7218 13.3764 10.2605 13.4368C9.78489 13.499 9.15822 13.5 8.25766 13.5V14ZM12.2488 10.2661L11.7499 10.2328C11.69 11.1314 11.6473 11.7566 11.5536 12.227C11.4627 12.6833 11.3358 12.9248 11.1535 13.0954L11.4951 13.4605L11.8367 13.8256C12.2311 13.4566 12.4221 12.9859 12.5343 12.4224C12.6438 11.8729 12.6896 11.1707 12.7477 10.2993L12.2488 10.2661ZM7.74208 14V13.5C6.84152 13.5 6.21485 13.499 5.73925 13.4368C5.27792 13.3764 5.02848 13.2659 4.8462 13.0954L4.50461 13.4605L4.16302 13.8256C4.55741 14.1946 5.03978 14.3538 5.60955 14.4283C6.16505 14.501 6.86878 14.5 7.74208 14.5V14ZM3.75094 10.2661L3.25205 10.2993C3.31014 11.1707 3.35595 11.8729 3.46541 12.4224C3.57767 12.9859 3.76862 13.4566 4.16302 13.8256L4.50461 13.4605L4.8462 13.0954C4.66393 12.9248 4.53704 12.6833 4.44614 12.227C4.35243 11.7566 4.30974 11.1314 4.24984 10.2328L3.75094 10.2661ZM6.90349 2V2.5H9.09647V2V1.5H6.90349V2ZM10.2857 2.85714L9.81135 3.01526L9.87608 3.20943L10.3504 3.05132L10.8248 2.8932L10.76 2.69903L10.2857 2.85714ZM5.64954 3.05132L6.12388 3.20943L6.18861 3.01526L5.71427 2.85714L5.23992 2.69903L5.1752 2.8932L5.64954 3.05132ZM5.64954 3.05132L5.1752 2.8932C5.16254 2.93118 5.15901 2.94165 5.15594 2.95014L5.62612 3.12021L6.09631 3.29029C6.10473 3.26701 6.11298 3.24213 6.12388 3.20943L5.64954 3.05132ZM4.33331 4V4.5C4.36779 4.5 4.39399 4.50004 4.41874 4.49941L4.40608 3.99957L4.39341 3.49973C4.38439 3.49996 4.37335 3.5 4.33331 3.5V4ZM5.62612 3.12021L5.15594 2.95013C5.03919 3.27288 4.73651 3.49104 4.39341 3.49973L4.40608 3.99957L4.41875 4.49941C5.17357 4.48028 5.83946 4.00033 6.09631 3.29029L5.62612 3.12021ZM10.3504 3.05132L9.87608 3.20943C9.8869 3.24191 9.89525 3.26706 9.90366 3.29031L10.3738 3.12021L10.844 2.95012C10.841 2.94169 10.8374 2.93099 10.8248 2.8932L10.3504 3.05132ZM11.6666 4V3.5C11.6266 3.5 11.6156 3.49996 11.6065 3.49973L11.5939 3.99957L11.5812 4.49941C11.606 4.50004 11.6322 4.5 11.6666 4.5V4ZM10.3738 3.12021L9.90365 3.29029C10.1605 4.00033 10.8264 4.48028 11.5812 4.49941L11.5939 3.99957L11.6065 3.49973C11.2634 3.49104 10.9608 3.27288 10.844 2.95013L10.3738 3.12021ZM9.09647 2V2.5C9.28868 2.5 9.32838 2.50152 9.35806 2.50626L9.43691 2.01251L9.51575 1.51877C9.38874 1.49848 9.25371 1.5 9.09647 1.5V2ZM10.2857 2.85714L10.76 2.69903C10.7103 2.54986 10.669 2.42128 10.6096 2.3072L10.1662 2.53813L9.72269 2.76906C9.73658 2.79573 9.75057 2.83291 9.81135 3.01526L10.2857 2.85714ZM9.43691 2.01251L9.35806 2.50626C9.51435 2.53121 9.6496 2.62869 9.7227 2.76907L10.1662 2.53813L10.6096 2.3072C10.3903 1.88607 9.98462 1.59364 9.51575 1.51877L9.43691 2.01251ZM6.90349 2V1.5C6.74625 1.5 6.61122 1.49848 6.48421 1.51877L6.56305 2.01251L6.6419 2.50626C6.67158 2.50152 6.71128 2.5 6.90349 2.5V2ZM5.71427 2.85714L6.18861 3.01526C6.24939 2.83292 6.26338 2.79573 6.27726 2.76907L5.83379 2.53813L5.39031 2.3072C5.33091 2.42128 5.28964 2.54987 5.23992 2.69903L5.71427 2.85714ZM6.56305 2.01251L6.48421 1.51877C6.01534 1.59364 5.60961 1.88607 5.39031 2.3072L5.83379 2.53813L6.27726 2.76907C6.35036 2.62869 6.48561 2.53121 6.6419 2.50626L6.56305 2.01251Z" fill="#F04248"/>
</svg>
