<svg width="16" height="16" viewBox="0 0 16 16" fill="none" xmlns="http://www.w3.org/2000/svg">
<g clip-path="url(#clip0_2480_23877)">
<path d="M14.1666 9.19662C14.1666 9.47276 14.3905 9.69662 14.6666 9.69662C14.9428 9.69662 15.1666 9.47276 15.1666 9.19662H14.6666H14.1666ZM9.33331 15.1667C9.60946 15.1667 9.83331 14.9428 9.83331 14.6667C9.83331 14.3906 9.60946 14.1667 9.33331 14.1667V14.6667V15.1667ZM2.11436 13.8656L2.47236 13.5166H2.47236L2.11436 13.8656ZM13.8856 3.16009L13.5276 3.50914V3.50914L13.8856 3.16009ZM2.11436 3.16009L2.47236 3.50914V3.50914L2.11436 3.16009ZM4.16665 2.35901C4.16665 2.63516 4.3905 2.85901 4.66665 2.85901C4.94279 2.85901 5.16665 2.63516 5.16665 2.35901H4.66665H4.16665ZM5.16665 1.33337C5.16665 1.05723 4.94279 0.833374 4.66665 0.833374C4.3905 0.833374 4.16665 1.05723 4.16665 1.33337H4.66665H5.16665ZM10.8333 2.35901C10.8333 2.63516 11.0572 2.85901 11.3333 2.85901C11.6095 2.85901 11.8333 2.63516 11.8333 2.35901H11.3333H10.8333ZM11.8333 1.33337C11.8333 1.05723 11.6095 0.833374 11.3333 0.833374C11.0572 0.833374 10.8333 1.05723 10.8333 1.33337H11.3333H11.8333ZM1.66665 5.27782C1.3905 5.27782 1.16665 5.50168 1.16665 5.77782C1.16665 6.05396 1.3905 6.27782 1.66665 6.27782V5.77782V5.27782ZM14.3333 6.27782C14.6095 6.27782 14.8333 6.05396 14.8333 5.77782C14.8333 5.50168 14.6095 5.27782 14.3333 5.27782V5.77782V6.27782ZM10.2479 11.5278L9.80346 11.7569C9.88504 11.9152 10.0446 12.0181 10.2225 12.0272L10.2479 11.5278ZM11.6412 12.0994C11.917 12.1134 12.152 11.9012 12.166 11.6255C12.18 11.3497 11.9679 11.1147 11.6921 11.1007L11.6666 11.6L11.6412 12.0994ZM10.1111 10.171C9.98458 9.92551 9.68304 9.82909 9.43758 9.9556C9.19212 10.0821 9.09569 10.3836 9.22221 10.6291L9.66665 10.4L10.1111 10.171ZM13.5402 11.1513C13.6848 11.3865 13.9928 11.46 14.228 11.3154C14.4632 11.1708 14.5367 10.8628 14.3921 10.6276L13.9661 10.8894L13.5402 11.1513ZM14.2022 12.4723L14.633 12.2185C14.548 12.0742 14.3965 11.982 14.2293 11.973L14.2022 12.4723ZM12.8936 11.9008C12.6179 11.8859 12.3823 12.0973 12.3674 12.373C12.3525 12.6488 12.5639 12.8844 12.8396 12.8993L12.8666 12.4L12.8936 11.9008ZM14.4358 13.8538C14.576 14.0918 14.8825 14.171 15.1204 14.0308C15.3584 13.8907 15.4376 13.5842 15.2974 13.3462L14.8666 13.6L14.4358 13.8538ZM10.91 12.8488C10.7653 12.6135 10.4574 12.5401 10.2222 12.6847C9.98691 12.8293 9.91345 13.1373 10.0581 13.3725L10.484 13.1106L10.91 12.8488ZM6.66665 2.35901V2.85901H9.33331V2.35901V1.85901H6.66665V2.35901ZM14.6666 7.8291H14.1666V9.19662H14.6666H15.1666V7.8291H14.6666ZM9.33331 14.6667V14.1667H6.66665V14.6667V15.1667H9.33331V14.6667ZM1.33331 9.19662H1.83331V7.8291H1.33331H0.833313V9.19662H1.33331ZM6.66665 14.6667V14.1667C5.39508 14.1667 4.49298 14.1656 3.80889 14.0713C3.14051 13.9791 2.75505 13.8065 2.47236 13.5166L2.11436 13.8656L1.75636 14.2147C2.25472 14.7258 2.88833 14.9538 3.67229 15.0619C4.44054 15.1678 5.42405 15.1667 6.66665 15.1667V14.6667ZM1.33331 9.19662H0.833313C0.833313 10.4721 0.832303 11.4778 0.935185 12.2627C1.03979 13.0607 1.25972 13.7053 1.75636 14.2147L2.11436 13.8656L2.47236 13.5166C2.18795 13.2249 2.01736 12.8243 1.9267 12.1327C1.83432 11.428 1.83331 10.4997 1.83331 9.19662H1.33331ZM9.33331 2.35901V2.85901C10.6049 2.85901 11.507 2.86013 12.1911 2.95446C12.8594 3.04663 13.2449 3.2192 13.5276 3.50914L13.8856 3.16009L14.2436 2.81104C13.7452 2.2999 13.1116 2.07194 12.3277 1.96384C11.5594 1.8579 10.5759 1.85901 9.33331 1.85901V2.35901ZM14.6666 7.8291H15.1666C15.1666 6.55358 15.1677 5.54788 15.0648 4.76303C14.9602 3.96506 14.7402 3.32041 14.2436 2.81104L13.8856 3.16009L13.5276 3.50914C13.812 3.80085 13.9826 4.20139 14.0733 4.893C14.1656 5.59773 14.1666 6.526 14.1666 7.8291H14.6666ZM6.66665 2.35901V1.85901C5.42406 1.85901 4.44054 1.8579 3.67229 1.96384C2.88833 2.07194 2.25472 2.2999 1.75636 2.81104L2.11436 3.16009L2.47236 3.50914C2.75505 3.2192 3.14051 3.04663 3.80889 2.95446C4.49298 2.86013 5.39508 2.85901 6.66665 2.85901V2.35901ZM1.33331 7.8291H1.83331C1.83331 6.526 1.83432 5.59773 1.9267 4.893C2.01736 4.20139 2.18795 3.80084 2.47236 3.50914L2.11436 3.16009L1.75636 2.81104C1.25972 3.32041 1.03979 3.96506 0.935185 4.76303C0.832303 5.54788 0.833313 6.55358 0.833313 7.8291H1.33331ZM4.66665 2.35901H5.16665V1.33337H4.66665H4.16665V2.35901H4.66665ZM11.3333 2.35901H11.8333V1.33337H11.3333H10.8333V2.35901H11.3333ZM1.66665 5.77782V6.27782H14.3333V5.77782V5.27782H1.66665V5.77782ZM10.2479 11.5278L10.2225 12.0272L11.6412 12.0994L11.6666 11.6L11.6921 11.1007L10.2733 11.0285L10.2479 11.5278ZM10.2479 11.5278L10.6923 11.2987L10.1111 10.171L9.66665 10.4L9.22221 10.6291L9.80346 11.7569L10.2479 11.5278ZM13.9661 10.8894L14.3921 10.6276C14.1962 10.3089 13.6163 9.50004 12.2876 9.50004V10V10.5C13.1137 10.5 13.4266 10.9665 13.5402 11.1513L13.9661 10.8894ZM12.2876 10V9.50004C11.5386 9.50004 11.0213 9.75851 10.6324 10.1425C10.2867 10.4838 10.0292 10.9545 9.83188 11.2505L10.2479 11.5278L10.6639 11.8052C10.9388 11.3928 11.0863 11.0996 11.335 10.8541C11.5404 10.6513 11.8068 10.5 12.2876 10.5V10ZM14.2022 12.4723L14.2293 11.973L12.8936 11.9008L12.8666 12.4L12.8396 12.8993L14.1752 12.9715L14.2022 12.4723ZM14.2022 12.4723L13.7714 12.7261L14.4358 13.8538L14.8666 13.6L15.2974 13.3462L14.633 12.2185L14.2022 12.4723ZM10.484 13.1106L10.0581 13.3725C10.254 13.6912 10.8339 14.5 12.1626 14.5V14V13.5C11.3365 13.5 11.0235 13.0336 10.91 12.8488L10.484 13.1106ZM12.1626 14V14.5C12.9115 14.5 13.4289 14.2416 13.8178 13.8576C14.1634 13.5163 14.421 13.0456 14.6183 12.7496L14.2022 12.4723L13.7862 12.1949C13.5113 12.6073 13.3639 12.9005 13.1152 13.146C12.9098 13.3488 12.6434 13.5 12.1626 13.5V14Z" fill="#626060"/>
</g>
<defs>
<clipPath id="clip0_2480_23877">
<rect width="16" height="16" fill="white"/>
</clipPath>
</defs>
</svg>
