<svg width="16" height="16" viewBox="0 0 16 16" fill="none" xmlns="http://www.w3.org/2000/svg">
<path d="M11.3334 10.1666C11.0572 10.1666 10.8334 10.3905 10.8334 10.6666C10.8334 10.9428 11.0572 11.1666 11.3334 11.1666V10.6666V10.1666ZM12.6667 11.1666C12.9428 11.1666 13.1667 10.9428 13.1667 10.6666C13.1667 10.3905 12.9428 10.1666 12.6667 10.1666V10.6666V11.1666ZM10.6667 3.99998H10.1667C10.1667 5.1966 9.19664 6.16665 8.00002 6.16665V6.66665V7.16665C9.74892 7.16665 11.1667 5.74888 11.1667 3.99998H10.6667ZM8.00002 6.66665V6.16665C6.8034 6.16665 5.83335 5.1966 5.83335 3.99998H5.33335H4.83335C4.83335 5.74888 6.25112 7.16665 8.00002 7.16665V6.66665ZM5.33335 3.99998H5.83335C5.83335 2.80336 6.8034 1.83331 8.00002 1.83331V1.33331V0.833313C6.25112 0.833313 4.83335 2.25108 4.83335 3.99998H5.33335ZM8.00002 1.33331V1.83331C9.19664 1.83331 10.1667 2.80336 10.1667 3.99998H10.6667H11.1667C11.1667 2.25108 9.74892 0.833313 8.00002 0.833313V1.33331ZM8.00002 14.6666V14.1666C6.68387 14.1666 5.72051 14.0835 5.01588 13.9408C4.30904 13.7978 3.8961 13.6014 3.64908 13.4003C3.19356 13.0293 3.16669 12.5385 3.16669 11.6666H2.66669H2.16669C2.16669 12.4516 2.13981 13.4608 3.01763 14.1757C3.43727 14.5174 4.02434 14.7604 4.81749 14.921C5.61286 15.0819 6.6495 15.1666 8.00002 15.1666V14.6666ZM2.66669 11.6666H3.16669C3.16669 11.0991 3.58094 10.4834 4.47391 9.98111C5.35122 9.48763 6.59687 9.16665 8.00002 9.16665V8.66665V8.16665C6.45765 8.16665 5.03664 8.51723 3.98365 9.10954C2.94634 9.69303 2.16669 10.5774 2.16669 11.6666H2.66669ZM8.00002 8.66665V9.16665C8.67123 9.16665 9.30906 9.24018 9.88901 9.37224L10 8.88472L10.111 8.39719C9.45574 8.24799 8.74334 8.16665 8.00002 8.16665V8.66665ZM13.2045 13L12.7284 12.8473C12.624 13.1729 12.3983 13.4867 11.7309 13.7352C11.0289 13.9965 9.87958 14.1666 8.00002 14.1666V14.6666V15.1666C9.91209 15.1666 11.2066 14.9974 12.0798 14.6723C12.9875 14.3344 13.4682 13.8149 13.6806 13.1527L13.2045 13ZM14.6667 10.6666H14.1667C14.1667 11.8633 13.1966 12.8333 12 12.8333V13.3333V13.8333C13.7489 13.8333 15.1667 12.4155 15.1667 10.6666H14.6667ZM12 13.3333V12.8333C10.8034 12.8333 9.83335 11.8633 9.83335 10.6666H9.33335H8.83335C8.83335 12.4155 10.2511 13.8333 12 13.8333V13.3333ZM9.33335 10.6666H9.83335C9.83335 9.47003 10.8034 8.49998 12 8.49998V7.99998V7.49998C10.2511 7.49998 8.83335 8.91774 8.83335 10.6666H9.33335ZM12 7.99998V8.49998C13.1966 8.49998 14.1667 9.47003 14.1667 10.6666H14.6667H15.1667C15.1667 8.91774 13.7489 7.49998 12 7.49998V7.99998ZM11.3334 10.6666V11.1666H12.6667V10.6666V10.1666H11.3334V10.6666Z" fill="#626060"/>
</svg>
