<svg width="16" height="16" viewBox="0 0 16 16" fill="none" xmlns="http://www.w3.org/2000/svg">
<g clip-path="url(#clip0_2480_23889)">
<path d="M14.1666 9.19656C14.1666 9.4727 14.3905 9.69656 14.6666 9.69656C14.9428 9.69656 15.1666 9.4727 15.1666 9.19656H14.6666H14.1666ZM9.33331 15.1666C9.60946 15.1666 9.83331 14.9428 9.83331 14.6666C9.83331 14.3905 9.60946 14.1666 9.33331 14.1666V14.6666V15.1666ZM2.11436 13.8656L2.47236 13.5165H2.47236L2.11436 13.8656ZM4.16665 2.35895C4.16665 2.6351 4.3905 2.85895 4.66665 2.85895C4.94279 2.85895 5.16665 2.6351 5.16665 2.35895H4.66665H4.16665ZM5.16665 1.33331C5.16665 1.05717 4.94279 0.833313 4.66665 0.833313C4.3905 0.833313 4.16665 1.05717 4.16665 1.33331H4.66665H5.16665ZM10.8333 2.35895C10.8333 2.6351 11.0572 2.85895 11.3333 2.85895C11.6095 2.85895 11.8333 2.6351 11.8333 2.35895H11.3333H10.8333ZM11.8333 1.33331C11.8333 1.05717 11.6095 0.833313 11.3333 0.833313C11.0572 0.833313 10.8333 1.05717 10.8333 1.33331H11.3333H11.8333ZM1.66665 5.27776C1.3905 5.27776 1.16665 5.50161 1.16665 5.77776C1.16665 6.0539 1.3905 6.27776 1.66665 6.27776V5.77776V5.27776ZM14.3333 6.27776C14.6095 6.27776 14.8333 6.0539 14.8333 5.77776C14.8333 5.50161 14.6095 5.27776 14.3333 5.27776V5.77776V6.27776ZM9.33331 11.8333C9.05717 11.8333 8.83331 12.0572 8.83331 12.3333C8.83331 12.6095 9.05717 12.8333 9.33331 12.8333V12.3333V11.8333ZM14.6666 12.3333L15.0571 12.6457C15.2032 12.4631 15.2032 12.2036 15.0571 12.021L14.6666 12.3333ZM13.7237 10.3543C13.5512 10.1387 13.2366 10.1037 13.021 10.2762C12.8053 10.4487 12.7704 10.7634 12.9429 10.979L13.3333 10.6666L13.7237 10.3543ZM12.9429 13.6876C12.7704 13.9033 12.8053 14.2179 13.021 14.3904C13.2366 14.5629 13.5512 14.528 13.7237 14.3123L13.3333 14L12.9429 13.6876ZM6.66665 2.35895V2.85895H9.33331V2.35895V1.85895H6.66665V2.35895ZM14.6666 7.82904H14.1666V9.19656H14.6666H15.1666V7.82904H14.6666ZM9.33331 14.6666V14.1666H6.66665V14.6666V15.1666H9.33331V14.6666ZM1.33331 9.19656H1.83331V7.82904H1.33331H0.833313V9.19656H1.33331ZM6.66665 14.6666V14.1666C5.39508 14.1666 4.49298 14.1655 3.80889 14.0712C3.14051 13.979 2.75505 13.8065 2.47236 13.5165L2.11436 13.8656L1.75636 14.2146C2.25472 14.7258 2.88833 14.9537 3.67229 15.0618C4.44054 15.1678 5.42405 15.1666 6.66665 15.1666V14.6666ZM1.33331 9.19656H0.833313C0.833313 10.4721 0.832303 11.4778 0.935185 12.2626C1.03979 13.0606 1.25972 13.7052 1.75636 14.2146L2.11436 13.8656L2.47236 13.5165C2.18795 13.2248 2.01736 12.8243 1.9267 12.1327C1.83432 11.4279 1.83331 10.4997 1.83331 9.19656H1.33331ZM9.33331 2.35895V2.85895C10.6049 2.85895 11.507 2.86007 12.1911 2.9544C12.8594 3.04657 13.2449 3.21914 13.5276 3.50908L13.8856 3.16003L14.2436 2.81098C13.7452 2.29984 13.1116 2.07188 12.3277 1.96378C11.5594 1.85784 10.5759 1.85895 9.33331 1.85895V2.35895ZM14.6666 7.82904H15.1666C15.1666 6.55352 15.1677 5.54782 15.0648 4.76297C14.9602 3.965 14.7402 3.32035 14.2436 2.81098L13.8856 3.16003L13.5276 3.50908C13.812 3.80078 13.9826 4.20133 14.0733 4.89294C14.1656 5.59767 14.1666 6.52594 14.1666 7.82904H14.6666ZM6.66665 2.35895V1.85895C5.42405 1.85895 4.44054 1.85784 3.67229 1.96378C2.88833 2.07188 2.25472 2.29984 1.75636 2.81098L2.11436 3.16003L2.47236 3.50908C2.75505 3.21914 3.14051 3.04657 3.80889 2.9544C4.49298 2.86007 5.39508 2.85895 6.66665 2.85895V2.35895ZM1.33331 7.82904H1.83331C1.83331 6.52594 1.83432 5.59767 1.9267 4.89294C2.01736 4.20133 2.18795 3.80078 2.47236 3.50908L2.11436 3.16003L1.75636 2.81098C1.25972 3.32035 1.03979 3.965 0.935185 4.76297C0.832303 5.54782 0.833313 6.55352 0.833313 7.82904H1.33331ZM4.66665 2.35895H5.16665V1.33331H4.66665H4.16665V2.35895H4.66665ZM11.3333 2.35895H11.8333V1.33331H11.3333H10.8333V2.35895H11.3333ZM1.66665 5.77776V6.27776H14.3333V5.77776V5.27776H1.66665V5.77776ZM9.33331 12.3333V12.8333C11.412 12.8333 12.5879 12.8333 14.6666 12.8333V12.3333L14.6666 11.8333C12.5879 11.8333 11.412 11.8333 9.33331 11.8333V12.3333ZM13.3333 10.6666L12.9429 10.979L14.2762 12.6457L14.6666 12.3333L15.0571 12.021L13.7237 10.3543L13.3333 10.6666ZM14.6666 12.3333L14.2762 12.021L12.9429 13.6876L13.3333 14L13.7237 14.3123L15.0571 12.6457L14.6666 12.3333Z" fill="#626060"/>
</g>
<defs>
<clipPath id="clip0_2480_23889">
<rect width="16" height="16" fill="white"/>
</clipPath>
</defs>
</svg>
