<svg width="20" height="20" viewBox="0 0 20 20" fill="none" xmlns="http://www.w3.org/2000/svg">
<path d="M15.6243 8.09163V7.50446C15.6243 4.28052 13.1062 1.66699 10 1.66699C6.8938 1.66699 4.37573 4.28052 4.37573 7.50446V8.09163C4.37573 8.79629 4.17476 9.48518 3.79817 10.0715L2.8753 11.5083C2.03235 12.8206 2.67587 14.6044 4.14197 15.0194C7.97728 16.1051 12.0227 16.1051 15.858 15.0194C17.3241 14.6044 17.9676 12.8206 17.1247 11.5083L16.2018 10.0715C15.8252 9.48518 15.6243 8.79629 15.6243 8.09163Z" fill="#96BFFF"/>
<path d="M16.2018 10.0715L15.7811 10.3417L15.7811 10.3417L16.2018 10.0715ZM17.1247 11.5083L17.5454 11.238L17.5454 11.238L17.1247 11.5083ZM2.8753 11.5083L2.45461 11.238L2.45461 11.238L2.8753 11.5083ZM3.79817 10.0715L4.21886 10.3417L4.21886 10.3417L3.79817 10.0715ZM15.858 15.0194L15.7219 14.5383L15.7219 14.5383L15.858 15.0194ZM4.14197 15.0194L4.27815 14.5383L4.27815 14.5383L4.14197 15.0194ZM6.7182 15.6582C6.62129 15.3996 6.33311 15.2686 6.07453 15.3655C5.81595 15.4624 5.68489 15.7505 5.7818 16.0091L6.25 15.8337L6.7182 15.6582ZM14.2182 16.0091C14.3151 15.7505 14.184 15.4624 13.9255 15.3655C13.6669 15.2686 13.3787 15.3996 13.2818 15.6582L13.75 15.8337L14.2182 16.0091ZM15.6243 7.50446H15.1243V8.09163H15.6243H16.1243V7.50446H15.6243ZM16.2018 10.0715L15.7811 10.3417L16.704 11.7785L17.1247 11.5083L17.5454 11.238L16.6225 9.80127L16.2018 10.0715ZM2.8753 11.5083L3.29599 11.7785L4.21886 10.3417L3.79817 10.0715L3.37747 9.80127L2.45461 11.238L2.8753 11.5083ZM4.37573 8.09163H4.87573V7.50446H4.37573H3.87573V8.09163H4.37573ZM15.858 15.0194L15.7219 14.5383C11.9756 15.5988 8.02443 15.5988 4.27815 14.5383L4.14197 15.0194L4.00579 15.5005C7.93014 16.6114 12.0699 16.6114 15.9942 15.5005L15.858 15.0194ZM3.79817 10.0715L4.21886 10.3417C4.64785 9.67383 4.87573 8.89096 4.87573 8.09163H4.37573H3.87573C3.87573 8.70162 3.70168 9.29653 3.37747 9.80127L3.79817 10.0715ZM15.6243 8.09163H15.1243C15.1243 8.89096 15.3522 9.67383 15.7811 10.3417L16.2018 10.0715L16.6225 9.80127C16.2983 9.29653 16.1243 8.70162 16.1243 8.09163H15.6243ZM2.8753 11.5083L2.45461 11.238C1.43984 12.8179 2.1998 14.9893 4.00579 15.5005L4.14197 15.0194L4.27815 14.5383C3.15195 14.2195 2.62487 12.8233 3.29599 11.7785L2.8753 11.5083ZM17.1247 11.5083L16.704 11.7785C17.3751 12.8233 16.8481 14.2195 15.7219 14.5383L15.858 15.0194L15.9942 15.5005C17.8002 14.9893 18.5602 12.8179 17.5454 11.238L17.1247 11.5083ZM10 1.66699V2.16699C12.8127 2.16699 15.1243 4.53896 15.1243 7.50446H15.6243H16.1243C16.1243 4.02207 13.3997 1.16699 10 1.16699V1.66699ZM10 1.66699V1.16699C6.60029 1.16699 3.87573 4.02207 3.87573 7.50446H4.37573H4.87573C4.87573 4.53896 7.18731 2.16699 10 2.16699V1.66699ZM10 5.00033H9.5V8.33366H10H10.5V5.00033H10ZM6.25 15.8337L5.7818 16.0091C6.40363 17.6683 8.06841 18.8337 10 18.8337V18.3337V17.8337C8.46901 17.8337 7.18808 16.9119 6.7182 15.6582L6.25 15.8337ZM10 18.3337V18.8337C11.9316 18.8337 13.5964 17.6683 14.2182 16.0091L13.75 15.8337L13.2818 15.6582C12.8119 16.9119 11.531 17.8337 10 17.8337V18.3337Z" fill="#424242"/>
</svg>
