<svg width="16" height="16" viewBox="0 0 16 16" fill="none" xmlns="http://www.w3.org/2000/svg">
<path d="M7.99992 14.6668C11.6818 14.6668 14.6666 11.6821 14.6666 8.00016C14.6666 4.31826 11.6818 1.3335 7.99992 1.3335C4.31802 1.3335 1.33325 4.31826 1.33325 8.00016C1.33325 11.6821 4.31802 14.6668 7.99992 14.6668Z" fill="#96BFFF"/>
<path d="M5.66659 8.3335L6.99992 9.66683L10.3333 6.3335" fill="#96BFFF"/>
<path d="M6.02014 7.97994C5.82488 7.78468 5.50829 7.78468 5.31303 7.97994C5.11777 8.1752 5.11777 8.49179 5.31303 8.68705L5.66658 8.3335L6.02014 7.97994ZM6.99992 9.66683L6.64636 10.0204C6.84163 10.2156 7.15821 10.2156 7.35347 10.0204L6.99992 9.66683ZM10.6868 6.68705C10.8821 6.49179 10.8821 6.1752 10.6868 5.97994C10.4915 5.78468 10.175 5.78468 9.9797 5.97994L10.3333 6.3335L10.6868 6.68705ZM14.6666 8.00016H14.1666C14.1666 11.4059 11.4057 14.1668 7.99992 14.1668V14.6668V15.1668C11.958 15.1668 15.1666 11.9582 15.1666 8.00016H14.6666ZM7.99992 14.6668V14.1668C4.59416 14.1668 1.83325 11.4059 1.83325 8.00016H1.33325H0.833252C0.833252 11.9582 4.04188 15.1668 7.99992 15.1668V14.6668ZM1.33325 8.00016H1.83325C1.83325 4.59441 4.59416 1.8335 7.99992 1.8335V1.3335V0.833496C4.04188 0.833496 0.833252 4.04212 0.833252 8.00016H1.33325ZM7.99992 1.3335V1.8335C11.4057 1.8335 14.1666 4.59441 14.1666 8.00016H14.6666H15.1666C15.1666 4.04212 11.958 0.833496 7.99992 0.833496V1.3335ZM5.66658 8.3335L5.31303 8.68705L6.64636 10.0204L6.99992 9.66683L7.35347 9.31328L6.02014 7.97994L5.66658 8.3335ZM6.99992 9.66683L7.35347 10.0204L10.6868 6.68705L10.3333 6.3335L9.9797 5.97994L6.64636 9.31328L6.99992 9.66683Z" fill="#424242"/>
</svg>
