<svg width="18" height="18" viewBox="0 0 18 18" fill="none" xmlns="http://www.w3.org/2000/svg">
<path d="M4.16667 1.78205C4.16667 2.05819 4.39052 2.28205 4.66667 2.28205C4.94281 2.28205 5.16667 2.05819 5.16667 1.78205H4.66667H4.16667ZM5.16667 0.5C5.16667 0.223858 4.94281 0 4.66667 0C4.39052 0 4.16667 0.223858 4.16667 0.5H4.66667H5.16667ZM12.5 1.78205C12.5 2.05819 12.7239 2.28205 13 2.28205C13.2761 2.28205 13.5 2.05819 13.5 1.78205H13H12.5ZM13.5 0.5C13.5 0.223858 13.2761 0 13 0C12.7239 0 12.5 0.223858 12.5 0.5H13H13.5ZM0.916667 5.55556C0.640524 5.55556 0.416667 5.77941 0.416667 6.05556C0.416667 6.3317 0.640524 6.55556 0.916667 6.55556V6.05556V5.55556ZM16.75 6.55556C17.0261 6.55556 17.25 6.3317 17.25 6.05556C17.25 5.77941 17.0261 5.55556 16.75 5.55556V6.05556V6.55556ZM6.69133 10.4074C6.49856 10.2096 6.182 10.2056 5.98428 10.3984C5.78657 10.5912 5.78256 10.9077 5.97533 11.1055L6.33333 10.7564L6.69133 10.4074ZM8 12.4658L7.642 12.8149C7.73611 12.9114 7.8652 12.9658 8 12.9658C8.1348 12.9658 8.26389 12.9114 8.358 12.8149L8 12.4658ZM11.6913 9.39606C11.8841 9.19834 11.8801 8.88178 11.6824 8.68901C11.4847 8.49623 11.1681 8.50024 10.9753 8.69796L11.3333 9.04701L11.6913 9.39606ZM7.16667 1.78205V2.28205H10.5V1.78205V1.28205H7.16667V1.78205ZM17.1667 8.61966H16.6667V10.3291H17.1667H17.6667V8.61966H17.1667ZM10.5 17.1667V16.6667H7.16667V17.1667V17.6667H10.5V17.1667ZM0.5 10.3291H1V8.61966H0.5H0V10.3291H0.5ZM7.16667 17.1667V16.6667C5.58083 16.6667 4.44303 16.6656 3.57739 16.5462C2.72747 16.429 2.21463 16.2063 1.83431 15.8163L1.47631 16.1653L1.11831 16.5144C1.7143 17.1256 2.47529 17.4037 3.44079 17.5368C4.39059 17.6678 5.60981 17.6667 7.16667 17.6667V17.1667ZM0.5 10.3291H0C0 11.9269 -0.00101036 13.1744 0.12628 14.1454C0.255289 15.1296 0.524043 15.9049 1.11831 16.5144L1.47631 16.1653L1.83431 15.8163C1.45227 15.4244 1.23287 14.8932 1.1178 14.0154C1.00101 13.1245 1 11.9545 1 10.3291H0.5ZM17.1667 10.3291H16.6667C16.6667 11.9545 16.6657 13.1245 16.5489 14.0154C16.4338 14.8932 16.2144 15.4244 15.8324 15.8163L16.1904 16.1653L16.5484 16.5144C17.1426 15.9049 17.4114 15.1296 17.5404 14.1454C17.6677 13.1744 17.6667 11.9269 17.6667 10.3291H17.1667ZM10.5 17.1667V17.6667C12.0569 17.6667 13.2761 17.6678 14.2259 17.5368C15.1914 17.4037 15.9524 17.1256 16.5484 16.5144L16.1904 16.1653L15.8324 15.8163C15.452 16.2063 14.9392 16.429 14.0893 16.5462C13.2236 16.6656 12.0858 16.6667 10.5 16.6667V17.1667ZM10.5 1.78205V2.28205C12.0858 2.28205 13.2236 2.28317 14.0893 2.40253C14.9392 2.51973 15.452 2.74237 15.8324 3.13245L16.1904 2.7834L16.5484 2.43435C15.9524 1.82307 15.1914 1.54504 14.2259 1.41191C13.2761 1.28094 12.0569 1.28205 10.5 1.28205V1.78205ZM17.1667 8.61966H17.6667C17.6667 7.02181 17.6677 5.77436 17.5404 4.80331C17.4114 3.81915 17.1426 3.04385 16.5484 2.43435L16.1904 2.7834L15.8324 3.13245C16.2144 3.52428 16.4338 4.05548 16.5489 4.93329C16.6657 5.82421 16.6667 6.99423 16.6667 8.61966H17.1667ZM7.16667 1.78205V1.28205C5.60981 1.28205 4.39059 1.28094 3.44079 1.41191C2.47529 1.54504 1.7143 1.82307 1.11831 2.43435L1.47631 2.7834L1.83431 3.13245C2.21463 2.74237 2.72747 2.51973 3.57739 2.40253C4.44303 2.28317 5.58083 2.28205 7.16667 2.28205V1.78205ZM0.5 8.61966H1C1 6.99423 1.00101 5.82421 1.1178 4.93329C1.23287 4.05548 1.45227 3.52428 1.83431 3.13245L1.47631 2.7834L1.11831 2.43435C0.524043 3.04385 0.255289 3.81915 0.12628 4.80331C-0.00101036 5.77436 0 7.02181 0 8.61966H0.5ZM4.66667 1.78205H5.16667V0.5H4.66667H4.16667V1.78205H4.66667ZM13 1.78205H13.5V0.5H13H12.5V1.78205H13ZM0.916667 6.05556V6.55556H16.75V6.05556V5.55556H0.916667V6.05556ZM6.33333 10.7564L5.97533 11.1055L7.642 12.8149L8 12.4658L8.358 12.1168L6.69133 10.4074L6.33333 10.7564ZM8 12.4658L8.358 12.8149L11.6913 9.39606L11.3333 9.04701L10.9753 8.69796L7.642 12.1168L8 12.4658Z" fill="#424242"/>
</svg>
