<svg width="18" height="18" viewBox="0 0 18 18" fill="none" xmlns="http://www.w3.org/2000/svg">
<path d="M13.8333 12.5385C14.1095 12.5385 14.3333 12.3146 14.3333 12.0385C14.3333 11.7623 14.1095 11.5385 13.8333 11.5385V12.0385V12.5385ZM10.5 11.5385C10.2239 11.5385 10 11.7623 10 12.0385C10 12.3146 10.2239 12.5385 10.5 12.5385V12.0385L10.5 11.5385ZM12.6667 10.3291C12.6667 10.0529 12.4428 9.82906 12.1667 9.82906C11.8905 9.82906 11.6667 10.0529 11.6667 10.3291H12.1667H12.6667ZM11.6667 13.7479C11.6667 14.024 11.8905 14.2479 12.1667 14.2479C12.4428 14.2479 12.6667 14.024 12.6667 13.7479H12.1667H11.6667ZM4.16667 1.78205C4.16667 2.05819 4.39052 2.28205 4.66667 2.28205C4.94281 2.28205 5.16667 2.05819 5.16667 1.78205H4.66667H4.16667ZM5.16667 0.5C5.16667 0.223858 4.94281 0 4.66667 0C4.39052 0 4.16667 0.223858 4.16667 0.5H4.66667H5.16667ZM12.5 1.78205C12.5 2.05819 12.7239 2.28205 13 2.28205C13.2761 2.28205 13.5 2.05819 13.5 1.78205H13H12.5ZM13.5 0.5C13.5 0.223858 13.2761 0 13 0C12.7239 0 12.5 0.223858 12.5 0.5H13H13.5ZM0.916667 5.55556C0.640524 5.55556 0.416667 5.77941 0.416667 6.05556C0.416667 6.3317 0.640524 6.55556 0.916667 6.55556V6.05556V5.55556ZM16.75 6.55556C17.0261 6.55556 17.25 6.3317 17.25 6.05556C17.25 5.77941 17.0261 5.55556 16.75 5.55556V6.05556V6.55556ZM7.16667 1.78205V2.28205H10.5V1.78205V1.28205H7.16667V1.78205ZM17.1667 8.61966H16.6667V10.3291H17.1667H17.6667V8.61966H17.1667ZM10.5 17.1667V16.6667H7.16667V17.1667V17.6667H10.5V17.1667ZM0.5 10.3291H1V8.61966H0.5H0V10.3291H0.5ZM7.16667 17.1667V16.6667C5.58083 16.6667 4.44303 16.6656 3.57739 16.5462C2.72747 16.429 2.21463 16.2063 1.83431 15.8163L1.47631 16.1653L1.11831 16.5144C1.7143 17.1256 2.47529 17.4037 3.44079 17.5368C4.39059 17.6678 5.60981 17.6667 7.16667 17.6667V17.1667ZM0.5 10.3291H0C0 11.9269 -0.00101036 13.1744 0.12628 14.1454C0.255289 15.1296 0.524043 15.9049 1.11831 16.5144L1.47631 16.1653L1.83431 15.8163C1.45227 15.4244 1.23287 14.8932 1.1178 14.0154C1.00101 13.1245 1 11.9545 1 10.3291H0.5ZM17.1667 10.3291H16.6667C16.6667 11.9545 16.6657 13.1245 16.5489 14.0154C16.4338 14.8932 16.2144 15.4244 15.8324 15.8163L16.1904 16.1653L16.5484 16.5144C17.1426 15.9049 17.4114 15.1296 17.5404 14.1454C17.6677 13.1744 17.6667 11.9269 17.6667 10.3291H17.1667ZM10.5 17.1667V17.6667C12.0569 17.6667 13.2761 17.6678 14.2259 17.5368C15.1914 17.4037 15.9524 17.1256 16.5484 16.5144L16.1904 16.1653L15.8324 15.8163C15.452 16.2063 14.9392 16.429 14.0893 16.5462C13.2236 16.6656 12.0858 16.6667 10.5 16.6667V17.1667ZM10.5 1.78205V2.28205C12.0858 2.28205 13.2236 2.28317 14.0893 2.40253C14.9392 2.51973 15.452 2.74237 15.8324 3.13245L16.1904 2.7834L16.5484 2.43435C15.9524 1.82307 15.1914 1.54504 14.2259 1.41191C13.2761 1.28094 12.0569 1.28205 10.5 1.28205V1.78205ZM17.1667 8.61966H17.6667C17.6667 7.02181 17.6677 5.77436 17.5404 4.80331C17.4114 3.81915 17.1426 3.04385 16.5484 2.43435L16.1904 2.7834L15.8324 3.13245C16.2144 3.52428 16.4338 4.05548 16.5489 4.93329C16.6657 5.82421 16.6667 6.99423 16.6667 8.61966H17.1667ZM7.16667 1.78205V1.28205C5.60981 1.28205 4.39059 1.28094 3.44079 1.41191C2.47529 1.54504 1.7143 1.82307 1.11831 2.43435L1.47631 2.7834L1.83431 3.13245C2.21463 2.74237 2.72747 2.51973 3.57739 2.40253C4.44303 2.28317 5.58083 2.28205 7.16667 2.28205V1.78205ZM0.5 8.61966H1C1 6.99423 1.00101 5.82421 1.1178 4.93329C1.23287 4.05548 1.45227 3.52428 1.83431 3.13245L1.47631 2.7834L1.11831 2.43435C0.524043 3.04385 0.255289 3.81915 0.12628 4.80331C-0.00101036 5.77436 0 7.02181 0 8.61966H0.5ZM13.8333 12.0385V11.5385H12.1667V12.0385V12.5385H13.8333V12.0385ZM12.1667 12.0385V11.5385L10.5 11.5385L10.5 12.0385V12.5385L12.1667 12.5385L12.1667 12.0385ZM12.1667 10.3291H11.6667V12.0385H12.1667H12.6667V10.3291H12.1667ZM12.1667 12.0385H11.6667V13.7479H12.1667H12.6667V12.0385H12.1667ZM4.66667 1.78205H5.16667V0.5H4.66667H4.16667V1.78205H4.66667ZM13 1.78205H13.5V0.5H13H12.5V1.78205H13ZM0.916667 6.05556V6.55556H16.75V6.05556V5.55556H0.916667V6.05556Z" fill="#424242"/>
</svg>
