<svg width="16" height="16" viewBox="0 0 16 16" fill="none" xmlns="http://www.w3.org/2000/svg">
<path d="M4.16634 2.35963C4.16634 2.63577 4.3902 2.85963 4.66634 2.85963C4.94248 2.85963 5.16634 2.63577 5.16634 2.35963H4.66634H4.16634ZM5.16634 1.33398C5.16634 1.05784 4.94248 0.833984 4.66634 0.833984C4.3902 0.833984 4.16634 1.05784 4.16634 1.33398H4.66634H5.16634ZM10.833 2.35963C10.833 2.63577 11.0569 2.85963 11.333 2.85963C11.6091 2.85963 11.833 2.63577 11.833 2.35963H11.333H10.833ZM11.833 1.33398C11.833 1.05784 11.6091 0.833984 11.333 0.833984C11.0569 0.833984 10.833 1.05784 10.833 1.33398H11.333H11.833ZM1.66634 5.27843C1.3902 5.27843 1.16634 5.50229 1.16634 5.77843C1.16634 6.05457 1.3902 6.27843 1.66634 6.27843V5.77843V5.27843ZM14.333 6.27843C14.6091 6.27843 14.833 6.05457 14.833 5.77843C14.833 5.50229 14.6091 5.27843 14.333 5.27843V5.77843V6.27843ZM6.66634 2.35963V2.85963H9.33301V2.35963V1.85963H6.66634V2.35963ZM14.6663 7.82971H14.1663V9.19723H14.6663H15.1663V7.82971H14.6663ZM9.33301 14.6673V14.1673H6.66634V14.6673V15.1673H9.33301V14.6673ZM1.33301 9.19723H1.83301V7.82971H1.33301H0.833008V9.19723H1.33301ZM6.66634 14.6673V14.1673C5.39477 14.1673 4.49267 14.1662 3.80858 14.0719C3.1402 13.9797 2.75475 13.8071 2.47206 13.5172L2.11406 13.8662L1.75606 14.2153C2.25441 14.7264 2.88802 14.9544 3.67198 15.0625C4.44023 15.1684 5.42375 15.1673 6.66634 15.1673V14.6673ZM1.33301 9.19723H0.833008C0.833008 10.4728 0.831997 11.4785 0.93488 12.2633C1.03948 13.0613 1.25942 13.7059 1.75606 14.2153L2.11406 13.8662L2.47206 13.5172C2.18764 13.2255 2.01706 12.8249 1.9264 12.1333C1.83402 11.4286 1.83301 10.5003 1.83301 9.19723H1.33301ZM14.6663 9.19723H14.1663C14.1663 10.5003 14.1653 11.4286 14.073 12.1333C13.9823 12.8249 13.8117 13.2255 13.5273 13.5172L13.8853 13.8662L14.2433 14.2153C14.7399 13.7059 14.9599 13.0613 15.0645 12.2633C15.1674 11.4785 15.1663 10.4728 15.1663 9.19723H14.6663ZM9.33301 14.6673V15.1673C10.5756 15.1673 11.5591 15.1684 12.3274 15.0625C13.1113 14.9544 13.7449 14.7264 14.2433 14.2153L13.8853 13.8662L13.5273 13.5172C13.2446 13.8071 12.8591 13.9797 12.1908 14.0719C11.5067 14.1662 10.6046 14.1673 9.33301 14.1673V14.6673ZM9.33301 2.35963V2.85963C10.6046 2.85963 11.5067 2.86074 12.1908 2.95507C12.8591 3.04724 13.2446 3.21981 13.5273 3.50975L13.8853 3.1607L14.2433 2.81165C13.7449 2.30051 13.1113 2.07255 12.3274 1.96445C11.5591 1.85851 10.5756 1.85963 9.33301 1.85963V2.35963ZM14.6663 7.82971H15.1663C15.1663 6.55419 15.1674 5.54849 15.0645 4.76364C14.9599 3.96567 14.7399 3.32102 14.2433 2.81165L13.8853 3.1607L13.5273 3.50975C13.8117 3.80146 13.9823 4.202 14.073 4.89361C14.1653 5.59834 14.1663 6.52661 14.1663 7.82971H14.6663ZM6.66634 2.35963V1.85963C5.42375 1.85963 4.44023 1.85851 3.67198 1.96445C2.88802 2.07255 2.25441 2.30051 1.75606 2.81165L2.11406 3.1607L2.47206 3.50975C2.75475 3.21981 3.1402 3.04724 3.80858 2.95507C4.49267 2.86074 5.39477 2.85963 6.66634 2.85963V2.35963ZM1.33301 7.82971H1.83301C1.83301 6.52661 1.83402 5.59834 1.9264 4.89361C2.01706 4.202 2.18764 3.80146 2.47206 3.50975L2.11406 3.1607L1.75606 2.81165C1.25942 3.32102 1.03948 3.96567 0.93488 4.76364C0.831997 5.54849 0.833008 6.55419 0.833008 7.82971H1.33301ZM4.66634 2.35963H5.16634V1.33398H4.66634H4.16634V2.35963H4.66634ZM11.333 2.35963H11.833V1.33398H11.333H10.833V2.35963H11.333ZM1.66634 5.77843V6.27843H14.333V5.77843V5.27843H1.66634V5.77843Z" fill="#8E8E8E"/>
</svg>
