<svg width="16" height="16" viewBox="0 0 16 16" fill="none" xmlns="http://www.w3.org/2000/svg">
<path d="M7.99967 14.6673C11.6816 14.6673 14.6663 11.6825 14.6663 8.00065C14.6663 4.31875 11.6816 1.33398 7.99967 1.33398C4.31778 1.33398 1.33301 4.31875 1.33301 8.00065C1.33301 11.6825 4.31778 14.6673 7.99967 14.6673Z" fill="#6DDB72"/>
<path d="M5.66634 8.33398L6.99967 9.66732L10.333 6.33398" fill="#6DDB72"/>
<path d="M6.01989 7.98043C5.82463 7.78517 5.50805 7.78517 5.31279 7.98043C5.11753 8.17569 5.11753 8.49228 5.31279 8.68754L5.66634 8.33398L6.01989 7.98043ZM6.99967 9.66732L6.64612 10.0209C6.84138 10.2161 7.15797 10.2161 7.35323 10.0209L6.99967 9.66732ZM10.6866 6.68754C10.8818 6.49228 10.8818 6.17569 10.6866 5.98043C10.4913 5.78517 10.1747 5.78517 9.97945 5.98043L10.333 6.33398L10.6866 6.68754ZM14.6663 8.00065H14.1663C14.1663 11.4064 11.4054 14.1673 7.99967 14.1673V14.6673V15.1673C11.9577 15.1673 15.1663 11.9587 15.1663 8.00065H14.6663ZM7.99967 14.6673V14.1673C4.59392 14.1673 1.83301 11.4064 1.83301 8.00065H1.33301H0.833008C0.833008 11.9587 4.04163 15.1673 7.99967 15.1673V14.6673ZM1.33301 8.00065H1.83301C1.83301 4.59489 4.59392 1.83398 7.99967 1.83398V1.33398V0.833984C4.04163 0.833984 0.833008 4.04261 0.833008 8.00065H1.33301ZM7.99967 1.33398V1.83398C11.4054 1.83398 14.1663 4.59489 14.1663 8.00065H14.6663H15.1663C15.1663 4.04261 11.9577 0.833984 7.99967 0.833984V1.33398ZM5.66634 8.33398L5.31279 8.68754L6.64612 10.0209L6.99967 9.66732L7.35323 9.31376L6.01989 7.98043L5.66634 8.33398ZM6.99967 9.66732L7.35323 10.0209L10.6866 6.68754L10.333 6.33398L9.97945 5.98043L6.64612 9.31376L6.99967 9.66732Z" fill="#2E7D32"/>
</svg>
