<svg width="24" height="24" viewBox="0 0 24 24" fill="none" xmlns="http://www.w3.org/2000/svg">
<path d="M7.83524 4.69755L7.79546 4.19913L7.83524 4.69755ZM8.41767 4.63442L8.51451 5.12495L8.41767 4.63442ZM9.78182 3.89125L10.1061 4.27181V4.27181L9.78182 3.89125ZM9.32534 4.25845L9.04696 3.84311V3.84311L9.32534 4.25845ZM4.69755 7.83524L4.19913 7.79546L4.69755 7.83524ZM4.89476 6.41942L4.4233 6.25289L4.89476 6.41942ZM6.41942 4.89476L6.25289 4.4233L6.41942 4.89476ZM3.89125 9.78182L4.27181 10.1061L3.89125 9.78182ZM4.25845 9.32534L3.84311 9.04696V9.04696L4.25845 9.32534ZM4.63442 8.41767L5.12495 8.51451L4.63442 8.41767ZM3.89125 14.2192L4.27181 13.8949H4.27181L3.89125 14.2192ZM3.02956 13.0786L3.48068 12.863L3.02956 13.0786ZM3.02956 10.9224L3.48068 11.138L3.02956 10.9224ZM4.69755 16.1658L4.19913 16.2055L4.69755 16.1658ZM4.63442 15.5833L5.12495 15.4865L4.63442 15.5833ZM4.25845 14.6757L3.84311 14.954V14.954L4.25845 14.6757ZM7.83524 19.3035L7.87501 18.805L7.83524 19.3035ZM6.41942 19.1062L6.25289 19.5777L6.41942 19.1062ZM4.89476 17.5816L4.4233 17.7481L4.89476 17.5816ZM9.78182 20.1098L10.1061 19.7292V19.7292L9.78182 20.1098ZM9.32534 19.7426L9.04696 20.1579V20.1579L9.32534 19.7426ZM8.41767 19.3666L8.32082 19.8571L8.41767 19.3666ZM14.2192 20.1098L13.8949 19.7292L14.2192 20.1098ZM13.0786 20.9714L12.863 20.5203V20.5203L13.0786 20.9714ZM10.9224 20.9714L11.138 20.5203V20.5203L10.9224 20.9714ZM16.1658 19.3035L16.126 18.805L16.1658 19.3035ZM15.5833 19.3666L15.6802 19.8571L15.5833 19.3666ZM14.6757 19.7426L14.954 20.1579V20.1579L14.6757 19.7426ZM19.3035 16.1658L18.805 16.126L19.3035 16.1658ZM19.1062 17.5816L19.5777 17.7481L19.1062 17.5816ZM17.5816 19.1062L17.7481 19.5777L17.5816 19.1062ZM20.1098 14.2192L19.7292 13.8949V13.8949L20.1098 14.2192ZM19.7426 14.6757L20.1579 14.954V14.954L19.7426 14.6757ZM19.3666 15.5833L19.8571 15.6802L19.3666 15.5833ZM20.1098 9.78182L19.7292 10.1061L20.1098 9.78182ZM20.9714 10.9224L20.5203 11.138V11.138L20.9714 10.9224ZM20.9714 13.0786L20.5203 12.863V12.863L20.9714 13.0786ZM19.3035 7.83524L19.8019 7.79546L19.3035 7.83524ZM19.3666 8.41767L19.8571 8.32082L19.3666 8.41767ZM19.7426 9.32534L20.1579 9.04696V9.04696L19.7426 9.32534ZM16.1658 4.69755L16.126 5.19596L16.1658 4.69755ZM17.5816 4.89476L17.7481 4.4233L17.5816 4.89476ZM19.1062 6.41942L19.5777 6.25289L19.1062 6.41942ZM14.2192 3.89125L13.8949 4.27181L14.2192 3.89125ZM14.6757 4.25845L14.954 3.84311V3.84311L14.6757 4.25845ZM15.5833 4.63442L15.4865 5.12495L15.5833 4.63442ZM13.0786 3.02956L12.863 3.48068L13.0786 3.02956ZM10.9224 3.02956L11.138 3.48068L10.9224 3.02956ZM8.85404 12.1469C8.65878 11.9517 8.3422 11.9517 8.14693 12.1469C7.95167 12.3422 7.95167 12.6588 8.14693 12.854L8.50049 12.5005L8.85404 12.1469ZM10.5005 14.5005L10.1469 14.854C10.3422 15.0493 10.6588 15.0493 10.854 14.854L10.5005 14.5005ZM15.854 9.85404C16.0493 9.65878 16.0493 9.3422 15.854 9.14693C15.6588 8.95167 15.3422 8.95167 15.1469 9.14693L15.5005 9.50049L15.854 9.85404ZM7.83524 4.69755L7.87501 5.19596C8.15773 5.1734 8.33814 5.15977 8.51451 5.12495L8.41767 4.63442L8.32082 4.14389C8.21411 4.16496 8.1006 4.17478 7.79546 4.19913L7.83524 4.69755ZM9.78182 3.89125L9.45751 3.51069C9.22453 3.70923 9.13731 3.78255 9.04696 3.84311L9.32534 4.25845L9.60372 4.67379C9.75305 4.5737 9.89026 4.45576 10.1061 4.27181L9.78182 3.89125ZM8.41767 4.63442L8.51451 5.12495C8.90385 5.04809 9.27407 4.89474 9.60372 4.67379L9.32534 4.25845L9.04696 3.84311C8.82719 3.99041 8.58038 4.09265 8.32082 4.14389L8.41767 4.63442ZM4.69755 7.83524L5.19596 7.87501C5.25731 7.10623 5.28454 6.81718 5.36621 6.58594L4.89476 6.41942L4.4233 6.25289C4.28736 6.63778 4.25565 7.08724 4.19913 7.79546L4.69755 7.83524ZM7.83524 4.69755L7.79546 4.19913C7.08724 4.25565 6.63778 4.28736 6.25289 4.4233L6.41942 4.89476L6.58594 5.36621C6.81718 5.28454 7.10623 5.25731 7.87501 5.19596L7.83524 4.69755ZM4.89476 6.41942L5.36621 6.58594C5.56755 6.01592 6.01592 5.56755 6.58594 5.36621L6.41942 4.89476L6.25289 4.4233C5.39786 4.72531 4.72531 5.39786 4.4233 6.25289L4.89476 6.41942ZM3.89125 9.78182L4.27181 10.1061C4.45576 9.89026 4.5737 9.75305 4.67379 9.60372L4.25845 9.32534L3.84311 9.04696C3.78255 9.13731 3.70923 9.22453 3.51069 9.45751L3.89125 9.78182ZM4.69755 7.83524L4.19913 7.79546C4.17478 8.1006 4.16496 8.21411 4.14389 8.32082L4.63442 8.41767L5.12495 8.51451C5.15977 8.33814 5.1734 8.15773 5.19596 7.87501L4.69755 7.83524ZM4.25845 9.32534L4.67379 9.60372C4.89474 9.27407 5.04809 8.90385 5.12495 8.51451L4.63442 8.41767L4.14389 8.32082C4.09265 8.58038 3.99041 8.82719 3.84311 9.04696L4.25845 9.32534ZM3.89125 14.2192L4.27181 13.8949C3.77158 13.3079 3.58644 13.0842 3.48068 12.863L3.02956 13.0786L2.57844 13.2942C2.75447 13.6625 3.04986 14.0027 3.51069 14.5435L3.89125 14.2192ZM3.89125 9.78182L3.51069 9.45751C3.04986 9.99827 2.75447 10.3385 2.57844 10.7068L3.02956 10.9224L3.48068 11.138C3.58644 10.9168 3.77158 10.6931 4.27181 10.1061L3.89125 9.78182ZM3.02956 13.0786L3.48068 12.863C3.21998 12.3175 3.21998 11.6835 3.48068 11.138L3.02956 10.9224L2.57844 10.7068C2.18739 11.5249 2.18739 12.4761 2.57844 13.2942L3.02956 13.0786ZM4.69755 16.1658L5.19596 16.126C5.1734 15.8433 5.15977 15.6629 5.12495 15.4865L4.63442 15.5833L4.14389 15.6802C4.16496 15.7869 4.17478 15.9004 4.19913 16.2055L4.69755 16.1658ZM3.89125 14.2192L3.51069 14.5435C3.70924 14.7765 3.78255 14.8637 3.84311 14.954L4.25845 14.6757L4.67379 14.3973C4.5737 14.2479 4.45576 14.1107 4.27181 13.8949L3.89125 14.2192ZM4.63442 15.5833L5.12495 15.4865C5.04809 15.0972 4.89474 14.7269 4.67379 14.3973L4.25845 14.6757L3.84311 14.954C3.99041 15.1738 4.09265 15.4206 4.14389 15.6802L4.63442 15.5833ZM7.83524 19.3035L7.87501 18.805C7.10623 18.7437 6.81718 18.7165 6.58594 18.6348L6.41942 19.1062L6.25289 19.5777C6.63778 19.7136 7.08724 19.7454 7.79546 19.8019L7.83524 19.3035ZM4.69755 16.1658L4.19913 16.2055C4.25565 16.9138 4.28736 17.3632 4.4233 17.7481L4.89476 17.5816L5.36621 17.4151C5.28454 17.1838 5.25731 16.8948 5.19596 16.126L4.69755 16.1658ZM6.41942 19.1062L6.58594 18.6348C6.01592 18.4334 5.56755 17.9851 5.36621 17.4151L4.89476 17.5816L4.4233 17.7481C4.72531 18.6031 5.39786 19.2757 6.25289 19.5777L6.41942 19.1062ZM9.78182 20.1098L10.1061 19.7292C9.89026 19.5452 9.75305 19.4273 9.60372 19.3272L9.32534 19.7426L9.04696 20.1579C9.13731 20.2184 9.22453 20.2918 9.45751 20.4903L9.78182 20.1098ZM7.83524 19.3035L7.79546 19.8019C8.1006 19.8262 8.21411 19.836 8.32082 19.8571L8.41767 19.3666L8.51451 18.876C8.33814 18.8412 8.15773 18.8276 7.87501 18.805L7.83524 19.3035ZM9.32534 19.7426L9.60372 19.3272C9.27407 19.1063 8.90385 18.9529 8.51451 18.876L8.41767 19.3666L8.32082 19.8571C8.58038 19.9084 8.82719 20.0106 9.04696 20.1579L9.32534 19.7426ZM14.2192 20.1098L13.8949 19.7292C13.3079 20.2294 13.0842 20.4146 12.863 20.5203L13.0786 20.9714L13.2942 21.4226C13.6625 21.2465 14.0027 20.9511 14.5435 20.4903L14.2192 20.1098ZM9.78182 20.1098L9.45751 20.4903C9.99827 20.9511 10.3385 21.2465 10.7068 21.4226L10.9224 20.9714L11.138 20.5203C10.9168 20.4146 10.6931 20.2294 10.1061 19.7292L9.78182 20.1098ZM13.0786 20.9714L12.863 20.5203C12.3175 20.781 11.6835 20.781 11.138 20.5203L10.9224 20.9714L10.7068 21.4226C11.5249 21.8136 12.4761 21.8136 13.2942 21.4226L13.0786 20.9714ZM16.1658 19.3035L16.126 18.805C15.8433 18.8276 15.6629 18.8412 15.4865 18.876L15.5833 19.3666L15.6802 19.8571C15.7869 19.836 15.9004 19.8262 16.2055 19.8019L16.1658 19.3035ZM14.2192 20.1098L14.5435 20.4903C14.7765 20.2918 14.8637 20.2184 14.954 20.1579L14.6757 19.7426L14.3973 19.3272C14.2479 19.4273 14.1107 19.5452 13.8949 19.7292L14.2192 20.1098ZM15.5833 19.3666L15.4865 18.876C15.0972 18.9529 14.7269 19.1063 14.3973 19.3272L14.6757 19.7426L14.954 20.1579C15.1738 20.0106 15.4206 19.9084 15.6802 19.8571L15.5833 19.3666ZM19.3035 16.1658L18.805 16.126C18.7437 16.8948 18.7165 17.1838 18.6348 17.4151L19.1062 17.5816L19.5777 17.7481C19.7136 17.3632 19.7454 16.9138 19.8019 16.2055L19.3035 16.1658ZM16.1658 19.3035L16.2055 19.8019C16.9138 19.7454 17.3632 19.7136 17.7481 19.5777L17.5816 19.1062L17.4151 18.6348C17.1838 18.7165 16.8948 18.7437 16.126 18.805L16.1658 19.3035ZM19.1062 17.5816L18.6348 17.4151C18.4334 17.9851 17.9851 18.4334 17.4151 18.6348L17.5816 19.1062L17.7481 19.5777C18.6031 19.2757 19.2757 18.6031 19.5777 17.7481L19.1062 17.5816ZM20.1098 14.2192L19.7292 13.8949C19.5452 14.1107 19.4273 14.2479 19.3272 14.3973L19.7426 14.6757L20.1579 14.954C20.2184 14.8637 20.2918 14.7765 20.4903 14.5435L20.1098 14.2192ZM19.3035 16.1658L19.8019 16.2055C19.8262 15.9004 19.836 15.7869 19.8571 15.6802L19.3666 15.5833L18.876 15.4865C18.8412 15.6629 18.8276 15.8433 18.805 16.126L19.3035 16.1658ZM19.7426 14.6757L19.3272 14.3973C19.1063 14.7269 18.9529 15.0972 18.876 15.4865L19.3666 15.5833L19.8571 15.6802C19.9084 15.4206 20.0106 15.1738 20.1579 14.954L19.7426 14.6757ZM20.1098 9.78182L19.7292 10.1061C20.2294 10.6931 20.4146 10.9168 20.5203 11.138L20.9714 10.9224L21.4226 10.7068C21.2465 10.3385 20.9511 9.99827 20.4903 9.45751L20.1098 9.78182ZM20.1098 14.2192L20.4903 14.5435C20.9511 14.0027 21.2465 13.6625 21.4226 13.2942L20.9714 13.0786L20.5203 12.863C20.4146 13.0842 20.2294 13.3079 19.7292 13.8949L20.1098 14.2192ZM20.9714 10.9224L20.5203 11.138C20.781 11.6835 20.781 12.3175 20.5203 12.863L20.9714 13.0786L21.4226 13.2942C21.8136 12.4761 21.8136 11.5249 21.4226 10.7068L20.9714 10.9224ZM19.3035 7.83524L18.805 7.87501C18.8276 8.15773 18.8412 8.33814 18.876 8.51451L19.3666 8.41767L19.8571 8.32082C19.836 8.21411 19.8262 8.1006 19.8019 7.79546L19.3035 7.83524ZM20.1098 9.78182L20.4903 9.45751C20.2918 9.22453 20.2184 9.13731 20.1579 9.04696L19.7426 9.32534L19.3272 9.60372C19.4273 9.75305 19.5452 9.89026 19.7292 10.1061L20.1098 9.78182ZM19.3666 8.41767L18.876 8.51451C18.9529 8.90385 19.1063 9.27407 19.3272 9.60372L19.7426 9.32534L20.1579 9.04696C20.0106 8.82719 19.9084 8.58038 19.8571 8.32082L19.3666 8.41767ZM16.1658 4.69755L16.126 5.19596C16.8948 5.25731 17.1838 5.28454 17.4151 5.36621L17.5816 4.89476L17.7481 4.4233C17.3632 4.28736 16.9138 4.25565 16.2055 4.19913L16.1658 4.69755ZM19.3035 7.83524L19.8019 7.79546C19.7454 7.08724 19.7136 6.63778 19.5777 6.25289L19.1062 6.41942L18.6348 6.58594C18.7165 6.81718 18.7437 7.10623 18.805 7.87501L19.3035 7.83524ZM17.5816 4.89476L17.4151 5.36621C17.9851 5.56755 18.4334 6.01592 18.6348 6.58594L19.1062 6.41942L19.5777 6.25289C19.2757 5.39786 18.6031 4.72531 17.7481 4.4233L17.5816 4.89476ZM14.2192 3.89125L13.8949 4.27181C14.1107 4.45576 14.2479 4.5737 14.3973 4.67379L14.6757 4.25845L14.954 3.84311C14.8637 3.78255 14.7765 3.70924 14.5435 3.51069L14.2192 3.89125ZM16.1658 4.69755L16.2055 4.19913C15.9004 4.17478 15.7869 4.16496 15.6802 4.14389L15.5833 4.63442L15.4865 5.12495C15.6629 5.15977 15.8433 5.1734 16.126 5.19596L16.1658 4.69755ZM14.6757 4.25845L14.3973 4.67379C14.7269 4.89474 15.0972 5.04809 15.4865 5.12495L15.5833 4.63442L15.6802 4.14389C15.4206 4.09265 15.1738 3.99041 14.954 3.84311L14.6757 4.25845ZM14.2192 3.89125L14.5435 3.51069C14.0027 3.04986 13.6625 2.75447 13.2942 2.57844L13.0786 3.02956L12.863 3.48068C13.0842 3.58644 13.3079 3.77158 13.8949 4.27181L14.2192 3.89125ZM9.78182 3.89125L10.1061 4.27181C10.6931 3.77158 10.9168 3.58644 11.138 3.48068L10.9224 3.02956L10.7068 2.57844C10.3385 2.75447 9.99827 3.04986 9.45751 3.51069L9.78182 3.89125ZM13.0786 3.02956L13.2942 2.57844C12.4761 2.18739 11.5249 2.18739 10.7068 2.57844L10.9224 3.02956L11.138 3.48068C11.6835 3.21998 12.3175 3.21998 12.863 3.48068L13.0786 3.02956ZM8.50049 12.5005L8.14693 12.854L10.1469 14.854L10.5005 14.5005L10.854 14.1469L8.85404 12.1469L8.50049 12.5005ZM10.5005 14.5005L10.854 14.854L15.854 9.85404L15.5005 9.50049L15.1469 9.14693L10.1469 14.1469L10.5005 14.5005Z" fill="#BE8B00"/>
</svg>
