<svg width="18" height="18" viewBox="0 0 18 18" fill="none" xmlns="http://www.w3.org/2000/svg">
<path d="M17.1667 8.83333C17.1667 13.4357 13.4357 17.1667 8.83333 17.1667C4.23096 17.1667 0.5 13.4357 0.5 8.83333C0.5 4.23096 4.23096 0.5 8.83333 0.5C13.4357 0.5 17.1667 4.23096 17.1667 8.83333Z" fill="#F2F7FF"/>
<path d="M11.3333 8.83334C11.3333 10.2141 10.214 11.3333 8.83333 11.3333C7.45262 11.3333 6.33333 10.2141 6.33333 8.83334C6.33333 8.30814 6.69506 7.57961 7.14333 6.87843C7.81368 5.82988 8.14885 5.3056 8.83333 5.3056C9.51782 5.3056 9.85299 5.82988 10.5233 6.87843C10.9716 7.57961 11.3333 8.30814 11.3333 8.83334Z" fill="#F2F7FF"/>
<path d="M14.3131 15.0202C14.5084 15.2155 14.825 15.2155 15.0202 15.0202C15.2155 14.825 15.2155 14.5084 15.0202 14.3131L14.6667 14.6667L14.3131 15.0202ZM13.7702 13.0631C13.575 12.8679 13.2584 12.8679 13.0631 13.0631C12.8679 13.2584 12.8679 13.575 13.0631 13.7702L13.4167 13.4167L13.7702 13.0631ZM15.0202 3.35355C15.2155 3.15829 15.2155 2.84171 15.0202 2.64645C14.825 2.45118 14.5084 2.45118 14.3131 2.64645L14.6667 3L15.0202 3.35355ZM13.0631 3.89645C12.8679 4.09171 12.8679 4.40829 13.0631 4.60355C13.2584 4.79882 13.575 4.79882 13.7702 4.60355L13.4167 4.25L13.0631 3.89645ZM2.64645 14.3131C2.45118 14.5084 2.45118 14.825 2.64645 15.0202C2.84171 15.2155 3.15829 15.2155 3.35355 15.0202L3 14.6667L2.64645 14.3131ZM4.60355 13.7702C4.79882 13.575 4.79882 13.2584 4.60355 13.0631C4.40829 12.8679 4.09171 12.8679 3.89645 13.0631L4.25 13.4167L4.60355 13.7702ZM3.35355 2.64645C3.15829 2.45118 2.84171 2.45118 2.64645 2.64645C2.45118 2.84171 2.45118 3.15829 2.64645 3.35355L3 3L3.35355 2.64645ZM3.89645 4.60355C4.09171 4.79882 4.40829 4.79882 4.60355 4.60355C4.79882 4.40829 4.79882 4.09171 4.60355 3.89645L4.25 4.25L3.89645 4.60355ZM2.16667 9.33333C2.44281 9.33333 2.66667 9.10948 2.66667 8.83333C2.66667 8.55719 2.44281 8.33333 2.16667 8.33333V8.83333V9.33333ZM15.4998 8.33333C15.2237 8.33333 14.9998 8.55719 14.9998 8.83333C14.9998 9.10948 15.2237 9.33333 15.4998 9.33333V8.83333V8.33333ZM8.33333 2.16684C8.33333 2.44299 8.55719 2.66684 8.83333 2.66684C9.10948 2.66684 9.33333 2.44299 9.33333 2.16684H8.83333H8.33333ZM7.14333 6.87843L6.72206 6.60911L7.14333 6.87843ZM10.5233 6.87843L10.9446 6.60911L10.5233 6.87843ZM17.1667 8.83333H16.6667C16.6667 13.1596 13.1596 16.6667 8.83333 16.6667V17.1667V17.6667C13.7118 17.6667 17.6667 13.7118 17.6667 8.83333H17.1667ZM8.83333 17.1667V16.6667C4.5071 16.6667 1 13.1596 1 8.83333H0.5H0C0 13.7118 3.95482 17.6667 8.83333 17.6667V17.1667ZM0.5 8.83333H1C1 4.5071 4.5071 1 8.83333 1V0.5V0C3.95482 0 0 3.95482 0 8.83333H0.5ZM8.83333 0.5V1C13.1596 1 16.6667 4.5071 16.6667 8.83333H17.1667H17.6667C17.6667 3.95482 13.7118 0 8.83333 0V0.5ZM14.6667 14.6667L15.0202 14.3131L13.7702 13.0631L13.4167 13.4167L13.0631 13.7702L14.3131 15.0202L14.6667 14.6667ZM14.6667 3L14.3131 2.64645L13.0631 3.89645L13.4167 4.25L13.7702 4.60355L15.0202 3.35355L14.6667 3ZM3 14.6667L3.35355 15.0202L4.60355 13.7702L4.25 13.4167L3.89645 13.0631L2.64645 14.3131L3 14.6667ZM3 3L2.64645 3.35355L3.89645 4.60355L4.25 4.25L4.60355 3.89645L3.35355 2.64645L3 3ZM0.5 8.83333V9.33333H2.16667V8.83333V8.33333H0.5V8.83333ZM15.4998 8.83333V9.33333H17.1667V8.83333V8.33333H15.4998V8.83333ZM8.83333 2.16684H9.33333V0.5H8.83333H8.33333V2.16684H8.83333ZM11.3333 8.83334H10.8333C10.8333 9.93791 9.9379 10.8333 8.83333 10.8333V11.3333V11.8333C10.4902 11.8333 11.8333 10.4902 11.8333 8.83334H11.3333ZM8.83333 11.3333V10.8333C7.72876 10.8333 6.83333 9.93791 6.83333 8.83334H6.33333H5.83333C5.83333 10.4902 7.17648 11.8333 8.83333 11.8333V11.3333ZM6.33333 8.83334H6.83333C6.83333 8.67225 6.89249 8.43334 7.02845 8.12196C7.16072 7.81905 7.3485 7.48578 7.5646 7.14775L7.14333 6.87843L6.72206 6.60911C6.4899 6.97226 6.27268 7.35384 6.11201 7.72179C5.95504 8.08128 5.83333 8.46923 5.83333 8.83334H6.33333ZM10.5233 6.87843L10.1021 7.14775C10.3182 7.48578 10.5059 7.81905 10.6382 8.12196C10.7742 8.43334 10.8333 8.67225 10.8333 8.83334H11.3333H11.8333C11.8333 8.46923 11.7116 8.08128 11.5547 7.72179C11.394 7.35384 11.1768 6.97226 10.9446 6.60911L10.5233 6.87843ZM7.14333 6.87843L7.5646 7.14775C7.91112 6.60572 8.13249 6.26381 8.3427 6.04614C8.52352 5.85889 8.65531 5.8056 8.83333 5.8056V5.3056V4.8056C8.32688 4.8056 7.94883 5.01445 7.62336 5.35148C7.32728 5.65808 7.04589 6.10259 6.72206 6.60911L7.14333 6.87843ZM10.5233 6.87843L10.9446 6.60911C10.6208 6.10259 10.3394 5.65808 10.0433 5.35148C9.71783 5.01445 9.33979 4.8056 8.83333 4.8056V5.3056V5.8056C9.01136 5.8056 9.14314 5.85889 9.32397 6.04614C9.53417 6.26381 9.75554 6.60572 10.1021 7.14775L10.5233 6.87843Z" fill="#626060"/>
</svg>
