<svg width="17" height="17" viewBox="0 0 17 17" fill="none" xmlns="http://www.w3.org/2000/svg">
<path d="M0.500002 3.83333C0.500002 2.26198 0.500002 1.47631 0.988157 0.988155C1.47631 0.5 2.26199 0.5 3.83334 0.5C5.40468 0.5 6.19036 0.5 6.67851 0.988155C7.16667 1.47631 7.16667 2.26198 7.16667 3.83333C7.16667 5.40468 7.16667 6.19036 6.67851 6.67851C6.19036 7.16667 5.40468 7.16667 3.83334 7.16667C2.26199 7.16667 1.47631 7.16667 0.988157 6.67851C0.500002 6.19036 0.500002 5.40468 0.500002 3.83333Z" fill="#F2F7FF"/>
<path d="M9.66667 13C9.66667 11.4287 9.66667 10.643 10.1548 10.1548C10.643 9.66667 11.4287 9.66667 13 9.66667C14.5713 9.66667 15.357 9.66667 15.8452 10.1548C16.3333 10.643 16.3333 11.4287 16.3333 13C16.3333 14.5713 16.3333 15.357 15.8452 15.8452C15.357 16.3333 14.5713 16.3333 13 16.3333C11.4287 16.3333 10.643 16.3333 10.1548 15.8452C9.66667 15.357 9.66667 14.5713 9.66667 13Z" fill="#F2F7FF"/>
<path d="M0.500002 13C0.500002 11.4287 0.500002 10.643 0.988157 10.1548C1.47631 9.66667 2.26199 9.66667 3.83334 9.66667C5.40468 9.66667 6.19036 9.66667 6.67851 10.1548C7.16667 10.643 7.16667 11.4287 7.16667 13C7.16667 14.5713 7.16667 15.357 6.67851 15.8452C6.19036 16.3333 5.40468 16.3333 3.83334 16.3333C2.26199 16.3333 1.47631 16.3333 0.988157 15.8452C0.500002 15.357 0.500002 14.5713 0.500002 13Z" fill="#F2F7FF"/>
<path d="M9.66667 3.83333C9.66667 2.26198 9.66667 1.47631 10.1548 0.988155C10.643 0.5 11.4287 0.5 13 0.5C14.5713 0.5 15.357 0.5 15.8452 0.988155C16.3333 1.47631 16.3333 2.26198 16.3333 3.83333C16.3333 5.40468 16.3333 6.19036 15.8452 6.67851C15.357 7.16667 14.5713 7.16667 13 7.16667C11.4287 7.16667 10.643 7.16667 10.1548 6.67851C9.66667 6.19036 9.66667 5.40468 9.66667 3.83333Z" fill="#F2F7FF"/>
<path d="M0.500002 3.83333C0.500002 2.26198 0.500002 1.47631 0.988157 0.988155C1.47631 0.5 2.26199 0.5 3.83334 0.5C5.40468 0.5 6.19036 0.5 6.67851 0.988155C7.16667 1.47631 7.16667 2.26198 7.16667 3.83333C7.16667 5.40468 7.16667 6.19036 6.67851 6.67851C6.19036 7.16667 5.40468 7.16667 3.83334 7.16667C2.26199 7.16667 1.47631 7.16667 0.988157 6.67851C0.500002 6.19036 0.500002 5.40468 0.500002 3.83333Z" stroke="#96BFFF"/>
<path d="M9.66667 13C9.66667 11.4287 9.66667 10.643 10.1548 10.1548C10.643 9.66667 11.4287 9.66667 13 9.66667C14.5713 9.66667 15.357 9.66667 15.8452 10.1548C16.3333 10.643 16.3333 11.4287 16.3333 13C16.3333 14.5713 16.3333 15.357 15.8452 15.8452C15.357 16.3333 14.5713 16.3333 13 16.3333C11.4287 16.3333 10.643 16.3333 10.1548 15.8452C9.66667 15.357 9.66667 14.5713 9.66667 13Z" stroke="#96BFFF"/>
<path d="M0.500002 13C0.500002 11.4287 0.500002 10.643 0.988157 10.1548C1.47631 9.66667 2.26199 9.66667 3.83334 9.66667C5.40468 9.66667 6.19036 9.66667 6.67851 10.1548C7.16667 10.643 7.16667 11.4287 7.16667 13C7.16667 14.5713 7.16667 15.357 6.67851 15.8452C6.19036 16.3333 5.40468 16.3333 3.83334 16.3333C2.26199 16.3333 1.47631 16.3333 0.988157 15.8452C0.500002 15.357 0.500002 14.5713 0.500002 13Z" stroke="#96BFFF"/>
<path d="M9.66667 3.83333C9.66667 2.26198 9.66667 1.47631 10.1548 0.988155C10.643 0.5 11.4287 0.5 13 0.5C14.5713 0.5 15.357 0.5 15.8452 0.988155C16.3333 1.47631 16.3333 2.26198 16.3333 3.83333C16.3333 5.40468 16.3333 6.19036 15.8452 6.67851C15.357 7.16667 14.5713 7.16667 13 7.16667C11.4287 7.16667 10.643 7.16667 10.1548 6.67851C9.66667 6.19036 9.66667 5.40468 9.66667 3.83333Z" stroke="#96BFFF"/>
</svg>
