<svg width="18" height="18" viewBox="0 0 18 18" fill="none" xmlns="http://www.w3.org/2000/svg">
<path d="M17.1667 12.1667C17.1667 13.5474 16.0474 14.6667 14.6667 14.6667C13.286 14.6667 12.1667 13.5474 12.1667 12.1667C12.1667 10.786 13.286 9.66667 14.6667 9.66667C16.0474 9.66667 17.1667 10.786 17.1667 12.1667Z" fill="#F2F7FF"/>
<path d="M15.0201 14.8021C15.0949 14.5363 14.94 14.2602 14.6742 14.1854C14.4084 14.1106 14.1322 14.2655 14.0575 14.5313L14.5388 14.6667L15.0201 14.8021ZM3.35714 1.83333C3.63329 1.83333 3.85714 1.60948 3.85714 1.33333C3.85714 1.05719 3.63329 0.833333 3.35714 0.833333V1.33333V1.83333ZM9.07143 0.833333C8.79529 0.833333 8.57143 1.05719 8.57143 1.33333C8.57143 1.60948 8.79529 1.83333 9.07143 1.83333V1.33333V0.833333ZM11.9189 3.61312L11.4208 3.65716L11.4208 3.65716L11.9189 3.61312ZM9.64879 1.34305L9.60474 1.84111L9.60474 1.84111L9.64879 1.34305ZM2.77979 1.34305L2.73575 0.844994L2.73575 0.844994L2.77979 1.34305ZM0.50972 3.61312L1.00778 3.65716L1.00778 3.65716L0.50972 3.61312ZM9.33334 0.5C9.33334 0.223858 9.10948 0 8.83334 0C8.55719 0 8.33334 0.223858 8.33334 0.5H8.83334H9.33334ZM8.33334 2.16667C8.33334 2.44281 8.55719 2.66667 8.83334 2.66667C9.10948 2.66667 9.33334 2.44281 9.33334 2.16667H8.83334H8.33334ZM4.33334 0.5C4.33334 0.223858 4.10948 0 3.83334 0C3.55719 0 3.33334 0.223858 3.33334 0.5H3.83334H4.33334ZM3.33334 2.16667C3.33334 2.44281 3.55719 2.66667 3.83334 2.66667C4.10948 2.66667 4.33334 2.44281 4.33334 2.16667H3.83334H3.33334ZM6.33334 10.6961H5.83334V13H6.33334H6.83334V10.6961H6.33334ZM10.5 17.1667V17.6667H11.2353V17.1667V16.6667H10.5V17.1667ZM6.33334 13H5.83334C5.83334 15.5774 7.92267 17.6667 10.5 17.6667V17.1667V16.6667C8.47496 16.6667 6.83334 15.0251 6.83334 13H6.33334ZM11.2353 17.1667V17.6667C13.0374 17.6667 14.5551 16.4546 15.0201 14.8021L14.5388 14.6667L14.0575 14.5313C13.7106 15.7639 12.5778 16.6667 11.2353 16.6667V17.1667ZM3.35714 1.33333V0.833333H3.28075V1.33333V1.83333H3.35714V1.33333ZM0.500002 4.11408H1.90735e-06V4.86274H0.500002H1V4.11408H0.500002ZM11.9286 5.10084H12.4286V4.11408H11.9286H11.4286V5.10084H11.9286ZM9.14783 1.33333V0.833333H9.07143V1.33333V1.83333H9.14783V1.33333ZM11.9286 4.11408H12.4286C12.4286 3.86405 12.4291 3.70649 12.4169 3.56908L11.9189 3.61312L11.4208 3.65716C11.4281 3.73954 11.4286 3.84268 11.4286 4.11408H11.9286ZM9.14783 1.33333V1.83333C9.41922 1.83333 9.52237 1.83382 9.60474 1.84111L9.64879 1.34305L9.69283 0.844994C9.55542 0.832843 9.39786 0.833333 9.14783 0.833333V1.33333ZM11.9189 3.61312L12.4169 3.56908C12.2889 2.12096 11.1409 0.97305 9.69283 0.844994L9.64879 1.34305L9.60474 1.84111C10.5702 1.92648 11.3354 2.69175 11.4208 3.65716L11.9189 3.61312ZM11.9286 5.10084H11.4286C11.4286 7.91487 9.14735 10.1961 6.33334 10.1961V10.6961V11.1961C9.69965 11.1961 12.4286 8.46714 12.4286 5.10084H11.9286ZM0.500002 4.86274H1.90735e-06C1.90735e-06 8.36054 2.83553 11.1961 6.33334 11.1961V10.6961V10.1961C3.38782 10.1961 1 7.80827 1 4.86274H0.500002ZM3.28075 1.33333V0.833333C3.03072 0.833333 2.87316 0.832843 2.73575 0.844994L2.77979 1.34305L2.82383 1.84111C2.9062 1.83382 3.00935 1.83333 3.28075 1.83333V1.33333ZM0.500002 4.11408H1C1 3.84268 1.00049 3.73954 1.00778 3.65716L0.50972 3.61312L0.0116631 3.56908C-0.00048801 3.70649 1.90735e-06 3.86405 1.90735e-06 4.11408H0.500002ZM2.77979 1.34305L2.73575 0.844994C1.28763 0.97305 0.139719 2.12096 0.0116631 3.56908L0.50972 3.61312L1.00778 3.65716C1.09315 2.69175 1.85842 1.92648 2.82383 1.84111L2.77979 1.34305ZM17.1667 12.1667H16.6667C16.6667 13.2712 15.7712 14.1667 14.6667 14.1667V14.6667V15.1667C16.3235 15.1667 17.6667 13.8235 17.6667 12.1667H17.1667ZM14.6667 14.6667V14.1667C13.5621 14.1667 12.6667 13.2712 12.6667 12.1667H12.1667H11.6667C11.6667 13.8235 13.0098 15.1667 14.6667 15.1667V14.6667ZM12.1667 12.1667H12.6667C12.6667 11.0621 13.5621 10.1667 14.6667 10.1667V9.66667V9.16667C13.0098 9.16667 11.6667 10.5098 11.6667 12.1667H12.1667ZM14.6667 9.66667V10.1667C15.7712 10.1667 16.6667 11.0621 16.6667 12.1667H17.1667H17.6667C17.6667 10.5098 16.3235 9.16667 14.6667 9.16667V9.66667ZM8.83334 0.5H8.33334V2.16667H8.83334H9.33334V0.5H8.83334ZM3.83334 0.5H3.33334V2.16667H3.83334H4.33334V0.5H3.83334Z" fill="#626060"/>
</svg>
