<svg width="20" height="20" viewBox="0 0 20 20" fill="none" xmlns="http://www.w3.org/2000/svg">
<path d="M18.3333 9.99984C18.3333 14.6022 14.6024 18.3332 10 18.3332C5.39763 18.3332 1.66667 14.6022 1.66667 9.99984C1.66667 5.39746 5.39763 1.6665 10 1.6665C14.6024 1.6665 18.3333 5.39746 18.3333 9.99984Z" fill="#F2F7FF"/>
<path d="M13.3333 9.99984C13.3333 11.8408 11.8409 13.3332 10 13.3332C8.15905 13.3332 6.66667 11.8408 6.66667 9.99984C6.66667 8.15889 8.15905 6.6665 10 6.6665C11.8409 6.6665 13.3333 8.15889 13.3333 9.99984Z" fill="#F2F7FF"/>
<path d="M12.5 7.49984L15.8333 4.1665M4.16667 15.8332L7.5 12.4998M7.5 7.49984L4.16667 4.1665M15.8333 15.8332L12.5 12.4998M18.3333 9.99984C18.3333 14.6022 14.6024 18.3332 10 18.3332C5.39763 18.3332 1.66667 14.6022 1.66667 9.99984C1.66667 5.39746 5.39763 1.6665 10 1.6665C14.6024 1.6665 18.3333 5.39746 18.3333 9.99984ZM13.3333 9.99984C13.3333 11.8408 11.8409 13.3332 10 13.3332C8.15905 13.3332 6.66667 11.8408 6.66667 9.99984C6.66667 8.15889 8.15905 6.6665 10 6.6665C11.8409 6.6665 13.3333 8.15889 13.3333 9.99984Z" stroke="#626060" stroke-linecap="round"/>
</svg>
