<svg width="18" height="18" viewBox="0 0 18 18" fill="none" xmlns="http://www.w3.org/2000/svg">
<path d="M8.83333 17.1667H13V3.83333C13 2.26198 13 1.47631 12.5118 0.988155C12.0237 0.5 11.238 0.5 9.66667 0.5H8C6.42865 0.5 5.64298 0.5 5.15482 0.988155C4.66667 1.47631 4.66667 2.26198 4.66667 3.83333V17.1667H8.83333Z" fill="#F2F7FF"/>
<path d="M17.1667 17.6667C17.4428 17.6667 17.6667 17.4428 17.6667 17.1667C17.6667 16.8905 17.4428 16.6667 17.1667 16.6667V17.1667V17.6667ZM0.5 16.6667C0.223858 16.6667 0 16.8905 0 17.1667C0 17.4428 0.223858 17.6667 0.5 17.6667V17.1667V16.6667ZM12.5118 0.988155L12.1583 1.34171L12.1583 1.34171L12.5118 0.988155ZM15.5926 3.28088L15.3148 3.69662L15.3148 3.69662L15.5926 3.28088ZM16.0524 3.74072L16.4682 3.46293L16.4682 3.46293L16.0524 3.74072ZM2.07405 3.28088L2.35183 3.69662L2.35183 3.69662L2.07405 3.28088ZM1.61422 3.74072L2.02995 4.0185L2.02995 4.0185L1.61422 3.74072ZM9.33333 14.6667C9.33333 14.3905 9.10948 14.1667 8.83333 14.1667C8.55719 14.1667 8.33333 14.3905 8.33333 14.6667H8.83333H9.33333ZM8.33333 8.83333C8.33333 9.10948 8.55719 9.33333 8.83333 9.33333C9.10948 9.33333 9.33333 9.10948 9.33333 8.83333H8.83333H8.33333ZM9.33333 5.5C9.33333 5.22386 9.10948 5 8.83333 5C8.55719 5 8.33333 5.22386 8.33333 5.5H8.83333H9.33333ZM10.5 7.66667C10.7761 7.66667 11 7.44281 11 7.16667C11 6.89052 10.7761 6.66667 10.5 6.66667V7.16667V7.66667ZM7.16667 6.66667C6.89052 6.66667 6.66667 6.89052 6.66667 7.16667C6.66667 7.44281 6.89052 7.66667 7.16667 7.66667V7.16667V6.66667ZM17.1667 17.1667V16.6667H16.3333V17.1667V17.6667H17.1667V17.1667ZM16.3333 17.1667V16.6667H13V17.1667V17.6667H16.3333V17.1667ZM13 17.1667V16.6667H8.83333V17.1667V17.6667H13V17.1667ZM8.83333 17.1667V16.6667H4.66667V17.1667V17.6667H8.83333V17.1667ZM4.66667 17.1667V16.6667H1.33333V17.1667V17.6667H4.66667V17.1667ZM1.33333 17.1667V16.6667H0.5V17.1667V17.6667H1.33333V17.1667ZM8 0.5V1H9.66667V0.5V0H8V0.5ZM13 3.83333H12.5V17.1667H13H13.5V3.83333H13ZM4.66667 17.1667H5.16667V3.83333H4.66667H4.16667V17.1667H4.66667ZM9.66667 0.5V1C10.4665 1 11.016 1.00106 11.4288 1.05656C11.8272 1.11013 12.0226 1.20602 12.1583 1.34171L12.5118 0.988155L12.8654 0.634602C12.5129 0.28214 12.0714 0.133952 11.5621 0.065478C11.0672 -0.00106187 10.4382 0 9.66667 0V0.5ZM13 3.83333H13.5C13.5 3.06179 13.5011 2.43284 13.4345 1.93792C13.366 1.42862 13.2179 0.987064 12.8654 0.634602L12.5118 0.988155L12.1583 1.34171C12.294 1.4774 12.3899 1.67276 12.4434 2.07117C12.4989 2.48397 12.5 3.03352 12.5 3.83333H13ZM8 0.5V0C7.22846 0 6.59951 -0.00106187 6.10459 0.065478C5.59529 0.133952 5.15373 0.28214 4.80127 0.634602L5.15482 0.988155L5.50838 1.34171C5.64407 1.20602 5.83942 1.11013 6.23784 1.05656C6.65063 1.00106 7.20019 1 8 1V0.5ZM4.66667 3.83333H5.16667C5.16667 3.03352 5.16773 2.48397 5.22323 2.07117C5.27679 1.67276 5.37268 1.4774 5.50838 1.34171L5.15482 0.988155L4.80127 0.634602C4.44881 0.987064 4.30062 1.42862 4.23214 1.93792C4.1656 2.43284 4.16667 3.06179 4.16667 3.83333H4.66667ZM16.3333 5.91667H15.8333V17.1667H16.3333H16.8333V5.91667H16.3333ZM13.4167 3V3.5C14.0123 3.5 14.4213 3.5006 14.7353 3.53254C15.0409 3.56363 15.2005 3.62022 15.3148 3.69662L15.5926 3.28088L15.8704 2.86515C15.5644 2.66066 15.2212 2.57681 14.8365 2.53768C14.4602 2.4994 13.9915 2.5 13.4167 2.5V3ZM16.3333 5.91667H16.8333C16.8333 5.34188 16.8339 4.87315 16.7957 4.49683C16.7565 4.11216 16.6727 3.76897 16.4682 3.46293L16.0524 3.74072L15.6367 4.0185C15.7131 4.13284 15.7697 4.29243 15.8008 4.59804C15.8327 4.912 15.8333 5.32107 15.8333 5.91667H16.3333ZM15.5926 3.28088L15.3148 3.69662C15.4422 3.78174 15.5516 3.89111 15.6367 4.0185L16.0524 3.74072L16.4682 3.46293C16.3101 3.22635 16.107 3.02323 15.8704 2.86515L15.5926 3.28088ZM1.33333 5.91667H0.833333V17.1667H1.33333H1.83333V5.91667H1.33333ZM4.25 3V2.5C3.67521 2.5 3.20649 2.4994 2.83017 2.53768C2.44549 2.57681 2.1023 2.66066 1.79626 2.86515L2.07405 3.28088L2.35183 3.69662C2.46617 3.62022 2.62576 3.56363 2.93137 3.53254C3.24534 3.5006 3.6544 3.5 4.25 3.5V3ZM1.33333 5.91667H1.83333C1.83333 5.32107 1.83394 4.912 1.86588 4.59804C1.89697 4.29243 1.95355 4.13284 2.02995 4.0185L1.61422 3.74072L1.19848 3.46293C0.993997 3.76897 0.910143 4.11216 0.871011 4.49683C0.832729 4.87315 0.833333 5.34188 0.833333 5.91667H1.33333ZM2.07405 3.28088L1.79626 2.86515C1.55969 3.02323 1.35656 3.22635 1.19848 3.46293L1.61422 3.74072L2.02995 4.0185C2.11507 3.89111 2.22445 3.78174 2.35183 3.69662L2.07405 3.28088ZM8.83333 17.1667H9.33333V14.6667H8.83333H8.33333V17.1667H8.83333ZM8.83333 8.83333H9.33333V7.16667H8.83333H8.33333V8.83333H8.83333ZM8.83333 7.16667H9.33333V5.5H8.83333H8.33333V7.16667H8.83333ZM10.5 7.16667V6.66667H8.83333V7.16667V7.66667H10.5V7.16667ZM8.83333 7.16667V6.66667H7.16667V7.16667V7.66667H8.83333V7.16667Z" fill="#626060"/>
</svg>
