<svg width="127" height="30" viewBox="0 0 127 30" fill="none" xmlns="http://www.w3.org/2000/svg">
<g clip-path="url(#clip0_4801_106794)">
<path fill-rule="evenodd" clip-rule="evenodd" d="M117.017 21.8129C120.195 20.1756 122.369 16.8615 122.369 13.0399C122.369 7.59294 117.953 3.17731 112.506 3.17731C107.058 3.17731 102.642 7.59294 102.642 13.0399C102.642 18.4868 107.058 22.9024 112.506 22.9024C112.905 22.9024 113.053 22.9048 113.444 22.8579C114.706 26.227 117.845 27.2447 120.75 25.327C120.524 25.094 120.345 24.8157 120.227 24.5072C115.646 27.3782 114.284 21.611 113.997 21.6367C113.507 21.6806 113.014 21.7638 112.506 21.7638C107.687 21.7638 103.78 17.8579 103.78 13.0398C103.78 8.22173 107.687 4.31586 112.506 4.31586C117.324 4.31586 121.231 8.22173 121.231 13.0398C121.231 16.5173 119.196 19.5196 116.252 20.921C115.885 21.0956 115.665 21.4659 115.876 21.8296C116.038 22.1105 116.312 22.1759 117.017 21.8128L117.017 21.8129Z" fill="#0744BD" stroke="#0744BD" stroke-width="0.5" stroke-miterlimit="22.9256"/>
<path d="M92.9971 14.8155H99.9897V16.47H92.9971V14.8155Z" fill="#0744BD"/>
<path d="M85.1049 11.5865C85.5497 10.6436 86.2125 9.93202 87.0933 9.45167C87.9741 8.97132 89.0639 8.73114 90.3628 8.73114V10.5724L89.909 10.5458C88.4322 10.5458 87.2757 10.9995 86.4394 11.9068C85.6031 12.8141 85.185 14.0861 85.185 15.7228V22.8746H83.29V8.8379H85.1049V11.5865Z" fill="#0744BD"/>
<path d="M75.0443 8.73113C76.877 8.73113 78.2826 9.18924 79.2612 10.1055C80.2398 11.0217 80.7291 12.3781 80.7291 14.175V22.8746H78.9142V20.6863C78.4872 21.4158 77.86 21.985 77.0326 22.3942C76.2052 22.8034 75.2222 23.008 74.0834 23.008C72.5176 23.008 71.2721 22.6343 70.3469 21.8871C69.4217 21.14 68.959 20.1526 68.959 18.925C68.959 17.7331 69.3904 16.7724 70.2534 16.043C71.1164 15.3136 72.4909 14.9489 74.377 14.9489H78.8341V14.0949C78.8341 12.8852 78.496 11.9645 77.8199 11.3329C77.1438 10.7014 76.1562 10.3856 74.8574 10.3856C73.9677 10.3856 73.1137 10.5323 72.2952 10.8259C71.4767 11.1195 70.7739 11.5242 70.1867 12.0401L69.3326 10.6257C70.0443 10.0209 70.8984 9.55385 71.8948 9.22475C72.8912 8.89566 73.941 8.73108 75.0442 8.73108L75.0443 8.73113ZM74.377 21.5136C75.4446 21.5136 76.3609 21.269 77.126 20.7797C77.8911 20.2905 78.4605 19.5833 78.8341 18.6582V16.3632H74.4304C72.0283 16.3632 70.8273 17.1994 70.8273 18.8717C70.8273 19.6901 71.1387 20.335 71.7614 20.8064C72.3841 21.2778 73.256 21.5136 74.377 21.5136V21.5136Z" fill="#0744BD"/>
<path d="M60.643 8.73112C62.4045 8.73112 63.8057 9.24263 64.8466 10.2656C65.8875 11.2885 66.4079 12.7785 66.4079 14.7354V22.8745H64.513V14.9222C64.513 13.4634 64.1482 12.3515 63.4187 11.5865C62.6892 10.8214 61.6483 10.439 60.296 10.439C58.7836 10.439 57.5871 10.8882 56.7063 11.7866C55.8256 12.685 55.3852 13.9259 55.3852 15.5093V22.8745H53.4902V3.07373H55.3852V11.2929C55.9012 10.4746 56.6129 9.84302 57.5204 9.39824C58.4278 8.95346 59.4687 8.73107 60.643 8.73107V8.73112Z" fill="#0744BD"/>
<path d="M45.3764 23.0081C43.9885 23.0081 42.7475 22.7056 41.6532 22.1007C40.5589 21.4958 39.7004 20.6464 39.0776 19.5522C38.4549 18.4581 38.1436 17.2261 38.1436 15.8563C38.1436 14.4864 38.4549 13.2589 39.0776 12.1737C39.7004 11.0885 40.5589 10.2434 41.6532 9.63855C42.7475 9.03365 43.9885 8.7312 45.3764 8.7312C46.5863 8.7312 47.6672 8.96692 48.6192 9.43835C49.5711 9.90983 50.3228 10.5992 50.8744 11.5065L49.4599 12.4672C48.9973 11.7733 48.4101 11.253 47.6983 10.9061C46.9866 10.5592 46.2126 10.3857 45.3764 10.3857C44.3622 10.3857 43.4502 10.6126 42.6407 11.0662C41.8311 11.5199 41.1995 12.1647 40.7457 13.0009C40.2919 13.837 40.0651 14.7888 40.0651 15.8563C40.0651 16.9415 40.292 17.8977 40.7457 18.725C41.1995 19.5522 41.8311 20.1927 42.6407 20.6464C43.4502 21.1001 44.3622 21.3268 45.3764 21.3268C46.2126 21.3268 46.9866 21.1578 47.6983 20.8198C48.41 20.4818 48.9973 19.9658 49.4599 19.272L50.8744 20.2326C50.3228 21.14 49.5666 21.8293 48.6058 22.3008C47.645 22.7723 46.5685 23.008 45.3764 23.008V23.0081Z" fill="#0744BD"/>
<path d="M28.6947 8.73114C30.0114 8.73114 31.2035 9.02913 32.2712 9.62511C33.3387 10.2211 34.175 11.0616 34.78 12.1469C35.385 13.2321 35.6874 14.4686 35.6874 15.8563C35.6874 17.2617 35.385 18.507 34.78 19.5923C34.175 20.6775 33.3432 21.5181 32.2845 22.1141C31.2258 22.7101 30.0293 23.0081 28.6948 23.0081C27.556 23.0081 26.5285 22.7724 25.6122 22.3009C24.6958 21.8294 23.944 21.1401 23.3569 20.2327V28.0517H21.4619V8.8379H23.2768V11.6132C23.8462 10.6881 24.5979 9.97645 25.532 9.47832C26.4662 8.98023 27.5204 8.73114 28.6947 8.73114ZM28.5613 21.3268C29.5399 21.3268 30.4295 21.1 31.2302 20.6464C32.0309 20.1927 32.6581 19.5478 33.1118 18.7116C33.5656 17.8755 33.7924 16.9237 33.7924 15.8563C33.7924 14.7888 33.5655 13.8415 33.1118 13.0143C32.6581 12.187 32.0309 11.5421 31.2302 11.0795C30.4296 10.617 29.5399 10.3857 28.5613 10.3857C27.5649 10.3857 26.6707 10.617 25.879 11.0795C25.0872 11.5421 24.4645 12.187 24.0108 13.0143C23.557 13.8416 23.3302 14.7888 23.3302 15.8563C23.3302 16.9237 23.5571 17.8755 24.0108 18.7116C24.4645 19.5478 25.0872 20.1927 25.879 20.6464C26.6708 21.1001 27.5649 21.3268 28.5613 21.3268Z" fill="#0744BD"/>
<path fill-rule="evenodd" clip-rule="evenodd" d="M2.46029 3.1972H5.02507C4.91186 3.40133 4.84735 3.63615 4.84735 3.88598C4.84735 4.15939 4.92455 4.41475 5.05825 4.63157H4.02775C3.73009 4.63157 3.485 4.87668 3.485 5.17424V14.3316C3.485 18.9079 6.96336 21.0338 10.4428 20.9832C13.8209 20.9341 17.0987 18.8411 17.0965 14.3316L17.0919 5.17753C17.0918 4.87912 16.8465 4.63491 16.5491 4.63491H15.609C15.718 4.43365 15.7799 4.22018 15.7799 3.95845C15.7799 3.69672 15.6997 3.41991 15.5612 3.20055H18.1036C18.5979 3.20055 19.0022 3.60546 19.0024 4.09908L19.007 14.4947C19.012 25.8897 1.56152 25.6917 1.56152 14.4947V4.09584C1.56152 3.60158 1.96601 3.19726 2.46024 3.19726L2.46029 3.1972Z" fill="#0744BD"/>
<path d="M6.25329 5.70454C7.29064 5.70454 8.13158 4.86372 8.13158 3.82651C8.13158 2.78931 7.29064 1.94849 6.25329 1.94849C5.21594 1.94849 4.375 2.78931 4.375 3.82651C4.375 4.86372 5.21594 5.70454 6.25329 5.70454Z" fill="#87AFFF" stroke="white" stroke-width="0.5" stroke-miterlimit="22.9256"/>
<path d="M14.3529 5.70454C15.3903 5.70454 16.2312 4.86372 16.2312 3.82651C16.2312 2.78931 15.3903 1.94849 14.3529 1.94849C13.3155 1.94849 12.4746 2.78931 12.4746 3.82651C12.4746 4.86372 13.3155 5.70454 14.3529 5.70454Z" fill="#87AFFF" stroke="white" stroke-width="0.5" stroke-miterlimit="22.9256"/>
<path fill-rule="evenodd" clip-rule="evenodd" d="M112.498 10.1104H112.498C112.923 10.1104 113.27 10.4581 113.27 10.8831V12.4675H114.855C115.28 12.4675 115.628 12.8152 115.628 13.2402V13.2403C115.628 13.6653 115.28 14.013 114.855 14.013H113.27V15.5974C113.27 16.0224 112.923 16.3701 112.498 16.3701H112.498C112.072 16.3701 111.725 16.0224 111.725 15.5974V14.013H110.14C109.715 14.013 109.367 13.6653 109.367 13.2403V13.2402C109.367 12.8152 109.715 12.4675 110.14 12.4675H111.725V10.8831C111.725 10.4581 112.072 10.1104 112.498 10.1104Z" fill="#87AFFF"/>
<path fill-rule="evenodd" clip-rule="evenodd" d="M122.952 20.6934C124.406 20.6934 125.585 21.8723 125.585 23.3265C125.585 24.7807 124.406 25.9597 122.952 25.9597C121.497 25.9597 120.318 24.7807 120.318 23.3265C120.318 21.8723 121.497 20.6934 122.952 20.6934ZM122.952 21.5013C123.96 21.5013 124.777 22.3184 124.777 23.3265C124.777 24.3346 123.96 25.1517 122.952 25.1517C121.944 25.1517 121.126 24.3346 121.126 23.3265C121.126 22.3184 121.944 21.5013 122.952 21.5013Z" fill="#87AFFF"/>
<path d="M122.952 24.5388C123.621 24.5388 124.164 23.9961 124.164 23.3265C124.164 22.657 123.621 22.1143 122.952 22.1143C122.282 22.1143 121.739 22.657 121.739 23.3265C121.739 23.9961 122.282 24.5388 122.952 24.5388Z" fill="#0744BD"/>
</g>
<defs>
<clipPath id="clip0_4801_106794">
<rect width="127" height="30" fill="white"/>
</clipPath>
</defs>
</svg>
