<svg width="20" height="20" viewBox="0 0 20 20" fill="none" xmlns="http://www.w3.org/2000/svg">
<path d="M13.3648 2.50033C14.7302 2.50033 15.8531 3.65033 15.8531 5.06699C15.8531 6.48366 14.7382 7.62533 13.3648 7.62533" fill="#F2F7FF"/>
<path d="M17.1942 14.7837C18.3333 14.267 18.3333 13.4003 18.3333 12.4253C18.3333 10.992 16.5156 9.79199 14.1404 9.57532" fill="#F2F7FF"/>
<path d="M11.3613 5.00033C11.3613 6.84199 9.91517 8.33366 8.12975 8.33366C6.34432 8.33366 4.89821 6.84199 4.89821 5.00033C4.89821 3.15866 6.34432 1.66699 8.12975 1.66699C9.91517 1.66699 11.3613 3.15866 11.3613 5.00033Z" fill="#F2F7FF"/>
<path d="M14.5928 14.5837C14.5928 16.6587 14.5928 18.3337 8.12974 18.3337C1.66667 18.3337 1.66667 16.6587 1.66667 14.5837C1.66667 12.5087 4.55889 10.8337 8.12974 10.8337C11.7006 10.8337 14.5928 12.5087 14.5928 14.5837Z" fill="#F2F7FF"/>
<path d="M13.3648 2.50033C14.7302 2.50033 15.8531 3.65033 15.8531 5.06699C15.8531 6.48366 14.7382 7.62533 13.3648 7.62533M17.1942 14.7837C18.3333 14.267 18.3333 13.4003 18.3333 12.4253C18.3333 10.992 16.5156 9.79199 14.1404 9.57532M11.3613 5.00033C11.3613 6.84199 9.91517 8.33366 8.12975 8.33366C6.34432 8.33366 4.89821 6.84199 4.89821 5.00033C4.89821 3.15866 6.34432 1.66699 8.12975 1.66699C9.91517 1.66699 11.3613 3.15866 11.3613 5.00033ZM14.5928 14.5837C14.5928 16.6587 14.5928 18.3337 8.12974 18.3337C1.66667 18.3337 1.66667 16.6587 1.66667 14.5837C1.66667 12.5087 4.55889 10.8337 8.12974 10.8337C11.7006 10.8337 14.5928 12.5087 14.5928 14.5837Z" stroke="#626060" stroke-linecap="round" stroke-linejoin="round"/>
</svg>
