
<svg width="16" height="18" viewBox="0 0 16 18" fill="none" xmlns="http://www.w3.org/2000/svg">
<path d="M4.5359 2.00176C6.2265 1.00059 7.0718 0.5 8 0.5C8.9282 0.5 9.7735 1.00059 11.4641 2.00176L12.0359 2.34038C13.7265 3.34156 14.5718 3.84214 15.0359 4.66667C15.5 5.49119 15.5 6.49237 15.5 8.49472V9.17195C15.5 11.1743 15.5 12.1755 15.0359 13C14.5718 13.8245 13.7265 14.3251 12.0359 15.3263L11.4641 15.6649C9.7735 16.6661 8.9282 17.1667 8 17.1667C7.0718 17.1667 6.2265 16.6661 4.5359 15.6649L3.9641 15.3263C2.2735 14.3251 1.4282 13.8245 0.964102 13C0.5 12.1755 0.5 11.1743 0.5 9.17195V8.49471C0.5 6.49237 0.5 5.49119 0.964102 4.66667C1.4282 3.84214 2.2735 3.34156 3.9641 2.34038L4.5359 2.00176Z" fill="#F2F7FF"/>
<path d="M10.5 8.83333C10.5 10.214 9.38071 11.3333 8 11.3333C6.61929 11.3333 5.5 10.214 5.5 8.83333C5.5 7.45262 6.61929 6.33333 8 6.33333C9.38071 6.33333 10.5 7.45262 10.5 8.83333Z" fill="#F2F7FF"/>
<path d="M3.9641 2.34038L4.21888 2.7706L4.21888 2.7706L3.9641 2.34038ZM3.9641 15.3263L3.70932 15.7565L3.70933 15.7565L3.9641 15.3263ZM11.4641 15.6649L11.7189 16.0951L11.7189 16.0951L11.4641 15.6649ZM4.5359 15.6649L4.79067 15.2347L4.79067 15.2347L4.5359 15.6649ZM8 17.1667L8 16.6667L8 17.1667ZM12.0359 15.3263L11.7811 14.8961L11.7811 14.8961L12.0359 15.3263ZM12.0359 2.34038L11.7811 2.7706L11.7811 2.7706L12.0359 2.34038ZM11.4641 2.00176L11.7189 1.57154L11.7189 1.57154L11.4641 2.00176ZM4.5359 2.00176L4.28112 1.57154L4.28112 1.57154L4.5359 2.00176ZM11.4641 2.00176L11.2093 2.43198L11.7811 2.7706L12.0359 2.34038L12.2907 1.91016L11.7189 1.57154L11.4641 2.00176ZM15.5 8.49472H15V9.17195H15.5H16V8.49472H15.5ZM12.0359 15.3263L11.7811 14.8961L11.2093 15.2347L11.4641 15.6649L11.7189 16.0951L12.2907 15.7565L12.0359 15.3263ZM4.5359 15.6649L4.79067 15.2347L4.21888 14.8961L3.9641 15.3263L3.70933 15.7565L4.28112 16.0951L4.5359 15.6649ZM0.5 9.17195H1V8.49471H0.5H0V9.17195H0.5ZM3.9641 2.34038L4.21888 2.7706L4.79067 2.43198L4.5359 2.00176L4.28112 1.57154L3.70932 1.91016L3.9641 2.34038ZM0.5 8.49471H1C1 7.48406 1.00053 6.76109 1.05572 6.18684C1.10991 5.623 1.21404 5.24198 1.39982 4.91192L0.964102 4.66667L0.528383 4.42141C0.250061 4.91588 0.122145 5.4477 0.0603058 6.09118C-0.000531934 6.72422 0 7.50302 0 8.49471H0.5ZM3.9641 2.34038L3.70932 1.91016C2.87245 2.40576 2.21331 2.79544 1.70801 3.16691C1.19346 3.54518 0.807076 3.92629 0.528383 4.42141L0.964102 4.66667L1.39982 4.91192C1.58523 4.58252 1.85354 4.30107 2.30032 3.97262C2.75634 3.63738 3.36516 3.27617 4.21888 2.7706L3.9641 2.34038ZM3.9641 15.3263L4.21888 14.8961C3.36516 14.3905 2.75634 14.0293 2.30032 13.694C1.85354 13.3656 1.58523 13.0841 1.39982 12.7547L0.964102 13L0.528383 13.2453C0.807076 13.7404 1.19346 14.1215 1.70801 14.4998C2.21331 14.8712 2.87245 15.2609 3.70932 15.7565L3.9641 15.3263ZM0.5 9.17195H0C0 10.1636 -0.000531934 10.9424 0.0603058 11.5755C0.122145 12.219 0.250061 12.7508 0.528383 13.2453L0.964102 13L1.39982 12.7547C1.21404 12.4247 1.10991 12.0437 1.05572 11.4798C1.00053 10.9056 1 10.1826 1 9.17195H0.5ZM11.4641 15.6649L11.2093 15.2347C10.3555 15.7403 9.74626 16.1004 9.23546 16.3378C8.73469 16.5705 8.36566 16.6667 8 16.6667L8 17.1667L8 17.6667C8.56254 17.6667 9.08026 17.5126 9.65684 17.2447C10.2234 16.9814 10.8821 16.5907 11.7189 16.0951L11.4641 15.6649ZM4.5359 15.6649L4.28112 16.0951C5.1179 16.5907 5.7766 16.9814 6.34316 17.2447C6.91974 17.5126 7.43745 17.6667 8 17.6667L8 17.1667L8 16.6667C7.63434 16.6667 7.2653 16.5705 6.76454 16.3378C6.25374 16.1004 5.6445 15.7403 4.79067 15.2347L4.5359 15.6649ZM15.5 9.17195H15C15 10.1826 14.9995 10.9056 14.9443 11.4798C14.8901 12.0437 14.786 12.4247 14.6002 12.7547L15.0359 13L15.4716 13.2453C15.7499 12.7508 15.8779 12.219 15.9397 11.5755C16.0005 10.9424 16 10.1636 16 9.17195H15.5ZM12.0359 15.3263L12.2907 15.7565C13.1276 15.2609 13.7867 14.8712 14.292 14.4998C14.8065 14.1215 15.1929 13.7404 15.4716 13.2453L15.0359 13L14.6002 12.7547C14.4148 13.0841 14.1465 13.3656 13.6997 13.694C13.2437 14.0293 12.6348 14.3905 11.7811 14.8961L12.0359 15.3263ZM12.0359 2.34038L11.7811 2.7706C12.6348 3.27617 13.2437 3.63738 13.6997 3.97262C14.1465 4.30107 14.4148 4.58252 14.6002 4.91192L15.0359 4.66667L15.4716 4.42141C15.1929 3.92629 14.8065 3.54518 14.292 3.16691C13.7867 2.79544 13.1276 2.40576 12.2907 1.91016L12.0359 2.34038ZM15.5 8.49472H16C16 7.50303 16.0005 6.72422 15.9397 6.09118C15.8779 5.4477 15.7499 4.91588 15.4716 4.42141L15.0359 4.66667L14.6002 4.91192C14.786 5.24198 14.8901 5.623 14.9443 6.18684C14.9995 6.7611 15 7.48406 15 8.49472H15.5ZM11.4641 2.00176L11.7189 1.57154C10.8821 1.076 10.2234 0.685245 9.65684 0.421998C9.08026 0.154091 8.56254 -1.37564e-08 8 0L8 0.5L8 1C8.36566 1 8.73469 1.0962 9.23546 1.32888C9.74626 1.56622 10.3555 1.92635 11.2093 2.43198L11.4641 2.00176ZM4.5359 2.00176L4.79067 2.43198C5.6445 1.92635 6.25374 1.56622 6.76454 1.32888C7.2653 1.0962 7.63434 1 8 1L8 0.5L8 0C7.43745 1.37579e-08 6.91974 0.154091 6.34316 0.421998C5.7766 0.685245 5.1179 1.076 4.28112 1.57154L4.5359 2.00176ZM10.5 8.83333H10C10 9.9379 9.10457 10.8333 8 10.8333V11.3333V11.8333C9.65685 11.8333 11 10.4902 11 8.83333H10.5ZM8 11.3333V10.8333C6.89543 10.8333 6 9.9379 6 8.83333H5.5H5C5 10.4902 6.34315 11.8333 8 11.8333V11.3333ZM5.5 8.83333H6C6 7.72876 6.89543 6.83333 8 6.83333V6.33333V5.83333C6.34315 5.83333 5 7.17648 5 8.83333H5.5ZM8 6.33333V6.83333C9.10457 6.83333 10 7.72876 10 8.83333H10.5H11C11 7.17648 9.65685 5.83333 8 5.83333V6.33333Z" fill="#626060"/>
</svg>
