<svg width="15" height="15" viewBox="0 0 15 15" fill="none" xmlns="http://www.w3.org/2000/svg">
<path d="M0.5 6.99573C0.5 4.4171 0.5 3.12779 1.28105 2.32672C2.0621 1.52564 3.31918 1.52564 5.83333 1.52564H8.5C11.0142 1.52564 12.2712 1.52564 13.0523 2.32672C13.8333 3.12779 13.8333 4.4171 13.8333 6.99573V8.36325C13.8333 10.9419 13.8333 12.2312 13.0523 13.0323C12.2712 13.8333 11.0142 13.8333 8.5 13.8333H5.83333C3.31918 13.8333 2.0621 13.8333 1.28105 13.0323C0.5 12.2312 0.5 10.9419 0.5 8.36325V6.99573Z" fill="#96BFFF"/>
<path d="M11.1667 10.2308C11.4428 10.2308 11.6667 10.0069 11.6667 9.73078C11.6667 9.45464 11.4428 9.23078 11.1667 9.23078V9.73078V10.2308ZM8.5 9.23078C8.22386 9.23078 8 9.45464 8 9.73078C8 10.0069 8.22386 10.2308 8.5 10.2308L8.5 9.73078L8.5 9.23078ZM10.3333 8.36325C10.3333 8.08711 10.1095 7.86325 9.83333 7.86325C9.55719 7.86325 9.33333 8.08711 9.33333 8.36325H9.83333H10.3333ZM9.33333 11.0983C9.33333 11.3744 9.55719 11.5983 9.83333 11.5983C10.1095 11.5983 10.3333 11.3744 10.3333 11.0983H9.83333H9.33333ZM3.33333 1.52564C3.33333 1.80178 3.55719 2.02564 3.83333 2.02564C4.10948 2.02564 4.33333 1.80178 4.33333 1.52564H3.83333H3.33333ZM4.33333 0.5C4.33333 0.223858 4.10948 0 3.83333 0C3.55719 0 3.33333 0.223858 3.33333 0.5H3.83333H4.33333ZM10 1.52564C10 1.80178 10.2239 2.02564 10.5 2.02564C10.7761 2.02564 11 1.80178 11 1.52564H10.5H10ZM11 0.5C11 0.223858 10.7761 0 10.5 0C10.2239 0 10 0.223858 10 0.5H10.5H11ZM0.833333 4.44444C0.557191 4.44444 0.333333 4.6683 0.333333 4.94444C0.333333 5.22059 0.557191 5.44444 0.833333 5.44444V4.94444V4.44444ZM13.5 5.44444C13.7761 5.44444 14 5.22059 14 4.94444C14 4.6683 13.7761 4.44444 13.5 4.44444V4.94444V5.44444ZM5.83333 1.52564V2.02564H8.5V1.52564V1.02564H5.83333V1.52564ZM13.8333 6.99573H13.3333V8.36325H13.8333H14.3333V6.99573H13.8333ZM8.5 13.8333V13.3333H5.83333V13.8333V14.3333H8.5V13.8333ZM0.5 8.36325H1V6.99573H0.5H0V8.36325H0.5ZM5.83333 13.8333V13.3333C4.56177 13.3333 3.65966 13.3322 2.97558 13.2379C2.3072 13.1457 1.92174 12.9731 1.63905 12.6832L1.28105 13.0323L0.923048 13.3813C1.42141 13.8924 2.05501 14.1204 2.83897 14.2285C3.60723 14.3344 4.59074 14.3333 5.83333 14.3333V13.8333ZM0.5 8.36325H0C0 9.63877 -0.00101036 10.6445 0.101872 11.4293C0.206474 12.2273 0.426412 12.8719 0.923048 13.3813L1.28105 13.0323L1.63905 12.6832C1.35464 12.3915 1.18405 11.991 1.09339 11.2993C1.00101 10.5946 1 9.66635 1 8.36325H0.5ZM13.8333 8.36325H13.3333C13.3333 9.66635 13.3323 10.5946 13.2399 11.2993C13.1493 11.991 12.9787 12.3915 12.6943 12.6832L13.0523 13.0323L13.4103 13.3813C13.9069 12.8719 14.1269 12.2273 14.2315 11.4293C14.3343 10.6445 14.3333 9.63877 14.3333 8.36325H13.8333ZM8.5 13.8333V14.3333C9.74259 14.3333 10.7261 14.3344 11.4944 14.2285C12.2783 14.1204 12.9119 13.8924 13.4103 13.3813L13.0523 13.0323L12.6943 12.6832C12.4116 12.9731 12.0261 13.1457 11.3578 13.2379C10.6737 13.3322 9.77157 13.3333 8.5 13.3333V13.8333ZM8.5 1.52564V2.02564C9.77157 2.02564 10.6737 2.02676 11.3578 2.12109C12.0261 2.21325 12.4116 2.38583 12.6943 2.67577L13.0523 2.32672L13.4103 1.97767C12.9119 1.46653 12.2783 1.23857 11.4944 1.13046C10.7261 1.02453 9.74259 1.02564 8.5 1.02564V1.52564ZM13.8333 6.99573H14.3333C14.3333 5.72021 14.3343 4.71451 14.2315 3.92965C14.1269 3.13169 13.9069 2.48704 13.4103 1.97767L13.0523 2.32672L12.6943 2.67577C12.9787 2.96747 13.1493 3.36801 13.2399 4.05963C13.3323 4.76436 13.3333 5.69262 13.3333 6.99573H13.8333ZM5.83333 1.52564V1.02564C4.59074 1.02564 3.60723 1.02453 2.83897 1.13046C2.05501 1.23857 1.42141 1.46653 0.923048 1.97767L1.28105 2.32672L1.63905 2.67577C1.92174 2.38583 2.3072 2.21325 2.97558 2.12109C3.65966 2.02676 4.56177 2.02564 5.83333 2.02564V1.52564ZM0.5 6.99573H1C1 5.69262 1.00101 4.76436 1.09339 4.05963C1.18405 3.36801 1.35464 2.96747 1.63905 2.67577L1.28105 2.32672L0.923048 1.97767C0.426412 2.48704 0.206474 3.13169 0.101872 3.92965C-0.00101036 4.71451 0 5.72021 0 6.99573H0.5ZM11.1667 9.73078V9.23078H9.83333V9.73078V10.2308H11.1667V9.73078ZM9.83333 9.73078L9.83333 9.23078L8.5 9.23078L8.5 9.73078L8.5 10.2308L9.83333 10.2308L9.83333 9.73078ZM9.83333 8.36325H9.33333V9.73078H9.83333H10.3333V8.36325H9.83333ZM9.83333 9.73078H9.33333V11.0983H9.83333H10.3333V9.73078H9.83333ZM3.83333 1.52564H4.33333V0.5H3.83333H3.33333V1.52564H3.83333ZM10.5 1.52564H11V0.5H10.5H10V1.52564H10.5ZM0.833333 4.94444V5.44444H13.5V4.94444V4.44444H0.833333V4.94444Z" fill="#626060"/>
</svg>
