<svg width="16" height="16" viewBox="0 0 16 16" fill="none" xmlns="http://www.w3.org/2000/svg">
<path d="M2.66699 6.76187C2.66699 3.76359 5.05481 1.33301 8.00033 1.33301C10.9458 1.33301 13.3337 3.76359 13.3337 6.76187C13.3337 9.73665 11.6314 13.2079 8.97561 14.4493C8.3565 14.7387 7.64415 14.7387 7.02504 14.4493C4.36921 13.2079 2.66699 9.73665 2.66699 6.76187Z" fill="#96BFFF"/>
<path d="M10.0003 6.66634C10.0003 7.77091 9.1049 8.66634 8.00033 8.66634C6.89576 8.66634 6.00033 7.77091 6.00033 6.66634C6.00033 5.56177 6.89576 4.66634 8.00033 4.66634C9.1049 4.66634 10.0003 5.56177 10.0003 6.66634Z" fill="#96BFFF"/>
<path d="M8.97561 14.4493L8.7639 13.9963L8.7639 13.9963L8.97561 14.4493ZM7.02504 14.4493L7.23676 13.9963L7.23676 13.9963L7.02504 14.4493ZM8.97561 14.4493L8.7639 13.9963C8.27896 14.223 7.72169 14.223 7.23676 13.9963L7.02504 14.4493L6.81332 14.9023C7.56661 15.2544 8.43404 15.2544 9.18733 14.9023L8.97561 14.4493ZM2.66699 6.76187H2.16699C2.16699 8.3386 2.61634 10.0316 3.4107 11.4942C4.20407 12.9551 5.36324 14.2245 6.81332 14.9023L7.02504 14.4493L7.23676 13.9963C6.03101 13.4328 5.01115 12.3458 4.28946 11.017C3.56875 9.68995 3.16699 8.15992 3.16699 6.76187H2.66699ZM13.3337 6.76187H12.8337C12.8337 8.15992 12.4319 9.68995 11.7112 11.017C10.9895 12.3458 9.96965 13.4328 8.7639 13.9963L8.97561 14.4493L9.18733 14.9023C10.6374 14.2245 11.7966 12.9551 12.59 11.4942C13.3843 10.0316 13.8337 8.3386 13.8337 6.76187H13.3337ZM8.00033 1.33301V1.83301C10.6614 1.83301 12.8337 4.03133 12.8337 6.76187H13.3337H13.8337C13.8337 3.49586 11.2303 0.833008 8.00033 0.833008V1.33301ZM8.00033 1.33301V0.833008C4.77033 0.833008 2.16699 3.49586 2.16699 6.76187H2.66699H3.16699C3.16699 4.03133 5.33928 1.83301 8.00033 1.83301V1.33301ZM10.0003 6.66634H9.50033C9.50033 7.49477 8.82875 8.16634 8.00033 8.16634V8.66634V9.16634C9.38104 9.16634 10.5003 8.04705 10.5003 6.66634H10.0003ZM8.00033 8.66634V8.16634C7.1719 8.16634 6.50033 7.49477 6.50033 6.66634H6.00033H5.50033C5.50033 8.04705 6.61961 9.16634 8.00033 9.16634V8.66634ZM6.00033 6.66634H6.50033C6.50033 5.83791 7.1719 5.16634 8.00033 5.16634V4.66634V4.16634C6.61961 4.16634 5.50033 5.28563 5.50033 6.66634H6.00033ZM8.00033 4.66634V5.16634C8.82875 5.16634 9.50033 5.83791 9.50033 6.66634H10.0003H10.5003C10.5003 5.28563 9.38104 4.16634 8.00033 4.16634V4.66634Z" fill="#626060"/>
</svg>
