<svg width="16" height="16" viewBox="0 0 16 16" fill="none" xmlns="http://www.w3.org/2000/svg">
<path d="M10.6915 2.66667C11.7838 2.66667 12.6822 3.58667 12.6822 4.72C12.6822 5.85333 11.7903 6.76667 10.6915 6.76667" fill="#96BFFF"/>
<path d="M13.755 12.4933C14.6663 12.08 14.6663 11.3867 14.6663 10.6067C14.6663 9.46 13.2121 8.5 11.312 8.32667" fill="#96BFFF"/>
<path d="M9.0887 4.66667C9.0887 6.14 7.93181 7.33333 6.50347 7.33333C5.07513 7.33333 3.91824 6.14 3.91824 4.66667C3.91824 3.19333 5.07513 2 6.50347 2C7.93181 2 9.0887 3.19333 9.0887 4.66667Z" fill="#96BFFF"/>
<path d="M11.6739 11C11.6739 12.66 11.6739 14 6.50347 14C1.33301 14 1.33301 12.66 1.33301 11C1.33301 9.88735 2.37251 8.91846 3.91824 8.40049C4.67864 8.14569 5.56154 10.3333 6.50347 10.3333C7.4454 10.3333 8.32831 8.14569 9.0887 8.40049C10.6344 8.91846 11.6739 9.88735 11.6739 11Z" fill="#96BFFF"/>
<path d="M10.6915 2.66667C11.7838 2.66667 12.6822 3.58667 12.6822 4.72C12.6822 5.85333 11.7903 6.76667 10.6915 6.76667M13.755 12.4933C14.6663 12.08 14.6663 11.3867 14.6663 10.6067C14.6663 9.46 13.2121 8.5 11.312 8.32667M8.33301 11H9.99967M9.0887 4.66667C9.0887 6.14 7.93181 7.33333 6.50347 7.33333C5.07513 7.33333 3.91824 6.14 3.91824 4.66667C3.91824 3.19333 5.07513 2 6.50347 2C7.93181 2 9.0887 3.19333 9.0887 4.66667ZM11.6739 11C11.6739 12.66 11.6739 14 6.50347 14C1.33301 14 1.33301 12.66 1.33301 11C1.33301 9.88735 2.37251 8.91846 3.91824 8.40049C4.67864 8.14569 5.56154 10.3333 6.50347 10.3333C7.4454 10.3333 8.32831 8.14569 9.0887 8.40049C10.6344 8.91846 11.6739 9.88735 11.6739 11Z" stroke="#626060" stroke-linecap="round" stroke-linejoin="round"/>
</svg>
