<svg width="13" height="15" viewBox="0 0 13 15" fill="none" xmlns="http://www.w3.org/2000/svg">
<path d="M8.5 3.16667C8.5 4.63943 7.30609 5.83333 5.83333 5.83333C4.36057 5.83333 3.16667 4.63943 3.16667 3.16667C3.16667 1.69391 4.36057 0.5 5.83333 0.5C7.30609 0.5 8.5 1.69391 8.5 3.16667Z" fill="#96BFFF"/>
<path d="M12.5 9.83333C12.5 11.3061 11.3061 12.5 9.83333 12.5C8.36057 12.5 7.16667 11.3061 7.16667 9.83333C7.16667 8.36057 8.36057 7.16667 9.83333 7.16667C11.3061 7.16667 12.5 8.36057 12.5 9.83333Z" fill="#96BFFF"/>
<path d="M10.3333 8.94444C10.3333 8.66829 10.1095 8.44444 9.83333 8.44444C9.55719 8.44444 9.33333 8.66829 9.33333 8.94444H9.83333H10.3333ZM9.33333 10.7222C9.33333 10.9984 9.55719 11.2222 9.83333 11.2222C10.1095 11.2222 10.3333 10.9984 10.3333 10.7222H9.83333H9.33333ZM8.94434 9.33333C8.66819 9.33333 8.44434 9.55719 8.44434 9.83333C8.44434 10.1095 8.66819 10.3333 8.94434 10.3333V9.83333V9.33333ZM10.7221 10.3333C10.9983 10.3333 11.2221 10.1095 11.2221 9.83333C11.2221 9.55719 10.9983 9.33333 10.7221 9.33333V9.83333V10.3333ZM8.5 3.16667H8C8 4.36328 7.02995 5.33333 5.83333 5.33333V5.83333V6.33333C7.58224 6.33333 9 4.91557 9 3.16667H8.5ZM5.83333 5.83333V5.33333C4.63672 5.33333 3.66667 4.36328 3.66667 3.16667H3.16667H2.66667C2.66667 4.91557 4.08443 6.33333 5.83333 6.33333V5.83333ZM3.16667 3.16667H3.66667C3.66667 1.97005 4.63672 1 5.83333 1V0.5V0C4.08443 0 2.66667 1.41776 2.66667 3.16667H3.16667ZM5.83333 0.5V1C7.02995 1 8 1.97005 8 3.16667H8.5H9C9 1.41776 7.58224 0 5.83333 0V0.5ZM5.83333 13.8333V13.3333C4.51718 13.3333 3.55383 13.2501 2.84919 13.1075C2.14235 12.9644 1.72941 12.7681 1.48239 12.5669C1.02688 12.196 1 11.7052 1 10.8333H0.5H0C0 11.6183 -0.0268767 12.6275 0.850941 13.3424C1.27059 13.6841 1.85765 13.9271 2.65081 14.0876C3.44617 14.2486 4.48282 14.3333 5.83333 14.3333V13.8333ZM0.5 10.8333H1C1 10.2658 1.41425 9.6501 2.30723 9.1478C3.18453 8.65432 4.43018 8.33333 5.83333 8.33333V7.83333V7.33333C4.29097 7.33333 2.86995 7.68392 1.81697 8.27622C0.779655 8.85971 0 9.74404 0 10.8333H0.5ZM5.83333 7.83333V8.33333C6.50455 8.33333 7.14237 8.40687 7.72233 8.53892L7.83333 8.0514L7.94434 7.56388C7.28905 7.41468 6.57665 7.33333 5.83333 7.33333V7.83333ZM11.0378 12.1667L10.5617 12.014C10.4573 12.3396 10.2316 12.6534 9.56419 12.9018C8.86219 13.1632 7.71289 13.3333 5.83333 13.3333V13.8333V14.3333C7.7454 14.3333 9.03994 14.1641 9.91307 13.839C10.8208 13.5011 11.3015 12.9816 11.5139 12.3194L11.0378 12.1667ZM12.5 9.83333H12C12 11.0299 11.03 12 9.83333 12V12.5V13C11.5822 13 13 11.5822 13 9.83333H12.5ZM9.83333 12.5V12C8.63672 12 7.66667 11.0299 7.66667 9.83333H7.16667H6.66667C6.66667 11.5822 8.08443 13 9.83333 13V12.5ZM7.16667 9.83333H7.66667C7.66667 8.63672 8.63672 7.66667 9.83333 7.66667V7.16667V6.66667C8.08443 6.66667 6.66667 8.08443 6.66667 9.83333H7.16667ZM9.83333 7.16667V7.66667C11.03 7.66667 12 8.63672 12 9.83333H12.5H13C13 8.08443 11.5822 6.66667 9.83333 6.66667V7.16667ZM9.83333 8.94444H9.33333V10.7222H9.83333H10.3333V8.94444H9.83333ZM8.94434 9.83333V10.3333H10.7221V9.83333V9.33333H8.94434V9.83333Z" fill="#626060"/>
</svg>
