<svg width="16" height="16" viewBox="0 0 16 16" fill="none" xmlns="http://www.w3.org/2000/svg">
<path d="M3.41196 7.09726L6.10258 2.82921C6.50136 2.19663 6.70075 1.88035 6.91162 1.71084C7.53831 1.20706 8.46185 1.20706 9.08855 1.71084C9.29941 1.88035 9.49881 2.19664 9.89758 2.82921L12.5882 7.09726C13.8303 9.06752 13.494 11.5785 11.7712 13.198C9.68848 15.1558 6.31168 15.1558 4.22893 13.198C2.50615 11.5785 2.16989 9.06752 3.41196 7.09726Z" fill="#96BFFF"/>
<path d="M5.30279 7.99967C4.24268 9.2915 4.52968 10.9379 6.00008 11.9997M6.10258 2.82921L3.41196 7.09726C2.16989 9.06752 2.50615 11.5785 4.22893 13.198C6.31168 15.1558 9.68848 15.1558 11.7712 13.198C13.494 11.5785 13.8303 9.06752 12.5882 7.09726L9.89758 2.82921C9.49881 2.19664 9.29941 1.88035 9.08855 1.71084C8.46185 1.20706 7.53831 1.20706 6.91162 1.71084C6.70075 1.88035 6.50136 2.19663 6.10258 2.82921Z" stroke="#626060" stroke-linecap="round"/>
</svg>
