<svg width="20" height="20" viewBox="0 0 20 20" fill="none" xmlns="http://www.w3.org/2000/svg">
<path d="M11.2953 1.16905C11.0203 1.14404 10.7771 1.34672 10.7521 1.62172C10.7271 1.89673 10.9297 2.13994 11.2047 2.16494L11.25 1.66699L11.2953 1.16905ZM15.6694 4.31864L16.023 3.96509V3.96509L15.6694 4.31864ZM17.8231 8.78333C17.8481 9.05834 18.0913 9.26101 18.3663 9.23601C18.6413 9.21101 18.844 8.9678 18.819 8.69279L18.3211 8.73806L17.8231 8.78333ZM11.9766 4.1326C11.711 4.05674 11.4343 4.21048 11.3584 4.476C11.2826 4.74152 11.4363 5.01826 11.7018 5.09412L11.8392 4.61336L11.9766 4.1326ZM13.9016 6.0865L13.548 6.44006V6.44006L13.9016 6.0865ZM14.894 8.28626C14.9698 8.55177 15.2466 8.70552 15.5121 8.62966C15.7776 8.5538 15.9314 8.27705 15.8555 8.01154L15.3747 8.1489L14.894 8.28626ZM12.5839 12.523L12.9465 12.8673L12.9465 12.8673L12.5839 12.523ZM12.9635 12.1234L12.6009 11.7791V11.7791L12.9635 12.1234ZM14.9774 11.8439L14.7279 12.2773H14.7279L14.9774 11.8439ZM16.5694 12.7603L16.32 13.1937L16.5694 12.7603ZM17.0181 15.6324L17.3806 15.9767V15.9767L17.0181 15.6324ZM15.8343 16.8787L15.4717 16.5343V16.5343L15.8343 16.8787ZM14.7302 17.4696L14.7793 17.9672V17.9672L14.7302 17.4696ZM6.5128 13.7296L6.15027 14.074V14.074L6.5128 13.7296ZM2.50241 5.80527L2.00312 5.83207L2.00312 5.83207L2.50241 5.80527ZM7.65892 7.33789L8.02145 7.68223V7.68223L7.65892 7.33789ZM7.89793 7.08625L8.26046 7.4306H8.26046L7.89793 7.08625ZM8.02854 4.74458L8.4368 4.45592V4.45592L8.02854 4.74458ZM6.97771 3.25834L6.56945 3.54699L6.56945 3.54699L6.97771 3.25834ZM4.38454 3.00753L4.74707 3.35187H4.74707L4.38454 3.00753ZM3.07654 4.38461L2.71401 4.04026H2.71401L3.07654 4.38461ZM9.21927 10.8802L9.5818 10.5359V10.5359L9.21927 10.8802ZM11.25 1.66699C11.2047 2.16494 11.2045 2.16491 11.2042 2.16489C11.2041 2.16488 11.2039 2.16486 11.2037 2.16484C11.2034 2.16481 11.2031 2.16479 11.2029 2.16476C11.2023 2.16471 11.2019 2.16468 11.2017 2.16465C11.2011 2.16459 11.201 2.16458 11.2014 2.16462C11.2021 2.1647 11.2047 2.16499 11.209 2.16554C11.2177 2.16665 11.2335 2.16884 11.2562 2.17262C11.3015 2.18017 11.3741 2.19406 11.4712 2.21835C11.6655 2.26691 11.9584 2.35713 12.3286 2.52165C13.0677 2.85014 14.1216 3.47792 15.3159 4.6722L15.6694 4.31864L16.023 3.96509C14.7424 2.68449 13.5866 1.98644 12.7347 1.60783C12.3094 1.41879 11.9615 1.31014 11.7138 1.24821C11.59 1.21726 11.4913 1.19801 11.4206 1.18622C11.3852 1.18033 11.3569 1.17631 11.3359 1.17362C11.3254 1.17228 11.3167 1.17127 11.3099 1.17053C11.3065 1.17016 11.3036 1.16986 11.3012 1.16961C11.2999 1.16949 11.2988 1.16938 11.2979 1.16929C11.2974 1.16924 11.2969 1.1692 11.2965 1.16916C11.2963 1.16914 11.296 1.16911 11.2958 1.1691C11.2956 1.16907 11.2953 1.16905 11.25 1.66699ZM15.6694 4.31864L15.3159 4.6722C16.5101 5.86647 17.1379 6.92038 17.4664 7.6595C17.6309 8.02965 17.7211 8.32258 17.7697 8.51682C17.794 8.61399 17.8079 8.68657 17.8154 8.73187C17.8192 8.75453 17.8214 8.77037 17.8225 8.77905C17.8231 8.7834 17.8234 8.78595 17.8234 8.78668C17.8235 8.78704 17.8235 8.78695 17.8234 8.78639C17.8234 8.78611 17.8233 8.78572 17.8233 8.78521C17.8233 8.78495 17.8232 8.78467 17.8232 8.78436C17.8232 8.7842 17.8232 8.78394 17.8232 8.78386C17.8231 8.7836 17.8231 8.78333 18.3211 8.73806C18.819 8.69279 18.819 8.69251 18.819 8.69221C18.819 8.6921 18.8189 8.6918 18.8189 8.69159C18.8189 8.69115 18.8188 8.69069 18.8188 8.6902C18.8187 8.68922 18.8186 8.68811 18.8184 8.68689C18.8182 8.68444 18.8179 8.68152 18.8175 8.67813C18.8168 8.67135 18.8158 8.66268 18.8144 8.65218C18.8118 8.63118 18.8077 8.60282 18.8018 8.56747C18.7901 8.49677 18.7708 8.39809 18.7398 8.27429C18.6779 8.02659 18.5693 7.6787 18.3802 7.25336C18.0016 6.40149 17.3036 5.24569 16.023 3.96509L15.6694 4.31864ZM11.8392 4.61336C11.7018 5.09412 11.7016 5.09406 11.7014 5.09399C11.7013 5.09397 11.7011 5.09391 11.7009 5.09387C11.7007 5.09379 11.7004 5.09371 11.7001 5.09363C11.6996 5.09348 11.6991 5.09334 11.6987 5.09322C11.6979 5.09297 11.6972 5.09278 11.6968 5.09265C11.6959 5.09238 11.6958 5.09234 11.6965 5.09256C11.6979 5.093 11.7023 5.09446 11.7099 5.09712C11.7249 5.10245 11.752 5.11261 11.7905 5.1291C11.8674 5.16205 11.9899 5.22041 12.1517 5.31618C12.475 5.50755 12.9577 5.84968 13.548 6.44006L13.9016 6.0865L14.2551 5.73295C13.6081 5.08589 13.0595 4.69145 12.661 4.45561C12.4619 4.33777 12.3008 4.25986 12.1844 4.20995C12.1262 4.18501 12.0792 4.16709 12.0443 4.15469C12.0268 4.1485 12.0124 4.14368 12.001 4.14006C11.9954 4.13825 11.9905 4.13674 11.9864 4.13551C11.9844 4.13489 11.9825 4.13434 11.9809 4.13386C11.9801 4.13361 11.9793 4.13339 11.9786 4.13318C11.9782 4.13308 11.9779 4.13297 11.9775 4.13288C11.9774 4.13283 11.9771 4.13276 11.977 4.13274C11.9768 4.13267 11.9766 4.1326 11.8392 4.61336ZM13.9016 6.0865L13.548 6.44006C14.1384 7.03043 14.4805 7.51305 14.6719 7.8364C14.7677 7.99822 14.826 8.12073 14.859 8.19762C14.8755 8.23609 14.8856 8.26322 14.891 8.27824C14.8936 8.28575 14.8951 8.29023 14.8955 8.2916C14.8957 8.29228 14.8957 8.29219 14.8954 8.2913C14.8953 8.29086 14.8951 8.29022 14.8949 8.28938C14.8947 8.28896 14.8946 8.28849 14.8945 8.28797C14.8944 8.28771 14.8943 8.28743 14.8942 8.28715C14.8942 8.28701 14.8941 8.28678 14.8941 8.28671C14.894 8.28649 14.894 8.28626 15.3747 8.1489C15.8555 8.01154 15.8554 8.0113 15.8554 8.01106C15.8553 8.01098 15.8553 8.01074 15.8552 8.01057C15.8551 8.01023 15.855 8.00988 15.8549 8.00952C15.8547 8.0088 15.8545 8.00803 15.8542 8.00721C15.8538 8.00557 15.8532 8.00373 15.8526 8.00168C15.8513 7.9976 15.8498 7.99272 15.848 7.98706C15.8444 7.97574 15.8396 7.96129 15.8334 7.94383C15.821 7.90889 15.8031 7.86191 15.7781 7.8037C15.7282 7.68724 15.6503 7.52618 15.5325 7.32708C15.2966 6.92858 14.9022 6.38001 14.2551 5.73295L13.9016 6.0865ZM12.5839 12.523L12.9465 12.8673L13.326 12.4678L12.9635 12.1234L12.6009 11.7791L12.2214 12.1787L12.5839 12.523ZM14.9774 11.8439L14.7279 12.2773L16.32 13.1937L16.5694 12.7603L16.8189 12.327L15.2268 11.4106L14.9774 11.8439ZM17.0181 15.6324L16.6555 15.288L15.4717 16.5343L15.8343 16.8787L16.1968 17.223L17.3806 15.9767L17.0181 15.6324ZM14.7302 17.4696L14.6811 16.972C13.4529 17.0932 10.2926 16.983 6.87533 13.3853L6.5128 13.7296L6.15027 14.074C9.81099 17.928 13.2919 18.114 14.7793 17.9672L14.7302 17.4696ZM6.5128 13.7296L6.87533 13.3853C3.62381 9.96206 3.07074 7.06494 3.00169 5.77847L2.50241 5.80527L2.00312 5.83207C2.08432 7.34481 2.72739 10.4703 6.15027 14.074L6.5128 13.7296ZM7.65892 7.33789L8.02145 7.68223L8.26046 7.4306L7.89793 7.08625L7.5354 6.74191L7.29639 6.99354L7.65892 7.33789ZM8.02854 4.74458L8.4368 4.45592L7.38598 2.96968L6.97771 3.25834L6.56945 3.54699L7.62027 5.03323L8.02854 4.74458ZM4.38454 3.00753L4.02201 2.66318L2.71401 4.04026L3.07654 4.38461L3.43907 4.72895L4.74707 3.35187L4.38454 3.00753ZM7.65892 7.33789C7.29639 6.99354 7.29593 6.99403 7.29546 6.99452C7.2953 6.99469 7.29483 6.99519 7.29452 6.99553C7.29388 6.99621 7.29322 6.99691 7.29256 6.99763C7.29122 6.99906 7.28983 7.00057 7.28839 7.00216C7.28551 7.00532 7.28242 7.00879 7.27914 7.01257C7.27257 7.02011 7.26525 7.02888 7.25732 7.0389C7.24146 7.05893 7.22319 7.08399 7.20381 7.11427C7.16496 7.17498 7.12201 7.2562 7.08537 7.35918C7.01101 7.56813 6.96836 7.85048 7.02094 8.20934C7.12453 8.91639 7.59225 9.89332 8.85674 11.2246L9.21927 10.8802L9.5818 10.5359C8.38378 9.27461 8.07132 8.48037 8.01037 8.06437C7.98068 7.86172 8.00965 7.74458 8.0275 7.69443C8.03696 7.66785 8.04525 7.65461 8.04612 7.65326C8.0466 7.6525 8.04531 7.65462 8.04146 7.65948C8.03954 7.6619 8.03698 7.66502 8.03368 7.66882C8.03203 7.67071 8.03019 7.67278 8.02816 7.67502C8.02714 7.67613 8.02608 7.6773 8.02496 7.6785C8.0244 7.6791 8.02383 7.67971 8.02324 7.68033C8.02295 7.68064 8.0225 7.68112 8.02236 7.68127C8.0219 7.68175 8.02145 7.68223 7.65892 7.33789ZM9.21927 10.8802L8.85674 11.2246C10.1182 12.5527 11.0532 13.055 11.7449 13.1674C12.0984 13.2248 12.3793 13.1783 12.5879 13.096C12.6902 13.0557 12.7703 13.0086 12.8296 12.9666C12.8592 12.9456 12.8836 12.9259 12.9029 12.9089C12.9126 12.9004 12.921 12.8926 12.9283 12.8856C12.9319 12.8821 12.9352 12.8788 12.9383 12.8758C12.9398 12.8743 12.9412 12.8728 12.9426 12.8714C12.9433 12.8707 12.9439 12.87 12.9446 12.8693C12.9449 12.869 12.9454 12.8685 12.9455 12.8683C12.946 12.8678 12.9465 12.8673 12.5839 12.523C12.2214 12.1787 12.2219 12.1782 12.2223 12.1777C12.2225 12.1775 12.2229 12.1771 12.2232 12.1768C12.2238 12.1761 12.2244 12.1755 12.225 12.1749C12.2261 12.1738 12.2272 12.1726 12.2283 12.1716C12.2304 12.1694 12.2324 12.1674 12.2343 12.1657C12.2379 12.1621 12.241 12.1593 12.2435 12.1572C12.2484 12.1528 12.251 12.151 12.2511 12.1509C12.2514 12.1507 12.2418 12.1576 12.221 12.1658C12.1835 12.1806 12.085 12.2095 11.9052 12.1803C11.5302 12.1194 10.7828 11.8003 9.5818 10.5359L9.21927 10.8802ZM6.97771 3.25834L7.38598 2.96968C6.58309 1.83411 4.98522 1.64911 4.02201 2.66318L4.38454 3.00753L4.74707 3.35187C5.24138 2.83146 6.10072 2.88404 6.56945 3.54699L6.97771 3.25834ZM2.50241 5.80527L3.00169 5.77847C2.98153 5.40286 3.14587 5.03763 3.43907 4.72895L3.07654 4.38461L2.71401 4.04026C2.28451 4.49245 1.96456 5.11354 2.00312 5.83207L2.50241 5.80527ZM15.8343 16.8787L15.4717 16.5343C15.2255 16.7935 14.9562 16.9448 14.6811 16.972L14.7302 17.4696L14.7793 17.9672C15.3633 17.9095 15.841 17.5976 16.1968 17.223L15.8343 16.8787ZM7.89793 7.08625L8.26046 7.4306C9.02327 6.6275 9.08003 5.36568 8.4368 4.45592L8.02854 4.74458L7.62027 5.03323C8.00444 5.57658 7.95019 6.30522 7.5354 6.74191L7.89793 7.08625ZM16.5694 12.7603L16.32 13.1937C17.0717 13.6263 17.2239 14.6896 16.6555 15.288L17.0181 15.6324L17.3806 15.9767C18.4104 14.8925 18.112 13.0713 16.8189 12.327L16.5694 12.7603ZM12.9635 12.1234L13.326 12.4678C13.6879 12.0867 14.2519 12.0033 14.7279 12.2773L14.9774 11.8439L15.2268 11.4106C14.3602 10.9118 13.2884 11.0553 12.6009 11.7791L12.9635 12.1234Z" fill="#626060"/>
</svg>
