<svg width="20" height="20" viewBox="0 0 20 20" fill="none" xmlns="http://www.w3.org/2000/svg">
<path d="M5.00008 6.66634L6.79916 8.16557C8.32969 9.44101 9.09496 10.0787 10.0001 10.0787C10.9052 10.0787 11.6705 9.44102 13.201 8.16557L15.0001 6.66634M8.33341 16.6663H11.6667C14.8094 16.6663 16.3808 16.6663 17.3571 15.69C18.3334 14.7137 18.3334 13.1424 18.3334 9.99967C18.3334 6.85698 18.3334 5.28563 17.3571 4.30932C16.3808 3.33301 14.8094 3.33301 11.6667 3.33301H8.33341C5.19072 3.33301 3.61937 3.33301 2.64306 4.30932C1.66675 5.28563 1.66675 6.85698 1.66675 9.99967C1.66675 13.1424 1.66675 14.7137 2.64306 15.69C3.61937 16.6663 5.19072 16.6663 8.33341 16.6663Z" stroke="#626060" stroke-linecap="round"/>
</svg>
