<svg width="16" height="16" viewBox="0 0 16 16" fill="none" xmlns="http://www.w3.org/2000/svg">
<g clip-path="url(#clip0_1435_42306)">
<path d="M11.9999 9.33301C11.9999 12.2785 9.6121 14.6663 6.66658 14.6663C3.72107 14.6663 1.33325 12.2785 1.33325 9.33301C1.33325 6.38749 3.72107 3.99967 6.66658 3.99967C9.6121 3.99967 11.9999 6.38749 11.9999 9.33301Z" fill="#96BFFF"/>
<path d="M14.6666 1.33301H15.1666C15.1666 1.05687 14.9427 0.833008 14.6666 0.833008V1.33301ZM14.1666 4.66634C14.1666 4.94248 14.3904 5.16634 14.6666 5.16634C14.9427 5.16634 15.1666 4.94248 15.1666 4.66634H14.6666H14.1666ZM11.3333 0.833008C11.0571 0.833008 10.8333 1.05687 10.8333 1.33301C10.8333 1.60915 11.0571 1.83301 11.3333 1.83301V1.33301V0.833008ZM11.9999 9.33301H11.4999C11.4999 12.0024 9.33596 14.1663 6.66658 14.1663V14.6663V15.1663C9.88825 15.1663 12.4999 12.5547 12.4999 9.33301H11.9999ZM6.66658 14.6663V14.1663C3.99721 14.1663 1.83325 12.0024 1.83325 9.33301H1.33325H0.833252C0.833252 12.5547 3.44492 15.1663 6.66658 15.1663V14.6663ZM1.33325 9.33301H1.83325C1.83325 6.66363 3.99721 4.49967 6.66658 4.49967V3.99967V3.49967C3.44492 3.49967 0.833252 6.11135 0.833252 9.33301H1.33325ZM6.66658 3.99967V4.49967C9.33596 4.49967 11.4999 6.66363 11.4999 9.33301H11.9999H12.4999C12.4999 6.11135 9.88825 3.49967 6.66658 3.49967V3.99967ZM10.3333 5.66634L10.6868 6.01989L15.0201 1.68656L14.6666 1.33301L14.313 0.979454L9.9797 5.31279L10.3333 5.66634ZM14.6666 1.33301H14.1666V4.66634H14.6666H15.1666V1.33301H14.6666ZM11.3333 1.33301V1.83301H14.6666V1.33301V0.833008H11.3333V1.33301Z" fill="#626060"/>
</g>
<defs>
<clipPath id="clip0_1435_42306">
<rect width="16" height="16" fill="white"/>
</clipPath>
</defs>
</svg>
