<svg width="20" height="20" viewBox="0 0 20 20" fill="none" xmlns="http://www.w3.org/2000/svg">
<path d="M11.219 18.0624L11.0073 17.6094L11.219 18.0624ZM8.78081 18.0624L8.99253 17.6094L8.78081 18.0624ZM11.219 18.0624L11.0073 17.6094C10.3676 17.9084 9.63224 17.9084 8.99253 17.6094L8.78081 18.0624L8.56909 18.5153C9.47716 18.9398 10.5227 18.9398 11.4307 18.5153L11.219 18.0624ZM3.33325 8.45307H2.83325C2.83325 10.4017 3.38899 12.4975 4.37273 14.3089C5.35549 16.1184 6.78703 17.6824 8.56909 18.5153L8.78081 18.0624L8.99253 17.6094C7.4548 16.8907 6.16257 15.5092 5.25149 13.8316C4.3414 12.1559 3.83325 10.223 3.83325 8.45307H3.33325ZM16.6666 8.45307H16.1666C16.1666 10.223 15.6584 12.1559 14.7483 13.8316C13.8373 15.5092 12.545 16.8907 11.0073 17.6094L11.219 18.0624L11.4307 18.5153C13.2128 17.6824 14.6444 16.1184 15.6271 14.3089C16.6108 12.4975 17.1666 10.4017 17.1666 8.45307H16.6666ZM9.99992 1.66699V2.16699C13.3973 2.16699 16.1666 4.97296 16.1666 8.45307H16.6666H17.1666C17.1666 4.43749 13.9663 1.16699 9.99992 1.16699V1.66699ZM9.99992 1.66699V1.16699C6.03355 1.16699 2.83325 4.43749 2.83325 8.45307H3.33325H3.83325C3.83325 4.97296 6.60249 2.16699 9.99992 2.16699V1.66699ZM12.4999 8.33366H11.9999C11.9999 9.43823 11.1045 10.3337 9.99992 10.3337V10.8337V11.3337C11.6568 11.3337 12.9999 9.99051 12.9999 8.33366H12.4999ZM9.99992 10.8337V10.3337C8.89535 10.3337 7.99992 9.43823 7.99992 8.33366H7.49992H6.99992C6.99992 9.99051 8.34306 11.3337 9.99992 11.3337V10.8337ZM7.49992 8.33366H7.99992C7.99992 7.22909 8.89535 6.33366 9.99992 6.33366V5.83366V5.33366C8.34306 5.33366 6.99992 6.6768 6.99992 8.33366H7.49992ZM9.99992 5.83366V6.33366C11.1045 6.33366 11.9999 7.22909 11.9999 8.33366H12.4999H12.9999C12.9999 6.6768 11.6568 5.33366 9.99992 5.33366V5.83366Z" fill="#626060"/>
</svg>
