<svg width="16" height="16" viewBox="0 0 16 16" fill="none" xmlns="http://www.w3.org/2000/svg">
<path d="M9.25878 3.77561L9.75312 3.28127C10.5722 2.46223 11.9001 2.46223 12.7191 3.28127C13.5382 4.10032 13.5382 5.42825 12.7191 6.24729L12.2248 6.74162L7.68013 11.2863C7.37231 11.5941 7.2184 11.748 7.0487 11.8804C6.84852 12.0365 6.63192 12.1704 6.40273 12.2796C6.20845 12.3722 6.00196 12.441 5.58898 12.5787L3.83897 13.162L3.4112 13.3046C3.20796 13.3724 2.9839 13.3195 2.83242 13.168C2.68094 13.0165 2.62804 12.7924 2.69579 12.5892L2.83838 12.1614L3.42171 10.4114C3.55937 9.99845 3.62821 9.79195 3.7208 9.59767C3.83002 9.36849 3.96389 9.15189 4.12003 8.9517C4.25239 8.782 4.4063 8.62809 4.71412 8.32027L9.25878 3.77561Z" fill="#F2F7FF"/>
<path d="M9.25878 3.77561L9.75312 3.28127C10.5722 2.46223 11.9001 2.46223 12.7191 3.28127C13.5382 4.10032 13.5382 5.42825 12.7191 6.24729L12.2248 6.74162M9.25878 3.77561C9.25878 3.77561 9.32057 4.82607 10.2475 5.75295C11.1743 6.67983 12.2248 6.74162 12.2248 6.74162M9.25878 3.77561L4.71412 8.32027C4.4063 8.62809 4.25239 8.782 4.12003 8.9517C3.96389 9.15189 3.83002 9.36849 3.7208 9.59767C3.62821 9.79195 3.55937 9.99845 3.42171 10.4114L2.83838 12.1614M12.2248 6.74162L7.68013 11.2863C7.37231 11.5941 7.2184 11.748 7.0487 11.8804C6.84852 12.0365 6.63192 12.1704 6.40273 12.2796C6.20845 12.3722 6.00196 12.441 5.58898 12.5787L3.83897 13.162M3.83897 13.162L3.4112 13.3046C3.20796 13.3724 2.9839 13.3195 2.83242 13.168C2.68094 13.0165 2.62804 12.7924 2.69579 12.5892L2.83838 12.1614M3.83897 13.162L2.83838 12.1614" stroke="#626060"/>
</svg>
