<svg width="20" height="20" viewBox="0 0 20 20" fill="none" xmlns="http://www.w3.org/2000/svg">
<path d="M17.8334 11.4961C17.8334 11.7722 18.0573 11.9961 18.3334 11.9961C18.6096 11.9961 18.8334 11.7722 18.8334 11.4961H18.3334H17.8334ZM11.6667 18.8337C11.9429 18.8337 12.1667 18.6098 12.1667 18.3337C12.1667 18.0575 11.9429 17.8337 11.6667 17.8337V18.3337V18.8337ZM2.64306 17.3323L3.00106 16.9833L3.00106 16.9833L2.64306 17.3323ZM17.3571 3.95039L17.7151 3.60134V3.60134L17.3571 3.95039ZM2.64306 3.95039L3.00106 4.29944V4.29944L2.64306 3.95039ZM5.33341 2.94904C5.33341 3.22519 5.55727 3.44904 5.83341 3.44904C6.10956 3.44904 6.33341 3.22519 6.33341 2.94904H5.83341H5.33341ZM6.33341 1.66699C6.33341 1.39085 6.10956 1.16699 5.83341 1.16699C5.55727 1.16699 5.33341 1.39085 5.33341 1.66699H5.83341H6.33341ZM13.6667 2.94904C13.6667 3.22519 13.8906 3.44904 14.1667 3.44904C14.4429 3.44904 14.6667 3.22519 14.6667 2.94904H14.1667H13.6667ZM14.6667 1.66699C14.6667 1.39085 14.4429 1.16699 14.1667 1.16699C13.8906 1.16699 13.6667 1.39085 13.6667 1.66699H14.1667H14.6667ZM2.08341 6.72255C1.80727 6.72255 1.58341 6.9464 1.58341 7.22255C1.58341 7.49869 1.80727 7.72255 2.08341 7.72255V7.22255V6.72255ZM17.9167 7.72255C18.1929 7.72255 18.4167 7.49869 18.4167 7.22255C18.4167 6.9464 18.1929 6.72255 17.9167 6.72255V7.22255V7.72255ZM12.81 14.41L12.3655 14.6391C12.4471 14.7974 12.6067 14.9003 12.7846 14.9094L12.81 14.41ZM14.558 14.9997C14.8338 15.0137 15.0687 14.8015 15.0828 14.5258C15.0968 14.25 14.8846 14.015 14.6088 14.001L14.5834 14.5003L14.558 14.9997ZM12.5279 12.7713C12.4013 12.5258 12.0998 12.4294 11.8543 12.5559C11.6089 12.6824 11.5125 12.9839 11.639 13.2294L12.0834 13.0003L12.5279 12.7713ZM17.0318 13.8739C17.1765 14.1092 17.4844 14.1826 17.7196 14.038C17.9549 13.8934 18.0283 13.5855 17.8837 13.3502L17.4578 13.6121L17.0318 13.8739ZM17.7529 15.5906L18.1837 15.3368C18.0987 15.1925 17.9471 15.1004 17.7799 15.0914L17.7529 15.5906ZM16.1104 15.0011C15.8347 14.9861 15.5991 15.1976 15.5841 15.4733C15.5692 15.7491 15.7807 15.9847 16.0564 15.9996L16.0834 15.5003L16.1104 15.0011ZM18.1526 17.2541C18.2928 17.492 18.5993 17.5713 18.8372 17.4311C19.0751 17.291 19.1544 16.9845 19.0142 16.7465L18.5834 17.0003L18.1526 17.2541ZM13.5311 16.1267C13.3864 15.8915 13.0785 15.818 12.8433 15.9626C12.608 16.1073 12.5346 16.4152 12.6792 16.6504L13.1051 16.3886L13.5311 16.1267ZM8.33341 2.94904V3.44904H11.6667V2.94904V2.44904H8.33341V2.94904ZM18.3334 9.78665H17.8334V11.4961H18.3334H18.8334V9.78665H18.3334ZM11.6667 18.3337V17.8337H8.33341V18.3337V18.8337H11.6667V18.3337ZM1.66675 11.4961H2.16675V9.78665H1.66675H1.16675V11.4961H1.66675ZM8.33341 18.3337V17.8337C6.74758 17.8337 5.60977 17.8325 4.74414 17.7132C3.89422 17.596 3.38138 17.3733 3.00106 16.9833L2.64306 17.3323L2.28506 17.6814C2.88105 18.2926 3.64204 18.5707 4.60754 18.7038C5.55734 18.8348 6.77655 18.8337 8.33341 18.8337V18.3337ZM1.66675 11.4961H1.16675C1.16675 13.0939 1.16574 14.3413 1.29303 15.3124C1.42204 16.2966 1.69079 17.0719 2.28506 17.6814L2.64306 17.3323L3.00106 16.9833C2.61902 16.5914 2.39961 16.0602 2.28455 15.1824C2.16776 14.2915 2.16675 13.1215 2.16675 11.4961H1.66675ZM11.6667 2.94904V3.44904C13.2526 3.44904 14.3904 3.45016 15.256 3.56952C16.1059 3.68672 16.6188 3.90936 16.9991 4.29944L17.3571 3.95039L17.7151 3.60134C17.1191 2.99007 16.3581 2.71204 15.3926 2.5789C14.4428 2.44793 13.2236 2.44904 11.6667 2.44904V2.94904ZM18.3334 9.78665H18.8334C18.8334 8.1888 18.8344 6.94136 18.7071 5.97031C18.5781 4.98614 18.3094 4.21084 17.7151 3.60134L17.3571 3.95039L16.9991 4.29944C17.3811 4.69128 17.6005 5.22247 17.7156 6.10028C17.8324 6.99121 17.8334 8.16122 17.8334 9.78665H18.3334ZM8.33341 2.94904V2.44904C6.77655 2.44904 5.55734 2.44793 4.60754 2.5789C3.64204 2.71204 2.88105 2.99007 2.28506 3.60134L2.64306 3.95039L3.00106 4.29944C3.38138 3.90936 3.89422 3.68672 4.74414 3.56952C5.60977 3.45016 6.74758 3.44904 8.33341 3.44904V2.94904ZM1.66675 9.78665H2.16675C2.16675 8.16122 2.16776 6.99121 2.28455 6.10028C2.39961 5.22247 2.61902 4.69128 3.00106 4.29944L2.64306 3.95039L2.28506 3.60134C1.69079 4.21084 1.42204 4.98614 1.29303 5.97031C1.16574 6.94136 1.16675 8.1888 1.16675 9.78665H1.66675ZM5.83341 2.94904H6.33341V1.66699H5.83341H5.33341V2.94904H5.83341ZM14.1667 2.94904H14.6667V1.66699H14.1667H13.6667V2.94904H14.1667ZM2.08341 7.22255V7.72255H17.9167V7.22255V6.72255H2.08341V7.22255ZM12.81 14.41L12.7846 14.9094L14.558 14.9997L14.5834 14.5003L14.6088 14.001L12.8354 13.9107L12.81 14.41ZM12.81 14.41L13.2544 14.181L12.5279 12.7713L12.0834 13.0003L11.639 13.2294L12.3655 14.6391L12.81 14.41ZM17.4578 13.6121L17.8837 13.3502C17.6491 12.9686 16.9576 12.0003 15.3595 12.0003V12.5003V13.0003C16.455 13.0003 16.8796 13.6262 17.0318 13.8739L17.4578 13.6121ZM15.3595 12.5003V12.0003C14.4569 12.0003 13.8416 12.31 13.3784 12.7673C12.9584 13.182 12.6503 13.7482 12.394 14.1327L12.81 14.41L13.226 14.6874C13.5599 14.1865 13.758 13.7978 14.081 13.479C14.3607 13.2028 14.725 13.0003 15.3595 13.0003V12.5003ZM17.7529 15.5906L17.7799 15.0914L16.1104 15.0011L16.0834 15.5003L16.0564 15.9996L17.7259 16.0899L17.7529 15.5906ZM17.7529 15.5906L17.3221 15.8444L18.1526 17.2541L18.5834 17.0003L19.0142 16.7465L18.1837 15.3368L17.7529 15.5906ZM13.1051 16.3886L12.6792 16.6504C12.9138 17.032 13.6053 18.0003 15.2034 18.0003V17.5003V17.0003C14.1079 17.0003 13.6833 16.3744 13.5311 16.1267L13.1051 16.3886ZM15.2034 17.5003V18.0003C16.106 18.0003 16.7213 17.6906 17.1845 17.2333C17.6045 16.8187 17.9126 16.2525 18.1689 15.868L17.7529 15.5906L17.3369 15.3133C17.003 15.8142 16.8049 16.2028 16.4819 16.5217C16.2022 16.7979 15.8379 17.0003 15.2034 17.0003V17.5003Z" fill="#424242"/>
</svg>
