<svg width="16" height="16" viewBox="0 0 16 16" fill="none" xmlns="http://www.w3.org/2000/svg">
<path d="M10.6918 2.66667C11.7841 2.66667 12.6824 3.58667 12.6824 4.72C12.6824 5.85333 11.7905 6.76667 10.6918 6.76667" fill="#F2F7FF"/>
<path d="M13.7553 12.4933C14.6666 12.08 14.6666 11.3867 14.6666 10.6067C14.6666 9.46 13.2124 8.5 11.3122 8.32667" fill="#F2F7FF"/>
<path d="M9.08895 4.66667C9.08895 6.14 7.93206 7.33333 6.50372 7.33333C5.07538 7.33333 3.91848 6.14 3.91848 4.66667C3.91848 3.19333 5.07538 2 6.50372 2C7.93206 2 9.08895 3.19333 9.08895 4.66667Z" fill="#F2F7FF"/>
<path d="M11.6742 11C11.6742 12.66 11.6742 14 6.50372 14C1.33325 14 1.33325 12.66 1.33325 11C1.33325 9.88735 2.37275 8.91846 3.91848 8.40049C4.67888 8.14569 5.56179 10.3333 6.50372 10.3333C7.44564 10.3333 8.32855 8.14569 9.08895 8.40049C10.6347 8.91846 11.6742 9.88735 11.6742 11Z" fill="#F2F7FF"/>
<path d="M10.6918 2.66667C11.7841 2.66667 12.6824 3.58667 12.6824 4.72C12.6824 5.85333 11.7905 6.76667 10.6918 6.76667M13.7553 12.4933C14.6666 12.08 14.6666 11.3867 14.6666 10.6067C14.6666 9.46 13.2124 8.5 11.3122 8.32667M8.33325 11H9.99992M9.08895 4.66667C9.08895 6.14 7.93206 7.33333 6.50372 7.33333C5.07538 7.33333 3.91848 6.14 3.91848 4.66667C3.91848 3.19333 5.07538 2 6.50372 2C7.93206 2 9.08895 3.19333 9.08895 4.66667ZM11.6742 11C11.6742 12.66 11.6742 14 6.50372 14C1.33325 14 1.33325 12.66 1.33325 11C1.33325 9.88735 2.37275 8.91846 3.91848 8.40049C4.67888 8.14569 5.56179 10.3333 6.50372 10.3333C7.44564 10.3333 8.32855 8.14569 9.08895 8.40049C10.6347 8.91846 11.6742 9.88735 11.6742 11Z" stroke="#626060" stroke-linecap="round" stroke-linejoin="round"/>
</svg>
